<?xml version="1.0" encoding="utf-8"?>
<!-- Generator: Adobe Illustrator 16.0.0, SVG Export Plug-In . SVG Version: 6.00 Build 0)  -->
<!DOCTYPE svg PUBLIC "-//W3C//DTD SVG 1.1//EN" "http://www.w3.org/Graphics/SVG/1.1/DTD/svg11.dtd">
<svg version="1.1" id="Layer_1" xmlns="http://www.w3.org/2000/svg" xmlns:xlink="http://www.w3.org/1999/xlink" x="0px" y="0px"
	 width="18px" height="20px" viewBox="0 0 18 20" enable-background="new 0 0 18 20" xml:space="preserve">
<path fill="#FFFFFF" d="M17.59,11.75c0-0.414-0.336-0.75-0.75-0.75h-2.99l-0.617-1.5h1.922c0.414,0,0.75-0.336,0.75-0.75
	S15.568,8,15.154,8h-2.54L9.613,0.714c-0.231-0.562-1.155-0.562-1.387,0L5.226,8H2.685c-0.414,0-0.75,0.336-0.75,0.75
	S2.271,9.5,2.685,9.5h1.922L3.99,11H1c-0.414,0-0.75,0.336-0.75,0.75S0.586,12.5,1,12.5h2.372l-2.56,6.214
	c-0.158,0.384,0.025,0.822,0.408,0.979c0.382,0.16,0.821-0.025,0.979-0.407L4.994,12.5h7.852l2.795,6.785
	c0.119,0.29,0.398,0.465,0.693,0.465c0.096,0,0.192-0.018,0.285-0.057c0.384-0.157,0.566-0.596,0.408-0.979l-2.56-6.215h2.372
	C17.254,12.5,17.59,12.164,17.59,11.75z M8.92,2.969L10.992,8H6.848L8.92,2.969z M5.612,11L6.23,9.5h5.38l0.617,1.5H5.612z"/>
</svg>
