<svg width="20" height="20">
  <g fill="none" fillRule="evenodd">
    <path d="M0 0h20v20H0z"/>
    <path d="M7 14c.82842712 0 1.5.6715729 1.5 1.5S7.82842712 17 7 17s-1.5-.6715729-1.5-1.5S6.17157288 14 7 14zm6 0c.8284271 0 1.5.6715729 1.5 1.5S13.8284271 17 13 17s-1.5-.6715729-1.5-1.5.6715729-1.5 1.5-1.5zM7 8c.82842712 0 1.5.67157288 1.5 1.5 0 .8284271-.67157288 1.5-1.5 1.5s-1.5-.6715729-1.5-1.5C5.5 8.67157288 6.17157288 8 7 8zm6 0c.8284271 0 1.5.67157288 1.5 1.5 0 .8284271-.6715729 1.5-1.5 1.5s-1.5-.6715729-1.5-1.5c0-.82842712.6715729-1.5 1.5-1.5zM7 2c.82842712 0 1.5.67157288 1.5 1.5S7.82842712 5 7 5s-1.5-.67157288-1.5-1.5S6.17157288 2 7 2zm6 0c.8284271 0 1.5.67157288 1.5 1.5S13.8284271 5 13 5s-1.5-.67157288-1.5-1.5S12.1715729 2 13 2z" fill="#6B7384"/>
  </g>
</svg>