<svg width="11" height="18" viewBox="0 0 11 18" fill="none" xmlns="http://www.w3.org/2000/svg"><path d="M2 0C0.89543 0 0 0.89543 0 2C0 3.10457 0.89543 4 2 4C3.10457 4 4 3.10457 4 2C4 0.89543 3.10457 0 2 0Z" fill="#242838"/><path d="M7 2C7 0.89543 7.89543 0 9 0C10.1046 0 11 0.89543 11 2C11 3.10457 10.1046 4 9 4C7.89543 4 7 3.10457 7 2Z" fill="#242838"/><path d="M7 9C7 7.89543 7.89543 7 9 7C10.1046 7 11 7.89543 11 9C11 10.1046 10.1046 11 9 11C7.89543 11 7 10.1046 7 9Z" fill="#242838"/><path d="M9 14C7.89543 14 7 14.8954 7 16C7 17.1046 7.89543 18 9 18C10.1046 18 11 17.1046 11 16C11 14.8954 10.1046 14 9 14Z" fill="#242838"/><path d="M0 9C0 7.89543 0.89543 7 2 7C3.10457 7 4 7.89543 4 9C4 10.1046 3.10457 11 2 11C0.89543 11 0 10.1046 0 9Z" fill="#242838"/><path d="M2 14C0.89543 14 0 14.8954 0 16C0 17.1046 0.89543 18 2 18C3.10457 18 4 17.1046 4 16C4 14.8954 3.10457 14 2 14Z" fill="#242838"/></svg>