<?xml version="1.0" encoding="UTF-8"?>
<svg width="84px" height="84px" viewBox="0 0 84 84" version="1.1" xmlns="http://www.w3.org/2000/svg" xmlns:xlink="http://www.w3.org/1999/xlink">
    <!-- Generator: Sketch 52.6 (67491) - http://www.bohemiancoding.com/sketch -->
    <title>ledger_wallet.inline</title>
    <desc>Created with Sketch.</desc>
    <g id="ledger_wallet.inline" stroke="none" stroke-width="1" fill="none" fillRule="evenodd">
        <g id="ledger" transform="translate(23.000000, 1.000000)">
            <g id="Group-2-Copy-2">
                <path d="M21.8022561,1.42108547e-14 L34.5933221,1.42108547e-14 C36.8024611,1.38050425e-14 38.5933221,1.790861 38.5933221,4 L38.5933221,49.339831 C38.5933221,51.54897 36.8024611,53.339831 34.5933221,53.339831 L21.8022561,53.339831 C19.5931171,53.339831 17.8022561,51.54897 17.8022561,49.339831 L17.8022561,4 C17.8022561,1.790861 19.5931171,1.4616667e-14 21.8022561,1.42108547e-14 Z M27.9442396,48.6526992 C30.4013268,48.6526992 32.3931896,46.6573043 32.3931896,44.19586 C32.3931896,41.7344156 30.4013268,39.7390208 27.9442396,39.7390208 C25.4871523,39.7390208 23.4952895,41.7344156 23.4952895,44.19586 C23.4952895,46.6573043 25.4871523,48.6526992 27.9442396,48.6526992 Z" id="Combined-Shape" fill="#665E5D"></path>
                <rect id="Rectangle-Copy-12" fill="#403938" x="22.3661487" y="5.07998391" width="11.6632809" height="23.367926" rx="4"></rect>
                <path d="M33.0015406,36.015266 L33.3855964,36.271893 C37.893612,39.2841587 39.1799996,45.3401461 36.2856865,49.9247837 L16.5871633,81.1275554 C15.407862,82.9955874 12.9375102,83.5539138 11.0694782,82.3746125 C11.040228,82.3561466 11.0112186,82.3373021 10.9824572,82.3180837 L0.664971274,75.4239172 C-1.13823495,74.2190109 -1.65278998,71.7966159 -0.495064761,69.9627609 L19.0676989,38.9750345 C21.9995561,34.3309263 28.1410896,32.9428727 32.7851979,35.87473 C32.8579167,35.9206379 32.930037,35.9674872 33.0015406,36.015266 Z M27.9442396,49.7838423 C31.0249341,49.7838423 33.5223304,47.2820174 33.5223304,44.19586 C33.5223304,41.1097026 31.0249341,38.6078777 27.9442396,38.6078777 C24.863545,38.6078777 22.3661487,41.1097026 22.3661487,44.19586 C22.3661487,47.2820174 24.863545,49.7838423 27.9442396,49.7838423 Z" id="Combined-Shape" fill="#E8D8D4"></path>
            </g>
        </g>
    </g>
</svg>