<svg id="Layer_1" xmlns="http://www.w3.org/2000/svg" viewBox="0 0 520 832.7"><style></style><switch><g><linearGradient id="SVGID_1_" gradientUnits="userSpaceOnUse" x1="230.801" y1="609.836" x2="303.432" y2="501.457"><stop offset="0" stopColor="#17d1aa"/><stop offset=".066" stopColor="#1ac2ae"/><stop offset=".265" stopColor="#229bb8"/><stop offset=".462" stopColor="#297cc0"/><stop offset=".652" stopColor="#2d66c6"/><stop offset=".835" stopColor="#3059ca"/><stop offset="1" stopColor="#3154cb"/></linearGradient><path d="M267.1 480.1v151" fill="none" stroke="url(#SVGID_1_)" stroke-width="5" stroke-linecap="round" stroke-linejoin="round" stroke-miterlimit="10"/><linearGradient id="SVGID_2_" gradientUnits="userSpaceOnUse" x1="280.505" y1="490.6" x2="256.518" y2="517.204"><stop offset="0" stopColor="#17d1aa"/><stop offset=".066" stopColor="#1ac2ae"/><stop offset=".265" stopColor="#229bb8"/><stop offset=".462" stopColor="#297cc0"/><stop offset=".652" stopColor="#2d66c6"/><stop offset=".835" stopColor="#3059ca"/><stop offset="1" stopColor="#3154cb"/></linearGradient><path d="M248.9 483.1v24.7c0 2.6 1.4 5 3.6 6.3l24.2 16.7c6.2.7 10.6-3 10.6-8.5v-20.4l-38.4-18.8z" fill="url(#SVGID_2_)"/><linearGradient id="SVGID_3_" gradientUnits="userSpaceOnUse" x1="266.564" y1="494.571" x2="253.541" y2="530.498"><stop offset="0" stopColor="#3154cb"/><stop offset=".165" stopColor="#3059ca"/><stop offset=".347" stopColor="#2d66c6"/><stop offset=".538" stopColor="#297cc0"/><stop offset=".735" stopColor="#229bb8"/><stop offset=".934" stopColor="#1ac2ae"/><stop offset="1" stopColor="#17d1aa"/></linearGradient><path d="M243.6 484.8v24.7c0 2.6 1.4 5 3.6 6.3l24.1 14.3c4.7 2.8 10.6-.6 10.6-6.1v-20.4l-38.3-18.8z" fill="url(#SVGID_3_)"/><linearGradient id="SVGID_4_" gradientUnits="userSpaceOnUse" x1="149.587" y1="-91.532" x2="366.743" y2="-415.568" gradientTransform="matrix(1 .5145 0 1 0 415.1)"><stop offset="0" stopColor="#3154cb"/><stop offset=".165" stopColor="#3059ca"/><stop offset=".347" stopColor="#2d66c6"/><stop offset=".538" stopColor="#297cc0"/><stop offset=".735" stopColor="#229bb8"/><stop offset=".934" stopColor="#1ac2ae"/><stop offset="1" stopColor="#17d1aa"/></linearGradient><path d="M399.5 250.9c0-15.9-13.3-36.1-29.9-45.5L186.9 103.3c-13.9-8.3-41.5-1.6-41.5-1.6l7.4 205.9c-.1 5.7 1.4 12.2 4.3 18.6l51.1 112.1s16.5 33.5 34.4 43.7l60.7 46.3c.6 0 1.3.1 1.9.1 15.5.4 30.8-6.5 42.3-18.5l47.5-48.8c2.8-3.3 4.3-8 4.5-13.7V250.9z" fill="url(#SVGID_4_)"/><linearGradient id="SVGID_5_" gradientUnits="userSpaceOnUse" x1="135.367" y1="-75.314" x2="352.523" y2="-399.351" gradientTransform="matrix(1 .5145 0 1 0 415.1)"><stop offset="0" stopColor="#17d1aa"/><stop offset=".066" stopColor="#1ac2ae"/><stop offset=".265" stopColor="#229bb8"/><stop offset=".462" stopColor="#297cc0"/><stop offset=".652" stopColor="#2d66c6"/><stop offset=".835" stopColor="#3059ca"/><stop offset="1" stopColor="#3154cb"/></linearGradient><path d="M383.2 257.3c0-15.9-13.3-36.1-29.9-45.5l-187-106.4c-16.6-9.4-29.8-4.3-29.8 11.6v197c-.1 5.7 1.4 12.2 4.3 18.6l51.1 112.1s16.5 33.5 34.4 43.7l66 37.5c17.9 10.2 33.8-3.5 33.8-3.5l52.6-54.9c2.8-3.3 4.3-8 4.5-13.7V257.3z" fill="url(#SVGID_5_)"/><path d="M170.2 184.8l179.4 102c5.4 3.1 9.8 10.3 9.8 16.2v129.1c0 5.9-4.4 8.2-9.8 5.1l-179.4-102c-5.4-3.1-9.8-10.3-9.8-16.2V189.9c0-5.9 4.4-8.2 9.8-5.1z" fill="#2c30d1"/><path d="M282.7 302.1l-10.9-6.2-23.8-13.5c-1.4-4.4-2.6-10.1-1.7-13.8.7-2.7 2.4-4 5.4-4.2 3.2-.2 6.1.9 8.9 3.5 3.5 3.3 6.3 8.5 8.2 12.6.6 1.4 2 2.2 3.4 2.1l4.9-.3c1.1-.1 1.7-1.3 1.3-2.3-2.6-6-7.3-15.4-14.4-22.1-5.6-5.4-11.7-8-17.6-7.6-5.6.4-9.3 3.6-10.7 9.3-1.2 4.9-.5 10.9.7 16.3l-5.2-3c-1.1-.6-2.5.3-2.5 1.7V323c0 1.4.5 2.8 1.4 3.8l27.7 31.2c1.4 1.5 3.2 2.4 5.2 2.4l20.5.2c4.1 0 7.6-3.7 7.6-8.2v-40.9c0-2.8-1.4-5.3-3.6-6.6l-4.8-2.8zm-2.5 44.5l-20.3-.2-20.3-22.9v-33.2l40.7 23.1v33.2z" fillRule="evenodd" clipRule="evenodd" fill="#e1f2ff"/><linearGradient id="SVGID_6_" gradientUnits="userSpaceOnUse" x1="153.042" y1="182.435" x2="366.552" y2="219.829"><stop offset="0" stopColor="#17d1aa"/><stop offset=".227" stopColor="#1cb9b0"/><stop offset=".704" stopColor="#297dc0"/><stop offset="1" stopColor="#3154cb"/></linearGradient><path d="M249.3 193.7l3.5 2.1c1 .6 1.9 1.6 1.9 2.6 0 1.1-.9 1-1.9.4l-3.5-2.1v-3zm-5.9-8.5v19.1l5.8 3.4v-6l2.1 1.2 2.6 7.6 6.6 3.9-3.5-8.8c1.5.2 3.4-.5 3.4-3.8 0-3.6-2.4-8-6.9-10.6l-10.1-6z" fillRule="evenodd" clipRule="evenodd" fill="url(#SVGID_6_)"/><linearGradient id="SVGID_7_" gradientUnits="userSpaceOnUse" x1="151.717" y1="190.002" x2="365.227" y2="227.397"><stop offset="0" stopColor="#17d1aa"/><stop offset=".227" stopColor="#1cb9b0"/><stop offset=".704" stopColor="#297dc0"/><stop offset="1" stopColor="#3154cb"/></linearGradient><path fillRule="evenodd" clipRule="evenodd" fill="url(#SVGID_7_)" d="M263.6 197.1v19l14.6 8.6v-5l-8.8-5.2v-2.1l8.6 5v-5l-8.6-5v-1.9l8.8 5.1v-5z"/><linearGradient id="SVGID_8_" gradientUnits="userSpaceOnUse" x1="150.457" y1="197.194" x2="363.967" y2="234.588"><stop offset="0" stopColor="#17d1aa"/><stop offset=".227" stopColor="#1cb9b0"/><stop offset=".704" stopColor="#297dc0"/><stop offset="1" stopColor="#3154cb"/></linearGradient><path fillRule="evenodd" clipRule="evenodd" fill="url(#SVGID_8_)" d="M281.2 207.4v5l7.3 4.3-7.3 5.2v4.6l15.2 8.9v-5l-7.6-4.4 7.3-5.2v-4.6z"/><linearGradient id="SVGID_9_" gradientUnits="userSpaceOnUse" x1="149.088" y1="205.011" x2="362.598" y2="242.405"><stop offset="0" stopColor="#17d1aa"/><stop offset=".227" stopColor="#1cb9b0"/><stop offset=".704" stopColor="#297dc0"/><stop offset="1" stopColor="#3154cb"/></linearGradient><path d="M303.6 230.2c0-2.7 1.8-3.7 4.6-2.1s4.6 4.8 4.6 7.5-1.8 3.7-4.6 2.1c-2.7-1.7-4.6-4.9-4.6-7.5m-5.8-3.5c0 5.9 4.6 12.5 10.5 16s10.5 2.2 10.5-3.7-4.6-12.6-10.5-16.1c-6-3.4-10.5-2-10.5 3.8" fillRule="evenodd" clipRule="evenodd" fill="url(#SVGID_9_)"/><linearGradient id="SVGID_10_" gradientUnits="userSpaceOnUse" x1="147.579" y1="213.625" x2="361.089" y2="251.019"><stop offset="0" stopColor="#17d1aa"/><stop offset=".227" stopColor="#1cb9b0"/><stop offset=".704" stopColor="#297dc0"/><stop offset="1" stopColor="#3154cb"/></linearGradient><path d="M327 239.4l3.5 2.1c1 .6 1.9 1.6 1.9 2.6 0 1.1-.9 1-1.9.4l-3.5-2.1v-3zm-5.8-8.5V250l5.8 3.4v-6l2.1 1.2 2.6 7.6 6.6 3.9-3.5-8.8c1.5.2 3.5-.5 3.5-3.8 0-3.6-2.4-8-6.9-10.6l-10.2-6z" fillRule="evenodd" clipRule="evenodd" fill="url(#SVGID_10_)"/><linearGradient id="SVGID_11_" gradientUnits="userSpaceOnUse" x1="154.56" y1="173.769" x2="368.07" y2="211.164"><stop offset="0" stopColor="#17d1aa"/><stop offset=".227" stopColor="#1cb9b0"/><stop offset=".704" stopColor="#297dc0"/><stop offset="1" stopColor="#3154cb"/></linearGradient><path fillRule="evenodd" clipRule="evenodd" fill="url(#SVGID_11_)" d="M224.9 174.3v5l5.2 3.1v14l5.8 3.4v-14l5.1 3v-5.1z"/><linearGradient id="SVGID_12_" gradientUnits="userSpaceOnUse" x1="156.963" y1="160.046" x2="370.473" y2="197.44"><stop offset="0" stopColor="#17d1aa"/><stop offset=".227" stopColor="#1cb9b0"/><stop offset=".704" stopColor="#297dc0"/><stop offset="1" stopColor="#3154cb"/></linearGradient><path d="M201.4 182.6s-8-7.6-8.2-7.8c-.2-.2-.2-.2-.2-.4v-12.8c0-.7 4 1.3 8.8 4.2 4.8 2.8 8.8 5.6 8.8 6.2v12.8c0 .2 0 .2-.2.2s-8.2-1.9-8.2-1.9-.3-.1-.4-.1l-.4-.4zm-5.1-28.5c0-3.4 2.1-4.3 5.5-2.3s5.5 5.3 5.5 8.7v3.4c-3.9-2.5-7.1-4.5-11-6.5v-3.3zm-5-3v3.9c-2.1-.8-4.1-1.6-4.1-.9v20.6s0 .6.6 1.2c2.3 2.3 11.5 10.9 13.6 12.9.3.3.3.3.4.3.1.1.1.1.4.1 2.1.5 11.3 2.7 13.6 3.1.6.1.6-.5.6-.5v-20.6c0-.6-2-2.3-4.1-3.9v-3.9c0-5.8-4.7-13.3-10.5-16.7-5.8-3.4-10.5-1.4-10.5 4.4z" fillRule="evenodd" clipRule="evenodd" fill="url(#SVGID_12_)"/></g></switch></svg>