<svg id="Layer_1" xmlns="http://www.w3.org/2000/svg" viewBox="0 0 520 832.7"><style></style><switch><g><linearGradient id="SVGID_1_" gradientUnits="userSpaceOnUse" x1="222.785" y1="609.836" x2="295.416" y2="501.457"><stop offset="0" stop-color="#17d1aa"/><stop offset=".066" stop-color="#1ac2ae"/><stop offset=".265" stop-color="#229bb8"/><stop offset=".462" stop-color="#297cc0"/><stop offset=".652" stop-color="#2d66c6"/><stop offset=".835" stop-color="#3059ca"/><stop offset="1" stop-color="#3154cb"/></linearGradient><path d="M259.1 480.1v151" fill="none" stroke="url(#SVGID_1_)" stroke-width="5" stroke-linecap="round" stroke-linejoin="round" stroke-miterlimit="10"/><linearGradient id="SVGID_2_" gradientUnits="userSpaceOnUse" x1="313.527" y1="69.279" x2="331.063" y2="292.965"><stop offset="0" stop-color="#17d1aa"/><stop offset=".227" stop-color="#1cb9b0"/><stop offset=".704" stop-color="#297dc0"/><stop offset="1" stop-color="#3154cb"/></linearGradient><path d="M406.2 125.4l-43.1-53.1c-4.7-5.8-11.1-6.5-14.3-1.6L242.9 234.8c-11.2 17.4-6.8 48.1 9.8 68.6 16.6 20.5 39.2 22.9 50.4 5.5l105.9-164c3.2-5 1.9-13.7-2.8-19.5zM258.5 294.5c-15.7-17.5-21.6-42.5-13.1-55.7 8.5-13.2 28.2-9.8 43.9 7.8 15.7 17.5 21.6 42.5 13.1 55.7-8.5 13.3-28.2 9.8-43.9-7.8z" fill-rule="evenodd" clip-rule="evenodd" fill="url(#SVGID_2_)"/><linearGradient id="SVGID_3_" gradientUnits="userSpaceOnUse" x1="271.196" y1="466.679" x2="247.208" y2="493.283"><stop offset="0" stop-color="#17d1aa"/><stop offset=".066" stop-color="#1ac2ae"/><stop offset=".265" stop-color="#229bb8"/><stop offset=".462" stop-color="#297cc0"/><stop offset=".652" stop-color="#2d66c6"/><stop offset=".835" stop-color="#3059ca"/><stop offset="1" stop-color="#3154cb"/></linearGradient><path d="M239.5 459.2v24.7c0 2.6 1.4 5 3.6 6.3l24.2 16.7c6.2.7 10.6-3 10.6-8.5V478l-38.4-18.8z" fill="url(#SVGID_3_)"/><linearGradient id="SVGID_4_" gradientUnits="userSpaceOnUse" x1="257.255" y1="470.65" x2="244.232" y2="506.576"><stop offset="0" stop-color="#3154cb"/><stop offset=".165" stop-color="#3059ca"/><stop offset=".347" stop-color="#2d66c6"/><stop offset=".538" stop-color="#297cc0"/><stop offset=".735" stop-color="#229bb8"/><stop offset=".934" stop-color="#1ac2ae"/><stop offset="1" stop-color="#17d1aa"/></linearGradient><path d="M234.3 460.9v24.7c0 2.6 1.4 5 3.6 6.3l24.1 14.3c4.7 2.8 10.6-.6 10.6-6.1v-20.4l-38.3-18.8z" fill="url(#SVGID_4_)"/><linearGradient id="SVGID_5_" gradientUnits="userSpaceOnUse" x1="194.102" y1="428.184" x2="327.526" y2="208.152" gradientTransform="matrix(1 .04375 0 1 .004 25.17)"><stop offset="0" stop-color="#3154cb"/><stop offset=".296" stop-color="#297dc0"/><stop offset=".773" stop-color="#1cb9b0"/><stop offset="1" stop-color="#17d1aa"/></linearGradient><path d="M266.1 240.4c-11.1-6.2-20.1-1.3-20.1 11.1s9 27.4 20.1 33.7c11.1 6.2 20.1 1.3 20.1-11.1-.1-12.4-9.1-27.5-20.1-33.7zm30.8 267.2l-60.3-45.3c-7.8-4.4-14.1-14.9-14.1-23.5l-7.2-239.4c8.1-2 23.8-3.5 30.1 0l56.9 32c7.8 4.4 14.1 14.9 14.1 23.5v235.2c-.1 8.7-7.2 15.3-19.5 17.5z" fill-rule="evenodd" clip-rule="evenodd" fill="url(#SVGID_5_)"/><linearGradient id="SVGID_6_" gradientUnits="userSpaceOnUse" x1="186.876" y1="432.041" x2="317.409" y2="216.778" gradientTransform="matrix(1 .04375 0 1 .004 25.17)"><stop offset="0" stop-color="#17d1aa"/><stop offset=".227" stop-color="#1cb9b0"/><stop offset=".704" stop-color="#297dc0"/><stop offset="1" stop-color="#3154cb"/></linearGradient><path d="M257.8 243.6c-11.1-6.2-20.1-1.3-20.1 11.1s9 27.4 20.1 33.7c11.1 6.2 20.1 1.3 20.1-11.1s-9-27.5-20.1-33.7zm31.7 262.2l-65.7-37c-7.8-4.4-14.1-14.9-14.1-23.5V208.6c0-8.6 6.3-12.1 14.1-7.7l65.7 37c7.8 4.4 14.1 14.9 14.1 23.5v236.7c0 8.6-6.3 12.1-14.1 7.7z" fill-rule="evenodd" clip-rule="evenodd" fill="url(#SVGID_6_)"/><path d="M273.1 470.5l-35.2-19.8c-5.2-2.9-9.4-9.9-9.4-15.7v-96.2c0-5.7 4.2-8 9.4-5.1l35.2 19.8c5.2 2.9 9.4 9.9 9.4 15.7v96.2c0 5.8-4.2 8-9.4 5.1z" fill-rule="evenodd" clip-rule="evenodd" fill="#2c30d1"/><linearGradient id="SVGID_7_" gradientUnits="userSpaceOnUse" x1="25.491" y1="-482.172" x2="209.208" y2="-665.889" gradientTransform="matrix(.7588 .8373 -.4047 .6369 -16.143 457.07)"><stop offset="0" stop-color="#17d1aa"/><stop offset=".227" stop-color="#1cb9b0"/><stop offset=".704" stop-color="#297dc0"/><stop offset="1" stop-color="#3154cb"/></linearGradient><path d="M388.8 119.9L345.4 67c-4.7-5.8-11.1-6.4-14.3-1.5l-105 164.6c-11.1 17.5-6.5 48.2 10.2 68.6 16.7 20.4 39.3 22.7 50.4 5.3l105-164.6c3.2-5 1.9-13.7-2.9-19.5zM246.4 282.7c-11.2-12.3-15.4-29.9-9.4-39.3 6-9.4 19.9-7 31 5.3 11.2 12.3 15.4 29.9 9.4 39.3-5.9 9.4-19.8 7-31-5.3z" fill-rule="evenodd" clip-rule="evenodd" fill="url(#SVGID_7_)"/><linearGradient id="SVGID_8_" gradientUnits="userSpaceOnUse" x1="364.596" y1="110.833" x2="383.655" y2="91.774"><stop offset="0" stop-color="#3154cb"/><stop offset=".296" stop-color="#297dc0"/><stop offset=".773" stop-color="#1cb9b0"/><stop offset="1" stop-color="#17d1aa"/></linearGradient><path d="M336.2 62.3s16.2-1.1 25 7c4.3 4 46.6 57.3 46.6 57.3s5 7.7 2.4 15.6c0 0-6-4.8-18.2-4 0 0 3.8-10.1-4.5-20-7.2-8.6-39.1-47.7-39.1-47.7s-5.5-6.9-12.2-8.2z" fill-rule="evenodd" clip-rule="evenodd" fill="url(#SVGID_8_)"/><linearGradient id="SVGID_9_" gradientUnits="userSpaceOnUse" x1="340.029" y1="154.699" x2="339.478" y2="302.667"><stop offset="0" stop-color="#3154cb"/><stop offset=".296" stop-color="#297dc0"/><stop offset=".773" stop-color="#1cb9b0"/><stop offset="1" stop-color="#17d1aa"/></linearGradient><path d="M280.6 314.4c-2 1-11.4 1.1-11.4 1.1s4.5-.2 9.5-3.4c4.6-3 6.8-6.3 10.3-11.9l102.8-161.9c.6-1 1.8-1.6 3-1.6 1.8 0 4.7.2 8.3 1.2 2.9.8 7.5 3 7 4.5-.7 2-2.4 4.7-2.4 4.7l-91.5 141.6v-6.4l89.5-136.9c.4-.6.1-1.3-.6-1.5l-7.1-1.8c-2.5-.6-5 .4-6.4 2.6L289.2 307.1c-2.9 4.5-5.3 5.6-8.6 7.3z" fill-rule="evenodd" clip-rule="evenodd" fill="url(#SVGID_9_)"/><g id="squares_4_"><linearGradient id="SVGID_10_" gradientUnits="userSpaceOnUse" x1="216.029" y1="250.206" x2="270.388" y2="250.206" gradientTransform="matrix(.803 .2694 -.06175 1.2543 141.734 -215.468)"><stop offset="0" stop-color="#17d1aa"/><stop offset=".066" stop-color="#1ac2ae"/><stop offset=".265" stop-color="#229bb8"/><stop offset=".462" stop-color="#297cc0"/><stop offset=".652" stop-color="#2d66c6"/><stop offset=".835" stop-color="#3059ca"/><stop offset="1" stop-color="#3154cb"/></linearGradient><path d="M330.9 132.1l13.4 21.1-.8 1.3-12.5-19.7-5.5 8.9-.9-1.4 6.3-10.2zm-10.5 16.3c1.2-2 2.7-2.8 4.3-2.6 1.6.3 3.2 1.7 4.8 4.3 1.6 2.5 2.6 5.1 2.8 7.6.3 2.6-.1 4.8-1.3 6.7-1 1.6-2.2 2.3-3.6 2-1.4-.3-2.8-1.7-4.2-3.9l-.7-1.2 6.2-10c-1.3-2.1-2.7-3.4-4-3.6-1.3-.3-2.4.5-3.4 2.1-.5.8-.9 1.6-1.1 2.3-.3.7-.6 1.7-.9 3.1l-.9-1.4c.2-1.1.5-2.1.8-2.9.4-.9.8-1.7 1.2-2.5zm9.8 14.7c.8-1.4 1.2-2.9 1.1-4.7-.2-1.8-.7-3.7-1.9-5.8l-5.3 8.6c1.2 1.8 2.2 2.9 3.3 3.2 1.1.4 2-.1 2.8-1.3zm-6.7 13.3c-.6 1-1.3 1.7-2 2-.7.3-1.5.3-2.6-.2v.1c.8 1.2 1.6 2.4 2.3 3.5l3.6 5.6-.8 1.2-14.3-22.5.5-.8 1.7 2.1c-.5-2.8-.1-5.3 1.1-7.2 1.2-1.9 2.5-2.7 4-2.4 1.5.3 3 1.8 4.6 4.4 1.7 2.7 2.7 5.3 3 7.7.6 2.4.1 4.6-1.1 6.5zm-.8-1.3c.9-1.5 1.3-3.2 1-5.3-.3-1.9-1.1-4.1-2.6-6.4-2.8-4.5-5.2-5.1-7.1-2.1-1 1.6-1.4 3.2-1.2 5s1 3.8 2.6 6.2l.1.2c1.5 2.4 2.9 3.8 4 4.1 1.2.6 2.2-.1 3.2-1.7zm-11.3 20.2l-.7-1 1.6-3.1c-1.2-.3-2.2-1.1-3-2.4-1-1.5-1.4-3.2-1.5-5 0-1.9.4-3.5 1.3-5 .4-.6.7-1.1.9-1.2.1-.8.1-1.6.1-2.2-.1-.7-.3-1.2-.6-1.7s-.7-.7-1-.6c-.3.1-.8.5-1.3 1.3l-1.5 2.4c-.9 1.5-1.9 2.3-2.8 2.4s-1.8-.5-2.7-1.8c-1.1-1.7-1.5-3.5-1.3-5.6.2-2 .9-4.2 2.3-6.4 1.1-1.7 2.2-2.7 3.3-2.9 1.1-.2 2 .4 2.9 1.7.7 1.1 1.1 2.3 1.2 3.6s-.1 2.6-.6 3.9c.4-.2.8-.3 1.2-.1.4.1.7.4 1 .9.7 1 .9 2.6.7 4.5.7-.4 1.5-.5 2.3-.1s1.5 1.1 2.2 2.1c1 1.5 1.5 3.3 1.6 5.1 0 1.9-.4 3.5-1.3 5-.6.9-1.1 1.5-1.5 1.8l-2.8 4.4zm-4.6-29.6c-1.3-2.1-2.9-1.8-4.7 1-2.2 3.6-2.5 6.8-.9 9.4.6 1 1.2 1.4 1.8 1.2s1.3-.8 2.1-2.1l1.4-2.3c1.6-2.5 1.7-4.9.3-7.2zm7.8 14.6c-.8-1.2-1.5-1.8-2.4-1.9-.8 0-1.6.5-2.3 1.6-.7 1.2-1.1 2.4-1 3.7 0 1.3.5 2.5 1.3 3.8.8 1.3 1.7 2 2.5 2s1.6-.5 2.3-1.6c.7-1.1 1-2.4.9-3.7 0-1.4-.5-2.7-1.3-3.9z" fill="url(#SVGID_10_)"/><linearGradient id="SVGID_11_" gradientUnits="userSpaceOnUse" x1="209.645" y1="246.391" x2="289.884" y2="246.391" gradientTransform="matrix(.803 .2694 -.06175 1.2543 141.734 -215.468)"><stop offset="0" stop-color="#17d1aa"/><stop offset=".066" stop-color="#1ac2ae"/><stop offset=".265" stop-color="#229bb8"/><stop offset=".462" stop-color="#297cc0"/><stop offset=".652" stop-color="#2d66c6"/><stop offset=".835" stop-color="#3059ca"/><stop offset="1" stop-color="#3154cb"/></linearGradient><path d="M297.4 185.6c1.2-2 2.7-2.8 4.3-2.6 1.6.3 3.2 1.7 4.8 4.3 1.6 2.5 2.6 5.1 2.8 7.6.3 2.6-.1 4.8-1.3 6.7-1 1.6-2.2 2.3-3.6 2-1.4-.3-2.8-1.7-4.2-3.9l-.7-1.2 6.2-10c-1.3-2.1-2.7-3.4-4-3.6-1.3-.3-2.4.5-3.4 2.1-.5.8-.9 1.6-1.1 2.3-.3.7-.6 1.7-.9 3.1l-.9-1.4c.2-1.1.5-2.1.8-2.9.3-.9.7-1.7 1.2-2.5zm9.7 14.7c.8-1.4 1.2-2.9 1.1-4.7-.2-1.8-.7-3.7-1.9-5.8l-5.3 8.6c1.2 1.8 2.2 2.9 3.3 3.2 1.1.4 2-.1 2.8-1.3zm-6.9 13.7c-.4.6-.8 1.2-1.3 1.7l-.7-1.7c.5-.4.9-1 1.3-1.6.7-1.2 1-2.7.7-4.6-.3-1.9-.9-3.7-2-5.5l-5.4-8.6.8-1.3 9.9 15.7-.7 1.1-1.9-2.7v.1c.4 1.8.5 3.1.4 4.2-.2 1.3-.5 2.3-1.1 3.2zm52.2-72.5l5.7-9.3-8.9-14.1-7.7 12.4 6.6 10.4c1.2 2.1 3.2 2.4 4.3.6zm7.5-12.1l1-1.6c1.1-1.7 1-4.9-.3-6.9l-1.1-1.8-3 4.8 3.4 5.5zm-2.6-13.5l-3 4.8-3.4-5.4 3-4.8 3.4 5.4zm-18.4 1.2l-1 1.6c-1.1 1.7-1 4.9.3 6.9l1.1 1.8 3-4.8-3.4-5.5zm8.2-2.2l-3 4.8-3.4-5.4 3-4.8 3.4 5.4zm4.7-7.6l-1.1-1.8c-1.3-2-3.2-2.2-4.3-.4l-1 1.6 3.4 5.4 3-4.8z" fill="url(#SVGID_11_)"/></g></g></switch></svg>