<?xml version="1.0" encoding="UTF-8"?>
<svg width="84px" height="84px" viewBox="0 0 84 84" version="1.1" xmlns="http://www.w3.org/2000/svg" xmlns:xlink="http://www.w3.org/1999/xlink">
    <!-- Generator: Sketch 52.6 (67491) - http://www.bohemiancoding.com/sketch -->
    <title>trezor_wallet.inline</title>
    <desc>Created with Sketch.</desc>
    <defs>
        <polygon id="path-1" points="0 0 11.7521652 0 11.7521652 17.52 0 17.52"></polygon>
    </defs>
    <g id="trezor_wallet.inline" stroke="none" stroke-width="1" fill="none" fill-rule="evenodd">
        <g id="trezor" transform="translate(21.000000, 6.000000)">
            <path d="M19.7888075,47.52 L20.9840107,47.52 C22.6408649,47.52 23.9840107,48.8631458 23.9840107,50.52 L23.9840107,54.12 C23.9840107,55.7768542 22.6408649,57.12 20.9840107,57.12 L19.7888075,57.12 C18.1319532,57.12 16.7888075,55.7768542 16.7888075,54.12 L16.7888075,50.52 C16.7888075,48.8631458 18.1319532,47.52 19.7888075,47.52 Z" id="Rectangle-Copy-11" fill="#665E5D"></path>
            <path d="M41.0126582,4.4221604 C41.0126582,1.9661304 38.8036701,0 36.0505323,0 L4.95627072,0 C2.20313297,0 0.000622775535,1.9595984 0.000622775535,4.4221604 L0.000622775535,34.9069796 C-0.0142136874,35.7947773 0.236342401,36.6665185 0.719677575,37.4087335 L9.21229777,50.270231 C9.21229777,50.270231 11.9524796,54 14.9323463,54 L25.9060295,54 C28.8794182,54 31.5224305,50.4857869 31.5224305,50.4857869 L40.2612136,37.3564776 C40.7199412,36.5963843 40.9785927,35.73077 41.0126582,34.8416596 L41.0126582,4.4221604 Z" id="Shape-Copy" fill="#E8D8D4" fill-rule="nonzero"></path>
            <path d="M5.30690109,11.04 L36.6868179,11.04 C37.3362367,11.04 37.8947368,11.8113849 37.8947368,12.7344095 L37.8947368,32.6255905 C37.8947368,33.5486151 37.3427309,34.32 36.6868179,34.32 L5.30690109,34.32 C4.65748228,34.32 4.09898211,33.5486151 4.09898211,32.6255905 L4.09898211,12.7344095 C4.03174318,12.3462653 4.12224469,11.9470234 4.34984039,11.6277633 C4.57743609,11.3085032 4.92271247,11.0964573 5.30690109,11.04 Z" id="Shape-Copy-2" fill="#665E5D" fill-rule="nonzero"></path>
            <path d="M23.2644903,70.6956857 C21.7945038,70.6499742 20.6369607,69.3826465 20.6754211,67.8610622 L20.6754211,56.88 L19.4276769,56.88 L19.4276769,67.8739762 C19.3893955,70.1086782 21.1054493,71.9540842 23.2644903,72 L23.2644903,70.6956857 Z" id="Shape-Copy-3" fill="#665E5D" fill-rule="nonzero"></path>
            <g id="Group-3" transform="translate(15.829447, 14.400000)">
                <mask id="mask-2" fill="white">
                    <use xlink:href="#path-1"></use>
                </mask>
                <g id="Clip-2"></g>
                <path d="M9.70184376,13.3315876 L5.87631073,15.2029664 L2.05032146,13.3315876 L2.05032146,7.84664021 L9.70184376,7.84664021 L9.70184376,13.3315876 Z M10.1672038,5.75824288 L8.11277619,5.75824288 L3.64303891,5.75824288 C3.38617843,5.15505202 3.15121725,4.32694253 3.32276173,3.63081008 C3.44594526,3.13078437 3.77671586,2.73624736 4.33332293,2.42489306 C4.94148459,2.08472688 5.48851072,2.00293828 6.00588156,2.1744155 C6.7883251,2.43372251 7.40743641,3.2381319 7.72999477,3.77440482 L9.53075552,2.76691808 C9.10463175,2.03082076 8.15657478,0.697573773 6.65419192,0.192900986 C5.59526978,-0.16306527 4.45103164,-0.0245823139 3.34602973,0.593479202 C2.28802005,1.18551708 1.59089251,2.06427973 1.33083838,3.13450204 C1.10500191,4.06391785 1.2341165,4.989616 1.46086545,5.75824288 L0,5.75824288 L0,14.6453169 L5.87631073,17.52 L11.7521652,14.6453169 L11.7521652,5.75824288 L10.1672038,5.75824288 Z" id="Fill-1" fill="#F8F2F2" mask="url(#mask-2)"></path>
            </g>
        </g>
    </g>
</svg>