<?xml version="1.0" encoding="UTF-8"?>
<svg width="84px" height="84px" viewBox="0 0 84 84" version="1.1" xmlns="http://www.w3.org/2000/svg" xmlns:xlink="http://www.w3.org/1999/xlink">
    <!-- Generator: Sketch 52.6 (67491) - http://www.bohemiancoding.com/sketch -->
    <title>paper_wallet.inline</title>
    <desc>Created with Sketch.</desc>
    <defs>
        <polygon id="path-1" points="0.39072 0.161066667 26.2067694 0.161066667 26.2067694 33.6 0.39072 33.6"></polygon>
        <polygon id="path-3" points="8e-05 0.495573333 21.8268504 0.495573333 21.8268504 4.26666667 8e-05 4.26666667"></polygon>
    </defs>
    <g id="paper_wallet.inline" stroke="none" stroke-width="1" fill="none" fillRule="evenodd">
        <g id="Group-25-Copy" transform="translate(6.000000, 18.000000)">
            <path d="M1.08995,43.7568167 L1.09005,43.7565167 L1.08995,43.7568167 Z" id="Fill-1" fill="#0F88A7"></path>
            <path d="M61.0958451,29.6150686 L11.8380072,29.6150686 C11.689885,29.6150686 11.5495742,29.6816138 11.4558374,29.7963397 L-8.66009148e-06,43.8148534 L71.9850613,43.8148534 L61.4908145,29.8126425 C61.3975973,29.6882839 61.2512591,29.6150686 61.0958451,29.6150686" id="Fill-2" fill="#665E5D"></path>
            <path d="M60.8563745,0.00110013535 L12.08849,0.00110013535 C11.815853,0.00110013535 11.5948648,0.222166704 11.5948648,0.494861671 L11.5948648,29.5671597 C11.5948648,29.8398547 11.815853,30.0609213 12.08849,30.0609213 L60.8563745,30.0609213 C61.1289942,30.0609213 61.3499997,29.8398547 61.3499997,29.5671597 L61.3499997,0.494861671 C61.3499997,0.222166704 61.1289942,0.00110013535 60.8563745,0.00110013535" id="Fill-5" fill="#665E5D"></path>
            <path d="M71.4919124,46.4 L0.49362521,46.4 C0.221005533,46.4 1.46371804e-12,46.1789334 1.46371804e-12,45.9062385 L1.46371804e-12,44.3031767 C1.46371804e-12,44.0304644 0.221005533,43.8094151 0.49362521,43.8094151 L71.4919124,43.8094151 C71.7645321,43.8094151 71.9855376,44.0304644 71.9855376,44.3031767 L71.9855376,45.9062385 C71.9855376,46.1789334 71.7645321,46.4 71.4919124,46.4" id="Fill-7" fill="#665E5D"></path>
            <path d="M59.470895,30.6116769 L13.7517956,30.6116769 C13.5917052,30.6116769 13.4415565,30.6893274 13.3490148,30.8199923 L5.44546894,41.9791589 L67.4994059,41.9791589 L59.8784042,30.826801 C59.7864341,30.6921687 59.6339125,30.6116769 59.470895,30.6116769" id="Fill-9" fill="#E8D8D4"></path>
            <path d="M10.402656,38.8148284 L14.5421623,32.7411976 C14.6341152,32.6062881 14.7867926,32.5255538 14.950018,32.5255538 L17.7578102,32.5255538 C18.133866,32.5255538 18.3718106,32.9293641 18.1896889,33.2584518 L14.8299198,39.3294665 C14.7430245,39.4864826 14.5778246,39.5839702 14.3984048,39.5840915 L10.8108753,39.5867249 C10.4141392,39.5870021 10.1791736,39.1427207 10.402656,38.8148284" id="Fill-11" fill="#F8F2F2"></path>
            <path d="M17.1678535,38.9581821 L20.2910982,32.884482 C20.37569,32.7199815 20.545116,32.6165688 20.7300609,32.6165688 L23.4616789,32.6165688 C23.810542,32.6165688 24.0493354,32.9686987 23.9203173,33.2929181 L21.5045502,39.3639328 C21.4298483,39.5516834 21.2483154,39.6749332 21.0463101,39.6750892 L17.6071973,39.6777919 C17.2376019,39.6780864 16.9987912,39.2869406 17.1678535,38.9581821" id="Fill-13" fill="#F8F2F2"></path>
            <path d="M61.7210136,38.9058347 L57.5815246,32.832204 C57.4895544,32.6972945 57.3368943,32.6165601 57.1736516,32.6165601 L54.3658767,32.6165601 C53.9898382,32.6165601 53.7518936,33.0203704 53.933998,33.3494582 L57.293767,39.4204208 C57.3806451,39.577437 57.545845,39.6749246 57.7252648,39.6750458 L61.3127942,39.6777312 C61.7095303,39.6780084 61.9444959,39.2337443 61.7210136,38.9058347" id="Fill-15" fill="#F8F2F2"></path>
            <path d="M54.9558074,38.9581821 L51.8325974,32.884482 C51.7480056,32.7199815 51.5785796,32.6165688 51.3936346,32.6165688 L48.6619647,32.6165688 C48.3131189,32.6165688 48.0743082,32.9686987 48.2033436,33.2929354 L50.619128,39.3639328 C50.6938473,39.5516834 50.8753628,39.6749332 51.0773681,39.6750892 L54.5164636,39.6777919 C54.886059,39.6780864 55.1248697,39.2869406 54.9558074,38.9581821" id="Fill-17" fill="#F8F2F2"></path>
            <path d="M48.6379485,38.9957253 L46.1319952,32.9219733 C46.0557517,32.7371505 45.8756045,32.6165688 45.6757296,32.6165688 L42.9065095,32.6165688 C42.5765427,32.6165688 42.3394814,32.9341527 42.4332182,33.2506106 L44.231642,39.3216425 C44.2937176,39.5311533 44.4860755,39.6749506 44.704535,39.6751238 L48.1812673,39.6778438 C48.5329536,39.678121 48.7721107,39.3209149 48.6379485,38.9957253" id="Fill-19" fill="#F8F2F2"></path>
            <path d="M23.3111821,38.9957253 L25.8171181,32.9219733 C25.8933616,32.7371505 26.0735261,32.6165688 26.273401,32.6165688 L29.0426211,32.6165688 C29.3725706,32.6165688 29.6096493,32.9341527 29.5158951,33.2506106 L27.7174713,39.3216425 C27.6553957,39.5311533 27.4630204,39.6749506 27.244561,39.6751238 L23.7678634,39.6778438 C23.4161771,39.678121 23.17702,39.3209149 23.3111821,38.9957253" id="Fill-21" fill="#F8F2F2"></path>
            <path d="M34.517569,34.2785476 L31.6513732,34.2785476 C31.3787535,34.2785476 31.157748,34.057481 31.157748,33.784786 L31.157748,33.1103251 C31.157748,32.8376301 31.3787535,32.6165636 31.6513732,32.6165636 L34.517569,32.6165636 C34.7901887,32.6165636 35.0111942,32.8376301 35.0111942,33.1103251 L35.0111942,33.784786 C35.0111942,34.057481 34.7901887,34.2785476 34.517569,34.2785476" id="Fill-23" fill="#F8F2F2"></path>
            <path d="M40.26293,34.2785476 L37.5264624,34.2785476 C37.2538427,34.2785476 37.0328371,34.057481 37.0328371,33.784786 L37.0328371,33.1103251 C37.0328371,32.8376301 37.2538427,32.6165636 37.5264624,32.6165636 L40.1041039,32.6165636 C40.333146,32.6165636 40.5320856,32.7741341 40.5845831,32.9971238 L40.7433919,33.6715847 C40.8163791,33.9815457 40.5812923,34.2785476 40.26293,34.2785476" id="Fill-25" fill="#F8F2F2"></path>
            <path d="M34.6125252,36.8848375 L31.7463294,36.8848375 C31.4736924,36.8848375 31.2527042,36.663771 31.2527042,36.391076 L31.2527042,35.7165977 C31.2527042,35.4439028 31.4736924,35.2228362 31.7463294,35.2228362 L34.6125252,35.2228362 C34.8851449,35.2228362 35.1061504,35.4439028 35.1061504,35.7165977 L35.1061504,36.391076 C35.1061504,36.663771 34.8851449,36.8848375 34.6125252,36.8848375" id="Fill-27" fill="#F8F2F2"></path>
            <path d="M40.26293,36.9909529 L37.5264624,36.9909529 C37.2538427,36.9909529 37.0328371,36.7698864 37.0328371,36.4971914 L37.0328371,35.8226612 C37.0328371,35.5499662 37.2538427,35.3288996 37.5264624,35.3288996 L40.1041039,35.3288996 C40.333146,35.3288996 40.5320856,35.4864875 40.5845831,35.7094598 L40.7434092,36.3840074 C40.8163964,36.693951 40.5812923,36.9909529 40.26293,36.9909529" id="Fill-29" fill="#F8F2F2"></path>
            <path d="M41.9208473,38.3271912 C41.8683499,38.1042016 41.6693929,37.946631 41.4403855,37.946631 L39.6056931,37.946631 L38.3691707,37.946631 L29.9994521,37.946631 C29.77041,37.946631 29.5714704,38.1042016 29.5189729,38.3271912 L29.3601295,39.0017214 C29.2871423,39.3116824 29.5222464,39.6086843 29.8406087,39.6086843 L38.3691707,39.6086843 L39.2351625,39.6086843 L41.5992289,39.6086843 C41.9175911,39.6086843 42.1526953,39.3116824 42.0796907,39.0017214 L41.9208473,38.3271912 Z" id="Fill-31" fill="#F8F2F2"></path>
            <path d="M59.6845048,35.2581861 L12.673545,35.2581861 C12.400908,35.2581861 12.1799197,35.0371195 12.1799197,34.7644245 L12.1799197,34.7643899 C12.1799197,34.4916949 12.400908,34.2706283 12.673545,34.2706283 L59.6844528,34.2706283 C59.7843037,34.2706283 59.8818163,34.3009297 59.9641045,34.357513 L59.9641565,34.357565 C60.3636118,34.6322524 60.1692447,35.2581861 59.6845048,35.2581861" id="Fill-33" fill="#E8D8D4"></path>
            <path d="M61.4794767,38.03512 L10.869764,38.03512 C10.5971443,38.03512 10.3761388,37.8140534 10.3761388,37.5413585 C10.3761388,37.2686635 10.5971443,37.0475969 10.869764,37.0475969 L61.4794767,37.0475969 C61.5793449,37.0475969 61.6768402,37.0778983 61.7591284,37.1344816 C62.1585838,37.4091863 61.964234,38.03512 61.4794767,38.03512" id="Fill-35" fill="#E8D8D4"></path>
            <path d="M40.5234775,45.4579203 L32.4213558,45.4579203 C32.1487361,45.4579203 31.9277306,45.2368537 31.9277306,44.9641588 L31.9277306,44.8496234 C31.9277306,44.5769111 32.1487361,44.3558619 32.4213558,44.3558619 L40.5234775,44.3558619 C40.7960972,44.3558619 41.0171027,44.5769111 41.0171027,44.8496234 L41.0171027,44.9641588 C41.0171027,45.2368537 40.7960972,45.4579203 40.5234775,45.4579203" id="Fill-37" fill="#E8D8D4"></path>
            <path d="M58.6068465,2.05065749 L14.3380007,2.05065749 C14.2573406,2.05065749 14.1919569,2.11605924 14.1919569,2.19674161 L14.1919569,27.6376228 C14.1919569,27.7182879 14.2573406,27.7836896 14.3380007,27.7836896 L58.6068465,27.7836896 C58.6874892,27.7836896 58.7528903,27.7182879 58.7528903,27.6376228 L58.7528903,2.19674161 C58.7528903,2.11605924 58.6874892,2.05065749 58.6068465,2.05065749" id="Fill-39" fill="#E8D8D4"></path>
            <rect id="Rectangle" fill="#665E5D" x="23.4666667" y="13.3333333" width="26.1333333" height="6.4" rx="2"></rect>
            <rect id="Rectangle-Copy-10" fill="#E8D8D4" x="24.5333333" y="14.9333333" width="24" height="3.2" rx="1.6"></rect>
            <g id="Group-20" transform="translate(19.845390, 13.866667)">
                <g id="Group-23" transform="translate(2.133333, 0.372533)">
                    <mask id="mask-2" fill="white">
                        <use xlink:href="#path-1"></use>
                    </mask>
                    <g id="Clip-5"></g>
                    <path d="M0.39072,33.6001067 L0.39072,7.73077333 C0.39072,6.52330667 1.97707346,1.87860153 6.56118349,1.77059995 C11.1452935,1.66259836 18.5996819,1.66259836 20.2742694,1.66259836 C21.9488569,1.66259836 25.542943,1.73009935 25.7699352,1.77059995 C21.3158094,3.99763967 21.72512,9.31637333 21.72512,9.31637333 L21.72512,31.2203733 C21.72512,32.5345067 20.65952,33.6001067 19.3453867,33.6001067 L0.39072,33.6001067 Z" id="Fill-4" fill="#F8F2F2" mask="url(#mask-2)"></path>
                </g>
                <g id="Group-9" transform="translate(0.000000, 29.705867)">
                    <mask id="mask-4" fill="white">
                        <use xlink:href="#path-3"></use>
                    </mask>
                    <g id="Clip-8"></g>
                    <path d="M21.4511467,4.26677333 L0.69168,4.26677333 L0.67568,4.24757333 C-0.22512,3.16650667 -0.22512,1.59584 0.67568,0.51424 L0.69168,0.495573333 L21.4511467,0.495573333 L21.3487467,0.605973333 C20.3850133,1.64277333 20.2218133,3.41130667 21.4511467,4.26677333 C21.4511467,4.26677333 22.29648,4.26677333 21.4511467,4.26677333" id="Fill-7" fill="#E8D8D4" mask="url(#mask-4)"></path>
                </g>
                <polygon id="Clip-11" points="0 33.9725333 26.3045333 33.9725333 27.302995 4.03316099 6.47285523 3.80365762 0 5.86693333"></polygon>
                <polygon id="Fill-10" fill="#E8D8D4" points="7.136 11.1864 20.0325333 11.1864 20.0325333 10.1010667 7.136 10.1010667"></polygon>
                <polygon id="Fill-12" fill="#E8D8D4" points="16.0602667 28.8952 21.8266667 28.8952 21.8266667 28.5416 16.0602667 28.5416"></polygon>
                <polygon id="Fill-13" fill="#E8D8D4" points="5.3408 13.6658667 21.8266667 13.6658667 21.8266667 13.2248 5.3408 13.2248"></polygon>
                <polygon id="Fill-14" fill="#E8D8D4" points="5.3408 15.8301333 21.8266667 15.8301333 21.8266667 15.3890667 5.3408 15.3890667"></polygon>
                <polygon id="Fill-15" fill="#E8D8D4" points="5.3408 17.9944 21.8266667 17.9944 21.8266667 17.5533333 5.3408 17.5533333"></polygon>
                <polygon id="Fill-16" fill="#E8D8D4" points="5.3408 20.1586667 21.8266667 20.1586667 21.8266667 19.7176 5.3408 19.7176"></polygon>
                <polygon id="Fill-17" fill="#E8D8D4" points="5.3408 22.3224 21.8266667 22.3224 21.8266667 21.8813333 5.3408 21.8813333"></polygon>
                <polygon id="Fill-18" fill="#E8D8D4" points="5.3408 26.6509333 21.8266667 26.6509333 21.8266667 26.2098667 5.3408 26.2098667"></polygon>
                <polygon id="Fill-19" fill="#E8D8D4" points="5.3408 24.4872 21.8266667 24.4872 21.8266667 24.0461333 5.3408 24.0461333"></polygon>
                <g id="Group-6" transform="translate(2.133333, 0.372533)"></g>
            </g>
        </g>
    </g>
</svg>