<?xml version="1.0" encoding="UTF-8"?>
<svg width="84px" height="84px" viewBox="0 0 84 84" version="1.1" xmlns="http://www.w3.org/2000/svg" xmlns:xlink="http://www.w3.org/1999/xlink">
    <!-- Generator: Sketch 52.6 (67491) - http://www.bohemiancoding.com/sketch -->
    <title>mnemonimic_words_wallet.inline copy 2</title>
    <desc>Created with Sketch.</desc>
    <g id="mnemonimic_words_wallet.inline-copy-2" stroke="none" stroke-width="1" fill="none" fillRule="evenodd">
        <g id="wallet-copy-4" transform="translate(18.000000, 14.000000)">
            <g id="wallet">
                <g id="wallet-copy">
                    <path d="M3.73336493,18.3272727 L41.0666351,18.3272727 C43.1200095,18.3272727 44.8,20.0454303 44.8,22.1454545 L44.8,26.7272727 C44.8,28.827297 43.1200095,30.5454545 41.0666351,30.5454545 L3.73336493,30.5454545 C1.67999052,30.5452607 0,28.8271031 0,26.7271758 L0,22.1453576 C0,20.0454303 1.67999052,18.3272727 3.73336493,18.3272727 Z" id="Path" fill="#665E5D"></path>
                    <path d="M5.43033176,20.0242424 L39.3696682,20.0242424 C41.2363723,20.0242424 42.7636364,21.7424 42.7636364,23.8424242 L42.7636364,28.4242424 C42.7636364,30.5242667 41.2363723,32.2424242 39.3696682,32.2424242 L5.43033176,32.2424242 C3.56362775,32.2422304 2.03636364,30.5240728 2.03636364,28.4241455 L2.03636364,23.8423273 C2.03636364,21.7424 3.56362775,20.0242424 5.43033176,20.0242424 Z" id="Path-Copy" fill="#403938"></path>
                    <circle id="Oval" fill="#E8D8D4" cx="14.4242424" cy="21.8909091" r="5.6"></circle>
                    <circle id="Oval-Copy-2" fill="#E8D8D4" cx="31.3939394" cy="5.6" r="5.6"></circle>
                    <g id="Group-8" transform="translate(28.848485, 2.375758)" fill="#665E5D" stroke="#665E5D" stroke-linecap="round" stroke-linejoin="round" stroke-width="0.5">
                        <g id="Group-3" transform="translate(0.000000, 0.024693)">
                            <path d="M2.63201154,0.557275613 C2.53492641,0.339555556 2.45192496,0.347405483 2.36880808,0.557275613 L1.35062626,3.05309091 L3.67097258,3.05309091 L2.63201154,0.557275613 Z M4.6891544,5.4478961 L3.77486869,3.30186436 L1.2258355,3.30186436 C0.955821068,3.96275902 0.602574315,4.78700144 0.311665224,5.46348052 C0.283959596,5.51000289 0.228663781,5.54117172 0.166210678,5.54117172 C0.0761673882,5.54117172 -2.30880231e-05,5.48668398 -2.30880231e-05,5.41672727 L-2.30880231e-05,5.39340837 L2.15408947,0.339555556 C2.21642713,0.207376623 2.34802886,0.0907821068 2.49359885,0.0907821068 C2.65971717,0.0907821068 2.79812987,0.207376623 2.84673016,0.339555556 L4.98687446,5.35462049 C5.02854834,5.44004618 4.98006349,5.54117172 4.85538817,5.54117172 C4.77227128,5.54117172 4.71697547,5.51785281 4.6891544,5.4478961 Z" id="Fill-1"></path>
                        </g>
                        <path d="M4.80554113,3.35732179 L0.195901876,3.35732179 C0.132756133,3.35732179 0.081038961,3.30560462 0.081038961,3.24245887 L0.081038961,3.1832381 C0.081038961,3.12009235 0.132756133,3.06837518 0.195901876,3.06837518 L4.80554113,3.06837518 C4.86868687,3.06837518 4.92040404,3.12009235 4.92040404,3.1832381 L4.92040404,3.24245887 C4.92040404,3.30560462 4.86868687,3.35732179 4.80554113,3.35732179" id="Fill-4"></path>
                        <path d="M4.38165657,2.3685772 L0.619924964,2.3685772 C0.556663781,2.3685772 0.505062049,2.31686003 0.505062049,2.25371429 L0.505062049,2.19507071 C0.505062049,2.13192496 0.556663781,2.08020779 0.619924964,2.08020779 L4.38165657,2.08020779 C4.44480231,2.08020779 4.49640404,2.13192496 4.49640404,2.19507071 L4.49640404,2.25371429 C4.49640404,2.31686003 4.44480231,2.3685772 4.38165657,2.3685772" id="Fill-6"></path>
                    </g>
                    <g id="Group-8-Copy" transform="translate(11.878788, 19.006061)" fill="#665E5D" stroke="#665E5D" stroke-linecap="round" stroke-linejoin="round" stroke-width="0.5">
                        <g id="Group-3" transform="translate(0.000000, 0.024693)">
                            <path d="M2.63201154,0.557275613 C2.53492641,0.339555556 2.45192496,0.347405483 2.36880808,0.557275613 L1.35062626,3.05309091 L3.67097258,3.05309091 L2.63201154,0.557275613 Z M4.6891544,5.4478961 L3.77486869,3.30186436 L1.2258355,3.30186436 C0.955821068,3.96275902 0.602574315,4.78700144 0.311665224,5.46348052 C0.283959596,5.51000289 0.228663781,5.54117172 0.166210678,5.54117172 C0.0761673882,5.54117172 -2.30880231e-05,5.48668398 -2.30880231e-05,5.41672727 L-2.30880231e-05,5.39340837 L2.15408947,0.339555556 C2.21642713,0.207376623 2.34802886,0.0907821068 2.49359885,0.0907821068 C2.65971717,0.0907821068 2.79812987,0.207376623 2.84673016,0.339555556 L4.98687446,5.35462049 C5.02854834,5.44004618 4.98006349,5.54117172 4.85538817,5.54117172 C4.77227128,5.54117172 4.71697547,5.51785281 4.6891544,5.4478961 Z" id="Fill-1"></path>
                        </g>
                        <path d="M4.80554113,3.35732179 L0.195901876,3.35732179 C0.132756133,3.35732179 0.081038961,3.30560462 0.081038961,3.24245887 L0.081038961,3.1832381 C0.081038961,3.12009235 0.132756133,3.06837518 0.195901876,3.06837518 L4.80554113,3.06837518 C4.86868687,3.06837518 4.92040404,3.12009235 4.92040404,3.1832381 L4.92040404,3.24245887 C4.92040404,3.30560462 4.86868687,3.35732179 4.80554113,3.35732179" id="Fill-4"></path>
                        <path d="M4.38165657,2.3685772 L0.619924964,2.3685772 C0.556663781,2.3685772 0.505062049,2.31686003 0.505062049,2.25371429 L0.505062049,2.19507071 C0.505062049,2.13192496 0.556663781,2.08020779 0.619924964,2.08020779 L4.38165657,2.08020779 C4.44480231,2.08020779 4.49640404,2.13192496 4.49640404,2.19507071 L4.49640404,2.25371429 C4.49640404,2.31686003 4.44480231,2.3685772 4.38165657,2.3685772" id="Fill-6"></path>
                    </g>
                    <path d="M43.0592066,56 L3.77715704,56 C1.69969669,56 0,54.3030399 0,52.2289243 L0,25.0774666 L43.0592066,25.0774666 C45.1366669,25.0774666 46.8363636,26.7744267 46.8363636,28.8485423 L46.8363636,52.2290201 C46.8362677,54.3030399 45.136571,56 43.0592066,56 Z M3.02172563,25.0774666 L0,25.0774666 L0,22.0606061 C0,23.7198411 1.35971899,25.0774666 3.02172563,25.0774666 Z" id="Shape" fill="#E8D8D4" fillRule="nonzero"></path>
                    <path d="M46.3771615,46.4969697 L40.4677196,46.4969697 C37.6237978,46.4969697 35.2969697,44.1297065 35.2969697,41.2363636 C35.2969697,38.3430208 37.6237978,35.9757576 40.4677196,35.9757576 L46.3771615,35.9757576 C47.1897508,35.9757576 47.8545455,36.6521049 47.8545455,37.4788151 L47.8545455,44.9940075 C47.8545455,45.8206224 47.1897508,46.4969697 46.3771615,46.4969697 Z" id="Path" fill="#F8F2F2"></path>
                    <path d="M40.5575758,38.3515152 C42.1442058,38.3515152 43.4424242,39.649642 43.4424242,41.2363636 C43.4424242,42.8230852 42.1442974,44.1212121 40.5575758,44.1212121 C38.9709457,44.1212121 37.6727273,42.8230852 37.6727273,41.2363636 C37.6727273,39.649642 38.9709457,38.3515152 40.5575758,38.3515152 Z" id="Path" fill="#665E5D"></path>
                    <path d="M43.0592066,54.4484848 L3.77715704,54.4484848 C1.69969669,54.4484848 0,52.7030549 0,50.569697 L0,52.1212121 C0,54.2545701 1.69969669,56 3.77715704,56 L43.0592066,56 C45.1366669,56 46.8363636,54.2545701 46.8363636,52.1212121 L46.8363636,50.569697 C46.8362677,52.7030549 45.136571,54.4484848 43.0592066,54.4484848 Z" id="Path" fill="#665E5D"></path>
                    <path d="M43.0592066,25.0225895 L3.02172563,25.0225895 C1.35971899,25.0225895 0,23.6896594 0,22.0606061 L0,23.5415978 C0,25.1706511 1.35971899,26.5035813 3.02172563,26.5035813 L43.0592066,26.5035813 C45.1366669,26.5035813 46.8363636,28.1696735 46.8363636,30.2060606 L46.8363636,28.7250689 C46.8362677,26.6886817 45.136571,25.0225895 43.0592066,25.0225895 Z" id="Path" fill="#665E5D"></path>
                </g>
            </g>
        </g>
    </g>
</svg>