<?xml version="1.0" encoding="UTF-8"?>
<svg width="24px" height="24px" viewBox="0 0 24 24" version="1.1" xmlns="http://www.w3.org/2000/svg" xmlns:xlink="http://www.w3.org/1999/xlink">
    <!-- Generator: sketchtool 60 (101010) - https://sketch.com -->
    <title>DF49047B-2A05-4447-A057-F219479E1593</title>
    <desc>Created with sketchtool.</desc>
    <g id="Asset-Artboard-Page" stroke="none" stroke-width="1" fill="none" fill-rule="evenodd">
        <g id="icon/arrow-left-first-page-copy-icon/arrow-left-first-page" transform="translate(12.000000, 12.000000) scale(-1, 1) translate(-12.000000, -12.000000) " fill="#3154CB" fill-rule="nonzero">
            <path d="M7.26065598,5.3 C7.6472553,5.3 7.96065598,5.61340068 7.96065598,6 L7.96065598,19 C7.96065598,19.3865993 7.6472553,19.7 7.26065598,19.7 C6.87405665,19.7 6.56065598,19.3865993 6.56065598,19 L6.56065598,6 C6.56065598,5.61340068 6.87405665,5.3 7.26065598,5.3 Z M17.0350799,5.95669979 C17.3129308,5.68066596 17.7634047,5.68066596 18.0412557,5.95669979 C18.3200156,6.23363658 18.3200156,6.68398286 18.0412557,6.96091966 L18.0412557,6.96091966 L12.4603256,12.5046744 L18.0412557,18.0397972 C18.3200156,18.316734 18.3200156,18.7670802 18.0412557,19.044017 C17.7598436,19.3235887 17.3052963,19.3182128 17.0350799,19.0328186 L17.0350799,19.0328186 L10.9593955,12.9968691 C10.824978,12.8633308 10.7503256,12.6779202 10.7503256,12.4947592 C10.7503256,12.3038309 10.8227849,12.1283664 10.9593955,11.9926493 L10.9593955,11.9926493 Z" id="Combined-Shape"></path>
        </g>
    </g>
</svg>