<svg width="20" height="18" viewBox="0 0 20 18" fill="none" xmlns="http://www.w3.org/2000/svg">
<g clip-path="url(#clip0)">
<path d="M15.4514 13.856L13.8669 14.9771L2.19486 6.76C2.19486 6.74343 2.19486 6.72743 2.19029 6.71143V5.97829V4.51943L15.452 13.8566L15.4514 13.856ZM12.1943 3.25029C11.4897 3.74286 10.7789 4.22514 10.0743 4.71714C10.0394 4.7498 9.99347 4.76798 9.94572 4.76798C9.89796 4.76798 9.85199 4.7498 9.81714 4.71714C8.94629 4.09943 8.07086 3.48743 7.19886 2.87429C6.28171 2.22514 5.36457 1.57429 4.44857 0.921714L3.14857 0H0C0.166857 0.119429 0.304571 0.219429 0.442857 0.317143L2.91029 2.06L5.34857 3.78857C6.11429 4.33029 6.87714 4.87543 7.64343 5.41714C8.37029 5.93029 9.09943 6.43829 9.82629 6.95314C9.85544 6.98013 9.8937 6.99512 9.93343 6.99512C9.97316 6.99512 10.0114 6.98013 10.0406 6.95314C10.6274 6.54343 11.2211 6.14057 11.8051 5.73029C13.2583 4.716 14.7109 3.69943 16.1617 2.68171L19.3331 0.472571C19.5537 0.32 19.7714 0.165714 20 0H16.8429C15.2931 1.08286 13.7434 2.16629 12.1949 3.25086L12.1943 3.25029ZM2.208 9.98571C2.20097 9.99924 2.19523 10.0134 2.19086 10.028V12.18C2.1917 12.1962 2.19558 12.2121 2.20229 12.2269L9.992 17.7143H9.99943L11.5846 16.5943L2.20743 9.98514L2.208 9.98571ZM17.7709 4.52457L11.9731 8.61029C11.9914 8.63532 12.0118 8.65865 12.0343 8.68C12.5246 9.03371 13.0154 9.38571 13.5063 9.73714C13.5223 9.74571 13.5406 9.74857 13.5594 9.74628L17.7571 6.78514C17.7634 6.77245 17.768 6.75901 17.7709 6.74514V4.524V4.52457ZM17.776 10.0714C17.1177 10.5343 16.4823 10.9817 15.84 11.4349L17.3457 12.5229L17.776 12.2189V10.0714V10.0714Z" fill="white"/>
</g>
<defs>
<clipPath id="clip0">
<rect width="20" height="17.7143" fill="white"/>
</clipPath>
</defs>
</svg>
