<svg width="24" height="24" fill="none" xmlns="http://www.w3.org/2000/svg"><path d="M19.528 14.711a8 8 0 000-5.415 8.014 8.014 0 00-7.525-5.293L12 4l-.003.003a8.014 8.014 0 00-7.553 5.372 8 8 0 00.027 5.333 8.014 8.014 0 007.526 5.295l.003.003.003-.003a8.014 8.014 0 007.525-5.292zm-9.491.369h3.926A8.494 8.494 0 0112 18.344a8.492 8.492 0 01-1.963-3.264zm-.322-1.231a9.764 9.764 0 010-3.692h4.57a9.765 9.765 0 010 3.692h-4.57zM5.23 12.003c0-.624.085-1.246.256-1.846h2.972a11.311 11.311 0 000 3.692H5.487a6.753 6.753 0 01-.256-1.846zm8.732-3.077h-3.926A8.494 8.494 0 0112 5.66a8.493 8.493 0 011.963 3.265zm1.578 1.23h2.972a6.787 6.787 0 010 3.693h-2.972c.202-1.223.202-2.47 0-3.692zm2.488-1.23h-2.767a9.803 9.803 0 00-1.856-3.545 6.794 6.794 0 014.623 3.545zM10.594 5.38a9.802 9.802 0 00-1.856 3.545H5.97a6.794 6.794 0 014.623-3.545zM5.971 15.08h2.767a9.803 9.803 0 001.856 3.545 6.793 6.793 0 01-4.623-3.545zm7.435 3.545a9.803 9.803 0 001.856-3.545h2.767a6.794 6.794 0 01-4.623 3.545z" fill="#6B7384"/></svg>