<svg width="24" height="24" fill="none" xmlns="http://www.w3.org/2000/svg"><path d="M20.933 0H3.067A3.07 3.07 0 000 3.067v17.866A3.07 3.07 0 003.067 24h17.866A3.07 3.07 0 0024 20.933V3.067A3.07 3.07 0 0020.933 0zm1.653 20.933c0 .912-.741 1.653-1.653 1.653H3.067a1.655 1.655 0 01-1.653-1.653v-2.578l4.652-3.959a.457.457 0 01.589-.003l2.914 2.42a.707.707 0 00.952-.045l6.925-6.935a.453.453 0 01.347-.134c.076.004.22.031.332.169l4.461 5.493v5.572zm0-7.814l-3.364-4.142a1.874 1.874 0 00-2.776-.143l-6.47 6.48-2.418-2.009a1.868 1.868 0 00-2.408.014L1.414 16.5V3.067c0-.912.741-1.653 1.653-1.653h17.866c.912 0 1.653.741 1.653 1.653v10.052z" fill="#6B7384"/><path d="M7.555 2.953a3.412 3.412 0 00-3.409 3.409A3.412 3.412 0 007.555 9.77a3.412 3.412 0 003.408-3.408 3.412 3.412 0 00-3.408-3.409zm0 5.403c-1.1 0-1.995-.895-1.995-1.994 0-1.1.895-1.995 1.995-1.995s1.995.895 1.995 1.995-.895 1.994-1.995 1.994z" fill="#6B7384"/></svg>