<svg width="20" height="20" viewBox="0 0 20 20" fill="none" xmlns="http://www.w3.org/2000/svg">
<path d="M3.3335 5.83301H16.6668" stroke="#6B7384" stroke-linecap="round" stroke-linejoin="round"/>
<path d="M8.3335 9.16699V14.167" stroke="#6B7384" stroke-linecap="round" stroke-linejoin="round"/>
<path d="M11.667 9.16699V14.167" stroke="#6B7384" stroke-linecap="round" stroke-linejoin="round"/>
<path d="M4.16699 5.83301L5.00033 15.833C5.00033 16.275 5.17592 16.699 5.48848 17.0115C5.80104 17.3241 6.22496 17.4997 6.66699 17.4997H13.3337C13.7757 17.4997 14.1996 17.3241 14.5122 17.0115C14.8247 16.699 15.0003 16.275 15.0003 15.833L15.8337 5.83301" stroke="#6B7384" stroke-linecap="round" stroke-linejoin="round"/>
<path d="M7.5 5.83333V3.33333C7.5 3.11232 7.5878 2.90036 7.74408 2.74408C7.90036 2.5878 8.11232 2.5 8.33333 2.5H11.6667C11.8877 2.5 12.0996 2.5878 12.2559 2.74408C12.4122 2.90036 12.5 3.11232 12.5 3.33333V5.83333" stroke="#6B7384" stroke-linecap="round" stroke-linejoin="round"/>
</svg>
