<svg width="24" height="24" xmlns="http://www.w3.org/2000/svg"><g fill="none" fill-rule="evenodd"><path d="M0 24h24V0H0z"/><g transform="translate(4.005 4)"><circle stroke="#6B7384" stroke-width="1.5" cx="8" cy="8" r="8"/><path d="M8.737 11.146a.81.81 0 01-.258.602.848.848 0 01-.616.252.86.86 0 01-.333-.066.954.954 0 01-.28-.176.8.8 0 01-.262-.59c0-.231.086-.432.257-.6a.849.849 0 01.618-.252c.233 0 .437.08.612.241a.77.77 0 01.262.59m-.219-2.109a1.045 1.045 0 01-.11.365.658.658 0 01-.174.213.567.567 0 01-.202.105.737.737 0 01-.18.027.808.808 0 01-.186-.027.55.55 0 01-.207-.105.598.598 0 01-.17-.218.791.791 0 01-.071-.36c0-.278.056-.521.169-.733.112-.211.294-.433.54-.666l.493-.471c.138-.123.257-.26.355-.415.099-.153.147-.337.147-.556 0-.285-.09-.523-.268-.717-.177-.193-.43-.29-.76-.29-.247 0-.458.066-.633.198a1.27 1.27 0 00-.404.524c-.08.182-.173.304-.279.367a.665.665 0 01-.344.092.617.617 0 01-.458-.174.62.62 0 01-.176-.46 1.077 1.077 0 01.131-.48c.211-.409.514-.72.908-.935A2.766 2.766 0 017.983 4c.312 0 .61.045.89.136.28.091.528.226.743.404.215.18.384.4.509.663a2.1 2.1 0 01.185.905c0 .235-.025.438-.076.613-.05.174-.125.335-.219.48-.094.146-.21.287-.343.421a8.38 8.38 0 01-.454.421c-.248.212-.422.387-.52.525a1.007 1.007 0 00-.18.47" fill="#6B7384"/></g></g></svg>