<?xml version="1.0" encoding="UTF-8"?>
<svg width="200px" height="150px" viewBox="0 0 200 150" version="1.1" xmlns="http://www.w3.org/2000/svg" xmlns:xlink="http://www.w3.org/1999/xlink">
    <title>contact us</title>
    <defs>
        <linearGradient x1="49.3649733%" y1="49.879952%" x2="149.381684%" y2="49.879952%" id="linearGradient-1">
            <stop stop-color="#3154CB" offset="0%"></stop>
            <stop stop-color="#3059CA" offset="17%"></stop>
            <stop stop-color="#2D66C6" offset="35%"></stop>
            <stop stop-color="#2A75C2" offset="49%"></stop>
            <stop stop-color="#2782BF" offset="59%"></stop>
            <stop stop-color="#20A4B6" offset="78%"></stop>
            <stop stop-color="#17D1AA" offset="100%"></stop>
        </linearGradient>
        <linearGradient x1="0%" y1="49.9953157%" x2="99.999865%" y2="49.9953157%" id="linearGradient-2">
            <stop stop-color="#17D1AA" offset="0%"></stop>
            <stop stop-color="#1AC2AE" offset="7%"></stop>
            <stop stop-color="#229BB8" offset="27%"></stop>
            <stop stop-color="#297CC0" offset="46%"></stop>
            <stop stop-color="#2D66C6" offset="65%"></stop>
            <stop stop-color="#3059CA" offset="83%"></stop>
            <stop stop-color="#3154CB" offset="100%"></stop>
        </linearGradient>
        <linearGradient x1="-176.080576%" y1="-13.0583364%" x2="97.4938809%" y2="63.176665%" id="linearGradient-3">
            <stop stop-color="#17D1AA" offset="0%"></stop>
            <stop stop-color="#1AC2AE" offset="7%"></stop>
            <stop stop-color="#229BB8" offset="27%"></stop>
            <stop stop-color="#297CC0" offset="46%"></stop>
            <stop stop-color="#2D66C6" offset="65%"></stop>
            <stop stop-color="#3059CA" offset="83%"></stop>
            <stop stop-color="#3154CB" offset="100%"></stop>
        </linearGradient>
        <linearGradient x1="-101.393052%" y1="7.750206%" x2="172.161304%" y2="83.9669453%" id="linearGradient-4">
            <stop stop-color="#17D1AA" offset="0%"></stop>
            <stop stop-color="#1AC2AE" offset="7%"></stop>
            <stop stop-color="#229BB8" offset="27%"></stop>
            <stop stop-color="#297CC0" offset="46%"></stop>
            <stop stop-color="#2D66C6" offset="65%"></stop>
            <stop stop-color="#3059CA" offset="83%"></stop>
            <stop stop-color="#3154CB" offset="100%"></stop>
        </linearGradient>
        <linearGradient x1="-28.5619097%" y1="28.0577166%" x2="244.881397%" y2="104.274456%" id="linearGradient-5">
            <stop stop-color="#17D1AA" offset="0%"></stop>
            <stop stop-color="#1AC2AE" offset="7%"></stop>
            <stop stop-color="#229BB8" offset="27%"></stop>
            <stop stop-color="#297CC0" offset="46%"></stop>
            <stop stop-color="#2D66C6" offset="65%"></stop>
            <stop stop-color="#3059CA" offset="83%"></stop>
            <stop stop-color="#3154CB" offset="100%"></stop>
        </linearGradient>
    </defs>
    <g id="*dapp-connector-✓" stroke="none" stroke-width="1" fill="none" fill-rule="evenodd">
        <g id="Settings_support" transform="translate(-877.000000, -169.000000)">
            <g id="Group-2-Copy-2" transform="translate(744.000000, 77.000000)">
                <g id="contact-us" transform="translate(133.000000, 92.000000)">
                    <g id="Layer_7" transform="translate(0.000000, 39.735099)" opacity="0.2" stroke="#1D45BA" stroke-width="0.5">
                        <g id="Group" transform="translate(0.268444, 0.000000)">
                            <line x1="67.8588118" y1="108.245301" x2="198.890024" y2="33.75999" id="Path"></line>
                            <line x1="18.0677046" y1="71.1359789" x2="140.296425" y2="1.65333284" id="Path"></line>
                            <line x1="73.6320837" y1="0.341333232" x2="190.808519" y2="66.8639802" id="Path"></line>
                            <line x1="0.441200648" y1="43.7866537" x2="116.14338" y2="109.477301" id="Path"></line>
                        </g>
                    </g>
                    <g id="language" transform="translate(94.333333, 49.668874) scale(-1, 1) translate(-94.333333, -49.668874) translate(58.000000, 0.000000)" fill-rule="nonzero">
                        <g id="_6">
                            <g id="_Group_">
                                <path d="M39.8466667,80.986755 C37.9466667,68.602649 39.8466667,65.7549669 39.8466667,65.7549669 L52.3,82.3112583 C52.3,82.3112583 48.9666667,87.6092715 49.7933333,90.5960265 C50.1487038,91.9844187 50.6608405,93.3284832 51.32,94.602649 C51.6077256,95.1040077 51.4698947,95.7401067 51,96.0794702 L51,96.0794702 C50.9136749,96.1401837 50.8222226,96.1933622 50.7266667,96.2384106 L46.3066667,98.8543046 L40.9733333,89.5827815 L39.8,84.3708609 L41.0266667,85.3311258 C40.4699112,83.9317605 40.0740682,82.4743971 39.8466667,80.986755 Z" id="_Path_" fill="url(#linearGradient-1)"></path>
                                <path d="M3.10666667,3.54304636 L7.33333333,1.13245033 C7.93677926,0.837694391 8.56605838,0.598289908 9.21333333,0.417218543 L9.21333333,0.417218543 C10.5805479,0.0573588877 12.0375116,0.298578036 13.2133333,1.0794702 L65.52,31.3245033 C69.4533333,33.602649 72.6333333,39.6821192 72.6134272,44.9139073 L72.4733333,86.9668874 C72.4733333,90.0993377 71.3,92.205298 69.5266667,92.9271523 L64.6666667,95.4238411 L60.8466667,89.7284768 L13.02,62.0860927 C9.08,59.807947 5.90666667,53.7284768 5.92,48.4966887 L6.06,7.94701987 L3.10666667,3.54304636 Z" id="_Path_2" fill="url(#linearGradient-2)"></path>
                                <path d="M0.766666667,9.17880795 C0.766666667,3.94701987 3.98666667,1.55629139 7.92666667,3.83443709 L60.2133333,34.0596026 C64.1533333,36.3377483 67.3333333,42.4172185 67.3333333,47.6423841 L67.1866667,89.6953642 C67.1866667,94.9205298 63.96,97.3112583 60.0266667,95.0397351 L43.8733333,85.7019868 C43.4387434,88.3399295 43.7527071,91.0459859 44.78,93.5165563 C45.4466667,94.9668874 46.1133333,96.2384106 46.6866667,97.3046358 C46.9422571,97.7680351 46.8499547,98.3445018 46.4622427,98.7062569 C46.0745306,99.068012 45.4895825,99.1234544 45.04,98.8410596 C41.2666667,96.397351 36.02,91.6953642 34.8266667,83.9536424 C34.62,82.5827815 34.46,81.3046358 34.3333333,80.1854305 L7.74,64.8145695 C3.8,62.5364238 0.62,56.4569536 0.639906175,51.2317881 L0.766666667,9.17880795 Z" id="Path" fill="#C7ECFF"></path>
                            </g>
                            <path d="M44.46,54.8807947 C43.9333333,59.1125828 46.46,64.7350993 50.06,67.4635762 C53.66,70.192053 57.04,68.9403974 57.56,64.7152318 C58.08,60.4900662 55.56,54.8609272 51.96,52.1324503 C48.36,49.4039735 44.98,50.6490066 44.46,54.8807947 Z" id="_Path_3" fill="url(#linearGradient-3)"></path>
                            <path d="M26.9266667,45.192053 C26.4066667,49.4172185 28.9266667,55.0463576 32.5333333,57.7748344 C36.14,60.5033113 39.5066667,59.2516556 40.0333333,55.0198675 C40.56,50.7880795 38.0333333,45.1655629 34.4266667,42.4370861 C30.82,39.7086093 27.4533333,40.9602649 26.9266667,45.192053 Z" id="_Path_4" fill="url(#linearGradient-4)"></path>
                            <path d="M9.88666667,35.5298013 C9.36,39.7615894 11.8866667,45.384106 15.4933333,48.1125828 C19.1,50.8410596 22.4666667,49.589404 22.9866667,45.3576159 C23.5066667,41.1258278 20.9866667,35.5033113 17.3866667,32.7748344 C13.7866667,30.0463576 10.4133333,31.2980132 9.88666667,35.5298013 Z" id="_Path_5" fill="url(#linearGradient-5)"></path>
                        </g>
                    </g>
                </g>
            </g>
        </g>
    </g>
</svg>