<?xml version="1.0" encoding="UTF-8"?>
<svg width="266px" height="160px" viewBox="0 0 266 160" version="1.1" xmlns="http://www.w3.org/2000/svg" xmlns:xlink="http://www.w3.org/1999/xlink">
    <!-- Generator: Sketch 52.6 (67491) - http://www.bohemiancoding.com/sketch -->
    <title> perform-tx-url.inline</title>
    <desc>Created with Sketch.</desc>
    <defs>
        <path d="M6.92033122,0.190195885 L6.91966561,0.190860905 C6.53627513,0.313889712 5.25631005,0.711572016 4.92683386,0.951644444 L0.423326984,3.52793416 L3.55634603,8.23228971 L3.40858095,51.5025185 C3.39060952,57.0793811 6.7619164,63.5693169 10.9399407,65.998637 L61.6852646,95.5002798 L65.7368233,101.582558 L70.8919608,98.8885597 C72.7743016,98.1417416 74.0076741,95.8966321 74.0183238,92.5529086 L74.1707481,47.67333 C74.1907164,42.0964675 70.8194095,35.6058667 66.6407196,33.1772115 L11.1609228,0.92304856 C10.0886275,0.299259259 9.06691852,0.00399012346 8.14105714,0.00399012346 C7.71240529,0.00399012346 7.30372169,0.0671670782 6.92033122,0.190195885" id="path-1"></path>
        <linearGradient x1="-0.000205149713%" y1="49.9998714%" x2="100.000781%" y2="49.9998714%" id="linearGradient-3">
            <stop stop-color="#3154CA" offset="0%"></stop>
            <stop stop-color="#17D1AA" offset="100%"></stop>
        </linearGradient>
        <path d="M0.498643771,5.69655309 C0.498643771,11.3501235 5.04685926,18.8808296 10.6368485,22.4833185 L18.6881859,27.6714667 C24.2775111,31.2739556 28.8257266,29.6043457 28.8257266,23.9507753 C28.8257266,18.2965333 24.2775111,10.7658272 18.6881859,7.16333827 L10.6368485,1.97519012 C8.64028148,0.688395062 6.77584512,0.0745481481 5.20488485,0.0738765432 C2.37768754,0.0738765432 0.498643771,2.06182716 0.498643771,5.69655309 M18.684202,23.3832691 L10.6368485,18.2011654 C7.38404444,16.1003852 4.73611987,11.7174914 4.7328,8.42461235 C4.73611987,5.13643457 7.38404444,4.16462222 10.6368485,6.25734321 L18.6881859,11.446163 C21.9403259,13.5462716 24.5882505,17.929837 24.5882505,21.216 C24.5882505,23.3328988 23.4946869,24.4907457 21.8486976,24.4907457 C20.9337428,24.4907457 19.8481468,24.1327802 18.684202,23.3832691" id="path-4"></path>
        <linearGradient x1="0.00173335208%" y1="19.0592926%" x2="99.9999051%" y2="80.9423963%" id="linearGradient-6">
            <stop stop-color="#17D1AA" offset="0%"></stop>
            <stop stop-color="#3154CA" offset="100%"></stop>
        </linearGradient>
        <path d="M0.10598863,6.07533827 C0.10598863,11.7289086 4.75929716,19.2602864 10.4792861,22.8627753 L18.7097109,28.0462222 C24.433097,31.6547556 29.0870849,29.9851457 29.0870849,24.323516 C29.0870849,18.6699457 24.433097,11.1385679 18.713108,7.53607901 L10.4792861,2.35397531 C8.43356968,1.06449383 6.5244155,0.448632099 4.91624186,0.449303704 C2.02465461,0.449303704 0.103270973,2.43859753 0.10598863,6.07533827 M18.713108,23.7627259 L10.4752096,18.5739062 C7.14607959,16.4811852 4.43793419,12.0982914 4.43793419,8.80339753 C4.43793419,5.50917531 7.146759,4.53803457 10.4792861,6.6368 L18.713108,11.8262914 C22.0422381,13.9190123 24.7503835,18.3025778 24.7503835,21.5968 C24.7531011,23.7130272 23.6341058,24.8708741 21.9498377,24.8708741 C21.0136048,24.8708741 19.9027624,24.5129086 18.713108,23.7627259" id="path-7"></path>
        <linearGradient x1="-0.00115684117%" y1="19.0632757%" x2="100.000206%" y2="80.9310735%" id="linearGradient-9">
            <stop stop-color="#17D1AA" offset="0%"></stop>
            <stop stop-color="#3154CA" offset="100%"></stop>
        </linearGradient>
    </defs>
    <g id="-perform-tx-url.inline" stroke="none" stroke-width="1" fill="none" fill-rule="evenodd">
        <g id="Group-36" transform="translate(11.000000, 12.000000)">
            <g id="Group-9" opacity="0.20186942" stroke="#1D45BA" stroke-width="0.5">
                <path d="M82.9424108,134.323949 L243.972492,41.6727883" id="Stroke-1"></path>
                <path d="M21.7493268,88.1609054 L171.966042,1.73257366" id="Stroke-3"></path>
                <path d="M90.0372564,0.101701463 L234.039576,82.8487454" id="Stroke-5"></path>
                <path d="M0.0819284553,54.144718 L142.279706,135.856172" id="Stroke-7"></path>
            </g>
            <g id="Group-12" transform="translate(91.637037, 0.000000)">
                <mask id="mask-2" fill="white">
                    <use xlink:href="#path-1"></use>
                </mask>
                <g id="Clip-11"></g>
                <path d="M6.92033122,0.190195885 L6.91966561,0.190860905 C6.53627513,0.313889712 5.25631005,0.711572016 4.92683386,0.951644444 L0.423326984,3.52793416 L3.55634603,8.23228971 L3.40858095,51.5025185 C3.39060952,57.0793811 6.7619164,63.5693169 10.9399407,65.998637 L61.6852646,95.5002798 L65.7368233,101.582558 L70.8919608,98.8885597 C72.7743016,98.1417416 74.0076741,95.8966321 74.0183238,92.5529086 L74.1707481,47.67333 C74.1907164,42.0964675 70.8194095,35.6058667 66.6407196,33.1772115 L11.1609228,0.92304856 C10.0886275,0.299259259 9.06691852,0.00399012346 8.14105714,0.00399012346 C7.71240529,0.00399012346 7.30372169,0.0671670782 6.92033122,0.190195885" id="Fill-10" fill="url(#linearGradient-3)" mask="url(#mask-2)"></path>
            </g>
            <path d="M89.7763747,9.61119063 C89.7952129,4.0591792 93.2351936,1.51886584 97.4583032,3.93736068 L153.536112,36.0471335 C157.759222,38.4656283 161.166909,44.9266442 161.14807,50.4793177 L160.994001,95.1589079 C160.97449,100.710919 157.535855,103.251233 153.312746,100.8334 L97.2349366,68.7229651 C93.011827,66.3044703 89.6027946,59.8434543 89.6223056,54.2914429 L89.7763747,9.61119063 Z" id="Fill-13" fill="#C7ECFF"></path>
            <g id="Group-17" transform="translate(95.666667, 29.214815)">
                <mask id="mask-5" fill="white">
                    <use xlink:href="#path-4"></use>
                </mask>
                <g id="Clip-16"></g>
                <path d="M0.498643771,5.69655309 C0.498643771,11.3501235 5.04685926,18.8808296 10.6368485,22.4833185 L18.6881859,27.6714667 C24.2775111,31.2739556 28.8257266,29.6043457 28.8257266,23.9507753 C28.8257266,18.2965333 24.2775111,10.7658272 18.6881859,7.16333827 L10.6368485,1.97519012 C8.64028148,0.688395062 6.77584512,0.0745481481 5.20488485,0.0738765432 C2.37768754,0.0738765432 0.498643771,2.06182716 0.498643771,5.69655309 M18.684202,23.3832691 L10.6368485,18.2011654 C7.38404444,16.1003852 4.73611987,11.7174914 4.7328,8.42461235 C4.73611987,5.13643457 7.38404444,4.16462222 10.6368485,6.25734321 L18.6881859,11.446163 C21.9403259,13.5462716 24.5882505,17.929837 24.5882505,21.216 C24.5882505,23.3328988 23.4946869,24.4907457 21.8486976,24.4907457 C20.9337428,24.4907457 19.8481468,24.1327802 18.684202,23.3832691" id="Fill-15" fill="url(#linearGradient-6)" mask="url(#mask-5)"></path>
            </g>
            <g id="Group-20" transform="translate(126.896296, 48.355556)">
                <mask id="mask-8" fill="white">
                    <use xlink:href="#path-7"></use>
                </mask>
                <g id="Clip-19"></g>
                <path d="M0.10598863,6.07533827 C0.10598863,11.7289086 4.75929716,19.2602864 10.4792861,22.8627753 L18.7097109,28.0462222 C24.433097,31.6547556 29.0870849,29.9851457 29.0870849,24.323516 C29.0870849,18.6699457 24.433097,11.1385679 18.713108,7.53607901 L10.4792861,2.35397531 C8.43356968,1.06449383 6.5244155,0.448632099 4.91624186,0.449303704 C2.02465461,0.449303704 0.103270973,2.43859753 0.10598863,6.07533827 M18.713108,23.7627259 L10.4752096,18.5739062 C7.14607959,16.4811852 4.43793419,12.0982914 4.43793419,8.80339753 C4.43793419,5.50917531 7.146759,4.53803457 10.4792861,6.6368 L18.713108,11.8262914 C22.0422381,13.9190123 24.7503835,18.3025778 24.7503835,21.5968 C24.7531011,23.7130272 23.6341058,24.8708741 21.9498377,24.8708741 C21.0136048,24.8708741 19.9027624,24.5129086 18.713108,23.7627259" id="Fill-18" fill="url(#linearGradient-9)" mask="url(#mask-8)"></path>
            </g>
            <g id="Group-35" transform="translate(115.814815, 31.229630)">
                <path d="M16.5023947,28.8485215 L3.02389524,20.4077906 C1.5815037,19.5051536 0.415285714,17.6300326 0.415285714,16.2129462 C0.415285714,14.7951881 1.5815037,14.3801363 3.02389524,15.2827733 L16.5023947,23.7154449 C17.9406847,24.6200968 19.1103206,26.5012622 19.1144222,27.9170054 C19.1103206,29.3280474 17.9406847,29.7451141 16.5023947,28.8485215" id="Fill-21" fill="#2C30D1"></path>
                <path d="M9.76184614,8.97774617 C9.37356254,8.73462519 9.05910751,8.22823506 9.05910751,7.84676346 L9.05910751,2.85808198 C9.05910751,2.47661037 9.37356254,2.36445235 9.76184614,2.60757333 C10.1508133,2.85069432 10.4652684,3.35708444 10.4652684,3.73855605 L10.4652684,8.72723753 C10.4652684,9.10870914 10.1508133,9.22086716 9.76184614,8.97774617" id="Fill-23" fill="#F0F9FF"></path>
                <path d="M13.9963249,13.1710459 C13.6811862,12.7506212 13.6114593,12.2744533 13.8390974,12.1078953 L16.8154825,9.92920889 C17.0431206,9.76265086 17.4826741,9.96816198 17.7978127,10.3892583 C18.1122677,10.8103546 18.1826783,11.2865225 17.9550402,11.4530805 L14.978655,13.6310953 C14.7510169,13.7976533 14.3114635,13.5921422 13.9963249,13.1710459" id="Fill-25" fill="#F0F9FF"></path>
                <path d="M5.52811937,7.87067259 C5.84257439,7.8438084 5.91298497,7.45629235 5.68534688,7.00430222 L2.70896169,1.0995516 C2.4813236,0.648233086 2.04177016,0.303699753 1.72663153,0.330563951 C1.41217651,0.356756543 1.34176593,0.744944198 1.56940402,1.19626272 L4.54578921,7.10101333 C4.7734273,7.55300346 5.21298074,7.89753679 5.52811937,7.87067259" id="Fill-27" fill="#F0F9FF"></path>
                <path d="M9.76184614,35.1483773 C10.1508133,35.3914983 10.4652684,35.8978884 10.4652684,36.27936 L10.4652684,41.2680415 C10.4652684,41.6495131 10.1508133,41.7616711 9.76184614,41.5185501 C9.37356254,41.2754291 9.05910751,40.769039 9.05910751,40.3875674 L9.05910751,35.3988859 C9.05910751,35.0174143 9.37356254,34.9052563 9.76184614,35.1483773" id="Fill-29" fill="#F0F9FF"></path>
                <path d="M5.52811937,30.9548089 C5.84325799,31.3759052 5.91298497,31.8514015 5.68534688,32.0179595 L2.70896169,34.1966459 C2.4813236,34.363204 2.04177016,34.1576928 1.72663153,33.7365965 C1.41217651,33.3155002 1.34176593,32.840004 1.56940402,32.6734459 L4.54578921,30.4947595 C4.7734273,30.3282015 5.21298074,30.5343842 5.52811937,30.9548089" id="Fill-31" fill="#F0F9FF"></path>
                <path d="M13.9963249,36.255518 C13.6811862,36.2823822 13.6114593,36.6698983 13.8390974,37.1218884 L16.8154825,43.026639 C17.0431206,43.4779575 17.4826741,43.8224909 17.7978127,43.7956267 C18.1122677,43.7694341 18.1826783,43.3812464 17.9550402,42.9299279 L14.978655,37.0251773 C14.7510169,36.5731872 14.3114635,36.2286538 13.9963249,36.255518" id="Fill-33" fill="#F0F9FF"></path>
            </g>
        </g>
    </g>
</svg>