<svg xmlns="http://www.w3.org/2000/svg" width="20" height="20">
  <path fill="#2249BE" fill-rule="evenodd" d="M12.105 11.97a1.148 1.148 0 0 1-1.146-1.146 1.147 1.147 0 0 1 2.292 0c0 .633-.514 1.147-1.146 1.147m-2.031 2.48a4.667 4.667 0 0 1-2.505-.728l.44-.691a3.848 3.848 0 0 0 4.135 0l.44.691a4.696 4.696 0 0 1-2.51.727M6.92 10.824c0-.63.514-1.145 1.146-1.145a1.147 1.147 0 0 1 0 2.292 1.148 1.148 0 0 1-1.146-1.147M17 9.676a1.968 1.968 0 0 0-3.136-1.58c-.955-.482-2.09-.772-3.29-.84l.785-2.168 1.897.473a1.48 1.48 0 0 0 2.956-.082 1.48 1.48 0 1 0-2.772-.719l-2.6-.65-1.132 3.13c-1.306.038-2.541.334-3.572.85a1.95 1.95 0 0 0-1.167-.382A1.974 1.974 0 0 0 3 9.676c0 .53.219 1.042.593 1.408a3.024 3.024 0 0 0-.038.474c0 1.189.694 2.294 1.953 3.108 1.202.783 2.796 1.211 4.487 1.211 1.689 0 3.281-.428 4.487-1.21 1.257-.818 1.952-1.922 1.952-3.11 0-.155-.013-.311-.035-.467.38-.364.601-.878.601-1.414"/>
</svg>
