<svg xmlns="http://www.w3.org/2000/svg" xmlns:xlink="http://www.w3.org/1999/xlink" width="20" height="20">
  <defs>
    <path id="a" d="M13.777.226L.905 5.191a.37.37 0 0 0 .004.691l3.137 1.172 1.212 3.904a.37.37 0 0 0 .588.176L7.594 9.71a.52.52 0 0 1 .636-.019l3.152 2.289a.37.37 0 0 0 .58-.223L14.272.646a.37.37 0 0 0-.495-.42m-8.32 9.227l-.663-2.328a.618.618 0 0 1 .27-.695l6.129-3.775c.11-.068.224.082.129.169L6.263 7.526a1.052 1.052 0 0 0-.325.628l-.172 1.277a.154.154 0 0 1-.157.137.152.152 0 0 1-.152-.115"/>
  </defs>
  <g fill="none" fillRule="evenodd" transform="translate(2.4 4)">
    <mask id="b" fill="#fff">
      <use xlink:href="#a"/>
    </mask>
    <path fill="#2249BE" d="M13.777.226L.905 5.191a.37.37 0 0 0 .004.691l3.137 1.172 1.212 3.904a.37.37 0 0 0 .588.176L7.594 9.71a.52.52 0 0 1 .636-.019l3.152 2.289a.37.37 0 0 0 .58-.223L14.272.646a.37.37 0 0 0-.495-.42m-8.32 9.227l-.663-2.328a.618.618 0 0 1 .27-.695l6.129-3.775c.11-.068.224.082.129.169L6.263 7.526a1.052 1.052 0 0 0-.325.628l-.172 1.277a.154.154 0 0 1-.157.137.152.152 0 0 1-.152-.115" mask="url(#b)"/>
  </g>
</svg>
