<?xml version="1.0" encoding="UTF-8"?>
<svg viewBox="0 0 520 832.7" version="1.1" xmlns="http://www.w3.org/2000/svg" xmlns:xlink="http://www.w3.org/1999/xlink">
    <!-- Generator: Sketch 60 (88103) - https://sketch.com -->
    <title>daedalus</title>
    <desc>Created with Sketch.</desc>
    <defs>
        <linearGradient x1="49.910041%" y1="112.383949%" x2="49.910041%" y2="-0.590659832%" id="linearGradient-1">
            <stop stop-color="#1D45BA" offset="0%"></stop>
            <stop stop-color="#1D47BA" offset="42.04%"></stop>
            <stop stop-color="#1D4EB9" offset="57.18%"></stop>
            <stop stop-color="#1C59B8" offset="67.97%"></stop>
            <stop stop-color="#1B6AB6" offset="76.7%"></stop>
            <stop stop-color="#1A80B3" offset="84.17%"></stop>
            <stop stop-color="#199CB0" offset="90.79%"></stop>
            <stop stop-color="#18BBAD" offset="96.63%"></stop>
            <stop stop-color="#17D1AA" offset="100%"></stop>
        </linearGradient>
        <linearGradient x1="50.0122222%" y1="112.354012%" x2="50.0122222%" y2="-0.527543376%" id="linearGradient-2">
            <stop stop-color="#1D45BA" offset="0%"></stop>
            <stop stop-color="#1D47BA" offset="42.04%"></stop>
            <stop stop-color="#1D4EB9" offset="57.18%"></stop>
            <stop stop-color="#1C59B8" offset="67.97%"></stop>
            <stop stop-color="#1B6AB6" offset="76.7%"></stop>
            <stop stop-color="#1A80B3" offset="84.17%"></stop>
            <stop stop-color="#199CB0" offset="90.79%"></stop>
            <stop stop-color="#18BBAD" offset="96.63%"></stop>
            <stop stop-color="#17D1AA" offset="100%"></stop>
        </linearGradient>
        <linearGradient x1="48.80048%" y1="11.9347513%" x2="51.5075182%" y2="92.0609949%" id="linearGradient-3">
            <stop stop-color="#17D1AA" stop-opacity="0" offset="0.3132735%"></stop>
            <stop stop-color="#1E9AA9" stop-opacity="0.6164" offset="61.76%"></stop>
            <stop stop-color="#227DA8" offset="100%"></stop>
        </linearGradient>
        <linearGradient x1="130.497807%" y1="72.0258431%" x2="10.1067076%" y2="37.9255923%" id="linearGradient-4">
            <stop stop-color="#1980AC" offset="0%"></stop>
            <stop stop-color="#1977AC" offset="13.17%"></stop>
            <stop stop-color="#1B3DAD" offset="100%"></stop>
        </linearGradient>
        <linearGradient x1="0.0125276929%" y1="49.9935693%" x2="100.019994%" y2="49.9935693%" id="linearGradient-5">
            <stop stop-color="#17D1AA" offset="0%"></stop>
            <stop stop-color="#1AC2AE" offset="6.594372%"></stop>
            <stop stop-color="#229BB8" offset="26.51%"></stop>
            <stop stop-color="#297CC0" offset="46.16%"></stop>
            <stop stop-color="#2D66C6" offset="65.25%"></stop>
            <stop stop-color="#3059CA" offset="83.49%"></stop>
            <stop stop-color="#3154CB" offset="100%"></stop>
        </linearGradient>
        <linearGradient x1="-0.00695025829%" y1="49.9939801%" x2="100.011689%" y2="49.9939801%" id="linearGradient-6">
            <stop stop-color="#17D1AA" offset="0%"></stop>
            <stop stop-color="#1AC2AE" offset="6.594372%"></stop>
            <stop stop-color="#229BB8" offset="26.51%"></stop>
            <stop stop-color="#297CC0" offset="46.16%"></stop>
            <stop stop-color="#2D66C6" offset="65.25%"></stop>
            <stop stop-color="#3059CA" offset="83.49%"></stop>
            <stop stop-color="#3154CB" offset="100%"></stop>
        </linearGradient>
        <linearGradient x1="49.9903412%" y1="0.131217145%" x2="50.096992%" y2="105.366721%" id="linearGradient-7">
            <stop stop-color="#52FCFF" stop-opacity="0" offset="0%"></stop>
            <stop stop-color="#46D3F0" stop-opacity="0.1417" offset="8.643895%"></stop>
            <stop stop-color="#39A5DE" stop-opacity="0.3253" offset="19.84%"></stop>
            <stop stop-color="#2F81D1" stop-opacity="0.5011" offset="30.56%"></stop>
            <stop stop-color="#2767C7" stop-opacity="0.6648" offset="40.55%"></stop>
            <stop stop-color="#2357C1" stop-opacity="0.8117" offset="49.51%"></stop>
            <stop stop-color="#2152BF" stop-opacity="0.9276" offset="56.58%"></stop>
            <stop stop-color="#1E48BB" stop-opacity="0.9596" offset="75.68%"></stop>
            <stop stop-color="#1D45BA" offset="99.84%"></stop>
        </linearGradient>
        <linearGradient x1="47.9410863%" y1="4.18062019%" x2="52.415148%" y2="107.137313%" id="linearGradient-8">
            <stop stop-color="#17D1AA" stop-opacity="0" offset="0.3132735%"></stop>
            <stop stop-color="#1E9AA9" stop-opacity="0.6164" offset="61.76%"></stop>
            <stop stop-color="#227DA8" offset="100%"></stop>
        </linearGradient>
        <linearGradient x1="30.6147146%" y1="57.9805968%" x2="68.7735376%" y2="41.917318%" id="linearGradient-9">
            <stop stop-color="#17D1AA" offset="0%"></stop>
            <stop stop-color="#1AC2AE" offset="6.594372%"></stop>
            <stop stop-color="#229BB8" offset="26.51%"></stop>
            <stop stop-color="#297CC0" offset="46.16%"></stop>
            <stop stop-color="#2D66C6" offset="65.25%"></stop>
            <stop stop-color="#3059CA" offset="83.49%"></stop>
            <stop stop-color="#3154CB" offset="100%"></stop>
        </linearGradient>
        <linearGradient x1="49.9996622%" y1="112.47152%" x2="49.9996622%" y2="-0.542668171%" id="linearGradient-10">
            <stop stop-color="#1D45BA" offset="0%"></stop>
            <stop stop-color="#1D47BA" offset="42.04%"></stop>
            <stop stop-color="#1D4EB9" offset="57.18%"></stop>
            <stop stop-color="#1C59B8" offset="67.97%"></stop>
            <stop stop-color="#1B6AB6" offset="76.7%"></stop>
            <stop stop-color="#1A80B3" offset="84.17%"></stop>
            <stop stop-color="#199CB0" offset="90.79%"></stop>
            <stop stop-color="#18BBAD" offset="96.63%"></stop>
            <stop stop-color="#17D1AA" offset="100%"></stop>
        </linearGradient>
        <linearGradient x1="-0.0458333333%" y1="50.003954%" x2="99.9716346%" y2="50.003954%" id="linearGradient-11">
            <stop stop-color="#17D1AA" offset="0%"></stop>
            <stop stop-color="#1EADB3" offset="40.92%"></stop>
            <stop stop-color="#287FBF" offset="100%"></stop>
        </linearGradient>
        <linearGradient x1="46.9990713%" y1="-13.0973395%" x2="52.2598406%" y2="96.2122802%" id="linearGradient-12">
            <stop stop-color="#17D1AA" offset="0%"></stop>
            <stop stop-color="#1DAEB2" offset="13.79%"></stop>
            <stop stop-color="#2487BB" offset="32.13%"></stop>
            <stop stop-color="#2A68C2" offset="50.24%"></stop>
            <stop stop-color="#2E52C7" offset="67.82%"></stop>
            <stop stop-color="#3045CA" offset="84.63%"></stop>
            <stop stop-color="#3140CB" offset="99.84%"></stop>
        </linearGradient>
        <linearGradient x1="26.8380279%" y1="33.0684334%" x2="71.8961083%" y2="65.9668745%" id="linearGradient-13">
            <stop stop-color="#17D1AA" offset="0%"></stop>
            <stop stop-color="#1DAEB2" offset="13.79%"></stop>
            <stop stop-color="#2487BB" offset="32.13%"></stop>
            <stop stop-color="#2A68C2" offset="50.24%"></stop>
            <stop stop-color="#2E52C7" offset="67.82%"></stop>
            <stop stop-color="#3045CA" offset="84.63%"></stop>
            <stop stop-color="#3140CB" offset="99.84%"></stop>
        </linearGradient>
    </defs>
    <g id="daedalus" stroke="none" stroke-width="1" fill="none" fill-rule="evenodd">
        <g id="DAEDALUS_daedalus" transform="translate(9.000000, 12.000000)" fill-rule="nonzero">
            <g id="Group" transform="translate(112.000000, 26.000000)">
                <g>
                    <path d="M11.8,20 C11.8,36.1 22.7,54.4 36.2,60.9 C40.5,63 44.6,63.6 48.1,63 L47.9,64.6 L52.7,61.2 C53.2,60.9 53.6,60.6 54,60.3 L54.1,60.2 L54.1,60.2 C58.1,57 60.6,51.2 60.6,43.6 C60.6,27.5 49.7,9.2 36.2,2.7 C29.7,-0.4 23.9,-0.3 19.5,2.5 L19.5,2.5 L19.3,2.6 C19.1,2.7 18.9,2.9 18.7,3 L13.8,6.4 L15.9,5.8 C13.3,9.2 11.8,14 11.8,20 Z M22.8,25.3 C22.8,16.5 28.8,12.3 36.1,15.8 C43.5,19.4 49.4,29.4 49.4,38.2 C49.4,47 43.4,51.2 36.1,47.7 C28.8,44.1 22.8,34.1 22.8,25.3 Z" id="Shape" fill="url(#linearGradient-1)"></path>
                    <path d="M6.3,23.8 C6.3,39.9 17.2,58.2 30.7,64.7 C44.1,71.2 55.1,63.5 55.1,47.4 C55.1,31.3 44.2,13 30.7,6.5 C17.2,1.49213975e-13 6.3,7.8 6.3,23.8 Z M17.3,29.2 C17.3,20.4 23.3,16.2 30.6,19.7 C38,23.3 44,33.3 44,42.1 C44,50.9 38,55.1 30.7,51.6 C23.3,48 17.3,38 17.3,29.2 Z" id="Shape" fill="#17D1AA"></path>
                    <path d="M30.6,6.8 C17.2,0.3 6.2,8 6.2,24.1 C6.2,40.2 17.1,58.5 30.6,65 C44,71.5 55,63.8 55,47.7 C55,31.6 44.1,13.3 30.6,6.8 Z M30.6,51.8 C23.2,48.2 17.3,38.2 17.3,29.4 C17.3,20.6 23.3,16.4 30.6,19.9 C38,23.5 44,33.6 44,42.4 C44,51.2 38,55.4 30.6,51.8 Z" id="Shape" fill="#163FA5"></path>
                    <ellipse id="Oval" fill="#52FCFF" opacity="0.7" transform="translate(30.588340, 35.619380) rotate(-27.859144) translate(-30.588340, -35.619380) " cx="30.58834" cy="35.61938" rx="18.3000192" ry="29.4000309"></ellipse>
                </g>
                <g transform="translate(17.000000, 17.000000)" fill="#1D45BA">
                    <path d="M22.3,39.2 L17.7,23.5 L6,16.3 C4.7,19.6 3,23.6 1.6,26.9 C1.5,27.1 1.2,27.1 0.9,26.9 C0.5,26.6 0.4,26.5 0.4,26 L0.4,26 L10.7,1.2 C11,0.6 11.8,0.1 12.5,0.6 C13.3,1.1 13.7,2 13.9,2.9 L23.8,38.4 C24,39.1 24.3,40 23.7,40.2 C22.9,40.4 22.5,39.7 22.3,39.2 Z M12.6,4.4 C12.1,2.8 11.7,2.3 11.3,3.4 L6.6,15.2 L17.3,21.7 L12.6,4.4 Z" id="Shape"></path>
                    <path d="M23.5,27.2 L0.9,13.4 C0.7,13.3 0.5,12.9 0.5,12.6 L0.5,11.9 C0.5,11.6 0.7,11.5 0.9,11.6 L23.5,25.4 C23.7,25.5 23.9,25.9 23.9,26.2 L23.9,26.9 C23.9,27.2 23.7,27.3 23.5,27.2 Z" id="Path"></path>
                    <path d="M21.5,19.8 L3,8.5 C2.8,8.4 2.6,8 2.6,7.7 L2.6,7 C2.6,6.7 2.8,6.6 3,6.7 L21.5,18 C21.7,18.1 21.9,18.5 21.9,18.8 L21.9,19.5 C21.9,19.9 21.7,20 21.5,19.8 Z" id="Path"></path>
                </g>
            </g>
            <g id="Group" transform="translate(314.000000, 0.000000)">
                <g>
                    <path d="M15.3,25.8 C15.3,46.6 29.4,70.2 46.8,78.7 C52.4,81.4 57.6,82.2 62.2,81.4 L61.9,83.5 L68.1,79.1 C68.7,78.7 69.2,78.3 69.8,77.9 L69.9,77.8 L69.9,77.8 C75.1,73.6 78.3,66.2 78.3,56.3 C78.3,35.5 64.2,11.9 46.8,3.4 C38.5,-0.7 30.9,-0.4 25.2,3.2 L25.2,3.2 L25,3.4 C24.8,3.6 24.5,3.7 24.3,3.9 L17.9,8.3 L20.6,7.5 C17.3,11.8 15.3,18 15.3,25.8 Z M29.6,32.7 C29.6,21.3 37.3,15.9 46.8,20.5 C56.3,25.1 64,38.1 64,49.5 C64,60.9 56.3,66.3 46.8,61.7 C37.3,57 29.6,44 29.6,32.7 Z" id="Shape" fill="url(#linearGradient-2)"></path>
                    <path d="M8.2,30.7 C8.2,51.5 22.3,75.1 39.7,83.6 C57.1,92 71.2,82 71.2,61.3 C71.2,40.5 57.1,16.9 39.7,8.4 C22.3,5.71098724e-13 8.2,10 8.2,30.7 Z M22.4,37.7 C22.4,26.3 30.1,20.9 39.6,25.5 C49.1,30.1 56.8,43.1 56.8,54.5 C56.8,65.9 49.1,71.3 39.6,66.7 C30.1,62 22.4,49 22.4,37.7 Z" id="Shape" fill="#17D1AA"></path>
                    <path d="M39.7,8.8 C22.3,0.4 8.2,10.4 8.2,31.1 C8.2,51.9 22.3,75.5 39.7,84 C57.1,92.4 71.2,82.4 71.2,61.7 C71.1,40.9 57,17.2 39.7,8.8 Z M39.7,66.9 C30.2,62.3 22.5,49.3 22.5,37.9 C22.5,26.5 30.2,21.1 39.7,25.7 C49.2,30.3 56.9,43.3 56.9,54.7 C56.9,66.1 49.2,71.6 39.7,66.9 Z" id="Shape" fill="#163FA5"></path>
                    <ellipse id="Oval" fill="#52FCFF" opacity="0.7" transform="translate(39.685470, 45.989190) rotate(-27.859144) translate(-39.685470, -45.989190) " cx="39.68547" cy="45.98919" rx="23.7000249" ry="38.0000399"></ellipse>
                </g>
                <g transform="translate(22.000000, 22.000000)" fill="#1D45BA">
                    <path d="M28.9,50.6 L23,30.3 L7.9,21 C6.2,25.2 4,30.5 2.2,34.7 C2,35 1.7,35 1.3,34.8 C0.7,34.5 0.6,34.3 0.6,33.7 L0.6,33.5 L13.9,1.4 C14.3,0.6 15.3,5.55111512e-17 16.2,0.6 C17.2,1.2 17.7,2.4 18,3.6 L30.8,49.5 C31.1,50.3 31.5,51.6 30.7,51.8 C29.6,52.1 29.1,51.3 28.9,50.6 Z M16.4,5.6 C15.8,3.5 15.3,2.9 14.8,4.3 L8.7,19.6 L22.5,28.1 L16.4,5.6 Z" id="Shape"></path>
                    <path d="M30.4,35.1 L1.2,17.3 C0.9,17.1 0.7,16.7 0.7,16.3 L0.7,15.4 C0.7,15 0.9,14.9 1.2,15 L30.4,32.8 C30.7,33 30.9,33.4 30.9,33.8 L30.9,34.7 C31,35.1 30.7,35.3 30.4,35.1 Z" id="Path"></path>
                    <path d="M27.8,25.6 L3.9,11 C3.6,10.8 3.4,10.4 3.4,10 L3.4,9 C3.4,8.6 3.6,8.5 3.9,8.6 L27.8,23.2 C28.1,23.4 28.3,23.8 28.3,24.2 L28.3,25.1 C28.3,25.6 28.1,25.8 27.8,25.6 Z" id="Path"></path>
                </g>
            </g>
            <path d="M355.5,566.6 L369,559 C372.9,556.8 375.3,552.5 375.1,548 L375.1,324.7 C375.1,324.7 375.2,307.5 356.8,297.3 C339.4,287.6 87.3,141.3 87.3,141.3 C87.3,141.3 71.6,136.9 70.3,160.5 C69,184.1 71.1,398.4 71.1,398.4 L355.5,566.6 Z" id="Path" fill="#17D1AA"></path>
            <path d="M355.5,566.6 L369,559 C372.9,556.8 375.3,552.5 375.1,548 L375.1,324.7 C375.1,324.7 375.2,307.5 356.8,297.3 C339.4,287.6 318.1,275.1 318.1,275.1 C318.1,275.1 307.8,338.4 306.5,362 C305.2,385.6 312.6,545.9 312.6,545.9 L355.5,566.6 Z" id="Path" fill="url(#linearGradient-3)"></path>
            <path d="M347.8,305.9 L84.3,154.6 C83.2,154 82.1,153.6 81.1,153.4 L81.1,153.4 C11,124.7 17.9,180.9 17.9,180.9 L72.4,210.3 L72.4,392.1 C72.4,400.8 77.8,411.1 84.4,414.8 L347.8,566 C354.4,569.8 359.8,565.7 359.8,557 L359.8,328.6 C359.8,319.9 354.4,309.6 347.8,305.9 Z" id="Path" fill="url(#linearGradient-4)"></path>
            <path d="M306.4,572.5 L341.9,550.2 C343.2,549.4 343.9,548 343.9,546.6 L343.9,335.2 C343.9,328.7 340.5,322.6 334.9,319.3 L80.2,168.2 C75.2,165.3 69.2,164.8 63.8,166.9 L30.1,180.1 C27.5,181.1 26.5,184.3 28.2,186.6 L306.4,572.5 Z" id="Path" fill="#52FCFF"></path>
            <path d="M299.5,576.9 L335,554.6 C336.3,553.8 337,552.4 337,551 L337,339.6 C337,333.1 333.6,327 328,323.7 L73.3,172.6 C68.3,169.7 60.9,168.8 55.5,170.9 L23.1,183.3 C20.5,184.3 19.6,188.7 21.2,191 L299.5,576.9 Z" id="Path" fill="url(#linearGradient-5)"></path>
            <path d="M294,580.2 L329.4,558.1 C330.7,557.3 331.1,554.7 331.1,553.3 L331.1,342 C331.1,335.5 327.7,329.4 322.1,326.1 L67.4,175 C62.4,172.1 54.1,170.7 48.8,172.8 L17.3,186.8 C14.7,187.8 13.7,191 15.4,193.3 L294,580.2 Z" id="Path" fill="#52FCFF"></path>
            <path d="M287.1,584.8 L321.3,563.1 C322.6,562.3 323,560.5 323,559 L323,345.3 C323,338.8 319.6,332.7 314,329.4 L59.3,178.3 C54.3,175.4 46.7,173.6 41.4,175.7 L9.2,190.2 C6.6,191.2 5.6,194.4 7.3,196.7 L287.1,584.8 Z" id="Path" fill="url(#linearGradient-6)"></path>
            <path d="M282.5,588 L313.3,568.2 C314.6,567.4 314.9,565.4 314.9,563.9 L314.9,348.4 C314.9,341.9 311.5,335.8 305.9,332.5 L51.2,181.4 C46.2,178.5 39.7,176.1 34.3,178.2 L6.5,189.3 C3.9,190.3 9.1,195.4 10.7,197.7 L282.5,588 Z" id="Path" fill="#52FCFF"></path>
            <path d="M292.5,354.5 L341,325.2 C341,325.2 344,328.7 344,334 L344,334 L344,546.9 C344,548.2 343.3,549.4 342.2,550.1 L306.5,572.5 L292.5,354.5 Z" id="Path" fill="url(#linearGradient-7)" opacity="0.5"></path>
            <path d="M87.2,141.2 C87.2,141.2 75.7,136.5 63.7,135.5 C39.3,133.5 -1.7,140 0.8,192.2 L29.7,187.7 L37.7,189.4 C-7.3,163.6 55.4,138.4 84.3,154.4 L102.8,150.2 L87.2,141.2 Z" id="Path" fill="#17D1AA"></path>
            <path d="M283.1,605.9 L300.3,596.2 C304.2,594 306.6,589.7 306.4,585.2 L306.4,361.9 C306.4,361.9 306.5,344.7 288.1,334.5 C270.7,324.8 24.9,182.2 24.9,182.2 C24.9,182.2 2.8,174.1 1.5,197.7 C0.2,221.3 2.3,435.6 2.3,435.6 L283.1,605.9 Z" id="Path" fill="#17D1AA"></path>
            <path d="M283.1,605.9 L300.3,596.2 C304.2,594 306.6,589.7 306.4,585.2 L306.4,361.9 C306.4,361.9 306.5,344.7 288.1,334.5 C270.7,324.8 254.1,314.8 254.1,314.8 C254.1,314.8 232,306.7 230.7,330.3 C229.4,353.9 232,578 232,578 L283.1,605.9 Z" id="Path" fill="url(#linearGradient-8)"></path>
            <path d="M276.2,605.1 L12.7,453.8 C6.1,450 0.7,439.8 0.7,431.1 L0.7,202.7 C-0.1,183.3 1.2,177.8 1.2,177.8 C1.2,177.8 2.8,185 8,189.9 C9.7,191.5 16.6,196.1 19.1,197.5 L276.1,345.1 C282.7,348.9 288.101367,359.1 288.101367,367.8 L288.101367,596.2 C288.2,604.9 282.8,608.9 276.2,605.1 Z" id="Path" fill="url(#linearGradient-9)"></path>
            <g id="Group" transform="translate(138.000000, 121.000000)">
                <path d="M21,36.5 C21,65.8 40.9,99.2 65.4,111 C73.3,114.8 80.7,115.9 87.1,114.8 L86.7,117.8 L95.5,111.6 C96.3,111.1 97.1,110.5 97.9,109.9 L98,109.8 L98,109.8 C105.3,103.9 109.8,93.4 109.8,79.5 C109.8,50.2 89.9,16.8 65.4,5 C53.6,-0.7 42.9,-0.4 35,4.7 L35,4.7 L34.7,4.9 C34.4,5.1 34,5.4 33.7,5.6 L24.7,11.8 L28.5,10.6 C23.8,16.8 21,25.6 21,36.5 Z M41.1,46.3 C41.1,30.3 52,22.6 65.4,29.1 C78.8,35.6 89.7,53.9 89.7,69.9 C89.7,85.9 78.8,93.6 65.4,87.1 C52,80.6 41.1,62.3 41.1,46.3 Z" id="Shape" fill="url(#linearGradient-10)"></path>
                <path d="M10.9,43.6 C10.9,72.9 30.8,106.3 55.3,118.1 C79.8,130 99.7,115.9 99.7,86.6 C99.7,57.3 79.8,23.9 55.3,12.1 C30.8,0.2 10.9,14.3 10.9,43.6 Z M31,53.3 C31,37.3 41.9,29.6 55.3,36.1 C68.7,42.6 79.6,60.9 79.6,76.9 C79.6,92.9 68.7,100.6 55.3,94.1 C41.9,87.6 31,69.3 31,53.3 Z" id="Shape" fill="#17D1AA"></path>
                <path d="M55.3,12.5 C30.8,0.6 10.9,14.7 10.9,44 C10.9,73.3 30.8,106.7 55.3,118.5 C79.8,130.4 99.7,116.3 99.7,87 C99.7,57.7 79.8,24.4 55.3,12.5 Z M55.3,94.6 C41.9,88.1 31,69.8 31,53.8 C31,37.8 41.9,30.1 55.3,36.6 C68.7,43.1 79.6,61.4 79.6,77.4 C79.6,93.4 68.7,101.1 55.3,94.6 Z" id="Shape" fill="#163FA5"></path>
                <ellipse id="Oval" fill="#52FCFF" opacity="0.7" transform="translate(55.307660, 65.113420) rotate(-27.859144) translate(-55.307660, -65.113420) " cx="55.30766" cy="65.11342" rx="33.4000351" ry="53.6000563"></ellipse>
            </g>
            <g id="Group" transform="translate(169.000000, 152.000000)" fill="#1D45BA">
                <path d="M40.2,71.5 L31.9,42.9 L10.5,29.8 C8.1,35.8 5,43.1 2.4,49.2 C2.2,49.6 1.7,49.6 1.1,49.3 C0.3,48.8 0.1,48.5 0.1,47.7 L0.1,47.4 L18.9,2.1 C19.4,1 20.9,0.2 22.2,0.9 C23.7,1.8 24.3,3.4 24.7,5.2 L42.7,69.9 C43.1,71.1 43.6,72.9 42.5,73.1 C41.2,73.7 40.4,72.5 40.2,71.5 Z M22.5,8.1 C21.6,5.1 20.9,4.3 20.2,6.2 L11.6,27.7 L31.1,39.6 L22.5,8.1 Z" id="Shape"></path>
                <path d="M42.3,49.7 L1.2,24.5 C0.8,24.2 0.4,23.6 0.4,23.1 L0.4,21.8 C0.4,21.3 0.7,21 1.2,21.3 L42.3,46.5 C42.7,46.8 43.1,47.4 43.1,47.9 L43.1,49.2 C43.1,49.7 42.8,49.9 42.3,49.7 Z" id="Path"></path>
                <path d="M38.6,36.3 L4.9,15.7 C4.5,15.4 4.1,14.8 4.1,14.3 L4.1,13 C4.1,12.5 4.4,12.2 4.9,12.5 L38.6,33.1 C39,33.4 39.4,34 39.4,34.5 L39.4,35.8 C39.4,36.3 39,36.5 38.6,36.3 Z" id="Path"></path>
            </g>
            <path d="M384.7,381.9 L375,378.7 L375.3,381.9 L288.2,431 L264.6,418.1 C264.6,418.1 244.9,410.3 230,432.7 L288,444.5 L384.7,381.9 Z" id="Path" fill="#52FCFF"></path>
            <path d="M288.2,510.1 L251,489.5 C235.5,480.9 225.8,464.5 225.8,446.8 L225.8,446.8 C225.8,427.3 246.7,415 263.8,424.4 L288.2,437.9 L288.2,510.1 Z" id="Path" fill="url(#linearGradient-11)"></path>
            <path d="M274.5,464 C274.5,472.3 268,476.6 259.9,473.5 C251.8,470.4 245.3,461.1 245.3,452.8 C245.3,444.5 251.8,440.2 259.9,443.3 C268,446.4 274.5,455.7 274.5,464 Z" id="Path" fill="url(#linearGradient-12)"></path>
            <polygon id="Path" fill="url(#linearGradient-13)" points="384.7 454.1 288.2 510.2 288.2 438 384.7 381.9"></polygon>
            <g id="svg_16_2_" transform="translate(30.000000, 273.000000)" fill="#52FCFF">
                <g id="svg_9_2_" transform="translate(0.095160, -0.000280)">
                    <g id="svg_10_3_">
                        <g id="svg_11_3_">
                            <g id="svg_12_3_">
                                <g id="svg_13_3_">
                                    <path d="M86.476104,173.904588 L74.857068,164.952216 L74.666592,164.190312 L67.428504,139.04748 L58.476132,120.380832 L58.285656,119.809404 L54.095184,86.857056 L35.619012,80.571348 L1.333332,22.85712 L32.190444,0.571428 L36.952344,6.285708 L21.90474,29.904732 L37.333296,54.476136 L50.47614,56.571372 L80.761824,73.142784 L96.380856,97.14276 L96.380856,181.523628 L92.190384,178.285536 C92.190384,180.190296 92.952288,182.285532 94.28562,184.380768 C95.618952,186.476004 97.333236,188.190288 99.237996,189.333144 C101.142756,190.476 102.85704,190.856952 104.190372,190.285524 C105.523704,189.714096 106.285608,188.57124 106.285608,186.66648 L102.476088,184.952196 L102.476088,100.571328 L118.09512,95.428476 L147.999852,115.428456 L161.523648,129.714156 L176.952204,123.999876 L161.9046,81.90468 L166.6665,81.90468 L197.523612,141.90462 L163.047456,157.904604 L144.571284,141.714144 L140.380812,169.52364 L140.190336,169.904592 L131.42844,177.523632 L123.8094,194.475996 L111.809412,189.142668 C111.809412,189.52362 111.809412,189.714096 111.809412,190.095048 C111.809412,193.523616 110.47608,195.809328 107.999892,196.761708 C105.71418,197.714088 102.476088,197.14266 99.04752,195.047424 C95.618952,192.952188 92.38086,189.714096 90.095148,185.904576 C87.809436,182.095056 86.285628,178.09506 86.285628,174.666492 C86.476104,174.666492 86.476104,174.28554 86.476104,173.904588 Z M183.80934,129.904632 L162.666504,137.714148 L146.66652,120.761784 L119.99988,103.047516 L107.999892,106.857036 L107.999892,181.90458 L119.428452,187.047432 L126.095112,172.190304 L134.666532,164.76174 L136.952244,149.904612 L117.904644,142.285572 L117.904644,152.3808 L112.190364,148.761756 L112.190364,133.904628 L137.904624,144.190332 L139.809384,131.809392 L161.142696,150.666516 L189.904572,137.333196 L178.856964,115.618932 C178.666488,115.809408 183.80934,129.904632 183.80934,129.904632 Z M37.523772,75.428496 L58.857084,82.666584 L60.761844,97.523712 L86.095152,118.285596 L86.095152,133.142724 L80.380872,129.52368 L80.380872,119.428452 L61.714224,104.190372 L63.999936,121.523688 L72.761832,139.809384 L79.428492,162.476028 L90.857052,171.237924 L90.857052,96.19038 L78.857064,77.714208 L52.190424,63.047556 L36.19044,60.380892 L15.047604,26.857124 L20.190456,18.857124 L9.142848,26.857124 C8.761896,27.047592 37.523772,75.428496 37.523772,75.428496 Z" id="svg_14_3_"></path>
                                </g>
                            </g>
                        </g>
                    </g>
                </g>
            </g>
        </g>
    </g>
</svg>