<svg width="135" height="105" xmlns="http://www.w3.org/2000/svg">
 <!-- Created with Method Draw - http://github.com/duopixel/Method-Draw/ -->
 <defs>
  <linearGradient y2="0" x2="1" y1="1" x1="0" id="svg_18">
   <stop offset="0" stop-opacity="0.996094" stop-color="#17d1aa"/>
   <stop offset="1" stop-opacity="0.996094" stop-color="#1a80b3"/>
  </linearGradient>
 </defs>
 <g>
  <title>background</title>
  <rect fill="#fff" id="canvas_background" height="107" width="137" y="-1" x="-1"/>
  <g display="none" overflow="visible" y="0" x="0" height="100%" width="100%" id="canvasGrid">
   <rect fill="url(#gridpattern)" stroke-width="0" y="0" x="0" height="100%" width="100%"/>
  </g>
 </g>
 <g>
  <title>Layer 1</title>
  <!-- Generator: Sketch 51.1 (57501) - http://www.bohemiancoding.com/sketch -->
  <desc>Created with Sketch.</desc>

  <g id="svg_16">
   <g transform="matrix(1.90476, 0, 0, 1.90476, 0, 0)" fill-rule="evenodd" fill="none" id="svg_9">
    <g fill-rule="nonzero" fill="#DAA49A" id="svg_10">
     <g id="svg_11">
      <g id="svg_12">
       <g id="svg_13">
        <path fill="url(#svg_18)" id="svg_14" d="m30.808014,49.978252l-4.142212,-0.676971l-0.074951,-0.212799l-2.584442,-7.375702l-3.193573,-4.705078l-0.062317,-0.162689l-1.477341,-10.850096l-6.570283,1.769806l-12.308121,-13.194581l11.03508,-14.704468l1.706635,1.01416l-5.401512,11.751434l5.518943,5.379426l4.705567,-2.107606l10.84227,-0.665649l5.558197,5.193055l0,30.128225l-1.494614,-0.244255c-0.000061,0.684105 0.260818,1.30114 0.720428,1.758568c0.46283,0.458679 1.079651,0.718414 1.744003,0.718414c0.663788,0 1.278534,-0.259277 1.741241,-0.717865c0.458588,-0.456421 0.718307,-1.072266 0.718887,-1.737785l-1.3647,0.222893l0,-30.128347l5.564865,-5.192903l10.705093,0.633148l4.838287,2.140138l5.521042,-5.379487l-5.403687,-11.751373l1.70665,-1.01416l11.037323,14.704437l-12.310364,13.194581l-6.570251,-1.769806l-1.477356,10.850096l-0.062164,0.162476l-3.145264,4.61795l-2.70575,7.675903l-4.274811,0.698181c0.008133,0.11087 0.012207,0.22229 0.012207,0.334045c0,1.216606 -0.483826,2.359398 -1.325912,3.203514c-0.838913,0.843384 -1.988022,1.328583 -3.205338,1.328583c-1.219757,0 -2.36467,-0.483704 -3.207138,-1.328186c-0.843338,-0.845398 -1.328476,-1.988312 -1.328476,-3.203911c0,-0.118958 0.004623,-0.237488 0.013855,-0.355316zm34.738953,-36.884398l-7.571594,7.379609l-5.71048,-2.553711l-9.512833,-0.56192l-4.257919,3.970947l0,26.792936l4.085907,-0.664063l2.396545,-6.768372l3.064835,-4.5177l0.785507,-5.777159l-6.83165,1.442627l0,3.625761l-2.073303,0l0,-5.307737l9.20166,-1.940125l0.659149,-4.830536l7.641403,2.056549l10.273804,-11.013368l-3.973877,-5.296753l1.822845,3.963013zm-52.179505,12.347108l7.641709,-2.05661l0.66124,4.869904l9.011688,1.900848l0,5.307707l-2.068939,0l0,-3.625822l-6.648148,-1.405334l0.783081,5.740294l3.108917,4.604706l2.352875,6.681061l4.085495,0.664001l0,-26.792936l-4.257919,-3.970947l-9.514954,0.56192l-5.706086,2.553741l-7.573883,-7.379579l1.822845,-3.963074l-3.973862,5.296722l10.27594,11.013398z"/>
       </g>
      </g>
     </g>
    </g>
   </g>
  </g>
 </g>
</svg>