<?xml version="1.0" encoding="UTF-8"?>
<svg width="20px" height="20px" viewBox="0 0 20 20" version="1.1" xmlns="http://www.w3.org/2000/svg" xmlns:xlink="http://www.w3.org/1999/xlink">
    <!-- Generator: sketchtool 60 (101010) - https://sketch.com -->
    <title>40173F6D-1351-4F8E-9F0E-BDA0EC098816</title>
    <desc>Created with sketchtool.</desc>
    <g id="Asset-Artboard-Page" stroke="none" stroke-width="1" fill="none" fill-rule="evenodd">
        <g id="icon-/-arrow-down" fill="#8A92A3" fill-rule="nonzero">
            <path d="M14.254928,2.22035517 C13.9619775,1.93571438 13.4759972,1.92548742 13.1694606,2.19751261 C13.1569749,2.20876136 13.1569749,2.20876136 13.1448609,2.22035517 L5.75740576,9.39825985 C5.41419808,9.7317322 5.41419808,10.2568989 5.75740576,10.5903712 L13.1579092,17.7809542 C13.4491191,18.0639036 13.9322118,18.0740698 14.2369269,17.803661 C14.247013,17.7946 14.247013,17.7946 14.2568567,17.7853122 C14.5747722,17.4816502 14.5817865,17.0002486 14.2728348,16.688711 L7.68595362,10.0466973 C7.60314401,9.9631946 7.60421099,9.8343815 7.68839406,9.75207145 L14.2568002,3.32980827 C14.5749623,3.0187251 14.5741384,2.53051096 14.254928,2.22035517 Z" id="Combined-Shape-Copy-16" transform="translate(10.000000, 10.000000) scale(1, -1) rotate(90.000000) translate(-10.000000, -10.000000) "></path>
        </g>
    </g>
</svg>