<svg width="38" height="38" xmlns="http://www.w3.org/2000/svg"><g fill="none" fill-rule="evenodd"><circle cx="19" cy="19" r="19" fill="#A7AFC0"/><path d="M24.83 10.404c.363.28.59.676.637 1.105l.009.161v.87h1.144c1.204 0 2.204.88 2.359 2.016l.016.156.005.153v9.81c0 1.232-.985 2.241-2.224 2.32L26.62 27H11.38c-1.26 0-2.294-.96-2.375-2.172L9 24.676v-9.811c0-1.232.985-2.24 2.224-2.32l.156-.004.907.007 10.868-2.495a2.017 2.017 0 011.675.35zm1.79 3.455H11.38c-.535 0-.975.394-1.032.897l-.006.109v9.81c0 .517.405.946.925 1l.113.007h15.24c.535 0 .975-.395 1.032-.897l.006-.11v-9.81c0-.553-.465-1.006-1.038-1.006zM19.203 17L21 18.785 15.797 24H14v-1.785L19.203 17zm1.728-1.847a.506.506 0 01.724 0l1.19 1.17a.486.486 0 010 .71l-.88.967L20 16.068zm2.628-3.831l-.098.015-5.247 1.203h5.919v-.87a.265.265 0 00-.078-.18l-.054-.05a.641.641 0 00-.442-.118z" fill="#FFF" fill-rule="nonzero"/></g></svg>