<?xml version="1.0" encoding="UTF-8"?>
<svg xmlns="http://www.w3.org/2000/svg" width="38" height="38">
   <g fill="none" fill-rule="evenodd">
      <rect fill="#F0F3F5" width="38" height="38" rx="8" />
      <g fill="#464749" fill-rule="nonzero">
         <g id="_2754648844320" stroke="null">
         <path class="fil0 str0" d="M19.120149923294974,30.72541084911409 C19.03733496362848,30.72541084911409 18.953641959118684,30.709285485880475 18.87583046133713,30.678121862552597 L11.013120073291422,27.521564588048307 C10.851838566515829,27.457063135113856 10.722584790691696,27.33086161041173 10.655031086635242,27.170458148479455 L7.326948448849994,19.378576711127973 C7.292732574400109,19.298368011551972 7.275074116995624,19.213364908387057 7.274210009372044,19.127929751410356 L7.274210009372044,19.11987403840342 C7.274419067668071,19.03726813703296 7.290335372605658,18.9546622356625 7.322154045261089,18.875777571961336 L10.478488324249614,11.013262304991922 C10.5430037144038,10.851771739920304 10.669191301886192,10.722517964096168 10.829594763818468,10.654964260039714 L18.621490138389685,7.3271046177702335 C18.701684900745956,7.292888743320348 18.787120057722653,7.275439344211891 18.872569151919095,7.274575236588311 L18.88454122367162,7.274575236588311 C18.965837026386975,7.275453281431628 19.047355824618084,7.291355649149477 19.124080219260296,7.3220872186655654 L26.986790607306002,10.47842149765409 C27.14829510959736,10.54315988332404 27.277325889905722,10.669124475290667 27.345102589477946,10.829527937222943 L30.673185227263193,18.620545266950845 C30.7413939806472,18.781171724398884 30.74356818692589,18.960766737906514 30.677979630852096,19.123135347821453 L27.521645351863565,26.985859673086892 C27.45690696619362,27.147141179862487 27.330942374226996,27.276381018466886 27.170524975074986,27.344171655258837 L19.379298587051053,30.672017360308587 C19.295605582541253,30.708198382741138 19.207773223770097,30.72542478633383 19.120149923294974,30.72542478633383 L19.120149923294974,30.72541084911409 zM11.755012217015208,26.406531260354342 L19.113181313427376,29.36017655273403 L26.40466081340667,26.24635079393783 L29.359170213409943,18.88795870200989 L26.245330517394006,11.596479202030597 L18.887161420981833,8.641969802027326 L11.593507714723852,11.757119596698374 L8.639862422344162,19.11506569759478 L11.754998279795474,26.406531260354342 L11.755012217015208,26.406531260354342 z" id="svg_1" stroke="null"></path><polygon class="fil0" points="20.691784858703613,18.873136520385742 17.540900230407715,22.343318939208984 22.50664234161377,22.343318939208984 22.50664234161377,23.838882446289062 15.49327278137207,23.838882446289062 15.49327278137207,22.343318939208984 18.61538600921631,18.887306213378906 15.507655143737793,15.64902114868164 15.507655143737793,14.153674125671387 22.50664234161377,14.153674125671387 22.50664234161377,15.64902114868164 17.613472938537598,15.64902114868164 " id="svg_2" stroke="null"></polygon>
		 </g>
      </g>
   </g>
</svg>