<svg width="38" height="38" xmlns="http://www.w3.org/2000/svg"><g fill="none" fill-rule="evenodd"><rect fill="#F0F3F5" width="38" height="38" rx="8"/><path d="M26.21 20.434c0-.387-.35-.659-.737-.659H23.38l-.582-1.434h1.318c.388 0 .737-.271.737-.659a.695.695 0 00-.698-.698h-1.9l-2.402-5.891a.679.679 0 00-.66-.426c-.27 0-.542.193-.658.426l-2.287 5.853h-1.86c-.388 0-.737.271-.737.659 0 .387.31.697.698.697h1.356l-.581 1.434H13.07c-.388 0-.737.272-.737.66 0 .387.31.697.698.697h1.59l-1.861 4.845c-.155.349.038.736.387.891a.492.492 0 00.233.04.716.716 0 00.659-.427l2.054-5.271h6.28l2.13 5.31a.679.679 0 00.66.426c.077 0 .155 0 .271-.039.349-.155.543-.542.388-.891l-1.938-4.806h1.589c.426-.04.775-.35.736-.737zm-6.977-7.21l1.511 3.722H17.76l1.473-3.721zm-2.559 6.551l.582-1.434h4.03l.582 1.434h-5.194z" fill="#464749" fill-rule="nonzero"/></g></svg>