<svg width="38" height="38" xmlns="http://www.w3.org/2000/svg"><g fill="none" fill-rule="evenodd"><circle cx="19" cy="19" r="19" fill="#A7AFC0"/><path d="M24.306 10c.888 0 1.61.585 1.687 1.34l.007.134v10.14a1.72 1.72 0 01-.17.682l-.087.156-2.983 4.377s-.804 1.044-1.749 1.16l-.168.011h-3.746c-.91 0-1.754-.995-1.922-1.205l-.03-.038-2.9-4.287a1.46 1.46 0 01-.24-.687L12 21.636V11.474c0-.775.67-1.4 1.537-1.468l.155-.006h10.614zm0 1.3H13.692c-.223 0-.351.084-.384.146l-.008.028v10.184l.006.046.017.037 2.86 4.234c.066.087.215.255.405.418.203.176.381.276.472.3l.037.007h3.746c.082 0 .28-.095.509-.286a3.51 3.51 0 00.202-.183l.132-.135 2.952-4.327a.538.538 0 00.045-.093l.017-.062v-10.14c0-.049-.099-.142-.29-.167l-.104-.007zM22.714 13c.154 0 .286.199.286.437v5.126c0 .238-.13.437-.286.437h-7.423c-.154 0-.286-.199-.286-.437v-5.126a.407.407 0 01.06-.286.336.336 0 01.226-.151h7.423zM21.7 14.3h-5.395v3.4H21.7v-3.4z" fill="#FFF" fill-rule="nonzero"/></g></svg>