<?xml version="1.0" encoding="UTF-8"?>
<svg width="182px" height="118px" viewBox="0 0 182 118" version="1.1" xmlns="http://www.w3.org/2000/svg" xmlns:xlink="http://www.w3.org/1999/xlink">
    <!-- Generator: Sketch 60 (88103) - https://sketch.com -->
    <title>Advanced level</title>
    <desc>Created with Sketch.</desc>
    <defs>
        <linearGradient x1="99.9406593%" y1="120.567042%" x2="99.9406593%" y2="21.2708937%" id="linearGradient-1">
            <stop stopColor="#17D1AA" offset="0%"></stop>
            <stop stopColor="#1AC2AE" offset="7%"></stop>
            <stop stopColor="#229BB8" offset="27%"></stop>
            <stop stopColor="#297CC0" offset="46%"></stop>
            <stop stopColor="#2D66C6" offset="65%"></stop>
            <stop stopColor="#3059CA" offset="83%"></stop>
            <stop stopColor="#3154CB" offset="100%"></stop>
        </linearGradient>
        <linearGradient x1="0.000186310752%" y1="49.9960239%" x2="99.968878%" y2="49.9960239%" id="linearGradient-2">
            <stop stopColor="#17D1AA" offset="0%"></stop>
            <stop stopColor="#1AC2AE" offset="7%"></stop>
            <stop stopColor="#229BB8" offset="27%"></stop>
            <stop stopColor="#297CC0" offset="46%"></stop>
            <stop stopColor="#2D66C6" offset="65%"></stop>
            <stop stopColor="#3059CA" offset="83%"></stop>
            <stop stopColor="#3154CB" offset="100%"></stop>
        </linearGradient>
        <radialGradient cx="51.1656663%" cy="87.4617716%" fx="51.1656663%" fy="87.4617716%" r="94.4982266%" gradientTransform="translate(0.511657,0.874618),scale(0.580350,1.000000),translate(-0.511657,-0.874618)" id="radialGradient-3">
            <stop stopColor="#17D1AA" offset="0%"></stop>
            <stop stopColor="#1AC2AE" offset="7%"></stop>
            <stop stopColor="#229BB8" offset="27%"></stop>
            <stop stopColor="#297CC0" offset="46%"></stop>
            <stop stopColor="#2D66C6" offset="65%"></stop>
            <stop stopColor="#3059CA" offset="83%"></stop>
            <stop stopColor="#3154CB" offset="100%"></stop>
        </radialGradient>
        <linearGradient x1="50%" y1="2006.93966%" x2="50%" y2="2106.94684%" id="linearGradient-4">
            <stop stopColor="#3154CB" offset="0%"></stop>
            <stop stopColor="#3059CA" offset="17%"></stop>
            <stop stopColor="#2D66C6" offset="35%"></stop>
            <stop stopColor="#297CC0" offset="54%"></stop>
            <stop stopColor="#229BB8" offset="73%"></stop>
            <stop stopColor="#1AC2AE" offset="93%"></stop>
            <stop stopColor="#17D1AA" offset="100%"></stop>
        </linearGradient>
        <radialGradient cx="51.1695063%" cy="87.4765292%" fx="51.1695063%" fy="87.4765292%" r="94.4938822%" gradientTransform="translate(0.511695,0.874765),scale(0.580421,1.000000),translate(-0.511695,-0.874765)" id="radialGradient-5">
            <stop stopColor="#17D1AA" offset="0%"></stop>
            <stop stopColor="#1AC2AE" offset="7%"></stop>
            <stop stopColor="#229BB8" offset="27%"></stop>
            <stop stopColor="#297CC0" offset="46%"></stop>
            <stop stopColor="#2D66C6" offset="65%"></stop>
            <stop stopColor="#3059CA" offset="83%"></stop>
            <stop stopColor="#3154CB" offset="100%"></stop>
        </radialGradient>
        <linearGradient x1="0.000186359149%" y1="49.9832241%" x2="99.9998136%" y2="49.9832241%" id="linearGradient-6">
            <stop stopColor="#17D1AA" offset="0%"></stop>
            <stop stopColor="#1AC2AE" offset="7%"></stop>
            <stop stopColor="#229BB8" offset="27%"></stop>
            <stop stopColor="#297CC0" offset="46%"></stop>
            <stop stopColor="#2D66C6" offset="65%"></stop>
            <stop stopColor="#3059CA" offset="83%"></stop>
            <stop stopColor="#3154CB" offset="100%"></stop>
        </linearGradient>
        <linearGradient x1="50%" y1="100%" x2="50%" y2="-0.00718390805%" id="linearGradient-7">
            <stop stopColor="#3154CB" offset="0%"></stop>
            <stop stopColor="#3059CA" offset="17%"></stop>
            <stop stopColor="#2D66C6" offset="35%"></stop>
            <stop stopColor="#297CC0" offset="54%"></stop>
            <stop stopColor="#229BB8" offset="73%"></stop>
            <stop stopColor="#1AC2AE" offset="93%"></stop>
            <stop stopColor="#17D1AA" offset="100%"></stop>
        </linearGradient>
        <linearGradient x1="0.685560861%" y1="46.964069%" x2="99.3157791%" y2="53.0075936%" id="linearGradient-8">
            <stop stopColor="#17D1AA" offset="0%"></stop>
            <stop stopColor="#1CB9B0" offset="23%"></stop>
            <stop stopColor="#297DC0" offset="70%"></stop>
            <stop stopColor="#3154CB" offset="100%"></stop>
        </linearGradient>
        <linearGradient x1="-0.0113564356%" y1="49.9965664%" x2="100.011356%" y2="49.9965664%" id="linearGradient-9">
            <stop stopColor="#17D1AA" offset="0%"></stop>
            <stop stopColor="#1AC2AE" offset="7%"></stop>
            <stop stopColor="#229BB8" offset="27%"></stop>
            <stop stopColor="#297CC0" offset="46%"></stop>
            <stop stopColor="#2D66C6" offset="65%"></stop>
            <stop stopColor="#3059CA" offset="83%"></stop>
            <stop stopColor="#3154CB" offset="100%"></stop>
        </linearGradient>
        <linearGradient x1="-0.0113653238%" y1="50.0008221%" x2="100.08963%" y2="50.0008221%" id="linearGradient-10">
            <stop stopColor="#17D1AA" offset="0%"></stop>
            <stop stopColor="#1AC2AE" offset="7%"></stop>
            <stop stopColor="#229BB8" offset="27%"></stop>
            <stop stopColor="#297CC0" offset="46%"></stop>
            <stop stopColor="#2D66C6" offset="65%"></stop>
            <stop stopColor="#3059CA" offset="83%"></stop>
            <stop stopColor="#3154CB" offset="100%"></stop>
        </linearGradient>
        <linearGradient x1="0.684230042%" y1="46.9638329%" x2="99.31577%" y2="53.0075168%" id="linearGradient-11">
            <stop stopColor="#17D1AA" offset="0%"></stop>
            <stop stopColor="#1CB9B0" offset="23%"></stop>
            <stop stopColor="#297DC0" offset="70%"></stop>
            <stop stopColor="#3154CB" offset="100%"></stop>
        </linearGradient>
        <linearGradient x1="0.00638116537%" y1="49.9644891%" x2="99.9936188%" y2="49.9644891%" id="linearGradient-12">
            <stop stopColor="#17D1AA" offset="0%"></stop>
            <stop stopColor="#1AC2AE" offset="7%"></stop>
            <stop stopColor="#229BB8" offset="27%"></stop>
            <stop stopColor="#297CC0" offset="46%"></stop>
            <stop stopColor="#2D66C6" offset="65%"></stop>
            <stop stopColor="#3059CA" offset="83%"></stop>
            <stop stopColor="#3154CB" offset="100%"></stop>
        </linearGradient>
        <linearGradient x1="0.00638116537%" y1="49.7343981%" x2="99.9936188%" y2="49.7343981%" id="linearGradient-13">
            <stop stopColor="#17D1AA" offset="0%"></stop>
            <stop stopColor="#1AC2AE" offset="7%"></stop>
            <stop stopColor="#229BB8" offset="27%"></stop>
            <stop stopColor="#297CC0" offset="46%"></stop>
            <stop stopColor="#2D66C6" offset="65%"></stop>
            <stop stopColor="#3059CA" offset="83%"></stop>
            <stop stopColor="#3154CB" offset="100%"></stop>
        </linearGradient>
        <linearGradient x1="-7.63788153%" y1="49.9115539%" x2="91.3726183%" y2="49.9115539%" id="linearGradient-14">
            <stop stopColor="#17D1AA" offset="0%"></stop>
            <stop stopColor="#1AC2AE" offset="7%"></stop>
            <stop stopColor="#229BB8" offset="27%"></stop>
            <stop stopColor="#297CC0" offset="46%"></stop>
            <stop stopColor="#2D66C6" offset="65%"></stop>
            <stop stopColor="#3059CA" offset="83%"></stop>
            <stop stopColor="#3154CB" offset="100%"></stop>
        </linearGradient>
        <linearGradient x1="-0.00315952305%" y1="50.0024496%" x2="100.001237%" y2="50.0024496%" id="linearGradient-15">
            <stop stopColor="#3154CA" offset="0%"></stop>
            <stop stopColor="#17D1AA" offset="100%"></stop>
        </linearGradient>
        <linearGradient x1="49.9919833%" y1="78.2430116%" x2="49.9919833%" y2="-34.8078157%" id="linearGradient-16">
            <stop stopColor="#1D45BA" offset="0%"></stop>
            <stop stopColor="#1D47BA" offset="42%"></stop>
            <stop stopColor="#1D4EB9" offset="57%"></stop>
            <stop stopColor="#1C59B8" offset="68%"></stop>
            <stop stopColor="#1B6AB6" offset="77%"></stop>
            <stop stopColor="#1A80B3" offset="84%"></stop>
            <stop stopColor="#199CB0" offset="91%"></stop>
            <stop stopColor="#18BBAD" offset="97%"></stop>
            <stop stopColor="#17D1AA" offset="100%"></stop>
        </linearGradient>
        <linearGradient x1="106.683045%" y1="117.458354%" x2="106.683045%" y2="18.5176796%" id="linearGradient-17">
            <stop stopColor="#17D1AA" offset="0%"></stop>
            <stop stopColor="#1AC2AE" offset="7%"></stop>
            <stop stopColor="#229BB8" offset="27%"></stop>
            <stop stopColor="#297CC0" offset="46%"></stop>
            <stop stopColor="#2D66C6" offset="65%"></stop>
            <stop stopColor="#3059CA" offset="83%"></stop>
            <stop stopColor="#3154CB" offset="100%"></stop>
        </linearGradient>
    </defs>
    <g id="Advanced-level" stroke="none" stroke-width="1" fill="none" fillRule="evenodd">
        <g>
            <g id="grid" opacity="0.2" transform="translate(8.307692, 22.498356)" stroke="#1D45BA" stroke-width="0.5">
                <path d="M58.0153846,93.3759369 L170.46,28.3898225 M15.3,61.0248521 L120.216923,0.367731755 M59.5384615,2.69514793 L160.070769,60.7874556 M0.152307692,37.1409073 L99.4846154,94.4930966" id="Combined-Shape"></path>
            </g>
            <path d="M60.6046154,1.94571992 C60.6046154,0.502721893 61.4815385,-0.148954635 62.5430769,0.45617357 L62.5430769,0.45617357 L62.82,0.642366864 C63.8815385,1.24749507 64.7584615,2.92323471 64.8046154,4.42209073 L64.8046154,4.42209073 L64.8046154,75.8691124 C64.8046154,77.3167653 62.5430769,77.1724655 62.5430769,77.1724655 C61.4815385,76.520789 60.6046154,74.8450493 60.6046154,73.4020513 L60.6046154,73.4020513 Z M68.4553846,20.1042209 C68.4553846,18.6612229 69.3323077,18.0095464 70.3938462,18.6146746 L70.3938462,18.6146746 L70.6707692,18.8008679 C71.7784615,19.4059961 72.6553846,21.128284 72.6553846,22.5759369 L72.6553846,22.5759369 L72.6553846,71.2608284 C72.6553846,72.7038264 70.3938462,72.5641815 70.3938462,72.5641815 C69.3323077,71.9125049 68.4553846,71.633215 68.4553846,70.190217 L68.4553846,70.190217 Z" id="Combined-Shape" fill="url(#linearGradient-1)" fillRule="nonzero" opacity="0.300000012"></path>
            <g id="1" transform="translate(40.926119, 48.468364)" fillRule="nonzero">
                <path d="M45.1692652,55.2568359 C44.4541601,55.2524841 43.7525652,55.0599422 43.1338805,54.6982364 L1.45695747,30.6280984 C0.982922478,30.3056705 0.699861244,29.7664056 0.699861244,29.1897552 C0.691569678,28.6274444 0.994019403,28.107091 1.48464978,27.8398538 L47.1769575,1.25610627 C48.4134398,0.510885488 49.9558598,0.510885488 51.1923421,1.25610627 L92.8461882,25.4146861 C93.3220961,25.6970233 93.6190124,26.2078566 93.6308036,26.7645875 C93.679935,27.3552716 93.4168612,27.9283678 92.9384959,28.2727532 L47.1538805,54.6982364 C46.5561983,55.0657354 45.8692617,55.2590771 45.1692652,55.2568359 Z" id="Path" fill="url(#linearGradient-2)" opacity="0.25"></path>
                <path d="M45.695419,46.3707414 L17.7723421,30.1253765 C16.6323421,29.4830096 16.7708036,28.3379209 18.0908036,27.555909 L45.3815729,11.7341339 C46.7061882,10.952122 48.6677267,10.9055737 49.8077267,11.5479406 L77.7308036,27.7467572 C78.8708036,28.389124 78.7369575,29.5388676 77.4123421,30.3208794 L50.1261882,46.1473094 C48.8015729,46.9200116 46.7938805,47.0131082 45.695419,46.3707414 Z" id="Path" fill="url(#radialGradient-3)"></path>
                <path d="M17.7723421,30.1253765 L20.2369575,31.5497552 L45.3815729,16.9568558 C46.7061882,16.1748439 48.6677267,16.1282956 49.8077267,16.7706625 L75.2661882,31.5497552 L77.4123421,30.3115698 C78.7369575,29.5295579 78.8708036,28.4496368 77.7308036,27.7374475 L49.8077267,11.5386309 C48.6677267,10.8962641 46.7061882,10.9428124 45.3815729,11.7248242 L18.095419,27.5512542 C16.7661882,28.3379209 16.6323421,29.4830096 17.7723421,30.1253765 Z" id="Path" fill="#2C30D1"></path>
            </g>
            <path d="M58.4723077,77.5138199 L58.4723077,77.5138199 C58.2428971,77.5138199 58.0569231,77.3262563 58.0569231,77.0948849 L58.0569231,13.1374885 C58.0569231,12.9061171 58.2428971,12.7185536 58.4723077,12.7185536 L58.4723077,12.7185536 C58.5824745,12.7185536 58.6881292,12.7626912 58.766029,12.8412568 C58.8439287,12.9198223 58.8876923,13.02638 58.8876923,13.1374885 L58.8876923,77.0948849 C58.8876923,77.2059934 58.8439287,77.3125511 58.766029,77.3911167 C58.6881292,77.4696822 58.5824745,77.5138199 58.4723077,77.5138199 L58.4723077,77.5138199 Z" id="Path" fill="url(#linearGradient-4)" fillRule="nonzero" opacity="0.66"></path>
            <g id="2" transform="translate(41.801199, 19.653918)" fillRule="nonzero">
                <path d="M44.8203394,44.5889748 L16.8972625,28.3436099 C15.7572625,27.701243 15.895724,26.5561542 17.215724,25.7741424 L44.5018778,9.94771243 C45.8264932,9.16570059 47.7880317,9.1238071 48.9280317,9.76617397 L76.8511086,25.9649905 C77.9911086,26.6073574 77.8572625,27.7524462 76.5326471,28.534458 L49.2464932,44.360888 C47.9264932,45.138245 45.9188009,45.2313416 44.8203394,44.5889748 Z" id="Path" fill="url(#radialGradient-5)"></path>
                <path d="M16.8972625,28.3436099 L19.3618778,29.7679886 L44.5064932,15.1750892 C45.8311086,14.3930773 47.7926471,14.346529 48.9326471,14.9888959 L74.3911086,29.7679886 L76.5372625,28.5298032 C77.8618778,27.7477913 77.995724,26.6678702 76.855724,25.9603357 L48.9326471,9.76151913 C47.7926471,9.11915227 45.8311086,9.16104576 44.5064932,9.9430576 L17.2203394,25.7694876 C15.8911086,26.5561542 15.7572625,27.701243 16.8972625,28.3436099 Z" id="Path" fill="#2C30D1"></path>
                <path d="M44.4695701,54.5456785 C43.7558269,54.5420321 43.055545,54.3494138 42.4388009,53.9870813 L0.784954762,29.8424659 C0.30904686,29.5601287 0.0121306145,29.0492954 0.000166226203,28.4925645 C-0.00812533929,27.9302537 0.294324386,27.4099003 0.784954762,27.1426631 L46.4772625,0.558915583 C47.7137448,-0.186305194 49.2561648,-0.186305194 50.4926471,0.558915583 L92.1280317,24.7221503 C92.6039396,25.0044875 92.9008558,25.5153207 92.9128202,26.0720517 C92.9211118,26.6343625 92.6186621,27.1547159 92.1280317,27.4219531 L46.435724,54.0010458 C45.8416154,54.3594733 45.1618582,54.5477629 44.4695701,54.5456785 Z M48.4895701,1.48057239 C48.0330491,1.48252734 47.5858987,1.61137656 47.1972625,1.85295898 L1.5234163,28.4460162 C1.47726245,28.4925645 1.47726245,28.4925645 1.47726245,28.5856611 C1.47115559,28.6368294 1.48809001,28.6880669 1.5234163,28.7253061 L43.1772625,52.883886 L43.1772625,52.883886 C43.9934568,53.3493692 44.9918374,53.3493692 45.8080317,52.883886 L91.5003394,26.3047933 C91.5464932,26.258245 91.5464932,26.258245 91.5464932,26.1651483 C91.5526001,26.11398 91.5356657,26.0627426 91.5003394,26.0255034 L49.8280317,1.84830414 C49.4291517,1.59126969 48.9627005,1.4614937 48.4895701,1.47591756 L48.4895701,1.48057239 Z" id="Shape" fill="url(#linearGradient-6)"></path>
            </g>
            <path d="M118.966154,77.5138199 L118.966154,77.5138199 C118.736743,77.5138199 118.550769,77.3262563 118.550769,77.0948849 L118.550769,13.1374885 C118.550769,12.9061171 118.736743,12.7185536 118.966154,12.7185536 L118.966154,12.7185536 C119.195564,12.7185536 119.381538,12.9061171 119.381538,13.1374885 L119.381538,77.0948849 C119.381538,77.3262563 119.195564,77.5138199 118.966154,77.5138199 L118.966154,77.5138199 Z" id="Path" fill="url(#linearGradient-7)" fillRule="nonzero" opacity="0.66"></path>
            <g id="3" transform="translate(0.443077, 65.898795)">
                <path d="M35.2707692,9.39932475 L19.4676923,0.233959861 C18.9338748,-0.0779866204 18.275356,-0.0779866204 17.7415385,0.233959861 L0.415384615,10.3163267 C0.159707109,10.4538535 2.98427949e-12,10.7223071 2.98427949e-12,11.0145516 C2.98427949e-12,11.3067961 0.159707109,11.5752496 0.415384615,11.7127764 L16.2138462,20.8781413 C16.7498533,21.1880483 17.4086083,21.1880483 17.9446154,20.8781413 L35.2707692,10.7957745 C35.5237517,10.6561192 35.6810603,10.3884145 35.6810603,10.0975496 C35.6810603,9.80668468 35.5237517,9.53898005 35.2707692,9.39932475 L35.2707692,9.39932475 Z M34.5738462,10.0882399 L17.4738462,20.0402715 C17.2289158,20.17964 16.9295458,20.17964 16.6846154,20.0402715 L1.11230769,11.0052419 L18.2123077,1.05321035 C18.4572381,0.913841868 18.7566081,0.913841868 19.0015385,1.05321035 L34.5738462,10.0882399 Z" id="Shape" fill="url(#linearGradient-8)" fillRule="nonzero"></path>
                <path d="M17.0584615,17.112382 L6.33230769,10.8609421 C5.89846154,10.6095812 5.95384615,10.1673721 6.45230769,9.87411765 L16.9338462,3.77628728 C17.4548191,3.4820143 18.083303,3.45438027 18.6276923,3.70180996 L29.3538462,9.94394014 C29.7876923,10.1999559 29.7323077,10.642165 29.2338462,10.9307646 L18.7523077,17.0332498 C18.231456,17.3268362 17.6039934,17.3561496 17.0584615,17.112382 Z" id="Path" fill="url(#linearGradient-9)" fillRule="nonzero" opacity="0.66"></path>
                <path d="M17.0584615,17.112382 L6.33230769,10.8609421 C5.89846154,10.6095812 5.95384615,10.1673721 6.45230769,9.87411765 L16.9338462,3.77628728 C17.4548191,3.4820143 18.083303,3.45438027 18.6276923,3.70180996 L29.3538462,9.94394014 C29.7876923,10.1999559 29.7323077,10.642165 29.2338462,10.9307646 L18.7523077,17.0332498 C18.231456,17.3268362 17.6039934,17.3561496 17.0584615,17.112382 Z" id="Path" fill="url(#linearGradient-9)" fillRule="nonzero" opacity="0.5"></path>
                <path d="M6.33230769,10.8609421 L7.25538462,11.4102123 L16.9153846,5.78717485 C17.4354005,5.48837153 18.0667714,5.46234562 18.6092308,5.71735237 L28.3938462,11.4102123 L29.2153846,10.9447291 C29.7138462,10.6561295 29.7692308,10.2139204 29.3353846,9.95790463 L18.6276923,3.70180996 C18.083303,3.45438027 17.4548191,3.4820143 16.9338462,3.77628728 L6.45230769,9.87411765 C5.95384615,10.1673721 5.89846154,10.5956167 6.33230769,10.8609421 Z" id="Path" fill="url(#linearGradient-10)" fillRule="nonzero" opacity="0.5"></path>
                <path d="M13.5046154,2.08658314 C13.2553846,2.18433461 13.2046154,2.40311173 13.3892308,2.57534053 L14.7876923,3.89731292 C15.0071675,4.07474552 15.3010747,4.12736433 15.5676923,4.03695789 C15.8169231,3.93920641 15.8676923,3.72042929 15.6830769,3.57147465 L14.2846154,2.21691844 C14.0634434,2.0426746 13.7696882,1.99358913 13.5046154,2.08658314 Z" id="Path" fill="#2C30D1" opacity="0.4"></path>
                <path d="M22.0523077,10.1301334 C21.8076923,10.2232301 21.7569231,10.4420072 21.9369231,10.5956167 L23.3215385,11.9175891 C23.5416986,12.097487 23.838238,12.1502647 24.1061538,12.057234 C24.3507692,11.9594825 24.4015385,11.7407054 24.2215385,11.5917508 L22.8138462,10.2697784 C22.5990075,10.0979862 22.3133551,10.0456055 22.0523077,10.1301334 Z" id="Path" fill="#2C30D1"></path>
                <path d="M25.1584615,4.1533287 L23.2707692,4.88879221 C23.0261538,4.98654369 22.9753846,5.20532081 23.16,5.35427544 C23.3794752,5.53170805 23.6733824,5.58432685 23.94,5.49392041 L25.8276923,4.75380207 C26.0769231,4.66070542 26.1276923,4.43727347 25.9430769,4.26504467 C25.7178051,4.09465207 25.4217001,4.05249172 25.1584615,4.1533287 L25.1584615,4.1533287 Z" id="Path" fill="#2C30D1" opacity="0.6"></path>
                <path d="M14.4738462,8.76626755 C14.2528244,8.58796511 13.9563641,8.53696023 13.6892308,8.63127742 L11.8015385,9.36674093 C11.5569231,9.46449241 11.5061538,9.68326953 11.6907692,9.83222416 C11.9102444,10.0096568 12.2041516,10.0622756 12.4707692,9.97186913 L14.3584615,9.23175079 C14.6076923,9.1619283 14.6584615,8.93849635 14.4738462,8.76626755 Z" id="Path" fill="#2C30D1"></path>
                <path d="M20.9584615,4.07885138 C21.2053253,4.18808967 21.4928026,4.14067901 21.6923077,3.95782574 L22.6338462,2.68240168 C22.7538462,2.51017288 22.6338462,2.29139576 22.3430769,2.18898945 C22.0940585,2.07893179 21.8040342,2.1282917 21.6046154,2.31466992 L20.6815385,3.61336815 C20.5430769,3.76232278 20.6769231,3.98575473 20.9584615,4.07885138 Z" id="Path" fill="#2C30D1" opacity="0.5"></path>
                <path d="M16.6753846,10.0603109 C16.4269502,9.95148926 16.1384094,9.99877789 15.9369231,10.1813366 L15.0138462,11.4800348 C14.8892308,11.6522636 15.0138462,11.8710407 15.3046154,11.973447 C15.5514791,12.0826853 15.8389564,12.0352747 16.0384615,11.8524214 L16.9615385,10.5537232 C17.0953846,10.3814944 16.9569231,10.1627173 16.6753846,10.0603109 Z" id="Path" fill="#2C30D1"></path>
                <path d="M18.1846154,3.61336815 C18.4892308,3.61336815 18.7107692,3.45510385 18.6738462,3.25960089 L18.3969231,1.74678037 C18.3646154,1.55127742 18.0830769,1.38370345 17.7784615,1.38370345 C17.4738462,1.38370345 17.2523077,1.53731292 17.2892308,1.73747071 L17.5615385,3.25029122 C17.5984615,3.42717485 17.88,3.61336815 18.1846154,3.61336815 Z" id="Path" fill="#2C30D1" opacity="0.5"></path>
                <path d="M19.4492308,10.5490683 C19.1446154,10.5490683 18.9230769,10.7073326 18.96,10.9028356 L19.2323077,12.4156561 C19.2692308,12.6158139 19.5461538,12.778733 19.8553846,12.778733 C20.1646154,12.778733 20.3815385,12.6251236 20.3446154,12.4249658 L20.0676923,10.9121453 C20.0353846,10.7166423 19.7538462,10.5537232 19.4492308,10.5490683 Z" id="Path" fill="#2C30D1"></path>
                <path d="M11.3861538,4.02299339 C11.1387084,3.91246349 10.8497053,3.96195893 10.6523077,4.14867387 C10.5276923,4.31624783 10.6523077,4.53967978 10.9430769,4.6141571 L13.1076923,5.3915141 C13.3566768,5.518791 13.6576931,5.47806563 13.8646154,5.28910779 C13.9846154,5.12153383 13.8646154,4.89810187 13.5738462,4.79569556 L11.3861538,4.02299339 Z" id="Path" fill="#2C30D1" opacity="0.4"></path>
                <path d="M24.5261538,8.73368373 C24.2781165,8.62810573 23.9918849,8.67712653 23.7923077,8.8593642 C23.6676923,9.031593 23.7923077,9.25037012 24.0830769,9.35277643 L26.2476923,10.1301334 C26.494556,10.2393717 26.7820334,10.1919611 26.9815385,10.0091078 C27.1015385,9.83687899 26.9815385,9.61810187 26.6861538,9.51569556 L24.5261538,8.73368373 Z" id="Path" fill="#2C30D1" opacity="0.8"></path>
                <path d="M10.6061538,7.33723402 L12.9461538,7.33723402 C13.2507692,7.33723402 13.4723077,7.18362456 13.4353846,6.98346676 C13.3984615,6.78330897 13.1215385,6.62504467 12.8169231,6.62038984 L10.4769231,6.62038984 C10.1723077,6.62038984 9.95076923,6.77865414 9.98769231,6.9741571 C10.0246154,7.16966006 10.3015385,7.33723402 10.6061538,7.33723402 Z" id="Path" fill="#2C30D1" opacity="0.2"></path>
                <path d="M27.0230769,6.79261864 L24.6830769,6.76934448 C24.3784615,6.76934448 24.1615385,6.92295394 24.1938462,7.12311173 C24.2261538,7.32326953 24.5123077,7.48618866 24.8169231,7.48618866 L27.1569231,7.50946282 C27.4615385,7.50946282 27.6830769,7.35119852 27.6461538,7.15569556 C27.6092308,6.9601926 27.3276923,6.79261864 27.0230769,6.79261864 Z" id="Path" fill="#2C30D1" opacity="0.8"></path>
            </g>
            <g id="4" transform="translate(145.722017, 57.288573)">
                <path d="M35.2656757,11.2134911 L19.4672142,2.04812623 C18.9317123,1.73631159 18.2719468,1.73631159 17.736445,2.04812623 L0.410291109,12.1304931 C0.157308685,12.2701484 0,12.537853 0,12.8287179 C0,13.1195829 0.157308685,13.3872875 0.410291109,13.5269428 L16.213368,22.6923077 C16.7476957,23.0023339 17.4051942,23.0023339 17.9395219,22.6923077 L35.2702911,12.6099408 C35.5232735,12.4702855 35.6805822,12.2025809 35.6805822,11.911716 C35.6805822,11.6208511 35.5232735,11.3531464 35.2702911,11.2134911 L35.2656757,11.2134911 Z M34.5687526,11.9024063 L17.4687526,21.8544379 C17.2238223,21.9938064 16.9244522,21.9938064 16.6795219,21.8544379 L1.10721419,12.8194083 L18.2072142,2.86737673 C18.4521446,2.72800824 18.7515146,2.72800824 18.996445,2.86737673 L34.5687526,11.9024063 Z" id="Shape" fill="url(#linearGradient-11)" fillRule="nonzero"></path>
                <path d="M17.053368,18.9172387 L6.32721419,12.689073 C5.89336803,12.437712 5.94875265,11.995503 6.45182957,11.7022485 L16.933368,5.60441815 C17.454341,5.31014517 18.0828249,5.28251114 18.6272142,5.52994083 L29.353368,11.7581065 C29.7872142,12.0141223 29.7318296,12.4516765 29.2287526,12.744931 L18.7472142,18.8474162 C18.2248912,19.1380015 17.5974619,19.1638649 17.053368,18.9172387 L17.053368,18.9172387 Z" id="Path" fill="url(#linearGradient-12)" fillRule="nonzero" opacity="0.25"></path>
                <path d="M6.32721419,12.689073 L7.27336803,13.2383432 L16.933368,7.61530572 C17.454341,7.32103274 18.0828249,7.29339871 18.6272142,7.5408284 L28.4072142,13.2383432 L29.2287526,12.77286 C29.7318296,12.4796055 29.7872142,12.0420513 29.353368,11.7860355 L18.6272142,5.54390533 C18.0828249,5.29647563 17.454341,5.32410966 16.933368,5.61838264 L6.45182957,11.716213 C5.94875265,11.9815385 5.89336803,12.4237475 6.32721419,12.689073 Z" id="Path" fill="url(#linearGradient-13)" fillRule="nonzero" opacity="0.5"></path>
                <path d="M29.6625988,6.7774359 L29.3995219,6.7774359 C28.9656757,5.66493097 28.0149065,4.60828402 26.5195219,3.74248521 C22.333368,1.30800789 15.5395219,1.30800789 11.353368,3.74248521 C10.1456992,4.37128541 9.1653731,5.36813453 8.55182957,6.5912426 L8.21490649,6.5912426 L8.21490649,7.98769231 C8.13182957,9.64946746 9.17952188,11.3205523 11.353368,12.5866667 C15.5395219,15.0257988 22.333368,15.0257988 26.5195219,12.5866667 C28.6149065,11.3671006 29.6625988,9.7704931 29.6625988,8.1738856 L29.6625988,8.1738856 L29.6625988,6.7774359 Z" id="Path" fill="url(#linearGradient-14)" fillRule="nonzero"></path>
                <ellipse id="Oval" fill="#1D45BA" fillRule="nonzero" cx="18.9179834" cy="6.24213018" rx="10.7261538" ry="6.24213018"></ellipse>
                <path d="M14.0283434,2.73998731 C13.8245034,2.74156064 13.6201434,2.78404064 13.4740234,2.87634286 L13.4740234,2.87634286 C13.3658634,2.94556953 13.3175034,3.03996953 13.3128234,3.14013842 L13.3128234,3.14013842 C13.3123034,3.14485842 13.3123034,3.14957842 13.3123034,3.15429842 L13.3123034,3.15429842 C13.3112634,3.15901842 13.3112634,3.16373842 13.3112634,3.16845842 L13.3112634,3.16845842 C13.3107434,3.17317842 13.3112634,3.17789842 13.3107434,3.18261842 L13.3107434,3.18261842 C13.3102234,3.18733842 13.3102234,3.19205842 13.3102234,3.19730286 L13.3102234,3.19730286 C13.3091834,3.20202286 13.3091834,3.20674286 13.3091834,3.21146286 L13.3091834,3.21146286 C13.3091834,3.21618286 13.3091834,3.22090286 13.3086634,3.22562286 L13.3086634,3.22562286 C13.3086634,3.23086731 13.3086634,3.23506286 13.3086634,3.24030731 L13.3086634,3.24030731 C13.3076234,3.24502731 13.3076234,3.24974731 13.3071034,3.25446731 L13.3071034,3.25446731 C13.3071034,3.25918731 13.3071034,3.26390731 13.3065834,3.26862731 L13.3065834,3.26862731 C13.3060634,3.27334731 13.3060634,3.27859175 13.3060634,3.28331175 L13.3060634,3.28331175 C13.3055434,3.28803175 13.3055434,3.29222731 13.3050234,3.29747175 L13.3050234,3.29747175 C13.3050234,3.30219175 13.3050234,3.30691175 13.3045034,3.31163175 L13.3045034,3.31163175 C13.3039834,3.31635175 13.3039834,3.32107175 13.3039834,3.32579175 L13.3039834,3.32579175 C13.3034634,3.3310362 13.3034634,3.3357562 13.3034634,3.3404762 L13.3034634,3.3404762 C13.3034634,3.3451962 13.3034634,3.3499162 13.3029434,3.3546362 L13.3029434,3.3546362 C13.3024234,3.35988064 13.3024234,3.3640762 13.3024234,3.36932064 L13.3024234,3.36932064 C13.3013834,3.37404064 13.3013834,3.37876064 13.3008634,3.38348064 L13.3008634,3.38348064 C13.3008634,3.38820064 13.3008634,3.39292064 13.3003434,3.39764064 L13.3003434,3.39764064 C13.2998234,3.40236064 13.2998234,3.40708064 13.2998234,3.41180064 L13.2998234,3.41180064 C13.2993034,3.41652064 13.2993034,3.42124064 13.2987834,3.42648509 L13.2987834,3.42648509 C13.2987834,3.43120509 13.2987834,3.43592509 13.2987834,3.44064509 L13.2987834,3.44064509 C13.2982634,3.44536509 13.2982634,3.45008509 13.2982634,3.45480509 L13.2982634,3.45480509 C13.2977434,3.46004953 13.2977434,3.46424509 13.2972234,3.46948953 L13.2972234,3.46948953 L13.2972234,3.48364953 C13.2961834,3.48836953 13.2961834,3.49308953 13.2961834,3.49780953 L13.2961834,3.49780953 C13.2951434,3.50252953 13.2951434,3.50777398 13.2951434,3.51249398 L13.2951434,3.51249398 C13.2946234,3.51721398 13.2946234,3.52140953 13.2946234,3.52665398 L13.2946234,3.52665398 C13.2941034,3.53137398 13.2941034,3.53609398 13.2941034,3.54081398 L13.2941034,3.54081398 C13.2935834,3.54553398 13.2941034,3.55025398 13.2935834,3.55497398 L13.2935834,3.55497398 C13.2930634,3.56021842 13.2930634,3.56493842 13.2930634,3.56913398 L13.2930634,3.56913398 C13.2920234,3.57385398 13.2920234,3.57857398 13.2920234,3.58381842 L13.2920234,3.58381842 C13.2920234,3.58853842 13.2920234,3.59273398 13.2915034,3.59797842 L13.2915034,3.59797842 C13.2909834,3.60269842 13.2909834,3.60741842 13.2909834,3.61213842 L13.2909834,3.61213842 C13.2899434,3.61685842 13.2904634,3.62157842 13.2899434,3.62629842 L13.2899434,3.62629842 C13.2899434,3.63101842 13.2899434,3.63573842 13.2894234,3.64045842 L13.2894234,3.64045842 C13.2889034,3.64570286 13.2889034,3.64989842 13.2889034,3.65514286 L13.2889034,3.65514286 C13.2883834,3.65986286 13.2883834,3.66458286 13.2878634,3.66930286 L13.2878634,3.66930286 C13.2878634,3.67402286 13.2878634,3.67874286 13.2873434,3.68346286 L13.2873434,3.68346286 C13.2868234,3.68870731 13.2868234,3.69290286 13.2868234,3.69814731 L13.2868234,3.69814731 C13.2863034,3.70286731 13.2863034,3.70758731 13.2857834,3.71230731 L13.2857834,3.71230731 C13.2857834,3.71702731 13.2857834,3.72174731 13.2852634,3.72699175 L13.2852634,3.72699175 C13.2852634,3.73118731 13.2852634,3.73643175 13.2852634,3.74115175 L13.2852634,3.74115175 C13.2847434,3.74587175 13.2847434,3.75059175 13.2837034,3.75531175 L13.2837034,3.75531175 C13.2837034,3.76003175 13.2837034,3.76475175 13.2831834,3.76947175 L13.2831834,3.76947175 C13.2826634,3.77419175 13.2826634,3.77891175 13.2826634,3.78363175 L13.2826634,3.78363175 C13.2821434,3.7888762 13.2821434,3.7935962 13.2816234,3.7983162 L13.2816234,3.7983162 C13.2816234,3.8030362 13.2816234,3.8077562 13.2811034,3.8124762 L13.2811034,3.8124762 C13.2805834,3.81772064 13.2805834,3.8219162 13.2805834,3.82716064 L13.2805834,3.82716064 C13.2805834,3.83188064 13.2805834,3.83660064 13.2800634,3.84132064 L13.2800634,3.84132064 L13.2800634,3.85548064 C13.2701834,3.9540762 13.3045034,4.05948953 13.3731434,4.1523162 L13.3731434,4.1523162 L14.8546234,5.97371175 L14.0366634,6.4934362 C14.0085834,6.51074286 14.0013034,6.53434286 14.0075434,6.55794286 L14.0075434,6.55794286 C14.0070234,6.56318731 14.0054634,6.56685842 14.0070234,6.57262731 L14.0070234,6.57262731 C14.0065034,6.57787175 14.0049434,6.58154286 14.0059834,6.58678731 L14.0059834,6.58678731 C14.0059834,6.59203175 14.0039034,6.59570286 14.0054634,6.60094731 L14.0054634,6.60094731 C14.0049434,6.60619175 14.0033834,6.60986286 14.0049434,6.61510731 L14.0049434,6.61510731 C14.0044234,6.62035175 14.0028634,6.62454731 14.0039034,6.62979175 L14.0039034,6.62979175 C14.0039034,6.6350362 14.0018234,6.63870731 14.0033834,6.64395175 L14.0033834,6.64395175 C14.0028634,6.6491962 14.0013034,6.65339175 14.0028634,6.65811175 L14.0028634,6.65811175 C14.0023434,6.6633562 14.0013034,6.66755175 14.0018234,6.6727962 L14.0018234,6.6727962 C14.0018234,6.67804064 13.9997434,6.68171175 14.0013034,6.6869562 L14.0013034,6.6869562 C14.0013034,6.69220064 13.9992234,6.69587175 14.0013034,6.70164064 L14.0013034,6.70164064 C14.0002634,6.70636064 13.9987034,6.7105562 13.9997434,6.71580064 L13.9997434,6.71580064 C13.9997434,6.72104509 13.9976634,6.7247162 13.9992234,6.72996064 L13.9992234,6.72996064 C13.9987034,6.73520509 13.9971434,6.7388762 13.9987034,6.74412064 L13.9987034,6.74412064 C13.9981834,6.74988953 13.9966234,6.75356064 13.9976634,6.75880509 L13.9976634,6.75880509 C13.9976634,6.76352509 13.9961034,6.76772064 13.9971434,6.77296509 L13.9971434,6.77296509 C13.9966234,6.77820953 13.9955834,6.78188064 13.9966234,6.78712509 L13.9966234,6.78712509 C13.9966234,6.79236953 13.9950634,6.79656509 13.9961034,6.80180953 L13.9961034,6.80180953 C13.9961034,6.80705398 13.9935034,6.81072509 13.9955834,6.81596953 L13.9955834,6.81596953 C13.9950634,6.82121398 13.9935034,6.82488509 13.9950634,6.83012953 L13.9950634,6.83012953 C13.9950634,6.83537398 13.9924634,6.83904509 13.9935034,6.84428953 L13.9935034,6.84428953 C13.9935034,6.84953398 13.9914234,6.85372953 13.9929834,6.85897398 L13.9929834,6.85897398 C13.9924634,6.86369398 13.9914234,6.86788953 13.9924634,6.87313398 L13.9924634,6.87313398 C13.9924634,6.87837842 13.9909034,6.88257398 13.9914234,6.88729398 L13.9914234,6.88729398 C13.9914234,6.89201398 13.9903834,6.89673398 13.9914234,6.90145398 L13.9914234,6.90145398 C13.9914234,6.90669842 13.9898634,6.91089398 13.9909034,6.91613842 L13.9909034,6.91613842 C13.9909034,6.92085842 13.9888234,6.92505398 13.9898634,6.93029842 L13.9898634,6.93029842 C13.9898634,6.93501842 13.9877834,6.93973842 13.9898634,6.94445842 L13.9898634,6.94445842 C13.9893434,6.94970286 13.9872634,6.95337398 13.9888234,6.95861842 L13.9888234,6.95861842 C13.9888234,6.96386286 13.9867434,6.96805842 13.9877834,6.97277842 L13.9877834,6.97277842 C13.9872634,6.97854731 13.9862234,6.98221842 13.9872634,6.98746286 L13.9872634,6.98746286 C13.9867434,6.99218286 13.9857034,6.99637842 13.9867434,7.00162286 L13.9867434,7.00162286 C13.9867434,7.00686731 13.9846634,7.01106286 13.9862234,7.01578286 L13.9862234,7.01578286 C13.9857034,7.02102731 13.9841434,7.02522286 13.9857034,7.03046731 L13.9857034,7.03046731 C13.9851834,7.03571175 13.9836234,7.03938286 13.9846634,7.04462731 L13.9846634,7.04462731 C13.9846634,7.04987175 13.9825834,7.05354286 13.9841434,7.05931175 L13.9841434,7.05931175 C13.9836234,7.06403175 13.9820634,7.06770286 13.9836234,7.07294731 L13.9836234,7.07294731 C13.9831034,7.0787162 13.9815434,7.08238731 13.9825834,7.08763175 L13.9825834,7.08763175 C13.9825834,7.0928762 13.9805034,7.09654731 13.9820634,7.10179175 L13.9820634,7.10179175 C13.9815434,7.1070362 13.9799834,7.11123175 13.9815434,7.11595175 L13.9815434,7.11595175 C13.9810234,7.1211962 13.9794634,7.12539175 13.9805034,7.1306362 L13.9805034,7.1306362 C13.9805034,7.13588064 13.9784234,7.13955175 13.9799834,7.1447962 L13.9799834,7.1447962 C13.9794634,7.15004064 13.9779034,7.1542362 13.9794634,7.15948064 L13.9794634,7.15948064 C13.9789434,7.16420064 13.9779034,7.1683962 13.9784234,7.17364064 L13.9784234,7.17364064 C13.9784234,7.17888509 13.9763434,7.1825562 13.9779034,7.18780064 L13.9779034,7.18780064 C13.9779034,7.19304509 13.9758234,7.1967162 13.9779034,7.20196064 L13.9779034,7.20196064 C13.9773834,7.20772953 13.9753034,7.21140064 13.9763434,7.21664509 L13.9763434,7.21664509 C13.9763434,7.22136509 13.9742634,7.22556064 13.9758234,7.23080509 L13.9758234,7.23080509 C13.9753034,7.23604953 13.9742634,7.24024509 13.9753034,7.24496509 L13.9753034,7.24496509 C13.9753034,7.25020953 13.9732234,7.25440509 13.9742634,7.25964953 L13.9742634,7.25964953 C13.9742634,7.26489398 13.9727034,7.26856509 13.9737434,7.27380953 L13.9737434,7.27380953 C13.9727034,7.29845842 13.9846634,7.32363175 14.0195034,7.3430362 L14.0195034,7.3430362 L14.2904234,7.49302731 C14.3502234,7.52659175 14.4412234,7.52764064 14.4927034,7.49512509 L14.4927034,7.49512509 L15.5472634,6.82540953 L15.9263434,7.29164064 L15.1042234,7.81346286 C15.0766634,7.83129398 15.0693834,7.85541842 15.0756234,7.87901842 L15.0756234,7.87901842 C15.0751034,7.88321398 15.0730234,7.88793398 15.0740634,7.89265398 L15.0740634,7.89265398 C15.0740634,7.89789842 15.0725034,7.90209398 15.0735434,7.90733842 L15.0735434,7.90733842 C15.0730234,7.91205842 15.0719834,7.91625398 15.0730234,7.92149842 L15.0730234,7.92149842 C15.0730234,7.92674286 15.0714634,7.93093842 15.0725034,7.93565842 L15.0725034,7.93565842 C15.0725034,7.94090286 15.0704234,7.94457398 15.0719834,7.94981842 L15.0719834,7.94981842 C15.0714634,7.95506286 15.0699034,7.95925842 15.0714634,7.96397842 L15.0714634,7.96397842 C15.0709434,7.96922286 15.0693834,7.97341842 15.0704234,7.97866286 L15.0704234,7.97866286 C15.0704234,7.98390731 15.0683434,7.98757842 15.0699034,7.99282286 L15.0699034,7.99282286 C15.0693834,7.99806731 15.0678234,8.00226286 15.0693834,8.00750731 L15.0693834,8.00750731 C15.0683434,8.01222731 15.0673034,8.01642286 15.0683434,8.02166731 L15.0683434,8.02166731 C15.0683434,8.02691175 15.0662634,8.03058286 15.0678234,8.03582731 L15.0678234,8.03582731 C15.0673034,8.04107175 15.0657434,8.04474286 15.0673034,8.05051175 L15.0673034,8.05051175 C15.0667834,8.0557562 15.0652234,8.05942731 15.0662634,8.06414731 L15.0662634,8.06414731 C15.0662634,8.0699162 15.0641834,8.07358731 15.0657434,8.07883175 L15.0657434,8.07883175 C15.0652234,8.0840762 15.0636634,8.08774731 15.0652234,8.09299175 L15.0652234,8.09299175 C15.0647034,8.0982362 15.0636634,8.10243175 15.0641834,8.1076762 L15.0641834,8.1076762 C15.0641834,8.1123962 15.0621034,8.11659175 15.0636634,8.1218362 L15.0636634,8.1218362 C15.0636634,8.12708064 15.0615834,8.13075175 15.0636634,8.1359962 L15.0636634,8.1359962 C15.0626234,8.14124064 15.0610634,8.14491175 15.0621034,8.15068064 L15.0621034,8.15068064 C15.0621034,8.15592509 15.0600234,8.1595962 15.0615834,8.16484064 L15.0615834,8.16484064 C15.0610634,8.17008509 15.0600234,8.1737562 15.0610634,8.17900064 L15.0610634,8.17900064 C15.0610634,8.18424509 15.0589834,8.18844064 15.0600234,8.19316064 L15.0600234,8.19316064 C15.0600234,8.19840509 15.0584634,8.20260064 15.0595034,8.20784509 L15.0595034,8.20784509 C15.0589834,8.21308953 15.0584634,8.21676064 15.0589834,8.22200509 L15.0589834,8.22200509 C15.0589834,8.22724953 15.0574234,8.23144509 15.0584634,8.23668953 L15.0584634,8.23668953 C15.0584634,8.24140953 15.0563834,8.24560509 15.0584634,8.25084953 L15.0584634,8.25084953 C15.0579434,8.25609398 15.0558634,8.25976509 15.0574234,8.26500953 L15.0574234,8.26500953 C15.0574234,8.27025398 15.0548234,8.27392509 15.0563834,8.27969398 L15.0563834,8.27969398 C15.0558634,8.28493842 15.0543034,8.28860953 15.0558634,8.29385398 L15.0558634,8.29385398 C15.0553434,8.29909842 15.0537834,8.30276953 15.0548234,8.30801398 L15.0548234,8.30801398 C15.0548234,8.31273398 15.0532634,8.31692953 15.0543034,8.32217398 L15.0543034,8.32217398 C15.0537834,8.32741842 15.0527434,8.33161398 15.0537834,8.33685842 L15.0537834,8.33685842 C15.0537834,8.34157842 15.0522234,8.34577398 15.0532634,8.35049398 L15.0532634,8.35049398 C15.0532634,8.35573842 15.0511834,8.35993398 15.0527434,8.36517842 L15.0527434,8.36517842 C15.0522234,8.36989842 15.0501434,8.37409398 15.0522234,8.37933842 L15.0522234,8.37933842 C15.0517034,8.38458286 15.0496234,8.38877842 15.0511834,8.39349842 L15.0511834,8.39349842 C15.0511834,8.39874286 15.0491034,8.40241398 15.0501434,8.40765842 L15.0501434,8.40765842 C15.0496234,8.41290286 15.0485834,8.41709842 15.0496234,8.42181842 L15.0496234,8.42181842 C15.0491034,8.42706286 15.0480634,8.43125842 15.0491034,8.43650286 L15.0491034,8.43650286 C15.0491034,8.44174731 15.0470234,8.44541842 15.0485834,8.45066286 L15.0485834,8.45066286 C15.0480634,8.45590731 15.0465034,8.46010286 15.0480634,8.46534731 L15.0480634,8.46534731 C15.0475434,8.47006731 15.0459834,8.47426286 15.0470234,8.47950731 L15.0470234,8.47950731 C15.0470234,8.48475175 15.0449434,8.48842286 15.0465034,8.49366731 L15.0465034,8.49366731 C15.0459834,8.49891175 15.0444234,8.50258286 15.0459834,8.50835175 L15.0459834,8.50835175 C15.0454634,8.5135962 15.0439034,8.51726731 15.0449434,8.52251175 L15.0449434,8.52251175 C15.0449434,8.5277562 15.0428634,8.53142731 15.0444234,8.53667175 L15.0444234,8.53667175 C15.0439034,8.5419162 15.0428634,8.54558731 15.0439034,8.55083175 L15.0439034,8.55083175 C15.0439034,8.5560762 15.0418234,8.56027175 15.0428634,8.5655162 L15.0428634,8.5655162 C15.0428634,8.57076064 15.0407834,8.57443175 15.0423434,8.5796762 L15.0423434,8.5796762 C15.0418234,8.58492064 15.0407834,8.58859175 15.0418234,8.5938362 L15.0418234,8.5938362 C15.0402634,8.61900953 15.0522234,8.64365842 15.0865434,8.66306286 L15.0865434,8.66306286 L15.3585034,8.81357842 C15.4188234,8.84766731 15.5098234,8.84819175 15.5618234,8.8156762 L15.5618234,8.8156762 L16.6189834,8.14333842 L18.8544634,10.8919518 L18.8939834,10.913454 C19.0130634,10.979534 19.2153434,10.9611784 19.3458634,10.8788406 L19.3458634,10.8788406 C19.3957834,10.8468495 19.4212634,10.8080406 19.4316634,10.7676584 L19.4316634,10.7676584 C19.4342634,10.762414 19.4311434,10.757694 19.4321834,10.752974 L19.4321834,10.752974 C19.4342634,10.7487784 19.4316634,10.7440584 19.4337434,10.738814 L19.4337434,10.738814 C19.4353034,10.734094 19.4321834,10.729374 19.4342634,10.724654 L19.4342634,10.724654 C19.4353034,10.7204584 19.4337434,10.715214 19.4342634,10.710494 L19.4342634,10.710494 C19.4363434,10.705774 19.4342634,10.701054 19.4353034,10.696334 L19.4353034,10.696334 C19.4373834,10.691614 19.4342634,10.686894 19.4358234,10.682174 L19.4358234,10.682174 C19.4373834,10.6769295 19.4353034,10.672734 19.4363434,10.6674895 L19.4363434,10.6674895 C19.4389434,10.6627695 19.4358234,10.6580495 19.4373834,10.6533295 L19.4373834,10.6533295 C19.4389434,10.6486095 19.4363434,10.6438895 19.4379034,10.6391695 L19.4379034,10.6391695 C19.4394634,10.6339251 19.4373834,10.6297295 19.4389434,10.6244851 L19.4389434,10.6244851 C19.4405034,10.6197651 19.4379034,10.6150451 19.4394634,10.6103251 L19.4394634,10.6103251 C19.4410234,10.6056051 19.4389434,10.6008851 19.4399834,10.5956406 L19.4399834,10.5956406 C19.4415434,10.5914451 19.4394634,10.5867251 19.4405034,10.5820051 L19.4405034,10.5820051 C19.4425834,10.5767606 19.4399834,10.5725651 19.4415434,10.5673206 L19.4415434,10.5673206 C19.4431034,10.5626006 19.4405034,10.5578806 19.4420634,10.5531606 L19.4420634,10.5531606 C19.4436234,10.5484406 19.4415434,10.5437206 19.4425834,10.5384762 L19.4425834,10.5384762 C19.4446634,10.5337562 19.4420634,10.5290362 19.4436234,10.5243162 L19.4436234,10.5243162 C19.4451834,10.5195962 19.4425834,10.5148762 19.4436234,10.5101562 L19.4436234,10.5101562 C19.4457034,10.5049118 19.4436234,10.5007162 19.4446634,10.4954718 L19.4446634,10.4954718 C19.4467434,10.4912762 19.4436234,10.4860318 19.4457034,10.4813118 L19.4457034,10.4813118 C19.4472634,10.4765918 19.4446634,10.4718718 19.4457034,10.4671518 L19.4457034,10.4671518 C19.4477834,10.4624318 19.4457034,10.4577118 19.4467434,10.4529918 L19.4467434,10.4529918 C19.4488234,10.4477473 19.4462234,10.4435518 19.4472634,10.4383073 L19.4472634,10.4383073 C19.4488234,10.4335873 19.4467434,10.4288673 19.4477834,10.4241473 L19.4477834,10.4241473 C19.4493434,10.4194273 19.4477834,10.4147073 19.4488234,10.4099873 L19.4488234,10.4099873 C19.4509034,10.4047429 19.4477834,10.4000229 19.4488234,10.3953029 L19.4488234,10.3953029 C19.4514234,10.3905829 19.4488234,10.3858629 19.4493434,10.3811429 L19.4493434,10.3811429 C19.4519434,10.3764229 19.4493434,10.3717029 19.4509034,10.3664584 L19.4509034,10.3664584 C19.4529834,10.3622629 19.4493434,10.3575429 19.4514234,10.3528229 L19.4514234,10.3528229 C19.4535034,10.3475784 19.4509034,10.3433829 19.4519434,10.3381384 L19.4519434,10.3381384 C19.4535034,10.3334184 19.4514234,10.3286984 19.4529834,10.3239784 L19.4529834,10.3239784 C19.4545434,10.3192584 19.4519434,10.3145384 19.4535034,10.309294 L19.4535034,10.309294 C19.4545434,10.304574 19.4529834,10.299854 19.4535034,10.2956584 L19.4535034,10.2956584 C19.4555834,10.2909384 19.4535034,10.2862184 19.4545434,10.280974 L19.4545434,10.280974 C19.4571434,10.276254 19.4535034,10.271534 19.4550634,10.266814 L19.4550634,10.266814 C19.4571434,10.262094 19.4545434,10.257374 19.4555834,10.252654 L19.4555834,10.252654 C19.4581834,10.247934 19.4550634,10.243214 19.4571434,10.238494 L19.4571434,10.238494 C19.4581834,10.233774 19.4555834,10.229054 19.4576634,10.224334 L19.4576634,10.224334 C19.4587034,10.2190895 19.4571434,10.214894 19.4581834,10.2096495 L19.4581834,10.2096495 C19.4597434,10.2049295 19.4576634,10.2002095 19.4587034,10.1954895 L19.4587034,10.1954895 C19.4602634,10.1907695 19.4581834,10.1860495 19.4592234,10.1813295 L19.4592234,10.1813295 C19.4607834,10.1760851 19.4587034,10.1713651 19.4597434,10.1666451 L19.4597434,10.1666451 C19.4618234,10.1619251 19.4592234,10.1572051 19.4607834,10.1524851 L19.4607834,10.1524851 C19.4623434,10.1477651 19.4597434,10.1430451 19.4613034,10.1378006 L19.4613034,10.1378006 C19.4628634,10.1336051 19.4607834,10.1288851 19.4618234,10.1241651 L19.4618234,10.1241651 C19.4639034,10.1189206 19.4613034,10.1142006 19.4628634,10.1094806 L19.4628634,10.1094806 C19.4644234,10.1047606 19.4618234,10.1000406 19.4628634,10.0953206 L19.4628634,10.0953206 C19.4649434,10.0900762 19.4628634,10.0858806 19.4639034,10.0806362 L19.4639034,10.0806362 C19.4659834,10.0759162 19.4633834,10.0711962 19.4649434,10.0664762 L19.4649434,10.0664762 C19.4665034,10.0617562 19.4639034,10.0570362 19.4649434,10.0523162 L19.4649434,10.0523162 C19.4789834,10.0161295 19.4774234,9.97784509 19.4581834,9.94218286 L19.4581834,9.94218286 C18.8607034,9.20324064 18.1607834,8.3389562 17.5232634,7.57012064 L17.5232634,7.57012064 L20.8200634,5.47548953 L25.7169034,6.64237842 C25.8765434,6.68328509 25.9961434,6.65444064 26.1157434,6.5783962 L26.1157434,6.5783962 C26.1677434,6.5453562 26.1911434,6.51074286 26.1999834,6.47717842 L26.1999834,6.47717842 C26.2025834,6.47193398 26.1994634,6.46721398 26.2005034,6.46249398 L26.2005034,6.46249398 C26.2031034,6.45777398 26.1999834,6.45305398 26.2015434,6.44833398 L26.2015434,6.44833398 C26.2036234,6.44361398 26.2005034,6.43889398 26.2020634,6.43417398 L26.2020634,6.43417398 C26.2046634,6.42892953 26.2015434,6.42473398 26.2025834,6.41948953 L26.2025834,6.41948953 C26.2051834,6.41476953 26.2020634,6.41004953 26.2036234,6.40532953 L26.2036234,6.40532953 C26.2057034,6.40060953 26.2025834,6.39588953 26.2041434,6.39064509 L26.2041434,6.39064509 C26.2067434,6.38592509 26.2036234,6.38172953 26.2046634,6.37700953 L26.2046634,6.37700953 C26.2067434,6.37176509 26.2041434,6.36756953 26.2057034,6.36232509 L26.2057034,6.36232509 C26.2072634,6.35708064 26.2046634,6.35288509 26.2062234,6.34816509 L26.2062234,6.34816509 C26.2088234,6.34344509 26.2057034,6.33872509 26.2067434,6.33400509 L26.2067434,6.33400509 C26.2088234,6.32876064 26.2062234,6.32404064 26.2072634,6.31932064 L26.2072634,6.31932064 C26.2098634,6.31460064 26.2067434,6.30988064 26.2083034,6.30516064 L26.2083034,6.30516064 C26.2103834,6.2999162 26.2072634,6.29572064 26.2088234,6.2904762 L26.2088234,6.2904762 C26.2109034,6.2857562 26.2083034,6.28156064 26.2098634,6.2763162 L26.2098634,6.2763162 C26.2114234,6.2715962 26.2088234,6.2668762 26.2103834,6.2621562 L26.2103834,6.2621562 C26.2119434,6.25691175 26.2098634,6.2527162 26.2109034,6.2479962 L26.2109034,6.2479962 C26.2124634,6.24275175 26.2103834,6.2385562 26.2114234,6.23331175 L26.2114234,6.23331175 C26.2140234,6.22859175 26.2109034,6.22387175 26.2119434,6.21915175 L26.2119434,6.21915175 C26.2145434,6.21443175 26.2114234,6.20971175 26.2124634,6.20499175 L26.2124634,6.20499175 C26.2150634,6.19974731 26.2119434,6.19555175 26.2140234,6.19030731 L26.2140234,6.19030731 C26.2155834,6.18558731 26.2124634,6.18086731 26.2145434,6.17614731 L26.2145434,6.17614731 C26.2161034,6.17142731 26.2140234,6.16670731 26.2150634,6.16146286 L26.2150634,6.16146286 C26.2166234,6.15674286 26.2145434,6.15254731 26.2155834,6.14782731 L26.2155834,6.14782731 C26.2176634,6.14258286 26.2150634,6.13838731 26.2155834,6.13314286 L26.2155834,6.13314286 C26.2181834,6.12789842 26.2155834,6.12370286 26.2166234,6.11898286 L26.2166234,6.11898286 C26.2187034,6.11426286 26.2155834,6.10954286 26.2176634,6.10429842 L26.2176634,6.10429842 C26.2202634,6.09957842 26.2166234,6.09485842 26.2176634,6.09013842 L26.2176634,6.09013842 C26.2202634,6.08541842 26.2176634,6.08069842 26.2187034,6.07597842 L26.2187034,6.07597842 C26.2207834,6.07073398 26.2176634,6.06653842 26.2192234,6.06129398 L26.2192234,6.06129398 C26.2218234,6.05709842 26.2187034,6.05237842 26.2202634,6.04765842 L26.2202634,6.04765842 C26.2223434,6.04241398 26.2192234,6.03769398 26.2207834,6.03297398 L26.2207834,6.03297398 C26.2228634,6.02825398 26.2202634,6.02405842 26.2213034,6.01881398 L26.2213034,6.01881398 C26.2239034,6.01409398 26.2207834,6.00937398 26.2218234,6.00465398 L26.2218234,6.00465398 C26.2239034,5.99993398 26.2213034,5.99521398 26.2228634,5.99049398 L26.2228634,5.99049398 C26.2249434,5.98577398 26.2218234,5.98105398 26.2233834,5.97633398 L26.2233834,5.97633398 C26.2259834,5.97108953 26.2228634,5.96689398 26.2239034,5.96164953 L26.2239034,5.96164953 C26.2259834,5.95692953 26.2233834,5.95220953 26.2249434,5.94748953 L26.2249434,5.94748953 C26.2270234,5.94276953 26.2239034,5.93804953 26.2249434,5.93280509 L26.2249434,5.93280509 C26.2275434,5.92808509 26.2249434,5.92388953 26.2259834,5.91916953 L26.2259834,5.91916953 C26.2280634,5.91392509 26.2249434,5.90972953 26.2270234,5.90448509 L26.2270234,5.90448509 C26.2291034,5.89924064 26.2259834,5.89504509 26.2275434,5.89032509 L26.2275434,5.89032509 C26.2296234,5.88560509 26.2270234,5.88088509 26.2280634,5.87564064 L26.2280634,5.87564064 C26.2301434,5.87092064 26.2275434,5.86620064 26.2291034,5.86148064 L26.2291034,5.86148064 C26.2306634,5.85676064 26.2280634,5.85204064 26.2296234,5.84732064 L26.2296234,5.84732064 C26.2311834,5.8420762 26.2291034,5.83788064 26.2301434,5.8326362 L26.2301434,5.8326362 C26.2322234,5.8279162 26.2296234,5.82372064 26.2306634,5.8184762 L26.2306634,5.8184762 C26.2332634,5.8137562 26.2301434,5.8090362 26.2311834,5.8043162 L26.2311834,5.8043162 C26.2337834,5.79907175 26.2306634,5.7948762 26.2322234,5.7901562 L26.2322234,5.7901562 C26.2343034,5.78491175 26.2311834,5.7807162 26.2332634,5.77547175 L26.2332634,5.77547175 C26.2348234,5.77075175 26.2322234,5.76603175 26.2332634,5.76131175 L26.2332634,5.76131175 C26.2722634,5.67163175 26.1771034,5.58457398 26.0231834,5.55205842 L26.0231834,5.55205842 L22.1502234,4.63060953 L22.3623834,4.49582731 C22.3899434,4.4779962 22.3967034,4.4543962 22.3915034,4.4307962 L22.3915034,4.4307962 C22.3920234,4.4260762 22.3935834,4.42188064 22.3920234,4.4166362 L22.3920234,4.4166362 C22.3920234,4.41139175 22.3941034,4.40772064 22.3925434,4.4024762 L22.3925434,4.4024762 C22.3925434,4.39723175 22.3951434,4.3930362 22.3935834,4.38779175 L22.3935834,4.38779175 C22.3941034,4.38254731 22.3956634,4.3788762 22.3941034,4.37363175 L22.3941034,4.37363175 C22.3946234,4.36838731 22.3961834,4.36419175 22.3951434,4.35947175 L22.3951434,4.35947175 C22.3951434,4.35422731 22.3967034,4.3505562 22.3956634,4.34478731 L22.3956634,4.34478731 C22.3961834,4.33954286 22.3967034,4.33587175 22.3961834,4.33062731 L22.3961834,4.33062731 C22.3961834,4.32538286 22.3977434,4.32171175 22.3967034,4.31646731 L22.3967034,4.31646731 C22.3967034,4.31122286 22.3987834,4.30702731 22.3972234,4.30230731 L22.3972234,4.30230731 C22.3977434,4.29706286 22.3987834,4.29286731 22.3977434,4.28762286 L22.3977434,4.28762286 C22.3977434,4.28237842 22.4003434,4.27870731 22.3987834,4.27346286 L22.3987834,4.27346286 C22.3987834,4.26821842 22.4008634,4.26402286 22.3987834,4.25877842 L22.3987834,4.25877842 C22.3998234,4.25405842 22.4013834,4.24986286 22.4003434,4.24461842 L22.4003434,4.24461842 C22.4003434,4.23937398 22.4019034,4.23570286 22.4008634,4.23045842 L22.4008634,4.23045842 C22.4013834,4.22573842 22.4024234,4.22154286 22.4013834,4.21629842 L22.4013834,4.21629842 C22.4019034,4.21105398 22.4029434,4.20685842 22.4019034,4.20213842 L22.4019034,4.20213842 C22.4019034,4.19741842 22.4039834,4.19269842 22.4024234,4.18745398 L22.4024234,4.18745398 C22.4029434,4.18273398 22.4045034,4.17853842 22.4029434,4.17381842 L22.4029434,4.17381842 C22.4034634,4.16857398 22.4050234,4.16385398 22.4039834,4.15913398 L22.4039834,4.15913398 C22.4039834,4.15388953 22.4065834,4.15021842 22.4045034,4.14497398 L22.4045034,4.14497398 C22.4050234,4.13972953 22.4065834,4.13553398 22.4050234,4.13081398 L22.4050234,4.13081398 C22.4060634,4.12556953 22.4071034,4.12189842 22.4065834,4.11612953 L22.4065834,4.11612953 C22.4065834,4.11088509 22.4081434,4.10721398 22.4065834,4.10196953 L22.4065834,4.10196953 C22.4071034,4.09672509 22.4086634,4.09305398 22.4071034,4.08780953 L22.4071034,4.08780953 C22.4076234,4.08256509 22.4091834,4.07836953 22.4081434,4.07364953 L22.4081434,4.07364953 C22.4081434,4.06840509 22.4102234,4.06420953 22.4086634,4.05896509 L22.4086634,4.05896509 C22.4091834,4.05372064 22.4107434,4.05004953 22.4091834,4.04480509 L22.4091834,4.04480509 C22.4097034,4.03956064 22.4112634,4.03536509 22.4102234,4.03012064 L22.4102234,4.03012064 C22.4102234,4.02540064 22.4123034,4.02120509 22.4107434,4.01596064 L22.4107434,4.01596064 C22.4112634,4.0107162 22.4128234,4.00704509 22.4112634,4.00180064 L22.4112634,4.00180064 C22.4117834,3.9965562 22.4133434,3.99288509 22.4123034,3.98764064 L22.4123034,3.98764064 C22.4123034,3.98187175 22.4143834,3.97820064 22.4128234,3.9729562 L22.4128234,3.9729562 C22.4133434,3.9682362 22.4143834,3.96404064 22.4133434,3.9587962 L22.4133434,3.9587962 C22.4133434,3.95355175 22.4154234,3.94988064 22.4143834,3.9446362 L22.4143834,3.9446362 C22.4143834,3.93939175 22.4159434,3.9351962 22.4149034,3.92995175 L22.4149034,3.92995175 C22.4154234,3.92470731 22.4159434,3.9210362 22.4154234,3.91579175 L22.4154234,3.91579175 C22.4154234,3.91054731 22.4175034,3.90635175 22.4159434,3.90163175 L22.4159434,3.90163175 C22.4159434,3.89638731 22.4180234,3.8927162 22.4159434,3.88694731 L22.4159434,3.88694731 C22.4164634,3.88170286 22.4185434,3.87803175 22.4175034,3.87278731 L22.4175034,3.87278731 C22.4175034,3.86754286 22.4195834,3.86387175 22.4185434,3.85862731 L22.4185434,3.85862731 C22.4185434,3.85338286 22.4201034,3.84918731 22.4185434,3.84446731 L22.4185434,3.84446731 C22.4190634,3.83922286 22.4201034,3.83502731 22.4195834,3.82978286 L22.4195834,3.82978286 C22.4195834,3.82453842 22.4211434,3.82086731 22.4201034,3.81562286 L22.4201034,3.81562286 C22.4201034,3.81037842 22.4216634,3.80618286 22.4201034,3.80093842 L22.4201034,3.80093842 C22.4206234,3.79621842 22.4221834,3.79202286 22.4211434,3.78677842 L22.4211434,3.78677842 C22.4211434,3.78153398 22.4237434,3.77786286 22.4216634,3.77261842 L22.4216634,3.77261842 C22.4221834,3.76789842 22.4242634,3.76370286 22.4221834,3.75845842 L22.4221834,3.75845842 C22.4227034,3.75321398 22.4247834,3.74901842 22.4237434,3.74429842 L22.4237434,3.74429842 C22.4237434,3.73905398 22.4253034,3.73485842 22.4242634,3.72961398 L22.4242634,3.72961398 C22.4247834,3.72489398 22.4258234,3.72069842 22.4247834,3.71597842 L22.4247834,3.71597842 C22.4258234,3.69080509 22.4143834,3.66510731 22.3795434,3.64622731 L22.3795434,3.64622731 L22.1075834,3.49518731 C22.0477834,3.46214731 21.9562634,3.46109842 21.9053034,3.49361398 L21.9053034,3.49361398 L20.6703034,4.27818286 L19.8601434,4.08518731 L20.0691834,3.95250286 C20.0972634,3.9351962 20.1045434,3.91107175 20.0988234,3.88747175 L20.0988234,3.88747175 C20.0988234,3.88222731 20.1003834,3.8785562 20.0993434,3.87331175 L20.0993434,3.87331175 C20.0993434,3.86806731 20.1014234,3.8643962 20.0993434,3.85862731 L20.0993434,3.85862731 C20.0998634,3.85390731 20.1019434,3.84971175 20.1003834,3.84446731 L20.1003834,3.84446731 C20.1003834,3.83922286 20.1029834,3.83555175 20.1014234,3.83030731 L20.1014234,3.83030731 C20.1019434,3.82506286 20.1035034,3.82139175 20.1019434,3.81614731 L20.1019434,3.81614731 C20.1024634,3.81090286 20.1035034,3.80670731 20.1029834,3.80146286 L20.1029834,3.80146286 C20.1029834,3.79674286 20.1045434,3.79254731 20.1035034,3.78730286 L20.1035034,3.78730286 C20.1035034,3.78205842 20.1050634,3.77838731 20.1035034,3.77314286 L20.1035034,3.77314286 C20.1040234,3.76789842 20.1055834,3.76422731 20.1045434,3.75845842 L20.1045434,3.75845842 C20.1045434,3.75321398 20.1066234,3.74954286 20.1050634,3.74429842 L20.1050634,3.74429842 C20.1055834,3.73905398 20.1066234,3.73538286 20.1055834,3.73013842 L20.1055834,3.73013842 C20.1055834,3.72541842 20.1081834,3.72122286 20.1066234,3.71597842 L20.1066234,3.71597842 C20.1066234,3.71073398 20.1087034,3.70653842 20.1076634,3.70129398 L20.1076634,3.70129398 C20.1081834,3.69657398 20.1087034,3.69237842 20.1081834,3.68765842 L20.1081834,3.68765842 C20.1081834,3.68241398 20.1097434,3.67769398 20.1087034,3.67297398 L20.1087034,3.67297398 C20.1087034,3.66825398 20.1102634,3.66405842 20.1087034,3.65881398 L20.1087034,3.65881398 C20.1092234,3.65356953 20.1107834,3.64937398 20.1097434,3.64465398 L20.1097434,3.64465398 C20.1097434,3.63940953 20.1118234,3.63573842 20.1102634,3.62996953 L20.1102634,3.62996953 C20.1107834,3.62524953 20.1123434,3.62105398 20.1107834,3.61580953 L20.1107834,3.61580953 C20.1113034,3.61056509 20.1128634,3.60689398 20.1118234,3.60164953 L20.1118234,3.60164953 C20.1118234,3.59640509 20.1139034,3.59273398 20.1123434,3.58748953 L20.1123434,3.58748953 C20.1128634,3.58224509 20.1144234,3.57804953 20.1128634,3.57280509 L20.1128634,3.57280509 C20.1133834,3.56808509 20.1149434,3.56388953 20.1139034,3.55864509 L20.1139034,3.55864509 C20.1139034,3.55340064 20.1159834,3.54972953 20.1144234,3.54448509 L20.1144234,3.54448509 C20.1149434,3.53924064 20.1165034,3.53556953 20.1149434,3.52980064 L20.1149434,3.52980064 C20.1154634,3.5245562 20.1170234,3.52088509 20.1159834,3.51564064 L20.1159834,3.51564064 C20.1159834,3.5103962 20.1180634,3.50672509 20.1165034,3.50148064 L20.1165034,3.50148064 C20.1170234,3.4962362 20.1180634,3.49256509 20.1170234,3.48732064 L20.1170234,3.48732064 C20.1175434,3.4820762 20.1191034,3.47788064 20.1180634,3.4726362 L20.1180634,3.4726362 C20.1180634,3.46739175 20.1201434,3.46372064 20.1180634,3.4584762 L20.1180634,3.4584762 C20.1191034,3.45323175 20.1206634,3.4490362 20.1191034,3.4443162 L20.1191034,3.4443162 C20.1196234,3.43907175 20.1211834,3.4348762 20.1201434,3.42963175 L20.1201434,3.42963175 C20.1201434,3.42438731 20.1222234,3.4207162 20.1206634,3.41547175 L20.1206634,3.41547175 C20.1211834,3.41022731 20.1227434,3.4065562 20.1211834,3.40078731 L20.1211834,3.40078731 C20.1217034,3.39606731 20.1227434,3.39187175 20.1222234,3.38662731 L20.1222234,3.38662731 C20.1222234,3.38138286 20.1237834,3.37771175 20.1227434,3.37246731 L20.1227434,3.37246731 C20.1227434,3.36722286 20.1237834,3.36355175 20.1227434,3.35830731 L20.1227434,3.35830731 C20.1227434,3.35306286 20.1253434,3.34886731 20.1237834,3.34362286 L20.1237834,3.34362286 C20.1237834,3.33890286 20.1263834,3.33470731 20.1243034,3.32946286 L20.1243034,3.32946286 C20.1253434,3.32421842 20.1263834,3.32002286 20.1253434,3.31530286 L20.1253434,3.31530286 C20.1253434,3.31005842 20.1269034,3.30638731 20.1263834,3.30061842 L20.1263834,3.30061842 C20.1263834,3.29589842 20.1274234,3.29170286 20.1263834,3.28645842 L20.1263834,3.28645842 C20.1269034,3.28121398 20.1279434,3.27754286 20.1269034,3.27229842 L20.1269034,3.27229842 C20.1269034,3.26757842 20.1289834,3.26338286 20.1279434,3.25813842 L20.1279434,3.25813842 C20.1279434,3.25289398 20.1295034,3.24869842 20.1279434,3.24345398 L20.1279434,3.24345398 C20.1284634,3.23873398 20.1300234,3.23453842 20.1289834,3.22929398 L20.1289834,3.22929398 C20.1289834,3.22457398 20.1315834,3.21985398 20.1295034,3.21565842 L20.1295034,3.21565842 C20.1300234,3.21041398 20.1315834,3.20621842 20.1300234,3.20097398 L20.1300234,3.20097398 C20.1305434,3.19572953 20.1321034,3.19153398 20.1315834,3.18681398 L20.1315834,3.18681398 C20.1315834,3.18156953 20.1331434,3.17789842 20.1315834,3.17212953 L20.1315834,3.17212953 C20.1331434,3.14748064 20.1217034,3.12230731 20.0863434,3.10290286 L20.0863434,3.10290286 L19.8159434,2.95238731 C19.7556234,2.91882286 19.6641034,2.91829842 19.6131434,2.95081398 L19.6131434,2.95081398 L18.3812634,3.73328509 L14.4074234,2.78718731 C14.2961434,2.75729398 14.1708234,2.74051175 14.0444634,2.73998731 L14.0444634,2.73998731 L14.0283434,2.73998731 Z M14.5161034,3.93939175 L17.0755434,4.5629562 L15.7516234,5.40364064 L14.5161034,3.93939175 Z M16.4614234,6.24484953 L18.5445434,4.92115175 L19.3495034,5.11729398 L16.8498634,6.70478731 L16.4614234,6.24484953 Z" id="Fill-1" fill="url(#linearGradient-15)"></path>
                <path d="M14.4073194,2.78750198 L18.3804913,3.7331825 L19.6134034,2.95118109 C19.6643634,2.91814109 19.7553634,2.91918998 19.8156834,2.95275442 L20.0871234,3.10274553 C20.1469234,3.13630998 20.1547234,3.19032775 20.1032434,3.22284331 L19.0474913,3.8921825 L20.6694913,4.2781825 L21.9051474,3.49350909 C21.9561074,3.46099353 22.0476274,3.46204242 22.1074274,3.49508242 L22.3799074,3.64612242 C22.4402274,3.67968686 22.4475074,3.73370464 22.3960274,3.7662202 L21.3384913,4.4371825 L26.0220394,5.55237309 C26.2279594,5.59485309 26.3293594,5.73435531 26.1499594,5.8486842 C26.0298394,5.92472864 25.9102394,5.95357309 25.7511194,5.91319086 L20.8534913,4.7451825 L17.1364913,7.1061825 L17.4812922,7.51894506 C18.1288005,8.29850988 18.8490727,9.18860864 19.4570394,9.94249753 C19.4970794,10.0117242 19.4695194,10.0919642 19.3795594,10.1491286 C19.2495594,10.2314664 19.0467594,10.2503464 18.9281994,10.1842664 L18.8886794,10.1622398 L16.6524913,7.4131825 L15.5954674,8.08606909 C15.5439874,8.11858464 15.4529874,8.11753575 15.3926674,8.08449575 L15.1207074,7.93345575 C15.0609074,7.89989131 15.0531074,7.84587353 15.1045874,7.81335798 L16.3394913,7.0281825 L15.5804913,6.0941825 L14.5262434,6.76494109 C14.4758034,6.79745664 14.3842834,6.7969322 14.3239634,6.76336775 L14.0530434,6.61337664 C13.9927234,6.5798122 13.9849234,6.52579442 14.0364034,6.49327886 L15.2674913,5.7101825 L13.4073594,3.4226042 C13.2726794,3.24062198 13.2638394,3.00986642 13.4744394,2.87665753 C13.7146794,2.7240442 14.1124794,2.70726198 14.4073194,2.78750198 Z M18.5764913,4.1911825 L16.0714913,5.7821825 L16.8494913,6.7041825 L20.1874913,4.5841825 L18.5764913,4.1911825 Z M14.0869994,3.43099531 L15.7514913,5.4031825 L17.9134913,4.0291825 L14.4676394,3.18922642 C13.9569994,3.07279975 13.8503994,3.15671086 14.0869994,3.43099531 Z" id="Combined-Shape" fill="#52FCFF"></path>
            </g>
            <g id="coin-copy" transform="translate(69.000000, 5.042735)" fillRule="nonzero">
                <path d="M7.30116732,11.8011983 C7.30116732,21.4832496 13.8381323,32.5215415 21.8599222,36.4536976 C24.4466926,37.720464 26.8700389,38.0924884 28.9758755,37.6969182 L28.8451362,38.6811345 L31.7167315,36.6467735 C31.9872418,36.4771412 32.2476145,36.2915928 32.4964981,36.0910916 L32.5431907,36.0581274 L32.5431907,36.0581274 C34.9525292,34.1085315 36.4233463,30.6472923 36.4233463,26.0464343 C36.4233463,16.364383 29.8863813,5.32609107 21.8692607,1.39393502 C18.0077821,-0.489732541 14.5058366,-0.400258331 11.9003891,1.2762058 L11.9003891,1.2762058 L11.7883268,1.3515525 L11.4568093,1.58701095 L8.51984436,3.64962693 L9.77120623,3.26347508 C8.20700389,5.28841771 7.30116732,8.1986841 7.30116732,11.8011983 Z M13.8894942,15.0034332 C13.8894942,9.70561815 17.4568093,7.1532486 21.8599222,9.3053388 C26.263035,11.457429 29.8303502,17.5040019 29.8303502,22.8065261 C29.8303502,28.1090503 26.263035,30.6567106 21.8599222,28.5046204 C17.4568093,26.3525303 13.8894942,20.324794 13.8894942,15.0034332 Z" id="Shape" fill="url(#linearGradient-16)"></path>
                <path d="M18.5540856,3.87095787 C10.5136187,-0.0659073387 4,4.59616988 4,14.2782212 C4,23.9602724 10.536965,34.9985644 18.5540856,38.9307204 C26.5712062,42.8628765 33.1128405,38.2055084 33.1128405,28.5234571 C33.1128405,18.8414058 26.5945525,7.80311391 18.5540856,3.87095787 Z M18.5540856,31.00048 C14.1509728,28.8436806 10.5836576,22.8018169 10.5836576,17.4992927 C10.5836576,12.1967685 14.1509728,9.64910813 18.5540856,11.8011983 C22.9571984,13.9532885 26.5245136,19.9998614 26.5245136,25.3023856 C26.5245136,30.6049098 22.9571984,33.1525702 18.5540856,31.0146075 L18.5540856,31.00048 Z" id="Shape" fill="#163FA5"></path>
                <ellipse id="Oval" fill="#52FCFF" opacity="0.7" transform="translate(18.553470, 21.248407) rotate(-27.860000) translate(-18.553470, -21.248407) " cx="18.5534696" cy="21.248407" rx="10.960677" ry="17.6925509"></ellipse>
                <path d="M17.8863813,10.3225193 C18.3394949,10.6632207 18.6400818,11.1713034 18.722179,11.73527 L20.8356965,19.4112943 L23.2560311,20.9040218 C23.4054982,21.0146426 23.4966454,21.1880883 23.5035019,21.3749387 L23.5035019,21.8034731 C23.4848249,21.9871307 23.3727626,22.0671865 23.2560311,21.9777123 L21.1916965,20.7032943 L22.0576965,23.8482943 L24.4607004,25.3306406 C24.6101675,25.4412614 24.7013147,25.6147071 24.7081712,25.8015575 L24.7081712,26.234801 C24.7081712,26.4137495 24.5961089,26.4890962 24.4607004,26.4043311 L22.4136965,25.1412943 L24.6194553,33.147861 C24.740856,33.538722 24.9322957,34.1367865 24.5634241,34.2215515 C24.077821,34.3439899 23.8396887,33.9484197 23.7603113,33.6376146 L21.0786965,24.3172943 L13.9976965,19.9492943 L13.7312774,20.6181881 C13.001678,22.4324415 12.1268482,24.5112452 11.3914397,26.2583469 C11.3120623,26.3807853 11.1533074,26.3996219 10.9712062,26.2866019 C10.7097276,26.1264901 10.6536965,26.0323068 10.6536965,25.7733025 L10.6536965,25.6885374 L13.2156965,19.4672943 L10.9712062,18.0832296 C10.8188835,17.9745562 10.7256218,17.8003732 10.7190661,17.6123128 L10.7190661,17.17436 C10.7190661,17.0001208 10.8311284,16.9247741 10.9712062,17.0095391 L13.5676965,18.6112943 L14.4256965,16.5282943 L12.2132296,15.1635449 C12.0632226,15.0533954 11.9719255,14.8796644 11.9657588,14.692628 L11.9657588,14.2593845 C11.9657588,14.0851452 12.077821,14.0097985 12.2132296,14.0945636 L14.7766965,15.6752943 L16.8217899,10.7086711 C16.9021469,10.5062116 17.0645728,10.3481147 17.2680434,10.2743112 C17.4715141,10.2005078 17.6965746,10.2180544 17.8863813,10.3225193 Z M15.2336965,17.0272943 L14.4066965,19.1282943 L20.7806965,23.0602943 L19.9316965,19.9262943 L15.2336965,17.0272943 Z M17.2,12.0366568 L15.5726965,16.1662943 L19.5826965,18.6392943 L17.9610895,12.6488487 C17.6809339,11.6693416 17.4381323,11.4056281 17.2,12.0366568 Z" id="Combined-Shape" fill="#1D45BA"></path>
            </g>
            <path d="M85.7769231,92.5442735 L86.7230769,93.0935437 L86.7230769,94.4062064 L85.7769231,93.8569362 L85.7769231,92.5442735 Z M83.3723077,89.1741749 L84.4384615,89.7932676 L84.4384615,93.0795792 L83.3723077,92.4558317 L83.3723077,89.1741749 Z M79.2138462,88.7226561 L82.0338462,90.3611571 L82.0338462,91.6784747 L79.2138462,90.0353189 L79.2138462,88.7226561 Z M85.7769231,89.6117291 L86.7230769,90.1609993 L86.7230769,91.4736621 L85.7769231,90.9243918 L85.7769231,89.6117291 Z M79.2138462,85.7901118 L82.0338462,87.4332676 L82.0338462,88.7459303 L79.2138462,87.1027745 L79.2138462,85.7901118 Z M85.7769231,86.6791847 L86.7230769,87.228455 L86.7230769,88.5411177 L85.7769231,87.9918475 L85.7769231,86.6791847 Z M83.3723077,86.2416305 L84.4384615,86.8607232 L84.4384615,88.1733859 L83.3723077,87.5542932 L83.3723077,86.2416305 Z M79.2138462,82.8575674 L82.0338462,84.4960684 L82.0338462,85.8133859 L79.2138462,84.1702301 L79.2138462,82.8575674 Z M85.7769231,83.7466404 L86.7230769,84.2959106 L86.7230769,85.6085733 L85.7769231,85.0593031 L85.7769231,83.7466404 Z M83.3723077,83.3090861 L84.4384615,83.9281788 L84.4384615,85.2408416 L83.3723077,84.6217488 L83.3723077,83.3090861 Z M79.2138462,79.925023 L82.0338462,81.5681788 L82.0338462,82.8808416 L79.2138462,81.2376857 L79.2138462,79.925023 Z M85.7769231,80.814096 L86.7230769,81.3633662 L86.7230769,82.6760289 L85.7769231,82.1267587 L85.7769231,80.814096 Z M83.3723077,71.8814727 L84.4384615,72.5052202 L84.4384615,82.3082972 L83.3723077,81.6892045 L83.3723077,71.8814727 Z M79.2138462,76.9924786 L82.0338462,78.6309796 L82.0338462,79.9436423 L79.2138462,78.3051414 L79.2138462,76.9924786 Z M85.7769231,75.9125575 L86.7230769,76.4618277 L86.7230769,79.7434845 L85.7769231,79.1942143 L85.7769231,75.9125575 Z M79.2138462,72.0909402 L82.0338462,73.7294412 L82.0338462,77.0157528 L79.2138462,75.372597 L79.2138462,72.0909402 Z M85.7769231,71.0110191 L86.7230769,71.5602893 L86.7230769,74.8419461 L85.7769231,74.2926759 L85.7769231,71.0110191 Z M79.2138462,67.1847469 L82.0338462,68.8279027 L82.0338462,72.1095595 L79.2138462,70.4710585 L79.2138462,67.1847469 Z M83.3723077,64.4849441 L84.4384615,65.1086917 L84.4384615,70.8853386 L83.3723077,70.2662459 L83.3723077,64.4849441 Z M85.7769231,66.1048258 L86.7230769,66.6587508 L86.7230769,69.9404076 L85.7769231,69.3911374 L85.7769231,66.1048258 Z M79.2138462,62.2832084 L82.0338462,63.9263642 L82.0338462,67.208021 L79.2138462,65.5695201 L79.2138462,62.2832084 Z M85.7769231,61.2032873 L86.7230769,61.7525575 L86.7230769,65.0388692 L85.7769231,64.4895989 L85.7769231,61.2032873 Z M83.3723077,59.5834057 L84.4384615,60.2071532 L84.4384615,63.48881 L83.3723077,62.8650625 L83.3723077,59.5834057 Z M79.2138462,57.38167 L82.0338462,59.0248258 L82.0338462,62.3064826 L79.2138462,60.6633268 L79.2138462,57.38167 Z M85.7769231,53.8067587 L86.7230769,54.3560289 L86.7230769,60.1326759 L85.7769231,59.5834057 L85.7769231,53.8067587 Z M83.3723077,54.6818672 L84.4384615,55.3056147 L84.4384615,58.5872715 L83.3723077,57.963524 L83.3723077,54.6818672 Z M83.3723077,49.7803287 L84.4384615,50.3994214 L84.4384615,53.6857331 L83.3723077,53.0619855 L83.3723077,49.7803287 Z M85.7769231,42.3838001 L86.7230769,42.9330703 L86.7230769,52.7361473 L85.7769231,52.1868771 L85.7769231,42.3838001 Z M79.2138462,38.5621828 L82.0338462,40.2006838 L82.0338462,50.0084155 L79.2138462,48.3652597 L79.2138462,38.5621828 Z M83.3723077,44.8787903 L84.4384615,45.497883 L84.4384615,48.7841946 L83.3723077,48.1604471 L83.3723077,44.8787903 Z M83.3723077,41.9462459 L84.4384615,42.5653386 L84.4384615,43.8780013 L83.3723077,43.2589086 L83.3723077,41.9462459 Z M85.7769231,39.4512558 L86.7230769,40.000526 L86.7230769,41.3131887 L85.7769231,40.7639185 L85.7769231,39.4512558 Z M83.3723077,39.0137015 L84.4384615,39.6327942 L84.4384615,40.9454569 L83.3723077,40.3263642 L83.3723077,39.0137015 Z M79.2138462,35.6296384 L82.0338462,37.2681394 L82.0338462,38.5854569 L79.2138462,36.9423011 L79.2138462,35.6296384 Z M85.7769231,36.5187114 L86.7230769,37.0679816 L86.7230769,38.3806443 L85.7769231,37.8313741 L85.7769231,36.5187114 Z M83.3723077,36.0811571 L84.4384615,36.7002498 L84.4384615,38.0129126 L83.3723077,37.3938199 L83.3723077,36.0811571 Z M79.2138462,32.697094 L82.0338462,34.335595 L82.0338462,35.6482577 L79.2138462,34.0097567 L79.2138462,32.697094 Z M85.7769231,31.6171729 L86.7230769,32.1664431 L86.7230769,35.4480999 L85.7769231,34.8988297 L85.7769231,31.6171729 Z M83.3723077,33.1486128 L84.4384615,33.7677055 L84.4384615,35.0803682 L83.3723077,34.4612755 L83.3723077,33.1486128 Z M79.2138462,27.7955556 L82.0338462,29.4340565 L82.0338462,32.7157133 L79.2138462,31.0772124 L79.2138462,27.7955556 Z M83.3723077,30.2160684 L84.4384615,30.8351611 L84.4384615,32.1478238 L83.3723077,31.5287311 L83.3723077,30.2160684 Z" id="Combined-Shape" fill="#42FFFF" fillRule="nonzero" opacity="0.5"></path>
            <path d="M90,35.1223014 C90,34.1780194 90.8440905,33.7515694 91.8658843,34.1475586 L91.8658843,34.1475586 L92.1324392,34.2694015 C93.1986588,34.6653907 94.0427493,35.7619763 93.9983235,36.7245348 L93.9983235,92.8767347 C93.9983235,92.8767347 90,95 90,95 L90,95 Z M98,47.9109798 C98,47.1444995 98.8444444,46.7983472 99.8666667,47.1197744 L99.8666667,47.1197744 L100.133333,47.2186751 C101.155556,47.5401023 102,48.4302084 102,49.2214138 L102,49.2214138 L102,88.1533084 C102,88.3153583 98,90.5398136 98,90.5488042 L98,90.5488042 Z M106,60.3359369 C106,59.2119062 106.844429,58.7042794 107.866632,59.1756471 L107.866632,59.1756471 L108.133293,59.3206834 C109.310236,59.9892519 110.008339,61.0876567 109.999925,62.2576667 L109.999925,62.2576667 L109.999925,83.6683771 C109.999925,83.6683771 106,85.9253163 106,86.0001736 L106,86.0001736 Z M114,68.3176236 C114,67.2090014 114.844429,66.7083332 115.866632,67.1732393 L115.866632,67.1732393 L116.133293,67.3162874 C117.310236,67.9756911 118.008339,69.0590387 117.999925,70.2130101 L117.999925,70.2130101 L117.999925,78.9230768 C115.333308,80.4705495 114,81.2496608 114,81.2604107 L114,81.2604107 Z" id="Combined-Shape-Copy" fill="url(#linearGradient-17)" fillRule="nonzero" opacity="0.300000012"></path>
        </g>
    </g>
</svg>