<?xml version="1.0" encoding="UTF-8"?>
<svg width="182px" height="118px" viewBox="0 0 182 118" version="1.1" xmlns="http://www.w3.org/2000/svg" xmlns:xlink="http://www.w3.org/1999/xlink">
    <!-- Generator: Sketch 60 (88103) - https://sketch.com -->
    <title>Begginer level</title>
    <desc>Created with Sketch.</desc>
    <defs>
        <linearGradient x1="-0.0147240201%" y1="50.0002897%" x2="99.9849031%" y2="50.0002897%" id="linearGradient-1">
            <stop stop-color="#17D1AA" offset="0%"></stop>
            <stop stop-color="#1AC2AE" offset="7%"></stop>
            <stop stop-color="#229BB8" offset="27%"></stop>
            <stop stop-color="#297CC0" offset="46%"></stop>
            <stop stop-color="#2D66C6" offset="65%"></stop>
            <stop stop-color="#3059CA" offset="83%"></stop>
            <stop stop-color="#3154CB" offset="100%"></stop>
        </linearGradient>
        <linearGradient x1="102.862637%" y1="121.245157%" x2="102.862637%" y2="21.9495526%" id="linearGradient-2">
            <stop stop-color="#17D1AA" offset="0%"></stop>
            <stop stop-color="#1AC2AE" offset="7%"></stop>
            <stop stop-color="#229BB8" offset="27%"></stop>
            <stop stop-color="#297CC0" offset="46%"></stop>
            <stop stop-color="#2D66C6" offset="65%"></stop>
            <stop stop-color="#3059CA" offset="83%"></stop>
            <stop stop-color="#3154CB" offset="100%"></stop>
        </linearGradient>
        <radialGradient cx="51.2439901%" cy="87.478437%" fx="51.2439901%" fy="87.478437%" r="96.1032352%" gradientTransform="translate(0.512440,0.874784),scale(0.571001,1.000000),translate(-0.512440,-0.874784)" id="radialGradient-3">
            <stop stop-color="#17D1AA" offset="0%"></stop>
            <stop stop-color="#1AC2AE" offset="7%"></stop>
            <stop stop-color="#229BB8" offset="27%"></stop>
            <stop stop-color="#297CC0" offset="46%"></stop>
            <stop stop-color="#2D66C6" offset="65%"></stop>
            <stop stop-color="#3059CA" offset="83%"></stop>
            <stop stop-color="#3154CB" offset="100%"></stop>
        </radialGradient>
        <linearGradient x1="50%" y1="100.033568%" x2="50%" y2="1.19258599e-13%" id="linearGradient-4">
            <stop stop-color="#3154CB" offset="0%"></stop>
            <stop stop-color="#3059CA" offset="17%"></stop>
            <stop stop-color="#2D66C6" offset="35%"></stop>
            <stop stop-color="#297CC0" offset="54%"></stop>
            <stop stop-color="#229BB8" offset="73%"></stop>
            <stop stop-color="#1AC2AE" offset="93%"></stop>
            <stop stop-color="#17D1AA" offset="100%"></stop>
        </linearGradient>
        <linearGradient x1="50%" y1="2329.60724%" x2="50%" y2="2429.64081%" id="linearGradient-5">
            <stop stop-color="#3154CB" offset="0%"></stop>
            <stop stop-color="#3059CA" offset="17%"></stop>
            <stop stop-color="#2D66C6" offset="35%"></stop>
            <stop stop-color="#297CC0" offset="54%"></stop>
            <stop stop-color="#229BB8" offset="73%"></stop>
            <stop stop-color="#1AC2AE" offset="93%"></stop>
            <stop stop-color="#17D1AA" offset="100%"></stop>
        </linearGradient>
        <linearGradient x1="49.9919833%" y1="78.2430116%" x2="49.9919833%" y2="-34.8078157%" id="linearGradient-6">
            <stop stop-color="#1D45BA" offset="0%"></stop>
            <stop stop-color="#1D47BA" offset="42%"></stop>
            <stop stop-color="#1D4EB9" offset="57%"></stop>
            <stop stop-color="#1C59B8" offset="68%"></stop>
            <stop stop-color="#1B6AB6" offset="77%"></stop>
            <stop stop-color="#1A80B3" offset="84%"></stop>
            <stop stop-color="#199CB0" offset="91%"></stop>
            <stop stop-color="#18BBAD" offset="97%"></stop>
            <stop stop-color="#17D1AA" offset="100%"></stop>
        </linearGradient>
        <linearGradient x1="106.683045%" y1="117.458354%" x2="106.683045%" y2="18.5176796%" id="linearGradient-7">
            <stop stop-color="#17D1AA" offset="0%"></stop>
            <stop stop-color="#1AC2AE" offset="7%"></stop>
            <stop stop-color="#229BB8" offset="27%"></stop>
            <stop stop-color="#297CC0" offset="46%"></stop>
            <stop stop-color="#2D66C6" offset="65%"></stop>
            <stop stop-color="#3059CA" offset="83%"></stop>
            <stop stop-color="#3154CB" offset="100%"></stop>
        </linearGradient>
    </defs>
    <g id="Begginer-level" stroke="none" stroke-width="1" fill="none" fill-rule="evenodd">
        <g transform="translate(4.000000, 0.000000)">
            <g id="grid" opacity="0.2" transform="translate(0.202335, 23.018932)" stroke="#1D45BA" stroke-width="0.5">
                <path d="M58.7859922,92.8041853 L172.48249,28.1690612 M15.5953307,60.625524 L121.680934,0.296321486 M60.3268482,2.61133309 L161.976654,60.3940228 M0.280155642,36.8735049 L100.715953,93.9153909" id="Combined-Shape"></path>
            </g>
            <path d="M79.5797665,104.803682 C78.8576916,104.800052 78.1492353,104.608461 77.5252918,104.248059 L35.4085603,80.2182389 C34.9270971,79.9374065 34.6267149,79.4292958 34.6146108,78.8755322 C34.6062225,78.3162184 34.9122027,77.7986383 35.4085603,77.5328254 L81.5875486,51.0953929 C82.8384646,50.3541439 84.3988895,50.3541439 85.6498054,51.0953929 L127.766537,75.1252134 C128.248,75.4060457 128.548382,75.9141564 128.560486,76.4679201 C128.568875,77.0272339 128.262895,77.544814 127.766537,77.8106268 L81.5875486,104.248059 C80.9828895,104.6136 80.2879342,104.805911 79.5797665,104.803682 L79.5797665,104.803682 Z M83.6420233,52.0213975 C83.1801733,52.023342 82.7278032,52.1515045 82.3346304,52.3917994 L36.155642,78.8292319 C36.1089494,78.8755322 36.1089494,78.8755322 36.1089494,78.9681326 C36.1027713,79.0190282 36.1199034,79.0699926 36.155642,79.1070333 L78.2723735,103.136854 L78.2723735,103.136854 C79.0980954,103.599856 80.1081302,103.599856 80.9338521,103.136854 L127.11284,76.6994212 C127.159533,76.653121 127.159533,76.653121 127.159533,76.5605206 C127.165711,76.509625 127.148579,76.4586606 127.11284,76.4216199 L84.9961089,52.3917994 C84.588598,52.1334213 84.1114002,52.0042233 83.6280156,52.0213975 L83.6420233,52.0213975 Z" id="Shape" fill="url(#linearGradient-1)" fill-rule="nonzero"></path>
            <path d="M53.7914397,2.55422947 C53.7914397,1.11892228 54.6785992,0.470719027 55.7525292,1.07262204 L55.7525292,1.07262204 L56.0326848,1.25782297 C57.1066148,1.87824608 57.9937743,3.54505444 58.0404669,5.02666187 L58.0404669,5.02666187 L58.0404669,76.0789981 C58.0404669,77.5143053 55.7525292,77.3754046 55.7525292,77.3754046 C54.6785992,76.7272014 53.7914397,75.060393 53.7914397,73.6250858 L53.7914397,73.6250858 Z M61.7291829,20.61132 C61.7291829,19.1760128 62.6163424,18.5278096 63.6902724,19.1297126 L63.6902724,19.1297126 L63.970428,19.3149135 C65.1050584,19.9353366 65.9782101,21.6299251 65.9782101,23.0837524 L65.9782101,23.0837524 L65.9782101,71.4952752 C65.9782101,72.9305823 63.6902724,72.7916817 63.6902724,72.7916817 C62.6163424,72.1434784 61.7291829,71.865677 61.7291829,70.4303698 L61.7291829,70.4303698 Z" id="Combined-Shape" fill="url(#linearGradient-2)" fill-rule="nonzero" opacity="0.300000012"></path>
            <path d="M79.9206226,94.9046725 L51.6856031,78.7458915 C50.5322957,78.1069483 50.6677043,76.9633326 52.0077821,76.1901187 L79.5937743,60.4480398 C80.9338521,59.6701959 82.9182879,59.6238956 84.0715953,60.2628388 L112.306615,76.3753196 C113.459922,77.0142628 113.319844,78.1578786 111.984436,78.9310924 L84.3937743,94.6731714 C83.0536965,95.4510153 81.0272374,95.5436157 79.9206226,94.9046725 Z" id="Path" fill="url(#radialGradient-3)" fill-rule="nonzero"></path>
            <path d="M51.6856031,78.7458915 L54.1743191,80.1348985 L79.5797665,65.6475558 C80.9198444,64.8697119 82.9042802,64.8234117 84.0575875,65.4623549 L109.799222,80.1580486 L111.970428,78.9264624 C113.305837,78.1532485 113.445914,77.0744531 112.292607,76.3706896 L84.0575875,60.2582088 C82.9042802,59.6192656 80.9198444,59.6655658 79.5797665,60.4434097 L51.9937743,76.1854887 C50.6677043,76.9633326 50.5322957,78.1162084 51.6856031,78.7458915 Z" id="Path" fill="#2C30D1" fill-rule="nonzero"></path>
            <path d="M112.624125,77.6532062 L112.624125,77.6532062 C112.512672,77.6532062 112.405784,77.6093036 112.326975,77.5311568 C112.248166,77.45301 112.203891,77.3470202 112.203891,77.2365039 L112.203891,22.8985515 C112.203891,22.6684133 112.392036,22.4818494 112.624125,22.4818494 L112.624125,22.4818494 C112.856213,22.4818494 113.044358,22.6684133 113.044358,22.8985515 L113.044358,77.255024 C113.034359,77.4778992 112.849111,77.6532062 112.624125,77.6532062 L112.624125,77.6532062 Z" id="Path" fill="url(#linearGradient-4)" fill-rule="nonzero" opacity="0.66"></path>
            <path d="M51.4568093,77.6532062 L51.4568093,77.6532062 C51.3453565,77.6532062 51.2384685,77.6093036 51.1596594,77.5311568 C51.0808503,77.45301 51.0365759,77.3470202 51.0365759,77.2365039 L51.0365759,22.8985515 C51.0365759,22.6684133 51.2247208,22.4818494 51.4568093,22.4818494 L51.4568093,22.4818494 C51.6888979,22.4818494 51.8770428,22.6684133 51.8770428,22.8985515 L51.8770428,77.255024 C51.8670435,77.4778992 51.6817955,77.6532062 51.4568093,77.6532062 L51.4568093,77.6532062 Z" id="Path" fill="url(#linearGradient-5)" fill-rule="nonzero" opacity="0.66"></path>
            <path d="M67.3603113,45.7986463 C67.3603113,55.317974 73.8972763,66.1707485 81.9190661,70.0368178 C84.5058366,71.2822941 86.9291829,71.6480659 89.0350195,71.259144 L88.9042802,72.2268188 L91.7758755,70.2266488 C92.0463858,70.0598674 92.3067585,69.8774375 92.555642,69.6803061 L92.6023346,69.6478959 L92.6023346,69.6478959 C95.0116732,67.7310663 96.4824903,64.3279992 96.4824903,59.8044665 C96.4824903,50.2851388 89.9455253,39.4323644 81.9284047,35.566295 C78.0669261,33.7142857 74.5649805,33.8022562 71.9595331,35.4505444 L71.9595331,35.4505444 L71.8474708,35.5246248 L71.5159533,35.756126 L68.5789883,37.7840761 L69.8303502,37.4044142 C68.2661479,39.3953242 67.3603113,42.2566785 67.3603113,45.7986463 Z M73.9486381,48.9470621 C73.9486381,43.738286 77.5159533,41.2288134 81.9190661,43.344734 C86.322179,45.4606546 89.8894942,51.4056044 89.8894942,56.6190106 C89.8894942,61.8324167 86.322179,64.3372593 81.9190661,62.2213387 C77.5159533,60.105418 73.9486381,54.1789883 73.9486381,48.9470621 Z" id="Shape" fill="url(#linearGradient-6)" fill-rule="nonzero"></path>
            <path d="M78.6132296,38.0016872 C70.5727626,34.1309878 64.059144,38.7147108 64.059144,48.2340385 C64.059144,57.7533662 70.5961089,68.6061407 78.6132296,72.4722101 C86.6303502,76.3382794 93.1719844,71.7591865 93.1719844,62.2398587 C93.1719844,52.720531 86.6536965,41.8677566 78.6132296,38.0016872 Z M78.6132296,64.675251 C74.2101167,62.5547003 70.6428016,56.6143805 70.6428016,51.4009744 C70.6428016,46.1875683 74.2101167,43.6827257 78.6132296,45.7986463 C83.0163424,47.9145669 86.5836576,53.8595167 86.5836576,59.0729229 C86.5836576,64.286329 83.0163424,66.7911716 78.6132296,64.689141 L78.6132296,64.675251 Z" id="Shape" fill="#163FA5" fill-rule="nonzero"></path>
            <ellipse id="Oval" fill="#52FCFF" fill-rule="nonzero" opacity="0.7" transform="translate(78.612614, 55.087078) rotate(-27.860000) translate(-78.612614, -55.087078) " cx="78.6126136" cy="55.0870784" rx="10.9201754" ry="17.4597023"></ellipse>
            <path d="M77.9455253,44.344819 C78.3986388,44.6797943 78.6992258,45.1793379 78.781323,45.733826 L80.8948405,53.2811608 L83.3151751,54.7484812 C83.4646422,54.8572428 83.5557894,55.0277734 83.5626459,55.2114835 L83.5626459,55.6328156 C83.5439689,55.8133865 83.4319066,55.8920969 83.3151751,55.8041265 L81.2508405,54.5511608 L82.1168405,57.6431608 L84.5198444,59.100703 C84.6693115,59.2094646 84.7604587,59.3799953 84.7673152,59.5637053 L84.7673152,59.9896675 C84.7673152,60.1656083 84.6552529,60.2396887 84.5198444,60.1563483 L82.4728405,58.9151608 L84.6785992,66.7865415 C84.8,67.1708335 84.9914397,67.7588464 84.6225681,67.8421868 C84.136965,67.9625674 83.8988327,67.5736455 83.8194553,67.268064 L81.1378405,58.1041608 L74.0568405,53.8101608 L73.7904213,54.4674514 C73.060822,56.2512131 72.1859922,58.295079 71.4505837,60.0128176 C71.3712062,60.1331982 71.2124514,60.1517183 71.0303502,60.0405977 C70.7688716,59.8831769 70.7128405,59.7905765 70.7128405,59.5359252 L70.7128405,59.4525848 L73.2748405,53.3351608 L71.0303502,51.9750973 C70.8780274,51.8682503 70.7847657,51.6969947 70.7782101,51.512095 L70.7782101,51.0815028 C70.7782101,50.9101919 70.8902724,50.8361116 71.0303502,50.919452 L73.6268405,52.4941608 L74.4848405,50.4461608 L72.2723735,49.1044829 C72.1223666,48.9961846 72.0310695,48.8253735 72.0249027,48.6414806 L72.0249027,48.2155184 C72.0249027,48.0442076 72.136965,47.9701272 72.2723735,48.0534676 L74.8358405,49.6071608 L76.8809339,44.7244809 C76.9612909,44.5254241 77.1237168,44.3699843 77.3271874,44.2974212 C77.530658,44.2248581 77.7557186,44.2421098 77.9455253,44.344819 Z M75.2928405,50.9371608 L74.4658405,53.0031608 L80.8398405,56.8681608 L79.9908405,53.7871608 L75.2928405,50.9371608 Z M77.259144,46.0301475 L75.6318405,50.0901608 L79.6428405,52.5221608 L78.0202335,46.6320505 C77.7400778,45.6690057 77.4972763,45.4097244 77.259144,46.0301475 Z" id="Combined-Shape" fill="#1D45BA" fill-rule="nonzero"></path>
            <path d="M83.5346304,17.3222331 C83.5346304,16.0966058 84.4217899,15.5430966 85.4957198,16.0570694 L85.4957198,16.0570694 L85.7758755,16.2152149 C86.8964981,16.7291876 87.7836576,18.1524968 87.736965,19.401846 L87.736965,92.7556008 C83.9462925,95.0402697 83.5346304,95.0402697 83.5346304,95.0402697 Z M91.5190661,35.890299 C91.5190661,34.8937544 92.4062257,34.443702 93.4801556,34.8616078 L93.4801556,34.8616078 L93.7603113,34.9901942 C94.8342412,35.4081 95.7214008,36.5653776 95.7214008,37.5940687 L95.7214008,37.5940687 L95.7214008,88.211637 C94.1360453,89.1176022 91.5190661,90.6004156 91.5190661,90.6126257 L91.5190661,90.6126257 Z M99.4568093,53.2689215 C99.4568093,51.8336143 100.343969,51.1854111 101.417899,51.7873141 L101.417899,51.7873141 L101.698054,51.972515 C102.934554,52.8262295 103.667984,54.2288142 103.659144,55.7228338 L103.659144,55.7228338 L103.659144,83.6444561 C103.659144,83.6444561 99.4568093,86.0507478 99.4568093,86.0401044 L99.4568093,86.0401044 Z M107.34786,65.1680812 C107.34786,63.732774 108.235019,63.0845708 109.308949,63.6864738 L109.308949,63.6864738 L109.589105,63.8716747 C110.825605,64.7253892 111.559034,66.1279739 111.550195,67.6219935 L111.550195,67.6219935 L111.550195,79.1507513 C111.550195,79.1507513 107.34786,81.566779 107.34786,81.5876556 L107.34786,81.5876556 Z" id="Combined-Shape" fill="url(#linearGradient-7)" fill-rule="nonzero" opacity="0.300000012"></path>
        </g>
    </g>
</svg>