<?xml version="1.0" encoding="UTF-8"?>
<svg width="70px" height="56px" viewBox="0 0 70 56" version="1.1" xmlns="http://www.w3.org/2000/svg" xmlns:xlink="http://www.w3.org/1999/xlink">
    <!-- Generator: Sketch 50.2 (55047) - http://www.bohemiancoding.com/sketch -->
    <title>daedalus-ic</title>
    <desc>Created with Sketch.</desc>
    <defs></defs>
    <g id="Symbols" stroke="none" stroke-width="1" fill="none" fill-rule="evenodd">
        <g id="left-menu/dark/settings" transform="translate(-49.000000, -392.000000)">
            <g id="menu">
                <g id="main-menu" transform="translate(40.000000, 42.000000)">
                    <g id="daedalus-ic" transform="translate(0.000000, 334.000000)">
                        <path d="M39.8346061,66.1867966 L35.5555984,65.4889079 L32.927355,58.041962 L29.7342028,53.3471009 L28.1986979,42.0929228 L21.4328795,43.911692 L9.5,31.1454989 L20.1372973,17 L21.2562092,17.6635462 L15.8863044,29.3223786 L21.7818579,35.0571579 L26.7220831,32.8489633 L37.2677736,32.2267528 L42.5853317,37.1848568 L42.5853317,66.6354287 L41.1278405,66.3977178 C41.1035013,66.5467645 41.0908488,66.7002553 41.0908488,66.8577315 C41.0908488,67.6431091 41.4071105,68.3501665 41.9240347,68.8635989 C42.4409589,69.3748558 43.1476402,69.6903122 43.9350226,69.6903122 C44.7224051,69.6903122 45.4269052,69.3748558 45.9438294,68.8635989 C46.4607537,68.3501665 46.7748342,67.6431091 46.7748342,66.8577315 C46.7748342,66.7081163 46.7634571,66.5614433 46.7414513,66.418459 L45.4103061,66.6354287 L45.4103061,37.1848568 L50.7344075,32.2267528 L61.2757358,32.8489633 L66.215961,35.0571579 L72.1136956,29.3223786 L66.7416097,17.6635462 L67.8605216,17 L78.5,31.1454989 L66.5649394,43.911692 L59.799121,42.0929228 L58.2636161,53.3471009 L55.0748262,58.041962 L52.4444016,65.4889079 L48.0346904,66.2076678 C48.0682618,66.4198791 48.0856843,66.6371399 48.0856843,66.8577315 C48.0856843,68.0020767 47.6189257,69.0376438 46.8708033,69.7860369 C46.1226809,70.5366055 45.0779268,71 43.9350226,71 C42.7877562,71 41.7473644,70.5366055 40.9970609,69.7860369 C40.2489385,69.0376438 39.7799988,68.0020767 39.7799988,66.8577315 C39.7799988,66.6295338 39.7987098,66.4053354 39.8346061,66.1867966 Z M73.6906417,29.6139038 L66.4973248,36.6105086 L60.9594741,34.1390711 L51.2164339,33.5647229 L46.718975,37.7505027 L46.718975,65.0973069 L51.4672621,64.3271583 L53.894843,57.4480338 L57.0094751,52.8663019 L57.8797399,46.4788542 L50.2196644,48.0931206 L50.2196644,51.6392854 L48.9066333,51.6392854 L48.9066333,47.0314467 L58.0673158,45.1038995 L58.7042013,40.446023 L66.1483464,42.4453637 L76.7943682,31.0563009 L70.4909461,22.671688 L73.6906417,29.6139038 Z M11.2056318,31.0563009 L21.8538347,42.4453637 L29.2979798,40.446023 L29.9370465,45.1430596 L38.907972,47.0314467 L38.907972,51.6392854 L37.599303,51.6392854 L37.599303,48.0931206 L30.1224412,46.5158387 L30.9905249,52.8663019 L34.105157,57.4480338 L36.5327379,64.3271583 L41.281025,65.0973069 L41.281025,37.7505027 L36.7835661,33.5647229 L27.0383448,34.1390711 L21.5048563,36.6105086 L14.3093583,29.6139038 L17.5090539,22.671688 L11.2056318,31.0563009 Z" id="Combined-Shape" stroke="#FFFFFF" stroke-width="0.76" fill="#FFFFFF"></path>
                    </g>
                </g>
            </g>
        </g>
    </g>
</svg>
