<svg width="24" height="24" xmlns="http://www.w3.org/2000/svg"><path d="M19.134 16.516l.17.005c1.403.09 2.518 1.283 2.518 2.737 0 1.512-1.206 2.742-2.688 2.742-1.227 0-2.285-.85-2.596-2.033l-.011-.05-13.88.001a.652.652 0 01-.64-.562L2 19.258c0-.331.24-.606.551-.653l.096-.007h13.88l.011-.049c.295-1.127 1.27-1.951 2.422-2.027l.174-.006zm0 1.202c-.681 0-1.27.47-1.45 1.135-.04.149-.06.278-.06.405s.02.255.06.405c.168.62.693 1.071 1.315 1.129l.134.005.138-.005a1.528 1.528 0 001.366-1.394l.006-.14c0-.849-.677-1.54-1.51-1.54zm-7.215-8.46c1.227 0 2.285.85 2.595 2.033l.01.049h6.83l.095.007A.656.656 0 0122 12c0 .331-.24.606-.551.653l-.096.007h-6.829l-.01.049c-.295 1.127-1.27 1.951-2.421 2.027l-.174.006c-1.227 0-2.285-.85-2.596-2.033l-.01-.05H2.646a.652.652 0 01-.64-.562L2 12c0-.331.24-.606.551-.653l.096-.007h6.665l.011-.049c.296-1.127 1.27-1.951 2.422-2.027l.174-.006zm0 1.202c-.68 0-1.27.47-1.45 1.135-.04.149-.06.278-.06.405s.02.255.06.405c.168.62.693 1.071 1.315 1.129l.134.006.135-.006a1.513 1.513 0 001.274-.999l.04-.13c.041-.15.061-.278.061-.405s-.02-.256-.06-.405a1.513 1.513 0 00-1.45-1.135zM4.688 2c1.227 0 2.285.85 2.595 2.033l.01.048 14.06.001.096.007a.656.656 0 01.551.653c0 .331-.24.606-.551.653l-.096.007L7.293 5.4l-.01.05c-.295 1.127-1.269 1.951-2.421 2.027l-.174.006C3.206 7.484 2 6.254 2 4.742S3.206 2 4.688 2zm0 1.202c-.68 0-1.27.47-1.45 1.135-.04.149-.06.278-.06.405s.02.255.06.405c.168.62.693 1.071 1.315 1.129l.134.005.136-.005a1.513 1.513 0 001.273-.999l.04-.13c.041-.15.061-.278.061-.405s-.02-.256-.06-.405a1.513 1.513 0 00-1.45-1.135z" fill="#FFF" fill-rule="nonzero"/></svg>