<svg id="b0e955b8-515a-41c4-9588-c5b82e454f89" data-name="Layer 1" xmlns="http://www.w3.org/2000/svg" xmlns:xlink="http://www.w3.org/1999/xlink" viewBox="0 0 720 307"><defs><style>.b0c921e2-a4ed-4dd1-8e41-67d8aec180e6,.bc99fa6b-faa8-4cf8-9617-36b7ede13cc4,.ef9f68f5-dbcc-4ac5-ae30-8be2fa05f842{fill:#2c2ecf;}.ef9f68f5-dbcc-4ac5-ae30-8be2fa05f842{clip-rule:evenodd;}.e7a00c46-7069-49d0-bb73-46b16f6f6df0{fill:url(#bd829b06-1a39-4bef-aa86-f599e04d382a);}.accbc8cc-ccf3-493c-b11d-788befb54a48{fill:url(#b7a390c5-cdc0-4aad-876f-a952d0630f4f);}.a44311e3-11d8-4383-8386-4eee8a48e9a5{opacity:0.65;fill:url(#a90b3652-8ccf-48b7-8b6a-9ce5e7c67cc7);}.a472a0bb-4713-4c84-bf96-bff4301555a6,.b583c38a-be8c-4918-b966-e476c9bdf190{fill:#fff;}.bc99fa6b-faa8-4cf8-9617-36b7ede13cc4{fill-rule:evenodd;}.b583c38a-be8c-4918-b966-e476c9bdf190{font-size:20px;font-family:Roboto-Medium, Roboto;font-weight:500;}.a304e02a-ab26-4009-9891-3eb258a73b27,.b583c38a-be8c-4918-b966-e476c9bdf190{letter-spacing:0.04em;}.bf486b0b-34ce-4cd2-b435-0d7baeb03753{letter-spacing:0.0327em;}.ac90baac-f100-4813-bea6-8ad409ef1bce{letter-spacing:0.04em;}.a847c148-c236-4ba4-bcd7-9f76d1bbd62b{letter-spacing:0.0302em;}.f4f78103-70f7-467f-b974-ec7610e53e4f{letter-spacing:0.0337em;}.e1106d52-e0b9-47eb-a6c5-96edd34fe251{clip-path:url(#f1d9f22c-d24b-4c95-8635-c1f875dc5911);}.af5afa92-911e-49b2-bb7f-67bef4b30aed{clip-path:url(#a2467383-4445-4da1-b37b-b1edb5edec08);}</style><linearGradient id="bd829b06-1a39-4bef-aa86-f599e04d382a" x1="-6336.1724" y1="-409.4064" x2="-6342.8982" y2="-404.4028" gradientTransform="matrix(0, -29.6032, -88.8056, 0, -35837.7876, -187520.4307)" gradientUnits="userSpaceOnUse"><stop offset="0" stop-color="#17d1aa"/><stop offset="0.5834" stop-color="#229db7"/><stop offset="1" stop-color="#3154ca"/></linearGradient><linearGradient id="b7a390c5-cdc0-4aad-876f-a952d0630f4f" x1="596.7552" y1="236.5628" x2="436.1205" y2="90.0147" gradientUnits="userSpaceOnUse"><stop offset="0" stop-color="#17d1aa" stop-opacity="0"/><stop offset="0.1867" stop-color="#17d1aa" stop-opacity="0.0119"/><stop offset="0.297" stop-color="#17d1aa" stop-opacity="0.0517"/><stop offset="0.3876" stop-color="#17d1aa" stop-opacity="0.1196"/><stop offset="0.4673" stop-color="#17d1aa" stop-opacity="0.2158"/><stop offset="0.5393" stop-color="#17d1aa" stop-opacity="0.3391"/><stop offset="0.5683" stop-color="#17d1aa" stop-opacity="0.4"/><stop offset="0.854" stop-color="#297bc0" stop-opacity="0.8113"/><stop offset="1" stop-color="#3154ca"/></linearGradient><linearGradient id="a90b3652-8ccf-48b7-8b6a-9ce5e7c67cc7" x1="101.1725" y1="204.3911" x2="403.0257" y2="112.6373" gradientTransform="matrix(1, 0, 0, 1, 0, 0)" xlink:href="#bd829b06-1a39-4bef-aa86-f599e04d382a"/><clipPath id="f1d9f22c-d24b-4c95-8635-c1f875dc5911"><path class="ef9f68f5-dbcc-4ac5-ae30-8be2fa05f842" d="M-684.9587,1381.454l8.0932-10.3369a.7008.7008,0,0,0-.12-.9837.701.701,0,0,0-.432-.149h-6.3649V1358.53s-.028-2.1306-1.7435-2.1306q-1.8261,0-1.8261,2.1306v11.4542h-5.8206a.7007.7007,0,0,0-.7007.7007.7012.7012,0,0,0,.1377.4173l7.662,10.3369a.7008.7008,0,0,0,.98.1456A.6974.6974,0,0,0-684.9587,1381.454Z"/></clipPath><clipPath id="a2467383-4445-4da1-b37b-b1edb5edec08"><path class="ef9f68f5-dbcc-4ac5-ae30-8be2fa05f842" d="M-684.9587,705.9162l8.0932-10.3368a.7008.7008,0,0,0-.12-.9837.7.7,0,0,0-.432-.149h-6.3649V682.9924s-.028-2.13-1.7435-2.13q-1.8261,0-1.8261,2.13v11.4543h-5.8206a.7007.7007,0,0,0-.7007.7007.7012.7012,0,0,0,.1377.4173l7.662,10.3368a.7009.7009,0,0,0,.98.1457A.6979.6979,0,0,0-684.9587,705.9162Z"/></clipPath></defs><path id="bdc7eb93-1f08-4ad2-949a-5d06d95a67b6" data-name="Combined-Shape" class="e7a00c46-7069-49d0-bb73-46b16f6f6df0" d="M65.8979,200.8933V98.3042A18.9953,18.9953,0,0,1,84.8931,79.309h427.369a18.9952,18.9952,0,0,1,18.9952,18.9952V200.8933a18.9951,18.9951,0,0,1-18.9952,18.9952H84.8931A18.9952,18.9952,0,0,1,65.8979,200.8933Zm432.0572-49.58c0-16.6137-14.1773-30.0818-31.6659-30.0818S434.6233,134.7,434.6233,151.3132s14.1773,30.0817,31.6659,30.0817S497.9551,167.9268,497.9551,151.3132Z"/><path id="ff3de8fd-2157-4d35-96bd-255edda5080c" data-name="Combined-Shape" class="accbc8cc-ccf3-493c-b11d-788befb54a48" d="M412.3129,112.2206a68.9453,68.9453,0,0,1,95.372-20.2755q.1443.0938.2882.1882L737.6516,242.9121A37.99,37.99,0,0,1,748.6651,295.36L714.573,347.8617a37.99,37.99,0,0,1-52.552,11.1723q-.08-.0516-.1589-.1037L432.5008,208.36A69.6374,69.6374,0,0,1,412.3129,112.2206Zm93.6791,39.0926c0-20.83-17.7756-37.7165-39.7028-37.7165s-39.7027,16.8862-39.7027,37.7165S444.362,189.03,466.2892,189.03,505.992,172.1434,505.992,151.3132Z"/><rect class="a44311e3-11d8-4383-8386-4eee8a48e9a5" x="150.1407" y="110.7564" width="246.1636" height="82.6738" rx="4"/><circle class="b0c921e2-a4ed-4dd1-8e41-67d8aec180e6" cx="466.2892" cy="151.0203" r="31.6659"/><circle class="b0c921e2-a4ed-4dd1-8e41-67d8aec180e6" cx="105.6585" cy="151.0203" r="29.7889"/><path class="a472a0bb-4713-4c84-bf96-bff4301555a6" d="M377.658,164.5926l10.3535-10.291a1.271,1.271,0,0,0,.3775-.9072v-.001a1.2742,1.2742,0,0,0-.3775-.9082l-10.3535-10.291a1.2926,1.2926,0,0,0-1.8179,0,1.2761,1.2761,0,0,0-.3769.9082v.001a1.2729,1.2729,0,0,0,.3769.9072l9.4229,9.3838-9.4229,9.3818a1.2761,1.2761,0,0,0-.3769.9082v.001a1.2868,1.2868,0,0,0,2.1948.9072Z"/><path class="bc99fa6b-faa8-4cf8-9617-36b7ede13cc4" d="M470.696,68.6946,478.5445,58.67a.68.68,0,0,0-.5351-1.0985h-6.1725V46.4638s-.0271-2.0661-1.6907-2.0661q-1.7709,0-1.7709,2.0661v11.108h-5.6447a.6795.6795,0,0,0-.5459,1.0842l7.43,10.0243a.68.68,0,0,0,1.081.0143Z"/><path class="a472a0bb-4713-4c84-bf96-bff4301555a6" d="M172.6882,152.719l9.6169-9.6752a1.3134,1.3134,0,0,0,0-1.8516,1.3378,1.3378,0,0,0-1.8516,0l-9.6855,9.7266-9.6865-9.7266a1.3378,1.3378,0,0,0-1.8516,0,1.3157,1.3157,0,0,0,0,1.8516l9.6169,9.6752-9.6169,9.6753a1.3157,1.3157,0,0,0,0,1.8516,1.3378,1.3378,0,0,0,1.8516,0l9.6865-9.7266,9.6855,9.7266a1.3076,1.3076,0,0,0,2.2334-.9258,1.283,1.283,0,0,0-.3818-.9258Z"/><text class="b583c38a-be8c-4918-b966-e476c9bdf190" transform="translate(194.5364 147.3056)">Register Catalyst <tspan class="bf486b0b-34ce-4cd2-b435-0d7baeb03753"><tspan x="31.2373" y="24">v</tspan><tspan class="ac90baac-f100-4813-bea6-8ad409ef1bce" x="41.7832" y="24">oting </tspan><tspan class="a847c148-c236-4ba4-bcd7-9f76d1bbd62b" x="97.1694" y="24">k</tspan><tspan class="f4f78103-70f7-467f-b974-ec7610e53e4f" x="108.2134" y="24">e</tspan><tspan class="a304e02a-ab26-4009-9891-3eb258a73b27" x="119.6191" y="24">y?</tspan></tspan></text><path class="bc99fa6b-faa8-4cf8-9617-36b7ede13cc4" d="M-684.9587,1381.454l8.0932-10.3369a.7008.7008,0,0,0-.12-.9837.701.701,0,0,0-.432-.149h-6.3649V1358.53s-.028-2.1306-1.7435-2.1306q-1.8261,0-1.8261,2.1306v11.4542h-5.8206a.7007.7007,0,0,0-.7007.7007.7012.7012,0,0,0,.1377.4173l7.662,10.3369a.7008.7008,0,0,0,.98.1456A.6974.6974,0,0,0-684.9587,1381.454Z"/><g class="e1106d52-e0b9-47eb-a6c5-96edd34fe251"><rect class="b0c921e2-a4ed-4dd1-8e41-67d8aec180e6" x="-2138.9259" y="-187.9336" width="3363.5487" height="2391.8573"/></g><path class="bc99fa6b-faa8-4cf8-9617-36b7ede13cc4" d="M-684.9587,705.9162l8.0932-10.3368a.7008.7008,0,0,0-.12-.9837.7.7,0,0,0-.432-.149h-6.3649V682.9924s-.028-2.13-1.7435-2.13q-1.8261,0-1.8261,2.13v11.4543h-5.8206a.7007.7007,0,0,0-.7007.7007.7012.7012,0,0,0,.1377.4173l7.662,10.3368a.7009.7009,0,0,0,.98.1457A.6979.6979,0,0,0-684.9587,705.9162Z"/><g class="af5afa92-911e-49b2-bb7f-67bef4b30aed"><rect class="b0c921e2-a4ed-4dd1-8e41-67d8aec180e6" x="-2138.9259" y="-863.4713" width="3363.5487" height="2391.8573"/></g></svg>