<svg id="a2b7d0b6-b2ab-422e-a4df-ecda20ab2092" data-name="Layer 1" xmlns="http://www.w3.org/2000/svg" xmlns:xlink="http://www.w3.org/1999/xlink" viewBox="0 0 720 307"><defs><style>.a4a3cb54-2e1b-4564-920d-7e128a2c7c4d,.a93e51a0-e667-49ab-b44a-7d3a056a1400,.b09c76dc-65ef-4bcd-9628-28744fb946a2{fill:#2c2ecf;}.a93e51a0-e667-49ab-b44a-7d3a056a1400{clipRule:evenodd;}.b09c76dc-65ef-4bcd-9628-28744fb946a2{fillRule:evenodd;}.a9bb0943-c016-412a-a439-e9d19fbbd0d1{clip-path:url(#f5b136ee-bacb-4e2a-8e7a-dae5d6dd0095);}.af49acfb-424f-4003-816b-97c16c24780c{fill:url(#be54e68b-1ea2-4c32-9aca-df3bcd1d888d);}.b2d7ae92-9f0a-46ed-9803-b4d6b41d89b0{fill:url(#ba960212-66be-4fb8-b51f-f15edacd79b5);}.bca0c903-2d83-4b8e-9112-cf9a9485cf36{opacity:0.65;fill:url(#b0072388-0cbe-4414-bbb8-ab2914d2eaa3);}.a9436264-d019-4568-879f-7222d4a568a9,.e0221d61-a65c-4269-bc93-3a176e6b2c0c,.ec6ab755-bc33-4f62-bc6c-d38014aeafdb{fill:#fff;}.a9436264-d019-4568-879f-7222d4a568a9{font-size:19px;font-family:Roboto-Medium, Roboto;font-weight:500;letter-spacing:0.0082em;}.a6f04614-50a5-4abd-987a-4a88237f9445{letter-spacing:0.0254em;}.b6d30fbe-71d8-40f0-a28e-52d616b25694{letter-spacing:0.04em;}.e07a5958-ec25-44ac-b474-feeb5b37b98c{letter-spacing:0.0107em;}.e4f47f92-0ffa-4310-aee8-0254f36f5240{letter-spacing:0.0478em;}.b2c9a359-eecf-4502-ac8b-173ec4b65c3a{letter-spacing:0.04em;}.ec6ab755-bc33-4f62-bc6c-d38014aeafdb{font-size:18px;font-family:MuseoSansCyrl-700, Museo Sans Cyrl;font-weight:700;letter-spacing:0.22em;}.a24face5-19c2-43df-8346-81ba99404aa2{letter-spacing:0.26em;}.bd4ea5c1-6e09-4287-8aee-ffd90db6ac48{clip-path:url(#e9b97e59-4fa6-47f6-942a-77cbd21fc3f9);}</style><clipPath id="f5b136ee-bacb-4e2a-8e7a-dae5d6dd0095"><path class="a93e51a0-e667-49ab-b44a-7d3a056a1400" d="M-684.9587,56.1612l8.0932-10.3368a.7009.7009,0,0,0-.12-.9838.701.701,0,0,0-.432-.149h-6.3649V33.2374s-.028-2.1305-1.7435-2.1305q-1.8261,0-1.8261,2.1305V44.6916h-5.8206a.7008.7008,0,0,0-.7007.7008.7014.7014,0,0,0,.1377.4173l7.662,10.3368a.7009.7009,0,0,0,.98.1457A.6979.6979,0,0,0-684.9587,56.1612Z"/></clipPath><linearGradient id="be54e68b-1ea2-4c32-9aca-df3bcd1d888d" x1="-6450.691" y1="-3799.5205" x2="-6457.4168" y2="-3794.517" gradientTransform="matrix(0, -29.6032, -88.8056, 0, -336899.0252, -190910.5449)" gradientUnits="userSpaceOnUse"><stop offset="0" stopColor="#17d1aa"/><stop offset="0.5834" stopColor="#229db7"/><stop offset="1" stopColor="#3154ca"/></linearGradient><linearGradient id="ba960212-66be-4fb8-b51f-f15edacd79b5" x1="596.7552" y1="236.5628" x2="436.1205" y2="90.0147" gradientUnits="userSpaceOnUse"><stop offset="0" stopColor="#17d1aa" stop-opacity="0"/><stop offset="0.1867" stopColor="#17d1aa" stop-opacity="0.0119"/><stop offset="0.297" stopColor="#17d1aa" stop-opacity="0.0517"/><stop offset="0.3876" stopColor="#17d1aa" stop-opacity="0.1196"/><stop offset="0.4673" stopColor="#17d1aa" stop-opacity="0.2158"/><stop offset="0.5393" stopColor="#17d1aa" stop-opacity="0.3391"/><stop offset="0.5683" stopColor="#17d1aa" stop-opacity="0.4"/><stop offset="0.854" stopColor="#297bc0" stop-opacity="0.8113"/><stop offset="1" stopColor="#3154ca"/></linearGradient><linearGradient id="b0072388-0cbe-4414-bbb8-ab2914d2eaa3" x1="101.1725" y1="204.3911" x2="403.0257" y2="112.6373" gradientTransform="matrix(1, 0, 0, 1, 0, 0)" xlink:href="#be54e68b-1ea2-4c32-9aca-df3bcd1d888d"/><clipPath id="e9b97e59-4fa6-47f6-942a-77cbd21fc3f9"><path class="a93e51a0-e667-49ab-b44a-7d3a056a1400" d="M-684.9587-437.7175l8.0932-10.3369a.7008.7008,0,0,0-.12-.9837.701.701,0,0,0-.432-.149h-6.3649v-11.4542s-.028-2.1306-1.7435-2.1306q-1.8261,0-1.8261,2.1306v11.4542h-5.8206a.7007.7007,0,0,0-.7007.7008.7011.7011,0,0,0,.1377.4172l7.662,10.3369a.7008.7008,0,0,0,.98.1456A.6974.6974,0,0,0-684.9587-437.7175Z"/></clipPath></defs><path class="b09c76dc-65ef-4bcd-9628-28744fb946a2" d="M-684.9587,56.1612l8.0932-10.3368a.7009.7009,0,0,0-.12-.9838.701.701,0,0,0-.432-.149h-6.3649V33.2374s-.028-2.1305-1.7435-2.1305q-1.8261,0-1.8261,2.1305V44.6916h-5.8206a.7008.7008,0,0,0-.7007.7008.7014.7014,0,0,0,.1377.4173l7.662,10.3368a.7009.7009,0,0,0,.98.1457A.6979.6979,0,0,0-684.9587,56.1612Z"/><g class="a9bb0943-c016-412a-a439-e9d19fbbd0d1"><rect class="a4a3cb54-2e1b-4564-920d-7e128a2c7c4d" x="-2138.9259" y="-1513.2263" width="3363.5487" height="2391.8573"/></g><path id="bfc3ba9a-c2f9-4add-be5e-b76236e57668" data-name="Combined-Shape" class="af49acfb-424f-4003-816b-97c16c24780c" d="M65.8979,200.8933V98.3042A18.9953,18.9953,0,0,1,84.8931,79.309h427.369a18.9952,18.9952,0,0,1,18.9952,18.9952V200.8933a18.9951,18.9951,0,0,1-18.9952,18.9952H84.8931A18.9952,18.9952,0,0,1,65.8979,200.8933Zm432.0572-49.58c0-16.6137-14.1773-30.0818-31.6659-30.0818S434.6233,134.7,434.6233,151.3132s14.1773,30.0817,31.6659,30.0817S497.9551,167.9268,497.9551,151.3132Z"/><path id="b2b701d9-8aba-47ae-a0a2-f3b67d41a332" data-name="Combined-Shape" class="b2d7ae92-9f0a-46ed-9803-b4d6b41d89b0" d="M412.3129,112.2206a68.9453,68.9453,0,0,1,95.372-20.2755q.1443.0938.2882.1882L737.6516,242.9121A37.99,37.99,0,0,1,748.6651,295.36L714.573,347.8617a37.99,37.99,0,0,1-52.552,11.1723q-.08-.0516-.1589-.1037L432.5008,208.36A69.6374,69.6374,0,0,1,412.3129,112.2206Zm93.6791,39.0926c0-20.83-17.7756-37.7165-39.7028-37.7165s-39.7027,16.8862-39.7027,37.7165S444.362,189.03,466.2892,189.03,505.992,172.1434,505.992,151.3132Z"/><rect class="bca0c903-2d83-4b8e-9112-cf9a9485cf36" x="150.1407" y="110.7564" width="246.1636" height="82.6738" rx="4"/><circle class="a4a3cb54-2e1b-4564-920d-7e128a2c7c4d" cx="466.2892" cy="151.0203" r="31.6659"/><circle class="a4a3cb54-2e1b-4564-920d-7e128a2c7c4d" cx="105.6585" cy="151.0203" r="29.7889"/><path class="e0221d61-a65c-4269-bc93-3a176e6b2c0c" d="M377.658,164.5926l10.3535-10.291a1.271,1.271,0,0,0,.3775-.9072v-.001a1.2742,1.2742,0,0,0-.3775-.9082l-10.3535-10.291a1.2926,1.2926,0,0,0-1.8179,0,1.2761,1.2761,0,0,0-.3769.9082v.001a1.2729,1.2729,0,0,0,.3769.9072l9.4229,9.3838-9.4229,9.3818a1.2761,1.2761,0,0,0-.3769.9082v.001a1.2868,1.2868,0,0,0,2.1948.9072Z"/><path class="e0221d61-a65c-4269-bc93-3a176e6b2c0c" d="M168.3925,142.2l-10.3535,10.291a1.271,1.271,0,0,0-.3775.9072v.001a1.274,1.274,0,0,0,.3775.9082l10.3535,10.2911a1.2926,1.2926,0,0,0,1.8178,0,1.2759,1.2759,0,0,0,.377-.9082v-.001a1.2728,1.2728,0,0,0-.377-.9073l-9.4228-9.3838,9.4229-9.3818a1.2759,1.2759,0,0,0,.3769-.9082v-.001a1.2868,1.2868,0,0,0-2.1948-.9072Z"/><path class="b09c76dc-65ef-4bcd-9628-28744fb946a2" d="M470.696,68.6946,478.5445,58.67a.68.68,0,0,0-.5351-1.0985h-6.1725V46.4638s-.0271-2.0661-1.6907-2.0661q-1.7709,0-1.7709,2.0661v11.108h-5.6447a.6795.6795,0,0,0-.5459,1.0842l7.43,10.0243a.68.68,0,0,0,1.081.0143Z"/><text class="a9436264-d019-4568-879f-7222d4a568a9" transform="translate(193.5003 143.8285)">T<tspan class="a6f04614-50a5-4abd-987a-4a88237f9445" x="11.6885" y="0">r</tspan><tspan class="b6d30fbe-71d8-40f0-a28e-52d616b25694" x="18.8501" y="0">ansaction</tspan><tspan class="e07a5958-ec25-44ac-b474-feeb5b37b98c" x="109.1211" y="0"> </tspan><tspan class="e4f47f92-0ffa-4310-aee8-0254f36f5240" x="114.0562" y="0">T</tspan><tspan class="b2c9a359-eecf-4502-ac8b-173ec4b65c3a" x="126.4961" y="0">TL</tspan></text><text class="ec6ab755-bc33-4f62-bc6c-d38014aeafdb" transform="translate(185.0125 176.6415)">___________<tspan class="a24face5-19c2-43df-8346-81ba99404aa2" x="163.3491" y="0">_</tspan></text><path class="b09c76dc-65ef-4bcd-9628-28744fb946a2" d="M-684.9587-437.7175l8.0932-10.3369a.7008.7008,0,0,0-.12-.9837.701.701,0,0,0-.432-.149h-6.3649v-11.4542s-.028-2.1306-1.7435-2.1306q-1.8261,0-1.8261,2.1306v11.4542h-5.8206a.7007.7007,0,0,0-.7007.7008.7011.7011,0,0,0,.1377.4172l7.662,10.3369a.7008.7008,0,0,0,.98.1456A.6974.6974,0,0,0-684.9587-437.7175Z"/><g class="bd4ea5c1-6e09-4287-8aee-ffd90db6ac48"><rect class="a4a3cb54-2e1b-4564-920d-7e128a2c7c4d" x="-2138.9259" y="-2007.1051" width="3363.5487" height="2391.8573"/></g></svg>