<svg id="b5dbdf70-205a-4b8d-9a05-17e44578b159" data-name="Layer 1" xmlns="http://www.w3.org/2000/svg" xmlns:xlink="http://www.w3.org/1999/xlink" viewBox="0 0 720 307"><defs><style>.e5639f44-f4b3-4fe1-84e2-6b57fbbdfd3b,.e8503e1f-e08b-4475-9d8b-1091a1b77a2c,.f35ea452-872c-4b7e-ad3f-c7dc27a0c777{fill:#2c2ecf;}.f35ea452-872c-4b7e-ad3f-c7dc27a0c777{clipRule:evenodd;}.e8503e1f-e08b-4475-9d8b-1091a1b77a2c{fillRule:evenodd;}.b253f10c-962d-485b-9e24-2b1177051c81{clip-path:url(#ee7534e1-d4a5-49dc-bcec-e5ac51346158);}.bedc6e09-b324-4554-bb41-7dd0178ef352{clip-path:url(#be90ad55-bc52-4a9e-932a-034c6216b2e3);}.b72c7af9-c04d-490d-8686-6b7114cb9285{clip-path:url(#e8206cb2-a2a9-4825-bbc5-11104a6ba554);}.bc6a46e2-1d96-4f2f-926c-236e7b824565{fill:url(#b459eb51-2464-4469-844d-eb3904f33216);}.b9732952-a9d3-467f-ba10-c020e56d4687{fill:url(#e9c40997-14e1-418e-b4fe-d905cc7b73a5);}.be91a5f4-2d92-4891-a177-cd361c43b9f7{opacity:0.65;fill:url(#f0905137-ae91-4848-accf-d5cb0f8dbbad);}.ad2cb041-6348-4957-b119-23106e605140,.e2b21bbf-2950-4d0d-b78f-d60e54d49e81,.efbf9d1f-eca1-4600-9185-422a8b9d631b{fill:#fff;}.ad2cb041-6348-4957-b119-23106e605140{font-size:19px;font-family:Roboto-Medium, Roboto;font-weight:500;letter-spacing:-0.0025em;}.af46dbc4-9d1a-4b04-b465-45a54e17d35c{letter-spacing:0.02em;}.be965240-993f-4969-9ce6-6d5645feb5ed{letter-spacing:0.0103em;}.ed445bee-2067-42db-a25d-1ed64bfdf541{letter-spacing:0.0136em;}.efbf9d1f-eca1-4600-9185-422a8b9d631b{font-size:18px;font-family:MuseoSansCyrl-700, Museo Sans Cyrl;font-weight:700;letter-spacing:0.22em;}.a8e4075a-e0a4-493e-af87-049221a975c5{letter-spacing:0.26em;}</style><clipPath id="ee7534e1-d4a5-49dc-bcec-e5ac51346158"><path class="f35ea452-872c-4b7e-ad3f-c7dc27a0c777" d="M-684.9587,1477.9075l8.0932-10.3368a.7009.7009,0,0,0-.12-.9838.7009.7009,0,0,0-.432-.1489h-6.3649v-11.4543s-.028-2.13-1.7435-2.13q-1.8261,0-1.8261,2.13v11.4543h-5.8206a.7007.7007,0,0,0-.7007.7007.7012.7012,0,0,0,.1377.4173l7.662,10.3368a.7009.7009,0,0,0,.98.1457A.6979.6979,0,0,0-684.9587,1477.9075Z"/></clipPath><clipPath id="be90ad55-bc52-4a9e-932a-034c6216b2e3"><path class="f35ea452-872c-4b7e-ad3f-c7dc27a0c777" d="M-684.9587,731.6989l8.0932-10.3368a.7008.7008,0,0,0-.12-.9837.7.7,0,0,0-.432-.149h-6.3649V708.7751s-.028-2.13-1.7435-2.13q-1.8261,0-1.8261,2.13v11.4543h-5.8206a.7007.7007,0,0,0-.7007.7007.7012.7012,0,0,0,.1377.4173l7.662,10.3368a.7008.7008,0,0,0,.98.1457A.6979.6979,0,0,0-684.9587,731.6989Z"/></clipPath><clipPath id="e8206cb2-a2a9-4825-bbc5-11104a6ba554"><path class="f35ea452-872c-4b7e-ad3f-c7dc27a0c777" d="M-684.9587,56.1612l8.0932-10.3368a.7009.7009,0,0,0-.12-.9838.701.701,0,0,0-.432-.149h-6.3649V33.2374s-.028-2.1305-1.7435-2.1305q-1.8261,0-1.8261,2.1305V44.6916h-5.8206a.7008.7008,0,0,0-.7007.7008.7014.7014,0,0,0,.1377.4173l7.662,10.3368a.7009.7009,0,0,0,.98.1457A.6979.6979,0,0,0-684.9587,56.1612Z"/></clipPath><linearGradient id="b459eb51-2464-4469-844d-eb3904f33216" x1="-6358.1213" y1="-1059.1614" x2="-6364.847" y2="-1054.1578" gradientTransform="matrix(0, -29.6032, -88.8056, 0, -93539.694, -188170.1857)" gradientUnits="userSpaceOnUse"><stop offset="0" stopColor="#17d1aa"/><stop offset="0.5834" stopColor="#229db7"/><stop offset="1" stopColor="#3154ca"/></linearGradient><linearGradient id="e9c40997-14e1-418e-b4fe-d905cc7b73a5" x1="596.7552" y1="236.5628" x2="436.1205" y2="90.0147" gradientUnits="userSpaceOnUse"><stop offset="0" stopColor="#17d1aa" stop-opacity="0"/><stop offset="0.1867" stopColor="#17d1aa" stop-opacity="0.0119"/><stop offset="0.297" stopColor="#17d1aa" stop-opacity="0.0517"/><stop offset="0.3876" stopColor="#17d1aa" stop-opacity="0.1196"/><stop offset="0.4673" stopColor="#17d1aa" stop-opacity="0.2158"/><stop offset="0.5393" stopColor="#17d1aa" stop-opacity="0.3391"/><stop offset="0.5683" stopColor="#17d1aa" stop-opacity="0.4"/><stop offset="0.854" stopColor="#297bc0" stop-opacity="0.8113"/><stop offset="1" stopColor="#3154ca"/></linearGradient><linearGradient id="f0905137-ae91-4848-accf-d5cb0f8dbbad" x1="101.1725" y1="204.3911" x2="403.0257" y2="112.6373" gradientTransform="matrix(1, 0, 0, 1, 0, 0)" xlink:href="#b459eb51-2464-4469-844d-eb3904f33216"/></defs><path class="e8503e1f-e08b-4475-9d8b-1091a1b77a2c" d="M-684.9587,1477.9075l8.0932-10.3368a.7009.7009,0,0,0-.12-.9838.7009.7009,0,0,0-.432-.1489h-6.3649v-11.4543s-.028-2.13-1.7435-2.13q-1.8261,0-1.8261,2.13v11.4543h-5.8206a.7007.7007,0,0,0-.7007.7007.7012.7012,0,0,0,.1377.4173l7.662,10.3368a.7009.7009,0,0,0,.98.1457A.6979.6979,0,0,0-684.9587,1477.9075Z"/><g class="b253f10c-962d-485b-9e24-2b1177051c81"><rect class="e5639f44-f4b3-4fe1-84e2-6b57fbbdfd3b" x="-2138.9259" y="-91.48" width="3363.5487" height="2391.8573"/></g><path class="e8503e1f-e08b-4475-9d8b-1091a1b77a2c" d="M-684.9587,731.6989l8.0932-10.3368a.7008.7008,0,0,0-.12-.9837.7.7,0,0,0-.432-.149h-6.3649V708.7751s-.028-2.13-1.7435-2.13q-1.8261,0-1.8261,2.13v11.4543h-5.8206a.7007.7007,0,0,0-.7007.7007.7012.7012,0,0,0,.1377.4173l7.662,10.3368a.7008.7008,0,0,0,.98.1457A.6979.6979,0,0,0-684.9587,731.6989Z"/><g class="bedc6e09-b324-4554-bb41-7dd0178ef352"><rect class="e5639f44-f4b3-4fe1-84e2-6b57fbbdfd3b" x="-2138.9259" y="-837.6886" width="3363.5487" height="2391.8573"/></g><path class="e8503e1f-e08b-4475-9d8b-1091a1b77a2c" d="M-684.9587,56.1612l8.0932-10.3368a.7009.7009,0,0,0-.12-.9838.701.701,0,0,0-.432-.149h-6.3649V33.2374s-.028-2.1305-1.7435-2.1305q-1.8261,0-1.8261,2.1305V44.6916h-5.8206a.7008.7008,0,0,0-.7007.7008.7014.7014,0,0,0,.1377.4173l7.662,10.3368a.7009.7009,0,0,0,.98.1457A.6979.6979,0,0,0-684.9587,56.1612Z"/><g class="b72c7af9-c04d-490d-8686-6b7114cb9285"><rect class="e5639f44-f4b3-4fe1-84e2-6b57fbbdfd3b" x="-2138.9259" y="-1513.2263" width="3363.5487" height="2391.8573"/></g><path id="aaab68e7-f80c-4088-9fba-f7efdefdd065" data-name="Combined-Shape" class="bc6a46e2-1d96-4f2f-926c-236e7b824565" d="M65.8979,200.8933V98.3042A18.9953,18.9953,0,0,1,84.8931,79.309h427.369a18.9952,18.9952,0,0,1,18.9952,18.9952V200.8933a18.9951,18.9951,0,0,1-18.9952,18.9952H84.8931A18.9952,18.9952,0,0,1,65.8979,200.8933Zm432.0572-49.58c0-16.6137-14.1773-30.0818-31.6659-30.0818S434.6233,134.7,434.6233,151.3132s14.1773,30.0817,31.6659,30.0817S497.9551,167.9268,497.9551,151.3132Z"/><path id="a39e1965-a997-4af5-ad81-56630c87cd1f" data-name="Combined-Shape" class="b9732952-a9d3-467f-ba10-c020e56d4687" d="M412.3129,112.2206a68.9453,68.9453,0,0,1,95.372-20.2755q.1443.0938.2882.1882L737.6516,242.9121A37.99,37.99,0,0,1,748.6651,295.36L714.573,347.8617a37.99,37.99,0,0,1-52.552,11.1723q-.08-.0516-.1589-.1037L432.5008,208.36A69.6374,69.6374,0,0,1,412.3129,112.2206Zm93.6791,39.0926c0-20.83-17.7756-37.7165-39.7028-37.7165s-39.7027,16.8862-39.7027,37.7165S444.362,189.03,466.2892,189.03,505.992,172.1434,505.992,151.3132Z"/><rect class="be91a5f4-2d92-4891-a177-cd361c43b9f7" x="150.1407" y="110.7564" width="246.1636" height="82.6738" rx="4"/><circle class="e5639f44-f4b3-4fe1-84e2-6b57fbbdfd3b" cx="466.2892" cy="151.0203" r="31.6659"/><circle class="e5639f44-f4b3-4fe1-84e2-6b57fbbdfd3b" cx="105.6585" cy="151.0203" r="29.7889"/><path class="e2b21bbf-2950-4d0d-b78f-d60e54d49e81" d="M377.658,164.5926l10.3535-10.291a1.271,1.271,0,0,0,.3775-.9072v-.001a1.2742,1.2742,0,0,0-.3775-.9082l-10.3535-10.291a1.2926,1.2926,0,0,0-1.8179,0,1.2761,1.2761,0,0,0-.3769.9082v.001a1.2729,1.2729,0,0,0,.3769.9072l9.4229,9.3838-9.4229,9.3818a1.2761,1.2761,0,0,0-.3769.9082v.001a1.2868,1.2868,0,0,0,2.1948.9072Z"/><path class="e8503e1f-e08b-4475-9d8b-1091a1b77a2c" d="M470.696,68.6946,478.5445,58.67a.68.68,0,0,0-.5351-1.0985h-6.1725V46.4638s-.0271-2.0661-1.6907-2.0661q-1.7709,0-1.7709,2.0661v11.108h-5.6447a.6795.6795,0,0,0-.5459,1.0842l7.43,10.0243a.68.68,0,0,0,1.081.0143Z"/><text class="ad2cb041-6348-4957-b119-23106e605140" transform="translate(192.3387 143.8283)">V<tspan class="af46dbc4-9d1a-4b04-b465-45a54e17d35c" x="12.2456" y="0">oting public </tspan><tspan class="be965240-993f-4969-9ce6-6d5645feb5ed" x="121.5742" y="0">k</tspan><tspan class="ed445bee-2067-42db-a25d-1ed64bfdf541" x="131.6865" y="0">e</tspan><tspan class="af46dbc4-9d1a-4b04-b465-45a54e17d35c" x="142.1416" y="0">y</tspan></text><text class="efbf9d1f-eca1-4600-9185-422a8b9d631b" transform="translate(185.0125 176.641)">___________<tspan class="a8e4075a-e0a4-493e-af87-049221a975c5" x="163.3491" y="0">_</tspan></text></svg>