<svg id="e081b1d9-6d94-4337-a1e7-902c0d7b6ef4" data-name="Layer 1" xmlns="http://www.w3.org/2000/svg" xmlns:xlink="http://www.w3.org/1999/xlink" viewBox="0 0 720 307"><defs><style>.b532dfd6-2a2b-487a-b94c-9c070f47bae8{fill:url(#b3c21fc2-920a-4725-b265-a20241f217e8);}.ebafb84d-5e33-4c6a-8ebc-198f420762ba{fill:url(#ac0c5377-e353-407b-96bd-e181e4aea2a0);}.bc611503-ceb1-43cd-b551-688c812e187e{opacity:0.65;fill:url(#b32cfa31-0ce5-4cc0-98a0-ffb40b0704c5);}.b164f5e8-aade-404c-bf98-43ab6cc2e686,.ee164113-b298-4915-90c9-18ef9cb0ed58{fill:#2c2ecf;}.b289b730-2fc8-484d-aa23-0c1183987f5c,.bdfe9a43-2089-4b6f-ab5c-d7e728069ac8{fill:#fff;}.b164f5e8-aade-404c-bf98-43ab6cc2e686{fill-rule:evenodd;}.bdfe9a43-2089-4b6f-ab5c-d7e728069ac8{font-size:20px;font-family:Roboto-Medium, Roboto;font-weight:500;}.b64be3ba-b48a-4c46-ab37-795d851c9b7a,.bdfe9a43-2089-4b6f-ab5c-d7e728069ac8{letter-spacing:0.02em;}.ab85943c-fc05-40fb-9cb0-a439fc1200cf{letter-spacing:0.0127em;}.bf210a95-22ff-41f1-a363-7a03eb39139e{letter-spacing:0.0102em;}.fed8fd2f-6a62-4b88-8969-b02aab2fc429{letter-spacing:0.0136em;}.e0043b96-d4bf-42cf-a877-28e82de5ca11{letter-spacing:0.02em;}.b46b392b-b7f6-4241-9a36-e2eec31306df{letter-spacing:0.0107em;}.a3b381d8-337e-4b16-85e1-f8eb6f737d4a{letter-spacing:0.0053em;}</style><linearGradient id="b3c21fc2-920a-4725-b265-a20241f217e8" x1="-174.5921" y1="668.4464" x2="-181.3178" y2="673.4499" gradientTransform="matrix(0, -29.6032, -88.8056, 0, 59881.6083, -5118.0111)" gradientUnits="userSpaceOnUse"><stop offset="0" stopColor="#17d1aa"/><stop offset="0.5834" stopColor="#229db7"/><stop offset="1" stopColor="#3154ca"/></linearGradient><linearGradient id="ac0c5377-e353-407b-96bd-e181e4aea2a0" x1="596.7552" y1="236.5628" x2="436.1205" y2="90.0147" gradientUnits="userSpaceOnUse"><stop offset="0" stopColor="#17d1aa" stop-opacity="0"/><stop offset="0.1867" stopColor="#17d1aa" stop-opacity="0.0119"/><stop offset="0.297" stopColor="#17d1aa" stop-opacity="0.0517"/><stop offset="0.3876" stopColor="#17d1aa" stop-opacity="0.1196"/><stop offset="0.4673" stopColor="#17d1aa" stop-opacity="0.2158"/><stop offset="0.5393" stopColor="#17d1aa" stop-opacity="0.3391"/><stop offset="0.5683" stopColor="#17d1aa" stop-opacity="0.4"/><stop offset="0.854" stopColor="#297bc0" stop-opacity="0.8113"/><stop offset="1" stopColor="#3154ca"/></linearGradient><linearGradient id="b32cfa31-0ce5-4cc0-98a0-ffb40b0704c5" x1="101.1725" y1="204.3911" x2="403.0257" y2="112.6373" gradientTransform="matrix(1, 0, 0, 1, 0, 0)" xlink:href="#b3c21fc2-920a-4725-b265-a20241f217e8"/></defs><path id="a5a3b1e1-3ff4-4d32-8c65-d4c957c5dbfa" data-name="Combined-Shape" class="b532dfd6-2a2b-487a-b94c-9c070f47bae8" d="M65.8979,200.8933V98.3042A18.9953,18.9953,0,0,1,84.8931,79.309h427.369a18.9952,18.9952,0,0,1,18.9952,18.9952V200.8933a18.9951,18.9951,0,0,1-18.9952,18.9952H84.8931A18.9952,18.9952,0,0,1,65.8979,200.8933Zm432.0572-49.58c0-16.6137-14.1773-30.0818-31.6659-30.0818S434.6233,134.7,434.6233,151.3132s14.1773,30.0817,31.6659,30.0817S497.9551,167.9268,497.9551,151.3132Z"/><path id="e5c9aad3-35e4-4c81-9563-d73361bd7c86" data-name="Combined-Shape" class="ebafb84d-5e33-4c6a-8ebc-198f420762ba" d="M412.3129,112.2206a68.9453,68.9453,0,0,1,95.372-20.2755q.1443.0938.2882.1882L737.6516,242.9121A37.99,37.99,0,0,1,748.6651,295.36L714.573,347.8617a37.99,37.99,0,0,1-52.552,11.1723q-.08-.0516-.1589-.1037L432.5008,208.36A69.6374,69.6374,0,0,1,412.3129,112.2206Zm93.6791,39.0926c0-20.83-17.7756-37.7165-39.7028-37.7165s-39.7027,16.8862-39.7027,37.7165S444.362,189.03,466.2892,189.03,505.992,172.1434,505.992,151.3132Z"/><rect class="bc611503-ceb1-43cd-b551-688c812e187e" x="150.1407" y="110.7564" width="246.1636" height="82.6738" rx="4"/><circle class="ee164113-b298-4915-90c9-18ef9cb0ed58" cx="466.2892" cy="151.0203" r="31.6659"/><circle class="ee164113-b298-4915-90c9-18ef9cb0ed58" cx="105.6585" cy="151.0203" r="29.7889"/><path class="b289b730-2fc8-484d-aa23-0c1183987f5c" d="M377.658,164.5926l10.3535-10.291a1.271,1.271,0,0,0,.3775-.9072v-.001a1.2742,1.2742,0,0,0-.3775-.9082l-10.3535-10.291a1.2926,1.2926,0,0,0-1.8179,0,1.2761,1.2761,0,0,0-.3769.9082v.001a1.2729,1.2729,0,0,0,.3769.9072l9.4229,9.3838-9.4229,9.3818a1.2761,1.2761,0,0,0-.3769.9082v.001a1.2868,1.2868,0,0,0,2.1948.9072Z"/><path class="b164f5e8-aade-404c-bf98-43ab6cc2e686" d="M470.696,68.6946,478.5445,58.67a.68.68,0,0,0-.5351-1.0985h-6.1725V46.4638s-.0271-2.0661-1.6907-2.0661q-1.7709,0-1.7709,2.0661v11.108h-5.6447a.6795.6795,0,0,0-.5459,1.0842l7.43,10.0243a.68.68,0,0,0,1.081.0143Z"/><path class="b289b730-2fc8-484d-aa23-0c1183987f5c" d="M172.6882,152.719l9.6169-9.6752a1.3134,1.3134,0,0,0,0-1.8516,1.3378,1.3378,0,0,0-1.8516,0l-9.6855,9.7266-9.6865-9.7266a1.3378,1.3378,0,0,0-1.8516,0,1.3157,1.3157,0,0,0,0,1.8516l9.6169,9.6752-9.6169,9.6753a1.3157,1.3157,0,0,0,0,1.8516,1.3378,1.3378,0,0,0,1.8516,0l9.6865-9.7266,9.6855,9.7266a1.3076,1.3076,0,0,0,2.2334-.9258,1.283,1.283,0,0,0-.3818-.9258Z"/><text class="bdfe9a43-2089-4b6f-ab5c-d7e728069ac8" transform="translate(192.6483 147.3052)">Confirm <tspan class="ab85943c-fc05-40fb-9cb0-a439fc1200cf" x="80.3779" y="0">v</tspan><tspan x="90.5239" y="0">oting </tspan><tspan class="bf210a95-22ff-41f1-a363-7a03eb39139e" x="143.5098" y="0">k</tspan><tspan class="fed8fd2f-6a62-4b88-8969-b02aab2fc429" x="154.1538" y="0">e</tspan><tspan class="e0043b96-d4bf-42cf-a877-28e82de5ca11" x="165.1592" y="0">y</tspan><tspan class="b46b392b-b7f6-4241-9a36-e2eec31306df"><tspan x="28.7734" y="24">r</tspan><tspan class="b64be3ba-b48a-4c46-ab37-795d851c9b7a" x="36.019" y="24">egist</tspan><tspan class="a3b381d8-337e-4b16-85e1-f8eb6f737d4a" x="82.1694" y="24">r</tspan><tspan class="e0043b96-d4bf-42cf-a877-28e82de5ca11" x="89.3076" y="24">ation?</tspan></tspan></text></svg>