<svg id="ab08afd5-39fc-47e8-a9f4-2526eae84423" data-name="Layer 1" xmlns="http://www.w3.org/2000/svg" xmlns:xlink="http://www.w3.org/1999/xlink" viewBox="0 0 720 307"><defs><style>.a82c6373-62f3-447d-b846-688c6fbe2d39,.e3524515-2d47-4f59-b4da-f33d39ad7e2d,.f53a70b9-350b-4aab-bad5-b41b94390b8c{fill:#2c2ecf;}.f53a70b9-350b-4aab-bad5-b41b94390b8c{clip-rule:evenodd;}.e3524515-2d47-4f59-b4da-f33d39ad7e2d{fill-rule:evenodd;}.ff374076-d2c6-4a66-82fc-c1b46ad36be7{clip-path:url(#afffd830-e61e-4f96-bf99-b6668364fc68);}.ac0c4421-3ab7-4e9f-a99c-45ae401b51b7{fill:url(#b60e88a1-efb6-4048-aa86-da931aa553b2);}.ec731647-e7b3-46e1-8100-5b492ed14477{fill:url(#a47ee0be-9c45-49ce-b1a7-f166dd646987);}.be755519-6fab-4c3d-8a64-58880ebd8153{opacity:0.65;fill:url(#febfb80c-ba00-429f-a8a3-2ebf8a30db11);}.a938df0a-a4e9-4433-8f09-161d441b24a5,.eb72d417-c485-4cad-9679-007b4de2f38d{fill:#fff;}.a938df0a-a4e9-4433-8f09-161d441b24a5{font-size:19px;font-family:Roboto-Medium, Roboto;font-weight:500;letter-spacing:0.02em;}.b30478e6-edb5-4131-90a4-94784ae8c8fb{letter-spacing:0.0053em;}.ae63013b-fa6c-46fd-b2ee-816b282bcbcc{letter-spacing:0.02em;}.ab3106fb-e56f-4efb-89b2-6d52b8281d0e{clip-path:url(#acb0fbe3-2d18-4db3-ac1c-9911ecc6b2d2);}</style><clipPath id="afffd830-e61e-4f96-bf99-b6668364fc68"><path class="f53a70b9-350b-4aab-bad5-b41b94390b8c" d="M-684.9587,56.1612l8.0932-10.3368a.7009.7009,0,0,0-.12-.9838.701.701,0,0,0-.432-.149h-6.3649V33.2374s-.028-2.1305-1.7435-2.1305q-1.8261,0-1.8261,2.1305V44.6916h-5.8206a.7008.7008,0,0,0-.7007.7008.7014.7014,0,0,0,.1377.4173l7.662,10.3368a.7009.7009,0,0,0,.98.1457A.6979.6979,0,0,0-684.9587,56.1612Z"/></clipPath><linearGradient id="b60e88a1-efb6-4048-aa86-da931aa553b2" x1="-6296.6505" y1="760.5703" x2="-6303.3762" y2="765.5738" gradientTransform="matrix(0, -29.6032, -88.8056, 0, 68062.7298, -186350.4541)" gradientUnits="userSpaceOnUse"><stop offset="0" stop-color="#17d1aa"/><stop offset="0.5834" stop-color="#229db7"/><stop offset="1" stop-color="#3154ca"/></linearGradient><linearGradient id="a47ee0be-9c45-49ce-b1a7-f166dd646987" x1="596.7552" y1="236.5628" x2="436.1205" y2="90.0147" gradientUnits="userSpaceOnUse"><stop offset="0" stop-color="#17d1aa" stop-opacity="0"/><stop offset="0.1867" stop-color="#17d1aa" stop-opacity="0.0119"/><stop offset="0.297" stop-color="#17d1aa" stop-opacity="0.0517"/><stop offset="0.3876" stop-color="#17d1aa" stop-opacity="0.1196"/><stop offset="0.4673" stop-color="#17d1aa" stop-opacity="0.2158"/><stop offset="0.5393" stop-color="#17d1aa" stop-opacity="0.3391"/><stop offset="0.5683" stop-color="#17d1aa" stop-opacity="0.4"/><stop offset="0.854" stop-color="#297bc0" stop-opacity="0.8113"/><stop offset="1" stop-color="#3154ca"/></linearGradient><linearGradient id="febfb80c-ba00-429f-a8a3-2ebf8a30db11" x1="101.1725" y1="204.3911" x2="403.0257" y2="112.6373" gradientTransform="matrix(1, 0, 0, 1, 0, 0)" xlink:href="#b60e88a1-efb6-4048-aa86-da931aa553b2"/><clipPath id="acb0fbe3-2d18-4db3-ac1c-9911ecc6b2d2"><path class="f53a70b9-350b-4aab-bad5-b41b94390b8c" d="M-684.9587,1875.8929l8.0932-10.3369a.7008.7008,0,0,0-.12-.9837.701.701,0,0,0-.432-.149h-6.3649v-11.4542s-.028-2.1306-1.7435-2.1306q-1.8261,0-1.8261,2.1306v11.4542h-5.8206a.7007.7007,0,0,0-.7007.7008.7011.7011,0,0,0,.1377.4172l7.662,10.3369a.7008.7008,0,0,0,.98.1456A.6974.6974,0,0,0-684.9587,1875.8929Z"/></clipPath></defs><path class="e3524515-2d47-4f59-b4da-f33d39ad7e2d" d="M-684.9587,56.1612l8.0932-10.3368a.7009.7009,0,0,0-.12-.9838.701.701,0,0,0-.432-.149h-6.3649V33.2374s-.028-2.1305-1.7435-2.1305q-1.8261,0-1.8261,2.1305V44.6916h-5.8206a.7008.7008,0,0,0-.7007.7008.7014.7014,0,0,0,.1377.4173l7.662,10.3368a.7009.7009,0,0,0,.98.1457A.6979.6979,0,0,0-684.9587,56.1612Z"/><g class="ff374076-d2c6-4a66-82fc-c1b46ad36be7"><rect class="a82c6373-62f3-447d-b846-688c6fbe2d39" x="-2138.9259" y="-1513.2263" width="3363.5487" height="2391.8573"/></g><path id="e67f838c-360f-459f-807a-bccd1f51143f" data-name="Combined-Shape" class="ac0c4421-3ab7-4e9f-a99c-45ae401b51b7" d="M65.8979,200.8933V98.3042A18.9953,18.9953,0,0,1,84.8931,79.309h427.369a18.9952,18.9952,0,0,1,18.9952,18.9952V200.8933a18.9951,18.9951,0,0,1-18.9952,18.9952H84.8931A18.9952,18.9952,0,0,1,65.8979,200.8933Zm432.0572-49.58c0-16.6137-14.1773-30.0818-31.6659-30.0818S434.6233,134.7,434.6233,151.3132s14.1773,30.0817,31.6659,30.0817S497.9551,167.9268,497.9551,151.3132Z"/><path id="e5fb4db1-a9ac-407c-a7d2-9dcefd64d169" data-name="Combined-Shape" class="ec731647-e7b3-46e1-8100-5b492ed14477" d="M412.3129,112.2206a68.9453,68.9453,0,0,1,95.372-20.2755q.1443.0938.2882.1882L737.6516,242.9121A37.99,37.99,0,0,1,748.6651,295.36L714.573,347.8617a37.99,37.99,0,0,1-52.552,11.1723q-.08-.0516-.1589-.1037L432.5008,208.36A69.6374,69.6374,0,0,1,412.3129,112.2206Zm93.6791,39.0926c0-20.83-17.7756-37.7165-39.7028-37.7165s-39.7027,16.8862-39.7027,37.7165S444.362,189.03,466.2892,189.03,505.992,172.1434,505.992,151.3132Z"/><rect class="be755519-6fab-4c3d-8a64-58880ebd8153" x="150.1407" y="110.7564" width="246.1636" height="82.6738" rx="4"/><circle class="a82c6373-62f3-447d-b846-688c6fbe2d39" cx="466.2892" cy="151.0203" r="31.6659"/><circle class="a82c6373-62f3-447d-b846-688c6fbe2d39" cx="105.6585" cy="151.0203" r="29.7889"/><path class="eb72d417-c485-4cad-9679-007b4de2f38d" d="M377.658,164.5926l10.3535-10.291a1.271,1.271,0,0,0,.3775-.9072v-.001a1.2742,1.2742,0,0,0-.3775-.9082l-10.3535-10.291a1.2926,1.2926,0,0,0-1.8179,0,1.2761,1.2761,0,0,0-.3769.9082v.001a1.2729,1.2729,0,0,0,.3769.9072l9.4229,9.3838-9.4229,9.3818a1.2761,1.2761,0,0,0-.3769.9082v.001a1.2868,1.2868,0,0,0,2.1948.9072Z"/><path class="e3524515-2d47-4f59-b4da-f33d39ad7e2d" d="M470.696,68.6946,478.5445,58.67a.68.68,0,0,0-.5351-1.0985h-6.1725V46.4638s-.0271-2.0661-1.6907-2.0661q-1.7709,0-1.7709,2.0661v11.108h-5.6447a.6795.6795,0,0,0-.5459,1.0842l7.43,10.0243a.68.68,0,0,0,1.081.0143Z"/><text class="a938df0a-a4e9-4433-8f09-161d441b24a5" transform="translate(187.4754 150.8283)">New t<tspan class="b30478e6-edb5-4131-90a4-94784ae8c8fb" x="50.7544" y="0">r</tspan><tspan class="ae63013b-fa6c-46fd-b2ee-816b282bcbcc" x="57.5356" y="0">ansaction </tspan><tspan x="2.1152" y="22.7998">network id 0 / pr</tspan></text><path class="e3524515-2d47-4f59-b4da-f33d39ad7e2d" d="M-684.9587,1875.8929l8.0932-10.3369a.7008.7008,0,0,0-.12-.9837.701.701,0,0,0-.432-.149h-6.3649v-11.4542s-.028-2.1306-1.7435-2.1306q-1.8261,0-1.8261,2.1306v11.4542h-5.8206a.7007.7007,0,0,0-.7007.7008.7011.7011,0,0,0,.1377.4172l7.662,10.3369a.7008.7008,0,0,0,.98.1456A.6974.6974,0,0,0-684.9587,1875.8929Z"/><g class="ab3106fb-e56f-4efb-89b2-6d52b8281d0e"><rect class="a82c6373-62f3-447d-b846-688c6fbe2d39" x="-2138.9259" y="306.5053" width="3363.5487" height="2391.8573"/></g></svg>