<svg id="bb2ac787-0320-46a3-bc52-fce9da141db1" data-name="Layer 1" xmlns="http://www.w3.org/2000/svg" xmlns:xlink="http://www.w3.org/1999/xlink" viewBox="0 0 720 307"><defs><style>.e69d6426-df61-4d03-b26f-da8869a121fc{fill:url(#fc41361f-8438-4eb7-bd05-f2cfed465c40);}.bd7502a9-482b-45b4-b8e4-6da60da9c937{fill:url(#f48a5416-ac0d-41bc-ae8d-a462ea83428c);}.abc6b671-14e5-425d-9999-1ca0609a0be1{opacity:0.65;fill:url(#aa2c9ea6-f3bb-4b76-989b-236c2822c707);}.b58870de-64c5-4f82-8946-d8de5b46f86f,.ba0ef089-40e4-4561-9479-6d2593c7b0ae{fill:#2c2ecf;}.a76f7daf-4007-4e7e-95f4-946b05cd5313,.a890472d-f02f-4f24-ba20-1ae3586306d2,.acd5bf96-3a01-4a9d-bd3f-690fee05216d{fill:#fff;}.ba0ef089-40e4-4561-9479-6d2593c7b0ae{fill-rule:evenodd;}.acd5bf96-3a01-4a9d-bd3f-690fee05216d{font-size:19px;font-family:Roboto-Medium, Roboto;font-weight:500;letter-spacing:0.0346em;}.bd988a19-b144-4134-93ed-248d61f41daf{letter-spacing:0.04em;}.a8b49ef1-279c-4c43-9060-76463b22884a{letter-spacing:0.0488em;}.f3fd3d2b-ca52-4cdc-b5df-074e28e0ecaf{letter-spacing:0.04em;}.a76f7daf-4007-4e7e-95f4-946b05cd5313{font-size:18px;font-family:MuseoSansCyrl-700, Museo Sans Cyrl;font-weight:700;letter-spacing:0.22em;}.b0269707-f907-4241-8b4c-214c0f1efdf6{letter-spacing:0.26em;}</style><linearGradient id="fc41361f-8438-4eb7-bd05-f2cfed465c40" x1="-174.5921" y1="668.4464" x2="-181.3178" y2="673.4499" gradientTransform="matrix(0, -29.6032, -88.8056, 0, 59881.6083, -5118.0111)" gradientUnits="userSpaceOnUse"><stop offset="0" stop-color="#17d1aa"/><stop offset="0.5834" stop-color="#229db7"/><stop offset="1" stop-color="#3154ca"/></linearGradient><linearGradient id="f48a5416-ac0d-41bc-ae8d-a462ea83428c" x1="596.7552" y1="236.5628" x2="436.1205" y2="90.0147" gradientUnits="userSpaceOnUse"><stop offset="0" stop-color="#17d1aa" stop-opacity="0"/><stop offset="0.1867" stop-color="#17d1aa" stop-opacity="0.0119"/><stop offset="0.297" stop-color="#17d1aa" stop-opacity="0.0517"/><stop offset="0.3876" stop-color="#17d1aa" stop-opacity="0.1196"/><stop offset="0.4673" stop-color="#17d1aa" stop-opacity="0.2158"/><stop offset="0.5393" stop-color="#17d1aa" stop-opacity="0.3391"/><stop offset="0.5683" stop-color="#17d1aa" stop-opacity="0.4"/><stop offset="0.854" stop-color="#297bc0" stop-opacity="0.8113"/><stop offset="1" stop-color="#3154ca"/></linearGradient><linearGradient id="aa2c9ea6-f3bb-4b76-989b-236c2822c707" x1="101.1725" y1="204.3911" x2="403.0257" y2="112.6373" gradientTransform="matrix(1, 0, 0, 1, 0, 0)" xlink:href="#fc41361f-8438-4eb7-bd05-f2cfed465c40"/></defs><path id="e89ae7b1-aa11-4ebf-801e-cab2079539db" data-name="Combined-Shape" class="e69d6426-df61-4d03-b26f-da8869a121fc" d="M65.8979,200.8933V98.3042A18.9953,18.9953,0,0,1,84.8931,79.309h427.369a18.9952,18.9952,0,0,1,18.9952,18.9952V200.8933a18.9951,18.9951,0,0,1-18.9952,18.9952H84.8931A18.9952,18.9952,0,0,1,65.8979,200.8933Zm432.0572-49.58c0-16.6137-14.1773-30.0818-31.6659-30.0818S434.6233,134.7,434.6233,151.3132s14.1773,30.0817,31.6659,30.0817S497.9551,167.9268,497.9551,151.3132Z"/><path id="bff07f00-6990-4fbb-9519-1072f8642e6d" data-name="Combined-Shape" class="bd7502a9-482b-45b4-b8e4-6da60da9c937" d="M412.3129,112.2206a68.9453,68.9453,0,0,1,95.372-20.2755q.1443.0938.2882.1882L737.6516,242.9121A37.99,37.99,0,0,1,748.6651,295.36L714.573,347.8617a37.99,37.99,0,0,1-52.552,11.1723q-.08-.0516-.1589-.1037L432.5008,208.36A69.6374,69.6374,0,0,1,412.3129,112.2206Zm93.6791,39.0926c0-20.83-17.7756-37.7165-39.7028-37.7165s-39.7027,16.8862-39.7027,37.7165S444.362,189.03,466.2892,189.03,505.992,172.1434,505.992,151.3132Z"/><rect class="abc6b671-14e5-425d-9999-1ca0609a0be1" x="150.1407" y="110.7564" width="246.1636" height="82.6738" rx="4"/><circle class="b58870de-64c5-4f82-8946-d8de5b46f86f" cx="466.2892" cy="151.0203" r="31.6659"/><circle class="b58870de-64c5-4f82-8946-d8de5b46f86f" cx="105.6585" cy="151.0203" r="29.7889"/><path class="a890472d-f02f-4f24-ba20-1ae3586306d2" d="M377.658,164.5926l10.3535-10.291a1.271,1.271,0,0,0,.3775-.9072v-.001a1.2742,1.2742,0,0,0-.3775-.9082l-10.3535-10.291a1.2926,1.2926,0,0,0-1.8179,0,1.2761,1.2761,0,0,0-.3769.9082v.001a1.2729,1.2729,0,0,0,.3769.9072l9.4229,9.3838-9.4229,9.3818a1.2761,1.2761,0,0,0-.3769.9082v.001a1.2868,1.2868,0,0,0,2.1948.9072Z"/><path class="ba0ef089-40e4-4561-9479-6d2593c7b0ae" d="M470.696,68.6946,478.5445,58.67a.68.68,0,0,0-.5351-1.0985h-6.1725V46.4638s-.0271-2.0661-1.6907-2.0661q-1.7709,0-1.7709,2.0661v11.108h-5.6447a.6795.6795,0,0,0-.5459,1.0842l7.43,10.0243a.68.68,0,0,0,1.081.0143Z"/><text class="acd5bf96-3a01-4a9d-bd3f-690fee05216d" transform="translate(180.2772 143.8276)">A<tspan class="bd988a19-b144-4134-93ed-248d61f41daf" x="13.3027" y="0">uxilia</tspan><tspan class="a8b49ef1-279c-4c43-9060-76463b22884a" x="62.8115" y="0">r</tspan><tspan class="f3fd3d2b-ca52-4cdc-b5df-074e28e0ecaf" x="70.4185" y="0">y data hash</tspan></text><text class="a76f7daf-4007-4e7e-95f4-946b05cd5313" transform="translate(185.0125 176.6403)">___________<tspan class="b0269707-f907-4241-8b4c-214c0f1efdf6" x="163.3491" y="0">_</tspan></text></svg>