<svg id="a374bc80-402c-48a5-9490-70ced5ecfed0" data-name="Layer 1" xmlns="http://www.w3.org/2000/svg" xmlns:xlink="http://www.w3.org/1999/xlink" viewBox="0 0 720 307"><defs><style>.a363eba4-7b65-4453-8400-6eab64de3b8b,.a8205ab3-005d-4fe2-bd8f-08d25e2da61d,.ba67bb13-7484-44b6-8ee6-f9367779c893{fill:#2c2ecf;}.a363eba4-7b65-4453-8400-6eab64de3b8b{clipRule:evenodd;}.a8205ab3-005d-4fe2-bd8f-08d25e2da61d{fillRule:evenodd;}.a5e39dd9-4dec-43b0-b2cd-3314a2b04a0e{clip-path:url(#ae6a5dcb-3c8a-4913-b273-719b4959bb03);}.a63776a8-8974-46d7-bf84-de8497805566{clip-path:url(#f6663a29-b3ec-48bb-8115-ac59378a41b5);}.aa3ba63b-a109-4397-b3ba-285fb0e35609{clip-path:url(#b57109d3-32d4-4946-bbec-fa8f674d55cb);}.bf2a4638-7613-4b2b-ae3a-5c3e02297632{fill:url(#ac368de3-7fe4-436e-b057-1e572f07cf9d);}.b58706c1-16ab-4f8d-9457-862693c5dc99{fill:url(#a126e8a2-c011-47df-8ad9-dce283b73d32);}.a7ce3889-79ad-416e-914d-22ef092949b8{opacity:0.65;fill:url(#b26aec96-b435-4605-b35a-d21093e37ed0);}.a66f0590-6cb6-46a4-bc97-d63c626b2d08,.b7123fe9-9bc6-4f9b-b1a9-aa48a318dce0,.e5332536-120c-4366-81ae-4fb1c8e37089{fill:#fff;}.e5332536-120c-4366-81ae-4fb1c8e37089{font-size:19px;font-family:Roboto-Medium, Roboto;font-weight:500;letter-spacing:0.02em;}.bed9bb96-7982-4f58-a3a8-e5366ce01969{letter-spacing:0.0102em;}.af69936f-554c-4929-8d18-47bf03b74580{letter-spacing:0.0136em;}.fd576f9f-17be-4853-af17-be85f5ede8d6{letter-spacing:0.02em;}.b7123fe9-9bc6-4f9b-b1a9-aa48a318dce0{font-size:18px;font-family:MuseoSansCyrl-700, Museo Sans Cyrl;font-weight:700;letter-spacing:0.22em;}.f7e6a084-762d-4816-9b1c-008a7de3f766{letter-spacing:0.26em;}.fa906b16-5122-4cd6-8c3a-bf5b8c50f5ad{clip-path:url(#af3371e1-129f-4e4e-ab7a-77fcce6af953);}</style><clipPath id="ae6a5dcb-3c8a-4913-b273-719b4959bb03"><path class="a363eba4-7b65-4453-8400-6eab64de3b8b" d="M-684.9587,1555.1054l8.0932-10.3368a.7009.7009,0,0,0-.12-.9838.701.701,0,0,0-.432-.149h-6.3649v-11.4542s-.028-2.1306-1.7435-2.1306q-1.8261,0-1.8261,2.1306v11.4542h-5.8206a.7008.7008,0,0,0-.7007.7008.7011.7011,0,0,0,.1377.4172l7.662,10.3369a.7009.7009,0,0,0,.98.1457A.7008.7008,0,0,0-684.9587,1555.1054Z"/></clipPath><clipPath id="f6663a29-b3ec-48bb-8115-ac59378a41b5"><path class="a363eba4-7b65-4453-8400-6eab64de3b8b" d="M-684.9587,802.37l8.0932-10.3369a.7008.7008,0,0,0-.12-.9837.701.701,0,0,0-.432-.149h-6.3649V779.446s-.028-2.1306-1.7435-2.1306q-1.8261,0-1.8261,2.1306V790.9h-5.8206a.7008.7008,0,0,0-.7007.7008.7011.7011,0,0,0,.1377.4172l7.662,10.3369a.7008.7008,0,0,0,.98.1456A.6974.6974,0,0,0-684.9587,802.37Z"/></clipPath><clipPath id="b57109d3-32d4-4946-bbec-fa8f674d55cb"><path class="a363eba4-7b65-4453-8400-6eab64de3b8b" d="M-684.9587,56.1612l8.0932-10.3368a.7009.7009,0,0,0-.12-.9838.701.701,0,0,0-.432-.149h-6.3649V33.2374s-.028-2.1305-1.7435-2.1305q-1.8261,0-1.8261,2.1305V44.6916h-5.8206a.7008.7008,0,0,0-.7007.7008.7014.7014,0,0,0,.1377.4173l7.662,10.3368a.7009.7009,0,0,0,.98.1457A.6979.6979,0,0,0-684.9587,56.1612Z"/></clipPath><linearGradient id="ac368de3-7fe4-436e-b057-1e572f07cf9d" x1="-6380.941" y1="-1734.6991" x2="-6387.6668" y2="-1729.6956" gradientTransform="matrix(0, -29.6032, -88.8056, 0, -153531.2502, -188845.7235)" gradientUnits="userSpaceOnUse"><stop offset="0" stopColor="#17d1aa"/><stop offset="0.5834" stopColor="#229db7"/><stop offset="1" stopColor="#3154ca"/></linearGradient><linearGradient id="a126e8a2-c011-47df-8ad9-dce283b73d32" x1="596.7552" y1="236.5628" x2="436.1205" y2="90.0147" gradientUnits="userSpaceOnUse"><stop offset="0" stopColor="#17d1aa" stop-opacity="0"/><stop offset="0.1867" stopColor="#17d1aa" stop-opacity="0.0119"/><stop offset="0.297" stopColor="#17d1aa" stop-opacity="0.0517"/><stop offset="0.3876" stopColor="#17d1aa" stop-opacity="0.1196"/><stop offset="0.4673" stopColor="#17d1aa" stop-opacity="0.2158"/><stop offset="0.5393" stopColor="#17d1aa" stop-opacity="0.3391"/><stop offset="0.5683" stopColor="#17d1aa" stop-opacity="0.4"/><stop offset="0.854" stopColor="#297bc0" stop-opacity="0.8113"/><stop offset="1" stopColor="#3154ca"/></linearGradient><linearGradient id="b26aec96-b435-4605-b35a-d21093e37ed0" x1="101.1725" y1="204.3911" x2="403.0257" y2="112.6373" gradientTransform="matrix(1, 0, 0, 1, 0, 0)" xlink:href="#ac368de3-7fe4-436e-b057-1e572f07cf9d"/><clipPath id="af3371e1-129f-4e4e-ab7a-77fcce6af953"><path class="a363eba4-7b65-4453-8400-6eab64de3b8b" d="M-684.9587-619.3765l8.0932-10.3369a.7008.7008,0,0,0-.12-.9837.701.701,0,0,0-.432-.149h-6.3649V-642.3s-.028-2.1306-1.7435-2.1306q-1.8261,0-1.8261,2.1306v11.4542h-5.8206a.7007.7007,0,0,0-.7007.7008.7011.7011,0,0,0,.1377.4172l7.662,10.3369a.7008.7008,0,0,0,.98.1456A.6974.6974,0,0,0-684.9587-619.3765Z"/></clipPath></defs><path class="a8205ab3-005d-4fe2-bd8f-08d25e2da61d" d="M-684.9587,1555.1054l8.0932-10.3368a.7009.7009,0,0,0-.12-.9838.701.701,0,0,0-.432-.149h-6.3649v-11.4542s-.028-2.1306-1.7435-2.1306q-1.8261,0-1.8261,2.1306v11.4542h-5.8206a.7008.7008,0,0,0-.7007.7008.7011.7011,0,0,0,.1377.4172l7.662,10.3369a.7009.7009,0,0,0,.98.1457A.7008.7008,0,0,0-684.9587,1555.1054Z"/><g class="a5e39dd9-4dec-43b0-b2cd-3314a2b04a0e"><rect class="ba67bb13-7484-44b6-8ee6-f9367779c893" x="-2138.9259" y="-14.2822" width="3363.5487" height="2391.8573"/></g><path class="a8205ab3-005d-4fe2-bd8f-08d25e2da61d" d="M-684.9587,802.37l8.0932-10.3369a.7008.7008,0,0,0-.12-.9837.701.701,0,0,0-.432-.149h-6.3649V779.446s-.028-2.1306-1.7435-2.1306q-1.8261,0-1.8261,2.1306V790.9h-5.8206a.7008.7008,0,0,0-.7007.7008.7011.7011,0,0,0,.1377.4172l7.662,10.3369a.7008.7008,0,0,0,.98.1456A.6974.6974,0,0,0-684.9587,802.37Z"/><g class="a63776a8-8974-46d7-bf84-de8497805566"><rect class="ba67bb13-7484-44b6-8ee6-f9367779c893" x="-2138.9259" y="-767.0178" width="3363.5487" height="2391.8573"/></g><path class="a8205ab3-005d-4fe2-bd8f-08d25e2da61d" d="M-684.9587,56.1612l8.0932-10.3368a.7009.7009,0,0,0-.12-.9838.701.701,0,0,0-.432-.149h-6.3649V33.2374s-.028-2.1305-1.7435-2.1305q-1.8261,0-1.8261,2.1305V44.6916h-5.8206a.7008.7008,0,0,0-.7007.7008.7014.7014,0,0,0,.1377.4173l7.662,10.3368a.7009.7009,0,0,0,.98.1457A.6979.6979,0,0,0-684.9587,56.1612Z"/><g class="aa3ba63b-a109-4397-b3ba-285fb0e35609"><rect class="ba67bb13-7484-44b6-8ee6-f9367779c893" x="-2138.9259" y="-1513.2263" width="3363.5487" height="2391.8573"/></g><path id="a8290be8-b4b3-43f8-a168-002353949c6f" data-name="Combined-Shape" class="bf2a4638-7613-4b2b-ae3a-5c3e02297632" d="M65.8979,200.8933V98.3042A18.9953,18.9953,0,0,1,84.8931,79.309h427.369a18.9952,18.9952,0,0,1,18.9952,18.9952V200.8933a18.9951,18.9951,0,0,1-18.9952,18.9952H84.8931A18.9952,18.9952,0,0,1,65.8979,200.8933Zm432.0572-49.58c0-16.6137-14.1773-30.0818-31.6659-30.0818S434.6233,134.7,434.6233,151.3132s14.1773,30.0817,31.6659,30.0817S497.9551,167.9268,497.9551,151.3132Z"/><path id="fe7e9949-8b8b-4612-8303-c2e71a8308f8" data-name="Combined-Shape" class="b58706c1-16ab-4f8d-9457-862693c5dc99" d="M412.3129,112.2206a68.9453,68.9453,0,0,1,95.372-20.2755q.1443.0938.2882.1882L737.6516,242.9121A37.99,37.99,0,0,1,748.6651,295.36L714.573,347.8617a37.99,37.99,0,0,1-52.552,11.1723q-.08-.0516-.1589-.1037L432.5008,208.36A69.6374,69.6374,0,0,1,412.3129,112.2206Zm93.6791,39.0926c0-20.83-17.7756-37.7165-39.7028-37.7165s-39.7027,16.8862-39.7027,37.7165S444.362,189.03,466.2892,189.03,505.992,172.1434,505.992,151.3132Z"/><rect class="a7ce3889-79ad-416e-914d-22ef092949b8" x="150.1407" y="110.7564" width="246.1636" height="82.6738" rx="4"/><circle class="ba67bb13-7484-44b6-8ee6-f9367779c893" cx="466.2892" cy="151.0203" r="31.6659"/><circle class="ba67bb13-7484-44b6-8ee6-f9367779c893" cx="105.6585" cy="151.0203" r="29.7889"/><path class="a66f0590-6cb6-46a4-bc97-d63c626b2d08" d="M377.658,164.5926l10.3535-10.291a1.271,1.271,0,0,0,.3775-.9072v-.001a1.2742,1.2742,0,0,0-.3775-.9082l-10.3535-10.291a1.2926,1.2926,0,0,0-1.8179,0,1.2761,1.2761,0,0,0-.3769.9082v.001a1.2729,1.2729,0,0,0,.3769.9072l9.4229,9.3838-9.4229,9.3818a1.2761,1.2761,0,0,0-.3769.9082v.001a1.2868,1.2868,0,0,0,2.1948.9072Z"/><path class="a8205ab3-005d-4fe2-bd8f-08d25e2da61d" d="M470.696,68.6946,478.5445,58.67a.68.68,0,0,0-.5351-1.0985h-6.1725V46.4638s-.0271-2.0661-1.6907-2.0661q-1.7709,0-1.7709,2.0661v11.108h-5.6447a.6795.6795,0,0,0-.5459,1.0842l7.43,10.0243a.68.68,0,0,0,1.081.0143Z"/><text class="e5332536-120c-4366-81ae-4fb1c8e37089" transform="translate(217.1541 143.8284)">Staking <tspan class="bed9bb96-7982-4f58-a3a8-e5366ce01969" x="71.9429" y="0">k</tspan><tspan class="af69936f-554c-4929-8d18-47bf03b74580" x="82.0547" y="0">e</tspan><tspan class="fd576f9f-17be-4853-af17-be85f5ede8d6" x="92.5098" y="0">y</tspan></text><text class="b7123fe9-9bc6-4f9b-b1a9-aa48a318dce0" transform="translate(185.0125 176.6411)">___________<tspan class="f7e6a084-762d-4816-9b1c-008a7de3f766" x="163.3491" y="0">_</tspan></text><path class="a8205ab3-005d-4fe2-bd8f-08d25e2da61d" d="M-684.9587-619.3765l8.0932-10.3369a.7008.7008,0,0,0-.12-.9837.701.701,0,0,0-.432-.149h-6.3649V-642.3s-.028-2.1306-1.7435-2.1306q-1.8261,0-1.8261,2.1306v11.4542h-5.8206a.7007.7007,0,0,0-.7007.7008.7011.7011,0,0,0,.1377.4172l7.662,10.3369a.7008.7008,0,0,0,.98.1456A.6974.6974,0,0,0-684.9587-619.3765Z"/><g class="fa906b16-5122-4cd6-8c3a-bf5b8c50f5ad"><rect class="ba67bb13-7484-44b6-8ee6-f9367779c893" x="-2138.9259" y="-2188.7641" width="3363.5487" height="2391.8573"/></g></svg>