<svg id="b15e2fc5-d80f-4588-8224-68e41175bade" data-name="Layer 1" xmlns="http://www.w3.org/2000/svg" xmlns:xlink="http://www.w3.org/1999/xlink" viewBox="0 0 720 307"><defs><style>.a9d99ea3-54d8-4db0-b7bf-1beb15f85ee5{fill:url(#f578e595-e1e1-433c-887e-47de41ef026b);}.b5cf6e18-35e7-481d-a8ef-823d01cd6325{fill:url(#acb8279c-433b-4794-b883-0eba90ddbb94);}.f062867c-89f8-499c-a6e7-7345fba8af2e{opacity:0.65;fill:url(#bf016687-0d1b-4f8d-8bd5-cea378dc2700);}.bb3a2a0c-46af-4b55-99e3-71a479f648dc,.bc57b8f9-3e71-4e2f-9ed0-561a8f80d99a{fill:#2c2ecf;}.b881c3ae-cab5-4f1b-9367-66b70c484547,.ba6edf0b-ac39-43df-934b-b44246a10b13,.bd0828a3-b630-4e91-94be-cd2a474ab588{fill:#fff;}.bb3a2a0c-46af-4b55-99e3-71a479f648dc{fillRule:evenodd;}.ba6edf0b-ac39-43df-934b-b44246a10b13{font-size:19px;font-family:Roboto-Medium, Roboto;font-weight:500;letter-spacing:0.02em;}.bd0828a3-b630-4e91-94be-cd2a474ab588{font-size:18px;font-family:MuseoSansCyrl-700, Museo Sans Cyrl;font-weight:700;letter-spacing:0.22em;}.aaaca8ea-fa82-4039-a964-04c76767a729{letter-spacing:0.26em;}</style><linearGradient id="f578e595-e1e1-433c-887e-47de41ef026b" x1="-174.5921" y1="668.4464" x2="-181.3178" y2="673.4499" gradientTransform="matrix(0, -29.6032, -88.8056, 0, 59881.6083, -5118.0111)" gradientUnits="userSpaceOnUse"><stop offset="0" stopColor="#17d1aa"/><stop offset="0.5834" stopColor="#229db7"/><stop offset="1" stopColor="#3154ca"/></linearGradient><linearGradient id="acb8279c-433b-4794-b883-0eba90ddbb94" x1="596.7552" y1="236.5628" x2="436.1205" y2="90.0147" gradientUnits="userSpaceOnUse"><stop offset="0" stopColor="#17d1aa" stop-opacity="0"/><stop offset="0.1867" stopColor="#17d1aa" stop-opacity="0.0119"/><stop offset="0.297" stopColor="#17d1aa" stop-opacity="0.0517"/><stop offset="0.3876" stopColor="#17d1aa" stop-opacity="0.1196"/><stop offset="0.4673" stopColor="#17d1aa" stop-opacity="0.2158"/><stop offset="0.5393" stopColor="#17d1aa" stop-opacity="0.3391"/><stop offset="0.5683" stopColor="#17d1aa" stop-opacity="0.4"/><stop offset="0.854" stopColor="#297bc0" stop-opacity="0.8113"/><stop offset="1" stopColor="#3154ca"/></linearGradient><linearGradient id="bf016687-0d1b-4f8d-8bd5-cea378dc2700" x1="101.1725" y1="204.3911" x2="403.0257" y2="112.6373" gradientTransform="matrix(1, 0, 0, 1, 0, 0)" xlink:href="#f578e595-e1e1-433c-887e-47de41ef026b"/></defs><path id="a6bfe85f-af3e-4f62-915e-cddc70f04873" data-name="Combined-Shape" class="a9d99ea3-54d8-4db0-b7bf-1beb15f85ee5" d="M65.8979,200.8933V98.3042A18.9953,18.9953,0,0,1,84.8931,79.309h427.369a18.9952,18.9952,0,0,1,18.9952,18.9952V200.8933a18.9951,18.9951,0,0,1-18.9952,18.9952H84.8931A18.9952,18.9952,0,0,1,65.8979,200.8933Zm432.0572-49.58c0-16.6137-14.1773-30.0818-31.6659-30.0818S434.6233,134.7,434.6233,151.3132s14.1773,30.0817,31.6659,30.0817S497.9551,167.9268,497.9551,151.3132Z"/><path id="e0e6a86d-ace9-4c69-9ae2-0194f432d7c6" data-name="Combined-Shape" class="b5cf6e18-35e7-481d-a8ef-823d01cd6325" d="M412.3129,112.2206a68.9453,68.9453,0,0,1,95.372-20.2755q.1443.0938.2882.1882L737.6516,242.9121A37.99,37.99,0,0,1,748.6651,295.36L714.573,347.8617a37.99,37.99,0,0,1-52.552,11.1723q-.08-.0516-.1589-.1037L432.5008,208.36A69.6374,69.6374,0,0,1,412.3129,112.2206Zm93.6791,39.0926c0-20.83-17.7756-37.7165-39.7028-37.7165s-39.7027,16.8862-39.7027,37.7165S444.362,189.03,466.2892,189.03,505.992,172.1434,505.992,151.3132Z"/><rect class="f062867c-89f8-499c-a6e7-7345fba8af2e" x="150.1407" y="110.7564" width="246.1636" height="82.6738" rx="4"/><circle class="bc57b8f9-3e71-4e2f-9ed0-561a8f80d99a" cx="466.2892" cy="151.0203" r="31.6659"/><circle class="bc57b8f9-3e71-4e2f-9ed0-561a8f80d99a" cx="105.6585" cy="151.0203" r="29.7889"/><path class="b881c3ae-cab5-4f1b-9367-66b70c484547" d="M377.658,164.5926l10.3535-10.291a1.271,1.271,0,0,0,.3775-.9072v-.001a1.2742,1.2742,0,0,0-.3775-.9082l-10.3535-10.291a1.2926,1.2926,0,0,0-1.8179,0,1.2761,1.2761,0,0,0-.3769.9082v.001a1.2729,1.2729,0,0,0,.3769.9072l9.4229,9.3838-9.4229,9.3818a1.2761,1.2761,0,0,0-.3769.9082v.001a1.2868,1.2868,0,0,0,2.1948.9072Z"/><path class="b881c3ae-cab5-4f1b-9367-66b70c484547" d="M168.3925,142.2l-10.3535,10.291a1.271,1.271,0,0,0-.3775.9072v.001a1.274,1.274,0,0,0,.3775.9082l10.3535,10.2911a1.2926,1.2926,0,0,0,1.8178,0,1.2759,1.2759,0,0,0,.377-.9082v-.001a1.2728,1.2728,0,0,0-.377-.9073l-9.4228-9.3838,9.4229-9.3818a1.2759,1.2759,0,0,0,.3769-.9082v-.001a1.2868,1.2868,0,0,0-2.1948-.9072Z"/><path class="bb3a2a0c-46af-4b55-99e3-71a479f648dc" d="M470.696,68.6946,478.5445,58.67a.68.68,0,0,0-.5351-1.0985h-6.1725V46.4638s-.0271-2.0661-1.6907-2.0661q-1.7709,0-1.7709,2.0661v11.108h-5.6447a.6795.6795,0,0,0-.5459,1.0842l7.43,10.0243a.68.68,0,0,0,1.081.0143Z"/><text class="ba6edf0b-ac39-43df-934b-b44246a10b13" transform="translate(239.7669 143.8284)">Nonce</text><text class="bd0828a3-b630-4e91-94be-cd2a474ab588" transform="translate(185.0125 176.6411)">___________<tspan class="aaaca8ea-fa82-4039-a964-04c76767a729" x="163.3491" y="0">_</tspan></text></svg>