<svg id="ad90a3e8-7362-4e5a-9252-ea949fb49060" data-name="Layer 1" xmlns="http://www.w3.org/2000/svg" xmlns:xlink="http://www.w3.org/1999/xlink" viewBox="0 0 720 307"><defs><style>.b7661436-0ba0-4f1a-953c-def495ef8f30,.bfa0e152-3173-4b82-a917-b45ff3ad724c,.e42163d7-701a-4a18-8e16-47165191975a{fill:#2c2ecf;}.bfa0e152-3173-4b82-a917-b45ff3ad724c{clipRule:evenodd;}.e42163d7-701a-4a18-8e16-47165191975a{fillRule:evenodd;}.a94465f1-4b65-4baa-b2ba-60f6686b6db1{clip-path:url(#ff7c551b-3ae3-4eba-98e5-8abb0a13a071);}.bb3821a2-8fa3-4d12-b972-d6a9bab8b628{clip-path:url(#a601e323-b57b-4ba7-b5c2-0c1c11f5fc87);}.aad76ea6-67c3-4341-a821-c49c74a0ceb3{fill:url(#fa530324-9e1a-40ef-a839-9189dfe83b5d);}.e3fc830c-15b6-4fe1-9d2c-89d87f748925{fill:url(#eb021b02-095a-4ded-92c5-a892e41d1f4e);}.e036ec23-3a59-4703-80e6-c4af96fcef58{opacity:0.65;fill:url(#a46785c7-c830-4074-8e83-3a92cf0c0dc9);}.a33ec442-b122-4dd7-bef8-9929352fcc44,.a381a4d7-1b7e-4a2d-ae8b-ac54bec21499,.e48d8c1d-99e4-4056-a1d2-859f95a2c16e{fill:#fff;}.e48d8c1d-99e4-4056-a1d2-859f95a2c16e{font-size:19px;font-family:Roboto-Medium, Roboto;font-weight:500;letter-spacing:0.02em;}.bfa1dffa-fb70-49e6-918b-bb5862b4572c{letter-spacing:0.0107em;}.b43ecbce-0496-4be8-9050-c0dfdd1d4822{letter-spacing:0.0053em;}.a33ec442-b122-4dd7-bef8-9929352fcc44{font-size:18px;font-family:MuseoSansCyrl-700, Museo Sans Cyrl;font-weight:700;letter-spacing:0.22em;}.a4a45d81-db85-447a-99b7-a0ecd1a72b0e{letter-spacing:0.26em;}.ba3afdf2-757d-4fda-a454-318f8a62936d{clip-path:url(#be521576-1353-4008-86d5-ba8d016949de);}.aabc8fa7-6a50-43a0-8ee9-509ebc4bc9dd{clip-path:url(#a168ad72-f9e4-4c9e-853f-77e8354493eb);}</style><clipPath id="ff7c551b-3ae3-4eba-98e5-8abb0a13a071"><path class="bfa0e152-3173-4b82-a917-b45ff3ad724c" d="M-684.9587,525.6571l8.0932-10.3368a.7008.7008,0,0,0-.12-.9837.7.7,0,0,0-.432-.149h-6.3649V502.7333s-.028-2.13-1.7435-2.13q-1.8261,0-1.8261,2.13v11.4543h-5.8206a.7007.7007,0,0,0-.7007.7007.7012.7012,0,0,0,.1377.4173l7.662,10.3368a.7009.7009,0,0,0,.98.1457A.6979.6979,0,0,0-684.9587,525.6571Z"/></clipPath><clipPath id="a601e323-b57b-4ba7-b5c2-0c1c11f5fc87"><path class="bfa0e152-3173-4b82-a917-b45ff3ad724c" d="M-684.9587,56.1612l8.0932-10.3368a.7009.7009,0,0,0-.12-.9838.701.701,0,0,0-.432-.149h-6.3649V33.2374s-.028-2.1305-1.7435-2.1305q-1.8261,0-1.8261,2.1305V44.6916h-5.8206a.7008.7008,0,0,0-.7007.7008.7014.7014,0,0,0,.1377.4173l7.662,10.3368a.7009.7009,0,0,0,.98.1457A.6979.6979,0,0,0-684.9587,56.1612Z"/></clipPath><linearGradient id="fa530324-9e1a-40ef-a839-9189dfe83b5d" x1="-6371.787" y1="-1463.71" x2="-6378.5127" y2="-1458.7065" gradientTransform="matrix(0, -29.6032, -88.8056, 0, -129465.8935, -188574.7344)" gradientUnits="userSpaceOnUse"><stop offset="0" stopColor="#17d1aa"/><stop offset="0.5834" stopColor="#229db7"/><stop offset="1" stopColor="#3154ca"/></linearGradient><linearGradient id="eb021b02-095a-4ded-92c5-a892e41d1f4e" x1="596.7552" y1="236.5628" x2="436.1205" y2="90.0147" gradientUnits="userSpaceOnUse"><stop offset="0" stopColor="#17d1aa" stop-opacity="0"/><stop offset="0.1867" stopColor="#17d1aa" stop-opacity="0.0119"/><stop offset="0.297" stopColor="#17d1aa" stop-opacity="0.0517"/><stop offset="0.3876" stopColor="#17d1aa" stop-opacity="0.1196"/><stop offset="0.4673" stopColor="#17d1aa" stop-opacity="0.2158"/><stop offset="0.5393" stopColor="#17d1aa" stop-opacity="0.3391"/><stop offset="0.5683" stopColor="#17d1aa" stop-opacity="0.4"/><stop offset="0.854" stopColor="#297bc0" stop-opacity="0.8113"/><stop offset="1" stopColor="#3154ca"/></linearGradient><linearGradient id="a46785c7-c830-4074-8e83-3a92cf0c0dc9" x1="101.1725" y1="204.3911" x2="403.0257" y2="112.6373" gradientTransform="matrix(1, 0, 0, 1, 0, 0)" xlink:href="#fa530324-9e1a-40ef-a839-9189dfe83b5d"/><clipPath id="be521576-1353-4008-86d5-ba8d016949de"><path class="bfa0e152-3173-4b82-a917-b45ff3ad724c" d="M-684.9587-426.0716l8.0932-10.3369a.7008.7008,0,0,0-.12-.9837.701.701,0,0,0-.432-.149h-6.3649v-11.4542s-.028-2.1306-1.7435-2.1306q-1.8261,0-1.8261,2.1306v11.4542h-5.8206a.7007.7007,0,0,0-.7007.7007.7012.7012,0,0,0,.1377.4173l7.662,10.3369a.7008.7008,0,0,0,.98.1456A.6974.6974,0,0,0-684.9587-426.0716Z"/></clipPath><clipPath id="a168ad72-f9e4-4c9e-853f-77e8354493eb"><path class="bfa0e152-3173-4b82-a917-b45ff3ad724c" d="M-684.9587,1427.6491l8.0932-10.3368a.7008.7008,0,0,0-.12-.9837.7.7,0,0,0-.432-.149h-6.3649v-11.4543s-.028-2.13-1.7435-2.13q-1.8261,0-1.8261,2.13V1416.18h-5.8206a.7007.7007,0,0,0-.7007.7007.7012.7012,0,0,0,.1377.4173l7.662,10.3368a.7009.7009,0,0,0,.98.1457A.6979.6979,0,0,0-684.9587,1427.6491Z"/></clipPath></defs><path class="e42163d7-701a-4a18-8e16-47165191975a" d="M-684.9587,525.6571l8.0932-10.3368a.7008.7008,0,0,0-.12-.9837.7.7,0,0,0-.432-.149h-6.3649V502.7333s-.028-2.13-1.7435-2.13q-1.8261,0-1.8261,2.13v11.4543h-5.8206a.7007.7007,0,0,0-.7007.7007.7012.7012,0,0,0,.1377.4173l7.662,10.3368a.7009.7009,0,0,0,.98.1457A.6979.6979,0,0,0-684.9587,525.6571Z"/><g class="a94465f1-4b65-4baa-b2ba-60f6686b6db1"><rect class="b7661436-0ba0-4f1a-953c-def495ef8f30" x="-2138.9259" y="-1043.7304" width="3363.5487" height="2391.8573"/></g><path class="e42163d7-701a-4a18-8e16-47165191975a" d="M-684.9587,56.1612l8.0932-10.3368a.7009.7009,0,0,0-.12-.9838.701.701,0,0,0-.432-.149h-6.3649V33.2374s-.028-2.1305-1.7435-2.1305q-1.8261,0-1.8261,2.1305V44.6916h-5.8206a.7008.7008,0,0,0-.7007.7008.7014.7014,0,0,0,.1377.4173l7.662,10.3368a.7009.7009,0,0,0,.98.1457A.6979.6979,0,0,0-684.9587,56.1612Z"/><g class="bb3821a2-8fa3-4d12-b972-d6a9bab8b628"><rect class="b7661436-0ba0-4f1a-953c-def495ef8f30" x="-2138.9259" y="-1513.2263" width="3363.5487" height="2391.8573"/></g><path id="aa9c19b1-4e39-456d-9ab2-5f1d5659b8df" data-name="Combined-Shape" class="aad76ea6-67c3-4341-a821-c49c74a0ceb3" d="M65.8979,200.8933V98.3042A18.9953,18.9953,0,0,1,84.8931,79.309h427.369a18.9952,18.9952,0,0,1,18.9952,18.9952V200.8933a18.9951,18.9951,0,0,1-18.9952,18.9952H84.8931A18.9952,18.9952,0,0,1,65.8979,200.8933Zm432.0572-49.58c0-16.6137-14.1773-30.0818-31.6659-30.0818S434.6233,134.7,434.6233,151.3132s14.1773,30.0817,31.6659,30.0817S497.9551,167.9268,497.9551,151.3132Z"/><path id="e76bd928-c6ec-4112-835c-6b4c98504b43" data-name="Combined-Shape" class="e3fc830c-15b6-4fe1-9d2c-89d87f748925" d="M412.3129,112.2206a68.9453,68.9453,0,0,1,95.372-20.2755q.1443.0938.2882.1882L737.6516,242.9121A37.99,37.99,0,0,1,748.6651,295.36L714.573,347.8617a37.99,37.99,0,0,1-52.552,11.1723q-.08-.0516-.1589-.1037L432.5008,208.36A69.6374,69.6374,0,0,1,412.3129,112.2206Zm93.6791,39.0926c0-20.83-17.7756-37.7165-39.7028-37.7165s-39.7027,16.8862-39.7027,37.7165S444.362,189.03,466.2892,189.03,505.992,172.1434,505.992,151.3132Z"/><rect class="e036ec23-3a59-4703-80e6-c4af96fcef58" x="150.1407" y="110.7564" width="246.1636" height="82.6738" rx="4"/><circle class="b7661436-0ba0-4f1a-953c-def495ef8f30" cx="466.2892" cy="151.0203" r="31.6659"/><circle class="b7661436-0ba0-4f1a-953c-def495ef8f30" cx="105.6585" cy="151.0203" r="29.7889"/><path class="a381a4d7-1b7e-4a2d-ae8b-ac54bec21499" d="M377.658,164.5926l10.3535-10.291a1.271,1.271,0,0,0,.3775-.9072v-.001a1.2742,1.2742,0,0,0-.3775-.9082l-10.3535-10.291a1.2926,1.2926,0,0,0-1.8179,0,1.2761,1.2761,0,0,0-.3769.9082v.001a1.2729,1.2729,0,0,0,.3769.9072l9.4229,9.3838-9.4229,9.3818a1.2761,1.2761,0,0,0-.3769.9082v.001a1.2868,1.2868,0,0,0,2.1948.9072Z"/><path class="e42163d7-701a-4a18-8e16-47165191975a" d="M470.696,68.6946,478.5445,58.67a.68.68,0,0,0-.5351-1.0985h-6.1725V46.4638s-.0271-2.0661-1.6907-2.0661q-1.7709,0-1.7709,2.0661v11.108h-5.6447a.6795.6795,0,0,0-.5459,1.0842l7.43,10.0243a.68.68,0,0,0,1.081.0143Z"/><text class="e48d8c1d-99e4-4056-a1d2-859f95a2c16e" transform="translate(205.057 143.8283)">Rewa<tspan class="bfa1dffa-fb70-49e6-918b-bb5862b4572c" x="47.9717" y="0">r</tspan><tspan x="54.855" y="0">ds go </tspan><tspan class="b43ecbce-0496-4be8-9050-c0dfdd1d4822" x="108.7173" y="0">t</tspan><tspan x="115.1367" y="0">o</tspan></text><text class="a33ec442-b122-4dd7-bef8-9929352fcc44" transform="translate(185.0125 176.6411)">___________<tspan class="a4a45d81-db85-447a-99b7-a0ecd1a72b0e" x="163.3491" y="0">_</tspan></text><path class="e42163d7-701a-4a18-8e16-47165191975a" d="M-684.9587-426.0716l8.0932-10.3369a.7008.7008,0,0,0-.12-.9837.701.701,0,0,0-.432-.149h-6.3649v-11.4542s-.028-2.1306-1.7435-2.1306q-1.8261,0-1.8261,2.1306v11.4542h-5.8206a.7007.7007,0,0,0-.7007.7007.7012.7012,0,0,0,.1377.4173l7.662,10.3369a.7008.7008,0,0,0,.98.1456A.6974.6974,0,0,0-684.9587-426.0716Z"/><g class="ba3afdf2-757d-4fda-a454-318f8a62936d"><rect class="b7661436-0ba0-4f1a-953c-def495ef8f30" x="-2138.9259" y="-1995.4592" width="3363.5487" height="2391.8573"/></g><path class="e42163d7-701a-4a18-8e16-47165191975a" d="M-684.9587,1427.6491l8.0932-10.3368a.7008.7008,0,0,0-.12-.9837.7.7,0,0,0-.432-.149h-6.3649v-11.4543s-.028-2.13-1.7435-2.13q-1.8261,0-1.8261,2.13V1416.18h-5.8206a.7007.7007,0,0,0-.7007.7007.7012.7012,0,0,0,.1377.4173l7.662,10.3368a.7009.7009,0,0,0,.98.1457A.6979.6979,0,0,0-684.9587,1427.6491Z"/><g class="aabc8fa7-6a50-43a0-8ee9-509ebc4bc9dd"><rect class="b7661436-0ba0-4f1a-953c-def495ef8f30" x="-2138.9259" y="-141.7384" width="3363.5487" height="2391.8573"/></g></svg>