<svg id="a940cf18-840c-4672-82fa-fbf88b7613fd" data-name="Layer 1" xmlns="http://www.w3.org/2000/svg" xmlns:xlink="http://www.w3.org/1999/xlink" viewBox="0 0 720 307"><defs><style>.b13ce33c-9bf0-4919-8e05-e75e940204fa,.e2d309dd-ccb6-4e94-b9f6-df285d89f856,.e39b968f-00ff-464d-a64a-1c14aa2b519b{fill:#2c2ecf;}.e2d309dd-ccb6-4e94-b9f6-df285d89f856{clip-rule:evenodd;}.ac16c141-5e3f-4ab6-93e3-cd997d9a26c1{fill:url(#eb412d81-11de-4133-ae27-b0a5bc55f1e4);}.ba0af8cd-3969-4f3b-a94c-b060ec12e7ac{fill:url(#e2eb9460-d646-4046-8228-0619bf1d1ced);}.a1032256-1436-4218-8338-325de866d46a{opacity:0.65;fill:url(#a8ec9126-efae-4352-ae62-79b07d6ee132);}.b60bbb81-d145-4507-8141-599157d59ed8{font-size:19px;font-family:Roboto-Medium, Roboto;font-weight:500;letter-spacing:0.06em;}.b60bbb81-d145-4507-8141-599157d59ed8,.bcdc5735-5719-4005-9f7e-0899af94d407{fill:#fff;}.ada4cd40-8289-495d-9953-7b4dc926cf35{letter-spacing:0.0844em;}.a1dc61fa-b60e-445d-8f53-171bdfcb0957{letter-spacing:0.0502em;}.a776a69a-71a7-4d0c-a494-5d19374d8a3e{letter-spacing:0.0537em;}.e39b968f-00ff-464d-a64a-1c14aa2b519b{fill-rule:evenodd;}.baab00fc-d5cc-47be-a526-897b9d6ae84d{clip-path:url(#ffaedeb5-4b1c-4ca4-8793-53ffeb3b3723);}.a61c52cb-975f-449f-82be-85b459adea19{clip-path:url(#f5b43600-6ba0-4179-94ad-bb64e807d21a);}</style><linearGradient id="eb412d81-11de-4133-ae27-b0a5bc55f1e4" x1="-6670.7865" y1="-6444.0992" x2="-6677.5123" y2="-6439.0957" gradientTransform="matrix(0, -29.6032, -88.8056, 0, -571752.5114, -197426.0743)" gradientUnits="userSpaceOnUse"><stop offset="0" stop-color="#17d1aa"/><stop offset="0.5834" stop-color="#229db7"/><stop offset="1" stop-color="#3154ca"/></linearGradient><linearGradient id="e2eb9460-d646-4046-8228-0619bf1d1ced" x1="596.7552" y1="236.5628" x2="436.1205" y2="90.0147" gradientUnits="userSpaceOnUse"><stop offset="0" stop-color="#17d1aa" stop-opacity="0"/><stop offset="0.1867" stop-color="#17d1aa" stop-opacity="0.0119"/><stop offset="0.297" stop-color="#17d1aa" stop-opacity="0.0517"/><stop offset="0.3876" stop-color="#17d1aa" stop-opacity="0.1196"/><stop offset="0.4673" stop-color="#17d1aa" stop-opacity="0.2158"/><stop offset="0.5393" stop-color="#17d1aa" stop-opacity="0.3391"/><stop offset="0.5683" stop-color="#17d1aa" stop-opacity="0.4"/><stop offset="0.854" stop-color="#297bc0" stop-opacity="0.8113"/><stop offset="1" stop-color="#3154ca"/></linearGradient><linearGradient id="a8ec9126-efae-4352-ae62-79b07d6ee132" x1="101.1725" y1="204.3911" x2="403.0257" y2="112.6373" gradientTransform="matrix(1, 0, 0, 1, 0, 0)" xlink:href="#eb412d81-11de-4133-ae27-b0a5bc55f1e4"/><clipPath id="ffaedeb5-4b1c-4ca4-8793-53ffeb3b3723"><path class="e2d309dd-ccb6-4e94-b9f6-df285d89f856" d="M-684.9587-384.3892l8.0932-10.3369a.7008.7008,0,0,0-.12-.9837.701.701,0,0,0-.432-.149h-6.3649V-407.313s-.028-2.1306-1.7435-2.1306q-1.8261,0-1.8261,2.1306v11.4542h-5.8206a.7007.7007,0,0,0-.7007.7007.7012.7012,0,0,0,.1377.4173l7.662,10.3369a.7008.7008,0,0,0,.98.1456A.6974.6974,0,0,0-684.9587-384.3892Z"/></clipPath><clipPath id="f5b43600-6ba0-4179-94ad-bb64e807d21a"><path class="e2d309dd-ccb6-4e94-b9f6-df285d89f856" d="M-684.9587,57.6389l8.0932-10.3368a.7009.7009,0,0,0-.12-.9838.701.701,0,0,0-.432-.149h-6.3649V34.7151s-.028-2.13-1.7435-2.13q-1.8261,0-1.8261,2.13V46.1693h-5.8206a.7008.7008,0,0,0-.7007.7008.7016.7016,0,0,0,.1377.4173l7.662,10.3368a.7009.7009,0,0,0,.98.1457A.7008.7008,0,0,0-684.9587,57.6389Z"/></clipPath></defs><path id="b97a4cf5-7079-4db7-8199-93dd27f537d2" data-name="Combined-Shape" class="ac16c141-5e3f-4ab6-93e3-cd997d9a26c1" d="M65.8979,200.8933V98.3042A18.9953,18.9953,0,0,1,84.8931,79.309h427.369a18.9952,18.9952,0,0,1,18.9952,18.9952V200.8933a18.9951,18.9951,0,0,1-18.9952,18.9952H84.8931A18.9952,18.9952,0,0,1,65.8979,200.8933Zm432.0572-49.58c0-16.6137-14.1773-30.0818-31.6659-30.0818S434.6233,134.7,434.6233,151.3132s14.1773,30.0817,31.6659,30.0817S497.9551,167.9268,497.9551,151.3132Z"/><path id="ae7dd48f-23b2-4747-aef1-ad41e2ab190e" data-name="Combined-Shape" class="ba0af8cd-3969-4f3b-a94c-b060ec12e7ac" d="M412.3129,112.2206a68.9453,68.9453,0,0,1,95.372-20.2755q.1443.0938.2882.1882L737.6516,242.9121A37.99,37.99,0,0,1,748.6651,295.36L714.573,347.8617a37.99,37.99,0,0,1-52.552,11.1723q-.08-.0516-.1589-.1037L432.5008,208.36A69.6374,69.6374,0,0,1,412.3129,112.2206Zm93.6791,39.0926c0-20.83-17.7756-37.7165-39.7028-37.7165s-39.7027,16.8862-39.7027,37.7165S444.362,189.03,466.2892,189.03,505.992,172.1434,505.992,151.3132Z"/><rect class="a1032256-1436-4218-8338-325de866d46a" x="150.1407" y="110.7564" width="246.1636" height="82.6738" rx="4"/><circle class="b13ce33c-9bf0-4919-8e05-e75e940204fa" cx="466.2892" cy="151.0203" r="31.6659"/><circle class="b13ce33c-9bf0-4919-8e05-e75e940204fa" cx="105.6585" cy="151.0203" r="29.7889"/><text class="b60bbb81-d145-4507-8141-599157d59ed8" transform="translate(200.7918 147.5997)">Confirm export<tspan x="8.8501" y="22.7998">2 public </tspan><tspan class="a1dc61fa-b60e-445d-8f53-171bdfcb0957" x="90.9722" y="22.7998">k</tspan><tspan class="a776a69a-71a7-4d0c-a494-5d19374d8a3e" x="101.8442" y="22.7998">e</tspan><tspan x="113.0596" y="22.7998">ys</tspan></text><path class="e39b968f-00ff-464d-a64a-1c14aa2b519b" d="M-684.9587-384.3892l8.0932-10.3369a.7008.7008,0,0,0-.12-.9837.701.701,0,0,0-.432-.149h-6.3649V-407.313s-.028-2.1306-1.7435-2.1306q-1.8261,0-1.8261,2.1306v11.4542h-5.8206a.7007.7007,0,0,0-.7007.7007.7012.7012,0,0,0,.1377.4173l7.662,10.3369a.7008.7008,0,0,0,.98.1456A.6974.6974,0,0,0-684.9587-384.3892Z"/><g class="baab00fc-d5cc-47be-a526-897b9d6ae84d"><rect class="b13ce33c-9bf0-4919-8e05-e75e940204fa" x="-2138.9259" y="-1953.7768" width="3363.5487" height="2391.8573"/></g><path class="e39b968f-00ff-464d-a64a-1c14aa2b519b" d="M-684.9587,57.6389l8.0932-10.3368a.7009.7009,0,0,0-.12-.9838.701.701,0,0,0-.432-.149h-6.3649V34.7151s-.028-2.13-1.7435-2.13q-1.8261,0-1.8261,2.13V46.1693h-5.8206a.7008.7008,0,0,0-.7007.7008.7016.7016,0,0,0,.1377.4173l7.662,10.3368a.7009.7009,0,0,0,.98.1457A.7008.7008,0,0,0-684.9587,57.6389Z"/><g class="a61c52cb-975f-449f-82be-85b459adea19"><rect class="b13ce33c-9bf0-4919-8e05-e75e940204fa" x="-2138.9259" y="-1511.7487" width="3363.5487" height="2391.8573"/></g><path class="e39b968f-00ff-464d-a64a-1c14aa2b519b" d="M470.696,68.6946,478.5445,58.67a.68.68,0,0,0-.5351-1.0985h-6.1725V46.4638s-.0271-2.0661-1.6907-2.0661q-1.7709,0-1.7709,2.0661v11.108h-5.6447a.6795.6795,0,0,0-.5459,1.0842l7.43,10.0243a.68.68,0,0,0,1.081.0143Z"/><path class="bcdc5735-5719-4005-9f7e-0899af94d407" d="M179.2657,153.4543l9.6169-9.6752a1.3131,1.3131,0,0,0,0-1.8516,1.3377,1.3377,0,0,0-1.8515,0l-9.6856,9.7266-9.6865-9.7266a1.3378,1.3378,0,0,0-1.8516,0,1.3157,1.3157,0,0,0,0,1.8516l9.6169,9.6752-9.6169,9.6753a1.3157,1.3157,0,0,0,0,1.8516,1.3378,1.3378,0,0,0,1.8516,0l9.6865-9.7266,9.6856,9.7266a1.3077,1.3077,0,0,0,2.2334-.9258,1.2831,1.2831,0,0,0-.3819-.9258Z"/><path class="bcdc5735-5719-4005-9f7e-0899af94d407" d="M367.0286,165.2874a1.2989,1.2989,0,0,1-.9258-.3848l-10.6113-10.6758a1.3131,1.3131,0,0,1,0-1.8516,1.3367,1.3367,0,0,1,1.8506,0l9.63,9.67,14.7207-19.9707a1.3249,1.3249,0,0,1,.9736-.4405h.001a1.2926,1.2926,0,0,1,.9238.3848,1.3138,1.3138,0,0,1,0,1.8516l-15.59,20.9775A1.3237,1.3237,0,0,1,367.0286,165.2874Z"/></svg>
