<svg width="40" height="40" viewBox="0 0 40 40" fill="none" xmlns="http://www.w3.org/2000/svg">
<rect width="40" height="40" rx="20" fill="#FFF1F5"/>
<path d="M23.7071 16.2929C24.0976 16.6834 24.0976 17.3166 23.7071 17.7071L21.4142 20L23.7071 22.2929C24.0976 22.6834 24.0976 23.3166 23.7071 23.7071C23.3166 24.0976 22.6834 24.0976 22.2929 23.7071L20 21.4142L17.7071 23.7071C17.3166 24.0976 16.6834 24.0976 16.2929 23.7071C15.9024 23.3166 15.9024 22.6834 16.2929 22.2929L18.5858 20L16.2929 17.7071C15.9024 17.3166 15.9024 16.6834 16.2929 16.2929C16.6834 15.9024 17.3166 15.9024 17.7071 16.2929L20 18.5858L22.2929 16.2929C22.6834 15.9024 23.3166 15.9024 23.7071 16.2929Z" fill="#FF1351"/>
<path fill-rule="evenodd" clip-rule="evenodd" d="M30 20C30 25.5228 25.5228 30 20 30C14.4772 30 10 25.5228 10 20C10 14.4772 14.4772 10 20 10C25.5228 10 30 14.4772 30 20ZM20 28C24.4183 28 28 24.4183 28 20C28 15.5817 24.4183 12 20 12C15.5817 12 12 15.5817 12 20C12 24.4183 15.5817 28 20 28Z" fill="#FF1351"/>
</svg>
