<?xml version="1.0" encoding="UTF-8"?>
<svg width="33px" height="33px" viewBox="0 0 33 33" version="1.1" xmlns="http://www.w3.org/2000/svg" xmlns:xlink="http://www.w3.org/1999/xlink">
    <!-- Generator: Sketch 52.2 (67145) - http://www.bohemiancoding.com/sketch -->
    <title>export.inline copy</title>
    <desc>Created with Sketch.</desc>
    <g id="export.inline-copy" stroke="none" stroke-width="1" fill="none" fillRule="evenodd">
        <g id="export.inline">
            <circle id="Oval" fill="#EDEDED" cx="16.5" cy="16.5" r="16.5"></circle>
            <g id="Group" transform="translate(7.000000, 7.000000)" fill="#353535">
                <g id="export-(3)" transform="translate(3.000000, 0.000000)" fillRule="nonzero">
                    <path d="M15,17.3374228 L15,5.62087594 C15,5.43313276 14.9222353,5.2564585 14.788902,5.13497303 L9.42223529,0.176674252 C9.3,0.0662577165 9.13333333,0 8.96666667,0 L0.666666667,0 C0.3,0 -2.27373675e-13,0.298159724 -2.27373675e-13,0.662577165 L-2.27373675e-13,8.06134252 C-2.27373675e-13,8.42575996 0.3,8.72391969 0.666666667,8.72391969 C1.03333333,8.72391969 1.33333333,8.42575996 1.33333333,8.06134252 L1.33333333,1.32515433 L8.11109804,1.32515433 L8.11109804,6.40489961 C8.11109804,6.76931705 8.41109804,7.06747677 8.77776471,7.06747677 L13.5555294,7.06747677 C13.5888627,7.06747677 13.6332941,7.06747677 13.6666275,7.05644681 L13.6666275,16.6748457 L1.33333333,16.6748457 L1.33333333,14.2465625 C1.33333333,13.8821451 1.03333333,13.5839853 0.666666667,13.5839853 C0.3,13.5839853 -3.63797881e-12,13.8821451 -3.63797881e-12,14.2465625 L-2.27373675e-13,17.3374228 C-2.27373675e-13,17.7018403 0.3,18 0.666666667,18 L14.3333333,18 C14.7,18 15,17.7018403 15,17.3374228 Z M9.44443137,2.00983039 L13.4777647,5.74236142 L9.44443137,5.74236142 L9.44443137,2.00983039 Z" id="Shape"></path>
                </g>
                <path d="M8.93722657,10.3092116 L6.34742207,7.16659156 C6.24205187,7.0387292 6.05297953,7.02049571 5.92511718,7.12586591 C5.85596417,7.18285427 5.8159068,7.26777196 5.8159068,7.35738118 L5.8159068,9.8624454 L0.912123724,9.8624454 C0.912123724,9.8624454 -1.53790157e-11,9.87443961 0,10.6088611 C1.09139364e-11,11.1300547 0.304041241,11.3906516 0.912123724,11.3906516 L5.8159068,11.3906516 L5.8159068,13.6426213 C5.8159068,13.8083067 5.95022137,13.9426213 6.1159068,13.9426213 C6.20551601,13.9426213 6.29043371,13.9025639 6.34742207,13.8334109 L8.93722657,10.6907909 C9.02853955,10.5799864 9.02853955,10.4200161 8.93722657,10.3092116 Z" id="Path-Copy-2"></path>
            </g>
        </g>
    </g>
</svg>