<?xml version="1.0" encoding="UTF-8"?>
<svg width="24px" height="24px" viewBox="0 0 24 24" version="1.1" xmlns="http://www.w3.org/2000/svg" xmlns:xlink="http://www.w3.org/1999/xlink">
    <title>icon/export</title>
    <g id="icon/export" stroke="none" stroke-width="1" fill="none" fill-rule="evenodd">
        <g id="export.inline" transform="translate(3.000000, 3.000000)" fill="#6B7384" fill-rule="nonzero">
            <g id="Group">
                <path d="M11.9666667,0 C12.1333333,0 12.3,0.0662577165 12.4222353,0.176674252 L12.4222353,0.176674252 L17.788902,5.13497303 C17.9222353,5.2564585 18,5.43313276 18,5.62087594 L18,5.62087594 L18,17.3374228 C18,17.7018403 17.7,18 17.3333333,18 L17.3333333,18 L3.66666667,18 C3.3,18 3,17.7018403 3,17.3374228 L3,17.3374228 L3,14.2465625 C3,13.8821451 3.3,13.5839853 3.66666667,13.5839853 C4.03333333,13.5839853 4.33333333,13.8821451 4.33333333,14.2465625 L4.33333333,14.2465625 L4.33333333,16.6748457 L16.6666275,16.6748457 L16.6666275,7.05644681 C16.6332941,7.06747677 16.5888627,7.06747677 16.5555294,7.06747677 L16.5555294,7.06747677 L11.7777647,7.06747677 C11.411098,7.06747677 11.111098,6.76931705 11.111098,6.40489961 L11.111098,6.40489961 L11.111098,1.32515433 L4.33333333,1.32515433 L4.33333333,8.06134252 C4.33333333,8.42575996 4.03333333,8.72391969 3.66666667,8.72391969 C3.3,8.72391969 3,8.42575996 3,8.06134252 L3,8.06134252 L3,0.662577165 C3,0.298159724 3.3,0 3.66666667,0 L3.66666667,0 Z M5.92511714,7.12586574 C6.05297948,7.02049552 6.24205182,7.03872898 6.34742204,7.16659132 L6.34742204,7.16659132 L8.93722654,10.3092104 C9.02853953,10.4200149 9.02853956,10.5799851 8.9372266,10.6907896 L8.9372266,10.6907896 L6.3474221,13.8334107 C6.29043373,13.9025637 6.20551603,13.9426211 6.1159068,13.9426211 C5.95022137,13.9426211 5.8159068,13.8083065 5.8159068,13.6426211 L5.8159068,13.6426211 L5.8159068,11.3906516 L0.912123724,11.3906516 C0.304041241,11.3906516 1.77635684e-15,11.1300547 1.77635684e-15,10.6088611 C1.77635684e-15,9.87443961 0.912123724,9.8624454 0.912123724,9.8624454 L5.8159068,9.8624454 L5.8159068,7.35738098 C5.8159068,7.26777178 5.85596415,7.1828541 5.92511714,7.12586574 Z M12.4444314,2.00983039 L12.4444314,5.74236142 L16.4777647,5.74236142 L12.4444314,2.00983039 Z" id="Combined-Shape"></path>
            </g>
        </g>
    </g>
</svg>