<?xml version="1.0" encoding="UTF-8"?>
<svg width="369px" height="251px" viewBox="0 0 369 251" version="1.1" xmlns="http://www.w3.org/2000/svg" xmlns:xlink="http://www.w3.org/1999/xlink">
    <!-- Generator: Sketch 60 (88103) - https://sketch.com -->
    <title>no transactions yet.inline</title>
    <desc>Created with Sketch.</desc>
    <defs>
        <linearGradient x1="58.084371%" y1="0%" x2="41.915629%" y2="100%" id="linearGradient-1">
            <stop stop-color="#F14D78" offset="0%"></stop>
            <stop stop-color="#1A44B7" offset="100%"></stop>
        </linearGradient>
        <linearGradient x1="76.6610737%" y1="0%" x2="23.3389263%" y2="100%" id="linearGradient-2">
            <stop stop-color="#F14D78" offset="0%"></stop>
            <stop stop-color="#1A44B7" offset="100%"></stop>
        </linearGradient>
    </defs>
    <g id="no-transactions-yet.inline" stroke="none" stroke-width="1" fill="none" fill-rule="evenodd">
        <g id="picture" transform="translate(54.000000, 25.000000)">
            <g id="Group" opacity="0.2" transform="translate(0.000000, 44.131455)" stroke="#1D45BA" stroke-width="0.5">
                <line x1="89.5124854" y1="153.87692" x2="261.907178" y2="55.0112867" id="Shape"></line>
                <line x1="24.0009501" y1="104.617326" x2="184.818811" y2="12.392089" id="Shape"></line>
                <line x1="79.5098572" y1="0.572784897" x2="261.11573" y2="104.587045" id="Shape"></line>
                <line x1="0.804801177" y1="68.319787" x2="153.037433" y2="155.511657" id="Shape"></line>
            </g>
            <g id="_Group_8" transform="translate(73.239437, 0.000000)" fill-rule="nonzero">
                <path d="M43.4403344,106.652055 C45.9396255,90.3388778 43.4403344,86.5831199 43.4403344,86.5831199 L27.0419833,108.372249 C27.0419833,108.372249 31.4287298,115.344771 30.3378153,119.266814 C29.8738247,121.094832 29.1978216,122.863173 28.3233751,124.536343 C27.9460518,125.1977 28.1300755,126.035169 28.7505057,126.480163 L28.7505057,126.480163 C28.8601035,126.564355 28.9804373,126.633766 29.1083718,126.686586 L34.932355,130.126975 L41.9742375,117.925063 L43.5211429,111.044285 L41.8992011,112.317229 C42.6231631,110.491573 43.1400643,108.591455 43.4403344,106.652055 Z" id="_Path_26" fill="url(#linearGradient-1)"></path>
                <path d="M91.8215306,4.66172692 L86.2284289,1.4851012 C85.435175,1.09829584 84.6083298,0.783556084 83.7579979,0.544728238 L83.7579979,0.544728238 C82.2514968,0.063073796 80.4390779,0.321102961 78.4939021,1.45069731 L9.63352619,41.2502626 C4.43869481,44.2491349 0.259741569,52.2595069 0.282734499,59.1402847 L0.473306859,114.530545 C0.473306859,118.659012 2.0202122,121.411323 4.35211429,122.345962 L10.753301,125.671671 L15.7807433,118.16589 L78.7651878,81.7608415 C83.9600192,78.7619692 88.1389724,70.7515971 88.1158843,63.8708194 L87.9311792,10.4702501 L91.8215306,4.66172692 Z" id="_Path_27" fill="url(#linearGradient-2)"></path>
                <path d="M94.9095693,12.0814989 C94.9095693,5.20072118 90.6613516,2.04703138 85.4780643,5.04590368 L16.6176884,44.8512029 C11.422857,47.8500752 7.24390376,55.8604473 7.26689669,62.741225 L7.45746905,118.125752 C7.45746905,125.00653 11.7056867,128.160219 16.888974,125.161347 L38.1589225,112.867691 C38.7341436,116.341603 38.3223617,119.906046 36.9698833,123.160188 C36.1098501,125.069603 35.2382729,126.743926 34.4532761,128.143017 C34.1202609,128.755006 34.2444685,129.513104 34.7556578,129.988595 C35.266847,130.464087 36.0364866,130.537415 36.6293333,130.167113 C41.5932832,126.956083 48.508181,120.757649 50.0724025,110.56263 C50.3494601,108.756426 50.5630254,107.122241 50.7246424,105.602736 L85.74935,85.3560479 C90.9441814,82.3571756 95.1231346,74.3468035 95.1001417,67.4660257 L94.9095693,12.0814989 Z" id="Shape" fill="#E1F2FF"></path>
            </g>
            <g id="Group-21-Copy" transform="translate(127.990610, 64.875587) scale(-1, 1) translate(-127.990610, -64.875587) translate(101.990610, 40.375587)" fill="#3154CB">
                <path d="M10.5041509,9.88126688 C10.5041509,12.6788553 8.24186136,13.5492288 5.45100475,11.8255368 C2.66014815,10.1018449 0.398425702,6.43672549 0.398425702,3.63913708 C0.398425702,0.841548674 2.66014815,-0.0288247978 5.45100475,1.69543565 C8.24186136,3.41855909 10.5041509,7.08424697 10.5041509,9.88126688" id="Fill-15"></path>
                <path d="M51.6544554,35.298901 C51.6544554,38.0964895 49.3921658,38.9668629 46.6018763,37.243171 C43.8110197,35.519479 41.5487302,31.8543597 41.5487302,29.0567712 C41.5487302,26.2591828 43.8110197,25.3888094 46.6018763,27.1125013 C49.3921658,28.8361933 51.6544554,32.5018811 51.6544554,35.298901" id="Fill-17"></path>
                <path d="M34.7988952,47.8542231 L14.3588905,35.2289755 C13.1100658,34.4580896 12.0880939,32.8020491 12.0880939,31.5502122 C12.0880939,30.2978067 13.1100658,29.9044047 14.3588905,30.6764277 L34.7988952,43.3011068 C36.0477198,44.0725613 37.0696917,45.7286017 37.0696917,46.9804387 C37.0696917,48.2328441 36.0477198,48.6256776 34.7988952,47.8542231" id="Fill-19"></path>
            </g>
        </g>
    </g>
</svg>