<svg width="40" height="40" viewBox="0 0 40 40" fill="none" xmlns="http://www.w3.org/2000/svg">
<rect width="40" height="40" rx="20" fill="#E4F7F3"/>
<path d="M20 15C20.5523 15 21 15.4477 21 16V21.5858L23.2929 19.2929C23.6834 18.9024 24.3166 18.9024 24.7071 19.2929C25.0976 19.6834 25.0976 20.3166 24.7071 20.7071L20.7071 24.7071C20.3166 25.0976 19.6834 25.0976 19.2929 24.7071L15.2929 20.7071C14.9024 20.3166 14.9024 19.6834 15.2929 19.2929C15.6834 18.9024 16.3166 18.9024 16.7071 19.2929L19 21.5858V16C19 15.4477 19.4477 15 20 15Z" fill="#08C29D"/>
<path fillRule="evenodd" clipRule="evenodd" d="M20 30C25.5228 30 30 25.5228 30 20C30 14.4772 25.5228 10 20 10C14.4772 10 10 14.4772 10 20C10 25.5228 14.4772 30 20 30ZM28 20C28 24.4183 24.4183 28 20 28C15.5817 28 12 24.4183 12 20C12 15.5817 15.5817 12 20 12C24.4183 12 28 15.5817 28 20Z" fill="#08C29D"/>
</svg>
