<svg width="40" height="40" viewBox="0 0 40 40" fill="none" xmlns="http://www.w3.org/2000/svg">
<rect width="40" height="40" rx="20" fill="#E4E8F7"/>
<path d="M15.2929 19.2929L19.2929 15.2929C19.6834 14.9024 20.3166 14.9024 20.7071 15.2929L24.7071 19.2929C25.0976 19.6834 25.0976 20.3166 24.7071 20.7071C24.3166 21.0976 23.6834 21.0976 23.2929 20.7071L21 18.4142V24C21 24.5523 20.5523 25 20 25C19.4477 25 19 24.5523 19 24V18.4142L16.7071 20.7071C16.3166 21.0976 15.6834 21.0976 15.2929 20.7071C14.9024 20.3166 14.9024 19.6834 15.2929 19.2929Z" fill="#3154CB"/>
<path fillRule="evenodd" clipRule="evenodd" d="M20 30C25.5228 30 30 25.5228 30 20C30 14.4772 25.5228 10 20 10C14.4772 10 10 14.4772 10 20C10 25.5228 14.4772 30 20 30ZM28 20C28 24.4183 24.4183 28 20 28C15.5817 28 12 24.4183 12 20C12 15.5817 15.5817 12 20 12C24.4183 12 28 15.5817 28 20Z" fill="#3154CB"/>
</svg>
