<svg width="40" height="40" viewBox="0 0 40 40" fill="none" xmlns="http://www.w3.org/2000/svg">
<rect width="40" height="40" rx="20" fill="#E4E8F7"/>
<path fill-rule="evenodd" clip-rule="evenodd" d="M27 17C27 13.134 23.866 10 20 10C16.134 10 13 13.134 13 17C13 20.866 16.134 24 20 24C23.866 24 27 20.866 27 17ZM15 17C15 14.2386 17.2386 12 20 12C22.7614 12 25 14.2386 25 17C25 19.7614 22.7614 22 20 22C17.2386 22 15 19.7614 15 17Z" fill="#3154CB"/>
<path d="M13.832 23.5547C14.1384 23.0952 14.0142 22.4743 13.5547 22.168C13.0952 21.8616 12.4743 21.9858 12.1679 22.4453L10.1753 25.4342C10.1207 25.5137 10.0772 25.6016 10.0472 25.6955C10.0066 25.8223 9.99252 25.9543 10.0034 26.0836C10.0146 26.2189 10.0528 26.3466 10.1125 26.4613C10.1789 26.5893 10.2738 26.7044 10.3952 26.7964C10.4822 26.8627 10.5805 26.9149 10.6867 26.9499C10.7938 26.9853 10.9047 27.0017 11.0146 27H13.8819L15.0984 29.4329C15.1356 29.5106 15.1831 29.584 15.2405 29.6509C15.3238 29.7483 15.4238 29.827 15.534 29.8849C15.6641 29.9536 15.8039 29.9909 15.9438 29.9986C16.2121 30.0134 16.4809 29.9198 16.6825 29.7311C16.7435 29.6743 16.7963 29.6106 16.8405 29.542L18.832 26.5547C19.1384 26.0952 19.0142 25.4743 18.5547 25.168C18.0952 24.8616 17.4743 24.9858 17.1679 25.4453L16.1238 27.0116L15.4049 25.5738C15.3242 25.4029 15.1966 25.2584 15.0385 25.1573C14.9148 25.078 14.7724 25.0253 14.6195 25.0071C14.5729 25.0014 14.5259 24.999 14.4786 25H12.8685L13.832 23.5547Z" fill="#3154CB"/>
<path d="M26.4453 22.168C25.9858 22.4743 25.8616 23.0952 26.1679 23.5547L27.1315 25H25.5223C25.4702 24.9989 25.4183 25.0018 25.3671 25.0087C25.2289 25.0271 25.0996 25.0737 24.9852 25.1425C24.8171 25.2436 24.6812 25.3928 24.5964 25.571L23.8762 27.0115L22.832 25.4453C22.5257 24.9858 21.9048 24.8616 21.4453 25.1679C20.9858 25.4743 20.8616 26.0952 21.1679 26.5547L23.1588 29.5409C23.2063 29.6151 23.2641 29.6834 23.3311 29.7437C23.4254 29.8286 23.5336 29.8933 23.6492 29.9365C23.7847 29.9875 23.9257 30.007 24.0634 29.9981C24.1997 29.9896 24.3356 29.9531 24.4624 29.8867C24.5737 29.8288 24.6747 29.7497 24.7588 29.6517C24.8166 29.5845 24.8644 29.5107 24.9018 29.4325L26.118 27H28.9853C29.0953 27.0017 29.2062 26.9853 29.3133 26.9499C29.4194 26.9149 29.5177 26.8626 29.6048 26.7964C29.7262 26.7044 29.8211 26.5893 29.8874 26.4613C29.9468 26.3474 29.9848 26.2206 29.9963 26.0863C30.0076 25.9561 29.9937 25.8232 29.9527 25.6955C29.9228 25.6016 29.8793 25.5138 29.8246 25.4342L27.832 22.4453C27.5257 21.9858 26.9048 21.8616 26.4453 22.168Z" fill="#3154CB"/>
</svg>
