<?xml version="1.0" encoding="UTF-8"?>
<svg width="165px" height="254px" viewBox="0 0 165 254" version="1.1" xmlns="http://www.w3.org/2000/svg" xmlns:xlink="http://www.w3.org/1999/xlink">
    <title>Create wallet</title>
    <defs>
        <linearGradient x1="49.9102459%" y1="112.084143%" x2="49.9102459%" y2="-0.890621185%" id="linearGradient-1">
            <stop stopColor="#1D45BA" offset="0%"></stop>
            <stop stopColor="#1D47BA" offset="42.04%"></stop>
            <stop stopColor="#1D4EB9" offset="57.18%"></stop>
            <stop stopColor="#1C59B8" offset="67.97%"></stop>
            <stop stopColor="#1B6AB6" offset="76.7%"></stop>
            <stop stopColor="#1A80B3" offset="84.17%"></stop>
            <stop stopColor="#199CB0" offset="90.79%"></stop>
            <stop stopColor="#18BBAD" offset="96.63%"></stop>
            <stop stopColor="#17D1AA" offset="100%"></stop>
        </linearGradient>
        <linearGradient x1="50.0120635%" y1="112.122219%" x2="50.0120635%" y2="-0.759216369%" id="linearGradient-2">
            <stop stopColor="#1D45BA" offset="0%"></stop>
            <stop stopColor="#1D47BA" offset="42.04%"></stop>
            <stop stopColor="#1D4EB9" offset="57.18%"></stop>
            <stop stopColor="#1C59B8" offset="67.97%"></stop>
            <stop stopColor="#1B6AB6" offset="76.7%"></stop>
            <stop stopColor="#1A80B3" offset="84.17%"></stop>
            <stop stopColor="#199CB0" offset="90.79%"></stop>
            <stop stopColor="#18BBAD" offset="96.63%"></stop>
            <stop stopColor="#17D1AA" offset="100%"></stop>
        </linearGradient>
        <linearGradient x1="48.8264392%" y1="11.9347513%" x2="51.4748935%" y2="92.0609949%" id="linearGradient-3">
            <stop stopColor="#17D1AA" stop-opacity="0" offset="0.3132735%"></stop>
            <stop stopColor="#1E9AA9" stop-opacity="0.6164" offset="61.76%"></stop>
            <stop stopColor="#227DA8" offset="100%"></stop>
        </linearGradient>
        <linearGradient x1="130.510733%" y1="72.0258431%" x2="10.1003016%" y2="37.9255923%" id="linearGradient-4">
            <stop stopColor="#1980AC" offset="0%"></stop>
            <stop stopColor="#1977AC" offset="13.17%"></stop>
            <stop stopColor="#1B3DAD" offset="100%"></stop>
        </linearGradient>
        <linearGradient x1="0.0125276929%" y1="49.9935693%" x2="100.019994%" y2="49.9935693%" id="linearGradient-5">
            <stop stopColor="#17D1AA" offset="0%"></stop>
            <stop stopColor="#1AC2AE" offset="6.594372%"></stop>
            <stop stopColor="#229BB8" offset="26.51%"></stop>
            <stop stopColor="#297CC0" offset="46.16%"></stop>
            <stop stopColor="#2D66C6" offset="65.25%"></stop>
            <stop stopColor="#3059CA" offset="83.49%"></stop>
            <stop stopColor="#3154CB" offset="100%"></stop>
        </linearGradient>
        <linearGradient x1="-0.00695025829%" y1="49.9939801%" x2="100.011689%" y2="49.9939801%" id="linearGradient-6">
            <stop stopColor="#17D1AA" offset="0%"></stop>
            <stop stopColor="#1AC2AE" offset="6.594372%"></stop>
            <stop stopColor="#229BB8" offset="26.51%"></stop>
            <stop stopColor="#297CC0" offset="46.16%"></stop>
            <stop stopColor="#2D66C6" offset="65.25%"></stop>
            <stop stopColor="#3059CA" offset="83.49%"></stop>
            <stop stopColor="#3154CB" offset="100%"></stop>
        </linearGradient>
        <linearGradient x1="49.9905595%" y1="0.131217145%" x2="50.0947999%" y2="105.366721%" id="linearGradient-7">
            <stop stopColor="#52FCFF" stop-opacity="0" offset="0%"></stop>
            <stop stopColor="#46D3F0" stop-opacity="0.1417" offset="8.643895%"></stop>
            <stop stopColor="#39A5DE" stop-opacity="0.3253" offset="19.84%"></stop>
            <stop stopColor="#2F81D1" stop-opacity="0.5011" offset="30.56%"></stop>
            <stop stopColor="#2767C7" stop-opacity="0.6648" offset="40.55%"></stop>
            <stop stopColor="#2357C1" stop-opacity="0.8117" offset="49.51%"></stop>
            <stop stopColor="#2152BF" stop-opacity="0.9276" offset="56.58%"></stop>
            <stop stopColor="#1E48BB" stop-opacity="0.9596" offset="75.68%"></stop>
            <stop stopColor="#1D45BA" offset="99.84%"></stop>
        </linearGradient>
        <linearGradient x1="47.9695714%" y1="4.18062019%" x2="52.3817343%" y2="107.137313%" id="linearGradient-8">
            <stop stopColor="#17D1AA" stop-opacity="0" offset="0.3132735%"></stop>
            <stop stopColor="#1E9AA9" stop-opacity="0.6164" offset="61.76%"></stop>
            <stop stopColor="#227DA8" offset="100%"></stop>
        </linearGradient>
        <linearGradient x1="30.64341%" y1="57.9805968%" x2="68.7457478%" y2="41.917318%" id="linearGradient-9">
            <stop stopColor="#17D1AA" offset="0%"></stop>
            <stop stopColor="#1AC2AE" offset="6.594372%"></stop>
            <stop stopColor="#229BB8" offset="26.51%"></stop>
            <stop stopColor="#297CC0" offset="46.16%"></stop>
            <stop stopColor="#2D66C6" offset="65.25%"></stop>
            <stop stopColor="#3059CA" offset="83.49%"></stop>
            <stop stopColor="#3154CB" offset="100%"></stop>
        </linearGradient>
        <linearGradient x1="50.0004505%" y1="112.306838%" x2="50.0004505%" y2="-0.707264667%" id="linearGradient-10">
            <stop stopColor="#1D45BA" offset="0%"></stop>
            <stop stopColor="#1D47BA" offset="42.04%"></stop>
            <stop stopColor="#1D4EB9" offset="57.18%"></stop>
            <stop stopColor="#1C59B8" offset="67.97%"></stop>
            <stop stopColor="#1B6AB6" offset="76.7%"></stop>
            <stop stopColor="#1A80B3" offset="84.17%"></stop>
            <stop stopColor="#199CB0" offset="90.79%"></stop>
            <stop stopColor="#18BBAD" offset="96.63%"></stop>
            <stop stopColor="#17D1AA" offset="100%"></stop>
        </linearGradient>
        <linearGradient x1="-0.0458333333%" y1="50.003954%" x2="99.9716346%" y2="50.003954%" id="linearGradient-11">
            <stop stopColor="#17D1AA" offset="0%"></stop>
            <stop stopColor="#1EADB3" offset="40.92%"></stop>
            <stop stopColor="#287FBF" offset="100%"></stop>
        </linearGradient>
        <linearGradient x1="46.8876064%" y1="-13.0973395%" x2="52.3437789%" y2="96.2122802%" id="linearGradient-12">
            <stop stopColor="#17D1AA" offset="0%"></stop>
            <stop stopColor="#1DAEB2" offset="13.79%"></stop>
            <stop stopColor="#2487BB" offset="32.13%"></stop>
            <stop stopColor="#2A68C2" offset="50.24%"></stop>
            <stop stopColor="#2E52C7" offset="67.82%"></stop>
            <stop stopColor="#3045CA" offset="84.63%"></stop>
            <stop stopColor="#3140CB" offset="99.84%"></stop>
        </linearGradient>
        <linearGradient x1="26.6792527%" y1="33.0684334%" x2="72.046206%" y2="65.9668745%" id="linearGradient-13">
            <stop stopColor="#17D1AA" offset="0%"></stop>
            <stop stopColor="#1DAEB2" offset="13.79%"></stop>
            <stop stopColor="#2487BB" offset="32.13%"></stop>
            <stop stopColor="#2A68C2" offset="50.24%"></stop>
            <stop stopColor="#2E52C7" offset="67.82%"></stop>
            <stop stopColor="#3045CA" offset="84.63%"></stop>
            <stop stopColor="#3140CB" offset="99.84%"></stop>
        </linearGradient>
        <linearGradient x1="-0.00419799499%" y1="50.0277023%" x2="99.9484962%" y2="50.0277023%" id="linearGradient-14">
            <stop stopColor="#17D1AA" offset="0%"></stop>
            <stop stopColor="#19C9AC" offset="14.23%"></stop>
            <stop stopColor="#1DB2B2" offset="36.78%"></stop>
            <stop stopColor="#258CBC" offset="64.84%"></stop>
            <stop stopColor="#3059CA" offset="97.04%"></stop>
            <stop stopColor="#3154CB" offset="100%"></stop>
        </linearGradient>
        <linearGradient x1="-0.0174375%" y1="50.0367453%" x2="99.9794375%" y2="50.0367453%" id="linearGradient-15">
            <stop stopColor="#3154CB" offset="0%"></stop>
            <stop stopColor="#3059CA" offset="2.95791%"></stop>
            <stop stopColor="#258CBC" offset="35.16%"></stop>
            <stop stopColor="#1DB2B2" offset="63.22%"></stop>
            <stop stopColor="#19C9AC" offset="85.77%"></stop>
            <stop stopColor="#17D1AA" offset="100%"></stop>
        </linearGradient>
        <linearGradient x1="-0.00419799499%" y1="50.0121116%" x2="99.9484962%" y2="50.0121116%" id="linearGradient-16">
            <stop stopColor="#17D1AA" offset="0%"></stop>
            <stop stopColor="#19C9AC" offset="14.23%"></stop>
            <stop stopColor="#1DB2B2" offset="36.78%"></stop>
            <stop stopColor="#258CBC" offset="64.84%"></stop>
            <stop stopColor="#3059CA" offset="97.04%"></stop>
            <stop stopColor="#3154CB" offset="100%"></stop>
        </linearGradient>
        <linearGradient x1="7.2078125%" y1="22.6700162%" x2="132.878062%" y2="121.422257%" id="linearGradient-17">
            <stop stopColor="#3154CB" offset="0%"></stop>
            <stop stopColor="#2D67C6" offset="11.16%"></stop>
            <stop stopColor="#258DBC" offset="35.3%"></stop>
            <stop stopColor="#1DB2B2" offset="63.2%"></stop>
            <stop stopColor="#19C9AC" offset="85.77%"></stop>
            <stop stopColor="#17D1AA" offset="100%"></stop>
        </linearGradient>
    </defs>
    <g id="Symbols" stroke="none" stroke-width="1" fill="none" fillRule="evenodd">
        <g id="element/banner/buy-ada" transform="translate(-578.000000, 3.000000)">
            <g id="Create-wallet" transform="translate(578.000000, -2.667327)">
                <g id="Group" transform="translate(40.285185, 12.043276)">
                    <g>
                        <g fill="#17D1AA" id="Path">
                            <path d="M9.12592593,0 C9.49259259,0.292405063 32.7148148,21.5544304 32.7148148,21.5544304"></path>
                            <path d="M8.18888889,1.0443038 C8.55555556,1.33670886 31.7777778,22.5987342 31.7777778,22.5987342"></path>
                            <path d="M7.29259259,2.08860759 C7.65925926,2.38101266 30.8814815,23.643038 30.8814815,23.643038"></path>
                            <path d="M6.3962963,3.13291139 C6.72222222,3.3835443 29.9444444,24.6873418 29.9444444,24.6873418"></path>
                            <path d="M5.45925926,4.13544304 C5.82592593,4.4278481 29.0481481,25.7316456 29.0481481,25.7316456"></path>
                            <path d="M4.56296296,5.17974684 C4.92962963,5.4721519 28.1518519,26.7341772 28.1518519,26.7341772"></path>
                            <path d="M3.66666667,6.22405063 C4.03333333,6.5164557 27.2555556,27.778481 27.2555556,27.778481"></path>
                            <path d="M2.72962963,7.26835443 C3.0962963,7.56075949 26.3185185,28.8227848 26.3185185,28.8227848"></path>
                            <path d="M1.83333333,8.27088608 C2.2,8.56329114 25.4222222,29.8253165 25.4222222,29.8253165"></path>
                            <path d="M0.937037037,9.31518987 C1.3037037,9.60759494 24.5259259,30.8696203 24.5259259,30.8696203"></path>
                            <path d="M0,10.3594937 C0.366666667,10.6518987 23.5888889,31.9139241 23.5888889,31.9139241"></path>
                        </g>
                        <path d="M10.6333333,11.3202532 C10.6333333,18.0455696 15.0740741,25.6898734 20.5740741,28.4050633 C22.3259259,29.2822785 23.9962963,29.5329114 25.4222222,29.2822785 L25.3407407,29.9506329 L27.2962963,28.5303797 C27.5,28.4050633 27.662963,28.2797468 27.8259259,28.1544304 L27.8666667,28.1126582 L27.8666667,28.1126582 C29.4962963,26.7759494 30.5148148,24.3531646 30.5148148,21.178481 C30.5148148,14.4531646 26.0740741,6.80886076 20.5740741,4.09367089 C17.9259259,2.79873418 15.562963,2.84050633 13.7703704,4.01012658 L13.7703704,4.01012658 L13.6888889,4.05189873 C13.6074074,4.09367089 13.5259259,4.17721519 13.4444444,4.21898734 L11.4481481,5.63924051 L12.3037037,5.38860759 C11.2444444,6.80886076 10.6333333,8.81392405 10.6333333,11.3202532 Z M15.1148148,13.5341772 C15.1148148,9.85822785 17.5592593,8.10379747 20.5333333,9.56582278 C23.5481481,11.0696203 25.9518519,15.2468354 25.9518519,18.9227848 C25.9518519,22.5987342 23.5074074,24.3531646 20.5333333,22.8911392 C17.5592593,21.3873418 15.1148148,17.2101266 15.1148148,13.5341772 Z" id="Shape" fill="url(#linearGradient-1)" fillRule="nonzero"></path>
                        <path d="M8.39259259,12.9075949 C8.39259259,19.6329114 12.8333333,27.2772152 18.3333333,29.9924051 C23.7925926,32.7075949 28.2740741,29.4911392 28.2740741,22.7658228 C28.2740741,16.0405063 23.8333333,8.39620253 18.3333333,5.68101266 C12.8333333,2.96582278 8.39259259,6.22405063 8.39259259,12.9075949 Z M12.8740741,15.1632911 C12.8740741,11.4873418 15.3185185,9.73291139 18.2925926,11.1949367 C21.3074074,12.6987342 23.7518519,16.8759494 23.7518519,20.5518987 C23.7518519,24.2278481 21.3074074,25.9822785 18.3333333,24.5202532 C15.3185185,23.0164557 12.8740741,18.8392405 12.8740741,15.1632911 Z" id="Shape" fill="#17D1AA" fillRule="nonzero"></path>
                        <path d="M18.2925926,5.80632911 C12.8333333,3.09113924 8.35185185,6.30759494 8.35185185,13.0329114 C8.35185185,19.7582278 12.7925926,27.4025316 18.2925926,30.1177215 C23.7518519,32.8329114 28.2333333,29.6164557 28.2333333,22.8911392 C28.2333333,16.1658228 23.7925926,8.52151899 18.2925926,5.80632911 Z M18.2925926,24.6037975 C15.2777778,23.1 12.8740741,18.9227848 12.8740741,15.2468354 C12.8740741,11.5708861 15.3185185,9.8164557 18.2925926,11.278481 C21.3074074,12.7822785 23.7518519,17.0012658 23.7518519,20.6772152 C23.7518519,24.3531646 21.3074074,26.1075949 18.2925926,24.6037975 Z" id="Shape" fill="#163FA5" fillRule="nonzero"></path>
                        <ellipse id="Oval" fill="#52FCFF" opacity="0.7" transform="translate(18.287842, 17.844804) rotate(-27.859144) translate(-18.287842, -17.844804) " cx="18.2878422" cy="17.8448043" rx="7.49784846" ry="12.2150627"></ellipse>
                    </g>
                    <g transform="translate(12.914815, 10.232227)" fill="#1D45BA">
                        <path d="M8.92222222,16.2095452 L7.04814815,9.6513174 L2.28148148,6.64372246 C1.75185185,8.02220348 1.05925926,9.69308955 0.488888889,11.0715706 C0.448148148,11.1551149 0.325925926,11.1551149 0.203703704,11.0715706 C0.0407407407,10.9462541 0,10.904482 0,10.6956212 L0,10.6956212 L4.1962963,0.336127528 C4.31851852,0.0854946165 4.64444444,-0.123366143 4.92962963,0.0854946165 C5.25555556,0.294355376 5.41851852,0.670304743 5.5,1.04625411 L9.53333333,15.875368 C9.61481481,16.1677731 9.73703704,16.5437225 9.49259259,16.6272668 C9.16666667,16.7108111 9.0037037,16.418406 8.92222222,16.2095452 Z M4.97037037,1.67283639 C4.76666667,1.00448196 4.6037037,0.795621199 4.44074074,1.25511487 L2.52592593,6.18422879 L6.88518519,8.89941867 L4.97037037,1.67283639 Z" id="Shape" fillRule="nonzero"></path>
                        <path d="M9.41111111,11.196887 L0.203703704,5.43233006 C0.122222222,5.39055791 0.0407407407,5.2234693 0.0407407407,5.09815284 L0.0407407407,4.80574778 C0.0407407407,4.68043133 0.122222222,4.63865917 0.203703704,4.68043133 L9.41111111,10.4449883 C9.49259259,10.4867604 9.57407407,10.653849 9.57407407,10.7791655 L9.57407407,11.0715706 C9.57407407,11.196887 9.49259259,11.2386592 9.41111111,11.196887 Z" id="Path"></path>
                        <path d="M8.5962963,8.10574778 L1.05925926,3.38549462 C0.977777778,3.34372246 0.896296296,3.17663386 0.896296296,3.0513174 L0.896296296,2.75891234 C0.896296296,2.63359588 0.977777778,2.59182373 1.05925926,2.63359588 L8.5962963,7.35384905 C8.67777778,7.3956212 8.75925926,7.56270981 8.75925926,7.68802626 L8.75925926,7.98043133 C8.75925926,8.14751993 8.67777778,8.18929208 8.5962963,8.10574778 Z" id="Path"></path>
                    </g>
                </g>
                <g id="Group" transform="translate(122.245714, 0.000000)">
                    <g transform="translate(0.000000, 0.000000)">
                        <g fill="#17D1AA" id="Path">
                            <path d="M11.8352381,0 C12.2857143,0.374257426 42.467619,27.7782178 42.467619,27.7782178"></path>
                            <path d="M10.647619,1.33069307 C11.0980952,1.7049505 41.28,29.1089109 41.28,29.1089109"></path>
                            <path d="M9.46,2.66138614 C9.91047619,3.03564356 40.092381,30.439604 40.092381,30.439604"></path>
                            <path d="M8.27238095,3.99207921 C8.72285714,4.36633663 38.9047619,31.770297 38.9047619,31.770297"></path>
                            <path d="M7.0847619,5.32277228 C7.5352381,5.6970297 37.7171429,33.1009901 37.7171429,33.1009901"></path>
                            <path d="M5.89714286,6.65346535 C6.34761905,7.02772277 36.5295238,34.4316832 36.5295238,34.4316832"></path>
                            <path d="M4.75047619,7.98415842 C5.20095238,8.35841584 35.3828571,35.7623762 35.3828571,35.7623762"></path>
                            <path d="M3.56285714,9.31485149 C4.01333333,9.68910891 34.1952381,37.0930693 34.1952381,37.0930693"></path>
                            <path d="M2.3752381,10.6455446 C2.82571429,11.019802 33.007619,38.4237624 33.007619,38.4237624"></path>
                            <path d="M1.18761905,11.9762376 C1.63809524,12.350495 31.82,39.7544554 31.82,39.7544554"></path>
                            <path d="M0,13.3069307 C0.45047619,13.6811881 30.632381,41.0851485 30.632381,41.0851485"></path>
                        </g>
                        <path d="M13.8009524,14.5544554 C13.8009524,23.2039604 19.5752381,33.0178218 26.7009524,36.5524752 C28.9942857,37.6752475 31.1238095,38.0079208 33.007619,37.6752475 L32.8847619,38.5485149 L35.4238095,36.7188119 C35.6695238,36.5524752 35.8742857,36.3861386 36.12,36.219802 L36.1609524,36.1782178 L36.1609524,36.1782178 C38.2904762,34.4316832 39.6009524,31.3544554 39.6009524,27.2376238 C39.6009524,18.5881188 33.8266667,8.77425743 26.7009524,5.23960396 C23.3019048,3.53465347 20.1895238,3.65940594 17.8552381,5.15643564 L17.8552381,5.15643564 L17.7733333,5.23960396 C17.6914286,5.32277228 17.5685714,5.36435644 17.4866667,5.44752475 L14.8657143,7.27722772 L15.9714286,6.94455446 C14.62,8.73267327 13.8009524,11.3108911 13.8009524,14.5544554 Z M19.6571429,17.4237624 C19.6571429,12.6831683 22.8104762,10.4376238 26.7009524,12.350495 C30.5914286,14.2633663 33.7447619,19.6693069 33.7447619,24.409901 C33.7447619,29.150495 30.5914286,31.3960396 26.7009524,29.4831683 C22.8104762,27.5287129 19.6571429,22.1227723 19.6571429,17.4237624 Z" id="Shape" fill="url(#linearGradient-2)" fillRule="nonzero"></path>
                        <path d="M10.8933333,16.5920792 C10.8933333,25.2415842 16.667619,35.0554455 23.7933333,38.590099 C30.9190476,42.0831683 36.6933333,37.9247525 36.6933333,29.3168317 C36.6933333,20.6673267 30.9190476,10.8534653 23.7933333,7.31881188 C16.667619,3.82574257 10.8933333,7.98415842 10.8933333,16.5920792 Z M16.7085714,19.5029703 C16.7085714,14.7623762 19.8619048,12.5168317 23.752381,14.429703 C27.6428571,16.3425743 30.7961905,21.7485149 30.7961905,26.4891089 C30.7961905,31.229703 27.6428571,33.4752475 23.752381,31.5623762 C19.8619048,29.6079208 16.7085714,24.2019802 16.7085714,19.5029703 Z" id="Shape" fill="#17D1AA" fillRule="nonzero"></path>
                        <path d="M23.7933333,7.48514851 C16.667619,3.99207921 10.8933333,8.15049505 10.8933333,16.7584158 C10.8933333,25.4079208 16.667619,35.2217822 23.7933333,38.7564356 C30.9190476,42.249505 36.6933333,38.0910891 36.6933333,29.4831683 C36.652381,20.8336634 30.8780952,10.9782178 23.7933333,7.48514851 Z M23.7933333,31.6455446 C19.9028571,29.7326733 16.7495238,24.3267327 16.7495238,19.5861386 C16.7495238,14.8455446 19.9028571,12.6 23.7933333,14.5128713 C27.6838095,16.4257426 30.8371429,21.8316832 30.8371429,26.5722772 C30.8371429,31.3128713 27.6838095,33.6 23.7933333,31.6455446 Z" id="Shape" fill="#163FA5" fillRule="nonzero"></path>
                        <ellipse id="Oval" fill="#52FCFF" opacity="0.7" transform="translate(23.787383, 22.949960) rotate(-27.859144) translate(-23.787383, -22.949960) " cx="23.787383" cy="22.9499602" rx="9.7389369" ry="15.7496959"></ellipse>
                    </g>
                    <g transform="translate(16.790476, 13.122403)" fill="#1D45BA">
                        <path d="M11.5895238,20.8934387 L9.17333333,12.4518545 L2.98952381,8.5845278 C2.29333333,10.3310625 1.39238095,12.5350229 0.655238095,14.2815575 C0.573333333,14.40631 0.45047619,14.40631 0.286666667,14.3231417 C0.040952381,14.1983892 1.77635684e-15,14.1152209 1.77635684e-15,13.8657159 L1.77635684e-15,13.7825476 L5.44666667,0.434032755 C5.61047619,0.101359487 6.02,-0.148145463 6.38857143,0.101359487 C6.79809524,0.350864438 7.00285714,0.849874339 7.12571429,1.34888424 L12.367619,20.436013 C12.4904762,20.7686862 12.6542857,21.3092803 12.3266667,21.3924486 C11.8761905,21.5172011 11.6714286,21.1845278 11.5895238,20.8934387 Z M6.47047619,2.18056741 C6.2247619,1.30730008 6.02,1.05779513 5.8152381,1.63997335 L3.31714286,8.00234959 L8.96857143,11.5370031 L6.47047619,2.18056741 Z" id="Shape" fillRule="nonzero"></path>
                        <path d="M12.2038095,14.4478941 L0.245714286,7.04591394 C0.122857143,6.96274563 0.040952381,6.79640899 0.040952381,6.63007236 L0.040952381,6.25581493 C0.040952381,6.0894783 0.122857143,6.04789414 0.245714286,6.0894783 L12.2038095,13.4914585 C12.3266667,13.5746268 12.4085714,13.7409634 12.4085714,13.9073001 L12.4085714,14.2815575 C12.4495238,14.4478941 12.3266667,14.5310625 12.2038095,14.4478941 Z" id="Path"></path>
                        <path d="M11.1390476,10.4973991 L1.35142857,4.42611196 C1.22857143,4.34294365 1.14666667,4.17660701 1.14666667,4.01027038 L1.14666667,3.59442879 C1.14666667,3.42809216 1.22857143,3.386508 1.35142857,3.42809216 L11.1390476,9.49937929 C11.2619048,9.58254761 11.3438095,9.74888424 11.3438095,9.91522087 L11.3438095,10.2894783 C11.3438095,10.4973991 11.2619048,10.5805674 11.1390476,10.4973991 Z" id="Path"></path>
                    </g>
                </g>
                <path d="M146.904427,237.667327 L152.477161,234.542507 C154.087062,233.637954 155.07777,231.869964 154.995211,230.019742 L154.995211,138.207611 C154.995211,138.207611 155.03649,131.135652 147.441061,126.941815 C140.258427,122.953558 36.1927871,62.8007831 36.1927871,62.8007831 C36.1927871,62.8007831 29.7119043,60.9916771 29.1752707,70.6950639 C28.6386371,80.3984508 29.5055068,168.510137 29.5055068,168.510137 L146.904427,237.667327 Z" id="Path" fill="#17D1AA"></path>
                <path d="M146.014451,237.667327 L151.511448,234.538682 C153.099469,233.633021 154.076713,231.862867 153.995276,230.01038 L153.995276,138.085852 C153.995276,138.085852 154.035994,131.005234 146.543791,126.806263 C139.458773,122.813124 130.785733,117.667327 130.785733,117.667327 C130.785733,117.667327 126.591728,143.725646 126.062387,153.440912 C125.533047,163.156178 128.546215,229.145886 128.546215,229.145886 L146.014451,237.667327 Z" id="Path" fill="url(#linearGradient-3)"></path>
                <path d="M143.053885,129.883382 L34.445445,67.5261228 C33.9920512,67.2788369 33.5386573,67.1139796 33.1264811,67.031551 L33.1264811,67.031551 C4.23292642,55.2030425 7.0769425,78.3654878 7.0769425,78.3654878 L29.5405477,90.4824965 L29.5405477,165.410122 C29.5405477,168.995767 31.7662995,173.240842 34.4866627,174.765771 L143.053885,237.081816 C145.774248,238.64796 148,236.958173 148,233.372528 L148,139.239032 C148,135.653386 145.774248,131.408312 143.053885,129.883382 Z" id="Path" fill="url(#linearGradient-4)"></path>
                <path d="M125.599147,240.667327 L140.178621,231.459825 C140.712517,231.129511 141,230.551461 141,229.973412 L141,142.687945 C141,140.004144 139.603656,137.4855 137.303795,136.122955 L32.7011987,73.7349035 C30.6477515,72.5375154 28.183615,72.3310692 25.9658921,73.1981433 L12.1256585,78.6483239 C11.057866,79.0612163 10.6471765,80.3824722 11.3453486,81.3321249 L125.599147,240.667327 Z" id="Path" fill="#52FCFF"></path>
                <path d="M123.601849,241.667327 L138.178765,232.465796 C138.712568,232.135696 139,231.558021 139,230.980347 L139,143.751483 C139,141.069422 137.603901,138.552412 135.304444,137.19075 L30.7202051,74.8431563 C28.6671183,73.6465447 25.62855,73.2751824 23.4112163,74.1416943 L10.1072142,79.2582407 C9.03960907,79.6708654 8.67005345,81.4864142 9.32704121,82.435451 L123.601849,241.667327 Z" id="Path" fill="url(#linearGradient-5)"></path>
                <path d="M120.763422,242.667327 L135.301828,233.576405 C135.835724,233.247322 136,232.177802 136,231.601906 L136,144.682824 C136,142.009023 134.603656,139.499764 132.303795,138.142297 L27.7011987,75.9867198 C25.6477515,74.7937934 22.2390293,74.2178979 20.0623754,75.0817412 L7.12565848,80.840696 C6.05786597,81.2520499 5.64717655,82.5683824 6.34534857,83.5144964 L120.763422,242.667327 Z" id="Path" fill="#52FCFF"></path>
                <path d="M118.25625,244.667327 L132.301828,235.722968 C132.835724,235.393222 133,234.651294 133,234.03302 L133,145.949637 C133,143.270452 131.603656,140.756139 129.303795,139.395937 L24.7011987,77.1151733 C22.6477515,75.9198442 19.5265119,75.1779159 17.349858,76.043499 L4.12565848,82.020144 C3.05786597,82.4323265 2.64717655,83.7513102 3.34534857,84.6993298 L118.25625,244.667327 Z" id="Path" fill="url(#linearGradient-6)"></path>
                <path d="M116.688482,246.667327 L129.342641,238.517708 C129.876745,238.188431 130,237.365237 130,236.747842 L130,148.04871 C130,145.373331 128.603112,142.862589 126.302356,141.50432 L21.6590322,79.3120287 C19.6047855,78.1183977 16.9342649,77.1305651 14.7156785,77.9949186 L3.29406718,82.5636442 C2.22585893,82.9752411 4.36227544,85.0743852 5.01963436,86.0210581 L116.688482,246.667327 Z" id="Path" fill="#52FCFF"></path>
                <path d="M121,149.752244 L140.776699,137.667327 C140.776699,137.667327 142,139.110918 142,141.296926 L142,141.296926 L142,229.108491 C142,229.644682 141.714563,230.139628 141.266019,230.428346 L126.708738,239.667327 L121,149.752244 Z" id="Path" fill="url(#linearGradient-7)" opacity="0.5"></path>
                <path d="M35.583342,63.0913102 C35.583342,63.0913102 30.8531134,61.1950891 25.9172226,60.7916378 C15.8809114,59.9847352 -0.98338208,62.6071687 0.0449284964,83.6673267 L11.9321988,81.8517959 L15.2227926,82.5376631 C-3.28679777,72.1286194 22.5032315,61.9616466 34.3905017,68.4168674 L42,66.722372 L35.583342,63.0913102 Z" id="Path" fill="#17D1AA"></path>
                <path d="M116.380237,253.667327 L123.477987,249.673604 C125.087361,248.767811 126.077744,246.997397 125.995212,245.144639 L125.995212,153.206664 C125.995212,153.206664 126.036478,146.12501 118.443536,141.925425 C111.263254,137.931702 9.83145466,79.2198558 9.83145466,79.2198558 C9.83145466,79.2198558 0.711671192,75.8848912 0.175213341,85.6015782 C-0.36124451,95.3182653 0.505341249,183.550725 0.505341249,183.550725 L116.380237,253.667327 Z" id="Path" fill="#17D1AA"></path>
                <path d="M116.50077,253.667327 L123.509587,249.68705 C125.098796,248.784307 126.07677,247.019855 125.995272,245.173334 L125.995272,153.544905 C125.995272,153.544905 126.036021,146.487095 118.538217,142.30165 C111.447901,138.321373 104.683578,134.217995 104.683578,134.217995 C104.683578,134.217995 95.6780623,130.894259 95.1483261,140.578231 C94.6185899,150.262203 95.6780623,242.218902 95.6780623,242.218902 L116.50077,253.667327 Z" id="Path" fill="url(#linearGradient-8)"></path>
                <path d="M113.118009,253.077477 L5.02918925,190.967588 C2.32184121,189.407657 0.106738268,185.220473 0.106738268,181.649052 L0.106738268,87.8889807 C-0.221425131,79.9251218 0.311840392,77.6673267 0.311840392,77.6673267 C0.311840392,77.6673267 0.96816719,80.6229857 3.10122928,82.6344759 C3.7985765,83.291289 6.62898582,85.1796266 7.65449644,85.7543381 L113.076988,146.345347 C115.784336,147.905278 118,152.092462 118,155.663883 L118,249.423954 C118.04046,252.995375 115.825357,254.637408 113.118009,253.077477 Z" id="Path" fill="url(#linearGradient-9)"></path>
                <g id="Group" transform="translate(45.207483, 48.789862)">
                    <g fill="#17D1AA" id="Path">
                        <path d="M16.8891156,0 C17.5530612,0.490140845 60.6680272,38.4352113 60.6680272,38.4352113"></path>
                        <path d="M15.1877551,1.83802817 C15.8517007,2.32816901 58.9666667,40.2732394 58.9666667,40.2732394"></path>
                        <path d="M13.4863946,3.67605634 C14.1503401,4.16619718 57.2653061,42.1112676 57.2653061,42.1112676"></path>
                        <path d="M11.8265306,5.51408451 C12.4904762,6.00422535 55.6054422,43.9492958 55.6054422,43.9492958"></path>
                        <path d="M10.1251701,7.35211268 C10.7891156,7.84225352 53.9040816,45.7873239 53.9040816,45.7873239"></path>
                        <path d="M8.42380952,9.19014085 C9.0877551,9.68028169 52.2027211,47.6253521 52.2027211,47.6253521"></path>
                        <path d="M6.76394558,11.028169 C7.42789116,11.5183099 50.5428571,49.4633803 50.5428571,49.4633803"></path>
                        <path d="M5.06258503,12.8661972 C5.72653061,13.356338 48.8414966,51.3014085 48.8414966,51.3014085"></path>
                        <path d="M3.36122449,14.7042254 C4.02517007,15.1943662 47.1401361,53.1394366 47.1401361,53.1394366"></path>
                        <path d="M1.70136054,16.5422535 C2.36530612,17.0323944 45.4802721,54.9774648 45.4802721,54.9774648"></path>
                        <path d="M0,18.4211268 C0.663945578,18.9112676 43.7789116,56.856338 43.7789116,56.856338"></path>
                    </g>
                    <path d="M19.7108844,20.0957746 C19.7108844,32.0633803 27.9687075,45.7056338 38.1353741,50.5253521 C41.4136054,52.0774648 44.4843537,52.5267606 47.1401361,52.0774648 L46.9741497,53.3028169 L50.6258503,50.7704225 C50.9578231,50.5661972 51.2897959,50.3211268 51.6217687,50.0760563 L51.6632653,50.0352113 L51.6632653,50.0352113 C54.692517,47.6253521 56.5598639,43.3366197 56.5598639,37.6591549 C56.5598639,25.6915493 48.3020408,12.0492958 38.1353741,7.22957746 C33.2387755,4.90140845 28.7986395,5.02394366 25.5204082,7.10704225 L25.5204082,7.10704225 L25.3959184,7.18873239 C25.2714286,7.27042254 25.1054422,7.39295775 24.9809524,7.47464789 L21.2462585,10.0070423 L22.8231293,9.51690141 C20.8727891,12.0492958 19.7108844,15.643662 19.7108844,20.0957746 Z M28.0517007,24.0985915 C28.0517007,17.5633803 32.5748299,14.4183099 38.1353741,17.0732394 C43.6959184,19.728169 48.2190476,27.2028169 48.2190476,33.7380282 C48.2190476,40.2732394 43.6959184,43.4183099 38.1353741,40.7633803 C32.5748299,38.1084507 28.0517007,30.6338028 28.0517007,24.0985915 Z" id="Shape" fill="url(#linearGradient-10)" fillRule="nonzero"></path>
                    <path d="M15.5197279,22.9957746 C15.5197279,34.9633803 23.777551,48.6056338 33.9442177,53.4253521 C44.1108844,58.2859155 52.3687075,52.5267606 52.3687075,40.5591549 C52.3687075,28.5915493 44.1108844,14.9492958 33.9442177,10.1295775 C23.777551,5.26901408 15.5197279,11.028169 15.5197279,22.9957746 Z M23.8605442,26.9577465 C23.8605442,20.4225352 28.3836735,17.2774648 33.9442177,19.9323944 C39.5047619,22.5873239 44.0278912,30.0619718 44.0278912,36.5971831 C44.0278912,43.1323944 39.5047619,46.2774648 33.9442177,43.6225352 C28.3836735,40.9676056 23.8605442,33.4929577 23.8605442,26.9577465 Z" id="Shape" fill="#17D1AA" fillRule="nonzero"></path>
                    <path d="M33.9442177,10.2929577 C23.777551,5.43239437 15.5197279,11.1915493 15.5197279,23.1591549 C15.5197279,35.1267606 23.777551,48.7690141 33.9442177,53.5887324 C44.1108844,58.4492958 52.3687075,52.6901408 52.3687075,40.7225352 C52.3687075,28.7549296 44.1108844,15.1535211 33.9442177,10.2929577 Z M33.9442177,43.8267606 C28.3836735,41.171831 23.8605442,33.6971831 23.8605442,27.1619718 C23.8605442,20.6267606 28.3836735,17.4816901 33.9442177,20.1366197 C39.5047619,22.7915493 44.0278912,30.2661972 44.0278912,36.8014085 C44.0278912,43.3366197 39.5047619,46.4816901 33.9442177,43.8267606 Z" id="Shape" fill="#163FA5" fillRule="nonzero"></path>
                    <ellipse id="Oval" fill="#52FCFF" opacity="0.7" transform="translate(33.947396, 31.782946) rotate(-27.859144) translate(-33.947396, -31.782946) " cx="33.9473963" cy="31.7829462" rx="13.8131285" ry="21.9694273"></ellipse>
                </g>
                <g id="Group" transform="translate(70.040909, 66.925614)" fill="#1D45BA">
                    <path d="M16.4045455,28.7281995 L13.0090909,17.1336049 L4.25454545,11.8227941 C3.27272727,14.2552265 2.00454545,17.2146859 0.940909091,19.6876589 C0.859090909,19.8498211 0.654545455,19.8498211 0.409090909,19.7281995 C0.0818181818,19.5254968 0,19.4038751 0,19.0795508 L0,18.9579292 L7.69090909,0.593064321 C7.89545455,0.147118375 8.50909091,-0.177205949 9.04090909,0.106577835 C9.65454545,0.471442699 9.9,1.12009135 10.0636364,1.84982108 L17.4272727,28.0795508 C17.5909091,28.5660373 17.7954545,29.295767 17.3454545,29.3768481 C16.8136364,29.6200913 16.4863636,29.1336049 16.4045455,28.7281995 Z M9.16363636,3.02549675 C8.79545455,1.80928054 8.50909091,1.48495621 8.22272727,2.25522648 L4.70454545,10.9714427 L12.6818182,15.795767 L9.16363636,3.02549675 Z" id="Shape" fillRule="nonzero"></path>
                    <path d="M17.2636364,19.8903616 L0.45,9.6741454 C0.286363636,9.55252378 0.122727273,9.30928054 0.122727273,9.10657783 L0.122727273,8.57955081 C0.122727273,8.3768481 0.245454545,8.25522648 0.45,8.3768481 L17.2636364,18.5930643 C17.4272727,18.7146859 17.5909091,18.9579292 17.5909091,19.1606319 L17.5909091,19.6876589 C17.5909091,19.8903616 17.4681818,19.9714427 17.2636364,19.8903616 Z" id="Path"></path>
                    <path d="M15.75,14.4579292 L1.96363636,6.10657783 C1.8,5.98495621 1.63636364,5.74171297 1.63636364,5.53901027 L1.63636364,5.01198324 C1.63636364,4.80928054 1.75909091,4.68765892 1.96363636,4.80928054 L15.75,13.1606319 C15.9136364,13.2822535 16.0772727,13.5254968 16.0772727,13.7281995 L16.0772727,14.2552265 C16.0772727,14.4579292 15.9136364,14.5390103 15.75,14.4579292 Z" id="Path"></path>
                </g>
                <g id="Group" transform="translate(54.120000, 122.789549)" fill="#52FCFF">
                    <path d="M12.24,17.9259259 L11,18.0888889 C7.92,14.137037 4.88,10.2259259 1.8,6.27407407 C1.8,6.27407407 1.8,6.23333333 1.8,6.23333333 L1.8,5.66296296 C1.8,5.45925926 1.8,5.2962963 1.8,5.09259259 L1.8,4.52222222 C5.28,9.0037037 8.76,13.4851852 12.24,17.9259259 Z" id="Path"></path>
                    <path d="M9.68,8.10740741 C9.12,8.18888889 8.56,8.22962963 8,8.31111111 C7.92,8.31111111 7.88,8.31111111 7.8,8.18888889 C7.12,7.29259259 6.44,6.43703704 5.72,5.54074074 C5,4.6037037 4.28,3.66666667 3.56,2.72962963 C3.2,2.28148148 2.88,1.83333333 2.52,1.42592593 L0.04,0 C0.16,0.162962963 0.28,0.325925926 0.4,0.448148148 C1.04,1.26296296 1.68,2.11851852 2.36,2.93333333 C3,3.74814815 3.64,4.6037037 4.28,5.41851852 C4.88,6.19259259 5.48,6.96666667 6.08,7.74074074 C6.64,8.47407407 7.24,9.20740741 7.8,9.94074074 C7.88,10.0222222 7.92,10.062963 7.96,10.0222222 C8.44,9.98148148 8.88,9.94074074 9.36,9.85925926 C10.52,9.73703704 11.64,9.57407407 12.8,9.45185185 C13.64,9.37037037 14.48,9.24814815 15.28,9.16666667 C15.44,9.16666667 15.64,9.12592593 15.8,9.08518519 L13.32,7.61851852 C12.12,7.82222222 10.92,7.94444444 9.68,8.10740741 Z" id="Path"></path>
                    <path d="M1.8,8.84074074 C1.8,8.84074074 1.8,8.84074074 1.8,8.84074074 C1.8,9.0037037 1.8,9.08518519 1.8,9.20740741 L1.8,9.9 C1.8,10.1037037 1.8,10.3074074 1.8,10.5518519 C1.8,10.5518519 1.8,10.5925926 1.8,10.5925926 C3.84,13.2 5.88,15.8481481 7.96,18.4962963 C7.96,18.4962963 7.96,18.4962963 7.96,18.4962963 L9.2,18.3333333 C6.72,15.1555556 4.28,11.9777778 1.8,8.84074074 Z" id="Path"></path>
                    <path d="M14.08,11.6518519 C12.56,11.8555556 11.04,12.0185185 9.52,12.2222222 C9.56,12.262963 9.56,12.3037037 9.56,12.3037037 C9.96,12.7925926 10.32,13.3222222 10.72,13.8111111 C10.72,13.8111111 10.76,13.8518519 10.76,13.8518519 C11.88,13.7296296 12.96,13.5666667 14.08,13.4444444 C14.08,13.4444444 14.08,13.4444444 14.08,13.4037037 L14.08,11.6518519 Z" id="Path"></path>
                    <path d="M14.08,16.0111111 C13.56,16.0925926 13.08,16.1333333 12.56,16.2148148 C12.96,16.7444444 13.36,17.2333333 13.76,17.762963 L14.08,17.7222222 L14.08,16.0111111 Z" id="Path"></path>
                    <polygon id="Path" points="2.76 19.3925926 3 19.5148148 1.64 20.9 1.64 22.6925926 1.44 22.5703704 1.44 20.7777778 0.08 17.8444444 0.32 17.9666667 1.52 20.6148148 1.52 20.6148148"></polygon>
                    <path d="M5.12,24.7296296 C4.56,24.4037037 4.12,23.9555556 3.76,23.3444444 C3.4,22.7740741 3.24,22.162963 3.24,21.5925926 C3.24,21.0222222 3.4,20.6555556 3.76,20.4925926 C4.12,20.3296296 4.56,20.3703704 5.12,20.6962963 C5.64,21.0222222 6.12,21.4703704 6.48,22.0407407 C6.84,22.6111111 7.04,23.2222222 7.04,23.7925926 C7.04,24.362963 6.84,24.7703704 6.48,24.9333333 C6.12,25.0962963 5.64,25.0555556 5.12,24.7296296 Z M5.12,24.5259259 C5.6,24.8111111 6,24.8518519 6.32,24.7296296 C6.64,24.5666667 6.8,24.2407407 6.8,23.7111111 C6.8,23.1814815 6.64,22.6518519 6.32,22.1222222 C6,21.5925926 5.6,21.1851852 5.12,20.9407407 C4.6,20.6555556 4.2,20.5740741 3.88,20.737037 C3.56,20.9 3.4,21.2259259 3.4,21.7555556 C3.4,22.2444444 3.56,22.7740741 3.88,23.3037037 C4.2,23.8333333 4.6,24.2407407 5.12,24.5259259 Z" id="Shape" fillRule="nonzero"></path>
                    <path d="M10.36,27.7444444 L10.12,27.6222222 L8.96,25.3 L8,24.7296296 L8,26.4 L7.8,26.2777778 L7.8,22.3259259 L9.08,23.0592593 C9.48,23.3037037 9.8,23.5888889 10,23.9148148 C10.2,24.2407407 10.32,24.5666667 10.32,24.9333333 C10.32,25.3 10.2,25.5037037 10,25.5851852 C9.8,25.6666667 9.52,25.6259259 9.2,25.4222222 L9.2,25.4222222 L10.36,27.7444444 Z M8,22.6518519 L8,24.5666667 L9,25.137037 C9.72,25.5444444 10.12,25.462963 10.12,24.8111111 C10.12,24.4851852 10.04,24.2 9.84,23.9555556 C9.68,23.7111111 9.4,23.4666667 9.12,23.3037037 L8,22.6518519 L8,22.6518519 Z" id="Shape" fillRule="nonzero"></path>
                    <path d="M12.8,29.2111111 C12.24,28.8851852 11.8,28.437037 11.44,27.8259259 C11.08,27.2555556 10.92,26.6444444 10.92,26.0740741 C10.92,25.5037037 11.08,25.137037 11.44,24.9740741 C11.8,24.8111111 12.24,24.8518519 12.8,25.1777778 C13.32,25.5037037 13.8,25.9518519 14.16,26.5222222 C14.52,27.0925926 14.72,27.7037037 14.72,28.2740741 C14.72,28.8444444 14.52,29.2518519 14.16,29.4148148 C13.8,29.5777778 13.36,29.4962963 12.8,29.2111111 Z M12.8,29.0074074 C13.28,29.2925926 13.68,29.3333333 14,29.2111111 C14.32,29.0481481 14.48,28.7222222 14.48,28.1925926 C14.48,27.662963 14.32,27.1333333 14,26.6037037 C13.68,26.0740741 13.28,25.6666667 12.8,25.4222222 C12.28,25.137037 11.88,25.0555556 11.56,25.2185185 C11.24,25.3814815 11.08,25.7074074 11.08,26.237037 C11.08,26.7259259 11.24,27.2555556 11.56,27.7851852 C11.92,28.3148148 12.32,28.7222222 12.8,29.0074074 Z" id="Shape" fillRule="nonzero"></path>
                    <polygon id="Path" points="15.56 30.7592593 15.56 26.8074074 15.76 26.9296296 15.76 30.8814815"></polygon>
                    <polygon id="Path" points="6.48 26.7666667 6.56 26.8074074 6.24 27.5814815 6.16 27.5407407 5.88 26.5222222 5.88 26.5222222 5.6 27.2148148 5.52 27.1740741 5.2 26.0333333 5.28 26.0740741 5.56 27.0925926 5.84 26.4 5.92 26.4407407 6.2 27.4592593"></polygon>
                    <path d="M7.84374582,27.4185185 L7.95076923,27.4592593 L7.95076923,28.437037 L7.84374582,28.3962963 L7.84374582,28.1925926 L7.84374582,28.1925926 C7.73672241,28.2740741 7.57618729,28.2740741 7.30862876,28.1925926 C7.14809365,28.1111111 6.98755853,27.9888889 6.88053512,27.8666667 C6.77351171,27.7444444 6.72,27.5814815 6.72,27.4185185 C6.72,27.2555556 6.77351171,27.1740741 6.88053512,27.1333333 C6.98755853,27.0925926 7.14809365,27.0925926 7.30862876,27.1740741 C7.41565217,27.2148148 7.52267559,27.2962963 7.629699,27.3777778 C7.73672241,27.4592593 7.79023411,27.5407407 7.84374582,27.6222222 L7.84374582,27.6222222 L7.84374582,27.4185185 Z M7.36214047,28.1111111 C7.52267559,28.1925926 7.629699,28.1925926 7.73672241,28.1518519 C7.84374582,28.1111111 7.89725753,28.0296296 7.89725753,27.9074074 C7.89725753,27.7851852 7.84374582,27.662963 7.73672241,27.5407407 C7.629699,27.4185185 7.52267559,27.337037 7.36214047,27.2555556 C7.20160535,27.1740741 7.09458194,27.1740741 6.98755853,27.2148148 C6.88053512,27.2555556 6.82702341,27.337037 6.82702341,27.4592593 C6.82702341,27.5814815 6.88053512,27.7037037 6.98755853,27.8259259 C7.04107023,27.9481481 7.20160535,28.0296296 7.36214047,28.1111111 Z" id="Shape" fillRule="nonzero"></path>
                    <polygon id="Path" points="8.04 28.6814815 8.04 27.2148148 8.12 27.2555556 8.12 28.7222222"></polygon>
                    <polygon id="Path" points="8.56 28.9666667 8.56 27.5 8.64 27.5407407 8.64 29.0074074"></polygon>
                    <path d="M10.2307692,29.2645799 C10.2307692,29.2645799 10.2307692,29.2645799 10.2307692,29.2645799 L9.05860806,28.8285134 C9.05860806,28.9593333 9.11721612,29.0901533 9.23443223,29.2209732 C9.35164835,29.3517931 9.46886447,29.4390064 9.64468864,29.5262197 C9.82051282,29.613433 9.996337,29.613433 10.1135531,29.5698264 L10.1721612,29.6570396 C10.0549451,29.7442529 9.87912088,29.7006463 9.64468864,29.613433 C9.46886447,29.5262197 9.29304029,29.3953998 9.17582418,29.2645799 C9.05860806,29.1337599 9,28.9593333 9,28.7849068 C9,28.6104802 9.05860806,28.5232669 9.17582418,28.4796603 C9.29304029,28.4360536 9.46886447,28.4360536 9.64468864,28.5232669 C9.82051282,28.6104802 9.996337,28.6976935 10.1135531,28.8721201 C10.1721612,28.9593333 10.2307692,29.0901533 10.2307692,29.2645799 Z M9.58608059,28.5668735 C9.46886447,28.5232669 9.29304029,28.4796603 9.23443223,28.5232669 C9.11721612,28.5668735 9.05860806,28.6104802 9.05860806,28.7413001 L10.1135531,29.1773666 C10.1135531,29.0465466 10.0549451,28.9157267 9.93772894,28.8285134 C9.87912088,28.6976935 9.76190476,28.6104802 9.58608059,28.5668735 Z" id="Shape" fillRule="nonzero"></path>
                    <path d="M10.4,30.0259259 C10.32,29.9851852 10.24,29.9037037 10.24,29.862963 C10.2,29.7814815 10.2,29.7407407 10.2,29.6185185 L10.2,28.9666667 L10.08,28.8851852 L10.08,28.8037037 L10.2,28.8851852 L10.2,28.5592593 L10.28,28.6 L10.28,28.9666667 L10.64,29.1703704 L10.64,29.2518519 L10.28,29.0481481 L10.28,29.6592593 C10.28,29.7407407 10.28,29.8222222 10.32,29.862963 C10.36,29.9037037 10.4,29.9444444 10.44,29.9851852 C10.52,30.0259259 10.56,30.0259259 10.64,30.0259259 L10.64,30.1074074 C10.56,30.1074074 10.48,30.1074074 10.4,30.0259259 Z" id="Path"></path>
                    <line x1="0" y1="23.6703704" x2="4.88" y2="26.4814815" id="Path"></line>
                    <line x1="10.92" y1="29.9851852" x2="15.8" y2="32.837037" id="Path"></line>
                </g>
                <path d="M159,161.980397 L154.987072,160.667327 L155.111183,161.980397 L119.077569,182.127813 L109.314156,176.8345 C109.314156,176.8345 101.164189,173.633892 95,182.825381 L118.994829,187.667327 L159,161.980397 Z" id="Path" fill="#52FCFF"></path>
                <path d="M119,214.667327 L103.5,206.09558 C97.0416667,202.517084 93,195.692975 93,188.32793 L93,188.32793 C93,180.213898 101.708333,175.095816 108.833333,179.007196 L119,184.624602 L119,214.667327 Z" id="Path" fill="url(#linearGradient-11)"></path>
                <path d="M113,195.427111 C113,198.776434 110.328767,200.511626 107,199.260674 C103.671233,198.009722 101,194.256866 101,190.907542 C101,187.558219 103.671233,185.823027 107,187.07398 C110.328767,188.324932 113,192.077788 113,195.427111 Z" id="Path" fill="url(#linearGradient-12)"></path>
                <polygon id="Path" fill="url(#linearGradient-13)" points="159 191.492736 119 214.667327 119 184.841918 159 161.667327"></polygon>
                <g id="Group" transform="translate(23.081988, 139.790495)">
                    <path d="M1.14782609,12.232204 L64.3602484,48.9677412 C64.8521739,49.2569974 65.4670807,49.5462536 65.5900621,48.9677412 C65.5900621,48.8850965 65.6310559,48.8024519 65.6310559,48.7198073 L65.6310559,39.0917081 C65.6310559,38.3479064 65.1801242,37.4801379 64.6062112,37.1495593 L1.02484472,0.12476595 C0.983850932,0.0834436357 0.942857143,0.0834436357 0.860869565,0.0421213216 C0.368944099,-0.164490249 0.245962733,0.496666776 0.245962733,1.1578238 L0.204968944,10.2900552 C0.204968944,11.0751792 0.614906832,11.9429478 1.14782609,12.232204 Z" id="Path" fill="url(#linearGradient-14)"></path>
                    <path d="M0.860869565,0.0421213216 C0.860869565,0.12476595 0.819875776,0.207410578 0.819875776,0.290055206 L0.819875776,9.91815438 C0.819875776,10.661956 1.27080745,11.5297246 1.8447205,11.8603031 L65.426087,48.8850965 C65.4670807,48.9264188 65.5080745,48.9264188 65.5900621,48.9677412 C65.5080745,49.5462536 65.0981366,49.7528651 64.6062112,49.4636089 L1.02484472,12.4388155 C0.450931677,12.108237 1.42108547e-14,11.2404684 1.42108547e-14,10.4966668 L1.42108547e-14,0.868567603 C1.42108547e-14,0.207410578 0.368944099,-0.123167935 0.860869565,0.0421213216 Z" id="Path" fill="url(#linearGradient-15)"></path>
                </g>
                <g id="Group" transform="translate(23.081988, 160.831817)">
                    <path d="M1.14782609,12.232204 L64.3602484,48.9677412 C64.8521739,49.2569974 65.4670807,49.5462536 65.5900621,48.9677412 C65.5900621,48.8850965 65.6310559,48.8024519 65.6310559,48.7198073 L65.6310559,39.0917081 C65.6310559,38.3479064 65.1801242,37.4801379 64.6062112,37.1495593 L1.02484472,0.12476595 C0.983850932,0.0834436357 0.942857143,0.0834436357 0.860869565,0.0421213216 C0.368944099,-0.164490249 0.245962733,0.496666776 0.245962733,1.1578238 L0.204968944,10.2900552 C0.204968944,11.0751792 0.614906832,11.9016255 1.14782609,12.232204 Z" id="Path" fill="url(#linearGradient-16)"></path>
                    <path d="M0.860869565,0.0421213216 C0.860869565,0.12476595 0.819875776,0.207410578 0.819875776,0.290055206 L0.819875776,9.91815438 C0.819875776,10.661956 1.27080745,11.5297246 1.8447205,11.8603031 L65.426087,48.8850965 C65.4670807,48.9264188 65.5080745,48.9264188 65.5900621,48.9677412 C65.5080745,49.5462536 65.0981366,49.7528651 64.6062112,49.4636089 L1.02484472,12.4388155 C0.450931677,12.108237 1.42108547e-14,11.2404684 1.42108547e-14,10.4966668 L1.42108547e-14,0.868567603 C1.42108547e-14,0.207410578 0.368944099,-0.123167935 0.860869565,0.0421213216 Z" id="Path" fill="url(#linearGradient-17)"></path>
                    <g opacity="0.7" transform="translate(15.372671, 12.521460)" fill="#E1F2FF" id="Path">
                        <g transform="translate(29.228571, 17.024793)">
                            <polygon points="2.82857143 5.08264463 2.04968944 6.57024793 0.573913043 4.7107438 1.68074534 3.55371901 0 1.81818182 0.532919255 0.371900826 2.04968944 2.23140496 1.8447205 0 3.68944099 1.07438017 3.48447205 3.05785124 5.00124224 2.97520661 5.57515528 5.04132231 3.93540373 4.83471074 5.04223602 7.31404959 3.60745342 7.47933884"></polygon>
                        </g>
                        <g transform="translate(21.890683, 12.768595)">
                            <polygon points="2.82857143 5.08264463 2.04968944 6.57024793 0.573913043 4.7107438 1.68074534 3.55371901 0 1.81818182 0.532919255 0.371900826 2.04968944 2.23140496 1.8447205 0 3.68944099 1.07438017 3.48447205 3.05785124 5.00124224 2.97520661 5.57515528 5.04132231 3.93540373 4.83471074 5.04223602 7.31404959 3.60745342 7.47933884"></polygon>
                        </g>
                        <g transform="translate(14.593789, 8.512397)">
                            <polygon points="2.82857143 5.08264463 2.04968944 6.57024793 0.573913043 4.7107438 1.68074534 3.55371901 1.42108547e-14 1.81818182 0.532919255 0.371900826 2.04968944 2.23140496 1.8447205 0 3.68944099 1.07438017 3.48447205 3.05785124 5.00124224 2.97520661 5.57515528 5.04132231 3.93540373 4.83471074 5.04223602 7.31404959 3.60745342 7.47933884"></polygon>
                        </g>
                        <g transform="translate(7.296894, 4.256198)">
                            <polygon points="2.82857143 5.08264463 2.04968944 6.57024793 0.573913043 4.7107438 1.68074534 3.55371901 0 1.81818182 0.532919255 0.371900826 2.04968944 2.23140496 1.8447205 0 3.68944099 1.07438017 3.48447205 3.05785124 5.00124224 2.97520661 5.57515528 5.04132231 3.93540373 4.83471074 5.04223602 7.31404959 3.60745342 7.47933884"></polygon>
                        </g>
                        <g>
                            <polygon points="2.82857143 5.08264463 2.04968944 6.57024793 0.573913043 4.7107438 1.68074534 3.55371901 0 1.81818182 0.532919255 0.371900826 2.04968944 2.23140496 1.8447205 0 3.68944099 1.07438017 3.48447205 3.05785124 5.00124224 2.97520661 5.57515528 5.04132231 3.93540373 4.83471074 5.04223602 7.31404959 3.60745342 7.47933884"></polygon>
                        </g>
                    </g>
                </g>
                <g id="Group" opacity="0.5" transform="translate(38.000000, 152.039741)" fill="#E1F2FF">
                    <path d="M1.36829268,4.75862069 C1.32682927,4.71724138 1.32682927,4.67586207 1.32682927,4.63448276 L1.32682927,3.39310345 L0,0.124137931 C0,0.0827586207 0,0.0827586207 0,0.0413793103 C0,0 0,0 0.0414634146,0 C0.0829268293,0 0.0829268293,0 0.124390244,0 L0.870731707,0.455172414 C0.912195122,0.496551724 0.953658537,0.537931034 0.995121951,0.579310345 C1.03658537,0.620689655 1.03658537,0.662068966 1.07804878,0.703448276 L1.86585366,2.64827586 L2.65365854,1.65517241 C2.65365854,1.6137931 2.69512195,1.6137931 2.73658537,1.6137931 C2.77804878,1.6137931 2.8195122,1.6137931 2.86097561,1.65517241 L3.60731707,2.11034483 C3.64878049,2.11034483 3.64878049,2.15172414 3.6902439,2.19310345 C3.73170732,2.23448276 3.73170732,2.27586207 3.73170732,2.31724138 C3.73170732,2.35862069 3.73170732,2.35862069 3.73170732,2.35862069 L2.40487805,4.05517241 L2.40487805,5.29655172 C2.40487805,5.33793103 2.40487805,5.37931034 2.36341463,5.37931034 C2.32195122,5.37931034 2.2804878,5.37931034 2.23902439,5.33793103 L1.45121951,4.88275862 C1.4097561,4.84137931 1.36829268,4.8 1.36829268,4.75862069 Z" id="Path"></path>
                    <path d="M3.9804878,6.08275862 C3.73170732,5.71034483 3.56585366,5.29655172 3.56585366,4.88275862 C3.56585366,4.84137931 3.56585366,4.75862069 3.56585366,4.63448276 C3.56585366,4.51034483 3.56585366,4.42758621 3.56585366,4.3862069 C3.60731707,3.97241379 3.73170732,3.76551724 4.02195122,3.68275862 C4.27073171,3.6 4.64390244,3.72413793 5.14146341,3.97241379 C5.59756098,4.26206897 5.97073171,4.59310345 6.26097561,4.96551724 C6.5097561,5.33793103 6.67560976,5.75172414 6.71707317,6.16551724 C6.71707317,6.28965517 6.71707317,6.37241379 6.71707317,6.4137931 C6.71707317,6.45517241 6.71707317,6.57931034 6.71707317,6.66206897 C6.67560976,7.07586207 6.55121951,7.32413793 6.30243902,7.36551724 C6.05365854,7.44827586 5.6804878,7.32413793 5.18292683,7.03448276 C4.64390244,6.7862069 4.27073171,6.45517241 3.9804878,6.08275862 Z M5.47317073,6.4137931 C5.55609756,6.37241379 5.59756098,6.24827586 5.59756098,6.04137931 C5.59756098,6 5.59756098,5.91724138 5.59756098,5.79310345 C5.59756098,5.66896552 5.59756098,5.5862069 5.59756098,5.54482759 C5.59756098,5.33793103 5.55609756,5.17241379 5.47317073,5.00689655 C5.3902439,4.84137931 5.26585366,4.75862069 5.1,4.63448276 C4.93414634,4.51034483 4.8097561,4.51034483 4.72682927,4.59310345 C4.64390244,4.63448276 4.60243902,4.75862069 4.60243902,4.96551724 L4.60243902,5.2137931 L4.60243902,5.46206897 C4.60243902,5.66896552 4.64390244,5.83448276 4.72682927,6 C4.8097561,6.12413793 4.93414634,6.24827586 5.1,6.37241379 C5.26585366,6.49655172 5.3902439,6.45517241 5.47317073,6.4137931 Z" id="Shape" fillRule="nonzero"></path>
                    <path d="M7.29756098,8.23448276 C7.25609756,8.19310345 7.25609756,8.15172414 7.25609756,8.11034483 L7.25609756,5.37931034 C7.25609756,5.33793103 7.25609756,5.29655172 7.29756098,5.29655172 C7.33902439,5.29655172 7.33902439,5.29655172 7.42195122,5.29655172 L8.12682927,5.71034483 C8.16829268,5.75172414 8.2097561,5.75172414 8.25121951,5.83448276 C8.29268293,5.87586207 8.29268293,5.91724138 8.29268293,5.95862069 L8.29268293,6.16551724 C8.41707317,6.12413793 8.54146341,6.08275862 8.66585366,6.12413793 C8.83170732,6.16551724 8.95609756,6.20689655 9.16341463,6.33103448 L9.41219512,6.49655172 C9.45365854,6.53793103 9.49512195,6.53793103 9.53658537,6.57931034 C9.57804878,6.62068966 9.57804878,6.66206897 9.57804878,6.70344828 L9.57804878,7.32413793 C9.57804878,7.36551724 9.57804878,7.40689655 9.53658537,7.40689655 C9.49512195,7.40689655 9.49512195,7.40689655 9.41219512,7.40689655 L8.83170732,7.07586207 C8.66585366,6.99310345 8.54146341,6.95172414 8.45853659,6.99310345 C8.37560976,7.03448276 8.33414634,7.11724138 8.33414634,7.28275862 L8.33414634,8.73103448 C8.33414634,8.77241379 8.33414634,8.8137931 8.29268293,8.8137931 C8.25121951,8.8137931 8.2097561,8.8137931 8.16829268,8.77241379 L7.42195122,8.31724138 C7.33902439,8.31724138 7.29756098,8.27586207 7.29756098,8.23448276 Z" id="Path"></path>
                    <path d="M10.2,9.72413793 C9.95121951,9.35172414 9.78536585,8.93793103 9.78536585,8.52413793 C9.78536585,8.48275862 9.78536585,8.4 9.78536585,8.27586207 C9.78536585,8.15172414 9.78536585,8.06896552 9.78536585,8.02758621 C9.82682927,7.6137931 9.95121951,7.40689655 10.2414634,7.32413793 C10.4902439,7.24137931 10.8634146,7.36551724 11.3609756,7.6137931 C11.8170732,7.90344828 12.1902439,8.23448276 12.4804878,8.60689655 C12.7292683,8.97931034 12.895122,9.39310345 12.9365854,9.80689655 C12.9365854,9.93103448 12.9365854,10.0137931 12.9365854,10.0551724 C12.9365854,10.0965517 12.9365854,10.2206897 12.9365854,10.3034483 C12.895122,10.7172414 12.7707317,10.9655172 12.5219512,11.0068966 C12.2731707,11.0896552 11.9,10.9655172 11.402439,10.6758621 C10.8634146,10.4275862 10.4902439,10.0965517 10.2,9.72413793 Z M11.6926829,10.0551724 C11.7756098,10.0137931 11.8170732,9.88965517 11.8170732,9.68275862 C11.8170732,9.64137931 11.8170732,9.55862069 11.8170732,9.43448276 C11.8170732,9.31034483 11.8170732,9.22758621 11.8170732,9.1862069 C11.8170732,8.97931034 11.7756098,8.8137931 11.6926829,8.64827586 C11.6097561,8.48275862 11.4853659,8.4 11.3195122,8.27586207 C11.1536585,8.15172414 11.0292683,8.15172414 10.9463415,8.23448276 C10.8634146,8.27586207 10.8219512,8.4 10.8219512,8.60689655 L10.8219512,8.85517241 L10.8219512,9.10344828 C10.8219512,9.31034483 10.8634146,9.47586207 10.9463415,9.64137931 C11.0292683,9.76551724 11.1536585,9.88965517 11.3195122,10.0137931 C11.4853659,10.0965517 11.6097561,10.0965517 11.6926829,10.0551724 Z" id="Shape" fillRule="nonzero"></path>
                    <path d="M13.5266417,8.44137931 C13.4756098,8.4 13.4756098,8.35862069 13.4756098,8.31724138 L13.4756098,7.77931034 C13.4756098,7.73793103 13.4756098,7.69655172 13.5266417,7.69655172 C13.5776735,7.69655172 13.6287054,7.69655172 13.6287054,7.69655172 L14.5472795,8.11034483 C14.5983114,8.15172414 14.6493433,8.15172414 14.7003752,8.23448276 C14.7514071,8.27586207 14.7514071,8.31724138 14.7514071,8.35862069 L14.7514071,8.89655172 C14.7514071,8.93793103 14.7514071,8.97931034 14.7003752,8.97931034 C14.6493433,8.97931034 14.5983114,8.97931034 14.5472795,8.97931034 L13.6287054,8.56551724 C13.5776735,8.52413793 13.5266417,8.48275862 13.5266417,8.44137931 Z M13.5266417,11.8758621 C13.4756098,11.8344828 13.4756098,11.7931034 13.4756098,11.7517241 L13.4756098,9.02068966 C13.4756098,8.97931034 13.4756098,8.93793103 13.5266417,8.93793103 C13.5776735,8.93793103 13.6287054,8.93793103 13.6287054,8.93793103 L14.5472795,9.35172414 C14.5983114,9.39310345 14.6493433,9.39310345 14.7003752,9.47586207 C14.7514071,9.51724138 14.7514071,9.55862069 14.7514071,9.6 L14.7514071,12.3310345 C14.7514071,12.3724138 14.7514071,12.4137931 14.7003752,12.4137931 C14.6493433,12.4137931 14.5983114,12.4137931 14.5472795,12.3724138 L13.6287054,11.9586207 C13.5776735,11.9586207 13.5266417,11.9172414 13.5266417,11.8758621 Z" id="Shape" fillRule="nonzero"></path>
                    <path d="M16.8756098,13.8206897 C16.8341463,13.7793103 16.7926829,13.6965517 16.7926829,13.6551724 L16.1707317,9.6 C16.1707317,9.6 16.1707317,9.55862069 16.1707317,9.55862069 C16.1707317,9.51724138 16.1707317,9.51724138 16.2121951,9.47586207 C16.2536585,9.47586207 16.2536585,9.47586207 16.295122,9.47586207 L17.0414634,9.93103448 C17.1658537,10.0137931 17.2073171,10.0965517 17.2073171,10.1793103 L17.5804878,12.5793103 L17.995122,11.5448276 C18.0365854,11.462069 18.0780488,11.462069 18.202439,11.5034483 L18.6585366,11.7517241 C18.7414634,11.7931034 18.8243902,11.9172414 18.8658537,12 L19.2804878,13.4896552 L19.6536585,11.5034483 C19.6536585,11.462069 19.695122,11.4206897 19.695122,11.4206897 C19.7365854,11.4206897 19.7780488,11.4206897 19.8195122,11.462069 L20.5658537,11.9172414 C20.6073171,11.9172414 20.6487805,11.9586207 20.6487805,12 C20.6902439,12.0413793 20.6902439,12.0827586 20.6902439,12.1241379 L20.6902439,12.1655172 L20.0682927,15.5172414 C20.0682927,15.5586207 20.0268293,15.6 19.9853659,15.6 C19.9439024,15.6 19.902439,15.6 19.8195122,15.5586207 L19.2390244,15.2275862 C19.197561,15.1862069 19.1146341,15.1448276 19.0731707,15.1034483 C19.0317073,15.062069 19.0317073,15.0206897 18.9902439,14.937931 L18.4097561,12.9931034 L17.8292683,14.2758621 C17.8292683,14.3172414 17.7878049,14.3172414 17.7463415,14.3172414 C17.704878,14.3172414 17.6634146,14.3172414 17.5804878,14.2758621 L17,13.9448276 C16.9585366,13.9448276 16.9170732,13.9034483 16.8756098,13.8206897 Z" id="Path"></path>
                    <path d="M21.395122,16.4689655 C21.2292683,16.3034483 21.104878,16.0965517 20.9804878,15.8896552 C20.897561,15.6827586 20.8560976,15.5172414 20.8560976,15.3517241 C20.8560976,15.1034483 20.9804878,14.937931 21.1878049,14.8965517 C21.395122,14.8551724 21.7268293,14.937931 22.1,15.1034483 L22.804878,15.4344828 L22.804878,15.3517241 C22.804878,15.2275862 22.7634146,15.1034483 22.7219512,14.9793103 C22.6804878,14.8551724 22.5560976,14.7724138 22.4317073,14.6896552 C22.3487805,14.6482759 22.3073171,14.6068966 22.2243902,14.6068966 C22.1829268,14.6068966 22.1,14.6068966 22.0585366,14.6068966 C22.0170732,14.6068966 21.9756098,14.6068966 21.9341463,14.6068966 C21.9341463,14.6068966 21.8926829,14.6068966 21.8926829,14.6068966 L21.2292683,14.1931034 C21.1878049,14.1517241 21.1463415,14.1517241 21.1463415,14.1103448 C21.104878,14.0689655 21.104878,14.0275862 21.104878,13.9862069 C21.104878,13.9034483 21.1463415,13.7793103 21.2707317,13.737931 C21.3536585,13.6551724 21.5195122,13.6551724 21.7268293,13.6551724 C21.9341463,13.6551724 22.1829268,13.7793103 22.4731707,13.9448276 C22.9707317,14.2344828 23.302439,14.5241379 23.5512195,14.8965517 C23.8,15.2689655 23.8829268,15.6 23.8829268,15.9724138 L23.8829268,17.7103448 C23.8829268,17.7517241 23.8829268,17.7931034 23.8414634,17.7931034 C23.8,17.7931034 23.8,17.7931034 23.7170732,17.7931034 L23.0121951,17.3793103 C22.9707317,17.337931 22.9292683,17.337931 22.9292683,17.2965517 C22.8878049,17.2551724 22.8878049,17.2137931 22.8878049,17.1724138 L22.8878049,16.9655172 C22.804878,17.0482759 22.6804878,17.0482759 22.5146341,17.0482759 C22.3487805,17.0482759 22.1829268,16.9655172 21.9756098,16.8413793 C21.7682927,16.8 21.5609756,16.6758621 21.395122,16.4689655 Z M22.6804878,16.4689655 C22.804878,16.4275862 22.8463415,16.3034483 22.8463415,16.0551724 L22.8463415,15.9724138 L22.3487805,15.7655172 C22.0170732,15.6413793 21.8512195,15.6413793 21.8512195,15.8482759 C21.8512195,15.9310345 21.8926829,16.0137931 21.9756098,16.137931 C22.0585366,16.2206897 22.1414634,16.3034483 22.2658537,16.3862069 C22.4317073,16.5103448 22.5560976,16.5517241 22.6804878,16.4689655 Z" id="Shape" fillRule="nonzero"></path>
                    <path d="M24.5463415,18.3310345 C24.504878,18.2896552 24.504878,18.2482759 24.504878,18.2068966 L24.504878,14.4 C24.504878,14.3586207 24.504878,14.3172414 24.5463415,14.3172414 C24.5878049,14.3172414 24.6292683,14.3172414 24.6707317,14.3586207 L25.4170732,14.7724138 C25.4585366,14.8137931 25.5,14.8137931 25.5414634,14.8551724 C25.5829268,14.8965517 25.5829268,14.937931 25.5829268,14.9793103 L25.5829268,18.7862069 C25.5829268,18.8275862 25.5829268,18.8689655 25.5414634,18.8689655 C25.5,18.8689655 25.5,18.8689655 25.4170732,18.8689655 L24.6707317,18.4551724 C24.5878049,18.4137931 24.5463415,18.3724138 24.5463415,18.3310345 Z" id="Path"></path>
                    <path d="M26.204878,19.3241379 C26.1634146,19.2827586 26.1634146,19.2413793 26.1634146,19.2 L26.1634146,15.3517241 C26.1634146,15.3103448 26.1634146,15.2689655 26.204878,15.2689655 C26.2463415,15.2689655 26.2878049,15.2689655 26.3292683,15.3103448 L27.0756098,15.7241379 C27.1170732,15.7655172 27.1585366,15.7655172 27.2,15.8068966 C27.2414634,15.8482759 27.2414634,15.8896552 27.2414634,15.9310345 L27.2414634,19.737931 C27.2414634,19.7793103 27.2414634,19.8206897 27.2,19.8206897 C27.1585366,19.8206897 27.1585366,19.8206897 27.0756098,19.8206897 L26.3292683,19.4068966 C26.2878049,19.4068966 26.2463415,19.3655172 26.204878,19.3241379 Z" id="Path"></path>
                    <path d="M28.1536585,20.1931034 C27.8634146,19.7793103 27.7390244,19.3241379 27.7390244,18.8275862 L27.7390244,18.662069 C27.7390244,18.2068966 27.904878,17.9172414 28.1536585,17.8344828 C28.4439024,17.7517241 28.7756098,17.8344828 29.2317073,18.0827586 C29.5634146,18.2896552 29.8536585,18.4965517 30.0609756,18.7862069 C30.3097561,19.0344828 30.4756098,19.3241379 30.5585366,19.6551724 C30.6829268,19.9448276 30.7243902,20.2758621 30.7243902,20.5655172 L30.7243902,20.6896552 C30.7243902,20.7310345 30.7243902,20.7724138 30.6829268,20.7724138 C30.6414634,20.7724138 30.6,20.7724138 30.5585366,20.7724138 L28.7341463,19.6965517 L28.7341463,19.737931 C28.7341463,19.9034483 28.7756098,20.0689655 28.8585366,20.2344828 C28.9414634,20.4 29.0658537,20.5241379 29.1902439,20.6068966 C29.2731707,20.6482759 29.3560976,20.6896552 29.397561,20.6896552 C29.4390244,20.6896552 29.5219512,20.6896552 29.5634146,20.6482759 C29.604878,20.6482759 29.6463415,20.6068966 29.6463415,20.6068966 C29.6878049,20.6068966 29.6878049,20.6068966 29.7292683,20.6482759 L30.4756098,21.1034483 C30.5170732,21.1034483 30.5585366,21.1448276 30.5585366,21.1862069 C30.5585366,21.2275862 30.6,21.2689655 30.6,21.2689655 C30.6,21.3517241 30.5585366,21.4344828 30.4341463,21.5172414 C30.3097561,21.6 30.1439024,21.6 29.9365854,21.5586207 C29.7292683,21.5172414 29.4390244,21.4344828 29.1487805,21.2689655 C28.8170732,20.937931 28.4439024,20.6068966 28.1536585,20.1931034 Z M29.7292683,19.6137931 L29.7292683,19.6137931 C29.7292683,19.4068966 29.6878049,19.2413793 29.604878,19.1172414 C29.5219512,18.9517241 29.397561,18.8689655 29.2731707,18.7448276 C29.1073171,18.662069 29.0243902,18.662069 28.9414634,18.7034483 C28.8585366,18.7448276 28.8170732,18.8689655 28.8170732,19.0758621 L28.8170732,19.0758621 L29.7292683,19.6137931 Z" id="Shape" fillRule="nonzero"></path>
                    <path d="M31.6780488,21.3931034 L31.6780488,20.3172414 L31.2219512,20.0689655 C31.1804878,20.0275862 31.1390244,20.0275862 31.1390244,19.9862069 C31.097561,19.9448276 31.097561,19.9034483 31.097561,19.862069 L31.097561,19.3655172 C31.097561,19.3241379 31.097561,19.2827586 31.1390244,19.2827586 C31.1804878,19.2827586 31.2219512,19.2827586 31.2219512,19.2827586 L31.6780488,19.5310345 L31.6780488,18.5793103 C31.6780488,18.537931 31.6780488,18.4965517 31.7195122,18.4965517 C31.7609756,18.4965517 31.802439,18.4965517 31.802439,18.4965517 L32.5073171,18.9103448 C32.5487805,18.9517241 32.5902439,18.9517241 32.6317073,18.9931034 C32.6731707,19.0344828 32.6731707,19.0758621 32.6731707,19.1172414 L32.6731707,20.0689655 L33.4195122,20.4827586 C33.4609756,20.5241379 33.502439,20.5241379 33.5439024,20.5655172 C33.5853659,20.6068966 33.5853659,20.6482759 33.5853659,20.6896552 L33.5853659,21.1862069 C33.5853659,21.2275862 33.5853659,21.2689655 33.5439024,21.2689655 C33.502439,21.2689655 33.4609756,21.2689655 33.4195122,21.2275862 L32.6731707,20.8137931 L32.6731707,21.8068966 C32.6731707,21.9310345 32.7146341,22.0551724 32.7560976,22.137931 C32.797561,22.2206897 32.8804878,22.3034483 33.004878,22.3862069 L33.4609756,22.6344828 C33.502439,22.6758621 33.5439024,22.6758621 33.5853659,22.7586207 C33.6268293,22.8 33.6268293,22.8413793 33.6268293,22.8827586 L33.6268293,23.4206897 C33.6268293,23.462069 33.6268293,23.5034483 33.5853659,23.5034483 C33.5439024,23.5034483 33.5439024,23.5034483 33.4609756,23.5034483 L32.9219512,23.1724138 C32.0926829,22.8 31.6780488,22.1793103 31.6780488,21.3931034 Z" id="Path"></path>
                </g>
            </g>
        </g>
    </g>
</svg>