<?xml version="1.0" encoding="UTF-8"?>
<svg width="44px" height="39px" viewBox="0 0 44 39" version="1.1" xmlns="http://www.w3.org/2000/svg" xmlns:xlink="http://www.w3.org/1999/xlink">
    <!-- Generator: Sketch 52.6 (67491) - http://www.bohemiancoding.com/sketch -->
    <title>icon/daedalus-migration-filled.inline.</title>
    <desc>Created with Sketch.</desc>
    <g id="icon/daedalus-migration-filled.inline." stroke="none" stroke-width="1" fill="none" fill-rule="evenodd">
        <g id="Group-52" fill="#ffffff">
            <path d="M9.1761,31.2964 C9.2861,30.0254 10.0871,29.0134 11.1091,28.8474 L11.1091,34.3344 C10.0981,34.1704 9.3031,33.1794 9.1791,31.9274 L10.0321,32.1134 L10.0321,33.2044 L10.6481,33.2044 L10.6481,31.6174 L9.1761,31.2964 Z M8.5541,31.7906 C8.6371,33.4536 9.7231,34.8026 11.1091,34.9696 L11.1091,35.8166 C9.1621,35.8166 7.5831,33.9756 7.5831,31.7036 C7.5831,31.6616 7.5901,31.6226 7.5911,31.5806 L8.5541,31.7906 Z M7.6488,30.9634 C7.7328,30.4384 7.8968,29.9444 8.1338,29.5084 L6.5558,29.8104 L6.2238,29.8734 L6.0218,29.6484 L4.0738,27.4734 L3.8278,27.1974 L4.0058,26.9504 L5.4078,25.0164 L5.7438,25.2124 L4.8998,27.0584 L6.6108,28.5894 L9.6778,27.9484 C9.6978,27.9384 9.7158,27.9234 9.7368,27.9134 L10.5538,28.3474 C9.4988,28.7344 8.7108,29.8314 8.5678,31.1634 L7.6488,30.9634 Z M13.6903,31.9419 C13.5613,33.1869 12.7673,34.1709 11.7613,34.3349 L11.7613,28.8469 C12.7863,29.0129 13.5893,30.0319 13.6953,31.3099 L12.3223,31.6199 L12.3223,33.2049 L12.9373,33.2049 L12.9373,32.1119 L13.6903,31.9419 Z M14.3153,31.8013 L15.2793,31.5833 C15.2803,31.6233 15.2873,31.6623 15.2873,31.7033 C15.2873,33.9753 13.7083,35.8173 11.7613,35.8173 L11.7613,34.9693 C13.1443,34.8023 14.2283,33.4593 14.3153,31.8013 Z M18.8314,26.9507 L19.0104,27.1977 L18.7634,27.4727 L16.8154,29.6477 L16.6144,29.8737 L16.2814,29.8097 L14.7394,29.5147 C14.9754,29.9507 15.1384,30.4417 15.2224,30.9657 L14.3034,31.1727 C14.1634,29.8367 13.3734,28.7357 12.3164,28.3467 C12.6544,28.1677 13.0294,27.9687 13.0814,27.9407 L13.0834,27.9327 L13.0934,27.9347 C13.0954,27.9337 13.1334,27.9137 13.1334,27.9137 C13.1604,27.9277 13.1844,27.9457 13.2104,27.9597 L16.2264,28.5897 L17.9374,27.0577 L17.0934,25.2127 L17.4304,25.0157 L18.8314,26.9507 Z" id="Combined-Shape"></path>
            <path d="M42.932,17.3355 C42.932,18.1625 42.259,18.8355 41.432,18.8355 L23.595,18.8355 C22.767,18.8355 22.095,18.1625 22.095,17.3355 L22.095,5.5515 C22.095,4.7245 22.767,4.0515 23.595,4.0515 L24.453,4.0515 L39.3,4.0515 L41.432,4.0515 C42.259,4.0515 42.932,4.7245 42.932,5.5515 L42.932,17.3355 Z M37.671,1.0285 C37.982,0.9555 38.307,1.0235 38.541,1.2075 C38.64,1.2855 38.807,1.4565 38.807,1.7145 L38.807,3.0515 L29.082,3.0515 L37.671,1.0285 Z M41.432,3.0515 L39.807,3.0515 L39.807,1.7145 C39.807,1.2185 39.572,0.7485 39.162,0.4235 C38.691,0.0505 38.049,-0.0885 37.441,0.0555 L24.784,3.0365 L24.725,3.0515 L23.595,3.0515 C22.216,3.0515 21.095,4.1735 21.095,5.5515 L21.095,17.3355 C21.095,18.7135 22.216,19.8355 23.595,19.8355 L41.432,19.8355 C42.81,19.8355 43.932,18.7135 43.932,17.3355 L43.932,5.5515 C43.932,4.1735 42.81,3.0515 41.432,3.0515 Z" id="Fill-13"></path>
            <path d="M37.2573,8.9175 L37.2573,10.1445 C37.2524625,10.14837 37.2523053,10.1578565 37.2477719,10.1629971 C37.2475283,10.1633395 37.2472715,10.1636742 37.247,10.164 C36.667697,10.5287714 36.0906839,10.8953748 35.5144111,11.2616406 C35.3885182,11.3416835 35.2626599,11.4216877 35.1368105,11.5016209 C34.9875223,11.5964811 34.8382611,11.6912867 34.689,11.786 C34.678,11.786 34.662,11.786 34.656,11.781 C34.4915624,11.6743378 34.3255817,11.5670583 34.1597724,11.4596759 C34.0270182,11.3740091 33.8942643,11.2882546 33.7623,11.2025 C33.7597023,11.1999023 33.7570372,11.1973047 33.7542344,11.1945317 C33.7458713,11.1870516 33.7367941,11.1777426 33.725,11.163 C34.6823192,10.5530427 35.6366759,9.94425111 36.5992316,9.33232355 C36.8164171,9.19408643 37.0339712,9.0556619 37.252,8.917 L37.257,8.917 Z M27.5428,8.9175 C30.3468,10.7565 33.1338,12.5785 35.9328,14.4065 L34.9308,15.0635 C32.4678,13.4535 30.0168,11.8425 27.5488,10.2315 C27.5428,10.2265 27.5428,10.2155 27.5428,10.2045 L27.5428,9.7755 L27.5428,9.3565 L27.5428,8.9175 Z M34.0262,8.3638 C35.0232,7.7308 36.0092,7.0928 37.0012,6.4648 L39.0242,6.4648 C38.8772,6.5588 38.7402,6.6488 38.5992,6.7388 C37.9242,7.1658 37.2442,7.5978 36.5702,8.0318 C35.6412,8.6228 34.7122,9.2188 33.7822,9.8148 C33.4032,10.0578 33.0232,10.2908 32.6492,10.5328 C32.5982,10.5648 32.5642,10.5648 32.5132,10.5328 C32.0482,10.2268 31.5782,9.9308 31.1132,9.6308 C30.6262,9.3138 30.1332,8.9918 29.6462,8.6758 C29.1252,8.3378 28.6042,7.9998 28.0822,7.6618 C27.5552,7.3238 27.0282,6.9808 26.5012,6.6428 C26.4112,6.5858 26.3252,6.5268 26.2182,6.4588 L28.2352,6.4588 C28.5132,6.6378 28.7902,6.8178 29.0682,6.9968 C29.6572,7.3778 30.2412,7.7618 30.8242,8.1468 C31.3852,8.5068 31.9462,8.8648 32.5022,9.2238 C32.5642,9.2658 32.6042,9.2608 32.6662,9.2238 C33.1192,8.9338 33.5732,8.6538 34.0262,8.3638 Z M27.5546,12.1958 C29.6096,13.4778 31.6586,14.7548 33.7246,16.0418 L32.6826,16.7038 L32.6776,16.7038 C30.9596,15.6318 29.2546,14.5708 27.5486,13.5038 C27.5486,13.4938 27.5426,13.4878 27.5426,13.4778 L27.5426,13.0098 L27.5426,12.4848 L27.5426,12.2218 C27.5426,12.2168 27.5486,12.2118 27.5546,12.1958 Z M37.2577,11.7857 L37.2577,13.2207 L36.9617,13.4257 C36.6227,13.1837 36.2837,12.9427 35.9327,12.6957 C36.3747,12.3947 36.8097,12.0937 37.2577,11.7857 Z" id="Combined-Shape"></path>
            <path d="M21.8373,36.3081 C21.8373,37.1351 21.1643,37.8081 20.3373,37.8081 L2.5003,37.8081 C1.6723,37.8081 1.0003,37.1351 1.0003,36.3081 L1.0003,24.5251 C1.0003,23.6981 1.6723,23.0251 2.5003,23.0251 L3.3583,23.0251 L18.2053,23.0251 L20.3373,23.0251 C21.1643,23.0251 21.8373,23.6981 21.8373,24.5251 L21.8373,36.3081 Z M16.5763,20.0021 C16.8863,19.9291 17.2133,19.9961 17.4463,20.1801 C17.5453,20.2591 17.7123,20.4291 17.7123,20.6871 L17.7123,22.0251 L7.9873,22.0251 L16.5763,20.0021 Z M20.3373,22.0251 L18.7123,22.0251 L18.7123,20.6871 C18.7123,20.1921 18.4773,19.7211 18.0673,19.3971 C17.5953,19.0231 16.9513,18.8861 16.3463,19.0291 L3.6893,22.0091 L3.6303,22.0251 L2.5003,22.0251 C1.1213,22.0251 0.0003,23.1461 0.0003,24.5251 L0.0003,36.3081 C0.0003,37.6861 1.1213,38.8081 2.5003,38.8081 L20.3373,38.8081 C21.7153,38.8081 22.8373,37.6861 22.8373,36.3081 L22.8373,24.5251 C22.8373,23.1461 21.7153,22.0251 20.3373,22.0251 Z" id="Fill-47"></path>
            <path d="M32.4173,22.4097 L28.9023,25.9257 L29.6453,26.6677 L31.8923,24.4197 L31.9173,24.4197 L31.9173,28.2757 C31.9173,30.2057 30.3473,31.7757 28.4173,31.7757 L25.3343,31.7757 L25.3343,32.7757 L28.4173,32.7757 C30.8983,32.7757 32.9173,30.7577 32.9173,28.2757 L32.9173,24.4207 L32.9423,24.4207 L35.1903,26.6677 L35.9333,25.9257 L32.4173,22.4097 Z" id="Fill-49"></path>
        </g>
    </g>
</svg>