<svg width="24" height="24" xmlns="http://www.w3.org/2000/svg"><g fill="none" fill-rule="evenodd"><path d="M0 0h24v24H0z"/><path d="M12 2.7c.456 0 .913.064 1.37.191l.077.027.039.006a6.338 6.338 0 0 1 4.888 5.944l.005.253v2.438l.007.286c.037.73.215 1.438.52 2.088a.197.197 0 0 1 .021.038 5.664 5.664 0 0 0 .449.781l-.045-.066.121.175-.076-.109c.263.38.574.73.93 1.04l.04.027.156.144c.318.331.498.775.498 1.24l-.007.155-.019.151a1.796 1.796 0 0 1-.904 1.265l-.131.065c-.178.08-.372.132-.576.15l-.154.006h-3.79l-.052.174-.066.185a3.517 3.517 0 0 1-1.1 1.492 3.306 3.306 0 0 1-.386.268 3.691 3.691 0 0 1-.62.294 3.456 3.456 0 0 1-.38.113l-.027.007a3.517 3.517 0 0 1-.788.088 3.545 3.545 0 0 1-.788-.088l-.027-.007a3.515 3.515 0 0 1-1.605-.863 3.374 3.374 0 0 1-.392-.434 3.261 3.261 0 0 1-.293-.45 3.489 3.489 0 0 1-.196-.42l-.066-.185-.052-.174h-3.79c-.884 0-1.62-.643-1.765-1.486l-.02-.15L3 17.203c0-.466.18-.91.498-1.24l.157-.145.04-.027a5.647 5.647 0 0 0 .929-1.04l-.077.108a5.62 5.62 0 0 0 .122-.174l-.045.066a5.659 5.659 0 0 0 .469-.82 5.549 5.549 0 0 0 .521-2.087l.007-.286V9.121a6.34 6.34 0 0 1 4.893-6.197l.038-.007c.026-.01.052-.018.079-.026A5.067 5.067 0 0 1 12 2.7Zm1.432 16.295h-2.864l.031.052a1.712 1.712 0 0 0 .609.539l-.06-.034a1.701 1.701 0 0 0 .695.222l.157.007.157-.007a1.695 1.695 0 0 0 .696-.222l-.062.034a1.713 1.713 0 0 0 .61-.539l.03-.052ZM10.449 4.882l-.245.068a4.507 4.507 0 0 0-2.742 3.946l-.006.225v2.438a7.43 7.43 0 0 1-1.184 4.027l-.07.106a7.161 7.161 0 0 1-.299.417l-.062.08c-.039.05-.078.098-.119.147l-.09.104a4.33 4.33 0 0 1-.12.136l-.093.099a6.845 6.845 0 0 1-.327.327l.18-.176a7.568 7.568 0 0 1-.034.034l-.146.142-.031.028a7.589 7.589 0 0 1-.019.017l-.046.041-.08.072h14.169l-.082-.072-.045-.04a7.572 7.572 0 0 1-.019-.018l-.03-.028-.147-.142a7.572 7.572 0 0 1-.035-.034l.181.176a7.532 7.532 0 0 1-.328-.326l-.091-.1a4.41 4.41 0 0 1-.122-.136l-.088-.105a4.49 4.49 0 0 1-.12-.146l-.062-.08a6.557 6.557 0 0 1-.369-.523 7.427 7.427 0 0 1-1.184-4.027V9.121l-.006-.225a4.507 4.507 0 0 0-2.742-3.946 6.249 6.249 0 0 0-3.347-.068Z" fill="currentColor" fill-rule="nonzero"/></g></svg>