<svg width="20" height="20" fill="none" xmlns="http://www.w3.org/2000/svg"><path d="M16.391 5.057a14.162 14.162 0 0 0-3.46-1.055.053.053 0 0 0-.056.026 9.641 9.641 0 0 0-.43.87 13.15 13.15 0 0 0-3.887 0 8.755 8.755 0 0 0-.437-.87A.054.054 0 0 0 8.065 4a14.152 14.152 0 0 0-3.46 1.056.05.05 0 0 0-.023.019c-2.204 3.24-2.808 6.4-2.512 9.522a.057.057 0 0 0 .022.039 14.19 14.19 0 0 0 4.245 2.11.056.056 0 0 0 .06-.018c.327-.44.619-.903.868-1.39a.053.053 0 0 0-.029-.074c-.457-.172-.9-.38-1.326-.622a.054.054 0 0 1-.026-.043.053.053 0 0 1 .02-.045c.09-.066.18-.135.264-.204a.053.053 0 0 1 .055-.007c2.782 1.25 5.794 1.25 8.543 0a.053.053 0 0 1 .056.007c.085.069.174.138.264.204a.054.054 0 0 1 .021.045.053.053 0 0 1-.025.043c-.424.244-.865.45-1.327.621a.052.052 0 0 0-.032.03.054.054 0 0 0 .003.045c.255.486.547.95.867 1.39a.055.055 0 0 0 .06.02 14.14 14.14 0 0 0 4.251-2.112.054.054 0 0 0 .023-.039c.354-3.608-.594-6.743-2.514-9.52a.042.042 0 0 0-.022-.02Zm-8.71 7.64c-.837 0-1.528-.757-1.528-1.685 0-.93.677-1.686 1.528-1.686.857 0 1.541.763 1.528 1.686 0 .929-.677 1.685-1.528 1.685Zm5.649 0c-.838 0-1.528-.757-1.528-1.685 0-.93.676-1.686 1.528-1.686.857 0 1.541.763 1.528 1.686 0 .929-.67 1.685-1.528 1.685Z" fill="currentColor"/></svg>