<svg width="24" height="24" viewBox="0 0 24 24" fill="none" xmlns="http://www.w3.org/2000/svg">
<path d="M14.8333 4C14.6351 4.34355 14.4584 4.69834 14.3042 5.06246C12.7896 4.8307 11.2468 4.8307 9.73217 5.06246C9.57802 4.69834 9.40134 4.34355 9.20308 4C7.77634 4.23587 6.38936 4.65828 5.08023 5.25563C2.73922 8.52442 1.67756 12.4929 2.08541 16.4501C3.61101 17.5597 5.32326 18.4061 7.14665 18.9517C7.56184 18.4211 7.93239 17.859 8.25473 17.2711C7.65983 17.0589 7.08804 16.7903 6.54768 16.4694C6.69589 16.374 6.83608 16.2674 6.96696 16.1507C8.54269 16.885 10.2692 17.2664 12.0182 17.2664C13.7672 17.2664 15.4937 16.885 17.0695 16.1507C17.2092 16.2666 17.349 16.3728 17.4887 16.4694C16.9454 16.7878 16.3742 17.0593 15.7817 17.2807C16.0907 17.882 16.4513 18.4571 16.8598 19C18.6809 18.4562 20.3902 17.6097 21.9111 16.4984C22.3287 12.5404 21.2662 8.56875 18.9163 5.30393C17.6218 4.69421 16.2486 4.25564 14.8333 4ZM8.70395 14.19C8.2044 14.1553 7.73816 13.9347 7.40312 13.5745C7.06808 13.2143 6.89029 12.7425 6.90706 12.2582C6.88775 11.7733 7.06467 11.3001 7.40022 10.9394C7.73576 10.5787 8.20347 10.3588 8.70395 10.3265C9.20442 10.3588 9.67213 10.5787 10.0077 10.9394C10.3432 11.3001 10.5201 11.7733 10.5008 12.2582C10.5201 12.7432 10.3432 13.2163 10.0077 13.577C9.67213 13.9377 9.20442 14.1576 8.70395 14.19ZM15.3325 14.19C14.8329 14.1553 14.3667 13.9347 14.0316 13.5745C13.6966 13.2143 13.5188 12.7425 13.5356 12.2582C13.5163 11.7733 13.6932 11.3001 14.0287 10.9394C14.3643 10.5787 14.832 10.3588 15.3325 10.3265C15.8339 10.3564 16.3031 10.5756 16.6391 10.9368C16.9752 11.2981 17.1512 11.7726 17.1294 12.2582C17.1512 12.7438 16.9752 13.2183 16.6391 13.5796C16.3031 13.9409 15.8339 14.16 15.3325 14.19Z" fill="black"/>
</svg>
