<svg width="24" height="24" viewBox="0 0 24 24" fill="none" xmlns="http://www.w3.org/2000/svg">
<path fill-rule="evenodd" clip-rule="evenodd" d="M12 2C6.47664 2 2 6.58996 2 12.2531C2 16.7824 4.86445 20.6261 8.83878 21.983C9.33908 22.0755 9.51955 21.7599 9.51955 21.4886C9.51955 21.2449 9.51153 20.5993 9.50852 19.7451C6.72629 20.3639 6.13876 18.3696 6.13876 18.3696C5.68558 17.1854 5.02887 16.8698 5.02887 16.8698C4.12152 16.2335 5.09806 16.2479 5.09806 16.2479C6.10267 16.3198 6.62904 17.3046 6.62904 17.3046C7.52136 18.8713 8.97112 18.419 9.5386 18.1568C9.62984 17.4938 9.89052 17.0415 10.1753 16.7855C7.95548 16.5275 5.62142 15.6475 5.62142 11.7175C5.62142 10.6001 6.01143 9.68316 6.64809 8.96769C6.54682 8.70761 6.20092 7.6642 6.74734 6.2538C6.74734 6.2538 7.58652 5.97728 9.49649 7.30338C10.3122 7.07585 11.1536 6.95972 11.999 6.95797C12.8444 6.95938 13.6859 7.07552 14.5015 7.30338C16.4125 5.97625 17.2507 6.2538 17.2507 6.2538C17.7971 7.6642 17.4542 8.70761 17.3499 8.96769C17.9916 9.68316 18.3766 10.5991 18.3766 11.7175C18.3766 15.6578 16.0405 16.5234 13.8127 16.7773C14.1686 17.0939 14.4895 17.7189 14.4895 18.675C14.4895 20.0463 14.4774 21.1524 14.4774 21.4886C14.4774 21.763 14.6559 22.0817 15.1662 21.981C19.1386 20.622 22 16.7814 22 12.2531C22 6.58996 17.5234 2 12 2Z" fill="black"/>
</svg>
