<svg width="20" height="20" xmlns="http://www.w3.org/2000/svg"><path d="M17.259 6.073a8.142 8.142 0 0 0-2.976-2.976A7.999 7.999 0 0 0 10.178 2a8 8 0 0 0-4.105 1.097 8.141 8.141 0 0 0-2.976 2.976A8 8 0 0 0 2 10.178c0 1.782.52 3.384 1.56 4.807 1.04 1.424 2.383 2.409 4.03 2.955.192.036.334.01.426-.074a.416.416 0 0 0 .139-.32l-.006-.575a95.098 95.098 0 0 1-.005-.947l-.245.042c-.156.029-.353.041-.591.038a4.503 4.503 0 0 1-.74-.075 1.654 1.654 0 0 1-.714-.32 1.351 1.351 0 0 1-.468-.654l-.106-.245a2.66 2.66 0 0 0-.336-.543c-.153-.199-.307-.334-.463-.405l-.075-.053a.782.782 0 0 1-.138-.128.584.584 0 0 1-.096-.149c-.021-.05-.003-.09.053-.123.057-.032.16-.047.31-.047l.212.032c.142.028.318.113.527.255.21.142.382.327.517.554.163.29.36.513.59.665.231.153.464.23.698.23.234 0 .437-.019.607-.054.17-.035.33-.089.48-.16.063-.475.237-.841.52-1.097a7.291 7.291 0 0 1-1.09-.191 4.346 4.346 0 0 1-1.001-.416 2.867 2.867 0 0 1-.858-.713c-.227-.284-.413-.657-.559-1.118-.145-.462-.218-.994-.218-1.597 0-.86.28-1.59.841-2.194-.262-.646-.238-1.37.075-2.172.206-.064.511-.016.916.144.404.16.7.296.889.41.188.113.339.21.452.287a7.561 7.561 0 0 1 2.045-.277c.703 0 1.384.093 2.045.277l.404-.255a5.73 5.73 0 0 1 .98-.469c.376-.142.664-.181.862-.117.32.802.348 1.526.085 2.172.561.604.842 1.335.842 2.194 0 .603-.073 1.137-.218 1.602-.146.465-.334.838-.565 1.118-.23.28-.518.517-.862.708-.345.192-.678.33-1.001.416-.323.085-.687.149-1.092.192.37.319.554.823.554 1.512v2.246c0 .128.044.234.133.32.089.085.229.11.42.074 1.648-.547 2.991-1.532 4.031-2.955 1.04-1.423 1.56-3.026 1.56-4.808a8.006 8.006 0 0 0-1.097-4.104Z" fill="currentColor" fill-rule="evenodd"/></svg>