<svg width="24" height="24" viewBox="0 0 24 24" fill="none" xmlns="http://www.w3.org/2000/svg">
<path d="M16.4437 2.00021C14.9719 1.98733 13.5552 2.55719 12.4986 3.58488L12.4882 3.59513L10.7923 5.29339C10.4021 5.68419 10.4025 6.31736 10.7933 6.70761C11.1841 7.09785 11.8173 7.09741 12.2075 6.70661L13.8979 5.01382C14.5778 4.3551 15.4855 3.99191 16.4262 4.00014C17.3692 4.00839 18.2727 4.38923 18.9416 5.06286C19.6108 5.73671 19.9916 6.64971 19.9998 7.6056C20.008 8.55874 19.6452 9.4758 18.9912 10.1607L16.2346 12.9367C15.8688 13.3052 15.429 13.5897 14.9453 13.7714C14.4616 13.9531 13.945 14.0279 13.4304 13.9907C12.9159 13.9536 12.4149 13.8055 11.9616 13.5561C11.5822 13.3473 11.1843 12.9175 10.8027 12.4037C10.4734 11.9603 9.847 11.8679 9.40364 12.1972C8.96029 12.5266 8.86785 13.1529 9.19718 13.5963C9.60661 14.1475 10.218 14.8795 10.9975 15.3084C11.7032 15.6966 12.4838 15.9277 13.2866 15.9856C14.0893 16.0435 14.8949 15.9268 15.6486 15.6437C16.4022 15.3606 17.0861 14.9177 17.654 14.3457L20.4168 11.5635L20.429 11.551C21.4491 10.4874 22.0125 9.0642 21.9997 7.58834C21.987 6.11247 21.3992 4.69931 20.3607 3.65359C19.3221 2.60764 17.9155 2.01309 16.4437 2.00021Z" fill="black"/>
<path d="M10.7134 8.01444C9.91064 7.95655 9.10506 8.0732 8.35137 8.35632C7.59775 8.63941 6.91382 9.08232 6.34597 9.65431L3.5831 12.4365L3.57097 12.449C2.5508 13.5126 1.98748 14.9358 2.00021 16.4117C2.01295 17.8875 2.60076 19.3007 3.6392 20.3464C4.67787 21.3924 6.08439 21.9869 7.55623 21.9998C9.02807 22.0127 10.4447 21.4428 11.5014 20.4151L11.5117 20.4049L13.2076 18.7066C13.5979 18.3158 13.5974 17.6826 13.2066 17.2924C12.8158 16.9021 12.1826 16.9026 11.7924 17.2934L10.102 18.9862C9.42216 19.6449 8.51445 20.0081 7.57373 19.9999C6.63074 19.9916 5.72728 19.6108 5.05834 18.9371C4.38918 18.2633 4.00839 17.3503 4.00014 16.3944C3.99191 15.4413 4.35478 14.5242 5.00873 13.8393L7.76537 11.0633C8.13118 10.6948 8.57097 10.4103 9.05467 10.2286C9.53836 10.0469 10.0549 9.97215 10.5695 10.0093C11.0841 10.0464 11.585 10.1945 12.0383 10.4439C12.4178 10.6527 12.8156 11.0825 13.1972 11.5963C13.5266 12.0397 14.1529 12.1321 14.5963 11.8028C15.0397 11.4734 15.1321 10.8471 14.8028 10.4037C14.3933 9.85251 13.7819 9.12049 13.0024 8.69161C12.2968 8.30338 11.5161 8.07233 10.7134 8.01444Z" fill="black"/>
</svg>
