<svg width="20" height="20" xmlns="http://www.w3.org/2000/svg"><path d="M16.177 4.226 3.305 9.191a.37.37 0 0 0 .004.691l3.137 1.172 1.212 3.904a.37.37 0 0 0 .588.176l1.748-1.424a.52.52 0 0 1 .636-.019l3.152 2.289a.37.37 0 0 0 .58-.223l2.31-11.111a.37.37 0 0 0-.495-.42m-8.32 9.227-.663-2.328a.618.618 0 0 1 .27-.695l6.129-3.775c.11-.068.224.082.129.169l-5.059 4.702a1.052 1.052 0 0 0-.325.628l-.172 1.277a.154.154 0 0 1-.157.137.152.152 0 0 1-.152-.115" fill="currentColor" fillRule="nonzero"/></svg>