<svg width="24" height="24" viewBox="0 0 24 24" fill="none" xmlns="http://www.w3.org/2000/svg">
<path d="M19.9452 7.98747C19.9585 8.16289 19.9585 8.3373 19.9585 8.51172C19.9585 13.8494 15.8337 20 8.29554 20C5.97313 20 3.81559 19.3374 2 18.1867C2.32974 18.2238 2.64726 18.2368 2.99023 18.2368C4.83533 18.2412 6.62818 17.6335 8.07979 16.5117C7.22432 16.4965 6.39505 16.2185 5.70775 15.7166C5.02046 15.2146 4.50945 14.5139 4.24608 13.7121C4.49949 13.7492 4.75392 13.7742 5.02056 13.7742C5.38795 13.7742 5.75738 13.7241 6.10035 13.6369C5.17195 13.4523 4.33714 12.9566 3.73786 12.2342C3.13857 11.5119 2.81182 10.6073 2.81315 9.67448V9.62436C3.35966 9.92407 3.99369 10.1115 4.66538 10.1366C4.10268 9.76828 3.64128 9.26854 3.32235 8.68191C3.00342 8.09528 2.83687 7.44003 2.83757 6.77459C2.83757 6.02481 3.0401 5.33718 3.39528 4.73775C4.42534 5.98574 5.71006 7.0067 7.16623 7.73453C8.6224 8.46235 10.2175 8.88081 11.8484 8.96279C11.7853 8.66207 11.7466 8.35033 11.7466 8.03759C11.7463 7.50729 11.8522 6.98214 12.0581 6.49216C12.264 6.00218 12.5659 5.55697 12.9467 5.182C13.3274 4.80702 13.7794 4.50962 14.2769 4.30681C14.7743 4.10399 15.3075 3.99974 15.8459 4C17.0265 4 18.092 4.48716 18.841 5.27503C19.7588 5.10023 20.6389 4.77025 21.4423 4.29971C21.1364 5.23274 20.4956 6.02391 19.6399 6.525C20.4539 6.43356 21.2494 6.22273 22 5.89951C21.4394 6.70452 20.7447 7.41044 19.9452 7.98747Z" fill="black"/>
</svg>
