<svg width="24" height="24" fill="none" xmlns="http://www.w3.org/2000/svg"><g clip-path="url(#a)"><path d="M23.5 6.507a2.786 2.786 0 0 0-.766-1.27 3.05 3.05 0 0 0-1.338-.742C19.518 4 11.994 4 11.994 4a76.624 76.624 0 0 0-9.39.47c-.502.14-.961.4-1.338.76-.37.356-.638.795-.778 1.276A29.09 29.09 0 0 0 0 12c-.012 1.841.151 3.68.488 5.494.137.479.404.916.775 1.269.371.353.833.608 1.341.743 1.903.494 9.39.494 9.39.494 3.14.036 6.28-.121 9.402-.47a3.05 3.05 0 0 0 1.338-.742 2.78 2.78 0 0 0 .765-1.27c.345-1.811.513-3.651.501-5.495.026-1.851-.142-3.7-.5-5.517v.001zM9.602 15.424V8.577l6.26 3.424-6.26 3.423z" fill="currentColor"/></g><defs><clipPath id="a"><path fill="#fff" d="M0 0h24v24H0z"/></clipPath></defs></svg>