<svg width="24" height="24" viewBox="0 0 24 24" fill="none" xmlns="http://www.w3.org/2000/svg">
<path d="M21.5931 6.35834C21.4793 5.90595 21.2569 5.49337 20.948 5.16169C20.639 4.83001 20.2544 4.59078 19.8324 4.46782C18.2675 4.0075 12.0069 4.00001 12.0069 4.00001C12.0069 4.00001 5.74735 3.99251 4.18146 4.43249C3.75968 4.56111 3.37585 4.80372 3.06681 5.13703C2.75778 5.47034 2.53391 5.88316 2.41671 6.33586C2.004 8.01228 2 11.4893 2 11.4893C2 11.4893 1.996 14.9834 2.40571 16.6427C2.63555 17.5602 3.31008 18.2849 4.16747 18.5322C5.74835 18.9925 11.9919 19 11.9919 19C11.9919 19 18.2525 19.0075 19.8174 18.5686C20.2396 18.4458 20.6246 18.2072 20.9343 17.8762C21.2439 17.5451 21.4676 17.1333 21.5831 16.6813C21.9969 15.0059 21.9999 11.53 21.9999 11.53C21.9999 11.53 22.0198 8.03476 21.5931 6.35834ZM10.0043 14.7105L10.0093 8.2874L15.2127 11.5043L10.0043 14.7105Z" fill="black"/>
</svg>
