<svg width="20" height="20" viewBox="0 0 20 20" fill="none" xmlns="http://www.w3.org/2000/svg">
<path d="M2.39978 5.93312C2.30277 6.02988 2.22581 6.14483 2.17329 6.27138C2.12078 6.39793 2.09375 6.5336 2.09375 6.67062C2.09375 6.80763 2.12078 6.9433 2.17329 7.06986C2.22581 7.19641 2.30277 7.31136 2.39978 7.40812L9.40811 14.4165C9.48521 14.4937 9.57678 14.555 9.67759 14.5968C9.7784 14.6386 9.88647 14.6602 9.99561 14.6602C10.1048 14.6602 10.2128 14.6386 10.3136 14.5968C10.4144 14.555 10.506 14.4937 10.5831 14.4165L17.5914 7.40812C17.9998 6.99979 17.9998 6.34145 17.5914 5.93312C17.1831 5.52479 16.5248 5.52479 16.1164 5.93312L9.99978 12.0498L3.87478 5.92479C3.46644 5.52479 2.80811 5.52479 2.39978 5.93312V5.93312Z" fill="#4A5065"/>
</svg>
