<svg width="24" height="24" viewBox="0 0 24 24" fill="none" xmlns="http://www.w3.org/2000/svg">
<path d="M16.8802 2.87993C16.764 2.76352 16.6261 2.67116 16.4742 2.60815C16.3224 2.54513 16.1596 2.5127 15.9952 2.5127C15.8307 2.5127 15.6679 2.54513 15.5161 2.60815C15.3642 2.67116 15.2263 2.76352 15.1102 2.87993L6.70016 11.2899C6.60746 11.3824 6.53391 11.4923 6.48373 11.6133C6.43354 11.7343 6.40771 11.864 6.40771 11.9949C6.40771 12.1259 6.43354 12.2556 6.48373 12.3766C6.53391 12.4975 6.60746 12.6074 6.70016 12.6999L15.1102 21.1099C15.6002 21.5999 16.3902 21.5999 16.8802 21.1099C17.3702 20.6199 17.3702 19.8299 16.8802 19.3399L9.54016 11.9999L16.8902 4.64993C17.3702 4.15993 17.3702 3.36993 16.8802 2.87993V2.87993Z" fill="white"/>
</svg>
