<svg width="12" height="12" viewBox="0 0 12 12" fill="none" xmlns="http://www.w3.org/2000/svg">
<path d="M7 1C7 0.447715 7.44772 0 8 0H11C11.5523 0 12 0.447715 12 1V4C12 4.55228 11.5523 5 11 5C10.4477 5 10 4.55228 10 4V3.41421L6.70711 6.70711C6.31658 7.09763 5.68342 7.09763 5.29289 6.70711C4.90237 6.31658 4.90237 5.68342 5.29289 5.29289L8.58579 2H8C7.44772 2 7 1.55228 7 1Z" fill="#3154CB"/>
<path d="M2.2 3C2.14696 3 2.09609 3.02107 2.05858 3.05858C2.02107 3.09609 2 3.14696 2 3.2V9.8C2 9.85304 2.02107 9.90391 2.05858 9.94142C2.09609 9.97893 2.14696 10 2.2 10H8.8C8.85304 10 8.90391 9.97893 8.94142 9.94142C8.97893 9.90391 9 9.85304 9 9.8V7.625C9 7.07272 9.44771 6.625 10 6.625C10.5523 6.625 11 7.07272 11 7.625V9.8C11 10.3835 10.7682 10.9431 10.3556 11.3556C9.94306 11.7682 9.38348 12 8.8 12H2.2C1.61652 12 1.05695 11.7682 0.644365 11.3556C0.231785 10.9431 0 10.3835 0 9.8V3.2C0 2.61652 0.231785 2.05695 0.644365 1.64437C1.05695 1.23178 1.61652 1 2.2 1H4.375C4.92728 1 5.375 1.44772 5.375 2C5.375 2.55228 4.92728 3 4.375 3H2.2Z" fill="#3154CB"/>
</svg>
