<svg width="20" height="20" xmlns="http://www.w3.org/2000/svg"><path d="M11.753 9.894v.212l4.771 4.77c.218.24.326.52.326.848 0 .325-.106.59-.32.805-.215.215-.48.321-.806.321a1.21 1.21 0 0 1-.842-.32l-4.776-4.777h-.212l-4.77 4.771a1.168 1.168 0 0 1-1.622 0 1.03 1.03 0 0 1-.352-.8c0-.324.118-.602.358-.842l4.74-4.776v-.212l-4.74-4.776a1.146 1.146 0 0 1-.358-.842c0-.322.116-.586.352-.8a1.168 1.168 0 0 1 1.616-.005l4.776 4.776h.212l4.77-4.771c.24-.218.52-.326.848-.326.325 0 .59.106.805.32.215.215.321.48.321.806 0 .326-.107.605-.323.844l-4.774 4.774z" fill="#464749" fillRule="evenodd"/></svg>