<svg width="8" height="8" viewBox="0 0 8 8" fill="none" xmlns="http://www.w3.org/2000/svg">
<path d="M7.70711 0.292893C8.09763 0.683417 8.09763 1.31658 7.70711 1.70711L5.41421 4L7.70711 6.29289C8.09763 6.68342 8.09763 7.31658 7.70711 7.70711C7.31658 8.09763 6.68342 8.09763 6.29289 7.70711L4 5.41421L1.70711 7.70711C1.31658 8.09763 0.683417 8.09763 0.292893 7.70711C-0.0976311 7.31658 -0.0976311 6.68342 0.292893 6.29289L2.58579 4L0.292893 1.70711C-0.0976311 1.31658 -0.0976311 0.683417 0.292893 0.292893C0.683417 -0.0976311 1.31658 -0.0976311 1.70711 0.292893L4 2.58579L6.29289 0.292893C6.68342 -0.0976311 7.31658 -0.0976311 7.70711 0.292893Z" fill="black"/>
</svg>
