<svg width="32" height="32" viewBox="0 0 32 32" fill="none" xmlns="http://www.w3.org/2000/svg">
<rect width="32" height="32" rx="16" fill="#F0F3F5"/>
<path d="M19.7071 12.2929C20.0976 12.6834 20.0976 13.3166 19.7071 13.7071L17.4142 16L19.7071 18.2929C20.0976 18.6834 20.0976 19.3166 19.7071 19.7071C19.3166 20.0976 18.6834 20.0976 18.2929 19.7071L16 17.4142L13.7071 19.7071C13.3166 20.0976 12.6834 20.0976 12.2929 19.7071C11.9024 19.3166 11.9024 18.6834 12.2929 18.2929L14.5858 16L12.2929 13.7071C11.9024 13.3166 11.9024 12.6834 12.2929 12.2929C12.6834 11.9024 13.3166 11.9024 13.7071 12.2929L16 14.5858L18.2929 12.2929C18.6834 11.9024 19.3166 11.9024 19.7071 12.2929Z" fill="black"/>
</svg>
