<svg width="24" height="24" xmlns="http://www.w3.org/2000/svg"><g fill="none" fill-rule="evenodd"><path d="M0 0h24v24H0z"/><path d="M12 5c4.175 0 7.283 2.49 9.112 4.5l.31.35.282.335.255.318.228.298.29.399.16.23.271.418L23 12l-.132.216-.232.355-.159.23-.29.398-.228.298-.255.318-.283.335-.31.35C19.284 16.51 16.176 19 12 19c-4.175 0-7.283-2.49-9.112-4.5l-.31-.35-.282-.335-.255-.318-.228-.298-.29-.399-.16-.23-.271-.418L1 12l.132-.216.232-.355.159-.23.29-.398.228-.298.255-.318.283-.335.31-.35C4.716 7.49 7.824 5 12 5zm0 1.5c-2.636 0-5.013 1.147-7.102 3.097a16.035 16.035 0 0 0-1.672 1.825l-.345.457-.087.121.147.203c.554.75 1.209 1.502 1.957 2.2C6.987 16.353 9.364 17.5 12 17.5s5.013-1.147 7.102-3.097a16.035 16.035 0 0 0 1.672-1.825l.345-.457.086-.121-.146-.203a16.102 16.102 0 0 0-1.957-2.2C17.013 7.647 14.636 6.5 12 6.5zm0 2c1.937 0 3.5 1.583 3.5 3.526 0 1.943-1.563 3.527-3.5 3.527s-3.5-1.584-3.5-3.527S10.063 8.5 12 8.5zm0 1.5c-1.105 0-2 .907-2 2.026 0 1.12.895 2.027 2 2.027s2-.908 2-2.027C14 10.907 13.105 10 12 10z" fill="#6B7384" fill-rule="nonzero"/></g></svg>