<svg width="24" height="24" xmlns="http://www.w3.org/2000/svg"><g fill="none" fill-rule="evenodd"><path d="M0 0h24v24H0z"/><path d="m6.57 6.493 1.153 1.075c-.992.513-1.935 1.198-2.825 2.029a16.035 16.035 0 0 0-1.672 1.825l-.345.457-.087.121.147.203c.554.75 1.209 1.502 1.957 2.2C6.987 16.353 9.364 17.5 12 17.5c1.738 0 3.363-.499 4.867-1.397l1.135 1.057C16.365 18.21 14.352 19 12 19c-4.175 0-7.283-2.49-9.112-4.5l-.31-.35-.282-.335-.255-.318-.228-.298-.29-.399-.16-.23-.271-.418L1 12l.132-.216.232-.355.159-.23.29-.398.228-.298.255-.318.283-.335.31-.35C3.803 8.495 5.04 7.368 6.57 6.494zM12 5c4.175 0 7.283 2.49 9.112 4.5l.31.35.282.335.255.318.228.298.29.399.16.23.271.418L23 12l-.132.216-.232.355-.159.23-.29.398-.228.298-.255.318-.283.335-.31.35a16.629 16.629 0 0 1-1.869 1.766l-1.109-1.033a14.5 14.5 0 0 0 .969-.83 16.035 16.035 0 0 0 1.672-1.825l.345-.457.086-.121-.146-.203a16.102 16.102 0 0 0-1.957-2.2C17.013 7.647 14.636 6.5 12 6.5a8.97 8.97 0 0 0-2.758.434L8.016 5.79A10.532 10.532 0 0 1 12 5zM9.676 9.39l1.103 1.031c-.474.37-.779.952-.779 1.605 0 1.12.895 2.027 2 2.027.704 0 1.323-.369 1.68-.926l1.107 1.033A3.484 3.484 0 0 1 12 15.553c-1.937 0-3.5-1.584-3.5-3.527 0-1.047.454-1.99 1.176-2.636zM12 8.5c1.937 0 3.5 1.583 3.5 3.526 0 .235-.023.464-.066.686l-1.6-1.493a2.016 2.016 0 0 0-1.19-1.112L11.058 8.63c.3-.084.615-.129.942-.129z" fill="currentcolor" fill-rule="nonzero"/><path stroke="currentcolor" stroke-width="1.5" d="M19 19 4 5"/></g></svg>