<?xml version="1.0" encoding="utf-8"?>
<!-- Generator: Adobe Illustrator 22.1.0, SVG Export Plug-In . SVG Version: 6.00 Build 0)  -->
<svg version="1.1" id="Layer_1" xmlns="http://www.w3.org/2000/svg" xmlns:xlink="http://www.w3.org/1999/xlink" x="0px" y="0px"
	 viewBox="0 0 1440 1024" style="enable-background:new 0 0 1440 1024;" xml:space="preserve">
<style type="text/css">
	.st0{opacity:0.15;}
	.st1{fill:none;stroke:#1D45BA;stroke-width:0.5;stroke-miterlimit:10;}
	.st2{fill:#1D45BA;}
	.st3{fill:url(#SVGID_1_);}
	.st4{fill:#52FCFF;}
	.st5{fill:url(#SVGID_2_);}
	.st6{fill:url(#SVGID_3_);}
	.st7{fill:#17D1AA;}
	.st8{opacity:0.41;fill:#003EC9;enable-background:new    ;}
	.st9{fill:url(#SVGID_4_);}
	.st10{fill:url(#SVGID_5_);}
	.st11{fill:#1D45BA;stroke:#00FCFF;stroke-miterlimit:10;}
	.st12{fill:url(#SVGID_6_);}
	.st13{opacity:0.4;fill:#17D1AA;enable-background:new    ;}
	.st14{clip-path:url(#SVGID_8_);}
	.st15{fill:url(#SVGID_9_);}
	.st16{fill:#163FA5;}
	.st17{opacity:0.7;fill:#52FCFF;enable-background:new    ;}
	.st18{clip-path:url(#SVGID_11_);}
	.st19{fill:url(#SVGID_12_);}
	.st20{fill:#18CFAC;}
	.st21{fill:#19CDAD;}
	.st22{fill:#1ACAAF;}
	.st23{fill:#1BC8B1;}
	.st24{fill:#1CC6B2;}
	.st25{fill:#1DC4B4;}
	.st26{fill:#1EC1B6;}
	.st27{fill:#1FBFB7;}
	.st28{fill:#1FBDB9;}
	.st29{fill:#20BBBB;}
	.st30{fill:#21B8BC;}
	.st31{fill:#22B6BE;}
	.st32{fill:#23B4C0;}
	.st33{fill:#24B2C1;}
	.st34{fill:#25AFC3;}
	.st35{fill:#26ADC5;}
	.st36{fill:#27ABC6;}
	.st37{fill:#28A9C8;}
	.st38{fill:#29A7CA;}
	.st39{fill:#2AA4CB;}
	.st40{fill:#2BA2CD;}
	.st41{fill:#2CA0CF;}
	.st42{fill:#2D9ED0;}
	.st43{fill:#2E9BD2;}
	.st44{fill:#2F99D4;}
	.st45{fill:#2F97D5;}
	.st46{fill:#3095D7;}
	.st47{fill:#3192D9;}
	.st48{fill:#3290DA;}
	.st49{fill:#338EDC;}
	.st50{fill:#348CDE;}
	.st51{fill:#3589DF;}
	.st52{fill:#3687E1;}
	.st53{fill:#3785E3;}
	.st54{fill:#3883E4;}
	.st55{fill:#3981E6;}
	.st56{fill:#3A7EE8;}
	.st57{fill:#3B7CE9;}
	.st58{fill:#3C7AEB;}
	.st59{fill:#3D78ED;}
	.st60{fill:#3E75EE;}
	.st61{fill:#3F73F0;}
	.st62{fill:#3F71F2;}
	.st63{fill:#406FF3;}
	.st64{fill:#416CF5;}
	.st65{fill:#426AF7;}
	.st66{fill:#4368F8;}
	.st67{fill:#4466FA;}
	.st68{fill:#4563FC;}
	.st69{fill:#4661FD;}
	.st70{fill:#475FFF;}
	.st71{fill:url(#SVGID_13_);}
	.st72{fill:url(#SVGID_14_);}
	.st73{fill:url(#SVGID_15_);}
	.st74{fill:url(#SVGID_16_);}
	.st75{fill:url(#SVGID_17_);}
	.st76{opacity:0.5;fill:url(#SVGID_18_);enable-background:new    ;}
	.st77{fill:url(#SVGID_19_);}
	.st78{fill:url(#SVGID_20_);}
	.st79{fill:url(#SVGID_21_);}
	.st80{fill:url(#SVGID_22_);}
	.st81{fill:url(#SVGID_23_);}
	.st82{opacity:0.37;fill:url(#SVGID_24_);enable-background:new    ;}
	.st83{opacity:0.37;fill:url(#SVGID_25_);enable-background:new    ;}
	.st84{opacity:0.37;fill:url(#SVGID_26_);enable-background:new    ;}
	.st85{opacity:0.37;fill:#52FCFF;enable-background:new    ;}
	.st86{opacity:0.4;fill:url(#SVGID_27_);enable-background:new    ;}
	.st87{opacity:0.2;fill:url(#SVGID_28_);enable-background:new    ;}
	.st88{fill:url(#SVGID_29_);}
	.st89{fill:url(#SVGID_30_);}
	.st90{fill:url(#SVGID_31_);}
	.st91{opacity:0.37;fill:url(#SVGID_32_);enable-background:new    ;}
	.st92{opacity:0.37;fill:url(#SVGID_33_);enable-background:new    ;}
	.st93{opacity:0.37;fill:url(#SVGID_34_);enable-background:new    ;}
	.st94{opacity:0.4;fill:url(#SVGID_35_);enable-background:new    ;}
	.st95{opacity:0.2;fill:url(#SVGID_36_);enable-background:new    ;}
	.st96{clip-path:url(#SVGID_38_);}
	.st97{fill:url(#SVGID_39_);}
	.st98{opacity:0.76;fill:#52FCFF;enable-background:new    ;}
	.st99{fill:none;}
	.st100{fill:url(#SVGID_40_);}
	.st101{fill:url(#SVGID_41_);}
	.st102{fill:url(#SVGID_42_);}
	.st103{fill:url(#SVGID_43_);}
	.st104{fill:#C6C6C6;}
	.st105{fill:#828282;}
	.st106{fill:#868686;}
	.st107{fill:#8F8F8F;}
	.st108{fill:#3154CB;}
	.st109{fill:url(#SVGID_44_);}
	.st110{fill:url(#SVGID_45_);}
	.st111{fill:url(#SVGID_46_);}
	.st112{fill:url(#SVGID_47_);}
	.st113{fill:url(#SVGID_48_);}
</style>
<title>add wallet</title>
<g>
	<g id="add_wallet">
		<g class="st0">
			<line class="st1" x1="638.9" y1="871.8" x2="1339.4" y2="469.1"/>
			<line class="st1" x1="458.5" y1="767.6" x2="1339.4" y2="261.3"/>
			<line class="st1" x1="911" y1="923.8" x2="1339.4" y2="676.6"/>
			<line class="st1" x1="903.8" y1="338.8" x2="1337.5" y2="587.8"/>
			<line class="st1" x1="668.7" y1="473.9" x2="1339.4" y2="858.9"/>
			<line class="st1" x1="440.4" y1="605.2" x2="995.1" y2="923.6"/>
		</g>
		<path class="st2" d="M1099.3,887.4c0,0-29.9,36.8-77.2,45.2c0,0,18.2-20.9,27.8-27.2S1091,882.5,1099.3,887.4z"/>
		
			<linearGradient id="SVGID_1_" gradientUnits="userSpaceOnUse" x1="981.5851" y1="126.4675" x2="1106.11" y2="126.4675" gradientTransform="matrix(1 0 0 -1 0 1023.2756)">
			<stop  offset="0" style="stop-color:#17D1AA"/>
			<stop  offset="0.23" style="stop-color:#1CB9B0"/>
			<stop  offset="0.7" style="stop-color:#297DC0"/>
			<stop  offset="1" style="stop-color:#3154CB"/>
		</linearGradient>
		<path class="st3" d="M1106.1,882.8c-1.2,3.4-4.8,5.3-8.3,4.4c-6.3-1.4-37.7,13.3-57.2,31s-24.2,17.9-32.3,15.7s-30.8-14.6-26-21.6
			s21.3-43,82.1-53.6L1106.1,882.8z"/>
		<path class="st4" d="M1071.2,872.2l-11.3,5.4c-2,0.7-4.1,0.6-6-0.2l0,0c-1.8-0.8-2.1-2.1-0.6-2.8l11.3-5.5c2-0.7,4.1-0.6,6,0.2
			l0,0C1072.4,870.2,1072.7,871.5,1071.2,872.2z"/>
		
			<linearGradient id="SVGID_2_" gradientUnits="userSpaceOnUse" x1="1252.6787" y1="302.2672" x2="1282.1086" y2="143.7372" gradientTransform="matrix(1 0 0 -1 0 1023.2756)">
			<stop  offset="0" style="stop-color:#17D1AA"/>
			<stop  offset="0.18" style="stop-color:#1BC0AF"/>
			<stop  offset="0.55" style="stop-color:#2493BA"/>
			<stop  offset="1" style="stop-color:#3154CB"/>
		</linearGradient>
		<path class="st5" d="M1295.2,766.6l-1.1-4.7l-2.7-8.2l4.3-8.2l-6.8-4.3l0,0c-4.1-3.2-10.1-3.1-16.8,1.2
			c-12.2,7.7-22.2,26.2-22.2,41.1v14.3c-5,4.5-8.7,12.2-8.7,18.7v48.2c0,3.9,1.3,6.5,3.5,7.7l8.5,5l1,0.6l16.2-9.5l-4.7-10.7
			l-4.3,4.6l23.3-14.7c6.1-9.5,11.1-18.7,11.1-26.2v-48.2c0.1-1.8-0.3-3.6-1.2-5.2L1295.2,766.6z M1267.2,818.1v15.1
			c-0.1,1.8-1,3.5-2.4,4.5c-1.3,0.8-2.4,0.2-2.4-1.4v-15.1c-3.7,1.1-6.5-1.4-6.5-6.3c0-6,4-13.4,8.9-16.5s8.9-0.8,8.9,5.2
			C1273.7,808.5,1271,814.4,1267.2,818.1z"/>
		<path class="st4" d="M1297.1,803.6c0,0,3.6-12.6-15.5,0l-19,12.6l2.2,25l20.9,16.5l18.1-14.4"/>
		
			<linearGradient id="SVGID_3_" gradientUnits="userSpaceOnUse" x1="1352.5813" y1="153.7573" x2="1217.8513" y2="254.2773" gradientTransform="matrix(1 0 0 -1 0 1023.2756)">
			<stop  offset="0" style="stop-color:#17DCAA"/>
			<stop  offset="0.11" style="stop-color:#1CC2B0"/>
			<stop  offset="0.3" style="stop-color:#239BBA"/>
			<stop  offset="0.49" style="stop-color:#297CC1"/>
			<stop  offset="0.67" style="stop-color:#2E66C7"/>
			<stop  offset="0.84" style="stop-color:#3059CA"/>
			<stop  offset="1" style="stop-color:#3154CB"/>
		</linearGradient>
		<path class="st6" d="M1303.9,775.6v-14.3c0-14.9-10-20.8-22.2-13.1s-22.2,26.2-22.2,41.1v14.3c-5,4.5-8.7,12.2-8.7,18.7v48.2
			c0,7.5,5,10.4,11.1,6.5l39.6-25c6.1-3.9,11.1-13.1,11.1-20.6v-48.2C1312.6,776.8,1308.8,773.8,1303.9,775.6z M1284.1,828.1v15.1
			c-0.1,1.8-1,3.5-2.4,4.5c-1.3,0.8-2.4,0.2-2.4-1.4v-15.1c-3.7,1-6.5-1.4-6.5-6.3c0-6,4-13.4,8.9-16.5s8.9-0.8,8.9,5.3
			C1290.6,818.6,1287.8,824.5,1284.1,828.1z M1291.4,783.1l-19.5,12.3v-14c0-6.6,4.4-14.7,9.8-18.1s9.8-0.8,9.8,5.7V783.1z"/>
		<polygon class="st7" points="1291.4,784 1291.4,783.1 1271.9,795.4 1271.9,796.3 		"/>
		<path class="st8" d="M1284.1,829c3.7-3.7,6.5-9.6,6.5-14.5c0-0.2,0-0.4,0-0.6c-0.4,5.4-2.7,10.4-6.5,14.2L1284.1,829z"/>
		<path class="st7" d="M1303.9,775.6v0.9c5-1.8,8.7,1.3,8.7,7.7v-0.9C1312.6,776.8,1308.8,773.8,1303.9,775.6z"/>
		<path class="st7" d="M1259.5,803.6c-5,4.5-8.7,12.2-8.7,18.7v0.9c0-6.5,3.7-14.2,8.7-18.7V803.6z"/>
		<path class="st8" d="M1281.7,848.7c1.5-1.1,2.4-2.7,2.4-4.5v-0.9c-0.1,1.8-1,3.5-2.4,4.5c-1.3,0.8-2.4,0.2-2.4-1.4v0.9
			C1279.2,848.9,1280.3,849.5,1281.7,848.7z"/>
		<path class="st8" d="M1279.2,832.1v-0.9c-3.6,1-6.3-1.2-6.4-5.9c0,0.2,0,0.3,0,0.4C1272.7,830.8,1275.5,833.2,1279.2,832.1z"/>
		
			<linearGradient id="SVGID_4_" gradientUnits="userSpaceOnUse" x1="633.7452" y1="555.7421" x2="679.6353" y2="498.8421" gradientTransform="matrix(1 0 0 -1 0 1023.2756)">
			<stop  offset="0" style="stop-color:#17D1AA"/>
			<stop  offset="0.12" style="stop-color:#18B3AD"/>
			<stop  offset="0.31" style="stop-color:#1A8CB2"/>
			<stop  offset="0.49" style="stop-color:#1B6DB5"/>
			<stop  offset="0.67" style="stop-color:#1C57B8"/>
			<stop  offset="0.84" style="stop-color:#1D4AB9"/>
			<stop  offset="1" style="stop-color:#1D45BA"/>
		</linearGradient>
		<path class="st9" d="M641.2,470.8c-0.7,1.5-1.1,3.1-1,4.7v43.7c0,6.8,4.5,15.1,10.1,23.7l21.1,13.3l-3.9-4.2l-4.3,9.7l14.7,8.6
			l0.9-0.6l7.7-4.6c2-1,3.2-3.4,3.2-6.9v-43.7c0-5.9-3.4-12.9-7.9-17v-13c0-13.5-9-30.2-20.1-37.3c-6.1-3.9-11.6-4-15.3-1l0,0
			l-6.2,3.9l3.9,7.5l-2.5,7.4l-1,4.3L641.2,470.8z M660.1,502.9c0-5.5,3.6-7.6,8.1-4.8s8.1,9.5,8.1,15c0,4.5-2.5,6.7-5.9,5.7v13.7
			c0,1.5-1,2.1-2.2,1.3c-1.3-1-2.1-2.5-2.2-4.1v-13.7C662.6,512.8,660.1,507.4,660.1,502.9z"/>
		
			<linearGradient id="SVGID_5_" gradientUnits="userSpaceOnUse" x1="641.0009" y1="556.4305" x2="659.121" y2="533.9606" gradientTransform="matrix(1 0 0 -1 0 1023.2756)">
			<stop  offset="0" style="stop-color:#17D1AA"/>
			<stop  offset="0.12" style="stop-color:#18B3AD"/>
			<stop  offset="0.31" style="stop-color:#1A8CB2"/>
			<stop  offset="0.49" style="stop-color:#1B6DB5"/>
			<stop  offset="0.67" style="stop-color:#1C57B8"/>
			<stop  offset="0.84" style="stop-color:#1D4AB9"/>
			<stop  offset="1" style="stop-color:#1D45BA"/>
		</linearGradient>
		<path class="st10" d="M637,486.5c2.1,1.1,28,16.5,28,16.5s12.7-22.5-2.3-32.8s-19.5-15.4-21-5.1C640.5,472.4,639,479.5,637,486.5z
			"/>
		<path class="st11" d="M638.9,503c0,0-3.2-11.4,14,0l17.2,11.4l-2,22.7l-19,14.9l-16.3-13"/>
		
			<linearGradient id="SVGID_6_" gradientUnits="userSpaceOnUse" x1="624.92" y1="512.8635" x2="680.93" y2="512.8635" gradientTransform="matrix(1 0 0 -1 0 1023.2756)">
			<stop  offset="0" style="stop-color:#17D1AA"/>
			<stop  offset="0.3" style="stop-color:#1CB9B0"/>
			<stop  offset="0.94" style="stop-color:#297DC0"/>
			<stop  offset="1" style="stop-color:#2A77C2"/>
		</linearGradient>
		<path class="st12" d="M624.9,484.6v43.7c0,6.8,4.5,15.1,10.1,18.7l35.9,22.7c5.6,3.5,10.1,0.9,10.1-5.9V520c0-5.9-3.4-12.9-7.9-17
			v-13c0-13.5-9-30.3-20.1-37.3s-20.1-1.7-20.1,11.8v13C628.3,476,624.9,478.7,624.9,484.6z M644.8,512c0-5.5,3.6-7.6,8.1-4.8
			s8.1,9.5,8.1,15c0,4.5-2.5,6.7-5.9,5.7v13.7c0,1.5-1,2.1-2.2,1.3c-1.3-1-2.1-2.5-2.2-4.1v-13.7C647.3,521.9,644.8,516.6,644.8,512
			L644.8,512z M644.1,471.7c0-5.9,4-8.3,8.8-5.2s8.8,10.4,8.8,16.4v12.7l-17.7-11.2L644.1,471.7z"/>
		<polygon class="st13" points="644.1,485.2 644.1,484.4 661.8,495.6 661.8,496.4 		"/>
		<path class="st8" d="M650.7,526c-3.4-3.3-5.9-8.7-5.9-13.2c0-0.2,0-0.3,0-0.5c0.3,4.9,2.4,9.4,5.9,12.8L650.7,526z"/>
		<path class="st13" d="M632.8,477.6v0.8c-4.5-1.6-7.9,1.1-7.9,7v-0.8C624.9,478.7,628.3,476,632.8,477.6z"/>
		<path class="st8" d="M652.9,543.8c-1.3-1-2.1-2.5-2.2-4.1v-0.8c0.1,1.6,0.9,3.2,2.2,4.1c1.2,0.8,2.2,0.2,2.2-1.3v0.8
			C655.2,544,654.2,544.6,652.9,543.8z"/>
		<path class="st8" d="M655.2,528.8V528c3.3,0.9,5.7-1.1,5.8-5.3c0,0.1,0,0.3,0,0.4C661,527.6,658.5,529.8,655.2,528.8z"/>
		<g>
			<defs>
				
					<ellipse id="SVGID_7_" transform="matrix(0.8841 -0.4673 0.4673 0.8841 8.9618 458.6365)" cx="929" cy="211.3" rx="18.3" ry="29.4"/>
			</defs>
			<clipPath id="SVGID_8_">
				<use xlink:href="#SVGID_7_"  style="overflow:visible;"/>
			</clipPath>
			<g class="st14">
				<path class="st7" d="M906.5,168.6c0.9,0.7,57.9,51.6,57.9,51.6"/>
				<path class="st7" d="M904.2,171c0.9,0.7,57.9,51.6,57.9,51.6"/>
				<path class="st7" d="M902,173.5c0.9,0.7,57.9,51.6,57.9,51.6"/>
				<path class="st7" d="M899.8,176c0.9,0.7,57.9,51.6,57.9,51.6"/>
				<path class="st7" d="M897.5,178.4c0.9,0.7,57.9,51.6,57.9,51.6"/>
				<path class="st7" d="M895.3,180.9c0.9,0.7,57.9,51.6,57.9,51.6"/>
				<path class="st7" d="M893.1,183.4C894,184.1,951,235,951,235"/>
				<path class="st7" d="M890.8,185.9c0.9,0.7,57.9,51.6,57.9,51.6"/>
				<path class="st7" d="M888.6,188.3c0.9,0.7,57.9,51.6,57.9,51.6"/>
				<path class="st7" d="M886.4,190.8c0.9,0.7,57.9,51.6,57.9,51.6"/>
				<path class="st7" d="M884.1,193.3c0.9,0.7,57.9,51.6,57.9,51.6"/>
			</g>
		</g>
		
			<linearGradient id="SVGID_9_" gradientUnits="userSpaceOnUse" x1="1316.8899" y1="832.2656" x2="1316.8899" y2="904.8056" gradientTransform="matrix(-1 0.11 0 -1 2251.46 937.0856)">
			<stop  offset="0" style="stop-color:#1D45BA"/>
			<stop  offset="0.42" style="stop-color:#1D47BA"/>
			<stop  offset="0.57" style="stop-color:#1D4EB9"/>
			<stop  offset="0.68" style="stop-color:#1C59B8"/>
			<stop  offset="0.77" style="stop-color:#1B6AB6"/>
			<stop  offset="0.84" style="stop-color:#1A80B3"/>
			<stop  offset="0.91" style="stop-color:#199CB0"/>
			<stop  offset="0.97" style="stop-color:#18BBAD"/>
			<stop  offset="1" style="stop-color:#17D1AA"/>
		</linearGradient>
		<path class="st15" d="M910.2,195.6c0,16.1,10.9,34.4,24.4,40.9c3.6,1.9,7.8,2.7,11.9,2.1l-0.2,1.6l4.8-3.4
			c0.4-0.3,0.9-0.6,1.3-0.9l0.1-0.1l0,0c4-3.2,6.5-9,6.5-16.6c0-16.1-10.9-34.4-24.3-40.9c-6.5-3.1-12.3-3-16.7-0.2l0,0l-0.2,0.1
			l-0.6,0.4l-4.9,3.4l2.1-0.6C911.7,184.8,910.2,189.6,910.2,195.6z M921.2,200.9c0-8.8,6-13,13.3-9.4s13.3,13.6,13.3,22.4
			s-6,13-13.3,9.4S921.2,209.7,921.2,200.9L921.2,200.9z"/>
		<path class="st7" d="M904.7,199.4c0,16.1,10.9,34.4,24.3,40.9s24.3-1.2,24.3-17.3s-10.9-34.4-24.3-40.9S904.7,183.4,904.7,199.4z
			 M915.7,204.8c0-8.8,6-13,13.3-9.5s13.3,13.6,13.3,22.4s-6,13-13.3,9.4S915.7,213.6,915.7,204.8L915.7,204.8z"/>
		<path class="st16" d="M929,182.4c-13.5-6.5-24.3,1.2-24.3,17.3s10.9,34.4,24.3,40.9s24.3-1.2,24.3-17.3S942.5,188.9,929,182.4z
			 M929,227.4c-7.4-3.6-13.3-13.6-13.3-22.4s6-13,13.3-9.4s13.3,13.6,13.3,22.4S936.4,231,929,227.4z"/>
		
			<ellipse transform="matrix(0.8841 -0.4673 0.4673 0.8841 8.9618 458.6365)" class="st17" cx="929" cy="211.3" rx="18.3" ry="29.4"/>
		<path class="st2" d="M937.8,231.8l-4.6-15.7l-11.7-7.2c-1.3,3.3-3,7.3-4.4,10.6c-0.1,0.2-0.4,0.2-0.7,0.1s-0.5-0.4-0.5-0.9v-0.1
			l10.3-24.9c0.3-0.6,1-1,1.6-0.7c0,0,0.1,0,0.1,0.1c0.8,0.6,1.3,1.4,1.4,2.4l9.9,35.5c0.2,0.6,0.5,1.6-0.1,1.8
			C938.5,232.9,937.9,232.5,937.8,231.8C937.8,231.9,937.8,231.8,937.8,231.8z M928,197c-0.5-1.6-0.9-2.1-1.3-1l-4.7,11.8l10.7,6.5
			L928,197z"/>
		<path class="st2" d="M938.9,219.8L916.3,206c-0.3-0.2-0.4-0.5-0.4-0.8v-0.7c0-0.3,0.2-0.4,0.4-0.3l22.6,13.8
			c0.3,0.2,0.4,0.5,0.4,0.8v0.7C939.3,219.8,939.2,219.9,938.9,219.8z"/>
		<path class="st2" d="M936.9,212.5l-18.5-11.3c-0.3-0.2-0.4-0.5-0.4-0.8v-0.7c0-0.3,0.2-0.4,0.4-0.3l18.5,11.3
			c0.3,0.2,0.4,0.5,0.4,0.8v0.7C937.3,212.5,937.1,212.6,936.9,212.5z"/>
		<g>
			<defs>
				
					<ellipse id="SVGID_10_" transform="matrix(0.8841 -0.4673 0.4673 0.8841 40.7208 555.4457)" cx="1140.1" cy="195.6" rx="23.7" ry="38"/>
			</defs>
			<clipPath id="SVGID_11_">
				<use xlink:href="#SVGID_10_"  style="overflow:visible;"/>
			</clipPath>
			<g class="st18">
				<path class="st7" d="M1110.9,140.4c1.2,0.9,74.8,66.8,74.8,66.8"/>
				<path class="st7" d="M1108,143.6c1.2,0.9,74.8,66.8,74.8,66.8"/>
				<path class="st7" d="M1105.1,146.8c1.1,0.9,74.8,66.8,74.8,66.8"/>
				<path class="st7" d="M1102.2,150c1.2,0.9,74.8,66.8,74.8,66.8"/>
				<path class="st7" d="M1099.3,153.2c1.1,0.9,74.8,66.8,74.8,66.8"/>
				<path class="st7" d="M1096.5,156.4c1.1,0.9,74.8,66.8,74.8,66.8"/>
				<path class="st7" d="M1093.6,159.6c1.2,0.9,74.8,66.8,74.8,66.8"/>
				<path class="st7" d="M1090.7,162.8c1.1,0.9,74.8,66.8,74.8,66.8"/>
				<path class="st7" d="M1087.8,166c1.1,0.9,74.8,66.8,74.8,66.8"/>
				<path class="st7" d="M1084.9,169.2c1.2,0.9,74.8,66.8,74.8,66.8"/>
				<path class="st7" d="M1082,172.4c1.1,0.9,74.8,66.8,74.8,66.8"/>
			</g>
		</g>
		
			<linearGradient id="SVGID_12_" gradientUnits="userSpaceOnUse" x1="1104.23" y1="814.1056" x2="1104.23" y2="907.8956" gradientTransform="matrix(-1 0.11 0 -1 2251.46 937.0856)">
			<stop  offset="0" style="stop-color:#1D45BA"/>
			<stop  offset="0.42" style="stop-color:#1D47BA"/>
			<stop  offset="0.57" style="stop-color:#1D4EB9"/>
			<stop  offset="0.68" style="stop-color:#1C59B8"/>
			<stop  offset="0.77" style="stop-color:#1B6AB6"/>
			<stop  offset="0.84" style="stop-color:#1A80B3"/>
			<stop  offset="0.91" style="stop-color:#199CB0"/>
			<stop  offset="0.97" style="stop-color:#18BBAD"/>
			<stop  offset="1" style="stop-color:#17D1AA"/>
		</linearGradient>
		<path class="st19" d="M1115.7,175.4c0,20.8,14.1,44.4,31.5,52.9c5.6,2.7,10.8,3.5,15.4,2.7l-0.3,2.1l6.2-4.4
			c0.6-0.4,1.2-0.8,1.7-1.2l0.1-0.1l0,0c5.2-4.2,8.4-11.6,8.4-21.5c0-20.8-14.1-44.4-31.5-52.9c-8.3-4.1-15.9-3.8-21.6-0.2l0,0
			l-0.2,0.2c-0.2,0.2-0.5,0.3-0.7,0.5l-6.3,4.4l2.7-0.8C1117.7,161.4,1115.7,167.7,1115.7,175.4z M1130,182.3
			c0-11.4,7.7-16.8,17.2-12.2s17.2,17.6,17.2,29s-7.7,16.8-17.2,12.2S1130,193.7,1130,182.3L1130,182.3z"/>
		<path class="st7" d="M1108.6,180.4c0,20.8,14.1,44.4,31.5,52.9s31.5-1.6,31.5-22.3s-14.1-44.4-31.5-52.9
			S1108.6,159.6,1108.6,180.4z M1122.8,187.3c0-11.4,7.7-16.9,17.2-12.2s17.2,17.6,17.2,28.9s-7.7,16.9-17.2,12.2
			S1122.8,198.6,1122.8,187.3z"/>
		<path class="st16" d="M1140.1,158.4c-17.4-8.4-31.5,1.6-31.5,22.3s14.1,44.4,31.5,52.9s31.5-1.6,31.5-22.3
			S1157.5,166.8,1140.1,158.4z M1140.1,216.6c-9.5-4.6-17.2-17.6-17.2-29s7.7-16.8,17.2-12.2s17.2,17.6,17.2,29
			S1149.6,221.2,1140.1,216.6L1140.1,216.6z"/>
		
			<ellipse transform="matrix(0.8841 -0.4673 0.4673 0.8841 40.7208 555.4457)" class="st17" cx="1140.1" cy="195.6" rx="23.7" ry="38"/>
		<path class="st2" d="M1151.3,222.2l-5.9-20.3l-15.2-9.3c-1.7,4.2-3.9,9.4-5.7,13.7c-0.2,0.3-0.5,0.3-0.9,0.1
			c-0.6-0.4-0.7-0.6-0.7-1.1v-0.2l13.3-32.2c0.3-0.8,1.3-1.2,2.2-0.9c0.1,0,0.1,0,0.2,0.1c1,0.7,1.6,1.8,1.8,3l12.8,45.9
			c0.3,0.8,0.7,2.1-0.1,2.3C1152,223.7,1151.5,222.9,1151.3,222.2z M1138.8,177.2c-0.6-2.1-1.1-2.7-1.6-1.3l-6.1,15.3l13.8,8.4
			L1138.8,177.2z"/>
		<path class="st2" d="M1152.8,206.7l-29.2-17.9c-0.3-0.2-0.5-0.6-0.5-1v-0.9c0-0.4,0.2-0.5,0.5-0.4l29.2,17.9
			c0.3,0.2,0.5,0.6,0.5,1v0.9C1153.4,206.7,1153.1,206.9,1152.8,206.7z"/>
		<path class="st2" d="M1150.2,197.2l-23.9-14.6c-0.3-0.2-0.5-0.6-0.5-1v-0.9c0-0.4,0.2-0.5,0.5-0.4l23.9,14.6
			c0.3,0.2,0.5,0.6,0.5,1v0.9C1150.7,197.2,1150.5,197.4,1150.2,197.2z"/>
		<path class="st7" d="M892.4,869.5L613,709.9c-7.6-4.3-5.1-13,5.6-19.3l73.9-43.8c10.6-6.3,25.5-7.9,33.1-3.6L1005,802.8
			c7.6,4.3,5.1,13-5.6,19.3l-73.9,43.8C914.9,872.2,900,873.8,892.4,869.5z"/>
		<path class="st20" d="M892.4,869.3L613,709.7c-7.6-4.3-5.1-13,5.6-19.3l73.9-43.8c10.6-6.3,25.5-7.9,33.1-3.6L1005,802.5
			c7.6,4.3,5.1,13-5.6,19.3l-73.9,43.8C914.9,872,900,873.6,892.4,869.3z"/>
		<path class="st21" d="M892.4,869L613,709.5c-7.6-4.3-5.1-13,5.6-19.3l73.9-43.8c10.6-6.3,25.5-7.9,33.1-3.6L1005,802.3
			c7.6,4.3,5.1,13-5.6,19.3l-73.9,43.8C914.9,871.8,900,873.4,892.4,869z"/>
		<path class="st22" d="M892.4,868.8L613,709.2c-7.6-4.3-5.1-13,5.6-19.3l73.9-43.8c10.6-6.3,25.5-7.9,33.1-3.6L1005,802.1
			c7.6,4.3,5.1,13-5.6,19.3l-73.9,43.8C914.9,871.6,900,873.2,892.4,868.8z"/>
		<path class="st23" d="M892.4,868.7L613,709c-7.6-4.3-5.1-13,5.6-19.3l73.9-43.8c10.6-6.3,25.5-7.9,33.1-3.6L1005,801.9
			c7.6,4.3,5.1,13-5.6,19.3l-73.9,43.8C914.9,871.4,900,873,892.4,868.7z"/>
		<path class="st24" d="M892.4,868.5L613,708.8c-7.6-4.3-5.1-13,5.6-19.3l73.9-43.8c10.6-6.3,25.5-7.9,33.1-3.6L1005,801.7
			c7.6,4.3,5.1,13-5.6,19.3l-73.9,43.8C914.9,871.2,900,872.8,892.4,868.5z"/>
		<path class="st25" d="M892.4,868.2L613,708.7c-7.6-4.3-5.1-13,5.6-19.3l73.9-43.8c10.6-6.3,25.5-7.9,33.1-3.6L1005,801.5
			c7.6,4.3,5.1,13-5.6,19.3l-73.9,43.8C914.9,871,900,872.6,892.4,868.2z"/>
		<path class="st26" d="M892.4,868L613,708.4c-7.6-4.3-5.1-13,5.6-19.3l73.9-43.8c10.6-6.3,25.5-7.9,33.1-3.6L1005,801.3
			c7.6,4.3,5.1,13-5.6,19.3l-73.9,43.8C914.9,870.8,900,872.4,892.4,868z"/>
		<path class="st27" d="M892.4,867.8L613,708.2c-7.6-4.3-5.1-13,5.6-19.3l73.9-43.8c10.6-6.3,25.5-7.9,33.1-3.6L1005,801.1
			c7.6,4.3,5.1,13-5.6,19.3l-73.9,43.8C914.9,870.5,900,872.2,892.4,867.8z"/>
		<path class="st28" d="M892.4,867.6L613,708c-7.6-4.3-5.1-13,5.6-19.3l73.9-43.8c10.6-6.3,25.5-7.9,33.1-3.6L1005,800.9
			c7.6,4.3,5.1,13-5.6,19.3L925.5,864C914.9,870.3,900,872,892.4,867.6z"/>
		<path class="st29" d="M892.4,867.4L613,707.8c-7.6-4.3-5.1-13,5.6-19.3l73.9-43.8c10.6-6.3,25.5-7.9,33.1-3.6L1005,800.7
			c7.6,4.3,5.1,13-5.6,19.3l-73.9,43.8C914.9,870.2,900,871.8,892.4,867.4z"/>
		<path class="st30" d="M892.4,867.2L613,707.6c-7.6-4.3-5.1-13,5.6-19.3l73.9-43.8c10.6-6.3,25.5-7.9,33.1-3.6L1005,800.5
			c7.6,4.3,5.1,13-5.6,19.3l-73.9,43.8C914.9,870,900,871.6,892.4,867.2z"/>
		<path class="st31" d="M892.4,867L613,707.4c-7.6-4.3-5.1-13,5.6-19.3l73.9-43.8c10.6-6.3,25.5-7.9,33.1-3.6L1005,800.3
			c7.6,4.3,5.1,13-5.6,19.3l-73.9,43.8C914.9,869.8,900,871.4,892.4,867z"/>
		<path class="st32" d="M892.4,866.8L613,707.2c-7.6-4.3-5.1-13,5.6-19.3l73.9-43.8c10.6-6.3,25.5-7.9,33.1-3.6L1005,800.1
			c7.6,4.3,5.1,13-5.6,19.3l-73.9,43.8C914.9,869.5,900,871.2,892.4,866.8z"/>
		<path class="st33" d="M892.4,866.6L613,707c-7.6-4.3-5.1-13,5.6-19.3l73.9-43.8c10.6-6.3,25.5-7.9,33.1-3.6L1005,799.9
			c7.6,4.3,5.1,13-5.6,19.3L925.5,863C914.9,869.3,900,871,892.4,866.6z"/>
		<path class="st34" d="M892.4,866.4L613,706.8c-7.6-4.3-5.1-13,5.6-19.3l73.9-43.8c10.6-6.3,25.5-7.9,33.1-3.6L1005,799.7
			c7.6,4.3,5.1,13-5.6,19.3l-73.9,43.8C914.9,869.1,900,870.8,892.4,866.4z"/>
		<path class="st35" d="M892.4,866.2L613,706.6c-7.6-4.3-5.1-13,5.6-19.3l73.9-43.8c10.6-6.3,25.5-7.9,33.1-3.6L1005,799.5
			c7.6,4.3,5.1,13-5.6,19.3l-73.9,43.8C914.9,868.9,900,870.5,892.4,866.2z"/>
		<path class="st36" d="M892.4,866L613,706.4c-7.6-4.3-5.1-13,5.6-19.3l73.9-43.8c10.6-6.3,25.5-7.9,33.1-3.6L1005,799.3
			c7.6,4.3,5.1,13-5.6,19.3l-73.9,43.8C914.9,868.7,900,870.3,892.4,866z"/>
		<path class="st37" d="M892.4,865.8L613,706.2c-7.6-4.3-5.1-13,5.6-19.3l73.9-43.8c10.6-6.3,25.5-7.9,33.1-3.6L1005,799.1
			c7.6,4.3,5.1,13-5.6,19.3l-73.9,43.8C914.9,868.5,900,870.2,892.4,865.8z"/>
		<path class="st38" d="M892.4,865.6L613,706c-7.6-4.3-5.1-13,5.6-19.3l73.9-43.8c10.6-6.3,25.5-7.9,33.1-3.6L1005,798.9
			c7.6,4.3,5.1,13-5.6,19.3L925.5,862C914.9,868.3,900,870,892.4,865.6z"/>
		<path class="st39" d="M892.4,865.4L613,705.8c-7.6-4.3-5.1-13,5.6-19.3l73.9-43.8c10.6-6.3,25.5-7.9,33.1-3.6L1005,798.7
			c7.6,4.3,5.1,13-5.6,19.3l-73.9,43.8C914.9,868.1,900,869.8,892.4,865.4z"/>
		<path class="st40" d="M892.4,865.2L613,705.6c-7.6-4.3-5.1-13,5.6-19.3l73.9-43.8c10.6-6.3,25.5-7.9,33.1-3.6L1005,798.5
			c7.6,4.3,5.1,13-5.6,19.3l-73.9,43.8C914.9,867.9,900,869.5,892.4,865.2z"/>
		<path class="st41" d="M892.4,865L613,705.4c-7.6-4.3-5.1-13,5.6-19.3l73.9-43.8c10.6-6.3,25.5-7.9,33.1-3.6L1005,798.3
			c7.6,4.3,5.1,13-5.6,19.3l-73.9,43.8C914.9,867.7,900,869.3,892.4,865z"/>
		<path class="st42" d="M892.4,864.8L613,705.2c-7.6-4.3-5.1-13,5.6-19.3l73.9-43.8c10.6-6.3,25.5-7.9,33.1-3.6L1005,798.1
			c7.6,4.3,5.1,13-5.6,19.3l-73.9,43.8C914.9,867.5,900,869.1,892.4,864.8z"/>
		<path class="st43" d="M892.4,864.6L613,705c-7.6-4.3-5.1-13,5.6-19.3l73.9-43.8c10.6-6.3,25.5-7.9,33.1-3.6L1005,797.9
			c7.6,4.3,5.1,13-5.6,19.3L925.5,861C914.9,867.3,900,868.9,892.4,864.6z"/>
		<path class="st44" d="M892.4,864.4L613,704.8c-7.6-4.3-5.1-13,5.6-19.3l73.9-43.8c10.6-6.3,25.5-7.9,33.1-3.6L1005,797.7
			c7.6,4.3,5.1,13-5.6,19.3l-73.9,43.8C914.9,867.1,900,868.7,892.4,864.4z"/>
		<path class="st45" d="M892.4,864.2L613,704.6c-7.6-4.3-5.1-13,5.6-19.3l73.9-43.8c10.6-6.3,25.5-7.9,33.1-3.6L1005,797.5
			c7.6,4.3,5.1,13-5.6,19.3l-73.9,43.8C914.9,866.9,900,868.5,892.4,864.2z"/>
		<path class="st46" d="M892.4,864L613,704.4c-7.6-4.3-5.1-13,5.6-19.3l73.9-43.8c10.6-6.3,25.5-7.9,33.1-3.6L1005,797.3
			c7.6,4.3,5.1,13-5.6,19.3l-73.9,43.8C914.9,866.7,900,868.3,892.4,864z"/>
		<path class="st47" d="M892.4,863.8L613,704.2c-7.6-4.3-5.1-13,5.6-19.3l73.9-43.8c10.6-6.3,25.5-7.9,33.1-3.6L1005,797.1
			c7.6,4.3,5.1,13-5.6,19.3l-73.9,43.8C914.9,866.5,900,868.1,892.4,863.8z"/>
		<path class="st48" d="M892.4,863.6L613,704c-7.6-4.3-5.1-13,5.6-19.3l73.9-43.8c10.6-6.3,25.5-7.9,33.1-3.6L1005,796.9
			c7.6,4.3,5.1,13-5.6,19.3L925.5,860C914.9,866.3,900,867.9,892.4,863.6z"/>
		<path class="st49" d="M892.4,863.4L613,703.8c-7.6-4.3-5.1-13,5.6-19.3l73.9-43.8c10.6-6.3,25.5-7.9,33.1-3.6L1005,796.7
			c7.6,4.3,5.1,13-5.6,19.3l-73.9,43.8C914.9,866.1,900,867.7,892.4,863.4z"/>
		<path class="st50" d="M892.4,863.2L613,703.6c-7.6-4.3-5.1-13,5.6-19.3l73.9-43.8c10.6-6.3,25.5-7.9,33.1-3.6L1005,796.5
			c7.6,4.3,5.1,13-5.6,19.3l-73.9,43.8C914.9,865.9,900,867.5,892.4,863.2z"/>
		<path class="st51" d="M892.4,863L613,703.4c-7.6-4.3-5.1-13,5.6-19.3l73.9-43.8c10.6-6.3,25.5-7.9,33.1-3.6L1005,796.3
			c7.6,4.3,5.1,13-5.6,19.3l-73.9,43.8C914.9,865.7,900,867.3,892.4,863z"/>
		<path class="st52" d="M892.4,862.8L613,703.2c-7.6-4.3-5.1-13,5.6-19.3l73.9-43.8c10.6-6.3,25.5-7.9,33.1-3.6L1005,796.1
			c7.6,4.3,5.1,13-5.6,19.3l-73.9,43.8C914.9,865.5,900,867.1,892.4,862.8z"/>
		<path class="st53" d="M892.4,862.6L613,703c-7.6-4.3-5.1-13,5.6-19.3l73.9-43.8c10.6-6.3,25.5-7.9,33.1-3.6L1005,795.9
			c7.6,4.3,5.1,13-5.6,19.3L925.5,859C914.9,865.3,900,866.9,892.4,862.6z"/>
		<path class="st54" d="M892.4,862.4L613,702.8c-7.6-4.3-5.1-13,5.6-19.3l73.9-43.8c10.6-6.3,25.5-7.9,33.1-3.6L1005,795.7
			c7.6,4.3,5.1,13-5.6,19.3l-73.9,43.8C914.9,865.1,900,866.7,892.4,862.4z"/>
		<path class="st55" d="M892.4,862.2L613,702.6c-7.6-4.3-5.1-13,5.6-19.3l73.9-43.8c10.6-6.3,25.5-7.9,33.1-3.6L1005,795.5
			c7.6,4.3,5.1,13-5.6,19.3l-73.9,43.8C914.9,864.9,900,866.5,892.4,862.2z"/>
		<path class="st56" d="M892.4,862L613,702.4c-7.6-4.3-5.1-13,5.6-19.3l73.9-43.8c10.6-6.3,25.5-7.9,33.1-3.6L1005,795.3
			c7.6,4.3,5.1,13-5.6,19.3l-73.9,43.8C914.9,864.7,900,866.3,892.4,862z"/>
		<path class="st57" d="M892.4,861.8L613,702.2c-7.6-4.3-5.1-13,5.6-19.3l73.9-43.8c10.6-6.3,25.5-7.9,33.1-3.6L1005,795.1
			c7.6,4.3,5.1,13-5.6,19.3l-73.9,43.8C914.9,864.5,900,866.1,892.4,861.8z"/>
		<path class="st58" d="M892.4,861.6L613,702c-7.6-4.3-5.1-13,5.6-19.3l73.9-43.8c10.6-6.3,25.5-7.9,33.1-3.6L1005,794.9
			c7.6,4.3,5.1,13-5.6,19.3L925.5,858C914.9,864.3,900,865.9,892.4,861.6z"/>
		<path class="st59" d="M892.4,861.4L613,701.8c-7.6-4.3-5.1-13,5.6-19.3l73.9-43.8c10.6-6.3,25.5-7.9,33.1-3.6L1005,794.7
			c7.6,4.3,5.1,13-5.6,19.3l-73.9,43.8C914.9,864.1,900,865.7,892.4,861.4z"/>
		<path class="st60" d="M892.4,861.2L613,701.6c-7.6-4.3-5.1-13,5.6-19.3l73.9-43.8c10.6-6.3,25.5-7.9,33.1-3.6L1005,794.5
			c7.6,4.3,5.1,13-5.6,19.3l-73.9,43.8C914.9,863.9,900,865.5,892.4,861.2z"/>
		<path class="st61" d="M892.4,861L613,701.4c-7.6-4.3-5.1-13,5.6-19.3l73.9-43.8c10.6-6.3,25.5-7.9,33.1-3.6L1005,794.3
			c7.6,4.3,5.1,13-5.6,19.3l-73.9,43.8C914.9,863.7,900,865.3,892.4,861z"/>
		<path class="st62" d="M892.4,860.8L613,701.2c-7.6-4.3-5.1-13,5.6-19.3l73.9-43.8c10.6-6.3,25.5-7.9,33.1-3.6L1005,794.1
			c7.6,4.3,5.1,13-5.6,19.3l-73.9,43.8C914.9,863.5,900,865.1,892.4,860.8z"/>
		<path class="st63" d="M892.4,860.6L613,701c-7.6-4.3-5.1-13,5.6-19.3l73.9-43.8c10.6-6.3,25.5-7.9,33.1-3.6L1005,793.9
			c7.6,4.3,5.1,13-5.6,19.3L925.5,857C914.9,863.3,900,864.9,892.4,860.6z"/>
		<path class="st64" d="M892.4,860.4L613,700.8c-7.6-4.3-5.1-13,5.6-19.3l73.9-43.8c10.6-6.3,25.5-7.9,33.1-3.6L1005,793.7
			c7.6,4.3,5.1,13-5.6,19.3l-73.9,43.8C914.9,863.1,900,864.7,892.4,860.4z"/>
		<path class="st65" d="M892.4,860.2L613,700.6c-7.6-4.3-5.1-13,5.6-19.3l73.9-43.8c10.6-6.3,25.5-7.9,33.1-3.6L1005,793.5
			c7.6,4.3,5.1,13-5.6,19.3l-73.9,43.8C914.9,862.9,900,864.5,892.4,860.2z"/>
		<path class="st66" d="M892.4,860L613,700.4c-7.6-4.3-5.1-13,5.6-19.3l73.9-43.8c10.6-6.3,25.5-7.9,33.1-3.6L1005,793.2
			c7.6,4.3,5.1,13-5.6,19.3l-73.9,43.8C914.9,862.7,900,864.3,892.4,860z"/>
		<path class="st67" d="M892.4,859.8L613,700.2c-7.6-4.3-5.1-13,5.6-19.3l73.9-43.8c10.6-6.3,25.5-7.9,33.1-3.6L1005,793
			c7.6,4.3,5.1,13-5.6,19.3l-73.9,43.8C914.9,862.5,900,864.1,892.4,859.8z"/>
		<path class="st68" d="M892.4,859.6L613,700c-7.6-4.3-5.1-13,5.6-19.3l73.9-43.8c10.6-6.3,25.5-7.9,33.1-3.6L1005,792.8
			c7.6,4.3,5.1,13-5.6,19.3L925.5,856C914.9,862.3,900,863.9,892.4,859.6z"/>
		<path class="st69" d="M892.4,859.4L613,699.8c-7.6-4.3-5.1-13,5.6-19.3l73.9-43.8c10.6-6.3,25.5-7.9,33.1-3.6L1005,792.7
			c7.6,4.3,5.1,13-5.6,19.3l-73.9,43.8C914.9,862.1,900,863.7,892.4,859.4z"/>
		<path class="st70" d="M892.4,859.2L613,699.6c-7.6-4.3-5.1-13,5.6-19.3l73.9-43.8c10.6-6.3,25.5-7.9,33.1-3.6L1005,792.5
			c7.6,4.3,5.1,13-5.6,19.3l-73.9,43.8C914.9,861.9,900,863.5,892.4,859.2z"/>
		
			<linearGradient id="SVGID_13_" gradientUnits="userSpaceOnUse" x1="608.6192" y1="277.2753" x2="1009.3808" y2="277.2753" gradientTransform="matrix(1 0 0 -1 0 1023.2756)">
			<stop  offset="0" style="stop-color:#17D1AA"/>
			<stop  offset="0.23" style="stop-color:#1CB9B0"/>
			<stop  offset="0.7" style="stop-color:#297DC0"/>
			<stop  offset="1" style="stop-color:#3154CB"/>
		</linearGradient>
		<path class="st71" d="M892.4,859.2L613,699.6c-7.6-4.3-5.1-13,5.6-19.3l73.9-43.8c10.6-6.3,25.5-7.9,33.1-3.6L1005,792.5
			c7.6,4.3,5.1,13-5.6,19.3l-73.9,43.8C914.9,861.9,900,863.5,892.4,859.2z"/>
		<path class="st7" d="M1141.9,716.2l13.5-7.6c3.9-2.2,6.3-6.5,6.1-11V474.2c0,0,0.1-17.2-18.3-27.4c-17.4-9.7-269.5-156-269.5-156
			s-15.7-4.4-17,19.2s0.8,237.9,0.8,237.9L1141.9,716.2z"/>
		
			<linearGradient id="SVGID_14_" gradientUnits="userSpaceOnUse" x1="1112.3086" y1="563.774" x2="1145.7588" y2="330.204" gradientTransform="matrix(1 0 0 -1 0 1023.2756)">
			<stop  offset="0" style="stop-color:#17D1AA;stop-opacity:0"/>
			<stop  offset="0.36" style="stop-color:#1BB1A9;stop-opacity:0.38"/>
			<stop  offset="0.8" style="stop-color:#208CA8;stop-opacity:0.82"/>
			<stop  offset="1" style="stop-color:#227DA8"/>
		</linearGradient>
		<path class="st72" d="M1141.9,716.2l13.5-7.6c3.9-2.2,6.3-6.5,6.1-11V474.2c0,0,0.1-17.2-18.3-27.4c-17.4-9.7-38.7-22.2-38.7-22.2
			s-10.3,63.3-11.6,86.9s6.1,183.9,6.1,183.9L1141.9,716.2z"/>
		
			<linearGradient id="SVGID_15_" gradientUnits="userSpaceOnUse" x1="1394.5894" y1="424.3427" x2="767.3094" y2="568.3027" gradientTransform="matrix(1 0 0 -1 0 1023.2756)">
			<stop  offset="0" style="stop-color:#1980AC"/>
			<stop  offset="0.13" style="stop-color:#1977AC"/>
			<stop  offset="1" style="stop-color:#1B3DAD"/>
		</linearGradient>
		<path class="st73" d="M1134.2,455.5L870.7,304.2c-1-0.6-2.1-1-3.2-1.2l0,0c-70.1-28.7-63.2,27.5-63.2,27.5l54.5,29.4v181.8
			c0,8.7,5.4,19,12,22.7l263.5,151.3c6.6,3.8,12-0.3,12-9V478.2C1146.2,469.5,1140.8,459.3,1134.2,455.5z"/>
		<path class="st4" d="M1092.8,722.1l35.5-22.3c1.2-0.8,2-2.2,2-3.6V484.8c0-6.5-3.4-12.5-9-15.9L866.6,317.8
			c-5-2.9-11-3.4-16.4-1.3l-33.7,13.2c-2.2,0.9-3.3,3.4-2.4,5.6c0.1,0.3,0.3,0.7,0.5,1L1092.8,722.1z"/>
		
			<linearGradient id="SVGID_16_" gradientUnits="userSpaceOnUse" x1="806.8532" y1="500.3636" x2="1123.4601" y2="500.3636" gradientTransform="matrix(1 0 0 -1 0 1023.2756)">
			<stop  offset="0" style="stop-color:#17D1AA"/>
			<stop  offset="7.000000e-02" style="stop-color:#1AC2AE"/>
			<stop  offset="0.27" style="stop-color:#229BB8"/>
			<stop  offset="0.46" style="stop-color:#297CC0"/>
			<stop  offset="0.65" style="stop-color:#2D66C6"/>
			<stop  offset="0.83" style="stop-color:#3059CA"/>
			<stop  offset="1" style="stop-color:#3154CB"/>
		</linearGradient>
		<path class="st74" d="M1085.9,726.5l35.5-22.3c1.2-0.8,2-2.2,2-3.7V489.2c0-6.5-3.4-12.5-9-15.9L859.7,322.2
			c-5-3-12.4-3.8-17.8-1.7l-32.4,12.4c-2.6,1-3.5,5.4-1.8,7.6L1085.9,726.5z"/>
		<path class="st4" d="M1080.4,729.8l35.4-22.1c1.2-0.8,1.7-3.4,1.7-4.8V491.6c0-6.5-3.4-12.5-9-15.9L853.8,324.6
			c-5-3-13.2-4.3-18.6-2.2l-31.5,14c-2.2,0.9-3.3,3.4-2.4,5.6c0.1,0.3,0.3,0.7,0.5,1L1080.4,729.8z"/>
		
			<linearGradient id="SVGID_17_" gradientUnits="userSpaceOnUse" x1="792.8483" y1="493.8956" x2="1109.45" y2="493.8956" gradientTransform="matrix(1 0 0 -1 0 1023.2756)">
			<stop  offset="0" style="stop-color:#17D1AA"/>
			<stop  offset="7.000000e-02" style="stop-color:#1AC2AE"/>
			<stop  offset="0.27" style="stop-color:#229BB8"/>
			<stop  offset="0.46" style="stop-color:#297CC0"/>
			<stop  offset="0.65" style="stop-color:#2D66C6"/>
			<stop  offset="0.83" style="stop-color:#3059CA"/>
			<stop  offset="1" style="stop-color:#3154CB"/>
		</linearGradient>
		<path class="st75" d="M1073.5,734.4l34.2-21.7c1.2-0.8,1.8-2.6,1.8-4.1V494.9c0-6.5-3.4-12.5-9-15.9L845.7,327.9
			c-5-3-12.5-4.7-17.9-2.6l-32.2,14.5c-2.2,0.9-3.3,3.4-2.4,5.6c0.1,0.3,0.3,0.7,0.5,0.9L1073.5,734.4z"/>
		<path class="st4" d="M1069,737.6l30.8-19.8c1.3-0.8,1.6-2.8,1.6-4.3V498c0-6.5-3.4-12.5-9-15.9L837.6,331c-5-3-11.5-5.3-16.9-3.2
			L792.8,339c-2.6,1,2.6,6.1,4.2,8.4L1069,737.6z"/>
		
			<linearGradient id="SVGID_18_" gradientUnits="userSpaceOnUse" x1="1104.5496" y1="548.1356" x2="1105.8096" y2="287.8856" gradientTransform="matrix(1 0 0 -1 0 1023.2756)">
			<stop  offset="0" style="stop-color:#52FCFF;stop-opacity:0"/>
			<stop  offset="0.1" style="stop-color:#45CEEE;stop-opacity:0.25"/>
			<stop  offset="0.21" style="stop-color:#38A2DD;stop-opacity:0.49"/>
			<stop  offset="0.31" style="stop-color:#2E7FD0;stop-opacity:0.68"/>
			<stop  offset="0.41" style="stop-color:#2766C7;stop-opacity:0.82"/>
			<stop  offset="0.5" style="stop-color:#2357C1;stop-opacity:0.9"/>
			<stop  offset="0.57" style="stop-color:#2152BF;stop-opacity:0.93"/>
			<stop  offset="0.71" style="stop-color:#1E4ABC;stop-opacity:0.97"/>
			<stop  offset="1" style="stop-color:#1D45BA"/>
		</linearGradient>
		<path class="st76" d="M1078.9,504.1l48.5-29.4c1.9,2.5,3,5.6,3,8.8l0,0v213c0,1.3-0.7,2.5-1.8,3.2l-35.7,22.4L1078.9,504.1z"/>
		<path class="st7" d="M873.6,290.8c-7.5-2.9-15.4-4.8-23.5-5.7c-24.4-2-65.4,4.5-62.9,56.7l28.9-4.5l8,1.7
			c-45-25.8,17.7-51,46.6-35l18.5-4.1L873.6,290.8z"/>
		<path class="st7" d="M1069.6,755.5l17.2-9.7c3.9-2.2,6.3-6.5,6.1-11V511.4c0,0,0.1-17.2-18.3-27.4
			c-17.4-9.7-263.2-152.3-263.2-152.3s-22.1-8.1-23.4,15.5s0.8,237.9,0.8,237.9L1069.6,755.5z"/>
		
			<linearGradient id="SVGID_19_" gradientUnits="userSpaceOnUse" x1="1031.6069" y1="547.9701" x2="1081.9069" y2="246.8801" gradientTransform="matrix(1 0 0 -1 0 1023.2756)">
			<stop  offset="0" style="stop-color:#17D1AA;stop-opacity:0"/>
			<stop  offset="0.36" style="stop-color:#1BB1A9;stop-opacity:0.38"/>
			<stop  offset="0.8" style="stop-color:#208CA8;stop-opacity:0.82"/>
			<stop  offset="1" style="stop-color:#227DA8"/>
		</linearGradient>
		<path class="st77" d="M1069.6,755.5l17.2-9.7c3.9-2.2,6.3-6.5,6.1-11V511.4c0,0,0.1-17.2-18.3-27.4c-17.4-9.7-34-19.7-34-19.7
			s-22.1-8.1-23.4,15.5s1.3,247.8,1.3,247.8L1069.6,755.5z"/>
		
			<linearGradient id="SVGID_20_" gradientUnits="userSpaceOnUse" x1="806.808" y1="447.2825" x2="1050.6481" y2="516.1525" gradientTransform="matrix(1 0 0 -1 0 1023.2756)">
			<stop  offset="0" style="stop-color:#17D1AA"/>
			<stop  offset="7.000000e-02" style="stop-color:#1AC2AE"/>
			<stop  offset="0.27" style="stop-color:#229BB8"/>
			<stop  offset="0.46" style="stop-color:#297CC0"/>
			<stop  offset="0.65" style="stop-color:#2D66C6"/>
			<stop  offset="0.83" style="stop-color:#3059CA"/>
			<stop  offset="1" style="stop-color:#3154CB"/>
		</linearGradient>
		<path class="st78" d="M1062.6,754.7L799.2,603.5c-6.6-3.8-12-14-12-22.7V352.3c-0.8-19.4,0.5-24.9,0.5-24.9s1.6,7.2,6.8,12.1
			c3.5,2.8,7.3,5.3,11.2,7.5l257,147.6c6.6,3.8,12,14,12,22.7v228.4C1074.6,754.5,1069.2,758.5,1062.6,754.7z"/>
		<polyline class="st2" points="884.4,490.5 888.5,488.2 888.5,561.2 884.4,563.4 884.4,490.5 		"/>
		
			<linearGradient id="SVGID_21_" gradientUnits="userSpaceOnUse" x1="-2134.3533" y1="422.1006" x2="-2200.0632" y2="356.3906" gradientTransform="matrix(0.85 -0.49 -0.87 -0.5 3443.4697 -362.9822)">
			<stop  offset="0" style="stop-color:#17D1AA"/>
			<stop  offset="0.3" style="stop-color:#1CB9B0"/>
			<stop  offset="0.94" style="stop-color:#297DC0"/>
			<stop  offset="1" style="stop-color:#2A77C2"/>
		</linearGradient>
		<polygon class="st79" points="1290.6,499.7 1262.6,515.8 1234.6,499.7 1261.9,484 		"/>
		
			<linearGradient id="SVGID_22_" gradientUnits="userSpaceOnUse" x1="1262.7972" y1="636.5018" x2="1294.5173" y2="636.5018" gradientTransform="matrix(0.88 0.51 0 -1 119.77 505.9156)">
			<stop  offset="0" style="stop-color:#17D1AA"/>
			<stop  offset="0.3" style="stop-color:#1CB9B0"/>
			<stop  offset="0.94" style="stop-color:#297DC0"/>
			<stop  offset="1" style="stop-color:#2A77C2"/>
		</linearGradient>
		<polygon class="st80" points="1262.6,547.6 1234.6,531.4 1234.6,499.7 1262.6,515.8 		"/>
		
			<linearGradient id="SVGID_23_" gradientUnits="userSpaceOnUse" x1="864.0827" y1="431.4441" x2="895.8027" y2="431.4441" gradientTransform="matrix(-0.88 0.51 0 -1 2051.6201 505.9156)">
			<stop  offset="0" style="stop-color:#17D1AA"/>
			<stop  offset="0.3" style="stop-color:#1CB9B0"/>
			<stop  offset="0.94" style="stop-color:#297DC0"/>
			<stop  offset="1" style="stop-color:#2A77C2"/>
		</linearGradient>
		<polygon class="st81" points="1262.6,547.6 1290.6,531.4 1290.6,499.7 1262.6,515.8 		"/>
		
			<linearGradient id="SVGID_24_" gradientUnits="userSpaceOnUse" x1="-2157.4695" y1="398.6069" x2="-2193.8994" y2="362.1769" gradientTransform="matrix(0.85 -0.49 -0.87 -0.5 3443.4697 -362.9822)">
			<stop  offset="0" style="stop-color:#17D1AA"/>
			<stop  offset="0.14" style="stop-color:#1DAEB2"/>
			<stop  offset="0.32" style="stop-color:#2487BB"/>
			<stop  offset="0.5" style="stop-color:#2A68C2"/>
			<stop  offset="0.68" style="stop-color:#2E52C7"/>
			<stop  offset="0.85" style="stop-color:#3045CA"/>
			<stop  offset="1" style="stop-color:#3140CB"/>
		</linearGradient>
		<polygon class="st82" points="1278.6,506.9 1263.1,515.8 1247.6,506.9 1262.7,498.2 		"/>
		
			<linearGradient id="SVGID_25_" gradientUnits="userSpaceOnUse" x1="1274.0524" y1="660.1966" x2="1298.3524" y2="635.8966" gradientTransform="matrix(0.88 0.51 0 -1 119.77 505.9156)">
			<stop  offset="0" style="stop-color:#17D1AA"/>
			<stop  offset="0.14" style="stop-color:#1DAEB2"/>
			<stop  offset="0.32" style="stop-color:#2487BB"/>
			<stop  offset="0.5" style="stop-color:#2A68C2"/>
			<stop  offset="0.68" style="stop-color:#2E52C7"/>
			<stop  offset="0.85" style="stop-color:#3045CA"/>
			<stop  offset="1" style="stop-color:#3140CB"/>
		</linearGradient>
		<polygon class="st83" points="1263.1,533.4 1247.6,524.5 1247.6,506.9 1263.1,515.8 		"/>
		
			<linearGradient id="SVGID_26_" gradientUnits="userSpaceOnUse" x1="869.2803" y1="456.247" x2="901.0303" y2="424.4871" gradientTransform="matrix(-0.88 0.51 0 -1 2051.6201 505.9156)">
			<stop  offset="0" style="stop-color:#17D1AA"/>
			<stop  offset="0.14" style="stop-color:#1DAEB2"/>
			<stop  offset="0.32" style="stop-color:#2487BB"/>
			<stop  offset="0.5" style="stop-color:#2A68C2"/>
			<stop  offset="0.68" style="stop-color:#2E52C7"/>
			<stop  offset="0.85" style="stop-color:#3045CA"/>
			<stop  offset="1" style="stop-color:#3140CB"/>
		</linearGradient>
		<polygon class="st84" points="1263.1,533.4 1278.6,524.5 1278.6,506.9 1263.1,515.8 		"/>
		<polygon class="st85" points="1270.3,511.6 1263.1,515.8 1255.8,511.6 1262.9,507.6 		"/>
		<polygon class="st85" points="1263.1,524 1255.8,519.8 1255.8,511.6 1263.1,515.8 		"/>
		<polygon class="st85" points="1263.1,524 1270.3,519.8 1270.3,511.6 1263.1,515.8 		"/>
		
			<linearGradient id="SVGID_27_" gradientUnits="userSpaceOnUse" x1="1313.4417" y1="553.426" x2="1208.8416" y2="931.166" gradientTransform="matrix(1 0 0 -1 0 1023.2756)">
			<stop  offset="0" style="stop-color:#7FE3F3"/>
			<stop  offset="0.18" style="stop-color:#60DEDD;stop-opacity:0.71"/>
			<stop  offset="0.59" style="stop-color:#17D1AA;stop-opacity:0"/>
			<stop  offset="0.89" style="stop-color:#372EA8;stop-opacity:0"/>
		</linearGradient>
		<polyline class="st86" points="1085.2,186.5 1241.9,499.3 1262.9,511.2 1283.3,499.3 1385,187.3 		"/>
		
			<linearGradient id="SVGID_28_" gradientUnits="userSpaceOnUse" x1="-2158.0293" y1="398.3866" x2="-2189.7993" y2="366.6165" gradientTransform="matrix(0.85 -0.49 -0.87 -0.5 3443.4697 -362.9822)">
			<stop  offset="0" style="stop-color:#17D1AA"/>
			<stop  offset="0.14" style="stop-color:#1DAEB2"/>
			<stop  offset="0.32" style="stop-color:#2487BB"/>
			<stop  offset="0.5" style="stop-color:#2A68C2"/>
			<stop  offset="0.68" style="stop-color:#2E52C7"/>
			<stop  offset="0.85" style="stop-color:#3045CA"/>
			<stop  offset="1" style="stop-color:#3140CB"/>
		</linearGradient>
		<polyline class="st87" points="1249.1,498.1 1262.3,490.4 1276.1,498.1 1262.6,505.9 1249.1,498.1 		"/>
		
			<linearGradient id="SVGID_29_" gradientUnits="userSpaceOnUse" x1="-2821.4717" y1="467.7101" x2="-2896.8218" y2="392.35" gradientTransform="matrix(0.85 -0.49 -0.87 -0.5 3443.4697 -362.9822)">
			<stop  offset="0" style="stop-color:#17D1AA"/>
			<stop  offset="0.3" style="stop-color:#1CB9B0"/>
			<stop  offset="0.94" style="stop-color:#297DC0"/>
			<stop  offset="1" style="stop-color:#2A77C2"/>
		</linearGradient>
		<polygon class="st88" points="671,816.7 638.9,835.2 606.8,816.6 638.1,798.6 		"/>
		
			<linearGradient id="SVGID_30_" gradientUnits="userSpaceOnUse" x1="551.6373" y1="-46.6135" x2="588.0073" y2="-46.6135" gradientTransform="matrix(0.88 0.51 0 -1 119.77 505.9156)">
			<stop  offset="0" style="stop-color:#17D1AA"/>
			<stop  offset="0.3" style="stop-color:#1CB9B0"/>
			<stop  offset="0.94" style="stop-color:#297DC0"/>
			<stop  offset="1" style="stop-color:#2A77C2"/>
		</linearGradient>
		<polygon class="st89" points="639,871.6 606.8,853 606.8,816.7 639,835.2 		"/>
		
			<linearGradient id="SVGID_31_" gradientUnits="userSpaceOnUse" x1="1565.9327" y1="471.2104" x2="1602.3127" y2="471.2104" gradientTransform="matrix(-0.88 0.51 0 -1 2051.6201 505.9156)">
			<stop  offset="0" style="stop-color:#17D1AA"/>
			<stop  offset="0.3" style="stop-color:#1CB9B0"/>
			<stop  offset="0.94" style="stop-color:#297DC0"/>
			<stop  offset="1" style="stop-color:#2A77C2"/>
		</linearGradient>
		<polygon class="st90" points="639,871.6 671,853 671,816.7 639,835.2 		"/>
		
			<linearGradient id="SVGID_32_" gradientUnits="userSpaceOnUse" x1="-2847.9758" y1="440.765" x2="-2889.7458" y2="398.9849" gradientTransform="matrix(0.85 -0.49 -0.87 -0.5 3443.4697 -362.9822)">
			<stop  offset="0" style="stop-color:#17D1AA"/>
			<stop  offset="0.14" style="stop-color:#1DAEB2"/>
			<stop  offset="0.32" style="stop-color:#2487BB"/>
			<stop  offset="0.5" style="stop-color:#2A68C2"/>
			<stop  offset="0.68" style="stop-color:#2E52C7"/>
			<stop  offset="0.85" style="stop-color:#3045CA"/>
			<stop  offset="1" style="stop-color:#3140CB"/>
		</linearGradient>
		<polygon class="st91" points="657.3,824.9 639.5,835.2 621.7,824.9 639,814.9 		"/>
		
			<linearGradient id="SVGID_33_" gradientUnits="userSpaceOnUse" x1="562.4189" y1="-20.1263" x2="590.2889" y2="-47.9863" gradientTransform="matrix(0.88 0.51 0 -1 119.77 505.9156)">
			<stop  offset="0" style="stop-color:#17D1AA"/>
			<stop  offset="0.14" style="stop-color:#1DAEB2"/>
			<stop  offset="0.32" style="stop-color:#2487BB"/>
			<stop  offset="0.5" style="stop-color:#2A68C2"/>
			<stop  offset="0.68" style="stop-color:#2E52C7"/>
			<stop  offset="0.85" style="stop-color:#3045CA"/>
			<stop  offset="1" style="stop-color:#3140CB"/>
		</linearGradient>
		<polygon class="st92" points="639.5,855.3 621.7,845.1 621.7,824.9 639.5,835.2 		"/>
		
			<linearGradient id="SVGID_34_" gradientUnits="userSpaceOnUse" x1="1573.4712" y1="500.1482" x2="1609.8812" y2="463.7381" gradientTransform="matrix(-0.88 0.51 0 -1 2051.6201 505.9156)">
			<stop  offset="0" style="stop-color:#17D1AA"/>
			<stop  offset="0.14" style="stop-color:#1DAEB2"/>
			<stop  offset="0.32" style="stop-color:#2487BB"/>
			<stop  offset="0.5" style="stop-color:#2A68C2"/>
			<stop  offset="0.68" style="stop-color:#2E52C7"/>
			<stop  offset="0.85" style="stop-color:#3045CA"/>
			<stop  offset="1" style="stop-color:#3140CB"/>
		</linearGradient>
		<polygon class="st93" points="639.5,855.3 657.3,845.1 657.3,824.9 639.5,835.2 		"/>
		<polygon class="st85" points="647.8,830.3 639.5,835.1 631.2,830.3 639.3,825.7 		"/>
		<polygon class="st85" points="639.5,844.6 631.2,839.8 631.2,830.3 639.5,835.2 		"/>
		<polygon class="st85" points="639.5,844.6 647.8,839.8 647.8,830.3 639.5,835.2 		"/>
		
			<linearGradient id="SVGID_35_" gradientUnits="userSpaceOnUse" x1="709.3617" y1="244.186" x2="589.4117" y2="677.326" gradientTransform="matrix(1 0 0 -1 0 1023.2756)">
			<stop  offset="0" style="stop-color:#7FE3F3"/>
			<stop  offset="0.18" style="stop-color:#60DEDD;stop-opacity:0.71"/>
			<stop  offset="0.59" style="stop-color:#17D1AA;stop-opacity:0"/>
			<stop  offset="0.89" style="stop-color:#372EA8;stop-opacity:0"/>
		</linearGradient>
		<polyline class="st94" points="435.5,457.5 615.2,816.2 639.3,829.8 662.6,816.2 797.8,430.9 		"/>
		
			<linearGradient id="SVGID_36_" gradientUnits="userSpaceOnUse" x1="-2848.6204" y1="440.5078" x2="-2885.0505" y2="404.0778" gradientTransform="matrix(0.85 -0.49 -0.87 -0.5 3443.4697 -362.9822)">
			<stop  offset="0" style="stop-color:#17D1AA"/>
			<stop  offset="0.14" style="stop-color:#1DAEB2"/>
			<stop  offset="0.32" style="stop-color:#2487BB"/>
			<stop  offset="0.5" style="stop-color:#2A68C2"/>
			<stop  offset="0.68" style="stop-color:#2E52C7"/>
			<stop  offset="0.85" style="stop-color:#3045CA"/>
			<stop  offset="1" style="stop-color:#3140CB"/>
		</linearGradient>
		<polyline class="st95" points="623.4,814.8 638.5,806.1 654.5,814.8 638.9,823.7 623.4,814.8 		"/>
		<g>
			<defs>
				
					<ellipse id="SVGID_37_" transform="matrix(0.8841 -0.4673 0.4673 0.8841 -43.3184 496.7498)" cx="979.7" cy="335.7" rx="33.4" ry="53.6"/>
			</defs>
			<clipPath id="SVGID_38_">
				<use xlink:href="#SVGID_37_"  style="overflow:visible;"/>
			</clipPath>
			<g class="st96">
				<path class="st7" d="M938.6,257.9c1.6,1.2,105.5,94.1,105.5,94.1"/>
				<path class="st7" d="M934.5,262.4c1.6,1.2,105.5,94.1,105.5,94.1"/>
				<path class="st7" d="M930.5,266.9c1.6,1.2,105.5,94.1,105.5,94.1"/>
				<path class="st7" d="M926.4,271.4c1.6,1.2,105.5,94.1,105.5,94.1"/>
				<path class="st7" d="M922.3,275.9c1.6,1.2,105.5,94.1,105.5,94.1"/>
				<path class="st7" d="M918.2,280.4c1.6,1.2,105.5,94.1,105.5,94.1"/>
				<path class="st7" d="M914.2,284.9c1.6,1.2,105.5,94.1,105.5,94.1"/>
				<path class="st7" d="M910.1,289.4c1.6,1.2,105.5,94.1,105.5,94.1"/>
				<path class="st7" d="M906,294c1.6,1.2,105.5,94.1,105.5,94.1"/>
				<path class="st7" d="M902,298.5c1.6,1.2,105.5,94.1,105.5,94.1"/>
				<path class="st7" d="M897.9,303c1.6,1.2,105.5,94.1,105.5,94.1"/>
			</g>
		</g>
		
			<linearGradient id="SVGID_39_" gradientUnits="userSpaceOnUse" x1="1261.6399" y1="671.4656" x2="1261.6399" y2="803.6856" gradientTransform="matrix(-1 0.11 0 -1 2251.46 937.0856)">
			<stop  offset="0" style="stop-color:#1D45BA"/>
			<stop  offset="0.42" style="stop-color:#1D47BA"/>
			<stop  offset="0.57" style="stop-color:#1D4EB9"/>
			<stop  offset="0.68" style="stop-color:#1C59B8"/>
			<stop  offset="0.77" style="stop-color:#1B6AB6"/>
			<stop  offset="0.84" style="stop-color:#1A80B3"/>
			<stop  offset="0.91" style="stop-color:#199CB0"/>
			<stop  offset="0.97" style="stop-color:#18BBAD"/>
			<stop  offset="1" style="stop-color:#17D1AA"/>
		</linearGradient>
		<path class="st97" d="M945.4,307.1c0,29.3,19.9,62.6,44.4,74.5c7.9,3.8,15.3,5,21.7,3.8l-0.4,3l8.8-6.2c0.8-0.5,1.6-1.1,2.4-1.7
			l0.1-0.1l0,0c7.3-5.9,11.8-16.4,11.8-30.3c0-29.3-19.9-62.6-44.4-74.5c-11.8-5.7-22.5-5.4-30.4-0.4l0,0l-0.3,0.2
			c-0.3,0.2-0.7,0.5-1,0.7l-9,6.2l3.8-1.2C948.2,287.5,945.4,296.2,945.4,307.1z M965.5,316.9c0-16,10.9-23.7,24.3-17.2
			s24.3,24.8,24.3,40.8s-10.9,23.7-24.3,17.2S965.5,332.9,965.5,316.9z"/>
		<path class="st7" d="M935.3,314.2c0,29.3,19.9,62.7,44.4,74.6s44.4-2.2,44.4-31.5s-19.9-62.6-44.4-74.6S935.3,284.9,935.3,314.2z
			 M955.4,323.9c0-16,10.9-23.7,24.3-17.2s24.3,24.8,24.3,40.8s-10.9,23.8-24.3,17.2S955.4,339.9,955.4,323.9z"/>
		<path class="st16" d="M979.7,283.2c-24.5-11.9-44.4,2.2-44.4,31.5s19.9,62.6,44.4,74.5s44.4-2.2,44.4-31.5
			S1004.2,295.1,979.7,283.2z M979.7,365.2c-13.4-6.5-24.3-24.8-24.3-40.8s10.9-23.7,24.3-17.2s24.3,24.8,24.3,40.9
			S993.2,371.7,979.7,365.2L979.7,365.2z"/>
		
			<ellipse transform="matrix(0.8841 -0.4673 0.4673 0.8841 -43.3184 496.7498)" class="st17" cx="979.7" cy="335.7" rx="33.4" ry="53.6"/>
		<path class="st2" d="M995.6,373.2l-8.3-28.6l-21.4-13.1c-2.4,6-5.5,13.3-8.1,19.4c-0.2,0.4-0.7,0.4-1.3,0.1c-0.8-0.5-1-0.8-1-1.6
			v-0.3l18.8-45.3c0.5-1.2,1.8-1.8,3-1.3c0.1,0,0.2,0.1,0.2,0.1c1.5,0.9,2.1,2.5,2.5,4.3l18,64.7c0.4,1.2,1,3-0.2,3.2
			c-1.1,0.2-2.2-0.5-2.4-1.6C995.6,373.3,995.6,373.2,995.6,373.2z M977.9,309.7c-0.9-3-1.6-3.8-2.3-1.9l-8.6,21.5l19.5,11.9
			L977.9,309.7z"/>
		<path class="st2" d="M997.8,351.3l-41.2-25.2c-0.5-0.3-0.7-0.9-0.8-1.4v-1.3c0-0.5,0.3-0.8,0.8-0.5l41.2,25.2
			c0.5,0.3,0.7,0.9,0.8,1.4v1.3C998.5,351.3,998.2,351.6,997.8,351.3z"/>
		<path class="st2" d="M994,337.9l-33.7-20.6c-0.5-0.3-0.7-0.9-0.8-1.4v-1.3c0-0.5,0.3-0.8,0.8-0.5l33.7,20.6
			c0.5,0.3,0.7,0.9,0.8,1.4v1.3C994.8,337.9,994.4,338.2,994,337.9z"/>
		<path class="st98" d="M850.3,402.4c1.5,0.9,2.7,0.1,2.7-1.9c-0.1-2-1-3.9-2.7-5.1c-1.5-0.9-2.7-0.1-2.7,1.9
			C847.8,399.3,848.7,401.2,850.3,402.4z M874.7,425.9c0.7,0.4,1.2,0,1.2-0.8c0-0.9-0.5-1.7-1.2-2.2c-0.7-0.4-1.2,0-1.2,0.8
			C873.5,424.6,873.9,425.4,874.7,425.9z M845.3,430.6c1.5,0.9,2.7,0.1,2.7-1.9c-0.1-2-1-3.9-2.7-5.1c-1.5-0.9-2.7-0.1-2.7,1.9
			C842.7,427.5,843.6,429.4,845.3,430.6L845.3,430.6z M850.3,406.6c1,0.7,2.3,0.9,3.5,0.6l31.5,60.4l0.6-0.4l-31.5-60.3
			c1.1-0.7,1.8-2.3,1.8-4.4c0-4.3-2.7-9.3-5.9-11.3s-5.9-0.1-5.9,4.1S847.1,404.6,850.3,406.6z M850.3,392.3c2.8,1.7,5,6,5,9.6
			s-2.3,5.2-5,3.5s-5-6-5-9.6S847.6,390.6,850.3,392.3z M965.2,492.4l24.7-17.2c0.4,0.7,1,1.4,1.7,1.9c1.5,0.9,2.8,0.1,2.8-1.9
			c-0.1-2.1-1.1-4.1-2.8-5.3c-1.5-0.9-2.8-0.1-2.8,1.9c0,0.8,0.2,1.5,0.5,2.2l-24.8,17.3L965.2,492.4z M991.6,470.9
			c1.2,0.9,1.9,2.2,1.9,3.6c0,1.4-0.8,2-1.9,1.3c-1.2-0.8-1.9-2.2-1.9-3.6C989.7,470.9,990.6,470.3,991.6,470.9z M989,701.5
			c-1.2-0.7-2.1,0-2.1,1.5c0.1,1.6,0.8,3.1,2.1,4c1.2,0.7,2.1,0,2.1-1.5C991.1,704,990.3,702.5,989,701.5z M960.2,673
			c-0.5-0.3-0.9,0-0.9,0.7c0,0.7,0.4,1.4,0.9,1.8c0.5,0.3,0.9,0,0.9-0.7C961.1,674.1,960.7,673.4,960.2,673z M993.6,673.8
			c-1.2-0.7-2.1,0-2.1,1.5c0.1,1.6,0.8,3.1,2.1,4c1.2,0.7,2.1,0,2.1-1.5C995.6,676.2,994.8,674.7,993.6,673.8L993.6,673.8z
			 M979.5,688.3c-0.8-0.5-1.8-0.7-2.7-0.4l-25.1-48.1l-0.5,0.3l25,47.9c-1,0.9-1.5,2.2-1.4,3.5c0,3.4,2.1,7.4,4.7,9s4.7,0.1,4.7-3.3
			S982.1,689.9,979.5,688.3L979.5,688.3z M979.5,699.7c-2.2-1.3-4-4.8-4-7.7s1.8-4.1,4-2.8s4,4.8,4,7.7S981.7,701.1,979.5,699.7
			L979.5,699.7z M1044.3,640c-0.4-0.3-0.9-0.4-1.4-0.1l-26.7-51.1l3.5-2.4l5.9,11.3l0.3,0.5l9.6-6.7c0.3,0.7,0.8,1.2,1.5,1.7
			c1.2,0.7,2.2,0,2.2-1.5c0-1.7-0.9-3.2-2.2-4.2c-1.2-0.8-2.2-0.1-2.2,1.5c0,0.5,0.1,1,0.3,1.5l-9.2,6.4l-5.7-10.8l4.1-2.9l0.3-0.2
			l-16.2-31.1l10.5-7.3c0.3,0.5,0.7,1,1.3,1.3c1.2,0.7,2.2,0,2.2-1.5c0-1.7-0.9-3.2-2.2-4.2c-1.2-0.7-2.2,0-2.2,1.5
			c0,0.7,0.2,1.3,0.4,1.9l-6.6,4.6l-18.5-35.4l2.1-1.4l3.5,6.7l14-9.8c1,2,2.4,3.6,4.3,4.8c3.4,2.1,6.2,0.1,6.2-4.3
			c0-4.5-2.8-9.8-6.2-11.9s-6.2-0.1-6.2,4.3c0,2,0.5,4,1.3,5.8l-13.4,9.3l-2.9-5.5l4.3-3c0.1,0.2,0.2,0.4,0.4,0.5
			c0.6,0.4,1.1,0,1.1-0.8c0-0.8-0.4-1.6-1.1-2.1c-0.6-0.4-1.1,0-1.1,0.8c0,0.2,0.1,0.4,0.2,0.6l-4.3,3l-10.9-20.8l-15.2,10.6
			l0.7,1.2l14.5-10.1l10.2,19.6l-2.6,1.8l19,36.4l-3.7,2.5l-0.3,0.2l16.2,31.1l-3.8,2.7l-10.7-20.5l-0.3-0.5l-7.4,5.1l-9.8-18.7
			l-11.2,7.8l0.5,1l10.7-7.5l9.8,18.7l7.4-5.1l10.5,20l-10.3,7.2l-7.2-13.8c0.3-0.4,0.5-0.9,0.4-1.4c0-1.7-0.9-3.2-2.2-4.2
			c-1.2-0.7-2.2,0-2.2,1.5c0,1.7,0.9,3.2,2.2,4.2c0.4,0.3,0.8,0.3,1.2,0.2l7.2,13.8l-5.8,4c-0.3-0.5-0.7-1-1.2-1.3
			c-1.1-0.7-2-0.1-2.1,1.1l-18.7-11.3v1l18.7,11.4c0.2,1.5,0.9,2.8,2.1,3.7c0.4,0.3,0.8,0.3,1.2,0.2l11,21.1l-7.6,5.3l-5.2-9.9
			l-0.3-0.5l-10.5,7.3l-9.3-17.8l-0.5,0.4l9.8,18.8l10.5-7.3l4.9,9.4l-5.8,4l-0.3,0.2l12.5,23.9l-13.2,9.2l-0.3,0.2l10.9,21
			c-0.3,0.4-0.5,0.9-0.4,1.4c0,1.7,0.9,3.2,2.2,4.2c1.2,0.7,2.2,0,2.2-1.5c0-1.7-0.9-3.2-2.2-4.2c-0.4-0.2-0.8-0.3-1.2-0.2
			l-10.4-19.9l13.2-9.2l0.3-0.2l-12.5-23.9l5.5-3.8l5.8,11.2c-0.4,0.4-0.6,0.9-0.6,1.5c0,1.6,0.8,3.1,2.1,4c1.2,0.7,2.1,0,2.1-1.5
			c0-1.6-0.8-3.1-2.1-4c-0.3-0.2-0.6-0.3-0.9-0.2l-6-11.4l4-2.8l18.6,35.7c-0.9,0.9-1.4,2.2-1.3,3.5c0,3.5,2.2,7.8,4.9,9.4
			s4.9,0.1,4.9-3.4s-2.2-7.8-4.9-9.4c-0.9-0.7-2.1-0.8-3.1-0.3l-18.7-35.8l3.4-2.4l0.3-0.2l-11.5-22.1c0.3-0.4,0.5-0.9,0.4-1.4
			c0-0.7-0.2-1.3-0.4-1.9l8.9-6.2l19.2,36.8c-0.4,0.4-0.6,0.9-0.5,1.4c0,1.6,0.8,3.1,2.1,4c1.2,0.7,2.1,0,2.1-1.5
			c0-1.6-0.8-3.1-2.1-4c-0.3-0.2-0.7-0.3-1-0.2l-19.3-36.9l3.2-2.2l26.7,51.2c-0.2,0.3-0.3,0.7-0.3,1.1c0,1.6,0.8,3.1,2.1,4
			c1.2,0.7,2.1,0,2.1-1.5C1046.3,642.4,1045.5,640.9,1044.3,640z M1011.9,501.8c0-3.8,2.4-5.5,5.3-3.7s5.3,6.3,5.3,10.1
			c0,3.8-2.4,5.5-5.3,3.7C1014.2,510.1,1011.9,505.6,1011.9,501.8z M1013.4,641.5c0.8,0.6,1.3,1.6,1.4,2.6c0,1-0.6,1.4-1.4,1
			c-0.8-0.6-1.3-1.6-1.4-2.6C1012,641.5,1012.7,641.1,1013.4,641.5z M1032.8,662.9c2.3,1.4,4.2,5,4.2,8s-1.9,4.3-4.2,2.9
			s-4.2-5-4.2-8S1030.5,661.5,1032.8,662.9z M1032.8,629.5c0.8,0.6,1.3,1.6,1.4,2.6c0,1-0.6,1.4-1.4,1c-0.8-0.6-1.3-1.6-1.4-2.6
			C1031.4,629.4,1032.1,629,1032.8,629.5z M1044.3,644.5c-0.8-0.6-1.3-1.6-1.3-2.6c0-1,0.6-1.4,1.3-1c0.8,0.6,1.3,1.6,1.4,2.6
			C1045.6,644.5,1045,645,1044.3,644.5L1044.3,644.5z M963.1,592.9c0.1,1.6,0.8,3.1,2.1,4c1.2,0.7,2.1,0,2.1-1.5
			c-0.1-1.6-0.8-3.1-2.1-4C964,590.7,963.1,591.4,963.1,592.9z M894.5,426.8l0.3-0.2l-5.1-9.7c0.4-0.5,0.6-1.1,0.6-1.8
			c-0.1-2.1-1.1-4.1-2.8-5.3c-1.5-0.9-2.8-0.1-2.8,1.9c0.1,2.1,1.1,4.1,2.8,5.3c0.5,0.3,1,0.4,1.5,0.2l4.5,8.6l-15.1,10.5l-0.3,0.2
			l23,44l0.6-0.4l-22.3-42.8L894.5,426.8z M887.6,415.8c-1.2-0.9-1.9-2.2-1.9-3.6c0-1.4,0.8-2,1.9-1.3c1.2,0.9,1.9,2.2,1.9,3.6
			C889.5,415.9,888.6,416.5,887.6,415.8L887.6,415.8z M883.2,607l11.5-8l-0.5-1l-11,7.7L872.4,585l-10.6,7.4
			c-0.7-1.5-1.9-2.8-3.2-3.7c-2.6-1.6-4.7-0.1-4.7,3.3s2.1,7.4,4.7,9s4.7,0.1,4.7-3.3c-0.1-1.5-0.4-3-1-4.3l10.2-7.1L883.2,607z
			 M862.5,597.3c0,2.9-1.8,4.1-4,2.8c-2.4-1.8-3.9-4.6-4-7.7c0-2.9,1.8-4.1,4-2.8C861,591.5,862.4,594.3,862.5,597.3L862.5,597.3z
			 M842.1,498.7c-0.1-2-1-3.9-2.7-5.1c-1.5-0.9-2.7-0.1-2.7,1.9c0.1,2,1,3.9,2.7,5.1C840.9,501.4,842.1,500.5,842.1,498.7
			L842.1,498.7z M929.7,623.4l17.8,34l-12,8.4l-0.2,0.2l4,7.7c-0.3,0.4-0.5,0.9-0.5,1.4c0,1.7,0.9,3.2,2.2,4.2
			c1.2,0.7,2.2,0,2.2-1.5c0-1.7-0.9-3.2-2.2-4.2c-0.4-0.2-0.8-0.3-1.2-0.2l-3.6-6.8l12-8.4l0.2-0.2l-18.2-35L929.7,623.4z
			 M940.9,674.5c0.9,0.7,1.5,1.7,1.5,2.9c0,1.1-0.7,1.6-1.5,1c-0.9-0.7-1.5-1.7-1.5-2.9C939.4,674.4,940.1,673.9,940.9,674.5
			L940.9,674.5z M834.2,565.8l4.4-3.1l0.3-0.2l-19.5-37.3l4.6-3.2l12.9,24.6l0.3,0.6l8.8-6.2l11.7,22.5l13.5-9.4l-0.6-1.2l-12.9,9
			l-11.7-22.5l-8.8,6.2l-12.5-24L837,513l8.7,16.6c-0.4,0.5-0.6,1.1-0.5,1.7c0.1,2,1,3.9,2.7,5.1c1.5,0.9,2.7,0.1,2.7-1.8
			c0-2-1-3.9-2.7-5.1c-0.4-0.3-1-0.4-1.5-0.2l-8.7-16.6l6.9-4.8c0.4,0.6,0.9,1.2,1.5,1.6c1.3,0.8,2.3,0.2,2.6-1.3l22.4,13.6v-1.2
			l-22.4-13.6c-0.2-1.8-1.1-3.4-2.6-4.5c-0.4-0.3-1-0.4-1.5-0.2l-13.2-25.3l9.2-6.4l6.2,11.9l0.3,0.6l12.6-8.8l11.1,21.3l0.6-0.4
			l-11.8-22.5l-12.5,8.8l-5.9-11.3l6.9-4.8l0.3-0.2l-15-28.7l15.9-11.1l0.3-0.2L836.4,400c0.4-0.5,0.6-1.1,0.5-1.6
			c-0.1-2-1-3.9-2.7-5.1c-1.5-0.9-2.7-0.1-2.7,1.9c0.1,2,1,3.9,2.7,5.1c0.4,0.3,1,0.4,1.5,0.2l12.5,23.9l-15.9,11l-0.3,0.2l15,28.7
			l-6.6,4.6l-7-13.4c0.5-0.5,0.8-1.1,0.7-1.8c-0.1-1.9-1-3.7-2.5-4.8c-1.4-0.8-2.5-0.1-2.5,1.8c0.1,1.9,1,3.7,2.5,4.8
			c0.3,0.2,0.7,0.3,1.1,0.3l7.1,13.6l-4.7,3.3l-22.4-42.8c1.1-1.1,1.6-2.6,1.5-4.2c0-4.3-2.7-9.4-5.9-11.3s-5.9-0.1-5.9,4.1
			s2.7,9.4,5.9,11.3c1.1,0.8,2.5,1,3.8,0.5l22.4,42.8l-4.1,2.9l-0.3,0.2l13.8,26.5c-0.4,0.5-0.6,1-0.5,1.6c0,0.8,0.2,1.6,0.5,2.3
			l-10.7,7.4l-23.1-44.2c0.4-0.5,0.7-1.1,0.6-1.7c-0.1-1.9-1-3.7-2.5-4.8c-1.4-0.8-2.5-0.1-2.5,1.8c0,1.9,1,3.7,2.5,4.8
			c0.4,0.2,0.8,0.3,1.2,0.3l23.1,44.3l-3.8,2.7l-32.1-61.5c0.2-0.4,0.3-0.9,0.3-1.3c0-1.9-1-3.7-2.5-4.8c-1.4-0.8-2.5-0.1-2.5,1.8
			c0.1,1.9,1,3.7,2.5,4.8c0.5,0.4,1.1,0.4,1.7,0.1l32,61.3l-4.2,2.9l-7-13.6l-0.3-0.6l-11.6,8.1c-0.4-0.8-1-1.5-1.8-2
			c-1.5-0.9-2.7-0.1-2.7,1.8c0.1,2,1,3.9,2.7,5.1c1.5,0.9,2.7,0.1,2.7-1.8c0-0.6-0.1-1.3-0.4-1.8l11-7.7l6.8,13l-4.9,3.4l-0.3,0.2
			l19.5,37.3l-12.7,8.8c-0.4-0.6-0.9-1.2-1.5-1.6c-1.5-0.9-2.7-0.1-2.7,1.8c0,2,1,3.9,2.7,5.1c1.5,0.9,2.7,0.1,2.7-1.8
			c0-0.8-0.2-1.6-0.5-2.3l7.9-5.5l22.2,42.5l-8.4,5.8c-0.2-0.2-0.3-0.4-0.5-0.5c-0.7-0.4-1.3,0-1.3,0.9c0,1,0.5,1.9,1.3,2.5
			c0.7,0.4,1.3,0,1.3-0.9c0-0.3,0-0.5-0.1-0.8l9-6.3L834.2,565.8z M831.6,454.2c-1-0.7-1.6-1.9-1.6-3.1c0-1.2,0.7-1.7,1.6-1.1
			c1,0.7,1.6,1.9,1.6,3.1C833.2,454.3,832.5,454.8,831.6,454.2L831.6,454.2z M808.3,428.6c-2.8-1.7-5-6-5-9.6s2.3-5.2,5-3.5
			s5,6,5,9.6S811.1,430.3,808.3,428.6z M808.3,468.7c-1-0.7-1.6-1.9-1.6-3.1c0-1.2,0.7-1.7,1.6-1.1c1,0.7,1.6,1.9,1.6,3.1
			C809.9,468.8,809.2,469.3,808.3,468.7z M794.5,454.9c-1-0.7-1.6-1.9-1.6-3.1c0-1.2,0.7-1.7,1.6-1.1c1,0.7,1.6,1.9,1.6,3.1
			C796.2,455,795.4,455.5,794.5,454.9z M895.8,607l-19.7,13.7c-0.3-0.6-0.8-1.1-1.3-1.5c-1.2-0.7-2.2,0-2.2,1.5
			c0,1.7,0.9,3.2,2.2,4.2c1.2,0.7,2.2,0,2.2-1.5c0-0.6-0.2-1.2-0.4-1.8l19.7-13.7L895.8,607z M874.8,624.1c-0.9-0.7-1.5-1.7-1.5-2.9
			c0-1.1,0.7-1.6,1.5-1.1c0.9,0.7,1.5,1.8,1.5,2.9C876.3,624.1,875.6,624.6,874.8,624.1L874.8,624.1z"/>
		<polygon class="st4" points="884.4,569.9 878.8,566.1 878.8,486.7 884.4,490.5 		"/>
		<polygon class="st4" points="968.1,617.3 884.4,569.8 884.4,563.4 968.1,610.8 		"/>
		<path class="st4" d="M948.3,480l-3.1,0.4l-23-29c0,0,0-0.1,0-0.1V447L948.3,480z"/>
		<path class="st4" d="M941.9,455.8c-1.4,0.2-2.8,0.3-4.2,0.5c-0.2,0-0.3,0-0.5-0.3c-1.7-2.2-3.5-4.3-5.2-6.5s-3.6-4.6-5.4-6.9
			l-2.6-3.2l-6.2-3.5l0.9,1.1l4.9,6.1l4.8,6.1c1.5,1.9,3,3.8,4.5,5.7s2.9,3.6,4.3,5.4c0.2,0.2,0.3,0.3,0.4,0.2l3.5-0.4l8.6-1
			l6.2-0.7l1.3-0.2l-6.2-3.5L941.9,455.8z"/>
		<path class="st4" d="M922.2,457.6C922.2,457.6,922.2,457.6,922.2,457.6v4.2c0,0,0,0.1,0,0.1c5.1,6.4,10.2,12.9,15.4,19.4l0,0
			l3.1-0.4C934.5,473.1,928.4,465.4,922.2,457.6z"/>
		<path class="st4" d="M952.9,464.5l-11.4,1.4c0.1,0.1,0.1,0.1,0.1,0.2c1,1.2,1.9,2.5,2.9,3.7c0,0,0.1,0.1,0.1,0.1l8.3-1v-0.1
			L952.9,464.5z"/>
		<path class="st4" d="M952.9,475.3l-3.8,0.5l3,3.8l0.8-0.1L952.9,475.3z"/>
		<path class="st4" d="M924.7,483.5l0.6,0.3l-3.4,3.4v4.4l-0.5-0.3V487l-3.4-7.3l0.6,0.3l3,6.5l0,0L924.7,483.5z"/>
		<path class="st4" d="M930.5,496.6c-1.4-0.8-2.6-2-3.4-3.4c-0.8-1.3-1.3-2.7-1.3-4.3c-0.1-1.1,0.4-2.2,1.3-2.7
			c0.9-0.4,2-0.2,3.4,0.5c1.4,0.8,2.5,1.9,3.4,3.3c0.9,1.3,1.3,2.8,1.4,4.3c0,1.5-0.5,2.4-1.4,2.8
			C932.7,497.5,931.5,497.3,930.5,496.6z M930.5,496.1c0.9,0.6,2,0.8,3,0.5c0.8-0.4,1.2-1.2,1.2-2.5c0-1.4-0.5-2.7-1.2-3.9
			c-0.7-1.2-1.8-2.2-3-3c-0.9-0.7-2-0.8-3.1-0.5c-0.9,0.5-1.3,1.5-1.2,2.5c0,1.4,0.5,2.7,1.2,3.8
			C928.2,494.4,929.2,495.4,930.5,496.1L930.5,496.1z"/>
		<path class="st4" d="M943.7,504.1l-0.6-0.4l-2.9-5.7l-2.4-1.4v4.1l-0.5-0.3v-9.7l3.2,1.8c0.9,0.5,1.7,1.2,2.3,2.1
			c0.5,0.7,0.8,1.6,0.8,2.5c0,0.9-0.2,1.4-0.8,1.6c-0.7,0.2-1.4,0-2-0.4l0,0L943.7,504.1z M937.8,491.5v4.7l2.5,1.4
			c1.8,1,2.8,0.8,2.8-0.8c0-0.7-0.2-1.5-0.7-2.1c-0.5-0.7-1.1-1.2-1.8-1.6L937.8,491.5L937.8,491.5z"/>
		<path class="st4" d="M949.7,507.6c-1.4-0.8-2.6-2-3.4-3.4c-0.8-1.3-1.3-2.7-1.3-4.2c-0.1-1.1,0.4-2.2,1.3-2.7
			c0.9-0.4,2-0.2,3.4,0.5c1.4,0.8,2.5,1.9,3.4,3.3c0.9,1.3,1.3,2.8,1.4,4.3c0,1.4-0.5,2.4-1.4,2.8
			C952,508.6,950.7,508.3,949.7,507.6z M949.7,507.1c0.9,0.6,2,0.8,3,0.5c0.8-0.4,1.2-1.2,1.2-2.5c0-1.4-0.5-2.7-1.2-3.9
			c-0.7-1.2-1.8-2.3-3-3c-0.9-0.7-2-0.9-3.1-0.5c-0.9,0.5-1.3,1.5-1.2,2.5c0,1.4,0.5,2.7,1.2,3.8
			C947.4,505.3,948.5,506.4,949.7,507.1L949.7,507.1z"/>
		<path class="st4" d="M956.6,511.4v-9.7l0.5,0.3v9.7L956.6,511.4z"/>
		<path class="st4" d="M933.9,501.7l0.2,0.1l-0.8,1.9l-0.2-0.1l-0.7-2.5l0,0l-0.7,1.7l-0.2-0.1l-0.8-2.9l0.2,0.1l0.7,2.5l0.7-1.7
			l0.2,0.1l0.7,2.5L933.9,501.7z"/>
		<path class="st4" d="M936.7,503.2l0.2,0.1v2.4l-0.2-0.1v-0.5l0,0c-0.2,0.2-0.5,0.2-1,0c-0.3-0.2-0.6-0.5-0.8-0.8
			c-0.2-0.3-0.3-0.6-0.3-1c0-0.3,0.1-0.6,0.3-0.7c0.3-0.1,0.6,0,0.8,0.1c0.2,0.1,0.4,0.3,0.6,0.5c0.2,0.2,0.3,0.4,0.4,0.6l0,0V503.2
			z M935.7,504.9c0.2,0.1,0.5,0.2,0.7,0.1c0.2-0.1,0.3-0.3,0.3-0.6c0-0.7-0.4-1.3-1-1.6c-0.2-0.1-0.5-0.2-0.7-0.1
			c-0.2,0.1-0.3,0.4-0.3,0.6c0,0.3,0.1,0.6,0.3,0.9C935.1,504.5,935.4,504.8,935.7,504.9L935.7,504.9z"/>
		<path class="st4" d="M937.8,506.3v-3.6l0.2,0.1v3.6L937.8,506.3z"/>
		<path class="st4" d="M939.1,507v-3.6l0.2,0.1v3.6L939.1,507z"/>
		<path class="st4" d="M942.3,507.6c0,0,0,0.1,0,0.1l-2-1.1c0,0.3,0.1,0.6,0.3,0.9c0.2,0.3,0.4,0.5,0.7,0.7c0.2,0.2,0.5,0.2,0.8,0.1
			l0.1,0.2c-0.2,0.2-0.5,0.1-0.9-0.1c-0.3-0.2-0.6-0.5-0.8-0.8c-0.2-0.3-0.3-0.7-0.3-1c0-0.4,0.1-0.6,0.3-0.7
			c0.3-0.1,0.6-0.1,0.8,0.1c0.3,0.2,0.6,0.4,0.8,0.8C942.2,506.9,942.3,507.2,942.3,507.6z M941.3,506c-0.2-0.1-0.4-0.2-0.6-0.1
			c-0.2,0.1-0.3,0.3-0.3,0.5l1.8,1c0-0.3-0.1-0.6-0.3-0.8C941.7,506.3,941.5,506.1,941.3,506L941.3,506z"/>
		<path class="st4" d="M943.7,509.7c-0.2-0.1-0.3-0.2-0.4-0.4c-0.1-0.2-0.1-0.4-0.1-0.6v-1.6l-0.3-0.2v-0.2l0.3,0.2v-0.9l0.2,0.1
			v0.9l0.9,0.5v0.2l-0.9-0.5v1.5c0,0.2,0,0.3,0.1,0.5c0.1,0.1,0.2,0.2,0.3,0.3c0.1,0.1,0.3,0.1,0.5,0.1v0.2
			C944,509.8,943.9,509.8,943.7,509.7z"/>
		<line class="st99" x1="917.8" y1="494" x2="929.9" y2="500.9"/>
		<line class="st99" x1="945" y1="509.6" x2="957.2" y2="516.5"/>
		
			<linearGradient id="SVGID_40_" gradientUnits="userSpaceOnUse" x1="906.47" y1="488.4756" x2="936.95" y2="488.4756" gradientTransform="matrix(1 0 0 -1 0 1023.2756)">
			<stop  offset="0" style="stop-color:#17D1AA"/>
			<stop  offset="0.14" style="stop-color:#1DAEB2"/>
			<stop  offset="0.32" style="stop-color:#2487BB"/>
			<stop  offset="0.5" style="stop-color:#2A68C2"/>
			<stop  offset="0.68" style="stop-color:#2E52C7"/>
			<stop  offset="0.85" style="stop-color:#3045CA"/>
			<stop  offset="1" style="stop-color:#3140CB"/>
		</linearGradient>
		<polygon class="st100" points="906.5,514.6 911.2,511.9 937,554.3 932.5,557.7 		"/>
		
			<linearGradient id="SVGID_41_" gradientUnits="userSpaceOnUse" x1="932.44" y1="471.8106" x2="953.68" y2="471.8106" gradientTransform="matrix(1 0 0 -1 0 1023.2756)">
			<stop  offset="0" style="stop-color:#3140CB"/>
			<stop  offset="0.15" style="stop-color:#3045CA"/>
			<stop  offset="0.32" style="stop-color:#2E52C7"/>
			<stop  offset="0.5" style="stop-color:#2A68C2"/>
			<stop  offset="0.68" style="stop-color:#2487BB"/>
			<stop  offset="0.86" style="stop-color:#1DAEB2"/>
			<stop  offset="1" style="stop-color:#17D1AA"/>
		</linearGradient>
		<polyline class="st101" points="936.9,554.3 932.4,557.7 949.4,548.3 953.7,545.2 936.9,554.3 		"/>
		
			<linearGradient id="SVGID_42_" gradientUnits="userSpaceOnUse" x1="884.44" y1="437.9156" x2="974.02" y2="437.9156" gradientTransform="matrix(1 0 0 -1 0 1023.2756)">
			<stop  offset="0" style="stop-color:#17D1AA"/>
			<stop  offset="0.36" style="stop-color:#1FA5B4"/>
			<stop  offset="1" style="stop-color:#1FA5B4"/>
		</linearGradient>
		<polygon class="st102" points="968.1,610.8 974,608 889.9,559.9 884.4,563.4 		"/>
		<polygon class="st4" points="887.1,531.5 906.5,514.6 932.5,557.7 949.4,548.3 960,603.6 887.1,562.7 		"/>
		
			<linearGradient id="SVGID_43_" gradientUnits="userSpaceOnUse" x1="949.44" y1="448.8856" x2="964.3" y2="448.8856" gradientTransform="matrix(1 0 0 -1 0 1023.2756)">
			<stop  offset="0" style="stop-color:#17D1AA"/>
			<stop  offset="0.14" style="stop-color:#1DAEB2"/>
			<stop  offset="0.32" style="stop-color:#2487BB"/>
			<stop  offset="0.5" style="stop-color:#2A68C2"/>
			<stop  offset="0.68" style="stop-color:#2E52C7"/>
			<stop  offset="0.85" style="stop-color:#3045CA"/>
			<stop  offset="1" style="stop-color:#3140CB"/>
		</linearGradient>
		<polyline class="st103" points="960,603.6 964.3,601.5 953.7,545.2 949.4,548.3 960,603.6 		"/>
		<polygon class="st99" points="700.2,699.4 700.2,699.4 700.2,699.4 		"/>
		<path class="st99" d="M891.1,837.2h0.3l0.4-0.1C891.6,837.1,891.4,837.2,891.1,837.2z"/>
		<path class="st99" d="M645.7,695.3c-0.1,0-0.1-0.1-0.1-0.1c-0.1,0-0.1-0.1-0.2-0.2c0,0,0,0,0-0.1l0,0
			C645.4,695.1,645.5,695.2,645.7,695.3z"/>
		<path class="st104" d="M950,789l12.5,7.3l11.3-6.5c0.2-0.1,0.3-0.2,0.4-0.4c0.1-0.1,0.1-0.3,0.1-0.4c0-0.3-0.2-0.6-0.5-0.8
			l-11.2-6.5L950,789z"/>
		<path class="st105" d="M645.1,698.1L645.1,698.1L645.1,698.1z"/>
		<path class="st106" d="M645.2,694.9v3.4c0-0.1-0.1-0.1-0.1-0.2v-3.4C645.1,694.7,645.2,694.8,645.2,694.9z"/>
		<path class="st107" d="M645.7,695.3v3.5c-0.1,0-0.1-0.1-0.1-0.1v-3.5C645.6,695.3,645.6,695.3,645.7,695.3z"/>
		<path class="st4" d="M715.9,656.7v-3.5l11.2-6.5c0.8-0.4,1.8-0.4,2.7,0l11.2,6.5v3.5l-12.6,7.3L715.9,656.7z"/>
		<polygon class="st4" points="735.4,668 735.4,664.5 747.9,657.2 760.5,664.5 760.5,668 747.9,675.3 		"/>
		<polygon class="st4" points="754.9,679.3 754.9,675.8 767.5,668.5 780,675.8 780,679.3 767.4,686.6 		"/>
		<polygon class="st4" points="774.4,690.7 774.4,687.2 787,679.9 799.5,687.1 799.5,690.7 786.9,697.9 		"/>
		<polygon class="st4" points="793.9,702 793.9,698.5 806.5,691.2 819,698.5 819,702 806.5,709.2 		"/>
		<polygon class="st4" points="813.4,713.3 813.4,709.8 826,702.5 838.5,709.8 838.5,713.3 826,720.6 		"/>
		<polygon class="st4" points="833,724.6 832.9,721.1 845.5,713.8 858,721.1 858.1,724.6 845.5,731.9 		"/>
		<polygon class="st4" points="852.5,735.9 852.5,732.4 865,725.1 877.6,732.4 877.6,735.9 865,743.2 		"/>
		<polygon class="st4" points="872,747.2 872,743.7 884.5,736.5 897.1,743.7 897.1,747.2 884.5,754.5 		"/>
		<polygon class="st4" points="891.5,758.5 891.5,755 904.1,747.8 916.6,755 916.6,758.5 904,765.8 		"/>
		<polygon class="st4" points="911,769.9 911,766.4 923.6,759.1 936.1,766.3 936.1,769.9 923.5,777.1 		"/>
		<polygon class="st4" points="930.5,781.2 930.5,777.7 943.1,770.4 955.6,777.7 955.6,781.2 943,788.5 		"/>
		<path class="st4" d="M950,789l12.6-7.3l11.2,6.5c0.3,0.1,0.5,0.4,0.5,0.8v3.5c0,0.3-0.3,0.6-0.6,0.8l-11.3,6.5l-12.5-7.3V789z"/>
		<polygon class="st4" points="711.5,681.8 711.5,678.3 724.1,671 736.6,678.3 736.7,681.8 724.1,689.1 		"/>
		<polygon class="st4" points="756.2,689.6 756.2,693.1 743.6,700.4 731,693.1 731,689.6 743.6,682.3 		"/>
		<polygon class="st4" points="775.7,700.9 775.7,704.4 763.1,711.7 750.6,704.5 750.6,700.9 763.1,693.7 		"/>
		<polygon class="st4" points="795.2,712.2 795.2,715.8 782.6,723 770.1,715.8 770.1,712.2 782.7,705 		"/>
		<polygon class="st4" points="814.7,723.6 814.7,727.1 802.1,734.3 789.6,727.1 789.6,723.6 802.2,716.3 		"/>
		<polygon class="st4" points="834.2,734.9 834.2,738.4 821.7,745.7 809.1,738.4 809.1,734.9 821.7,727.6 		"/>
		<polygon class="st4" points="853.7,746.2 853.7,749.7 841.2,757 828.6,749.7 828.6,746.2 841.2,738.9 		"/>
		<polygon class="st4" points="873.2,757.5 873.3,761 860.7,768.3 848.2,761 848.1,757.5 860.7,750.2 		"/>
		<polygon class="st4" points="892.8,768.8 892.8,772.3 880.2,779.6 867.7,772.3 867.6,768.8 880.2,761.5 		"/>
		<polygon class="st4" points="912.3,780.1 912.3,783.7 899.7,790.9 887.2,783.7 887.2,780.2 899.8,772.9 		"/>
		<polygon class="st4" points="931.8,791.5 931.8,795 919.2,802.2 906.7,795 906.7,791.5 919.3,784.2 		"/>
		<polygon class="st4" points="926.2,802.8 938.8,795.5 951.3,802.8 951.3,806.3 938.7,813.6 926.2,806.3 		"/>
		<polygon class="st4" points="707.2,706.9 707.2,703.4 719.8,696.1 732.3,703.4 732.3,706.9 719.8,714.2 		"/>
		<polygon class="st4" points="726.7,718.2 726.7,714.7 739.3,707.5 751.8,714.7 751.8,718.2 739.3,725.5 		"/>
		<polygon class="st4" points="746.2,729.6 746.2,726 758.8,718.8 771.3,726 771.4,729.5 758.8,736.8 		"/>
		<polygon class="st4" points="765.8,740.9 765.8,737.4 778.3,730.1 790.9,737.3 790.9,740.9 778.3,748.1 		"/>
		<polygon class="st4" points="785.3,752.2 785.3,748.7 797.8,741.4 810.4,748.7 810.4,752.2 797.8,759.5 		"/>
		<polygon class="st4" points="804.8,763.5 804.8,760 817.4,752.7 829.9,760 829.9,763.5 817.3,770.8 		"/>
		<polygon class="st4" points="824.3,774.8 824.3,771.3 836.9,764 849.4,771.3 849.4,774.8 836.8,782.1 		"/>
		<polygon class="st4" points="843.8,786.1 843.8,782.6 856.4,775.3 868.9,782.6 868.9,786.1 856.3,793.4 		"/>
		<polygon class="st4" points="863.3,797.5 863.3,793.9 875.9,786.7 888.5,793.9 888.5,797.4 875.9,804.7 		"/>
		<polygon class="st4" points="882.8,808.8 882.8,805.3 895.4,798 908,805.2 908,808.8 895.4,816 		"/>
		<path class="st4" d="M645.1,694.7c0,0.1,0,0.2,0.1,0.2c0,0,0,0,0,0.1c-0.2-0.4-0.1-0.8,0.4-1.2l11.3-6.5l12.5,7.3v3.5l-12.6,7.3
			l-11.2-6.5c-0.1,0-0.1-0.1-0.1-0.1c-0.1,0-0.1-0.1-0.2-0.2h0l0,0c0,0,0-0.1,0-0.2c0-0.1-0.1-0.1-0.1-0.2l0,0L645.1,694.7
			L645.1,694.7z"/>
		<polygon class="st4" points="689,705.9 689,709.4 676.4,716.7 663.9,709.4 663.9,705.9 676.5,698.6 		"/>
		<polygon class="st4" points="708.5,717.2 708.5,720.7 695.9,728 683.4,720.7 683.4,717.2 696,709.9 		"/>
		<polygon class="st4" points="728,728.5 728,732 715.4,739.3 702.9,732 702.9,728.5 715.5,721.2 		"/>
		<polygon class="st4" points="825.6,785.1 825.6,788.6 813,795.9 722.4,743.3 722.4,739.8 735,732.6 		"/>
		<polygon class="st4" points="845.1,796.4 845.1,799.9 832.5,807.2 820,799.9 820,796.4 832.6,789.1 		"/>
		<polygon class="st4" points="864.6,807.7 864.6,811.2 852,818.5 839.5,811.2 839.5,807.7 852.1,800.5 		"/>
		<polygon class="st4" points="884.1,819 884.1,822.5 871.5,829.8 859,822.6 859,819 871.6,811.8 		"/>
		<path class="st4" d="M903.7,830.3v3.5l-11.3,6.5l0,0c-0.1,0-0.2,0.1-0.3,0.1c-0.1,0-0.2,0.1-0.3,0.1s-0.2,0-0.3,0h-0.3H891
			c0,0-0.1,0-0.1,0c-0.3,0-0.5-0.1-0.8-0.2c0,0-0.1-0.1-0.2-0.1l-0.2-0.1l-11.2-6.5v-3.5l12.6-7.3L903.7,830.3z"/>
		<polygon class="st4" points="700.4,699.5 700.2,699.4 700.3,699.3 		"/>
		<path class="st4" d="M673.9,677.5L673.9,677.5l-0.1,0.1L673.9,677.5z"/>
		<path class="st4" d="M951.3,802.8v3.5l-27.9,16.1c-5.3,3-11.7,3-17,0l-23.6-13.7v-3.5l12.6-7.3l19.6,11.3l23.8-13.8L951.3,802.8z"
			/>
		<polygon class="st108" points="728.4,660.5 741,653.2 741,656.7 728.4,664 		"/>
		<polygon class="st108" points="747.9,671.8 760.5,664.5 760.5,668 747.9,675.3 		"/>
		<polygon class="st108" points="767.4,683.1 780,675.8 780,679.3 767.4,686.6 		"/>
		<polygon class="st108" points="786.9,694.4 799.5,687.1 799.5,690.7 786.9,697.9 		"/>
		<polygon class="st108" points="806.4,705.7 819,698.5 819,702 806.5,709.2 		"/>
		<polygon class="st108" points="826,717 838.5,709.8 838.5,713.3 826,720.6 		"/>
		<polygon class="st108" points="845.5,728.4 858,721.1 858.1,724.6 845.5,731.9 		"/>
		<polygon class="st108" points="865,739.7 877.6,732.4 877.6,735.9 865,743.2 		"/>
		<polygon class="st108" points="884.5,751 897.1,743.7 897.1,747.2 884.5,754.5 		"/>
		<polygon class="st108" points="904,762.3 916.6,755 916.6,758.5 904,765.8 		"/>
		<polygon class="st108" points="923.5,773.6 936.1,766.3 936.1,769.9 923.5,777.1 		"/>
		<polygon class="st108" points="943,784.9 955.6,777.7 955.6,781.2 943,788.5 		"/>
		<path class="st108" d="M962.5,796.2v3.5l11.3-6.5c0.3-0.1,0.5-0.4,0.6-0.8V789c0,0.1-0.1,0.3-0.1,0.4c-0.1,0.2-0.2,0.3-0.4,0.4
			L962.5,796.2z"/>
		<polygon class="st108" points="724.1,685.6 736.6,678.3 736.7,681.8 724.1,689.1 		"/>
		<polygon class="st108" points="756.2,689.6 756.2,693.1 743.6,700.4 743.6,696.9 		"/>
		<polygon class="st108" points="775.7,700.9 775.7,704.4 763.1,711.7 763.1,708.2 		"/>
		<polygon class="st108" points="795.2,712.2 795.2,715.8 782.6,723 782.6,719.5 		"/>
		<polygon class="st108" points="814.7,723.6 814.7,727.1 802.1,734.3 802.1,730.8 		"/>
		<polygon class="st108" points="834.2,734.9 834.2,738.4 821.7,745.7 821.6,742.2 		"/>
		<polygon class="st108" points="853.7,746.2 853.7,749.7 841.2,757 841.1,753.5 		"/>
		<polygon class="st108" points="873.2,757.5 873.3,761 860.7,768.3 860.7,764.8 		"/>
		<polygon class="st108" points="892.8,768.8 892.8,772.3 880.2,779.6 880.2,776.1 		"/>
		<polygon class="st108" points="912.3,780.1 912.3,783.7 899.7,790.9 899.7,787.4 		"/>
		<polygon class="st108" points="931.8,791.5 931.8,795 919.2,802.2 919.2,798.7 		"/>
		<polygon class="st108" points="719.7,710.7 732.3,703.4 732.3,706.9 719.8,714.2 		"/>
		<polygon class="st108" points="739.3,722 751.8,714.7 751.8,718.2 739.3,725.5 		"/>
		<polygon class="st108" points="758.8,733.3 771.3,726 771.4,729.5 758.8,736.8 		"/>
		<polygon class="st108" points="778.3,744.6 790.9,737.3 790.9,740.9 778.3,748.1 		"/>
		<polygon class="st108" points="797.8,756 810.4,748.7 810.4,752.2 797.8,759.5 		"/>
		<polygon class="st108" points="817.3,767.3 829.9,760 829.9,763.5 817.3,770.8 		"/>
		<polygon class="st108" points="836.8,778.6 849.4,771.3 849.4,774.8 836.8,782.1 		"/>
		<polygon class="st108" points="856.3,789.9 868.9,782.6 868.9,786.1 856.3,793.4 		"/>
		<polygon class="st108" points="875.9,801.2 888.5,793.9 888.5,797.4 875.9,804.7 		"/>
		<path class="st108" d="M645.2,695L645.2,695L645.2,695C645.2,695,645.2,695,645.2,695v3.5h0l0,0c0,0,0-0.1,0-0.2L645.2,695
			C645.2,695,645.2,695,645.2,695z"/>
		<path class="st108" d="M645.5,695.2v3.5c-0.1,0-0.1-0.1-0.2-0.2v-3.5C645.4,695.1,645.5,695.2,645.5,695.2z"/>
		<polygon class="st108" points="669.5,694.6 669.5,698.1 656.9,705.4 656.9,701.8 		"/>
		<polygon class="st108" points="689,705.9 689,709.4 676.4,716.7 676.4,713.2 		"/>
		<polygon class="st108" points="708.5,717.2 708.5,720.7 695.9,728 695.9,724.5 		"/>
		<polygon class="st108" points="728,728.5 728,732 715.4,739.3 715.4,735.8 		"/>
		<polygon class="st108" points="825.6,785.1 825.6,788.6 813,795.9 813,792.4 		"/>
		<polygon class="st108" points="845.1,796.4 845.1,799.9 832.5,807.2 832.5,803.7 		"/>
		<polygon class="st108" points="864.6,807.7 864.6,811.2 852,818.5 852,815 		"/>
		<polygon class="st108" points="884.1,819 884.1,822.5 871.5,829.8 871.5,826.3 		"/>
		<path class="st108" d="M891.4,837.2l0.4-0.1l0.3-0.1c0.1,0,0.2-0.1,0.3-0.2l0,0l11.3-6.5v3.5l-11.3,6.5l0,0
			c-0.1,0-0.2,0.1-0.3,0.1c-0.1,0-0.2,0.1-0.3,0.1s-0.2,0-0.3,0h-0.3H891v-3.5L891.4,837.2z"/>
		<path class="st108" d="M882.8,808.8l24.8,14.3c0,0,7.6,4,15-0.2l28.7-16.6v-3.5l-29.2,17c0,0-7.1,3.5-14.1,0.1l-25.1-14.7
			L882.8,808.8z"/>
		<polygon class="st108" points="728.4,664 715.9,656.7 715.9,653.2 728.4,660.5 		"/>
		<polygon class="st108" points="747.9,675.3 735.4,668 735.4,664.5 747.9,671.8 		"/>
		<polygon class="st108" points="767.4,686.6 754.9,679.3 754.9,675.8 767.4,683.1 		"/>
		<polygon class="st108" points="786.9,697.9 774.4,690.7 774.4,687.2 786.9,694.4 		"/>
		<polygon class="st108" points="806.5,709.2 793.9,702 793.9,698.5 806.4,705.7 		"/>
		<polygon class="st108" points="826,720.6 813.4,713.3 813.4,709.8 826,717 		"/>
		<polygon class="st108" points="845.5,731.9 833,724.6 832.9,721.1 845.5,728.4 		"/>
		<polygon class="st108" points="865,743.2 852.5,735.9 852.5,732.4 865,739.7 		"/>
		<polygon class="st108" points="884.5,754.5 872,747.2 872,743.7 884.5,751 		"/>
		<polygon class="st108" points="904,765.8 891.5,758.5 891.5,755 904,762.3 		"/>
		<polygon class="st108" points="923.5,777.1 911,769.9 911,766.4 923.5,773.6 		"/>
		<polygon class="st108" points="943,788.5 930.5,781.2 930.5,777.7 943,784.9 		"/>
		<polygon class="st108" points="950,789 950,792.5 962.5,799.8 962.5,796.2 		"/>
		<polygon class="st108" points="724.1,689.1 711.5,681.8 711.5,678.3 724.1,685.6 		"/>
		<polygon class="st108" points="743.6,700.4 731,693.1 731,689.6 743.6,696.9 		"/>
		<polygon class="st108" points="763.1,711.7 750.6,704.5 750.6,700.9 763.1,708.2 		"/>
		<polygon class="st108" points="782.6,723 770.1,715.8 770.1,712.2 782.6,719.5 		"/>
		<polygon class="st108" points="802.1,734.3 789.6,727.1 789.6,723.6 802.1,730.8 		"/>
		<polygon class="st108" points="821.7,745.7 809.1,738.4 809.1,734.9 821.6,742.2 		"/>
		<polygon class="st108" points="841.2,757 828.6,749.7 828.6,746.2 841.1,753.5 		"/>
		<polygon class="st108" points="860.7,768.3 848.2,761 848.1,757.5 860.7,764.8 		"/>
		<polygon class="st108" points="880.2,779.6 867.7,772.3 867.6,768.8 880.2,776.1 		"/>
		<polygon class="st108" points="899.7,790.9 887.2,783.7 887.2,780.2 899.7,787.4 		"/>
		<polygon class="st108" points="919.2,802.2 906.7,795 906.7,791.5 919.2,798.7 		"/>
		<polygon class="st108" points="719.8,714.2 707.2,706.9 707.2,703.4 719.7,710.7 		"/>
		<polygon class="st108" points="739.3,725.5 726.7,718.2 726.7,714.7 739.3,722 		"/>
		<polygon class="st108" points="758.8,736.8 746.2,729.6 746.2,726 758.8,733.3 		"/>
		<polygon class="st108" points="778.3,748.1 765.8,740.9 765.8,737.4 778.3,744.6 		"/>
		<polygon class="st108" points="797.8,759.5 785.3,752.2 785.3,748.7 797.8,756 		"/>
		<polygon class="st108" points="817.3,770.8 804.8,763.5 804.8,760 817.3,767.3 		"/>
		<polygon class="st108" points="836.8,782.1 824.3,774.8 824.3,771.3 836.8,778.6 		"/>
		<polygon class="st108" points="856.3,793.4 843.8,786.1 843.8,782.6 856.3,789.9 		"/>
		<polygon class="st108" points="875.9,804.7 863.3,797.5 863.3,793.9 875.9,801.2 		"/>
		<polygon class="st108" points="656.9,701.8 656.9,705.4 645.7,698.8 645.7,695.3 		"/>
		<polygon class="st108" points="676.4,716.7 663.9,709.4 663.9,705.9 676.4,713.2 		"/>
		<polygon class="st108" points="695.9,728 683.4,720.7 683.4,717.2 695.9,724.5 		"/>
		<polygon class="st108" points="715.4,739.3 702.9,732 702.9,728.5 715.4,735.8 		"/>
		<polygon class="st108" points="813,795.9 722.4,743.3 722.4,739.8 813,792.4 		"/>
		<polygon class="st108" points="832.5,807.2 820,799.9 820,796.4 832.5,803.7 		"/>
		<polygon class="st108" points="852,818.5 839.5,811.2 839.5,807.7 852,815 		"/>
		<polygon class="st108" points="871.5,829.8 859,822.6 859,819 871.5,826.3 		"/>
		<path class="st108" d="M889.7,836.9l0.2,0.1h0.1c0.2,0.1,0.5,0.2,0.8,0.2c0,0,0.1,0,0.1,0c0,0,0.1,0,0.1,0l0,0v3.5h0
			c0,0-0.1,0-0.1,0c-0.3,0-0.5-0.1-0.8-0.2c0,0-0.1-0.1-0.2-0.1l-0.2-0.1l-11.2-6.5v-3.5L889.7,836.9z"/>
		<polygon class="st4" points="686.9,695.4 686.9,691.9 699.5,684.6 712,691.9 712,695.4 699.5,702.7 		"/>
		<polygon class="st108" points="699.4,699.2 712,691.9 712,695.4 699.5,702.7 		"/>
		<polygon class="st108" points="699.5,702.7 686.9,695.4 686.9,691.9 699.4,699.2 		"/>
		<polygon class="st4" points="668.1,683.5 668.1,680 680.6,672.7 693.2,680 693.2,683.5 680.6,690.8 		"/>
		<polygon class="st108" points="680.6,687.3 693.2,680 693.2,683.5 680.6,690.8 		"/>
		<polygon class="st108" points="680.6,690.8 668.1,683.5 668.1,680 680.6,687.3 		"/>
		<polygon class="st4" points="691.7,670.3 691.7,666.8 704.2,659.5 716.8,666.8 716.8,670.3 704.2,677.6 		"/>
		<polygon class="st108" points="704.2,674.1 716.8,666.8 716.8,670.3 704.2,677.6 		"/>
		<polygon class="st108" points="704.2,677.6 691.7,670.3 691.7,666.8 704.2,674.1 		"/>
		<path class="st4" d="M1171.1,531.5l-9.7-3.2l0.3,3.2l-87.2,49.2l-23.6-12.9c0,0-19.8-7.8-34.6,14.6l57.9,11.8L1171.1,531.5z"/>
		
			<linearGradient id="SVGID_44_" gradientUnits="userSpaceOnUse" x1="1012.18" y1="408.0043" x2="1074.61" y2="408.0043" gradientTransform="matrix(1 0 0 -1 0 1023.2756)">
			<stop  offset="0" style="stop-color:#17D1AA"/>
			<stop  offset="0.41" style="stop-color:#1EADB3"/>
			<stop  offset="1" style="stop-color:#287FBF"/>
		</linearGradient>
		<path class="st109" d="M1074.6,659.7l-37.2-20.6c-15.5-8.6-25.2-25-25.2-42.7l0,0c0-14.1,11.4-25.6,25.6-25.6
			c4.3,0,8.6,1.1,12.4,3.2l24.4,13.5L1074.6,659.7z"/>
		
			<linearGradient id="SVGID_45_" gradientUnits="userSpaceOnUse" x1="1045.2375" y1="435.5849" x2="1047.1075" y2="400.3749" gradientTransform="matrix(1 0 0 -1 1.061585e-02 1023.2762)">
			<stop  offset="0" style="stop-color:#17D1AA"/>
			<stop  offset="0.14" style="stop-color:#1DAEB2"/>
			<stop  offset="0.32" style="stop-color:#2487BB"/>
			<stop  offset="0.5" style="stop-color:#2A68C2"/>
			<stop  offset="0.68" style="stop-color:#2E52C7"/>
			<stop  offset="0.85" style="stop-color:#3045CA"/>
			<stop  offset="1" style="stop-color:#3140CB"/>
		</linearGradient>
		<path class="st110" d="M1035.6,593.8c5.4-4.1,14.7-1,20.6,6.9c5.9,7.9,6.4,17.6,0.9,21.7s-14.7,1-20.6-6.9
			C1030.6,607.6,1030.1,597.8,1035.6,593.8z"/>
		
			<linearGradient id="SVGID_46_" gradientUnits="userSpaceOnUse" x1="1083.3501" y1="449.3359" x2="1160.2101" y2="407.1259" gradientTransform="matrix(1 0 0 -1 0 1023.2756)">
			<stop  offset="0" style="stop-color:#17D1AA"/>
			<stop  offset="0.14" style="stop-color:#1DAEB2"/>
			<stop  offset="0.32" style="stop-color:#2487BB"/>
			<stop  offset="0.5" style="stop-color:#2A68C2"/>
			<stop  offset="0.68" style="stop-color:#2E52C7"/>
			<stop  offset="0.85" style="stop-color:#3045CA"/>
			<stop  offset="1" style="stop-color:#3140CB"/>
		</linearGradient>
		<polygon class="st111" points="1171.1,603.7 1074.6,659.8 1074.6,587.6 1171.1,531.5 		"/>
		
			<linearGradient id="SVGID_47_" gradientUnits="userSpaceOnUse" x1="971.0385" y1="405.9856" x2="971.0985" y2="414.8356" gradientTransform="matrix(1 0 0 -1 0 1023.2756)">
			<stop  offset="4.000000e-02" style="stop-color:#2390B9"/>
			<stop  offset="0.1" style="stop-color:#2587BB"/>
			<stop  offset="0.34" style="stop-color:#2A68C2"/>
			<stop  offset="0.57" style="stop-color:#2E52C7"/>
			<stop  offset="0.8" style="stop-color:#3045CA"/>
			<stop  offset="1" style="stop-color:#3140CB"/>
		</linearGradient>
		<polygon class="st112" points="968.1,617.3 974,614.5 974,608 968.1,610.8 		"/>
		
			<linearGradient id="SVGID_48_" gradientUnits="userSpaceOnUse" x1="878.81" y1="535.8106" x2="888.52" y2="535.8106" gradientTransform="matrix(1 0 0 -1 0 1023.2756)">
			<stop  offset="0" style="stop-color:#17D1AA"/>
			<stop  offset="0.14" style="stop-color:#1DAEB2"/>
			<stop  offset="0.32" style="stop-color:#2487BB"/>
			<stop  offset="0.5" style="stop-color:#2A68C2"/>
			<stop  offset="0.68" style="stop-color:#2E52C7"/>
			<stop  offset="0.85" style="stop-color:#3045CA"/>
			<stop  offset="1" style="stop-color:#3140CB"/>
		</linearGradient>
		<polygon class="st113" points="878.8,486.7 882.6,484.5 888.5,488.2 884.4,490.5 		"/>
	</g>
</g>
</svg>
