<?xml version="1.0" encoding="UTF-8"?>
<svg width="24px" height="24px" viewBox="0 0 24 24" version="1.1" xmlns="http://www.w3.org/2000/svg" xmlns:xlink="http://www.w3.org/1999/xlink">
    <!-- Generator: Sketch 52.6 (67491) - http://www.bohemiancoding.com/sketch -->
    <title>icon/add-memo.inline</title>
    <desc>Created with Sketch.</desc>
    <g id="icon/add-memo.inline" stroke="none" stroke-width="1" fill="none" fill-rule="evenodd">
        <g id="edit" transform="translate(0.000000, 1.000000)" fill-rule="nonzero">
            <path d="M20.2389277,12.6031292 C20.6381679,12.6031292 20.9580711,12.9375735 20.9580711,13.3458701 L20.958071,18.1652437 C20.9563313,19.7716393 19.7078189,21.0769022 18.162354,21.0787313 L3.59548034,21.0787312 C2.05025217,21.0769022 0.801739774,19.7716393 0.8,18.1650271 L0.800000117,4.02132344 C0.801739774,2.4149279 2.05025217,1.10966496 3.59571707,1.10783582 L8.20514274,1.10783582 C8.60432562,1.10783582 8.92428615,1.44243029 8.92428615,1.85057666 C8.92428615,2.25887326 8.60438299,2.5933175 8.20514274,2.5933175 L3.59596363,2.59331735 C2.84851031,2.59423884 2.23917849,3.23132486 2.23828683,4.02154003 L2.2382867,18.1645896 C2.23917851,18.9552337 2.848492,19.5923006 3.59571707,19.5930377 L18.1621567,19.5930378 C18.909579,19.5923006 19.5188925,18.9552337 19.5197842,18.1648151 L19.5197842,13.3458701 C19.5197842,12.9375735 19.8396874,12.6031292 20.2389277,12.6031292 Z" id="Path" fill="#4A4A4A"></path>
            <path d="M21.0262166,0.786905284 C19.9770095,-0.262301761 18.2759834,-0.262301761 17.2267763,0.786905284 L6.57565686,11.4380247 C6.50266248,11.5110191 6.44995722,11.6015042 6.4224386,11.7008512 L5.02178564,16.757521 C4.96418301,16.9648437 5.02271842,17.1868587 5.17477071,17.3391441 C5.32705615,17.4911963 5.54907107,17.5497318 5.75639382,17.4923624 L10.8130636,16.0914762 C10.9124106,16.0639575 11.0028957,16.0112523 11.0758901,15.9382579 L21.7267763,5.28690528 C22.7743509,4.2369986 22.7743509,2.53737173 21.7267763,1.48746499 L21.0262166,0.786905284 Z M7.87649645,11.8260844 L16.5936139,3.10873364 L19.4049479,5.92006761 L10.6875972,14.6374184 L7.87649645,11.8260844 Z M7.31492928,12.9529501 L9.56096474,15.1992187 L6.45415501,16.059993 L7.31492928,12.9529501 Z M20.8825598,4.44268887 L20.2493976,5.07585119 L17.4378304,2.26428403 L18.0712259,1.6311217 C18.6540151,1.04833251 19.5989778,1.04833251 20.181767,1.6311217 L20.8825598,2.3316814 C21.4644162,2.91517024 21.4644162,3.85943328 20.8825598,4.44268887 Z" id="Shape" fill="#464749"></path>
        </g>
    </g>
</svg>