<?xml version="1.0" encoding="UTF-8"?>
<svg width="2671px" height="1064px" viewBox="0 0 2671 1064" version="1.1" xmlns="http://www.w3.org/2000/svg" xmlns:xlink="http://www.w3.org/1999/xlink">
    <!-- Generator: Sketch 52.2 (67145) - http://www.bohemiancoding.com/sketch -->
    <title>yoroi-bg.inline</title>
    <desc>Created with Sketch.</desc>
    <defs>
        <linearGradient x1="0%" y1="50.0837521%" x2="100%" y2="50.0837521%" id="linearGradient-1">
            <stop stop-color="#17D1AA" offset="0%"></stop>
            <stop stop-color="#1DAEB2" offset="14%"></stop>
            <stop stop-color="#2487BB" offset="32%"></stop>
            <stop stop-color="#2A68C2" offset="50%"></stop>
            <stop stop-color="#2E52C7" offset="68%"></stop>
            <stop stop-color="#3045CA" offset="85%"></stop>
            <stop stop-color="#3140CB" offset="100%"></stop>
        </linearGradient>
        <linearGradient x1="-0.729602794%" y1="63.1572197%" x2="105.746368%" y2="-16.9449957%" id="linearGradient-2">
            <stop stop-color="#1D45BA" offset="0%"></stop>
            <stop stop-color="#1F47BC" offset="6%"></stop>
            <stop stop-color="#2C51C7" offset="55%"></stop>
            <stop stop-color="#3154CB" offset="100%"></stop>
        </linearGradient>
        <linearGradient x1="0.425616882%" y1="64.8836202%" x2="105.624281%" y2="-17.9003066%" id="linearGradient-3">
            <stop stop-color="#3154CB" offset="0%"></stop>
            <stop stop-color="#3154CB" stop-opacity="0.97" offset="10%"></stop>
            <stop stop-color="#3154CB" stop-opacity="0.87" offset="25%"></stop>
            <stop stop-color="#3154CB" stop-opacity="0.71" offset="43%"></stop>
            <stop stop-color="#3154CB" stop-opacity="0.49" offset="63%"></stop>
            <stop stop-color="#3154CB" stop-opacity="0.21" offset="85%"></stop>
            <stop stop-color="#3154CB" stop-opacity="0" offset="100%"></stop>
        </linearGradient>
        <linearGradient x1="2.85337132%" y1="65.3433482%" x2="105.006341%" y2="-22.3853284%" id="linearGradient-4">
            <stop stop-color="#4968D6" offset="0%"></stop>
            <stop stop-color="#4565D4" stop-opacity="0.95" offset="10%"></stop>
            <stop stop-color="#3B5CCF" stop-opacity="0.81" offset="42%"></stop>
            <stop stop-color="#3457CC" stop-opacity="0.73" offset="69%"></stop>
            <stop stop-color="#3255CB" stop-opacity="0.7" offset="88%"></stop>
            <stop stop-color="#3255CB" stop-opacity="0.61" offset="89%"></stop>
            <stop stop-color="#3154CB" stop-opacity="0.44" offset="92%"></stop>
            <stop stop-color="#3154CB" stop-opacity="0.31" offset="95%"></stop>
            <stop stop-color="#3154CB" stop-opacity="0.23" offset="98%"></stop>
            <stop stop-color="#3154CB" stop-opacity="0.2" offset="100%"></stop>
        </linearGradient>
    </defs>
    <g id="yoroi-bg.inline" stroke="none" stroke-width="1" fill="none" fill-rule="evenodd">
        <g id="yoroi-bg" transform="translate(-81.000000, -34.000000)">
            <g id="add_wallet_1" transform="translate(2669.000000, 847.000000)" fill="url(#linearGradient-1)">
                <polygon id="Path" points="0.72 3 4.53 0.82 10.43 4.55 6.35 6.79"></polygon>
            </g>
            <g id="add_wallet">
                <path d="M2099,32 L2751.6,32 L916.82,1089.33 C909.27,1093.5 897.55,1098.73 889.01,1097.53 C880.26,1096.29 851.3,1079.53 851.3,1079.53 L60.3,628.8 L88.8,36.28 L2099,32 Z" id="Path" fill="url(#linearGradient-2)"></path>
                <path d="M2099.3,5.73 L2479.01,0 L880.97,918.73 C873.42,922.9 861.7,928.14 853.17,926.93 C844.41,925.7 815.45,908.93 815.45,908.93 L30,461.42 L89.1,10.01 L2099.3,5.73 Z" id="Path" fill="url(#linearGradient-3)"></path>
                <path d="M1881.68,30.91 L2099.18,28 L853.49,747.78 C845.95,751.95 834.23,757.18 825.69,755.98 C816.93,754.74 787.98,737.98 787.98,737.98 L16.37,298.32 L0,31.74 L1881.68,30.91 Z" id="Path" fill="url(#linearGradient-4)"></path>
            </g>
        </g>
    </g>
</svg>