<?xml version="1.0" encoding="UTF-8"?>
<svg width="20px" height="20px" viewBox="0 0 20 20" version="1.1" xmlns="http://www.w3.org/2000/svg" xmlns:xlink="http://www.w3.org/1999/xlink">
    <!-- Generator: Sketch 52.6 (67491) - http://www.bohemiancoding.com/sketch -->
    <title>icon/attention.inline</title>
    <desc>Created with Sketch.</desc>
    <g id="icon/attention.inline" stroke="none" stroke-width="1" fill="none" fill-rule="evenodd">
        <rect id="Rectangle" opacity="0" x="0" y="0" width="20" height="20"></rect>
        <g id="attention" transform="translate(1.000000, 2.000000)" fill="#FF1351">
            <path d="M9,2.67686384 L2.2093688,14.9 L15.7906312,14.9 L9,2.67686384 Z M9.87415728,1.5734831 L17.1746428,14.7143571 C17.442856,15.1971408 17.2689122,15.8059441 16.7861285,16.0741573 C16.6375705,16.1566895 16.4704298,16.2 16.3004855,16.2 L1.69951446,16.2 C1.14722971,16.2 0.69951446,15.7522847 0.69951446,15.2 C0.69951446,15.0300558 0.742824961,14.8629151 0.825357184,14.7143571 L8.12584272,1.5734831 C8.39405591,1.09069936 9.0028592,0.916755567 9.48564293,1.18496875 C9.648883,1.27565768 9.78346835,1.41024303 9.87415728,1.5734831 Z" id="Triangle" fill-rule="nonzero"></path>
            <path d="M8.31148385,6.48060268 C8.31148385,6.28658913 8.37742621,6.13690792 8.50946983,6.03140014 C8.64135455,5.92589237 8.8121691,5.87313848 9.02207237,5.87313848 C9.23181674,5.87313848 9.38610598,5.92795803 9.48430448,6.03775603 C9.58266188,6.14755403 9.63192003,6.29501068 9.63192003,6.48060268 C9.63192003,7.08822577 9.62127391,7.37058619 9.60077616,8.74568302 C9.57980173,10.1207798 9.5696323,10.5542516 9.5696323,11.1615569 C9.5696323,11.2883569 9.51020473,11.3875087 9.39166738,11.4591714 C9.27297113,11.5306752 9.14982576,11.5667448 9.02207237,11.5667448 C8.64802823,11.5667448 8.46100617,11.4316822 8.46100617,11.1615569 C8.46100617,10.5542516 8.4360593,10.1207798 8.38632446,8.74568302 C8.33643072,7.37042729 8.31148385,7.08806687 8.31148385,6.48060268 M8.23680214,13.1882913 C8.23680214,12.9979324 8.3145029,12.836175 8.46974552,12.7030191 C8.62498813,12.5698632 8.81391697,12.5029675 9.03573753,12.5029675 C9.23118115,12.5029675 9.40008893,12.5698632 9.54246087,12.7030191 C9.68499171,12.836175 9.75633657,12.9979324 9.75633657,13.1882913 C9.75633657,13.3708643 9.68499171,13.5307149 9.54246087,13.6676843 C9.40008893,13.8048127 9.23102226,13.8731385 9.03573753,13.8731385 C8.81375807,13.8731385 8.62498813,13.8048127 8.46974552,13.6676843 C8.3145029,13.5307149 8.23680214,13.3708643 8.23680214,13.1882913" id="Fill-1"></path>
        </g>
    </g>
</svg>