<?xml version="1.0" encoding="UTF-8"?>
<svg width="20px" height="20px" viewBox="0 0 20 20" version="1.1" xmlns="http://www.w3.org/2000/svg" xmlns:xlink="http://www.w3.org/1999/xlink">
    <!-- Generator: Sketch 52.6 (67491) - http://www.bohemiancoding.com/sketch -->
    <title>icon/copied</title>
    <desc>Created with Sketch.</desc>
    <g id="icon/copied" stroke="none" stroke-width="1" fill="none" fill-rule="evenodd">
        <rect id="Rectangle" fill="#D8D8D8" opacity="0" x="0" y="0" width="20" height="20"></rect>
        <g id="coppied" transform="translate(3.000000, 3.000000)" fill="#464749" fill-rule="nonzero">
            <path d="M7.15909091,10.5541801 L10.5948272,7.07435391 C10.6927096,6.97521536 10.8527449,6.97521536 10.9506274,7.07435391 L11.4279001,7.55775135 C11.5240333,7.65511819 11.5240333,7.8116767 11.4279001,7.90904354 L7.33699102,12.0524502 C7.23910858,12.1515888 7.07907324,12.1515888 6.9811908,12.0524502 L5.07209989,10.1188604 C4.9759667,10.0214936 4.9759667,9.86493508 5.07209989,9.76756825 L5.54937261,9.2841708 C5.64725506,9.18503226 5.8072904,9.18503226 5.90517284,9.2841708 L7.15909091,10.5541801 Z" id="Path"></path>
            <path d="M9.57894737,0 L1.36842105,0 C0.615789474,0 0,0.613636364 0,1.36363636 L0,10.9090909 L1.36842105,10.9090909 L1.36842105,1.36363636 L9.57894737,1.36363636 L9.57894737,0 Z M11.6315789,2.72727273 L4.10526316,2.72727273 C3.35263158,2.72727273 2.73684211,3.34090909 2.73684211,4.09090909 L2.73684211,13.6363636 C2.73684211,14.3863636 3.35263158,15 4.10526316,15 L11.6315789,15 C12.3842105,15 13,14.3863636 13,13.6363636 L13,4.09090909 C13,3.34090909 12.3842105,2.72727273 11.6315789,2.72727273 Z M11.6315789,13.6363636 L4.10526316,13.6363636 L4.10526316,4.09090909 L11.6315789,4.09090909 L11.6315789,13.6363636 Z" id="Shape"></path>
        </g>
    </g>
</svg>