<?xml version="1.0" encoding="utf-8"?>
<!-- Generator: Adobe Illustrator 16.0.0, SVG Export Plug-In . SVG Version: 6.00 Build 0)  -->
<!DOCTYPE svg PUBLIC "-//W3C//DTD SVG 1.1//EN" "http://www.w3.org/Graphics/SVG/1.1/DTD/svg11.dtd">
<svg version="1.1" id="Layer_1" xmlns="http://www.w3.org/2000/svg" xmlns:xlink="http://www.w3.org/1999/xlink" x="0px" y="0px"
	 width="600px" height="600px" viewBox="0 0 600 600" enable-background="new 0 0 600 600" xml:space="preserve">
<g>
	<g>
		<g>
			<g>
				<path fill="#DAA49A" d="M589.971,474.857L345.797,69.912c-9.62-15.953-27.168-25.863-45.797-25.863s-36.177,9.911-45.798,25.865
					L10.029,474.857C0.087,491.346-0.207,512.004,9.26,528.77c9.471,16.766,27.312,27.182,46.565,27.182h488.348
					c19.254,0,37.097-10.416,46.566-27.184C600.208,512.002,599.914,491.344,589.971,474.857z M556.993,509.711
					c-2.606,4.615-7.52,7.482-12.819,7.482H55.826c-5.301,0-10.213-2.867-12.818-7.48c-2.605-4.617-2.524-10.305,0.21-14.842
					L287.395,89.926c2.647-4.391,7.479-7.12,12.606-7.12s9.958,2.729,12.606,7.12l244.173,404.945
					C559.518,499.41,559.6,505.096,556.993,509.711z"/>
			</g>
		</g>
	</g>
	<g>
		<g>
			<g>
				<path fill="#DAA49A" d="M300.18,203.505c-14.742,0-26.249,7.91-26.249,21.935c0,42.788,5.033,104.275,5.033,147.064
					c0.002,11.145,9.711,15.818,21.217,15.818c8.629,0,20.855-4.674,20.855-15.818c0-42.789,5.033-104.275,5.033-147.064
					C326.07,211.417,314.204,203.505,300.18,203.505z"/>
			</g>
		</g>
	</g>
	<g>
		<g>
			<g>
				<path fill="#DAA49A" d="M300.542,413.133c-15.821,0-27.688,12.586-27.688,27.688c0,14.744,11.865,27.689,27.688,27.689
					c14.742,0,27.328-12.945,27.328-27.689C327.87,425.719,315.283,413.133,300.542,413.133z"/>
			</g>
		</g>
	</g>
</g>
</svg>
