<?xml version="1.0" encoding="UTF-8"?>
<svg width="266px" height="160px" viewBox="0 0 266 160" version="1.1" xmlns="http://www.w3.org/2000/svg" xmlns:xlink="http://www.w3.org/1999/xlink">
    <!-- Generator: Sketch 52.6 (67491) - http://www.bohemiancoding.com/sketch -->
    <title> perform-tx-url.inline copy</title>
    <desc>Created with Sketch.</desc>
    <defs>
        <linearGradient x1="23.0955824%" y1="76.8146479%" x2="196.234895%" y2="-95.8770638%" id="linearGradient-1">
            <stop stop-color="#17D1AA" offset="0%"></stop>
            <stop stop-color="#1AC2AE" offset="6.594372%"></stop>
            <stop stop-color="#229BB8" offset="26.51%"></stop>
            <stop stop-color="#297CC0" offset="46.16%"></stop>
            <stop stop-color="#2D66C6" offset="65.25%"></stop>
            <stop stop-color="#3059CA" offset="83.49%"></stop>
            <stop stop-color="#3154CB" offset="100%"></stop>
        </linearGradient>
        <linearGradient x1="-51.0212307%" y1="150.530072%" x2="121.478725%" y2="-21.0987879%" id="linearGradient-2">
            <stop stop-color="#17D1AA" offset="0%"></stop>
            <stop stop-color="#1AC2AE" offset="6.594372%"></stop>
            <stop stop-color="#229BB8" offset="26.51%"></stop>
            <stop stop-color="#297CC0" offset="46.16%"></stop>
            <stop stop-color="#2D66C6" offset="65.25%"></stop>
            <stop stop-color="#3059CA" offset="83.49%"></stop>
            <stop stop-color="#3154CB" offset="100%"></stop>
        </linearGradient>
        <linearGradient x1="-13.2919668%" y1="113.054806%" x2="159.008022%" y2="-58.5740541%" id="linearGradient-3">
            <stop stop-color="#17D1AA" offset="0%"></stop>
            <stop stop-color="#1AC2AE" offset="6.594372%"></stop>
            <stop stop-color="#229BB8" offset="26.51%"></stop>
            <stop stop-color="#297CC0" offset="46.16%"></stop>
            <stop stop-color="#2D66C6" offset="65.25%"></stop>
            <stop stop-color="#3059CA" offset="83.49%"></stop>
            <stop stop-color="#3154CB" offset="100%"></stop>
        </linearGradient>
        <linearGradient x1="-88.1494454%" y1="187.783777%" x2="84.989867%" y2="15.0920649%" id="linearGradient-4">
            <stop stop-color="#17D1AA" offset="0%"></stop>
            <stop stop-color="#1AC2AE" offset="6.594372%"></stop>
            <stop stop-color="#229BB8" offset="26.51%"></stop>
            <stop stop-color="#297CC0" offset="46.16%"></stop>
            <stop stop-color="#2D66C6" offset="65.25%"></stop>
            <stop stop-color="#3059CA" offset="83.49%"></stop>
            <stop stop-color="#3154CB" offset="100%"></stop>
        </linearGradient>
        <linearGradient x1="14.4703571%" y1="78.3126214%" x2="103.17875%" y2="48.6978964%" id="linearGradient-5">
            <stop stop-color="#17D1AA" offset="0%"></stop>
            <stop stop-color="#1AC2AE" offset="6.594372%"></stop>
            <stop stop-color="#229BB8" offset="26.51%"></stop>
            <stop stop-color="#297CC0" offset="46.16%"></stop>
            <stop stop-color="#2D66C6" offset="65.25%"></stop>
            <stop stop-color="#3059CA" offset="83.49%"></stop>
            <stop stop-color="#3154CB" offset="100%"></stop>
        </linearGradient>
    </defs>
    <g id="-perform-tx-url.inline-copy" stroke="none" stroke-width="1" fill="none" fill-rule="evenodd">
        <g id="link-to-dropbox" transform="translate(11.000000, 12.000000)">
            <g id="Group-9" opacity="0.20186942" stroke="#1D45BA" stroke-width="0.5">
                <path d="M82.9424108,134.323949 L243.972492,41.6727883" id="Stroke-1"></path>
                <path d="M21.7493268,88.1609054 L171.966042,1.73257366" id="Stroke-3"></path>
                <path d="M90.0372564,0.101701463 L234.039576,82.8487454" id="Stroke-5"></path>
                <path d="M0.0819284553,54.144718 L142.279706,135.856172" id="Stroke-7"></path>
            </g>
            <g id="link-to-dropbox.inline_link-to-dropbox" transform="translate(50.000000, 6.000000)">
                <g id="Layer_9">
                    <g id="Group">
                        <polygon id="Path" fill="#FFFFFF" points="62.7923077 15.4847045 105.576923 44.0825822 62.8615385 72.6804599 20.9769231 43.6640767"></polygon>
                        <g transform="translate(45.692308, 31.387915)" fill="#3857E8" id="Path">
                            <path d="M24.6461538,21.7622874 L22.1538462,23.5060605 C16.0615385,19.2512543 9.96923077,15.066199 3.87692308,10.8113928 C3.87692308,10.8113928 3.87692308,10.7416419 3.87692308,10.7416419 L3.87692308,9.62562713 C3.87692308,9.27687253 3.87692308,8.858367 3.87692308,8.50961239 L3.87692308,7.32384673 C10.8,12.1366603 17.7230769,16.9494739 24.6461538,21.7622874 Z"></path>
                            <path d="M19.5230769,5.37082094 C18.4153846,6.13808107 17.3076923,6.9053412 16.2,7.60285042 C16.0615385,7.67260134 15.9230769,7.74235226 15.7846154,7.60285042 C14.4,6.62633752 13.0846154,5.71957554 11.7,4.74306264 C10.2461538,3.76654975 8.86153846,2.72028593 7.40769231,1.74377303 C6.71538462,1.25551658 6.02307692,0.767260134 5.4,0.348754606 L0.484615385,0.348754606 C0.761538462,0.55800737 0.969230769,0.697509212 1.17692308,0.837011055 C2.49230769,1.74377303 3.73846154,2.65053501 5.05384615,3.55729698 C6.3,4.46405896 7.61538462,5.37082094 8.86153846,6.20783199 C10.0384615,7.04484305 11.2846154,7.8818541 12.4615385,8.71886516 C13.5692308,9.48612529 14.7461538,10.3231363 15.8538462,11.0903965 C15.9923077,11.1601474 16.0615385,11.1601474 16.2,11.0903965 C17.1,10.4626382 18.0692308,9.83487989 18.9692308,9.2071216 C21.2538462,7.67260134 23.5384615,6.06833015 25.7538462,4.46405896 C27.4153846,3.34804422 29.0769231,2.16227856 30.7384615,1.04626382 C31.0846154,0.837011055 31.4307692,0.55800737 31.7769231,0.348754606 L26.8615385,0.348754606 C24.3692308,2.02277672 21.9461538,3.69679883 19.5230769,5.37082094 Z"></path>
                            <path d="M3.94615385,15.7637082 C3.87692308,15.8334591 3.87692308,15.8334591 3.94615385,15.7637082 C3.94615385,16.0427119 3.94615385,16.3217156 3.94615385,16.5309683 L3.94615385,17.9259868 C3.94615385,18.3444923 3.94615385,18.7629978 3.94615385,19.1815033 C3.94615385,19.1815033 3.94615385,19.2512543 3.94615385,19.2512543 C8.03076923,22.0412911 12.0461538,24.9010789 16.1307692,27.7608667 C16.1307692,27.7608667 16.1307692,27.7608667 16.1307692,27.7608667 L18.6230769,26.0170936 C13.6384615,22.5295476 8.79230769,19.1815033 3.94615385,15.7637082 Z"></path>
                            <path d="M28.2461538,7.32384673 C25.2,9.41637437 22.2230769,11.508902 19.1769231,13.6711806 C19.2461538,13.7409315 19.2461538,13.7409315 19.2461538,13.8106824 C20.0076923,14.3686898 20.7692308,14.9266971 21.5307692,15.4149536 C21.5307692,15.4149536 21.6,15.4149536 21.6,15.4149536 C23.8153846,13.8804333 25.9615385,12.3459131 28.1769231,10.8113928 C28.1769231,10.8113928 28.1769231,10.7416419 28.1769231,10.7416419 L28.1769231,7.32384673 L28.2461538,7.32384673 Z"></path>
                            <path d="M28.2461538,15.90321 C27.2076923,16.6007193 26.2384615,17.2982285 25.2,17.9957377 C26.0307692,18.5537451 26.7923077,19.1117524 27.5538462,19.6697598 L28.2461538,19.1815033 L28.2461538,15.90321 Z"></path>
                        </g>
                        <path d="M58.4307692,65.2868623 L26.2384615,45.4078497 C25.2,44.7800914 23.8153846,44.8498424 22.8461538,45.5473516 L1.17692308,62.2178217 C-0.346153846,63.4035874 -0.207692308,65.7053678 1.45384615,66.6818807 L33.6461538,86.5608933 C34.6846154,87.1886516 36.0692308,87.1189006 37.0384615,86.4213914 L58.7076923,69.7509212 C60.2307692,68.5651556 60.0923077,66.2633752 58.4307692,65.2868623 Z" id="Path" fill="url(#linearGradient-1)"></path>
                        <path d="M67.2230769,69.7509212 L88.8923077,86.4213914 C89.8615385,87.1886516 91.2461538,87.2584025 92.2846154,86.5608933 L124.476923,66.6818807 C126.138462,65.6356169 126.276923,63.4035874 124.753846,62.2178217 L103.084615,45.5473516 C102.115385,44.7800914 100.730769,44.7103405 99.6923077,45.4078497 L67.5,65.2868623 C65.8384615,66.2633752 65.7,68.5651556 67.2230769,69.7509212 Z" id="Path" fill="url(#linearGradient-2)"></path>
                        <path d="M58.7076923,17.5074812 L37.0384615,0.837011055 C36.0692308,0.0697509212 34.6846154,2.77555756e-15 33.6461538,0.697509212 L1.38461538,20.5765218 C-0.276923077,21.6227856 -0.415384615,23.8548151 1.10769231,25.0405807 L22.8461538,41.7110509 C23.8153846,42.478311 25.2,42.548062 26.2384615,41.8505527 L58.4307692,21.9715402 C60.0923077,20.9950273 60.2307692,18.6932469 58.7076923,17.5074812 Z" id="Path" fill="url(#linearGradient-3)"></path>
                        <path d="M124.476923,20.5765218 L92.2846154,0.697509212 C91.2461538,0.0697509212 89.8615385,0.139501842 88.8923077,0.837011055 L67.2230769,17.5074812 C65.7,18.6932469 65.8384615,20.9950273 67.5,21.9715402 L99.6923077,41.8505527 C100.730769,42.478311 102.115385,42.4085601 103.084615,41.7110509 L124.753846,25.0405807 C126.276923,23.8548151 126.138462,21.5530347 124.476923,20.5765218 Z" id="Path" fill="url(#linearGradient-4)"></path>
                        <g transform="translate(23.538462, 71.843449)" id="Path">
                            <path d="M37.8692308,0.837011055 L13.6384615,19.3907561 C12.7384615,20.0882653 11.5615385,20.0882653 10.5923077,19.5302579 L4.63846154,15.8334591 C2.90769231,14.7871953 0.623076923,15.972961 0.623076923,17.9259868 L0.623076923,19.9487635 C0.623076923,20.8555255 1.10769231,21.6227856 1.86923077,22.111042 L38.0076923,43.0363184 C38.4230769,43.2455712 38.9076923,43.385073 39.3923077,43.385073 L39.3923077,0.279003685 C38.7692308,0.348754606 38.2846154,0.488256449 37.8692308,0.837011055 Z" fill="url(#linearGradient-5)"></path>
                            <path d="M73.9384615,16.0427119 L68.3307692,19.5302579 C67.3615385,20.0882653 66.1846154,20.0882653 65.2846154,19.3907561 L41.1230769,0.906761976 C40.5692308,0.488256449 39.8769231,0.348754606 39.2538462,0.348754606 L39.2538462,43.4548239 C39.7384615,43.4548239 40.2230769,43.3153221 40.6384615,43.1060693 L76.7769231,22.180793 C77.5384615,21.6925365 78.0230769,20.9252764 78.0230769,20.0185144 L78.0230769,18.1352395 C78.0230769,16.1124628 75.6692308,14.9266971 73.9384615,16.0427119 Z" fill="#1D45BA"></path>
                        </g>
                    </g>
                </g>
            </g>
        </g>
    </g>
</svg>