<?xml version="1.0" encoding="UTF-8"?>
<svg width="100px" height="100px" viewBox="0 0 100 100" version="1.1" xmlns="http://www.w3.org/2000/svg" xmlns:xlink="http://www.w3.org/1999/xlink">
    <!-- Generator: Sketch 52.2 (67145) - http://www.bohemiancoding.com/sketch -->
    <title>locked.inline</title>
    <desc>Created with Sketch.</desc>
    <defs>
        <polygon id="path-1" points="0.000555555556 1.42777778 96.7203704 1.42777778 96.7203704 98.1472222 0.000555555556 98.1472222"></polygon>
    </defs>
    <g id="locked.inline" stroke="none" stroke-width="1" fill="none" fill-rule="evenodd">
        <g id="Group-8" transform="translate(1.000000, 0.000000)">
            <path d="M48.4066667,57.9888889 C47.3177778,57.9888889 46.4307407,57.1222222 46.4307407,56.0592593 C46.4307407,54.9944444 47.3177778,54.1296296 48.4066667,54.1296296 C49.4974074,54.1296296 50.3825926,54.9944444 50.3825926,56.0592593 C50.3825926,57.1222222 49.4974074,57.9888889 48.4066667,57.9888889 M48.4066667,52.3796296 C46.3288889,52.3796296 44.6381481,54.0296296 44.6381481,56.0592593 C44.6381481,57.787037 45.8640741,59.2388889 47.5103704,59.6333333 L47.5103704,62.6037037 C47.5103704,63.0851852 47.9122222,63.4777778 48.4066667,63.4777778 C48.9011111,63.4777778 49.302963,63.0851852 49.302963,62.6037037 L49.302963,59.6333333 C50.9492593,59.2388889 52.1751852,57.787037 52.1751852,56.0592593 C52.1751852,54.0296296 50.4844444,52.3796296 48.4066667,52.3796296" id="Fill-1" fill="#FFFFFF"></path>
            <path d="M63.615,63.377963 C63.615,67.7168519 60.0835185,71.2483333 55.7446296,71.2483333 L40.9761111,71.2483333 C36.6372222,71.2483333 33.1057407,67.7168519 33.1057407,63.377963 L33.1057407,47.1112963 C33.1057407,45.8353704 34.1427778,44.7964815 35.4205556,44.7964815 L61.3001852,44.7964815 C62.5761111,44.7964815 63.615,45.8353704 63.615,47.1112963 L63.615,63.377963 Z M37.0094444,36.8909259 C37.0094444,30.7612963 42.1224074,25.7742593 48.4075926,25.7742593 C54.6909259,25.7742593 59.8038889,30.7612963 59.8038889,36.8909259 L59.8038889,42.0187037 L37.0094444,42.0187037 L37.0094444,36.8909259 Z M62.9353704,42.3131481 L62.9353704,36.8909259 C62.9353704,29.0631481 56.4168519,22.6946296 48.4075926,22.6946296 C40.3964815,22.6946296 33.8798148,29.0631481 33.8798148,36.8909259 L33.8798148,42.2835185 C31.827963,42.9409259 30.327963,44.8446296 30.327963,47.1112963 L30.327963,63.377963 C30.327963,69.2483333 35.1038889,74.0261111 40.9761111,74.0261111 L55.7446296,74.0261111 C61.615,74.0261111 66.3927778,69.2483333 66.3927778,63.377963 L66.3927778,47.1112963 C66.3927778,44.8798148 64.9390741,42.9983333 62.9353704,42.3131481 Z" id="Fill-3" fill="#FFFFFF"></path>
            <g id="Group-7" transform="translate(0.000000, 0.425000)">
                <mask id="mask-2" fill="white">
                    <use xlink:href="#path-1"></use>
                </mask>
                <g id="Clip-6"></g>
                <path d="M48.3598148,4.20462963 C23.2264815,4.20462963 2.77833333,24.6527778 2.77833333,49.787963 C2.77833333,74.9231481 23.2264815,95.3694444 48.3598148,95.3694444 C73.495,95.3694444 93.9431481,74.9231481 93.9431481,49.787963 C93.9431481,24.6527778 73.495,4.20462963 48.3598148,4.20462963 M48.3598148,98.1472222 C21.695,98.1472222 0.000555555556,76.4546296 0.000555555556,49.787963 C0.000555555556,23.1212963 21.695,1.42685185 48.3598148,1.42685185 C75.0264815,1.42685185 96.7209259,23.1212963 96.7209259,49.787963 C96.7209259,76.4546296 75.0264815,98.1472222 48.3598148,98.1472222" id="Fill-5" fill="#FFFFFF" mask="url(#mask-2)"></path>
            </g>
        </g>
    </g>
</svg>