<?xml version="1.0" encoding="UTF-8"?>
<svg width="30px" height="30px" viewBox="0 0 30 30" version="1.1" xmlns="http://www.w3.org/2000/svg" xmlns:xlink="http://www.w3.org/1999/xlink">
    <!-- Generator: Sketch 52.2 (67145) - http://www.bohemiancoding.com/sketch -->
    <title>Lock.inline</title>
    <desc>Created with Sketch.</desc>
    <defs>
        <polygon id="path-1" points="0 0.332 19.4746 0.332 19.4746 28 0 28"></polygon>
    </defs>
    <g id="Lock.inline" stroke="none" stroke-width="1" fill="none" fill-rule="evenodd">
        <g id="Group-6" transform="translate(5.000000, 1.000000)">
            <g id="Group-3" transform="translate(0.000000, 0.668000)">
                <mask id="mask-2" fill="white">
                    <use xlink:href="#path-1"></use>
                </mask>
                <g id="Clip-2"></g>
                <path d="M17.9746,22.25 C17.9746,24.593 16.0676,26.5 13.7246,26.5 L5.7496,26.5 C3.4066,26.5 1.4996,24.593 1.4996,22.25 L1.4996,13.466 C1.4996,12.777 2.0606,12.216 2.7496,12.216 L16.7246,12.216 C17.4136,12.216 17.9746,12.777 17.9746,13.466 L17.9746,22.25 Z M17.5826,10.867 L17.5826,7.998 C17.5826,3.771 14.0626,0.332 9.7376,0.332 C6.6946,0.332 3.8996,2.079 2.6176,4.781 C2.4126,5.21 2.1346,5.797 2.7446,6.213 C3.0426,6.417 3.2976,6.398 3.4586,6.351 C3.7016,6.277 3.8956,6.083 4.0086,5.805 C4.9426,3.49 7.1916,1.995 9.7376,1.995 C13.1306,1.995 15.8916,4.688 15.8916,7.998 L15.8916,10.716 L2.7496,10.716 C1.2336,10.716 -0.0004,11.95 -0.0004,13.466 L-0.0004,22.25 C-0.0004,25.42 2.5796,28 5.7496,28 L13.7246,28 C16.8946,28 19.4746,25.42 19.4746,22.25 L19.4746,13.466 C19.4746,12.251 18.6776,11.23 17.5826,10.867 Z" id="Fill-1" fill="#FFFFFF" mask="url(#mask-2)"></path>
            </g>
            <path d="M9.7373,20.0586 C9.1493,20.0586 8.6703,19.5906 8.6703,19.0166 C8.6703,18.4416 9.1493,17.9746 9.7373,17.9746 C10.3263,17.9746 10.8043,18.4416 10.8043,19.0166 C10.8043,19.5906 10.3263,20.0586 9.7373,20.0586 M9.7373,17.0296 C8.6153,17.0296 7.7023,17.9206 7.7023,19.0166 C7.7023,19.9496 8.3643,20.7336 9.2533,20.9466 L9.2533,22.5506 C9.2533,22.8106 9.4703,23.0226 9.7373,23.0226 C10.0043,23.0226 10.2213,22.8106 10.2213,22.5506 L10.2213,20.9466 C11.1103,20.7336 11.7723,19.9496 11.7723,19.0166 C11.7723,17.9206 10.8593,17.0296 9.7373,17.0296" id="Fill-4" fill="#FFFFFF"></path>
        </g>
    </g>
</svg>