<?xml version="1.0" encoding="UTF-8"?>
<svg width="746px" height="206px" viewBox="0 0 746 206" version="1.1" xmlns="http://www.w3.org/2000/svg" xmlns:xlink="http://www.w3.org/1999/xlink">
    <!-- Generator: Sketch 52.6 (67491) - http://www.bohemiancoding.com/sketch -->
    <title>yoroi-logotestnet-white.inline</title>
    <desc>Created with Sketch.</desc>
    <g id="yoroi-logotestnet-white.inline" stroke="none" stroke-width="1" fill="none" fill-rule="evenodd">
        <g id="logo-copy" transform="translate(2.000000, 0.000000)" fill="#FFFFFF">
            <path d="M274.235092,181.920811 L328.235092,181.920811 L328.235092,187.015396 L274.235092,187.015396 L274.235092,181.920811 Z M686.680452,182.121385 L740.680452,182.121385 L740.680452,187.21597 L686.680452,187.21597 L686.680452,182.121385 Z M369.112541,195.828025 L375.719335,173.536809 L379.371872,173.536809 L371.09995,200.393696 L367.232559,200.393696 L360.303482,178.747045 L353.374405,200.393696 L349.507013,200.393696 L341.235092,173.536809 L344.887629,173.536809 L351.494423,195.828025 L358.530927,173.536809 L362.076036,173.536809 L369.112541,195.828025 Z M406.249418,178.800758 L406.249418,173.536809 L409.794527,173.536809 L409.794527,200.393696 L406.249418,200.393696 L406.249418,195.129746 C403.778584,199.050851 400.179761,201.038261 395.399235,201.038261 C391.585557,201.038261 388.309017,199.695417 385.569615,196.956014 C382.883926,194.216612 381.541082,190.886358 381.541082,186.965252 C381.541082,183.044147 382.883926,179.713893 385.569615,176.97449 C388.309017,174.235088 391.585557,172.892243 395.399235,172.892243 C400.179761,172.892243 403.778584,174.879653 406.249418,178.800758 Z M388.147876,194.538894 C390.188999,196.580018 392.713547,197.600579 395.667804,197.600579 C398.622062,197.600579 401.146609,196.580018 403.187733,194.538894 C405.228856,192.444057 406.249418,189.91951 406.249418,186.965252 C406.249418,184.010995 405.228856,181.486447 403.187733,179.445324 C401.146609,177.350487 398.622062,176.329925 395.667804,176.329925 C392.713547,176.329925 390.188999,177.350487 388.147876,179.445324 C386.106752,181.486447 385.086191,184.010995 385.086191,186.965252 C385.086191,189.91951 386.106752,192.444057 388.147876,194.538894 Z M420.343086,200.393696 L416.797977,200.393696 L416.797977,161.182641 L420.343086,161.182641 L420.343086,200.393696 Z M430.891645,200.393696 L427.346535,200.393696 L427.346535,161.182641 L430.891645,161.182641 L430.891645,200.393696 Z M450.302976,172.892243 C454.277795,172.892243 457.500622,174.288801 459.917742,177.135631 C462.388575,179.928748 463.623992,183.259002 463.623992,187.07268 C463.623992,187.448676 463.570278,188.039528 463.516565,188.737807 L439.936218,188.737807 C440.634497,194.162898 444.877885,197.600579 450.625259,197.600579 C454.707506,197.600579 457.769191,195.774311 459.273176,193.034909 L462.388575,194.861177 C460.025169,198.674855 455.781781,201.038261 450.571545,201.038261 C446.328157,201.038261 442.890475,199.695417 440.2585,197.063442 C437.626525,194.431467 436.283681,191.047499 436.283681,186.965252 C436.283681,182.936719 437.572812,179.606465 440.204787,176.920776 C442.836761,174.235088 446.167015,172.892243 450.302976,172.892243 Z M450.302976,176.329925 C444.716744,176.329925 440.634497,179.982461 439.936218,185.300125 L459.971455,185.300125 C459.595459,182.453295 458.521184,180.25103 456.694915,178.693331 C454.868647,177.135631 452.720096,176.329925 450.302976,176.329925 Z M482.175903,173.536809 L482.175903,176.97449 L474.44112,176.97449 L474.44112,193.249764 C474.44112,197.869148 477.019381,197.493152 482.175903,197.278297 L482.175903,200.393696 C474.655975,201.521685 470.896011,199.480561 470.896011,193.249764 L470.896011,176.97449 L465.256064,176.97449 L465.256064,173.536809 L470.896011,173.536809 L470.896011,167.091156 L474.44112,166.01688 L474.44112,173.536809 L482.175903,173.536809 Z M514.714055,173.536809 L514.714055,176.97449 L506.979271,176.97449 L506.979271,193.249764 C506.979271,197.869148 509.557533,197.493152 514.714055,197.278297 L514.714055,200.393696 C507.194127,201.521685 503.434162,199.480561 503.434162,193.249764 L503.434162,176.97449 L497.794216,176.97449 L497.794216,173.536809 L503.434162,173.536809 L503.434162,167.091156 L506.979271,166.01688 L506.979271,173.536809 L514.714055,173.536809 Z M530.90256,172.892243 C534.877379,172.892243 538.100206,174.288801 540.517326,177.135631 C542.988159,179.928748 544.223576,183.259002 544.223576,187.07268 C544.223576,187.448676 544.169862,188.039528 544.116148,188.737807 L520.535802,188.737807 C521.234081,194.162898 525.477469,197.600579 531.224843,197.600579 C535.307089,197.600579 538.368775,195.774311 539.87276,193.034909 L542.988159,194.861177 C540.624753,198.674855 536.381365,201.038261 531.171129,201.038261 C526.927741,201.038261 523.490059,199.695417 520.858084,197.063442 C518.226109,194.431467 516.883265,191.047499 516.883265,186.965252 C516.883265,182.936719 518.172396,179.606465 520.80437,176.920776 C523.436345,174.235088 526.766599,172.892243 530.90256,172.892243 Z M530.90256,176.329925 C525.316328,176.329925 521.234081,179.982461 520.535802,185.300125 L540.571039,185.300125 C540.195043,182.453295 539.120767,180.25103 537.294499,178.693331 C535.468231,177.135631 533.31968,176.329925 530.90256,176.329925 Z M551.065884,180.573313 C551.065884,182.990433 553.536718,184.333277 556.598403,185.138984 C561.11036,186.266973 566.750306,187.50239 566.750306,193.303477 C566.750306,195.61317 565.837172,197.439438 564.010904,198.88971 C562.238349,200.339982 559.874943,201.038261 557.028113,201.038261 C551.871591,201.038261 548.111627,198.513714 546.661355,194.861177 L549.669326,193.088622 C550.689888,195.881739 553.429291,197.600579 557.028113,197.600579 C560.519509,197.600579 563.205197,196.257735 563.205197,193.303477 C563.205197,190.886358 560.734364,189.543513 557.672679,188.737807 C553.160722,187.609817 547.520775,186.374401 547.520775,180.573313 C547.520775,178.371048 548.380196,176.54478 550.099037,175.094508 C551.871591,173.644236 554.073856,172.892243 556.705831,172.892243 C561.056646,172.892243 564.548042,174.98708 566.105741,178.371048 L563.151484,180.089889 C562.130922,177.565342 559.982371,176.329925 556.705831,176.329925 C553.644146,176.329925 551.065884,177.83391 551.065884,180.573313 Z M585.302218,173.536809 L585.302218,176.97449 L577.567434,176.97449 L577.567434,193.249764 C577.567434,197.869148 580.145695,197.493152 585.302218,197.278297 L585.302218,200.393696 C577.782289,201.521685 574.022325,199.480561 574.022325,193.249764 L574.022325,176.97449 L568.382379,176.97449 L568.382379,173.536809 L574.022325,173.536809 L574.022325,167.091156 L577.567434,166.01688 L577.567434,173.536809 L585.302218,173.536809 Z M603.263277,172.892243 C609.762644,172.892243 613.791177,177.189345 613.791177,183.903567 L613.791177,200.393696 L610.246068,200.393696 L610.246068,183.903567 C610.246068,179.123041 607.614093,176.329925 602.940995,176.329925 C597.784472,176.329925 594.239363,179.499037 594.239363,186.320687 L594.239363,200.393696 L590.694254,200.393696 L590.694254,173.536809 L594.239363,173.536809 L594.239363,177.726483 C596.226773,174.503657 599.234744,172.892243 603.263277,172.892243 Z M632.557943,172.892243 C636.532763,172.892243 639.755589,174.288801 642.172709,177.135631 C644.643543,179.928748 645.878959,183.259002 645.878959,187.07268 C645.878959,187.448676 645.825246,188.039528 645.771532,188.737807 L622.191185,188.737807 C622.889464,194.162898 627.132852,197.600579 632.880226,197.600579 C636.962473,197.600579 640.024158,195.774311 641.528144,193.034909 L644.643543,194.861177 C642.280136,198.674855 638.036748,201.038261 632.826512,201.038261 C628.583124,201.038261 625.145443,199.695417 622.513468,197.063442 C619.881493,194.431467 618.538648,191.047499 618.538648,186.965252 C618.538648,182.936719 619.827779,179.606465 622.459754,176.920776 C625.091729,174.235088 628.421983,172.892243 632.557943,172.892243 Z M632.557943,176.329925 C626.971711,176.329925 622.889464,179.982461 622.191185,185.300125 L642.226423,185.300125 C641.850426,182.453295 640.776151,180.25103 638.949882,178.693331 C637.123614,177.135631 634.975063,176.329925 632.557943,176.329925 Z M665.236577,173.536809 L665.236577,176.97449 L657.501794,176.97449 L657.501794,193.249764 C657.501794,197.869148 660.080055,197.493152 665.236577,197.278297 L665.236577,200.393696 C657.716649,201.521685 653.956685,199.480561 653.956685,193.249764 L653.956685,176.97449 L648.316738,176.97449 L648.316738,173.536809 L653.956685,173.536809 L653.956685,167.091156 L657.501794,166.01688 L657.501794,173.536809 L665.236577,173.536809 Z" id="Combined-Shape"></path>
            <path d="M351.708192,5.86246911 L361.466127,5.86246911 L320.739534,71.5605524 L320.739534,125.645389 L312.536048,125.645389 L312.536048,71.5505237 L272,5.86246911 L281.757935,5.86246911 L282.128998,6.46419175 L316.547533,62.5948851 L351.708192,5.86246911 Z M461.652947,21.9986645 C472.524069,33.3010214 478.029831,47.8125656 478.029831,65.5633834 C478.029831,83.3142012 472.59427,97.9260326 461.652947,109.258476 C450.711623,120.590919 437.062548,126.307284 421.016611,126.307284 C404.308779,126.307284 390.358843,120.390344 379.718381,108.807184 C369.077919,97.2240229 363.672444,82.662335 363.672444,65.5633834 C363.672444,48.4644318 369.027775,34.1133469 379.718381,22.5001 C390.408986,10.8868531 404.308779,5 421.016611,5 C437.132749,5 450.81191,10.7163651 461.652947,21.9986645 Z M469.675915,65.6536418 L469.645829,65.6536418 C469.645829,50.3498294 464.882191,37.8239699 455.605634,28.0660344 C446.329077,18.308099 435.056806,13.5645189 421.167042,13.5645189 C406.805928,13.5645189 394.97205,18.618989 385.855952,28.5474125 C376.739854,38.4758361 372.116618,51.0016956 372.116618,65.6536418 C372.116618,80.305588 376.739854,92.8414763 385.916124,102.990531 C395.142538,112.969099 407.006502,118.033597 421.167042,118.033597 C434.755945,118.033597 446.339105,113.149615 455.63572,103.441823 C464.932335,93.7340316 469.675915,80.9975691 469.675915,65.6536418 Z M543.567455,76.1537019 L577.996018,125.645389 L567.856992,125.645389 L533.759376,76.3843622 L507.554355,76.3843622 L507.554355,125.645389 L499.27064,125.645389 L499.27064,5.86246911 L538.312411,5.86246911 C550.587552,5.86246911 559.954368,9.04157038 566.08191,15.4098016 C572.209452,21.7780329 575.328381,30.2924082 575.328381,40.832583 C575.328381,51.8942509 572.199424,60.5289707 566.051824,66.4759961 C560.185028,72.0519592 552.593294,75.3012614 543.567455,76.1537019 Z M566.854121,40.7423247 C566.854121,31.8669158 564.497374,25.2981103 559.503076,20.8854776 C554.508778,16.4728449 547.508738,14.2264138 538.683473,14.2264138 L507.464097,14.2264138 L507.464097,68.2009343 L535.815262,68.2009343 C556.695037,68.2009343 566.854121,59.2152096 566.854121,40.7423247 Z M687.639912,21.9986645 C698.501005,33.3010214 703.976681,47.8125656 703.976681,65.5633834 C703.976681,83.3142012 698.591264,97.9260326 687.64994,109.258476 C676.708617,120.590919 663.059542,126.307284 647.013605,126.307284 C630.295744,126.307284 616.335779,120.390344 605.705346,108.807184 C595.074913,97.2240229 589.659409,82.6523063 589.659409,65.5633834 C589.659409,48.4744605 595.01474,34.1133469 605.705346,22.5001 C616.395951,10.8868531 630.285716,5 647.003576,5 C663.119714,5 676.788847,10.7163651 687.639912,21.9986645 Z M695.66288,65.6536418 L695.622765,65.6536418 C695.622765,50.3498294 690.829042,37.8239699 681.542456,28.0660344 C672.25587,18.308099 660.993628,13.5645189 647.093835,13.5645189 C632.772836,13.5645189 620.948986,18.7092474 611.832888,28.5474125 C602.71679,38.3855777 598.103583,50.8713224 598.103583,65.6536418 C598.103583,80.305588 602.686704,92.8414763 611.933175,102.990531 C621.159589,112.969099 633.023554,118.033597 647.184093,118.033597 C660.833168,118.033597 672.416329,113.129558 681.622685,103.441823 C690.929329,93.7340316 695.66288,80.9975691 695.66288,65.6536418 Z M735.356517,126.056566 L727.16306,126.056566 L727.16306,6.27364625 L735.356517,6.27364625 L735.356517,126.056566 Z" id="Combined-Shape"></path>
            <path d="M166.887773,146.880496 L149.768764,158.764518 L23.7078719,71.6551374 C23.7078719,71.4846493 23.7078719,71.3141612 23.6577284,71.1436731 L23.6577284,63.3714224 C23.6577284,60.8508731 23.6577284,58.3336668 23.6577284,55.8198033 L23.6577284,47.9071506 L166.887773,146.880496 Z M131.707057,34.4586497 C124.095265,39.6735792 116.413273,44.7882216 108.801482,50.0031512 C108.017019,50.7172641 106.81802,50.7172641 106.033557,50.0031512 C96.6266268,43.4544031 87.1695527,36.9658273 77.7525934,30.4672229 C67.8442273,23.5875274 57.9425471,16.6877745 48.0475526,9.76796414 L33.997329,-7.17648163e-13 L2.27373675e-13,-7.17648163e-13 C1.80516791,1.26361754 3.28941708,2.32666086 4.78369497,3.35961806 L31.4299791,21.832503 C40.2151296,27.9433307 48.9969372,34.0541584 57.7754019,40.164986 C66.0390594,45.9114372 74.2826596,51.6879745 82.5563458,57.424397 C90.4088262,62.8699869 98.2813641,68.2554045 106.133844,73.7110231 C106.791174,74.3067155 107.793147,74.3067155 108.450477,73.7110231 C114.788622,69.3685914 121.196968,65.0963606 127.505027,60.7539289 C143.203302,49.9964653 158.888205,39.2222872 174.559737,28.4313946 L208.817813,5.01435531 C211.184588,3.3997329 213.541335,1.75502436 216.008398,-7.17648163e-13 L181.910782,-7.17648163e-13 C165.169521,11.4795308 148.434946,22.9657473 131.707057,34.4586497 Z M23.8382451,105.843012 C23.7638256,105.987345 23.7033782,106.138463 23.6577284,106.294304 L23.6577284,120.575188 C23.6577284,123.423342 23.6577284,126.271495 23.6577284,129.109621 C23.665347,129.282932 23.7062028,129.453165 23.7780729,129.611056 L107.918955,187.777578 L107.999185,187.777578 L125.118194,175.903584 L23.8382451,105.843012 Z M191.929464,47.9572942 L129.310195,91.2612666 C129.507904,91.5281699 129.729446,91.7765651 129.97209,92.0033912 C135.267249,95.754129 140.565751,99.4881523 145.867596,103.205461 C146.042393,103.299509 146.24286,103.334679 146.439232,103.305748 L191.779033,71.9158839 C191.84714,71.7825604 191.897703,71.6409823 191.929464,71.494678 L191.929464,47.9572942 Z M191.979607,106.755625 C184.869252,111.659664 178.009614,116.403244 171.069746,121.206997 L187.336314,132.740014 L191.979607,129.520798 L191.979607,106.755625 Z" id="Shape" fill-rule="nonzero"></path>
        </g>
    </g>
</svg>