<?xml version="1.0" encoding="utf-8"?>
<!-- Generator: Adobe Illustrator 22.1.0, SVG Export Plug-In . SVG Version: 6.00 Build 0)  -->
<svg version="1.1" id="Layer_1" xmlns="http://www.w3.org/2000/svg" xmlns:xlink="http://www.w3.org/1999/xlink" x="0px" y="0px"
	 viewBox="0 0 746 206" style="enable-background:new 0 0 746 206;" xml:space="preserve">
<style type="text/css">
	.st0{fill:url(#Combined-Shape_2_);}
	.st1{fill:url(#Combined-Shape_3_);}
	.st2{fill:url(#Shape_1_);}
</style>
<linearGradient id="Combined-Shape_2_" gradientUnits="userSpaceOnUse" x1="265.1302" y1="207.8536" x2="744.0153" y2="161.7465">
	<stop  offset="0" style="stop-color:#1A44B7"/>
	<stop  offset="1" style="stop-color:#F14D78"/>
</linearGradient>
<path id="Combined-Shape" class="st0" d="M279.2,181.9h54v5.1h-54V181.9z M691.7,182.1h54v5.1h-54V182.1z M374.1,195.8l6.6-22.3h3.7
	l-8.3,26.9h-3.9l-6.9-21.6l-6.9,21.6h-3.9l-8.3-26.9h3.7l6.6,22.3l7-22.3h3.5L374.1,195.8z M411.2,178.8v-5.3h3.5v26.9h-3.5v-5.3
	c-2.5,3.9-6.1,5.9-10.9,5.9c-3.8,0-7.1-1.3-9.8-4.1c-2.7-2.7-4-6.1-4-10c0-3.9,1.3-7.3,4-10c2.7-2.7,6-4.1,9.8-4.1
	C405.2,172.9,408.8,174.9,411.2,178.8z M393.1,194.5c2,2,4.6,3.1,7.5,3.1s5.5-1,7.5-3.1c2-2.1,3.1-4.6,3.1-7.6s-1-5.5-3.1-7.5
	c-2-2.1-4.6-3.1-7.5-3.1s-5.5,1-7.5,3.1c-2,2-3.1,4.6-3.1,7.5S391.1,192.4,393.1,194.5z M425.3,200.4h-3.5v-39.2h3.5V200.4z
	 M435.9,200.4h-3.5v-39.2h3.5V200.4z M455.3,172.9c4,0,7.2,1.4,9.6,4.2c2.5,2.8,3.7,6.1,3.7,9.9c0,0.4-0.1,1-0.1,1.7h-23.6
	c0.7,5.4,4.9,8.9,10.7,8.9c4.1,0,7.1-1.8,8.6-4.6l3.1,1.8c-2.4,3.8-6.6,6.2-11.8,6.2c-4.2,0-7.7-1.3-10.3-4c-2.6-2.6-4-6-4-10.1
	c0-4,1.3-7.4,3.9-10C447.8,174.2,451.2,172.9,455.3,172.9z M455.3,176.3c-5.6,0-9.7,3.7-10.4,9h20c-0.4-2.8-1.5-5-3.3-6.6
	C459.9,177.1,457.7,176.3,455.3,176.3z M487.2,173.5v3.4h-7.7v16.3c0,4.6,2.6,4.2,7.7,4v3.1c-7.5,1.1-11.3-0.9-11.3-7.1V177h-5.6
	v-3.4h5.6v-6.4l3.5-1.1v7.5H487.2z M519.7,173.5v3.4H512v16.3c0,4.6,2.6,4.2,7.7,4v3.1c-7.5,1.1-11.3-0.9-11.3-7.1V177h-5.6v-3.4
	h5.6v-6.4l3.5-1.1v7.5H519.7z M535.9,172.9c4,0,7.2,1.4,9.6,4.2c2.5,2.8,3.7,6.1,3.7,9.9c0,0.4-0.1,1-0.1,1.7h-23.6
	c0.7,5.4,4.9,8.9,10.7,8.9c4.1,0,7.1-1.8,8.6-4.6l3.1,1.8c-2.4,3.8-6.6,6.2-11.8,6.2c-4.2,0-7.7-1.3-10.3-4s-4-6-4-10.1
	c0-4,1.3-7.4,3.9-10S531.8,172.9,535.9,172.9z M535.9,176.3c-5.6,0-9.7,3.7-10.4,9h20c-0.4-2.8-1.5-5-3.3-6.6
	C540.5,177.1,538.3,176.3,535.9,176.3z M556.1,180.6c0,2.4,2.5,3.8,5.5,4.6c4.5,1.1,10.2,2.4,10.2,8.2c0,2.3-0.9,4.1-2.7,5.6
	c-1.8,1.5-4.1,2.1-7,2.1c-5.2,0-8.9-2.5-10.4-6.2l3-1.8c1,2.8,3.8,4.5,7.4,4.5c3.5,0,6.2-1.3,6.2-4.3c0-2.4-2.5-3.8-5.5-4.6
	c-4.5-1.1-10.2-2.4-10.2-8.2c0-2.2,0.9-4,2.6-5.5c1.8-1.5,4-2.2,6.6-2.2c4.4,0,7.8,2.1,9.4,5.5l-3,1.7c-1-2.5-3.2-3.8-6.4-3.8
	C558.6,176.3,556.1,177.8,556.1,180.6z M590.3,173.5v3.4h-7.7v16.3c0,4.6,2.6,4.2,7.7,4v3.1c-7.5,1.1-11.3-0.9-11.3-7.1V177h-5.6
	v-3.4h5.6v-6.4l3.5-1.1v7.5H590.3z M608.3,172.9c6.5,0,10.5,4.3,10.5,11v16.5h-3.5v-16.5c0-4.8-2.6-7.6-7.3-7.6
	c-5.2,0-8.7,3.2-8.7,10v14.1h-3.5v-26.9h3.5v4.2C601.2,174.5,604.2,172.9,608.3,172.9z M637.6,172.9c4,0,7.2,1.4,9.6,4.2
	c2.5,2.8,3.7,6.1,3.7,9.9c0,0.4-0.1,1-0.1,1.7h-23.6c0.7,5.4,4.9,8.9,10.7,8.9c4.1,0,7.1-1.8,8.6-4.6l3.1,1.8
	c-2.4,3.8-6.6,6.2-11.8,6.2c-4.2,0-7.7-1.3-10.3-4c-2.6-2.6-4-6-4-10.1c0-4,1.3-7.4,3.9-10C630.1,174.2,633.4,172.9,637.6,172.9z
	 M637.6,176.3c-5.6,0-9.7,3.7-10.4,9h20c-0.4-2.8-1.5-5-3.3-6.6C642.1,177.1,640,176.3,637.6,176.3z M670.2,173.5v3.4h-7.7v16.3
	c0,4.6,2.6,4.2,7.7,4v3.1c-7.5,1.1-11.3-0.9-11.3-7.1V177h-5.6v-3.4h5.6v-6.4l3.5-1.1v7.5H670.2z"/>
<linearGradient id="Combined-Shape_3_" gradientUnits="userSpaceOnUse" x1="273.5719" y1="131.3312" x2="758.9403" y2="-3.6263">
	<stop  offset="0" style="stop-color:#1A44B7"/>
	<stop  offset="1" style="stop-color:#F14D78"/>
</linearGradient>
<path id="Combined-Shape_1_" class="st1" d="M356.7,5.9h9.8l-40.7,65.7v54.1h-8.2V71.6L277,5.9h9.8l0.4,0.6l34.4,56.1L356.7,5.9z
	 M466.7,22C477.5,33.3,483,47.8,483,65.6s-5.4,32.4-16.4,43.7c-10.9,11.3-24.6,17-40.6,17c-16.7,0-30.7-5.9-41.3-17.5
	s-16-26.1-16-43.2s5.4-31.5,16-43.1S409.3,5,426,5C442.1,5,455.8,10.7,466.7,22z M474.7,65.7L474.7,65.7c0-15.3-4.8-27.8-14.1-37.6
	c-9.3-9.8-20.5-14.5-34.4-14.5c-14.4,0-26.2,5.1-35.3,15S377.1,51,377.1,65.7s4.6,27.2,13.8,37.3c9.2,10,21.1,15,35.3,15
	c13.6,0,25.2-4.9,34.5-14.6C469.9,93.7,474.7,81,474.7,65.7z M548.6,76.2l34.4,49.5h-10.1l-34.1-49.3h-26.2v49.3h-8.3V5.9h39
	c12.3,0,21.6,3.2,27.8,9.5s9.2,14.9,9.2,25.4c0,11.1-3.1,19.7-9.3,25.6C565.2,72.1,557.6,75.3,548.6,76.2z M571.9,40.7
	c0-8.9-2.4-15.4-7.4-19.9c-5-4.4-12-6.7-20.8-6.7h-31.2v54h28.4C561.7,68.2,571.9,59.2,571.9,40.7z M692.6,22
	C703.5,33.3,709,47.8,709,65.6s-5.4,32.4-16.3,43.7c-10.9,11.3-24.6,17-40.6,17c-16.7,0-30.7-5.9-41.3-17.5s-16-26.2-16-43.2
	s5.4-31.5,16-43.1C621.4,10.9,635.3,5,652,5C668.1,5,681.8,10.7,692.6,22z M700.7,65.7L700.7,65.7c0-15.3-4.8-27.8-14.1-37.6
	c-9.3-9.8-20.5-14.5-34.4-14.5c-14.3,0-26.1,5.1-35.3,15s-13.7,22.3-13.7,37.1c0,14.7,4.6,27.2,13.8,37.3c9.2,10,21.1,15,35.3,15
	c13.6,0,25.2-4.9,34.4-14.6C695.9,93.7,700.7,81,700.7,65.7z M740.4,126.1h-8.2V6.3h8.2V126.1z"/>
<linearGradient id="Shape_1_" gradientUnits="userSpaceOnUse" x1="184.0695" y1="458.8712" x2="184.9506" y2="459.6042" gradientTransform="matrix(216.0084 0 0 -187.7776 -39771.5508 86311.4609)">
	<stop  offset="0" style="stop-color:#1A44B7"/>
	<stop  offset="0.9988" style="stop-color:#F14D78"/>
</linearGradient>
<path id="Shape" class="st2" d="M171.9,146.9l-17.1,11.9L28.7,71.7c0-0.2,0-0.3-0.1-0.5v-7.8c0-2.5,0-5,0-7.6v-7.9L171.9,146.9z
	 M136.7,34.5c-7.6,5.2-15.3,10.3-22.9,15.5c-0.8,0.7-2,0.7-2.8,0c-9.4-6.5-18.9-13-28.3-19.5C72.8,23.6,62.9,16.7,53,9.8L39,0H5
	c1.8,1.3,3.3,2.3,4.8,3.4l26.6,18.5c8.8,6.1,17.6,12.2,26.3,18.3c8.3,5.7,16.5,11.5,24.8,17.3c7.9,5.4,15.7,10.8,23.6,16.3
	c0.7,0.6,1.7,0.6,2.3,0c6.3-4.3,12.7-8.6,19.1-13c15.7-10.8,31.4-21.5,47.1-32.3L213.8,5c2.4-1.6,4.7-3.3,7.2-5h-34.1
	C170.2,11.5,153.4,23,136.7,34.5z M28.8,105.8c-0.1,0.1-0.1,0.3-0.2,0.5v14.3c0,2.8,0,5.7,0,8.5c0,0.2,0,0.3,0.1,0.5l84.1,58.2h0.1
	l17.1-11.9L28.8,105.8z M196.9,48l-62.6,43.3c0.2,0.3,0.4,0.5,0.7,0.7c5.3,3.8,10.6,7.5,15.9,11.2c0.2,0.1,0.4,0.1,0.6,0.1
	l45.3-31.4c0.1-0.1,0.1-0.3,0.2-0.4V48z M197,106.8c-7.1,4.9-14,9.6-20.9,14.5l16.3,11.5l4.6-3.2V106.8z"/>
</svg>
