<svg xmlns="http://www.w3.org/2000/svg" viewBox="0 0 737.14 205.55">
  <defs>
    <clipPath id="clip-path">
      <path d="M-959-2715.78l-2.49 31.2-2.37 29.7-2.43 30.45a2.9 2.9 0 0 0 .21 1.9C-819-2495.78-673-2369.13-526.25-2242.41l67.13-41.55C-625.89-2427.79-792-2571.18-959-2715.78z" class="cls-1"/>
    </clipPath>
    <clipPath id="clip-path-2">
      <path d="M-570-2746.84c-28.29 21.3-56.57 41.83-84.86 63.13-3.89 2.71-6.36 3.09-10.25 0-34.65-26.34-69.65-52.67-104.65-79-36.42-28.27-72.84-56.55-109.61-84.43q-26-19.76-52-39.5h-125.83c6.72 5 12 9.29 17.68 13.55 32.88 24.79 65.76 50 98.64 74.75l97.59 74.36c30.4 23.24 61.16 46.86 91.57 70.1 29 22.07 58.34 43.76 87.33 66.23 3.18 2.32 5.3 2.32 8.48 0 23.34-17.82 47-34.86 70.71-52.68q87-65.64 174-130.9c42.07-31.76 84.5-63.52 126.57-94.89 8.84-6.58 17.32-13.17 26.52-20.14h-126.26c-61.88 46.08-123.4 92.94-185.63 139.42z" class="cls-1"/>
    </clipPath>
    <clipPath id="clip-path-3">
      <path d="M-976.59-2476.56a17.76 17.76 0 0 0-.7 1.91v91.38c0 .77.35 1.15.35 1.91 102.88 77.63 205.75 154.86 309.33 232.87h.35l62.85-48.18c-124.59-93.68-248.24-186.6-372.18-279.89z" class="cls-1"/>
    </clipPath>
    <clipPath id="clip-path-4">
      <path d="M-338.42-2695.28c-80.39 57.28-159.69 114.28-239.35 171.2a25.2 25.2 0 0 0 2.56 3c20.1 14.7 40.56 29.41 60.66 44.12.36.38 1.46.38 2.19.38 57.73-41.11 115.47-82.59 173.57-123.69.37-.38.37-1.13.73-1.51v-93.52z" class="cls-1"/>
    </clipPath>
    <clipPath id="clip-path-5">
      <path d="M-338.06-2476.56c-27 20.5-53.27 40.6-79.9 60.7 21.16 16.49 41.59 32.57 62 48.65l17.88-13.67z" class="cls-1"/>
    </clipPath>
    <clipPath id="clip-path-6">
      <path d="M280.51-2853.84h25.83l-151.78 244.81v203.21h-21.58v-203.21l-151.07-244.81H7.74l135.15 220.36h1.06l136.56-220.36z" class="cls-2"/>
    </clipPath>
    <clipPath id="clip-path-7">
      <path d="M543-2425.16c53.42 0 98.71-19 135.15-57.28q55.19-57.45 55.19-147.76c0-60.19-18.4-109.08-55.19-147-36.44-38.3-81.37-56.91-135.15-56.91-56.25 0-102.6 19.7-138.33 58.74s-53.78 87.56-53.78 145.2S369-2524 404.7-2484.26c36.08 39.04 82.08 59.1 138.3 59.1zm-.36 21.89c-63 0-114.27-21.89-154.25-65.3s-60.14-97.41-60.14-162c0-63.85 19.81-117.84 60.14-161.26q60-65.13 154.25-65.31 90.75 0 151.78 63.49t61.21 163.08q0 100.16-61.21 163.81-61.53 63.49-151.75 63.49z" class="cls-2"/>
    </clipPath>
    <clipPath id="clip-path-8">
      <path d="M868.16-2831.59v216h113.22q123.64 0 123.47-109.82c0-35.39-9.9-62-29.72-79.53s-47.4-26.64-82.78-26.64zm265 425.77h-26.89l-130.2-188.26H868.52v188.26h-21.94v-448h144.35c45.64 0 80 11.67 102.6 35s34 54.73 34 93.77c0 41.22-11.33 72.6-34 94.49-22.64 21.52-52.36 33.93-89.51 36.12l-.71 1.82z" class="cls-2"/>
    </clipPath>
    <clipPath id="clip-path-9">
      <path d="M1406.64-2425.16c53.42 0 98.71-19 135.15-57.28q55.21-57.45 55.21-147.76c0-60.19-18.4-109.08-55.19-147-36.44-38.3-81.38-56.91-135.15-56.91-56.26 0-102.6 19.7-138.34 58.74-36.08 39-53.77 87.56-53.77 145.2s18 106.17 53.77 145.94c36.07 39.01 82.06 59.07 138.32 59.07zm-.36 21.89c-63 0-114.27-21.89-154.25-65.3s-60.14-97.41-60.14-162c0-63.85 19.81-117.84 60.14-161.26q60-65.13 154.25-65.31 90.75 0 151.78 63.49t61.21 163.08q0 100.16-61.21 163.81-61.56 63.49-151.78 63.49z" class="cls-2"/>
    </clipPath>
    <clipPath id="clip-path-10">
      <path d="M1714.08-2853.84h21.58v448.02h-21.58z" class="cls-2"/>
    </clipPath>
    <clipPath id="clip-path-11">
      <path d="M709.58-2203.61h7.69l-37.09 104.64h-7.69l-30.09-92.48h-.35l-29.74 92.48h-7.7l-37.09-104.64h8.05l32.54 92.82 29.74-92.82h8.4l30.09 92.48 33.24-92.48z" class="cls-2"/>
    </clipPath>
    <clipPath id="clip-path-12">
      <path d="M790.05-2105.57c12.24 0 22.39-4.17 30.44-12.17 8-8.34 12.24-19.12 12.24-32.68q0-19.82-11.54-33.38c-7.7-9-18.2-13.56-30.79-13.56a43.44 43.44 0 0 0-31.84 13.22c-8.75 8.69-12.95 20.16-12.95 34.07 0 12.86 4.2 23.64 12.6 32 8.05 8.33 18.89 12.5 31.84 12.5zm42.68-98h7.35V-2099h-7.35v-23.3h-.35c-9.09 16-23.44 24-42.33 24-14.7 0-26.94-4.87-37.09-14.25s-15-22.25-15-37.9 4.89-28.51 14.69-38.59c9.8-10.43 22.39-15.3 37.79-15.3a45.42 45.42 0 0 1 24.49 6.61 48.26 48.26 0 0 1 17.49 18.08h.35z" class="cls-2"/>
    </clipPath>
    <clipPath id="clip-path-13">
      <path d="M884.86-2257.85h7.34v158.54h-7.34z" class="cls-2"/>
    </clipPath>
    <clipPath id="clip-path-14">
      <path d="M939.45-2257.85h7.34v158.54h-7.34z" class="cls-2"/>
    </clipPath>
    <clipPath id="clip-path-15">
      <path d="M1035.67-2197.36a39.83 39.83 0 0 0-28.35 11.48c-8 7.65-12.59 17.38-13.29 29.55h80.47c-.7-12.52-4.55-22.25-11.54-29.9-7.35-7.65-16.45-11.13-27.29-11.13zm45.83 43.46c0 2.44 0 3.83-.35 4.52h-87.82c.7 12.52 4.9 23.3 12.59 31.64a39.55 39.55 0 0 0 29.75 12.52c14.69 0 26.59-5.57 35.68-17l5.6 4.87c-10.15 12.86-23.44 19.47-40.58 19.47-14.7 0-26.6-4.87-36.39-14.6-9.45-9.74-14.35-22.6-14.35-38.25s4.55-28.16 14-38.24 21-14.95 34.64-14.95c14.34 0 25.54 4.87 33.93 14.25 9.1 8.67 13.3 20.82 13.3 35.77z" class="cls-2"/>
    </clipPath>
    <clipPath id="clip-path-16">
      <path d="M1146.23-2098.27c-9.1 0-15.75-2.43-19.25-7.3s-5.25-12.17-5.25-21.9v-69.19H1107v-7h14.69v-37.2l7-.7v38.24h40.94v7h-40.94v66c0 8.7 1 15 3.5 19.13s7 6.25 13.65 6.25a36.82 36.82 0 0 0 21.34-6.6l2.1 6.95a47.74 47.74 0 0 1-23.05 6.32z" class="cls-2"/>
    </clipPath>
    <clipPath id="clip-path-17">
      <path d="M460.32-150.85h2.07l-9.97 28.13h-2.07l-8.09-24.86h-.09l-7.99 24.86h-2.07l-9.97-28.13h2.16l8.75 24.95 7.99-24.95h2.26l8.08 24.86 8.94-24.86z" class="cls-2"/>
    </clipPath>
    <clipPath id="clip-path-18">
      <path d="M481.94-124.5a11.16 11.16 0 0 0 8.18-3.27 12.07 12.07 0 0 0 3.3-8.78 13.36 13.36 0 0 0-3.11-9 10.41 10.41 0 0 0-8.27-3.65 11.7 11.7 0 0 0-8.56 3.55 12.37 12.37 0 0 0-3.48 9.16 11.66 11.66 0 0 0 3.39 8.6 11.43 11.43 0 0 0 8.55 3.39zm11.48-26.35h2v28.13h-2V-129h-.1a12.26 12.26 0 0 1-11.38 6.44 14.11 14.11 0 0 1-10-3.83c-2.73-2.52-4.05-6-4.05-10.18a14.27 14.27 0 0 1 3.95-10.37A13.23 13.23 0 0 1 482-151a12.23 12.23 0 0 1 6.58 1.77 13.05 13.05 0 0 1 4.7 4.86h.1z" class="cls-2"/>
    </clipPath>
    <clipPath id="clip-path-19">
      <path d="M507.43-165.42h1.97v42.61h-1.97z" class="cls-2"/>
    </clipPath>
    <clipPath id="clip-path-20">
      <path d="M522.09-165.42h1.97v42.61h-1.97z" class="cls-2"/>
    </clipPath>
    <clipPath id="clip-path-21">
      <path d="M548-149.17a10.67 10.67 0 0 0-7.61 3.09 11.39 11.39 0 0 0-3.58 7.94h21.63a12.46 12.46 0 0 0-3.1-8 9.71 9.71 0 0 0-7.34-3.03zm12.32 11.68a3.72 3.72 0 0 1-.09 1.22h-23.66a13.31 13.31 0 0 0 3.39 8.5 10.62 10.62 0 0 0 8 3.36 11.61 11.61 0 0 0 9.59-4.57l1.51 1.3a13.15 13.15 0 0 1-10.91 5.24 13.21 13.21 0 0 1-9.78-3.93 14.19 14.19 0 0 1-3.85-10.28 14.29 14.29 0 0 1 3.76-10.27 12.23 12.23 0 0 1 9.31-4 11.63 11.63 0 0 1 9.12 3.83c2.43 2.32 3.56 5.59 3.56 9.6z" class="cls-2"/>
    </clipPath>
    <clipPath id="clip-path-22">
      <path d="M577.67-122.54c-2.45 0-4.24-.65-5.18-2a10.09 10.09 0 0 1-1.41-5.89V-149h-4v-1.87h4v-10L573-161v10.28h11v1.86h-11v17.76a10.56 10.56 0 0 0 .94 5.14c.66 1.12 1.89 1.68 3.67 1.68a9.88 9.88 0 0 0 5.74-1.78l.56 1.87a12.81 12.81 0 0 1-6.24 1.65z" class="cls-2"/>
    </clipPath>
  </defs>
  <g id="tick">
    <g id="wallet-2" data-name="wallet">
      <path d="M462.51 175.42l-7.72 21.48-6.99-21.48h-4.04l-6.89 21.5-7.53-21.5h-4.8l10.58 29.85h3.83l6.88-21.41 6.97 21.41h3.83l10.58-29.85h-4.7zM494.26 175.42v3.87a14.32 14.32 0 0 0-2.71-2.13 13.08 13.08 0 0 0-7.06-1.92 14.16 14.16 0 0 0-10.77 4.38 15.13 15.13 0 0 0-4.2 11c0 4.51 1.46 8.16 4.34 10.82a15 15 0 0 0 10.54 4 13.41 13.41 0 0 0 9.86-3.85v3.67h4.47v-29.84zM484.4 201a11.47 11.47 0 0 1-4.17-.73 8.94 8.94 0 0 1-3.24-2.17 9.61 9.61 0 0 1-2.73-5.25 13 13 0 0 1-.18-2.19 10.8 10.8 0 0 1 3-8 10.06 10.06 0 0 1 7.41-3.08 9.83 9.83 0 0 1 4 .78 8.51 8.51 0 0 1 3.08 2.31 12.1 12.1 0 0 1 1.18 1.68 12.34 12.34 0 0 1 1.52 6.21 10.43 10.43 0 0 1-2.83 7.63 9.6 9.6 0 0 1-7.04 2.81zM522.11 161.27h4.46v43.91h-4.46zM507.87 161.27h4.46v43.91h-4.46zM273.45 181.4h120.57v5.08H273.45zM611.57 181.4h125.57v5.08H611.57zM548.67 205.55a13.92 13.92 0 0 1-13.48-9.05 17.08 17.08 0 0 1-1-6 17.39 17.39 0 0 1 1-6 14.23 14.23 0 0 1 3-4.88 13.17 13.17 0 0 1 10-4.31 15.77 15.77 0 0 1 2.89.26 13.06 13.06 0 0 1 2.62.79 12 12 0 0 1 4.26 3.06c2.54 2.45 3.83 5.89 3.83 10.23a3.69 3.69 0 0 1-.23 1.75l-.36.7h-22.36a11.22 11.22 0 0 0 2.82 6.12 9 9 0 0 0 6.82 2.86 10 10 0 0 0 8.32-4l.83-1L561 199l-.75.95a14.12 14.12 0 0 1-11.58 5.6zM539 187.76h18.18a10.28 10.28 0 0 0-2.55-5.67 8.14 8.14 0 0 0-6.19-2.49 9.1 9.1 0 0 0-6.51 2.64 9.56 9.56 0 0 0-2.93 5.52zM577.33 205.45c-3.55 0-5.25-1.32-6.05-2.43-1.08-1.51-1.61-3.62-1.61-6.46v-16.78h-3.83v-4.36h3.83v-9.58l4.37-.44v10.12h10.68v4.35H574v16a9 9 0 0 0 .74 4.34c.14.25.59 1 2.46 1a8.34 8.34 0 0 0 4.86-1.51l1.43-1 1.34 4.46-.9.49a13.72 13.72 0 0 1-6.6 1.8z" class="cls-25"/>
    </g>
    <path d="M350.74 5.77l-35.06 56.57-34.32-55.97-.37-.6h-9.73l40.42 65.5v53.94h8.18V71.28l40.61-65.51h-9.73zM460.37 21.86c-10.81-11.25-24.45-16.95-40.52-16.95-16.66 0-30.52 5.87-41.18 17.45s-16 25.89-16 42.94 5.39 31.57 16 43.12 24.52 17.45 41.18 17.45c16 0 29.61-5.7 40.52-17S476.7 83 476.7 65.3s-5.49-32.17-16.33-43.44zm8 43.53c0 15.3-4.73 28-14 37.68s-20.82 14.55-34.37 14.55c-14.12 0-25.95-5.05-35.15-15C375.7 92.5 371.09 80 371.09 65.39s4.61-27.1 13.7-37S405.68 13.45 420 13.45c13.85 0 25.09 4.73 34.34 14.46s14 22.22 14 37.48zM542.05 75.86c9-.85 16.57-4.09 22.42-9.65 6.13-5.93 9.25-14.54 9.25-25.57 0-10.51-3.11-19-9.22-25.35s-15.45-9.52-27.69-9.52h-38.93v119.44h8.26V76.09h26.13l34 49.12h10.11zm23.22-35.31c0 18.42-10.13 27.38-30.95 27.38h-28.27V14.11h31.13c8.8 0 15.78 2.24 20.76 6.64s7.33 10.95 7.33 19.8zM685.71 21.86c-10.82-11.25-24.45-16.95-40.52-16.95-16.67 0-30.52 5.87-41.18 17.45s-16 25.9-16 42.94 5.4 31.57 16 43.12 24.52 17.45 41.19 17.45c16 0 29.61-5.7 40.52-17S702 83 702 65.3s-5.46-32.17-16.29-43.44zm8 43.53c0 15.3-4.72 28-14 37.68-9.18 9.66-20.73 14.55-34.34 14.55-14.12 0-25.95-5.05-35.15-15C601 92.5 596.43 80 596.43 65.39c0-14.74 4.6-27.19 13.69-37S631 13.45 645.28 13.45c13.86 0 25.09 4.73 34.35 14.46s14.04 22.22 14.04 37.48zM732.4 125.21h-8.17V5.77h8.17zM166.41 146.46l-17.07 11.85-125.7-86.86c0-.17 0-.34-.05-.51v-7.75-15.42zm-35.08-112.1c-7.59 5.2-15.25 10.3-22.84 15.5a2.05 2.05 0 0 1-2.76 0c-9.38-6.53-18.81-13-28.2-19.48Q62.71 20.09 47.91 9.74L33.9 0H0c1.8 1.26 3.28 2.32 4.77 3.35l26.57 18.42q13.14 9.14 26.27 18.28c8.24 5.73 16.46 11.49 24.71 17.21 7.83 5.43 15.68 10.8 23.51 16.24a1.72 1.72 0 0 0 2.31 0c6.32-4.33 12.71-8.59 19-12.92q23.48-16.09 46.92-32.23L208.22 5c2.36-1.61 4.71-3.25 7.17-5h-34q-25.04 17.17-50.06 34.36zM23.77 105.54a2.54 2.54 0 0 0-.18.45v22.75a1.35 1.35 0 0 0 .12.5l83.9 58h.08l17.07-11.84zm167.61-57.72L128.94 91a5.47 5.47 0 0 0 .66.74q7.92 5.61 15.85 11.17a.92.92 0 0 0 .57.1l45.21-31.3a1.73 1.73 0 0 0 .15-.42zm.05 58.63c-7.09 4.89-13.93 9.62-20.85 14.41l16.22 11.5 4.63-3.21z" class="cls-25"/>
  </g>
</svg>
