<svg id="Layer_1" xmlns="http://www.w3.org/2000/svg" xmlns:xlink="http://www.w3.org/1999/xlink" viewBox="0 0 520 832.7"><style>.st54{fill:#1d45ba}.st56{fill:#52fcff}.st254{fill:#e1f2ff}.st488{opacity:.3}.st815{fill:#c7ecff}.st826{fill:#1d45ba;stroke:#1d45ba;stroke-miterlimit:10}</style><switch><g><g id="_x34__4_"><path id="XMLID_97_" d="M517.4 495.5l.4-240.2c0-7.1-4.3-15.3-9.6-18.3L234.5 79.3c-2.3-1.3-4.4-1.4-6-.6v-.1l-5.8 3.3 7.2 10.2.2 233c0 7.1 4.3 15.3 9.6 18.3L506.6 507l2.6-1.1 5.1-2.8c1.9-1.3 3.1-3.9 3.1-7.6z" fill="#164dd2"/><linearGradient id="XMLID_99_" gradientUnits="userSpaceOnUse" x1="542.835" y1="304.975" x2="163.576" y2="281.912"><stop offset="0" stop-color="#17d1aa"/><stop offset=".066" stop-color="#1ac2ae"/><stop offset=".265" stop-color="#229bb8"/><stop offset=".462" stop-color="#297cc0"/><stop offset=".652" stop-color="#2d66c6"/><stop offset=".835" stop-color="#3059ca"/><stop offset="1" stop-color="#3154cb"/></linearGradient><path id="XMLID_96_" d="M503.3 506.8L229.5 349.1c-5.3-3.1-9.6-11.3-9.6-18.3l-.2-241.4c0-7.1 4.3-10.3 9.6-7.3L503 239.8c5.3 3.1 9.6 11.3 9.6 18.3l.2 234.3c.1 7.1-4.2 17.5-9.5 14.4z" fill="url(#XMLID_99_)"/><path id="XMLID_95_" d="M496.6 481.9L235.9 331.7c-2.3-1.3-4.2-5-4.2-8.1l-.2-217.4c0-3.1 1.9-4.6 4.2-3.2l260.6 150.1c2.3 1.3 4.2 5 4.2 8.1l.2 217.4c.1 3.2-1.8 4.6-4.1 3.3z" fill="#2c30d1"/><linearGradient id="XMLID_100_" gradientUnits="userSpaceOnUse" x1="1753.248" y1="-2279.782" x2="1734.867" y2="-2303.995" gradientTransform="rotate(29.946 -4846.355 1286.766) skewX(49.108)"><stop offset="0" stop-color="#2f009f"/><stop offset="1" stop-color="#3915a9"/></linearGradient><path id="XMLID_56_" d="M366.6 171.9l-1.1-.6c-1.4-.8-2.5-2.9-2.5-4.7 0-1.8 1.1-2.7 2.5-1.9l1.1.6c1.4.8 2.5 2.9 2.5 4.7 0 1.9-1.1 2.7-2.5 1.9z" fill="url(#XMLID_100_)"/><linearGradient id="XMLID_101_" gradientUnits="userSpaceOnUse" x1="183.663" y1="331.716" x2="345.553" y2="703.05"><stop offset="0" stop-color="#17d1aa"/><stop offset=".073" stop-color="#1eb0b3"/><stop offset=".153" stop-color="#2493ba"/><stop offset=".243" stop-color="#297cc0"/><stop offset=".346" stop-color="#2c6ac5"/><stop offset=".469" stop-color="#2f5dc9"/><stop offset=".632" stop-color="#3156ca"/><stop offset="1" stop-color="#3154cb"/></linearGradient><path id="XMLID_55_" d="M501.1 506l-15.5-1.3-261.8-150.8c-5.3-3.1-14.6-2.7-20.7.9L12.3 465.3l-10.1-.8v3.6c-.1 2 1 4 3.5 5.4l273.7 157.7c5.3 3.1 14.6 2.7 20.7-.9l196-106.8c3.3-1.9 5-4.4 5-6.7V506z" fill="url(#XMLID_101_)"/><linearGradient id="XMLID_102_" gradientUnits="userSpaceOnUse" x1="549.691" y1="483.725" x2="-20.516" y2="486.641"><stop offset="0" stop-color="#17d1aa"/><stop offset=".142" stop-color="#19c9ac"/><stop offset=".368" stop-color="#1db2b2"/><stop offset=".648" stop-color="#258cbc"/><stop offset=".97" stop-color="#3059ca"/><stop offset="1" stop-color="#3154cb"/></linearGradient><path id="XMLID_54_" d="M279.5 627.2L5.7 469.5c-5.3-3.1-4.6-8.4 1.5-11.9l196-113.4c6.1-3.5 15.4-3.9 20.7-.9L497.6 501c5.3 3.1 4.6 8.4-1.5 11.9l-196 113.4c-6.1 3.6-15.3 4-20.6.9z" fill="url(#XMLID_102_)"/><linearGradient id="XMLID_103_" gradientUnits="userSpaceOnUse" x1="169.102" y1="326.934" x2="424.668" y2="623.72"><stop offset="0" stop-color="#17d1aa"/><stop offset=".227" stop-color="#1cb9b0"/><stop offset=".704" stop-color="#297dc0"/><stop offset="1" stop-color="#3154cb"/></linearGradient><path id="XMLID_53_" d="M358.2 574.1L97.5 424c-2.3-1.3-2-3.7.7-5.3l109.5-63.5c2.7-1.6 6.8-1.7 9.1-.4l260.6 150.1c2.3 1.3 2.1 3.7-.6 5.3l-109.5 63.5c-2.7 1.6-6.8 1.7-9.1.4z" fill="url(#XMLID_103_)"/><linearGradient id="XMLID_104_" gradientUnits="userSpaceOnUse" x1="172.714" y1="465.347" x2="194.461" y2="566.407"><stop offset="0" stop-color="#17d1aa"/><stop offset=".227" stop-color="#1cb9b0"/><stop offset=".704" stop-color="#297dc0"/><stop offset="1" stop-color="#3154cb"/></linearGradient><path id="XMLID_39_" d="M189.5 562.8l-72.2-41.6c-1.2-.7-1.1-2 .3-2.8l58.4-33.9c1.4-.8 3.6-.9 4.9-.2l72.2 41.6c1.2.7 1.1 2-.3 2.8l-58.4 33.9c-1.5.8-3.6.9-4.9.2z" fill="url(#XMLID_104_)"/><path id="XMLID_38_" class="st54" d="M97.5 424l1.3.8 108.9-63.1c2.7-1.6 6.8-1.7 9.1-.4l259.3 149.4.7-.4c2.7-1.6 3-3.9.6-5.3L216.8 354.8c-2.3-1.3-6.4-1.2-9.1.4L98.2 418.7c-2.7 1.6-3 3.9-.7 5.3z"/><path id="XMLID_37_" class="st54" d="M117.3 521.2l2.1 1.2 56.7-32.9c1.4-.8 3.6-.9 4.9-.2l70.1 40.4 1.7-1c1.4-.8 1.6-2.1.3-2.8L181 484.3c-1.2-.7-3.4-.6-4.9.2l-58.4 33.9c-1.5.8-1.6 2.1-.4 2.8z"/><path id="XMLID_36_" class="st56" d="M189.8 562.9L120.5 523c-1.2-.7-2.3-1.2-1.2-1.7l14.2-8.2c.4-.2 1.6.2 2.8.9l69.2 39.9c1.2.7 1.9 1.4 1.5 1.6l-14.4 8.3c-.3.1-1.6-.2-2.8-.9z"/><g id="XMLID_30_"><linearGradient id="XMLID_105_" gradientUnits="userSpaceOnUse" x1="436.875" y1="458.062" x2="-74.806" y2="-242.464"><stop offset="0" stop-color="#17d1aa"/><stop offset=".205" stop-color="#1faab4"/><stop offset=".44" stop-color="#2785be"/><stop offset=".658" stop-color="#2c6ac5"/><stop offset=".852" stop-color="#305ac9"/><stop offset="1" stop-color="#3154cb"/></linearGradient><path id="XMLID_35_" d="M459.7 500.2L199.1 350.1c-2.3-1.3-4.2-5-4.2-8.1l-.2-217.4c0-3.1 1.9-4.6 4.2-3.2l260.6 150.1c2.3 1.3 4.2 5 4.2 8.1l.2 217.4c.1 3.1-1.8 4.6-4.2 3.2z" opacity=".15" fill="url(#XMLID_105_)"/><g id="XMLID_31_"><linearGradient id="XMLID_106_" gradientUnits="userSpaceOnUse" x1="434.677" y1="522.143" x2="-135.456" y2="-274.604"><stop offset="0" stop-color="#1d45ba"/><stop offset="1" stop-color="#fff"/></linearGradient><path id="XMLID_32_" d="M429.9 522.2c-.8 0-1.6-.2-2.4-.7L167 371.4c-2.8-1.6-4.9-5.7-4.9-9.3l-.2-217.4c0-2.1.8-3.8 2.1-4.6 1.2-.7 2.7-.6 4.1.2l260.6 150.1c2.8 1.6 4.9 5.7 4.9 9.3l.2 217.4c0 2.1-.8 3.8-2.1 4.6-.5.4-1.1.5-1.8.5zM165.8 142.3c-.1 0-.3 0-.4.1-.4.2-.8.9-.8 2.3l.2 217.4c0 2.6 1.6 5.8 3.6 6.9L429 519.1c.3.2 1 .5 1.4.2.4-.2.8-.9.8-2.3l-.2-217.3c0-2.6-1.6-5.8-3.6-6.9L166.8 142.7c-.3-.2-.7-.4-1-.4z" fill="url(#XMLID_106_)"/></g></g></g><linearGradient id="SVGID_1_" gradientUnits="userSpaceOnUse" x1="362.479" y1="395.188" x2="362.479" y2="171.135"><stop offset="0" stop-color="#3154cb" stop-opacity="0"/><stop offset="1" stop-color="#e1f2ff"/></linearGradient><path fill="url(#SVGID_1_)" d="M319 194l-.3 138 87.2 50.3.4-137.9z"/><linearGradient id="SVGID_2_" gradientUnits="userSpaceOnUse" x1="351.44" y1="399.919" x2="351.44" y2="175.866"><stop offset="0" stop-color="#3154cb" stop-opacity="0"/><stop offset="1" stop-color="#e1f2ff"/></linearGradient><path fill="url(#SVGID_2_)" d="M308 198.7l-.4 138 87.3 50.4.4-138z"/><path class="st254" d="M300.1 209.8l-.4 138 87.3 50.4.4-138-87.3-50.4z"/><g class="st488"><linearGradient id="SVGID_3_" gradientUnits="userSpaceOnUse" x1="340.587" y1="325.56" x2="378.32" y2="396.91"><stop offset="0" stop-color="#17d1aa"/><stop offset=".227" stop-color="#1cb9b0"/><stop offset=".704" stop-color="#297dc0"/><stop offset="1" stop-color="#3154cb"/></linearGradient><path d="M378 369.7c.6.4 1.1 1.2 1.1 1.9v11.9c0 .7-.5 1-1.1.7L348.4 367c-.6-.4-1.1-1.2-1.1-1.9v-11.9c0-.7.5-1 1.1-.6l29.6 17.1z" fill="url(#SVGID_3_)"/></g><linearGradient id="SVGID_4_" gradientUnits="userSpaceOnUse" x1="308.165" y1="340.77" x2="319.8" y2="340.77"><stop offset="0" stop-color="#3154cb" stop-opacity="0"/><stop offset="1" stop-color="#e1f2ff"/></linearGradient><path d="M308.3 339.1l11.2 6.3c.1.1.2 0 .2-.1V343c0-.2-.1-.4-.3-.5l-11.1-6.2c-.1-.1-.3 0-.3.2v2.5c.2-.1.2 0 .3.1z" fill="url(#SVGID_4_)"/><g><linearGradient id="SVGID_5_" gradientUnits="userSpaceOnUse" x1="308.165" y1="346.071" x2="319.8" y2="346.071"><stop offset="0" stop-color="#3154cb" stop-opacity="0"/><stop offset="1" stop-color="#e1f2ff"/></linearGradient><path d="M308.3 344.4l11.2 6.3c.1.1.2 0 .2-.1v-2.3c0-.2-.1-.4-.3-.5l-11.1-6.2c-.1-.1-.3 0-.3.2v2.5c.2-.1.2 0 .3.1z" fill="url(#SVGID_5_)"/></g><g><path class="st254" d="M413.9 295.9l-.3 89.7 56.7 32.7.3-89.7-56.7-32.7z"/><g class="st488"><linearGradient id="SVGID_6_" gradientUnits="userSpaceOnUse" x1="440.206" y1="371.187" x2="464.733" y2="417.565"><stop offset="0" stop-color="#17d1aa"/><stop offset=".227" stop-color="#1cb9b0"/><stop offset=".704" stop-color="#297dc0"/><stop offset="1" stop-color="#3154cb"/></linearGradient><path d="M464.6 399.9c.4.2.7.8.7 1.3v7.7c0 .5-.3.7-.7.4l-19.3-11.1c-.4-.2-.7-.8-.7-1.3v-7.7c0-.5.3-.6.7-.4l19.3 11.1z" fill="url(#SVGID_6_)"/></g><g class="st488"><linearGradient id="SVGID_7_" gradientUnits="userSpaceOnUse" x1="445.327" y1="368.479" x2="469.853" y2="414.857"><stop offset="0" stop-color="#17d1aa"/><stop offset=".227" stop-color="#1cb9b0"/><stop offset=".704" stop-color="#297dc0"/><stop offset="1" stop-color="#3154cb"/></linearGradient><path d="M464.6 387.5c.4.2.7.8.7 1.3v7.7c0 .5-.3.6-.7.4l-19.3-11.1c-.4-.2-.7-.8-.7-1.3v-7.7c0-.5.3-.6.7-.4l19.3 11.1z" fill="url(#SVGID_7_)"/></g><path class="st815" d="M419.3 366.9l17 9.5c.2.1.4 0 .4-.2v-3.5c0-.3-.2-.6-.5-.8l-16.7-9.4c-.2-.1-.4 0-.4.2v3.8c0 .2.1.4.2.4zM419.3 374.9l17 9.5c.2.1.4 0 .4-.2v-3.5c0-.3-.2-.6-.5-.8l-16.7-9.4c-.2-.1-.4 0-.4.2v3.8c0 .2.1.4.2.4zM419.2 380l7.3 4.1c.1 0 .2 0 .2-.1v-1.5c0-.1-.1-.3-.2-.3l-7.2-4c-.1 0-.2 0-.2.1v1.6s.1 0 .1.1zM419.2 383.4l7.3 4.1c.1 0 .2 0 .2-.1v-1.5c0-.1-.1-.3-.2-.3l-7.2-4c-.1 0-.2 0-.2.1v1.6l.1.1z"/><linearGradient id="SVGID_8_" gradientUnits="userSpaceOnUse" x1="355.175" y1="-40.452" x2="355.175" y2="-89.997" gradientTransform="matrix(1.1013 .6206 -.02246 1.1005 49.335 208.9)"><stop offset="0" stop-color="#17d1aa"/><stop offset=".227" stop-color="#1cb9b0"/><stop offset=".704" stop-color="#297dc0"/><stop offset="1" stop-color="#3154cb"/></linearGradient><path d="M428.1 331.8c.2-9 6.7-12.1 14.5-6.8 7.8 5.2 14.1 16.8 13.9 25.8-.2 9-6.7 12.1-14.5 6.8s-14.1-16.8-13.9-25.8z" fill="url(#SVGID_8_)"/><defs><ellipse id="SVGID_863_" transform="rotate(-29.741 442.24 341.222)" cx="442.3" cy="341.2" rx="11.3" ry="20.7"/></defs><clipPath id="SVGID_9_"><use xlink:href="#SVGID_863_" overflow="visible"/></clipPath><g clip-path="url(#SVGID_9_)"><path class="st815" d="M446.9 341.4c0 3.4-2.1 4.8-4.8 3.3-2.6-1.5-4.8-5.5-4.8-8.8 0-3.4 2.1-4.8 4.8-3.3 2.7 1.5 4.8 5.5 4.8 8.8zm0 0M442.1 347.8c-4.8-2.8-8.6-.1-8.6 6l17.3 10c0-6.1-3.9-13.3-8.7-16zm0 0"/></g></g><g><path class="st254" d="M244.7 214.8l-.2 70.4 44.5 25.7.2-70.4-44.5-25.7z"/><g class="st488"><linearGradient id="SVGID_10_" gradientUnits="userSpaceOnUse" x1="265.357" y1="273.894" x2="284.601" y2="310.282"><stop offset="0" stop-color="#17d1aa"/><stop offset=".227" stop-color="#1cb9b0"/><stop offset=".704" stop-color="#297dc0"/><stop offset="1" stop-color="#3154cb"/></linearGradient><path d="M284.5 296.4c.3.2.6.6.6 1v6.1c0 .4-.3.5-.6.3l-15.1-8.7c-.3-.2-.6-.6-.6-1V288c0-.4.3-.5.6-.3l15.1 8.7z" fill="url(#SVGID_10_)"/></g><g class="st488"><linearGradient id="SVGID_11_" gradientUnits="userSpaceOnUse" x1="269.374" y1="271.769" x2="288.618" y2="308.158"><stop offset="0" stop-color="#17d1aa"/><stop offset=".227" stop-color="#1cb9b0"/><stop offset=".704" stop-color="#297dc0"/><stop offset="1" stop-color="#3154cb"/></linearGradient><path d="M284.5 286.7c.3.2.6.6.6 1v6.1c0 .4-.3.5-.6.3l-15.1-8.7c-.3-.2-.6-.6-.6-1v-6.1c0-.4.3-.5.6-.3l15.1 8.7z" fill="url(#SVGID_11_)"/></g><path class="st815" d="M249 270.6l13.3 7.5c.1.1.3 0 .3-.2v-2.8c0-.3-.1-.5-.4-.6l-13.1-7.4c-.1-.1-.3 0-.3.2v3c0 .1.1.2.2.3zM249 276.8l13.3 7.5c.1.1.3 0 .3-.2v-2.8c0-.3-.1-.5-.4-.6l-13.1-7.4c-.1-.1-.3 0-.3.2v3c0 .2.1.3.2.3zM248.9 280.8l5.7 3.2c.1 0 .1 0 .1-.1v-1.2c0-.1-.1-.2-.2-.3l-5.6-3.2c-.1 0-.1 0-.1.1v1.3c0 .1 0 .2.1.2zM248.9 283.5l5.7 3.2c.1 0 .1 0 .1-.1v-1.2c0-.1-.1-.2-.2-.3L249 282c-.1 0-.1 0-.1.1v1.3c-.1 0-.1.1 0 .1z"/><linearGradient id="SVGID_12_" gradientUnits="userSpaceOnUse" x1="196.149" y1="-41.848" x2="196.149" y2="-80.722" gradientTransform="matrix(1.1013 .6206 -.02246 1.1005 49.335 208.9)"><stop offset="0" stop-color="#17d1aa"/><stop offset=".227" stop-color="#1cb9b0"/><stop offset=".704" stop-color="#297dc0"/><stop offset="1" stop-color="#3154cb"/></linearGradient><path d="M255.8 243c.1-7.1 5.2-9.5 11.4-5.3 6.2 4.1 11.1 13.2 10.9 20.2-.1 7.1-5.2 9.5-11.4 5.3-6.1-4.1-11-13.2-10.9-20.2z" fill="url(#SVGID_12_)"/><defs><ellipse id="SVGID_868_" transform="rotate(-29.741 266.961 250.384)" cx="267" cy="250.4" rx="8.9" ry="16.3"/></defs><clipPath id="SVGID_13_"><use xlink:href="#SVGID_868_" overflow="visible"/></clipPath><g clip-path="url(#SVGID_13_)"><path class="st815" d="M270.6 250.5c0 2.6-1.7 3.8-3.7 2.6-2.1-1.2-3.7-4.3-3.7-6.9s1.7-3.8 3.7-2.6c2 1.2 3.7 4.3 3.7 6.9zm0 0M266.9 255.5c-3.7-2.2-6.8-.1-6.8 4.7l13.6 7.8c0-4.7-3.1-10.3-6.8-12.5zm0 0"/></g></g><g id="XMLID_27_"><g id="arrows_3_"><g id="XMLID_29_"><linearGradient id="SVGID_14_" gradientUnits="userSpaceOnUse" x1="308.285" y1="277.508" x2="375.178" y2="277.508"><stop offset="0" stop-color="#3154cb" stop-opacity="0"/><stop offset="1" stop-color="#e1f2ff"/></linearGradient><path d="M365.8 303.7l9.4 1.7c-3.2-14.3-9.8-26.5-19.7-36.6-13.6-13.9-25.9-17.7-36.7-11.3l-1.2.7-3.8-5.8c-.3-.4-.5-.8-.8-1.2-.6-1-1.2-1.4-1.5-1.5 0 .1-.1.2-.1.4-.3 1.7-.5 3.5-.7 5.2l-.9 6.6c-.5 3.9-1 7.8-1.6 11.6-.2 1.6.4 3.1 1.5 3.8.2.1.4.2.7.3 4.1.8 8.3 1.5 12.4 2.2l8.8 1.6h.2c.1-.6-.2-1.5-.9-2.5-.9-1.4-1.8-2.8-2.8-4.2l-2.1-3.1 1.3-.8c6-3.9 13-2.8 20.7 3.3 9.5 7.2 15.4 17.1 17.8 29.6z" fill="url(#SVGID_14_)"/><linearGradient id="SVGID_15_" gradientUnits="userSpaceOnUse" x1="312.759" y1="315.999" x2="378.826" y2="315.999"><stop offset="0" stop-color="#3154cb" stop-opacity="0"/><stop offset="1" stop-color="#e1f2ff"/></linearGradient><path d="M368.6 336.4l1.2-.7 1.8 2.8c.8 1.2 1.6 2.5 2.5 3.8.5.8 1 1.3 1.5 1.5 0-.1.1-.2.1-.4.8-6 1.6-11.9 2.4-17.9l.7-5.3v-.4c.2-1.2-.2-2.1-.6-2.7-.5-.7-1.2-1.2-2-1.3-3.2-.6-6.5-1.1-9.7-1.7l-6.8-1.2c-1.5-.3-2.9-.5-4.4-.8h-.2c-.1.7.2 1.5.9 2.6 1 1.5 1.9 2.9 2.9 4.5l2.2 3.4-1.4.8c-6 3.4-12.8 2.1-20.2-3.7-9.2-7.3-15-17.2-17.4-29.6l-9.4-1.7c3.1 13.8 9.5 25.8 18.9 35.7 13.6 14.1 26 18.3 37 12.3z" fill="url(#SVGID_15_)"/></g></g><g id="arrows_2_"><g id="XMLID_28_"><linearGradient id="SVGID_16_" gradientUnits="userSpaceOnUse" x1="306.913" y1="278.661" x2="373.806" y2="278.661"><stop offset="0" stop-color="#17d1aa"/><stop offset=".227" stop-color="#1cb9b0"/><stop offset=".704" stop-color="#297dc0"/><stop offset="1" stop-color="#3154cb"/></linearGradient><path d="M364.5 304.8l9.4 1.7c-3.2-14.3-9.8-26.5-19.7-36.6-13.6-13.9-25.9-17.7-36.7-11.3l-1.2.7-3.8-5.8c-.3-.4-.5-.8-.8-1.2-.6-1-1.2-1.4-1.5-1.5 0 .1-.1.2-.1.4-.3 1.7-.5 3.5-.7 5.2l-.9 6.6c-.5 3.9-1 7.8-1.6 11.6-.2 1.6.4 3.1 1.5 3.8.2.1.4.2.7.3 4.1.8 8.3 1.5 12.4 2.2l8.8 1.6h.2c.1-.6-.2-1.5-.9-2.5-.9-1.4-1.8-2.8-2.8-4.2l-2.1-3.1 1.3-.8c6-3.9 13-2.8 20.7 3.3 9.4 7.2 15.3 17.2 17.8 29.6z" fill="url(#SVGID_16_)"/><linearGradient id="SVGID_17_" gradientUnits="userSpaceOnUse" x1="311.387" y1="317.152" x2="377.454" y2="317.152"><stop offset="0" stop-color="#17d1aa"/><stop offset=".227" stop-color="#1cb9b0"/><stop offset=".704" stop-color="#297dc0"/><stop offset="1" stop-color="#3154cb"/></linearGradient><path d="M367.2 337.6l1.2-.7 1.8 2.8c.8 1.2 1.6 2.5 2.5 3.8.5.8 1 1.3 1.5 1.5 0-.1.1-.2.1-.4.8-6 1.6-11.9 2.4-17.9l.7-5.3v-.4c.2-1.2-.2-2.1-.6-2.7-.5-.7-1.2-1.2-2-1.3-3.2-.6-6.5-1.1-9.7-1.7l-6.8-1.2c-1.5-.3-2.9-.5-4.4-.8h-.2c-.1.7.2 1.5.9 2.6 1 1.5 1.9 2.9 2.9 4.5l2.2 3.4-1.4.8c-6 3.4-12.8 2.1-20.2-3.7-9.2-7.3-15-17.2-17.4-29.6l-9.4-1.7c3.1 13.8 9.5 25.8 18.9 35.7 13.6 14 26.1 18.2 37 12.3z" fill="url(#SVGID_17_)"/></g></g></g><g><path class="st826" d="M347.9 309.5l-3.2-10.9-8.1-5c-.9 2.3-2.1 5.1-3.1 7.4-.1.1-.3.2-.5 0-.3-.2-.4-.3-.4-.6v-.1l7.1-17.2c.2-.4.7-.7 1.2-.4.6.3.8 1 1 1.6l6.8 24.6c.1.5.4 1.1-.1 1.2-.3.2-.6-.2-.7-.6zm-6.7-24.1c-.3-1.1-.6-1.4-.9-.7l-3.3 8.2 7.4 4.5-3.2-12z"/><path class="st826" d="M348.7 301.2l-15.6-9.6c-.2-.1-.3-.3-.3-.5v-.5c0-.2.1-.3.3-.2l15.6 9.6c.2.1.3.3.3.5v.5c0 .2-.1.3-.3.2zM347.3 296.1l-12.8-7.8c-.2-.1-.3-.3-.3-.5v-.5c0-.2.1-.3.3-.2l12.8 7.8c.2.1.3.3.3.5v.5c0 .2-.2.3-.3.2z"/></g><g><linearGradient id="SVGID_18_" gradientUnits="userSpaceOnUse" x1="-1958.867" y1="330.05" x2="-1928.743" y2="307.668" gradientTransform="matrix(-1 -.1468 0 1 -1725.579 -168.68)"><stop offset=".001" stop-color="#d7f2ff"/><stop offset=".211" stop-color="#daf2ff"/><stop offset=".336" stop-color="#e1f2ff"/><stop offset="1" stop-color="#c6f2ff"/></linearGradient><path opacity=".96" fill="url(#SVGID_18_)" d="M183.7 458.1l17.2 9.7 16.5-5.5v-80.8l-17.3-7.6-16.4 3.4z"/><linearGradient id="SVGID_19_" gradientUnits="userSpaceOnUse" x1="-1956.758" y1="299.789" x2="-1910.364" y2="319.703" gradientTransform="matrix(-1 -.1468 0 1 -1725.579 -168.68)"><stop offset="0" stop-color="#3154cb"/><stop offset=".148" stop-color="#305ac9"/><stop offset=".342" stop-color="#2c6ac5"/><stop offset=".56" stop-color="#2785be"/><stop offset=".795" stop-color="#1faab4"/><stop offset="1" stop-color="#17d1aa"/></linearGradient><path opacity=".5" fill="url(#SVGID_19_)" d="M200.9 467.8v-80.9l16.5-5.4v80.8z"/><path class="st56" d="M183.7 377.3l17.2 9.6 16.5-5.4-17.3-9.7z"/><g><linearGradient id="SVGID_20_" gradientUnits="userSpaceOnUse" x1="-1995.107" y1="334.498" x2="-1958.79" y2="307.515" gradientTransform="matrix(-1 -.1468 0 1 -1725.579 -168.68)"><stop offset=".001" stop-color="#d7f2ff"/><stop offset=".211" stop-color="#daf2ff"/><stop offset=".336" stop-color="#e1f2ff"/><stop offset="1" stop-color="#c6f2ff"/></linearGradient><path opacity=".96" fill="url(#SVGID_20_)" d="M213.2 474.8l17.2 9.6 16.5-5.4V372.4l-17.3-7.7-16.4 3.4z"/><linearGradient id="SVGID_21_" gradientUnits="userSpaceOnUse" x1="-1990.737" y1="297.307" x2="-1934.927" y2="321.263" gradientTransform="matrix(-1 -.1468 0 1 -1725.579 -168.68)"><stop offset="0" stop-color="#3154cb"/><stop offset=".148" stop-color="#305ac9"/><stop offset=".342" stop-color="#2c6ac5"/><stop offset=".56" stop-color="#2785be"/><stop offset=".795" stop-color="#1faab4"/><stop offset="1" stop-color="#17d1aa"/></linearGradient><path opacity=".5" fill="url(#SVGID_21_)" d="M230.4 484.4V377.8l16.5-5.4V479z"/><path class="st56" d="M213.2 368.1l17.2 9.7 16.5-5.4-17.3-9.7z"/></g><g><linearGradient id="SVGID_22_" gradientUnits="userSpaceOnUse" x1="-2032.596" y1="337.484" x2="-1988.938" y2="305.045" gradientTransform="matrix(-1 -.1468 0 1 -1725.579 -168.68)"><stop offset=".001" stop-color="#d7f2ff"/><stop offset=".211" stop-color="#daf2ff"/><stop offset=".336" stop-color="#e1f2ff"/><stop offset="1" stop-color="#c6f2ff"/></linearGradient><path opacity=".96" fill="url(#SVGID_22_)" d="M242.7 491.4l17.2 9.7 16.5-5.4V358.5l-17.2-7.7-16.5 3.4z"/><linearGradient id="SVGID_23_" gradientUnits="userSpaceOnUse" x1="-2025.546" y1="292.077" x2="-1958.574" y2="320.825" gradientTransform="matrix(-1 -.1468 0 1 -1725.579 -168.68)"><stop offset="0" stop-color="#3154cb"/><stop offset=".148" stop-color="#305ac9"/><stop offset=".342" stop-color="#2c6ac5"/><stop offset=".56" stop-color="#2785be"/><stop offset=".795" stop-color="#1faab4"/><stop offset="1" stop-color="#17d1aa"/></linearGradient><path opacity=".5" fill="url(#SVGID_23_)" d="M259.9 501.1V363.9l16.5-5.4v137.2z"/><path class="st56" d="M242.7 354.2l17.2 9.7 16.5-5.4-17.2-9.7z"/></g><g><linearGradient id="SVGID_24_" gradientUnits="userSpaceOnUse" x1="-2054.597" y1="358.605" x2="-2017.83" y2="331.287" gradientTransform="matrix(-1 -.1468 0 1 -1725.579 -168.68)"><stop offset=".001" stop-color="#d7f2ff"/><stop offset=".211" stop-color="#daf2ff"/><stop offset=".336" stop-color="#e1f2ff"/><stop offset="1" stop-color="#c6f2ff"/></linearGradient><path opacity=".96" fill="url(#SVGID_24_)" d="M305.9 483.8v-80l-17.2-7.6-16.5 3.4v108.5l17.2 9.7 16.5-5.5v-28.5"/><linearGradient id="SVGID_25_" gradientUnits="userSpaceOnUse" x1="-2050.063" y1="320.91" x2="-1993.569" y2="345.16" gradientTransform="matrix(-1 -.1468 0 1 -1725.579 -168.68)"><stop offset="0" stop-color="#3154cb"/><stop offset=".148" stop-color="#305ac9"/><stop offset=".342" stop-color="#2c6ac5"/><stop offset=".56" stop-color="#2785be"/><stop offset=".795" stop-color="#1faab4"/><stop offset="1" stop-color="#17d1aa"/></linearGradient><path opacity=".5" fill="url(#SVGID_25_)" d="M289.4 517.8V409.3l16.5-5.5v108.5z"/><path class="st56" d="M272.2 399.6l17.2 9.7 16.5-5.5-17.2-9.6z"/></g><g><linearGradient id="SVGID_26_" gradientUnits="userSpaceOnUse" x1="303.264" y1="428.219" x2="333.975" y2="532.687"><stop offset=".001" stop-color="#d7f2ff"/><stop offset=".211" stop-color="#daf2ff"/><stop offset=".336" stop-color="#e1f2ff"/><stop offset="1" stop-color="#c6f2ff"/></linearGradient><path opacity=".96" fill="url(#SVGID_26_)" d="M301.7 524.8l17.2 9.6 16.5-5.4v-93.6l-17.2-7.7-16.5 3.4z"/><linearGradient id="SVGID_27_" gradientUnits="userSpaceOnUse" x1="318.832" y1="432.243" x2="335.815" y2="540.236"><stop offset="0" stop-color="#3154cb"/><stop offset=".148" stop-color="#305ac9"/><stop offset=".342" stop-color="#2c6ac5"/><stop offset=".56" stop-color="#2785be"/><stop offset=".795" stop-color="#1faab4"/><stop offset="1" stop-color="#17d1aa"/></linearGradient><path opacity=".5" fill="url(#SVGID_27_)" d="M318.9 534.4v-93.6l16.5-5.4V529z"/><path class="st56" d="M301.7 431.1l17.2 9.7 16.5-5.4-17.2-9.7z"/></g></g></g></switch></svg>