<svg id="Layer_1" xmlns="http://www.w3.org/2000/svg" xmlns:xlink="http://www.w3.org/1999/xlink" viewBox="0 0 520 832.7" enable-background="new 0 0 520 832.7"><style>.st61{opacity:.41;fill:#003ec9}</style><switch><g><defs><path id="SVGID_208_" d="M-647-1226.9s-8-7.6-8.2-7.8c-.2-.2-.2-.2-.2-.4v-12.8c0-.7 4 1.3 8.8 4.2 4.8 2.8 8.8 5.6 8.8 6.2v12.8c0 .2 0 .2-.2.2s-8.2-1.9-8.2-1.9-.3-.1-.4-.1c-.1 0-.4-.4-.4-.4zm-5.1-28.5c0-3.4 2.1-4.3 5.5-2.3s5.5 5.3 5.5 8.7v3.4c-3.9-2.5-7.1-4.5-11-6.5v-3.3zm-5-3v3.9c-2.1-.8-4.1-1.6-4.1-.9v20.6s0 .6.6 1.2c2.3 2.3 11.5 10.9 13.6 12.9.3.3.3.3.4.3.1.1.1.1.4.1 2.1.5 11.3 2.7 13.6 3.1.6.1.6-.5.6-.5v-20.6c0-.6-2-2.3-4.1-3.9v-3.9c0-5.8-4.7-13.3-10.5-16.7-5.8-3.3-10.5-1.4-10.5 4.4z"/></defs><clipPath id="SVGID_1_"><use xlink:href="#SVGID_208_" overflow="visible"/></clipPath><g clip-path="url(#SVGID_1_)"><defs><path id="SVGID_210_" d="M-2322.4-686.9l3470.3 2041.5v-2467.7l-3470.3-2041.6z"/></defs><clipPath id="SVGID_2_"><use xlink:href="#SVGID_210_" overflow="visible"/></clipPath></g><defs><path id="SVGID_226_" d="M-623.5-1235.2v5.1l5.1 3v14l5.9 3.5v-14.1l5.1 3v-5z"/></defs><clipPath id="SVGID_3_"><use xlink:href="#SVGID_226_" overflow="visible"/></clipPath><g clip-path="url(#SVGID_3_)"><defs><path id="SVGID_228_" d="M-2322.4-686.9l3470.3 2041.5v-2467.7l-3470.3-2041.6z"/></defs><clipPath id="SVGID_4_"><use xlink:href="#SVGID_228_" overflow="visible"/></clipPath></g><defs><path id="SVGID_244_" d="M-599.2-1215.8l3.5 2.1c1 .6 1.9 1.6 1.9 2.6 0 1.1-.9 1-1.9.4l-3.5-2.1v-3zm-5.8-8.5v19.1l5.8 3.4v-6l2.1 1.2 2.6 7.6 6.6 3.9-3.5-8.8c1.5.2 3.4-.5 3.4-3.8 0-3.6-2.4-8-6.9-10.6l-10.1-6z"/></defs><clipPath id="SVGID_5_"><use xlink:href="#SVGID_244_" overflow="visible"/></clipPath><g clip-path="url(#SVGID_5_)"><defs><path id="SVGID_246_" d="M-2322.4-686.9l3470.3 2041.5v-2467.7l-3470.3-2041.6z"/></defs><clipPath id="SVGID_6_"><use xlink:href="#SVGID_246_" overflow="visible"/></clipPath></g><defs><path id="SVGID_262_" d="M-584.8-1212.4v19.1l14.5 8.5v-5l-8.7-5.1v-2.1l8.5 5v-5.1l-8.5-5v-1.9l8.7 5.2v-5z"/></defs><clipPath id="SVGID_7_"><use xlink:href="#SVGID_262_" overflow="visible"/></clipPath><g clip-path="url(#SVGID_7_)"><defs><path id="SVGID_264_" d="M-2322.4-686.9l3470.3 2041.5v-2467.7l-3470.3-2041.6z"/></defs><clipPath id="SVGID_8_"><use xlink:href="#SVGID_264_" overflow="visible"/></clipPath></g><g><defs><path id="SVGID_280_" d="M-567.2-1202v5l7.3 4.3-7.3 5.2v4.5l15.1 9v-5.1l-7.5-4.4 7.3-5.2v-4.5z"/></defs><clipPath id="SVGID_9_"><use xlink:href="#SVGID_280_" overflow="visible"/></clipPath><g clip-path="url(#SVGID_9_)"><defs><path id="SVGID_282_" d="M-2322.4-686.9l3470.3 2041.5v-2467.7l-3470.3-2041.6z"/></defs><clipPath id="SVGID_10_"><use xlink:href="#SVGID_282_" overflow="visible"/></clipPath></g></g><g><defs><path id="SVGID_298_" d="M-544.8-1179.3c0-2.7 1.8-3.7 4.6-2.1s4.6 4.8 4.6 7.5-1.8 3.7-4.6 2.1-4.6-4.8-4.6-7.5m-5.8-3.4c0 5.9 4.6 12.5 10.5 16s10.5 2.2 10.5-3.7-4.6-12.6-10.5-16.1c-6-3.4-10.5-2.1-10.5 3.8"/></defs><clipPath id="SVGID_11_"><use xlink:href="#SVGID_298_" overflow="visible"/></clipPath><g clip-path="url(#SVGID_11_)"><defs><path id="SVGID_300_" d="M-2322.4-686.9l3470.3 2041.5v-2467.7l-3470.3-2041.6z"/></defs><clipPath id="SVGID_12_"><use xlink:href="#SVGID_300_" overflow="visible"/></clipPath></g></g><g><defs><path id="SVGID_316_" d="M-521.4-1170l3.5 2.1c1 .6 1.9 1.6 1.9 2.6 0 1.1-.9 1-1.9.4l-3.5-2.1v-3zm-5.8-8.5v19.1l5.8 3.4v-6l2.1 1.2 2.6 7.6 6.6 3.9-3.5-8.8c1.5.2 3.5-.5 3.5-3.8 0-3.6-2.4-8-6.9-10.6l-10.2-6z"/></defs><clipPath id="SVGID_13_"><use xlink:href="#SVGID_316_" overflow="visible"/></clipPath><g clip-path="url(#SVGID_13_)"><defs><path id="SVGID_318_" d="M-2322.4-686.9l3470.3 2041.5v-2467.7l-3470.3-2041.6z"/></defs><clipPath id="SVGID_14_"><use xlink:href="#SVGID_318_" overflow="visible"/></clipPath></g></g><g><defs><path id="SVGID_339_" d="M193.4-1226.9s-8-7.6-8.2-7.8c-.2-.2-.2-.2-.2-.4v-12.8c0-.7 4 1.3 8.8 4.2 4.8 2.8 8.8 5.6 8.8 6.2v12.8c0 .2 0 .2-.2.2s-8.2-1.9-8.2-1.9-.3-.1-.4-.1c-.1 0-.4-.4-.4-.4zm-5.1-28.5c0-3.4 2.1-4.3 5.5-2.3s5.5 5.3 5.5 8.7v3.4c-3.9-2.5-7.1-4.5-11-6.5v-3.3zm-5-3v3.9c-2.1-.8-4.1-1.6-4.1-.9v20.6s0 .6.6 1.2c2.3 2.3 11.5 10.9 13.6 12.9.3.3.3.3.4.3.1.1.1.1.4.1 2.1.5 11.3 2.7 13.6 3.1.6.1.6-.5.6-.5v-20.6c0-.6-2-2.3-4.1-3.9v-3.9c0-5.8-4.7-13.3-10.5-16.7-5.8-3.3-10.5-1.4-10.5 4.4z"/></defs><clipPath id="SVGID_15_"><use xlink:href="#SVGID_339_" overflow="visible"/></clipPath><g clip-path="url(#SVGID_15_)"><defs><path id="SVGID_341_" d="M-1481.9-686.9l3470.2 2041.5v-2467.7l-3470.2-2041.6z"/></defs><clipPath id="SVGID_16_"><use xlink:href="#SVGID_341_" overflow="visible"/></clipPath></g><defs><path id="SVGID_357_" d="M216.9-1235.2v5.1l5.2 3v14l5.8 3.5v-14.1l5.1 3v-5z"/></defs><clipPath id="SVGID_17_"><use xlink:href="#SVGID_357_" overflow="visible"/></clipPath><g clip-path="url(#SVGID_17_)"><defs><path id="SVGID_359_" d="M-1481.9-686.9l3470.2 2041.5v-2467.7l-3470.2-2041.6z"/></defs><clipPath id="SVGID_18_"><use xlink:href="#SVGID_359_" overflow="visible"/></clipPath></g><defs><path id="SVGID_375_" d="M241.2-1215.8l3.5 2.1c1 .6 1.9 1.6 1.9 2.6 0 1.1-.9 1-1.9.4l-3.5-2.1v-3zm-5.8-8.5v19.1l5.8 3.4v-6l2.1 1.2 2.6 7.6 6.6 3.9-3.5-8.8c1.5.2 3.4-.5 3.4-3.8 0-3.6-2.4-8-6.9-10.6l-10.1-6z"/></defs><clipPath id="SVGID_19_"><use xlink:href="#SVGID_375_" overflow="visible"/></clipPath><g clip-path="url(#SVGID_19_)"><defs><path id="SVGID_377_" d="M-1481.9-686.9l3470.2 2041.5v-2467.7l-3470.2-2041.6z"/></defs><clipPath id="SVGID_20_"><use xlink:href="#SVGID_377_" overflow="visible"/></clipPath></g><g><defs><path id="SVGID_393_" d="M255.6-1212.4v19.1l14.5 8.5v-5l-8.7-5.1v-2.1l8.5 5v-5.1l-8.5-5v-1.9l8.7 5.2v-5z"/></defs><clipPath id="SVGID_21_"><use xlink:href="#SVGID_393_" overflow="visible"/></clipPath><g clip-path="url(#SVGID_21_)"><defs><path id="SVGID_395_" d="M-1481.9-686.9l3470.2 2041.5v-2467.7l-3470.2-2041.6z"/></defs><clipPath id="SVGID_22_"><use xlink:href="#SVGID_395_" overflow="visible"/></clipPath></g></g><g><defs><path id="SVGID_411_" d="M273.2-1202v5l7.3 4.3-7.3 5.2v4.5l15.1 9v-5.1l-7.5-4.4 7.3-5.2v-4.5z"/></defs><clipPath id="SVGID_23_"><use xlink:href="#SVGID_411_" overflow="visible"/></clipPath><g clip-path="url(#SVGID_23_)"><defs><path id="SVGID_413_" d="M-1481.9-686.9l3470.2 2041.5v-2467.7l-3470.2-2041.6z"/></defs><clipPath id="SVGID_24_"><use xlink:href="#SVGID_413_" overflow="visible"/></clipPath></g></g><g><defs><path id="SVGID_429_" d="M295.6-1179.3c0-2.7 1.8-3.7 4.6-2.1s4.6 4.8 4.6 7.5-1.8 3.7-4.6 2.1-4.6-4.8-4.6-7.5m-5.8-3.4c0 5.9 4.6 12.5 10.5 16s10.5 2.2 10.5-3.7-4.6-12.6-10.5-16.1c-6-3.4-10.5-2.1-10.5 3.8"/></defs><clipPath id="SVGID_25_"><use xlink:href="#SVGID_429_" overflow="visible"/></clipPath><g clip-path="url(#SVGID_25_)"><defs><path id="SVGID_431_" d="M-1481.9-686.9l3470.2 2041.5v-2467.7l-3470.2-2041.6z"/></defs><clipPath id="SVGID_26_"><use xlink:href="#SVGID_431_" overflow="visible"/></clipPath></g></g><g><defs><path id="SVGID_447_" d="M319-1170l3.5 2.1c1 .6 1.9 1.6 1.9 2.6 0 1.1-.9 1-1.9.4l-3.5-2.1v-3zm-5.8-8.5v19.1l5.8 3.4v-6l2.1 1.2 2.6 7.6 6.6 3.9-3.5-8.8c1.5.2 3.5-.5 3.5-3.8 0-3.6-2.4-8-6.9-10.6l-10.2-6z"/></defs><clipPath id="SVGID_27_"><use xlink:href="#SVGID_447_" overflow="visible"/></clipPath><g clip-path="url(#SVGID_27_)"><defs><path id="SVGID_449_" d="M-1481.9-686.9l3470.2 2041.5v-2467.7l-3470.2-2041.6z"/></defs><clipPath id="SVGID_28_"><use xlink:href="#SVGID_449_" overflow="visible"/></clipPath></g></g></g><g><linearGradient id="SVGID_29_" gradientUnits="userSpaceOnUse" x1="158.855" y1="530.19" x2="374.987" y2="530.19"><stop offset="0" stop-color="#2c30d1"/><stop offset=".129" stop-color="#2b35d0"/><stop offset=".293" stop-color="#2945cc"/><stop offset=".475" stop-color="#265fc6"/><stop offset=".671" stop-color="#2183bd"/><stop offset=".876" stop-color="#1bb1b2"/><stop offset="1" stop-color="#17d1aa"/></linearGradient><path d="M259.7 591l-98.2-56.7c-4-2.3-3.5-6.3 1.1-9l96-55.4c4.6-2.6 11.5-2.9 15.5-.6l98.2 56.7c4 2.3 3.5 6.3-1.1 9l-96 55.4c-4.6 2.6-11.5 2.9-15.5.6z" fill="url(#SVGID_29_)"/><defs><filter id="Adobe_OpacityMaskFilter" filterUnits="userSpaceOnUse" x="158.9" y="467.8" width="216.1" height="124.8"><feFlood result="back" flood-color="#fff" flood-opacity="1"/><feBlend in="SourceGraphic" in2="back"/></filter></defs><mask maskUnits="userSpaceOnUse" x="158.9" y="467.8" width="216.1" height="124.8" id="SVGID_30_"><g filter="url(#Adobe_OpacityMaskFilter)"><defs><filter id="Adobe_OpacityMaskFilter_1_" filterUnits="userSpaceOnUse" x="158.9" y="467.8" width="216.1" height="124.8"><feFlood result="back" flood-color="#fff" flood-opacity="1"/><feBlend in="SourceGraphic" in2="back"/></filter></defs><radialGradient id="SVGID_31_" cx="266.921" cy="579.236" r="88.235" gradientUnits="userSpaceOnUse"><stop offset="0" stop-color="#e6e6e6"/><stop offset=".097" stop-color="#dfdfdf"/><stop offset=".232" stop-color="#cdcdcd"/><stop offset=".391" stop-color="#afafaf"/><stop offset=".566" stop-color="#858585"/><stop offset=".756" stop-color="#505050"/><stop offset=".955" stop-color="#101010"/><stop offset="1"/></radialGradient><path d="M259.7 591l-98.2-56.7c-4-2.3-3.5-6.3 1.1-9l96-55.4c4.6-2.6 11.5-2.9 15.5-.6l98.2 56.7c4 2.3 3.5 6.3-1.1 9l-96 55.4c-4.6 2.6-11.5 2.9-15.5.6z" mask="url(#SVGID_30_)" fill="url(#SVGID_31_)"/></g></mask><radialGradient id="SVGID_32_" cx="267.87" cy="565.957" r="119.242" gradientUnits="userSpaceOnUse"><stop offset="0" stop-color="#42ffff"/><stop offset=".137" stop-color="#43f9ff"/><stop offset=".328" stop-color="#46e6ff"/><stop offset=".552" stop-color="#4ac8ff"/><stop offset=".798" stop-color="#519fff"/><stop offset="1" stop-color="#5778ff"/></radialGradient><path d="M161.5 534.3l8.6 5 88.4-51.1c4.6-2.6 11.5-2.9 15.5-.6l89.6 51.7 7.5-4.3c4.6-2.6 5.1-6.7 1.1-9L274 469.3c-4-2.3-10.9-2-15.5.6l-96 55.4c-4.4 2.7-4.9 6.7-1 9z" fill="#42ffff"/></g><linearGradient id="SVGID_33_" gradientUnits="userSpaceOnUse" x1="122.057" y1="532.329" x2="416.773" y2="532.329"><stop offset="0" stop-color="#17d1aa"/><stop offset=".227" stop-color="#1cb9b0"/><stop offset=".704" stop-color="#297dc0"/><stop offset="1" stop-color="#3154cb"/></linearGradient><path d="M130.5 550.5l112.8 65.1c11.8 6.8 26.2 6.8 38 0l127.2-73.7c9.2-5.3 9.2-18.6 0-23.9l-124.9-72.1c-4.3-2.5-9.6-2.5-13.8 0l-139.2 80.7c-9.3 5.3-9.3 18.5-.1 23.9z" fill="none" stroke="url(#SVGID_33_)" stroke-width="3" stroke-miterlimit="10"/><g><linearGradient id="SVGID_34_" gradientUnits="userSpaceOnUse" x1="321.701" y1="365.249" x2="443.367" y2="365.249"><stop offset="0" stop-color="#17d1aa"/><stop offset=".066" stop-color="#1ac2ae"/><stop offset=".265" stop-color="#229bb8"/><stop offset=".462" stop-color="#297cc0"/><stop offset=".652" stop-color="#2d66c6"/><stop offset=".835" stop-color="#3059ca"/><stop offset="1" stop-color="#3154cb"/></linearGradient><path d="M411.4 206l20.7 18.2c7.1 6.2 11.8 16.8 11.1 24.8l-17 189.5c-2.8 31.8-15.7 55.3-35.7 67.1h.1L358 524.5l.7-10-12.1 1.4c-2.5-30.5-12.7-58.7-21.2-88.6-19.4-84.9 42.3-150.1 86-221.3z" fill="url(#SVGID_34_)"/><linearGradient id="SVGID_35_" gradientUnits="userSpaceOnUse" x1="106.131" y1="289.63" x2="411.433" y2="289.63"><stop offset="0" stop-color="#17d1aa"/><stop offset=".066" stop-color="#1ac2ae"/><stop offset=".265" stop-color="#229bb8"/><stop offset=".462" stop-color="#297cc0"/><stop offset=".652" stop-color="#2d66c6"/><stop offset=".835" stop-color="#3059ca"/><stop offset="1" stop-color="#3154cb"/></linearGradient><path d="M136 57.8c1.8-1.1 4.2-1.4 6.9-.6l144.6 40.2L411.4 206c-43.8 71.2-105.5 136.4-86.1 221.3 8.5 29.9 18.7 58.1 21.2 88.6l-59.1 6.6-78.2-99c-34.2-43.3-56.7-97.2-60.6-145.2L132.9 83l-26.8-7.9L136 57.8z" fill="url(#SVGID_35_)"/><linearGradient id="SVGID_36_" gradientUnits="userSpaceOnUse" x1="257.554" y1="176.073" x2="440.052" y2="176.073"><stop offset="0" stop-color="#17d1aa"/><stop offset=".066" stop-color="#1ac2ae"/><stop offset=".265" stop-color="#229bb8"/><stop offset=".462" stop-color="#297cc0"/><stop offset=".652" stop-color="#2d66c6"/><stop offset=".835" stop-color="#3059ca"/><stop offset="1" stop-color="#3154cb"/></linearGradient><path d="M440.1 234.7l-32.8 20.1-149.7-140 30-17.4 144.6 126.8c3.2 2.8 5.9 6.5 7.9 10.5z" fill="url(#SVGID_36_)"/><linearGradient id="SVGID_37_" gradientUnits="userSpaceOnUse" x1="180.65" y1="51.232" x2="349.905" y2="523.227"><stop offset="0" stop-color="#3154cb"/><stop offset=".196" stop-color="#3058ca"/><stop offset=".373" stop-color="#2e63c7"/><stop offset=".543" stop-color="#2a75c2"/><stop offset=".708" stop-color="#258fbb"/><stop offset=".868" stop-color="#1eb0b3"/><stop offset="1" stop-color="#17d1aa"/></linearGradient><path d="M257.6 114.8l144.6 126.8c7.1 6.2 11.8 16.8 11.1 24.8l-17 189.5c-3.9 43.5-26.4 71.5-60.6 75.3l-78.2 8.7-78.2-99c-34.2-43.3-56.7-97.2-60.6-145.2l-17-209.1c-.7-8.9 4-13.9 11.1-12l144.8 40.2z" fill="url(#SVGID_37_)"/></g><g opacity=".15"><linearGradient id="SVGID_38_" gradientUnits="userSpaceOnUse" x1="70.891" y1="335.325" x2="382.534" y2="335.325"><stop offset="0" stop-color="#17d1aa"/><stop offset=".252" stop-color="#1eaeb3"/><stop offset=".76" stop-color="#2c6dc4"/><stop offset="1" stop-color="#3154cb"/></linearGradient><path d="M226.7 143.1l144.6 126.8c7.1 6.2 11.8 16.8 11.1 24.8l-17 189.5c-3.9 43.5-26.4 71.5-60.6 75.3l-78.2 8.7-78.2-99C114.3 425.9 91.8 372 87.9 324L71 114.8c-.7-8.9 4-13.9 11.1-12l144.6 40.3z" fill="url(#SVGID_38_)"/></g><path d="M207.2 264c0-26.4 17.5-36.7 39.2-23 21.6 13.7 39.2 46.1 39.2 72.5 0 21.8-12.1 32.4-28.4 27.8v66.1c0 7.2-4.8 10-10.7 6.3s-10.7-12.7-10.7-19.9v-66.1c-16.6-16.1-28.6-41.9-28.6-63.7z" fill="#2c30d1"/><g><path class="st61" d="M235.7 327.6c-16.4-16.1-28.4-41.9-28.4-63.7 0-.8.1-1.6.1-2.4.5 21.5 12.3 46.4 28.3 62.1v4zM246.4 413.6c-5.9-3.7-10.7-12.7-10.7-19.9v-4c0 7.2 4.8 16.1 10.7 19.9 5.9 3.7 10.7.9 10.7-6.3v4c0 7.2-4.8 10-10.7 6.3zM257.1 341.2v-4c15.8 4.5 27.5-5.4 28.3-25.7 0 .6.1 1.3.1 1.9 0 21.8-12 32.4-28.4 27.8z"/></g><g opacity=".4"><linearGradient id="SVGID_39_" gradientUnits="userSpaceOnUse" x1="-7984.623" y1="336.925" x2="-7668.466" y2="336.925" gradientTransform="matrix(-1 0 0 1 -7599.833 0)"><stop offset="0" stop-color="#3154cb"/><stop offset=".196" stop-color="#3058ca"/><stop offset=".373" stop-color="#2e63c7"/><stop offset=".543" stop-color="#2a75c2"/><stop offset=".708" stop-color="#258fbb"/><stop offset=".868" stop-color="#1eb0b3"/><stop offset="1" stop-color="#17d1aa"/></linearGradient><path d="M146.7 472.1c-34.3-43.5-57.1-98.2-61.1-146.5l-17-209.1c-.5-5.6 1-10.1 4.1-12.6 2.6-2.1 6.1-2.7 9.8-1.7l145.1 40.3 145 127.1c7.7 6.7 12.7 18 11.9 26.7l-17 189.5c-4 44.5-27.4 73.4-62.6 77.3l-79.4 8.9-78.8-99.9zM81.5 106.6c-1.6-.5-3.9-.7-5.7.8-1.9 1.6-2.8 4.8-2.5 8.8l17 209.1c3.8 47.4 26.3 101.2 60.1 144l77.4 98 76.9-8.6c32.9-3.7 54.8-31.1 58.6-73.2l17-189.5c.7-7.3-3.8-17.2-10.4-22.9L225.6 146.6l-144.1-40z" fill="url(#SVGID_39_)"/></g></g></switch></svg>