<?xml version="1.0" encoding="UTF-8"?>
<svg width="48px" height="48px" viewBox="0 0 48 48" version="1.1" xmlns="http://www.w3.org/2000/svg" xmlns:xlink="http://www.w3.org/1999/xlink">
    <!-- Generator: Sketch 60 (88103) - https://sketch.com -->
    <title>icon/cost changed</title>
    <desc>Created with Sketch.</desc>
    <g id="icon/cost-changed" stroke="none" stroke-width="1" fill="none" fill-rule="evenodd">
        <g id="icon/bg-for-icon" fill="#F0F3F5">
            <circle id="Oval-Copy-4" cx="24" cy="24" r="24"></circle>
        </g>
        <g id="icon/total-sent" fill="#D8D8D8" transform="translate(12.000000, 12.000000)" stroke="#8791AD" stroke-width="0.2">
            <path d="M8.89294008,13.0738964 L8.89266675,13.0745608 L9.54297069,11.4779842 C9.58115208,11.4185 9.58115208,11.4185 9.6442877,11.4060203 L14.3236167,11.4060203 C14.3867523,11.4185 14.3867523,11.4185 14.422659,11.4720361 L15.0944615,13.0738964 C15.0973796,13.1839033 15.0973796,13.1839033 14.9952954,13.2225958 L8.99308108,13.2225958 C8.8931573,13.1883668 8.8931573,13.1883668 8.89294008,13.0738964 Z M12.0470333,5.80404317 L12.0479061,5.80606262 L13.7852243,9.95051877 C13.785007,10.0649891 13.785007,10.0649891 13.6850832,10.0992181 L10.2642988,10.0992181 C10.164375,10.0649891 10.164375,10.0649891 10.1638609,9.95124093 L11.8497063,5.80404317 C11.8878517,5.71838123 12.0088878,5.71838123 12.0470333,5.80404317 Z M19.8993595,13.8468412 C19.8829107,13.500769 19.5468526,13.2225958 19.1511244,13.2225958 L16.7266471,13.2225958 C16.6526106,13.2015235 16.6526106,13.2015235 16.6285796,13.15658 L15.9567771,11.5547197 C15.9538591,11.4447128 15.9538591,11.4447128 16.0559433,11.4060203 L17.5669766,11.4060203 C17.9627458,11.4060203 18.2988326,11.1277893 18.3152069,10.7818827 C18.332002,10.4101077 18.0158712,10.0992181 17.6176693,10.0992181 L15.4183847,10.0992181 C15.3552491,10.0867385 15.3552491,10.0867385 15.3193353,10.0331855 L12.5867739,3.51427514 C12.4814712,3.26254412 12.230938,3.10248036 11.933545,3.09999959 C11.6455795,3.10082198 11.3885581,3.26860989 11.2859719,3.51992711 L8.63913837,10.0272543 C8.60095698,10.0867385 8.60095698,10.0867385 8.53782136,10.0992181 L6.39605349,10.0992181 C5.99928382,10.0992181 5.66239831,10.3774186 5.64683842,10.7226325 C5.62921504,11.0949721 5.94498252,11.4060203 6.34341104,11.4060203 L7.91781027,11.4060203 C8.01773405,11.4402494 8.01773405,11.4402494 8.0182246,11.5540553 L7.36792066,13.1506319 C7.32973927,13.2101161 7.32973927,13.2101161 7.26660365,13.2225958 L4.8499252,13.2225958 C4.45362309,13.2225958 4.11625734,13.5012289 4.10070965,13.8469586 C4.08308702,14.2184747 4.39898684,14.529398 4.79728275,14.529398 L6.64854228,14.529398 C6.75276755,14.5729489 6.75276755,14.5729489 6.7470295,14.6773774 L4.59551096,19.9699548 C4.45924083,20.3051165 4.63642192,20.681221 4.99598189,20.8121153 C5.07690117,20.8413199 5.16175483,20.855903 5.24766817,20.855903 C5.53546347,20.855903 5.79608305,20.6898523 5.89982491,20.4350502 L8.27175298,14.6013618 C8.30993437,14.5418776 8.30993437,14.5418776 8.37306999,14.529398 L15.6328539,14.529398 C15.6959896,14.5418776 15.6959896,14.5418776 15.7319028,14.5954293 L18.2002371,20.4837515 C18.3063901,20.7367687 18.5650295,20.9 18.8498926,20.9 C18.9385154,20.9 19.0248877,20.8845297 19.1093101,20.8528421 C19.4661405,20.719561 19.6391763,20.3410964 19.4995331,20.0075339 L17.2660144,14.6780973 C17.2662316,14.563627 17.2662316,14.563627 17.3661554,14.529398 L19.2018172,14.529398 C19.5999806,14.529398 19.9160888,14.2185684 19.8993595,13.8468412 Z M19.8993595,13.8468412 C19.8993579,13.8468052 19.8993563,13.8467693 19.8993547,13.8467334 L19.8993647,13.8469489 C19.899363,13.8469129 19.8993613,13.846877 19.8993595,13.8468412 Z" id="Fill-1" fill="#8791AD"></path>
        </g>
    </g>
</svg>