<?xml version="1.0" encoding="UTF-8"?>
<svg width="48px" height="48px" viewBox="0 0 48 48" version="1.1" xmlns="http://www.w3.org/2000/svg" xmlns:xlink="http://www.w3.org/1999/xlink">
    <!-- Generator: Sketch 60 (88103) - https://sketch.com -->
    <title>icon/delegated</title>
    <desc>Created with Sketch.</desc>
    <g id="icon/delegated" stroke="none" stroke-width="1" fill="none" fill-rule="evenodd">
        <g id="icon/bg-for-icon" fill="#F0F3F5">
            <circle id="Oval-Copy-4" cx="24" cy="24" r="24"></circle>
        </g>
        <g id="icon/action-delegation" fill="#D8D8D8" transform="translate(12.000000, 12.000000)" fill-rule="nonzero">
            <path d="M14.9783489,9.5 C18.304015,9.5 21,12.2982203 21,15.75 C21,19.2017797 18.304015,22 14.9783489,22 C11.6526829,22 8.95669785,19.2017797 8.95669785,15.75 C8.95669785,12.2982203 11.6526829,9.5 14.9783489,9.5 Z M13.875987,2 C15.3149771,2 16.4919883,3.16420039 16.5803989,4.63463307 L16.58573,4.8125 L16.58573,8.45833333 L15.1806781,8.45833333 L15.1806781,4.8125 C15.1806781,4.11135725 14.6672825,3.53467161 14.0093841,3.46532474 L13.875987,3.45833333 L5.70974298,3.45833333 C5.03421707,3.45833333 4.47860111,3.99119755 4.41178789,4.67404432 L4.40505192,4.8125 L4.40505192,18.6145833 C4.40505192,19.3157261 4.9184475,19.8924117 5.5763459,19.9617586 L5.70974298,19.96875 L8.95669785,19.96875 L8.95669785,21.4270833 L5.70974298,21.4270833 C4.27075286,21.4270833 3.09374172,20.2628829 3.00533109,18.7924503 L3,18.6145833 L3,4.8125 C3,3.31894148 4.12166536,2.09729653 5.53837457,2.00553325 L5.70974298,2 L13.875987,2 Z M14.9663699,10.8733359 C12.3335509,10.8733359 10.1992295,13.0885937 10.1992295,15.8212526 C10.1992295,18.5539115 12.3335509,20.7691692 14.9663699,20.7691692 C17.5991889,20.7691692 19.7335103,18.5539115 19.7335103,15.8212526 C19.7335103,13.0885937 17.5991889,10.8733359 14.9663699,10.8733359 Z M18.263319,13.5681621 C18.5181916,13.7899 18.55162,14.1841041 18.3379836,14.4486418 L14.9730488,18.6153084 C14.7445153,18.8982924 14.3306889,18.9150481 14.0816103,18.6514024 L11.8116836,16.2487205 C11.5788414,16.0022606 11.5825809,15.6065515 11.8200362,15.3648795 C12.0574915,15.1232075 12.4387431,15.1270889 12.6715853,15.3735489 L14.4766197,17.2841495 L17.4150085,13.645658 C17.6286449,13.3811204 18.0084465,13.3464243 18.263319,13.5681621 Z M10.6134819,8.76926214 C10.9460485,8.76926214 11.215647,9.04908418 11.215647,9.39426214 C11.215647,9.70492232 10.9972723,9.96264418 10.7111562,10.011082 L10.6134819,10.0192621 L6.93536717,10.0192621 C6.60280056,10.0192621 6.33320206,9.73944011 6.33320206,9.39426214 C6.33320206,9.08360197 6.55157685,8.82588011 6.83769286,8.77744234 L6.93536717,8.76926214 L10.6134819,8.76926214 Z M12.9570182,5.64426214 C13.2895849,5.64426214 13.5591834,5.92408418 13.5591834,6.26926214 C13.5591834,6.57992232 13.3408086,6.83764418 13.0546926,6.88608195 L12.9570182,6.89426214 L6.93536717,6.89426214 C6.60280056,6.89426214 6.33320206,6.61444011 6.33320206,6.26926214 C6.33320206,5.95860197 6.55157685,5.70088011 6.83769286,5.65244234 L6.93536717,5.64426214 L12.9570182,5.64426214 Z" id="Combined-Shape" fill="#8791AD"></path>
        </g>
    </g>
</svg>