<?xml version="1.0" encoding="UTF-8"?>
<svg width="32px" height="32px" viewBox="0 0 32 32" version="1.1" xmlns="http://www.w3.org/2000/svg" xmlns:xlink="http://www.w3.org/1999/xlink">
    <!-- Generator: Sketch 52.6 (67491) - http://www.bohemiancoding.com/sketch -->
    <title>icon/notification</title>
    <desc>Created with Sketch.</desc>
    <g id="icon/notification" stroke="none" stroke-width="1" fill="none" fill-rule="evenodd">
        <g id="icon-notifications" transform="translate(3.000000, 2.000000)">
            <path d="M12.5480772,0.25 C10.7702055,0.25 9.32189719,1.69364293 9.31539833,3.47114674 L9.31479417,3.63638857 L9.16253371,3.70059121 C5.94601531,5.05687872 3.80573247,8.21633909 3.80573247,11.7606067 L3.80570633,15.6338222 C3.79435625,16.4187049 3.67624849,17.6164452 3.3680551,18.8692143 C2.85332048,20.9615488 1.95913584,22.4868913 0.567613392,23.1152897 C0.33590546,23.2199633 0.208640126,23.4721491 0.262189375,23.7206077 C0.315682672,23.9691279 0.53545601,24.1466294 0.78966662,24.1466294 L8.54188513,24.1466294 L8.57920218,24.3519173 C8.72587329,25.158782 9.10765981,25.9043703 9.68571452,26.50667 C10.456079,27.3092983 11.4717417,27.75 12.5479399,27.75 C13.6242274,27.75 14.6398851,27.3093005 15.410167,26.5066683 C15.9882923,25.9043416 16.3700881,25.1587241 16.5166739,24.3519383 L16.5539767,24.1466294 L24.3062133,24.1466294 C24.5604326,24.1466294 24.7801808,23.9691574 24.833763,23.7204838 C24.8873577,23.4721043 24.7601817,23.2200138 24.5285224,23.1153935 C23.1627539,22.4986063 22.2752925,21.0160513 21.7553384,18.9777615 C21.43728,17.7309298 21.309639,16.5225894 21.2907965,15.6476796 L21.2904677,11.7606982 C21.2904677,8.21638784 19.1501898,5.05695332 15.9335784,3.70068418 L15.7813105,3.63648111 L15.7807103,3.47123218 C15.7742541,1.69361792 14.3259709,0.25 12.5480772,0.25 Z M15.4760291,24.1466751 L15.382494,24.4667912 C15.007946,25.7486498 13.845593,26.6710119 12.5480772,26.6710119 C11.3095825,26.6710119 10.1940632,25.8305489 9.76946444,24.6393026 L9.71356894,24.4667912 L9.62003381,24.1466751 L15.4760291,24.1466751 Z M20.8925062,19.8743666 L20.9491367,20.0460557 C21.2489252,20.9549361 21.6327667,21.755476 22.1086663,22.4196843 L22.2914595,22.6623172 L22.6126499,23.0675955 L2.48342274,23.0675955 L2.80460115,22.6623201 C3.30360875,22.0326529 3.70957973,21.2631223 4.03047004,20.3817629 L4.14683129,20.0460659 L4.20345704,19.8743666 L20.8925062,19.8743666 Z M12.5480772,4.09743308 C16.692569,4.09743308 20.0787949,7.40392906 20.2075016,11.5176643 L20.2112965,11.7605609 L20.2112867,15.6392932 C20.2167577,16.256796 20.2890511,17.1583135 20.4795839,18.1838021 L20.6017898,18.7951497 L4.49420434,18.7951497 L4.62008948,18.1634307 C4.78123998,17.2887339 4.85760559,16.4946571 4.87904659,15.8813249 L4.88457069,15.6599934 L4.88485785,11.7605609 C4.88485785,7.53486681 8.32232088,4.09743308 12.5480772,4.09743308 Z M12.5480772,1.32912539 C13.4558427,1.32912539 14.2537951,1.89840844 14.5646952,2.72761201 L14.6171892,2.8860581 L14.732257,3.28443334 L14.3262372,3.20022322 C13.7449034,3.07965228 13.1501329,3.01830769 12.5480772,3.01830769 C12.0663019,3.01830769 11.5892939,3.05756107 11.1202116,3.13499854 L10.7699353,3.20021945 L10.3638562,3.28447332 L10.4789699,2.88604163 C10.7431064,1.97181232 11.5836448,1.32912539 12.5480772,1.32912539 Z" id="Shape" fill="#FFFFFF" fill-rule="nonzero"></path>
            <g id="Element/Misc/Online-Status" transform="translate(16.000000, 5.000000)" fill="#17D1AA" stroke="#FFFFFF">
                <circle cx="4" cy="4" r="3.5"></circle>
            </g>
        </g>
    </g>
</svg>