<?xml version="1.0" encoding="UTF-8"?>
<svg width="48px" height="48px" viewBox="0 0 48 48" version="1.1" xmlns="http://www.w3.org/2000/svg" xmlns:xlink="http://www.w3.org/1999/xlink">
    <!-- Generator: Sketch 60 (88103) - https://sketch.com -->
    <title>icon/redelegated</title>
    <desc>Created with Sketch.</desc>
    <g id="icon/redelegated" stroke="none" stroke-width="1" fill="none" fill-rule="evenodd">
        <g id="icon/bg-for-icon" fill="#F0F3F5">
            <circle id="Oval-Copy-4" cx="24" cy="24" r="24"></circle>
        </g>
        <path d="M25.5363797,20.7818826 C25.7027131,20.6707739 25.888623,20.6770265 26.1562247,20.7907609 L26.1562247,20.7907609 L26.3140242,20.8520247 C26.4608468,20.9066804 26.6908243,20.9889072 27.0034088,21.0983729 L27.0034088,21.0983729 L28.6930206,21.6807217 L28.7290836,21.7075421 L28.7756264,21.7485198 L28.8082281,21.78399 L28.8694481,21.8745285 L28.9004029,21.9430367 L28.9231765,22.0212984 L28.9345658,22.1323702 L28.9318567,22.1865811 L28.9194442,22.2586587 L28.8957025,22.3331559 L28.8550348,22.4147674 L27.3464308,24.9062594 C27.2453721,25.0575425 27.0756871,25.1476006 26.8950335,25.1476006 C26.8595241,25.1476006 26.8240078,25.1441308 26.7889927,25.1371779 C26.5735738,25.0943114 26.4051893,24.9259269 26.3584059,24.6962307 L26.3584059,24.6962307 L26.056608,23.8557345 L25.8979641,23.8131338 C24.8204729,24.7232377 24.1860082,26.0571121 24.1860082,27.4912951 C24.1860082,30.1458113 26.3454567,32.3052869 28.9999571,32.3052869 C31.6545015,32.3052869 33.8139918,30.1458102 33.8139918,27.4912951 C33.8139918,26.2056836 33.3130872,24.9964666 32.4039583,24.087294 C32.1918962,23.8752319 32.1918962,23.531441 32.4039643,23.3193729 C32.6159822,23.1073188 32.9598494,23.1073188 33.1718733,23.3193789 C34.2864012,24.4339068 34.9,25.9152049 34.9,27.4912951 C34.9,30.7444579 32.2531498,33.3912951 28.9999571,33.3912951 C25.7468092,33.3912951 23.1,30.7444598 23.1,27.4912951 C23.1,25.4949456 24.1045639,23.6646767 25.7401149,22.5762606 L25.7401149,22.5762606 L25.7768853,22.4542234 L25.3055054,21.339277 C25.2626478,21.1239034 25.3537905,20.9038742 25.5363797,20.7818826 Z M27.875987,13 C29.3149771,13 30.4919883,14.1642004 30.5803989,15.6346331 L30.58573,15.8125 L30.58573,19.4583333 L29.1806781,19.4583333 L29.1806781,15.8125 C29.1806781,15.1113573 28.6672825,14.5346716 28.0093841,14.4653247 L27.875987,14.4583333 L19.709743,14.4583333 C19.0342171,14.4583333 18.4786011,14.9911976 18.4117879,15.6740443 L18.4050519,15.8125 L18.4050519,29.6145833 C18.4050519,30.3157261 18.9184475,30.8924117 19.5763459,30.9617586 L19.709743,30.96875 L22.9566978,30.96875 L22.9566978,32.4270833 L19.709743,32.4270833 C18.2707529,32.4270833 17.0937417,31.2628829 17.0053311,29.7924503 L17,29.6145833 L17,15.8125 C17,14.3189415 18.1216654,13.0972965 19.5383746,13.0055333 L19.709743,13 L27.875987,13 Z M32.2953248,25.133498 C32.5375564,25.336211 32.5693269,25.6965929 32.3662862,25.9384335 L29.168243,29.7476052 C28.9510442,30.0063095 28.5577425,30.0216275 28.3210176,29.7806023 L26.1636731,27.5840677 C25.9423791,27.3587537 25.9459332,26.996996 26.1716114,26.7760592 C26.3972896,26.5551224 26.759632,26.5586708 26.980926,26.7839847 L28.6964355,28.5306581 L31.4890882,25.2043449 C31.6921288,24.9625042 32.0530933,24.930785 32.2953248,25.133498 Z M23.9570182,20 C24.2895849,20 24.5591834,20.279822 24.5591834,20.625 C24.5591834,20.9356602 24.3408086,21.193382 24.0546926,21.2418198 L23.9570182,21.25 L20.9353672,21.25 C20.6028006,21.25 20.3332021,20.970178 20.3332021,20.625 C20.3332021,20.3143398 20.5515768,20.056618 20.8376929,20.0081802 L20.9353672,20 L23.9570182,20 Z M26.9570182,16.6442621 C27.2895849,16.6442621 27.5591834,16.9240842 27.5591834,17.2692621 C27.5591834,17.5799223 27.3408086,17.8376442 27.0546926,17.886082 L26.9570182,17.8942621 L20.9353672,17.8942621 C20.6028006,17.8942621 20.3332021,17.6144401 20.3332021,17.2692621 C20.3332021,16.958602 20.5515768,16.7008801 20.8376929,16.6524423 L20.9353672,16.6442621 L26.9570182,16.6442621 Z" id="Combined-Shape" fill="#8791AD" fill-rule="nonzero"></path>
    </g>
</svg>