<?xml version="1.0" encoding="UTF-8"?>
<svg width="48px" height="48px" viewBox="0 0 48 48" version="1.1" xmlns="http://www.w3.org/2000/svg" xmlns:xlink="http://www.w3.org/1999/xlink">
    <!-- Generator: Sketch 60 (88103) - https://sketch.com -->
    <title>icon/undelegated</title>
    <desc>Created with Sketch.</desc>
    <g id="icon/undelegated" stroke="none" stroke-width="1" fill="none" fill-rule="evenodd">
        <g id="icon/bg-for-icon" fill="#F0F3F5">
            <circle id="Oval-Copy-4" cx="24" cy="24" r="24"></circle>
        </g>
        <path d="M32.4636203,20.7818826 C32.6462095,20.9038742 32.7373522,21.1239034 32.6944946,21.339277 L32.2231147,22.4542234 L32.2598851,22.5762606 C33.8954361,23.6646767 34.9,25.4949456 34.9,27.4912951 C34.9,30.7444598 32.2531908,33.3912951 29.0000429,33.3912951 C25.7468502,33.3912951 23.1,30.7444579 23.1,27.4912951 C23.1,25.9152049 23.7135988,24.4339068 24.8281267,23.3193789 C25.0401506,23.1073188 25.3840178,23.1073188 25.5960357,23.3193729 C25.8081038,23.531441 25.8081038,23.8752319 25.5960417,24.087294 C24.6869128,24.9964666 24.1860082,26.2056836 24.1860082,27.4912951 C24.1860082,30.1458102 26.3454985,32.3052869 29.0000429,32.3052869 C31.6545433,32.3052869 33.8139918,30.1458113 33.8139918,27.4912951 C33.8139918,26.0571121 33.1795271,24.7232377 32.1020359,23.8131338 L31.943392,23.8557345 L31.6415941,24.6962307 C31.5948107,24.9259269 31.4264262,25.0943114 31.2110073,25.1371779 C31.1759922,25.1441308 31.1404759,25.1476006 31.1049665,25.1476006 C30.9243129,25.1476006 30.7546279,25.0575425 30.6535692,24.9062594 L29.1449652,22.4147674 L29.1042975,22.3331559 L29.0805558,22.2586587 L29.0681433,22.1865811 L29.0654342,22.1323702 L29.0768235,22.0212984 L29.0995971,21.9430367 L29.1305519,21.8745285 L29.1917719,21.78399 L29.2243736,21.7485198 L29.2709164,21.7075421 L29.3069794,21.6807217 L30.9965912,21.0983729 C31.3091757,20.9889072 31.5391532,20.9066804 31.6859758,20.8520247 L31.8437753,20.7907609 C32.111377,20.6770265 32.2972869,20.6707739 32.4636203,20.7818826 Z M27.875987,13 C29.3149771,13 30.4919883,14.1642004 30.5803989,15.6346331 L30.58573,15.8125 L30.58573,19.4583333 L29.1806781,19.4583333 L29.1806781,15.8125 C29.1806781,15.1113573 28.6672825,14.5346716 28.0093841,14.4653247 L27.875987,14.4583333 L19.709743,14.4583333 C19.0342171,14.4583333 18.4786011,14.9911976 18.4117879,15.6740443 L18.4050519,15.8125 L18.4050519,29.6145833 C18.4050519,30.3157261 18.9184475,30.8924117 19.5763459,30.9617586 L19.709743,30.96875 L22.9566978,30.96875 L22.9566978,32.4270833 L19.709743,32.4270833 C18.2707529,32.4270833 17.0937417,31.2628829 17.0053311,29.7924503 L17,29.6145833 L17,15.8125 C17,14.3189415 18.1216654,13.0972965 19.5383746,13.0055333 L19.709743,13 L27.875987,13 Z M30.8336309,25.8054564 C30.9804948,25.9523202 30.996813,26.1802947 30.8825856,26.3451831 L30.8336309,26.4037775 L29.4874084,27.75 L30.8336309,29.0962225 C30.9988528,29.2614443 30.9988528,29.5293218 30.8336309,29.6945436 C30.6867671,29.8414075 30.4587926,29.8577257 30.2939042,29.7434983 L30.2353098,29.6945436 L28.8890873,28.3483211 L27.5428648,29.6945436 C27.377643,29.8597655 27.1097655,29.8597655 26.9445436,29.6945436 C26.7976798,29.5476798 26.7813616,29.3197053 26.895589,29.1548169 L26.9445436,29.0962225 L28.2907662,27.75 L26.9445436,26.4037775 C26.7793218,26.2385557 26.7793218,25.9706782 26.9445436,25.8054564 C27.0914075,25.6585925 27.319382,25.6422743 27.4842704,25.7565017 L27.5428648,25.8054564 L28.8890873,27.1516789 L30.2353098,25.8054564 C30.4005316,25.6402345 30.6684091,25.6402345 30.8336309,25.8054564 Z M23.9570182,20 C24.2895849,20 24.5591834,20.279822 24.5591834,20.625 C24.5591834,20.9356602 24.3408086,21.193382 24.0546926,21.2418198 L23.9570182,21.25 L20.9353672,21.25 C20.6028006,21.25 20.3332021,20.970178 20.3332021,20.625 C20.3332021,20.3143398 20.5515768,20.056618 20.8376929,20.0081802 L20.9353672,20 L23.9570182,20 Z M26.9570182,16.6442621 C27.2895849,16.6442621 27.5591834,16.9240842 27.5591834,17.2692621 C27.5591834,17.5799223 27.3408086,17.8376442 27.0546926,17.886082 L26.9570182,17.8942621 L20.9353672,17.8942621 C20.6028006,17.8942621 20.3332021,17.6144401 20.3332021,17.2692621 C20.3332021,16.958602 20.5515768,16.7008801 20.8376929,16.6524423 L20.9353672,16.6442621 L26.9570182,16.6442621 Z" id="Combined-Shape" fill="#8791AD" fill-rule="nonzero"></path>
    </g>
</svg>