<?xml version="1.0" encoding="UTF-8"?>
<svg width="24px" height="24px" viewBox="0 0 24 24" version="1.1" xmlns="http://www.w3.org/2000/svg" xmlns:xlink="http://www.w3.org/1999/xlink">
    <title>favicon/erg-nightly</title>
    <defs>
        <linearGradient x1="-40.0277945%" y1="49.997228%" x2="140.036608%" y2="49.997228%" id="linearGradient-1">
            <stop stop-color="#1A44B6" offset="0%"></stop>
            <stop stop-color="#4660FF" offset="100%"></stop>
        </linearGradient>
        <linearGradient x1="-0.0101055341%" y1="50.005452%" x2="99.9909498%" y2="50.005452%" id="linearGradient-2">
            <stop stop-color="#1A44B6" offset="0%"></stop>
            <stop stop-color="#4660FF" offset="100%"></stop>
        </linearGradient>
    </defs>
    <g id="favicon/erg-nightly" stroke="none" stroke-width="1" fill="none" fill-rule="evenodd">
        <g id="Group-10" transform="translate(2.500000, 2.000000)">
            <path d="M6.23157895,0.450676692 C6.18045113,0.452180451 6.12932331,0.462706767 6.07969925,0.482255639 L6.07969925,0.482255639 C2.30075188,2.0281203 0.0135338346,5.63864662 -0.0015037594,9.45067669 L-0.0015037594,9.45067669 L-0.0015037594,9.54090226 C0.00601503759,10.7604511 0.245112782,11.9965414 0.742857143,13.1920301 L0.742857143,13.1920301 C2.29924812,16.9348872 5.93984962,19.1995489 9.78045113,19.2206015 L9.78045113,19.2206015 L9.90075188,19.2206015 C11.124812,19.2100752 12.3669173,18.973985 13.5684211,18.4822556 L13.5684211,18.4822556 C15.8556391,17.5469173 17.7007519,15.7935338 18.7398496,13.5664662 L18.7398496,13.5664662 C18.8120301,13.4100752 18.7819549,13.2266165 18.6631579,13.1018045 L18.6631579,13.1018045 C18.5413534,12.9784962 18.3593985,12.9393985 18.1984962,13.0070677 L18.1984962,13.0070677 C13.6255639,14.8882707 8.37593985,12.7409023 6.47669173,8.20706767 L6.47669173,8.20706767 C5.50827068,5.90481203 5.56541353,3.30781955 6.62706767,1.04766917 L6.62706767,1.04766917 C6.72481203,0.838646617 6.63458647,0.589022556 6.42556391,0.489774436 L6.42556391,0.489774436 C6.37142857,0.467218045 6.31278195,0.452180451 6.2556391,0.450676692 L6.2556391,0.450676692 L6.23157895,0.450676692 Z" id="Fill-4" fill="url(#linearGradient-1)"></path>
            <polygon id="Fill-7" fill="url(#linearGradient-2)" points="10.1106767 0.692932331 10.1106767 2.18887218 13.2162406 5.42616541 10.0962406 8.88 10.0962406 10.3741353 17.1067669 10.3741353 17.1067669 8.88 12.1425564 8.88 15.2932331 5.41172932 12.2147368 2.18887218 17.1067669 2.18887218 17.1067669 0.692932331"></polygon>
        </g>
    </g>
</svg>