<?xml version="1.0" encoding="UTF-8"?>
<svg width="24px" height="24px" viewBox="0 0 24 24" version="1.1" xmlns="http://www.w3.org/2000/svg" xmlns:xlink="http://www.w3.org/1999/xlink">
    <title>favicon/erg</title>
    <g id="favicon/erg" stroke="none" stroke-width="1" fill="none" fill-rule="evenodd">
        <path d="M11.9018569,2 C11.9711891,2.00074351 12.0407071,2.01431253 12.1061358,2.0405212 L18.8118367,4.7323928 C18.9495716,4.78759828 19.0596108,4.89503522 19.1174185,5.03184074 L21.9557613,11.676388 C22.0139408,11.8133794 22.0157996,11.9665421 21.9598506,12.1050205 L19.267979,18.8107214 C19.2127735,18.9482704 19.1053365,19.0584955 18.968531,19.1163033 L12.3237978,21.9544601 C12.252421,21.9853157 12.1775126,22 12.10279,22 C12.0321567,22 11.9607799,21.9862451 11.8944218,21.9596647 L5.18872098,19.2676072 C5.05117195,19.2125876 4.94094686,19.1049648 4.88332497,18.9681593 L2.04498225,12.3228685 C2.01579955,12.2544657 2.00074351,12.1819736 2,12.1091098 L2,12.1022324 C2,12.031785 2.0137549,11.9613376 2.04089295,11.8940501 L4.73276455,5.1885351 C4.78778416,5.0508002 4.89540698,4.9405751 5.03221249,4.88295321 L11.6775033,2.04479637 C11.7459061,2.01561367 11.8187699,2.00074351 11.8916337,2 L11.9018569,2 Z M11.9040874,3.16619268 L5.68371159,5.82293351 L3.16470566,12.0981431 L5.8214465,18.3166602 L12.0968419,20.8356661 L18.315359,18.1800405 L20.8351085,11.9044592 L18.1794829,5.68594212 L11.9040874,3.16619268 Z M14.9909478,7.86683024 L14.9909478,9.14213275 L10.8178219,9.14213275 L13.4431495,11.8918121 L10.7559248,14.8513653 L14.9909478,14.8513653 L14.9909478,16.1268537 L9.00960984,16.1268537 L9.00960984,14.8513653 L11.6722987,11.9038941 L9.02187773,9.14213275 L9.02187773,7.86683024 L14.9909478,7.86683024 Z" id="Combined-Shape" fill="#3154CB"></path>
    </g>
</svg>