<svg width="20" height="19" viewBox="0 0 20 19" fill="none" xmlns="http://www.w3.org/2000/svg">
<path d="M10 6C10.5523 6 11 6.44772 11 7V11C11 11.5523 10.5523 12 10 12C9.44771 12 9 11.5523 9 11V7C9 6.44772 9.44771 6 10 6Z" fill="#FF1351"/>
<path d="M10 13C9.44771 13 9 13.4477 9 14C9 14.5523 9.44771 15 10 15H10.01C10.5623 15 11.01 14.5523 11.01 14C11.01 13.4477 10.5623 13 10.01 13H10Z" fill="#FF1351"/>
<path fill-rule="evenodd" clip-rule="evenodd" d="M8.57283 0.403518C9.00267 0.140677 9.49531 0 10 0C10.5047 0 10.9974 0.140677 11.4272 0.403518C11.8561 0.665766 12.2052 1.03883 12.4438 1.47999L12.4447 1.48165L19.6352 14.6868L19.6363 14.6888C19.8756 15.1245 19.9999 15.615 20 16.1118C20.0001 16.6093 19.8756 17.1007 19.6359 17.537C19.396 17.9735 19.0475 18.3422 18.6208 18.6012C18.1936 18.8605 17.7049 18.9994 17.2044 18.9999H2.81903C2.31781 19.0037 1.82733 18.8686 1.39752 18.6123C0.966669 18.3553 0.61416 17.987 0.370962 17.5494C0.127911 17.1122 0.0010617 16.6188 6.63588e-06 16.1189C-0.00104664 15.6197 0.123298 15.1267 0.36366 14.6889L0.364873 14.6867L7.55538 1.48165L7.55627 1.47999C7.79489 1.03883 8.14396 0.665766 8.57283 0.403518ZM10 2C9.86843 2 9.73614 2.03645 9.61619 2.1098C9.49582 2.18341 9.39025 2.29295 9.31516 2.43201L9.31351 2.43505L2.11714 15.6509C2.04118 15.7889 1.99965 15.9491 2 16.1146C2.00035 16.2802 2.04255 16.4401 2.11904 16.5777C2.19539 16.7151 2.30158 16.8228 2.42207 16.8946C2.54213 16.9662 2.67416 17.0012 2.80531 17L2.81475 16.9999L17.2022 16.9999C17.3327 16.9998 17.4639 16.9638 17.5831 16.8915C17.7026 16.8189 17.8077 16.711 17.8831 16.5738C17.9586 16.4363 18 16.277 18 16.1123C18 15.9475 17.9585 15.7882 17.8829 15.6508L17.8808 15.647L10.6865 2.43505L10.6849 2.43201C10.6098 2.29295 10.5042 2.18341 10.3838 2.1098C10.2639 2.03645 10.1316 2 10 2Z" fill="#FF1351"/>
</svg>
