<svg width="24" height="24" viewBox="0 0 24 24" fill="none" xmlns="http://www.w3.org/2000/svg">
<path d="M12 7.5C11.4477 7.5 11 7.94771 11 8.5C11 9.05229 11.4477 9.5 12 9.5H12.01C12.5623 9.5 13.01 9.05229 13.01 8.5C13.01 7.94771 12.5623 7.5 12.01 7.5H12Z" fill="currentColor"/>
<path d="M12 10.5C11.4477 10.5 11 10.9477 11 11.5V16.5C11 17.0523 11.4477 17.5 12 17.5C12.5523 17.5 13 17.0523 13 16.5V11.5C13 10.9477 12.5523 10.5 12 10.5Z" fill="currentColor"/>
<path fill-rule="evenodd" clip-rule="evenodd" d="M2 12.5C2 6.97715 6.47715 2.5 12 2.5C17.5228 2.5 22 6.97715 22 12.5C22 18.0228 17.5228 22.5 12 22.5C6.47715 22.5 2 18.0228 2 12.5ZM12 4.5C7.58172 4.5 4 8.08172 4 12.5C4 16.9183 7.58172 20.5 12 20.5C16.4183 20.5 20 16.9183 20 12.5C20 8.08172 16.4183 4.5 12 4.5Z" fill="currentColor"/>
</svg>
