<svg width="24" height="24" viewBox="0 0 24 24" fill="none" xmlns="http://www.w3.org/2000/svg">
<path d="M21 3C21 2.44772 20.5523 2 20 2C19.4477 2 19 2.44772 19 3V6.19447L18.0026 5.29602L18.0003 5.29396C16.7059 4.13515 15.1041 3.37585 13.388 3.10777C11.6719 2.83969 9.91499 3.0743 8.3292 3.78327C6.74342 4.49223 5.39658 5.64521 4.45103 7.10301C3.50549 8.56081 3.00158 10.2612 3 11.9991C2.9995 12.5514 3.44681 12.9995 3.99909 13C4.55137 13.0005 4.9995 12.5532 5 12.0009C5.00123 10.6486 5.39336 9.3255 6.12898 8.19135C6.8646 7.05721 7.91226 6.16045 9.14548 5.6091C10.3787 5.05776 11.7449 4.87534 13.0793 5.0838C14.4132 5.29218 15.6585 5.88224 16.6651 6.78299L16.6663 6.78407L18.0161 8H14C13.4477 8 13 8.44772 13 9C13 9.55228 13.4477 10 14 10H20C20.5523 10 21 9.55228 21 9V3Z" fill="#383E54"/>
<path d="M3 15C3 14.4477 3.44772 14 4 14H10C10.5523 14 11 14.4477 11 15C11 15.5523 10.5523 16 10 16H5.98388L7.33368 17.2159L7.33481 17.2169C8.34144 18.1177 9.58678 18.7078 10.9207 18.9162C12.2551 19.1247 13.6213 18.9422 14.8545 18.3909C16.0878 17.8396 17.1354 16.9428 17.871 15.8087C18.6067 14.6745 18.9988 13.3514 19 11.9991C19.0005 11.4468 19.4486 10.9995 20.0009 11C20.5532 11.0005 21.0005 11.4486 21 12.0009C20.9984 13.7388 20.4945 15.4392 19.549 16.897C18.6034 18.3548 17.2566 19.5078 15.6708 20.2167C14.085 20.9257 12.3281 21.1603 10.612 20.8922C8.89592 20.6242 7.29408 19.8649 5.99967 18.706L5.99737 18.704L5 17.8055V21C5 21.5523 4.55229 22 4 22C3.44772 22 3 21.5523 3 21V15Z" fill="#383E54"/>
</svg>
