<svg width="40" height="40" viewBox="0 0 40 40" fill="none" xmlns="http://www.w3.org/2000/svg">
<path d="M24.2929 10.2929C24.6834 9.90237 25.3166 9.90237 25.7071 10.2929L29.7071 14.2929C30.0976 14.6834 30.0976 15.3166 29.7071 15.7071C29.3166 16.0976 28.6834 16.0976 28.2929 15.7071L26 13.4142V23C26 23.5523 25.5523 24 25 24C24.4477 24 24 23.5523 24 23V13.4142L21.7071 15.7071C21.3166 16.0976 20.6834 16.0976 20.2929 15.7071C19.9024 15.3166 19.9024 14.6834 20.2929 14.2929L24.2929 10.2929Z" fill="currentColor"/>
<path d="M16 17C16 16.4477 15.5523 16 15 16C14.4477 16 14 16.4477 14 17V26.5858L11.7071 24.2929C11.3166 23.9024 10.6834 23.9024 10.2929 24.2929C9.90237 24.6834 9.90237 25.3166 10.2929 25.7071L14.2929 29.7071C14.6834 30.0976 15.3166 30.0976 15.7071 29.7071L19.7071 25.7071C20.0976 25.3166 20.0976 24.6834 19.7071 24.2929C19.3166 23.9024 18.6834 23.9024 18.2929 24.2929L16 26.5858V17Z" fill="currentColor"/>
</svg>
