<svg width="174" height="220" viewBox="0 0 174 220" fill="none" xmlns="http://www.w3.org/2000/svg">
<path d="M79.771 1.61871C86.2092 -1.46146 98.9273 0.631473 100.381 1.56934L166.444 37.781C172.259 41.1179 174.02 45.6789 174 53.3793L173.782 191.315C173.782 197.15 170.558 199.263 165.93 201.533L85.8234 149.21C79.9984 145.863 76.9227 140.039 76.9227 132.358L79.771 1.61871Z" fill="url(#paint0_linear_5045_46915)"/>
<path d="M165.93 201.534V55.601C165.93 50.3359 163.072 45.484 158.463 42.925L84.7948 1.91532C83.0028 0.917412 80.8154 0.941665 79.0461 1.97906C77.2768 3.01644 76.1903 4.91175 76.1908 6.96007V150.109L165.93 201.534Z" fill="url(#paint1_linear_5045_46915)"/>
<g opacity="0.7">
<rect width="26.5803" height="6.02765" rx="3.01383" transform="matrix(0.832865 0.553477 0 1 82.2383 54.248)" fill="#52FCFF"/>
<rect width="27.7885" height="6.02765" rx="3.01383" transform="matrix(0.832865 0.553477 0 1 107.395 70.9648)" fill="#52FCFF"/>
<rect width="26.5803" height="6.02765" rx="3.01383" transform="matrix(0.832865 0.553477 0 1 133.557 88.3516)" fill="#52FCFF"/>
<rect width="26.5803" height="6.02765" rx="3.01383" transform="matrix(0.832865 0.553477 0 1 82.2383 65.0977)" fill="#52FCFF"/>
<rect width="27.7885" height="6.02765" rx="3.01383" transform="matrix(0.832865 0.553477 0 1 107.395 81.8145)" fill="#52FCFF"/>
<rect width="26.5803" height="6.02765" rx="3.01383" transform="matrix(0.832865 0.553477 0 1 133.557 99.2012)" fill="#52FCFF"/>
<rect width="26.5803" height="6.02765" rx="3.01383" transform="matrix(0.832865 0.553477 0 1 82.2383 75.9473)" fill="#52FCFF"/>
<rect width="27.7885" height="6.02765" rx="3.01383" transform="matrix(0.832865 0.553477 0 1 107.395 92.6641)" fill="#52FCFF"/>
<rect width="26.5803" height="6.02765" rx="3.01383" transform="matrix(0.832865 0.553477 0 1 133.557 110.051)" fill="#52FCFF"/>
<rect width="26.5803" height="6.02765" rx="3.01383" transform="matrix(0.832865 0.553477 0 1 82.2383 86.7969)" fill="#52FCFF"/>
<rect width="27.7885" height="6.02765" rx="3.01383" transform="matrix(0.832865 0.553477 0 1 107.395 103.514)" fill="#52FCFF"/>
<rect width="26.5803" height="6.02765" rx="3.01383" transform="matrix(0.832865 0.553477 0 1 133.557 120.9)" fill="#52FCFF"/>
<rect width="26.5803" height="6.02765" rx="3.01383" transform="matrix(0.832865 0.553477 0 1 82.2383 97.6465)" fill="#52FCFF"/>
<rect width="27.7885" height="6.02765" rx="3.01383" transform="matrix(0.832865 0.553477 0 1 107.395 114.365)" fill="#52FCFF"/>
<rect width="26.5803" height="6.02765" rx="3.01383" transform="matrix(0.832865 0.553477 0 1 133.557 131.75)" fill="#52FCFF"/>
<rect width="26.5803" height="6.02765" rx="3.01383" transform="matrix(0.832865 0.553477 0 1 82.2383 108.496)" fill="#52FCFF"/>
<rect width="27.7885" height="6.02765" rx="3.01383" transform="matrix(0.832865 0.553477 0 1 107.395 125.215)" fill="#52FCFF"/>
<rect width="26.5803" height="6.02765" rx="3.01383" transform="matrix(0.832865 0.553477 0 1 133.557 142.6)" fill="#52FCFF"/>
<rect width="26.5803" height="6.02765" rx="3.01383" transform="matrix(0.832865 0.553477 0 1 82.2383 119.348)" fill="#52FCFF"/>
<rect width="27.7885" height="6.02765" rx="3.01383" transform="matrix(0.832865 0.553477 0 1 107.395 136.064)" fill="#52FCFF"/>
<rect width="26.5803" height="6.02765" rx="3.01383" transform="matrix(0.832865 0.553477 0 1 133.557 153.451)" fill="#52FCFF"/>
<rect width="26.5803" height="6.02765" rx="3.01383" transform="matrix(0.832865 0.553477 0 1 82.2383 130.197)" fill="#52FCFF"/>
<rect width="27.7885" height="6.02765" rx="3.01383" transform="matrix(0.832865 0.553477 0 1 107.395 146.916)" fill="#52FCFF"/>
<rect width="26.5803" height="6.02765" rx="3.01383" transform="matrix(0.832865 0.553477 0 1 133.557 164.301)" fill="#52FCFF"/>
</g>
<path opacity="0.7" d="M88.2845 118.231L44.1632 143.656H44.1423L0 118.231L44.1423 92.8262L88.2845 118.231Z" fill="#52FCFF"/>
<path d="M88.2848 118.23V169.081L44.1426 194.528V143.656H44.1636L88.2848 118.23Z" fill="url(#paint2_linear_5045_46915)"/>
<path d="M44.1423 143.656V194.528L0 169.081V118.23L44.1423 143.656Z" fill="url(#paint3_linear_5045_46915)"/>
<path d="M25.3353 154.096C24.8172 154.173 24.2991 154.231 23.781 154.289C23.2629 154.346 22.7448 154.404 22.2267 154.481C22.0787 154.481 22.0047 154.481 21.8566 154.25C20.5984 152.56 19.3402 150.946 18.0079 149.256L14.0112 143.954C13.7721 143.651 13.5425 143.348 13.3156 143.048C12.9104 142.512 12.5139 141.988 12.0869 141.496L7.49805 138.807C7.72009 139.114 7.94213 139.421 8.16417 139.652C8.52638 140.122 8.8886 140.599 9.25293 141.079C10.0797 142.168 10.9175 143.272 11.7908 144.339C12.3829 145.107 12.975 145.895 13.5671 146.682C14.1592 147.47 14.7514 148.257 15.3435 149.025L18.6741 153.405C19.1922 154.096 19.7288 154.788 20.2654 155.479C20.8019 156.171 21.3386 156.863 21.8566 157.554C22.0047 157.708 22.0787 157.784 22.1527 157.708C23.0409 157.631 23.855 157.554 24.7432 157.4C25.8164 157.285 26.8711 157.151 27.9258 157.016C28.9804 156.882 30.0351 156.747 31.1083 156.632C31.9353 156.55 32.7623 156.447 33.5782 156.345C34.2956 156.255 35.0046 156.166 35.6971 156.094C35.9932 156.094 36.3633 156.017 36.6593 155.94L32.0705 153.174C30.5283 153.441 28.9862 153.634 27.4193 153.83C26.7304 153.916 26.0358 154.003 25.3353 154.096Z" fill="white"/>
<path d="M30.0721 172.613L27.7777 172.921C24.9281 169.194 22.0971 165.487 19.266 161.78C16.435 158.073 13.6041 154.365 10.7546 150.639V147.335L10.756 147.337C17.1947 155.788 23.6334 164.239 30.0721 172.613Z" fill="white"/>
<path d="M10.7546 155.479C13.6988 159.275 16.6125 163.103 19.5348 166.941C21.1669 169.085 22.8028 171.234 24.4471 173.382L22.1527 173.689C20.0045 170.901 17.8794 168.114 15.7644 165.34C14.0905 163.144 12.4222 160.956 10.7546 158.783V155.479Z" fill="white"/>
<path d="M33.4767 160.781C32.0705 160.973 30.6642 161.146 29.258 161.319C27.8517 161.492 26.4454 161.665 25.0392 161.857C25.1132 161.933 25.1132 162.01 25.1132 162.01C25.4833 162.471 25.8348 162.951 26.1864 163.432C26.538 163.912 26.8895 164.392 27.2596 164.853L27.3336 164.93C28.3698 164.815 29.3875 164.68 30.4052 164.546C31.4228 164.411 32.4405 164.277 33.4767 164.162V160.781Z" fill="white"/>
<path d="M32.0705 169.194C32.5331 169.137 32.9957 169.079 33.4767 169.002V172.229L32.8846 172.306C32.5146 171.807 32.1445 171.326 31.7744 170.846C31.4044 170.366 31.0343 169.886 30.6642 169.386C31.1453 169.309 31.6079 169.252 32.0705 169.194Z" fill="white"/>
<path fill-rule="evenodd" clip-rule="evenodd" d="M10.0254 71.7441C10.407 72.062 35.9736 95.3327 35.9736 95.3327L10.0254 71.7441Z" fill="#17D1AA"/>
<path fill-rule="evenodd" clip-rule="evenodd" d="M9.01953 72.875C9.40112 73.1928 34.9678 96.4636 34.9678 96.4636L9.01953 72.875Z" fill="#17D1AA"/>
<path fill-rule="evenodd" clip-rule="evenodd" d="M8.01367 74.0039C8.39526 74.3217 33.9619 97.5925 33.9619 97.5925L8.01367 74.0039Z" fill="#17D1AA"/>
<path fill-rule="evenodd" clip-rule="evenodd" d="M7.00781 75.1348C7.3894 75.4526 32.9561 98.7234 32.9561 98.7234L7.00781 75.1348Z" fill="#17D1AA"/>
<path fill-rule="evenodd" clip-rule="evenodd" d="M6.00195 76.2637C6.38355 76.5815 31.9502 99.8523 31.9502 99.8523L6.00195 76.2637Z" fill="#17D1AA"/>
<path fill-rule="evenodd" clip-rule="evenodd" d="M4.99609 77.3945C5.37769 77.7123 30.9443 100.983 30.9443 100.983L4.99609 77.3945Z" fill="#17D1AA"/>
<path fill-rule="evenodd" clip-rule="evenodd" d="M4.02344 78.5234C4.40503 78.8412 29.9717 102.112 29.9717 102.112L4.02344 78.5234Z" fill="#17D1AA"/>
<path fill-rule="evenodd" clip-rule="evenodd" d="M3.01758 79.6543C3.39917 79.9721 28.9658 103.243 28.9658 103.243L3.01758 79.6543Z" fill="#17D1AA"/>
<path fill-rule="evenodd" clip-rule="evenodd" d="M2.01172 80.7852C2.39331 81.103 27.96 104.374 27.96 104.374L2.01172 80.7852Z" fill="#17D1AA"/>
<path fill-rule="evenodd" clip-rule="evenodd" d="M1.00586 81.9141C1.38745 82.2319 26.9541 105.503 26.9541 105.503L1.00586 81.9141Z" fill="#17D1AA"/>
<path fill-rule="evenodd" clip-rule="evenodd" d="M0 83.0449C0.381592 83.3627 25.9483 106.634 25.9483 106.634L0 83.0449Z" fill="#17D1AA"/>
<path fill-rule="evenodd" clip-rule="evenodd" d="M22.6188 102.784C16.5827 99.7823 11.6914 91.4486 11.6914 84.1036C11.6914 81.3493 12.3852 79.1599 13.53 77.6415L12.5934 77.924L14.8135 76.3702C14.8482 76.3349 14.8916 76.3084 14.9349 76.2819C14.9783 76.2555 15.0217 76.229 15.0564 76.1937L15.1257 76.123C17.1031 74.8518 19.7395 74.7459 22.6188 76.1937C28.6549 79.1952 33.5462 87.5289 33.5462 94.8739C33.5462 98.3698 32.4361 100.983 30.6322 102.466L30.5976 102.501C30.4935 102.572 30.3981 102.643 30.3027 102.713C30.2073 102.784 30.1119 102.854 30.0078 102.925L27.857 104.479L27.9611 103.737C26.3654 104.02 24.5615 103.737 22.6188 102.784ZM22.6188 82.2322C19.3232 80.6078 16.6521 82.5147 16.6521 86.5403C16.6521 90.5306 19.3232 95.1212 22.6188 96.7808C25.9144 98.4052 28.5855 96.4983 28.5855 92.4727C28.5855 88.4471 25.9144 83.8565 22.6188 82.2322Z" fill="url(#paint4_linear_5045_46915)"/>
<path fill-rule="evenodd" clip-rule="evenodd" d="M20.1559 104.514C14.1198 101.512 9.22852 93.1783 9.22852 85.8334C9.22852 78.5237 14.1198 74.9925 20.1559 77.9587C26.192 80.9603 31.0833 89.294 31.0833 96.6389C31.0833 103.949 26.192 107.48 20.1559 104.514ZM20.1214 83.9973C16.8258 82.3729 14.1547 84.2798 14.1547 88.3054C14.1547 92.2957 16.8258 96.8863 20.1214 98.546C23.4169 100.17 26.0881 98.2635 26.0881 94.2379C26.0881 90.2123 23.4169 85.6217 20.1214 83.9973Z" fill="#17D1AA"/>
<path fill-rule="evenodd" clip-rule="evenodd" d="M9.22852 85.9759C9.22852 78.6663 14.1198 75.1351 20.1559 78.1013C26.1573 81.0675 31.0486 89.4365 31.0833 96.7815C31.0833 104.091 26.192 107.622 20.1559 104.656C14.1198 101.655 9.22852 93.3209 9.22852 85.9759ZM14.1891 88.3772C14.1891 92.4028 16.8602 96.9934 20.1558 98.6178C23.4514 100.277 26.1225 98.3353 26.1225 94.3097C26.1225 90.2841 23.4514 85.6935 20.1558 84.0691C16.8602 82.4447 14.1891 84.3516 14.1891 88.3772Z" fill="#163FA5"/>
<ellipse opacity="0.7" cx="8.25417" cy="13.3671" rx="8.25417" ry="13.3671" transform="matrix(0.883622 -0.4682 0.4664 0.884574 6.62109 83.2734)" fill="#52FCFF"/>
<path fill-rule="evenodd" clip-rule="evenodd" d="M21.9933 93.4605L24.04 100.629C24.1094 100.876 24.2828 101.159 24.6644 101.053C24.9419 100.982 24.8032 100.523 24.6991 100.24L20.2587 84.0322C20.1547 83.6084 19.9812 83.1847 19.6343 82.9728C19.3221 82.7609 18.9752 82.9728 18.8364 83.2553L14.2227 94.5905V94.6612C14.2227 94.873 14.2573 94.9437 14.4655 95.0496C14.6042 95.1202 14.7083 95.1202 14.7777 95.0143C15.4021 93.5312 16.1653 91.6596 16.755 90.1765L21.9933 93.4605ZM19.1488 84.2794C19.3223 83.785 19.4957 83.9969 19.7039 84.7384L21.82 92.6837L17.0327 89.6822L19.1488 84.2794Z" fill="#1D45BA"/>
<path fill-rule="evenodd" clip-rule="evenodd" d="M24.5608 95.1554L14.4313 88.8698C14.3272 88.7992 14.2578 88.658 14.2578 88.5167V88.1989C14.2578 88.0577 14.3272 88.0223 14.4313 88.0577L24.5608 94.3432C24.6649 94.4139 24.7343 94.5551 24.7343 94.6964V95.0142C24.7689 95.1554 24.6649 95.226 24.5608 95.1554Z" fill="#1D45BA"/>
<path fill-rule="evenodd" clip-rule="evenodd" d="M23.6578 91.801L15.3668 86.6454C15.2627 86.5748 15.1934 86.4335 15.1934 86.2923V85.9391C15.1934 85.7979 15.2627 85.7626 15.3668 85.7979L23.6578 90.9535C23.7618 91.0241 23.8312 91.1654 23.8312 91.3066V91.6244C23.8312 91.801 23.7618 91.8716 23.6578 91.801Z" fill="#1D45BA"/>
<path fill-rule="evenodd" clip-rule="evenodd" d="M44.4492 98.8809C44.6839 99.0763 60.4046 113.385 60.4046 113.385L44.4492 98.8809Z" fill="#17D1AA"/>
<path fill-rule="evenodd" clip-rule="evenodd" d="M43.832 99.5762C44.0667 99.7716 59.7875 114.081 59.7875 114.081L43.832 99.5762Z" fill="#17D1AA"/>
<path fill-rule="evenodd" clip-rule="evenodd" d="M43.2129 100.271C43.4475 100.467 59.1683 114.776 59.1683 114.776L43.2129 100.271Z" fill="#17D1AA"/>
<path fill-rule="evenodd" clip-rule="evenodd" d="M42.5938 100.965C42.8284 101.16 58.5492 115.469 58.5492 115.469L42.5938 100.965Z" fill="#17D1AA"/>
<path fill-rule="evenodd" clip-rule="evenodd" d="M41.9766 101.66C42.2112 101.856 57.932 116.165 57.932 116.165L41.9766 101.66Z" fill="#17D1AA"/>
<path fill-rule="evenodd" clip-rule="evenodd" d="M41.3574 102.355C41.5921 102.551 57.3128 116.86 57.3128 116.86L41.3574 102.355Z" fill="#17D1AA"/>
<path fill-rule="evenodd" clip-rule="evenodd" d="M40.7598 103.049C40.9944 103.244 56.7152 117.553 56.7152 117.553L40.7598 103.049Z" fill="#17D1AA"/>
<path fill-rule="evenodd" clip-rule="evenodd" d="M40.1406 103.744C40.3753 103.94 56.096 118.249 56.096 118.249L40.1406 103.744Z" fill="#17D1AA"/>
<path fill-rule="evenodd" clip-rule="evenodd" d="M39.5234 104.439C39.7581 104.635 55.4789 118.944 55.4789 118.944L39.5234 104.439Z" fill="#17D1AA"/>
<path fill-rule="evenodd" clip-rule="evenodd" d="M38.9043 105.135C39.1389 105.33 54.8597 119.639 54.8597 119.639L38.9043 105.135Z" fill="#17D1AA"/>
<path fill-rule="evenodd" clip-rule="evenodd" d="M38.2852 105.828C38.5198 106.024 54.2406 120.333 54.2406 120.333L38.2852 105.828Z" fill="#17D1AA"/>
<path fill-rule="evenodd" clip-rule="evenodd" d="M52.1938 117.968C48.4823 116.122 45.4746 110.998 45.4746 106.481C45.4746 104.788 45.9012 103.441 46.6051 102.508L46.0292 102.681L47.3944 101.726C47.4157 101.704 47.4424 101.688 47.469 101.672C47.4957 101.655 47.5224 101.639 47.5437 101.617L47.5864 101.574C48.8022 100.792 50.4234 100.727 52.1938 101.617C55.9054 103.463 58.913 108.587 58.913 113.104C58.913 115.253 58.2304 116.86 57.1212 117.772L57.0999 117.794C57.0359 117.837 56.9772 117.881 56.9186 117.924C56.8599 117.968 56.8013 118.011 56.7373 118.054L55.4148 119.01L55.4788 118.554C54.4975 118.728 53.3883 118.554 52.1938 117.968ZM52.1938 105.33C50.1674 104.332 48.5249 105.504 48.5249 107.979C48.5249 110.433 50.1674 113.256 52.1938 114.276C54.2202 115.275 55.8627 114.103 55.8627 111.627C55.8627 109.152 54.2202 106.329 52.1938 105.33Z" fill="url(#paint5_linear_5045_46915)"/>
<path fill-rule="evenodd" clip-rule="evenodd" d="M50.6782 119.031C46.9666 117.185 43.959 112.061 43.959 107.545C43.959 103.05 46.9666 100.879 50.6782 102.703C54.3897 104.548 57.3974 109.673 57.3974 114.189C57.3974 118.684 54.3897 120.855 50.6782 119.031ZM50.6567 106.415C48.6303 105.417 46.9878 106.589 46.9878 109.065C46.9878 111.518 48.6303 114.341 50.6567 115.361C52.6831 116.36 54.3256 115.188 54.3256 112.712C54.3256 110.237 52.6831 107.414 50.6567 106.415Z" fill="#17D1AA"/>
<path fill-rule="evenodd" clip-rule="evenodd" d="M43.959 107.631C43.959 103.136 46.9666 100.965 50.6782 102.789C54.3684 104.612 57.3761 109.759 57.3974 114.275C57.3974 118.77 54.3897 120.941 50.6782 119.117C46.9666 117.271 43.959 112.147 43.959 107.631ZM47.009 109.107C47.009 111.582 48.6515 114.405 50.6779 115.404C52.7043 116.424 54.3468 115.23 54.3468 112.755C54.3468 110.28 52.7043 107.457 50.6779 106.458C48.6515 105.459 47.009 106.632 47.009 109.107Z" fill="#163FA5"/>
<ellipse opacity="0.7" cx="5.07544" cy="8.21934" rx="5.07544" ry="8.21934" transform="matrix(0.883622 -0.4682 0.4664 0.884574 42.3574 105.971)" fill="#52FCFF"/>
<path fill-rule="evenodd" clip-rule="evenodd" d="M51.8093 112.234L53.0679 116.642C53.1105 116.794 53.2172 116.968 53.4518 116.903C53.6225 116.859 53.5371 116.577 53.4731 116.403L50.7428 106.437C50.6788 106.176 50.5722 105.916 50.3589 105.785C50.1669 105.655 49.9536 105.785 49.8682 105.959L47.0312 112.929V112.972C47.0312 113.103 47.0526 113.146 47.1806 113.211C47.2659 113.255 47.3299 113.255 47.3725 113.19C47.7565 112.278 48.2258 111.127 48.5884 110.215L51.8093 112.234ZM50.0605 106.589C50.1671 106.285 50.2738 106.415 50.4017 106.871L51.7029 111.757L48.7593 109.911L50.0605 106.589Z" fill="#1D45BA"/>
<path fill-rule="evenodd" clip-rule="evenodd" d="M53.388 113.277L47.1594 109.412C47.0954 109.368 47.0527 109.281 47.0527 109.194V108.999C47.0527 108.912 47.0954 108.89 47.1594 108.912L53.388 112.777C53.452 112.821 53.4946 112.907 53.4946 112.994V113.19C53.516 113.277 53.452 113.32 53.388 113.277Z" fill="#1D45BA"/>
<path fill-rule="evenodd" clip-rule="evenodd" d="M52.8336 111.213L47.7356 108.043C47.6716 107.999 47.6289 107.912 47.6289 107.825V107.608C47.6289 107.522 47.6716 107.5 47.7356 107.522L52.8336 110.692C52.8976 110.735 52.9403 110.822 52.9403 110.909V111.104C52.9403 111.213 52.8976 111.256 52.8336 111.213Z" fill="#1D45BA"/>
<path fill-rule="evenodd" clip-rule="evenodd" d="M28.8477 44.6055C29.3304 45.0076 61.6771 74.4495 61.6771 74.4495L28.8477 44.6055Z" fill="#17D1AA"/>
<path fill-rule="evenodd" clip-rule="evenodd" d="M27.5762 46.0352C28.059 46.4372 60.4057 75.8792 60.4057 75.8792L27.5762 46.0352Z" fill="#17D1AA"/>
<path fill-rule="evenodd" clip-rule="evenodd" d="M26.3027 47.4648C26.7855 47.8669 59.1322 77.3089 59.1322 77.3089L26.3027 47.4648Z" fill="#17D1AA"/>
<path fill-rule="evenodd" clip-rule="evenodd" d="M25.0293 48.8945C25.5121 49.2966 57.8588 78.7386 57.8588 78.7386L25.0293 48.8945Z" fill="#17D1AA"/>
<path fill-rule="evenodd" clip-rule="evenodd" d="M23.7578 50.3242C24.2406 50.7263 56.5873 80.1683 56.5873 80.1683L23.7578 50.3242Z" fill="#17D1AA"/>
<path fill-rule="evenodd" clip-rule="evenodd" d="M22.4844 51.7539C22.9672 52.156 55.3139 81.598 55.3139 81.598L22.4844 51.7539Z" fill="#17D1AA"/>
<path fill-rule="evenodd" clip-rule="evenodd" d="M21.2559 53.1836C21.7386 53.5857 54.0853 83.0277 54.0853 83.0277L21.2559 53.1836Z" fill="#17D1AA"/>
<path fill-rule="evenodd" clip-rule="evenodd" d="M19.9824 54.6133C20.4652 55.0154 52.8119 84.4574 52.8119 84.4574L19.9824 54.6133Z" fill="#17D1AA"/>
<path fill-rule="evenodd" clip-rule="evenodd" d="M18.709 56.043C19.1918 56.4451 51.5385 85.887 51.5385 85.887L18.709 56.043Z" fill="#17D1AA"/>
<path fill-rule="evenodd" clip-rule="evenodd" d="M17.4375 57.4727C17.9203 57.8747 50.267 87.3167 50.267 87.3167L17.4375 57.4727Z" fill="#17D1AA"/>
<path fill-rule="evenodd" clip-rule="evenodd" d="M16.1641 58.9023C16.6468 59.3044 48.9935 88.7464 48.9935 88.7464L16.1641 58.9023Z" fill="#17D1AA"/>
<path fill-rule="evenodd" clip-rule="evenodd" d="M44.7803 83.8768C37.1435 80.0792 30.9551 69.5355 30.9551 60.2428C30.9551 56.758 31.8329 53.988 33.2812 52.0669L32.0962 52.4243L34.9052 50.4585C34.949 50.4139 35.0039 50.3804 35.0588 50.3469C35.1136 50.3133 35.1685 50.2798 35.2124 50.2352L35.3002 50.1458C37.8019 48.5374 41.1375 48.4034 44.7803 50.2352C52.4171 54.0327 58.6056 64.5764 58.6056 73.8692C58.6056 78.2922 57.2011 81.5983 54.9189 83.4747L54.875 83.5194C54.7433 83.6087 54.6226 83.6981 54.5019 83.7874C54.3812 83.8768 54.2605 83.9661 54.1288 84.0555L51.4077 86.0213L51.5393 85.083C49.5204 85.4405 47.2382 85.083 44.7803 83.8768ZM44.7805 57.8746C40.611 55.8194 37.2314 58.232 37.2314 63.3251C37.2314 68.3736 40.611 74.1816 44.7805 76.2814C48.95 78.3365 52.3295 75.924 52.3295 70.8308C52.3295 65.7377 48.95 59.9297 44.7805 57.8746Z" fill="url(#paint6_linear_5045_46915)"/>
<path fill-rule="evenodd" clip-rule="evenodd" d="M41.6651 86.0647C34.0283 82.2672 27.8398 71.7235 27.8398 62.4307C27.8398 53.1826 34.0283 48.7149 41.6651 52.4678C49.3019 56.2653 55.4904 66.809 55.4904 76.1018C55.4904 85.3499 49.3019 89.8176 41.6651 86.0647ZM41.621 60.1074C37.4515 58.0523 34.072 60.4648 34.072 65.558C34.072 70.6065 37.4515 76.4144 41.621 78.5142C45.7906 80.5694 49.1701 78.1568 49.1701 73.0637C49.1701 67.9705 45.7906 62.1625 41.621 60.1074Z" fill="#17D1AA"/>
<path fill-rule="evenodd" clip-rule="evenodd" d="M27.8398 62.6104C27.8398 53.3623 34.0283 48.8946 41.6651 52.6475C49.258 56.4003 55.4465 66.9887 55.4904 76.2815C55.4904 85.5296 49.3019 89.9972 41.6651 86.2444C34.0283 82.4469 27.8398 71.9031 27.8398 62.6104ZM34.1157 65.6483C34.1157 70.7414 37.4952 76.5494 41.6647 78.6045C45.8343 80.7043 49.2138 78.2471 49.2138 73.154C49.2138 68.0608 45.8343 62.2528 41.6647 60.1977C37.4952 58.1426 34.1157 60.5551 34.1157 65.6483Z" fill="#163FA5"/>
<ellipse opacity="0.7" cx="10.4431" cy="16.9119" rx="10.4431" ry="16.9119" transform="matrix(0.883622 -0.4682 0.4664 0.884574 24.543 59.1914)" fill="#52FCFF"/>
<path fill-rule="evenodd" clip-rule="evenodd" d="M43.9895 72.081L46.579 81.1504C46.6668 81.4631 46.8862 81.8206 47.369 81.6865C47.7201 81.5972 47.5446 81.0164 47.4129 80.659L41.795 60.1523C41.6633 59.6162 41.4439 59.0801 41.005 58.812C40.61 58.544 40.1711 58.812 39.9955 59.1694L34.1582 73.5107V73.6C34.1582 73.8681 34.2021 73.9574 34.4654 74.0915C34.641 74.1808 34.7727 74.1808 34.8604 74.0468C35.6505 72.1704 36.616 69.8025 37.3621 67.9261L43.9895 72.081ZM40.3909 60.4654C40.6103 59.8399 40.8298 60.108 41.0931 61.0462L43.7704 71.0985L37.7136 67.3009L40.3909 60.4654Z" fill="#1D45BA"/>
<path fill-rule="evenodd" clip-rule="evenodd" d="M47.2384 74.2266L34.4226 66.2741C34.2909 66.1848 34.2031 66.0061 34.2031 65.8274V65.4253C34.2031 65.2466 34.2909 65.2019 34.4226 65.2466L47.2384 73.199C47.37 73.2884 47.4578 73.4671 47.4578 73.6458V74.0479C47.5017 74.2266 47.37 74.316 47.2384 74.2266Z" fill="#1D45BA"/>
<path fill-rule="evenodd" clip-rule="evenodd" d="M46.0958 69.9803L35.6062 63.4575C35.4745 63.3681 35.3867 63.1894 35.3867 63.0107V62.564C35.3867 62.3853 35.4745 62.3406 35.6062 62.3853L46.0958 68.9081C46.2275 68.9974 46.3153 69.1761 46.3153 69.3548V69.7569C46.3153 69.9803 46.2275 70.0697 46.0958 69.9803Z" fill="#1D45BA"/>
<path d="M101.232 51.1984C100.991 51.0385 100.784 50.8095 100.609 50.5115C100.455 50.228 100.379 49.9435 100.379 49.6579V46.893C100.379 46.7113 100.423 46.4677 100.51 46.1624C100.598 45.8311 100.827 45.6203 101.199 45.5299L104.611 43.8252C106.361 43.4044 107.794 43.0194 108.909 42.6704C110.047 42.3098 110.889 41.8829 111.436 41.3895C111.982 40.8962 112.256 40.2731 112.256 39.5202C112.256 38.6375 112.059 37.7797 111.665 36.9469C111.293 36.1027 110.637 35.3681 109.697 34.7431C109.062 34.3215 108.526 34.1342 108.089 34.181C107.673 34.2163 107.356 34.421 107.138 34.7948C106.919 35.1687 106.766 35.5992 106.678 36.0862C106.591 36.3656 106.438 36.4975 106.219 36.482C106.022 36.481 105.803 36.4005 105.563 36.2406L101.462 33.5152C101.265 33.3844 101.101 33.1975 100.969 32.9545C100.838 32.7116 100.773 32.4732 100.773 32.2396C100.794 31.008 101.013 29.985 101.429 29.1708C101.866 28.3711 102.468 27.8102 103.233 27.4882C104.021 27.1547 104.95 27.1105 106.022 27.3554C107.116 27.6149 108.341 28.1952 109.697 29.0964C111.556 30.3319 113.131 31.7289 114.421 33.2875C115.734 34.8606 116.729 36.5085 117.407 38.2312C118.085 39.928 118.424 41.6201 118.424 43.3076C118.424 44.5797 118.183 45.6141 117.702 46.4107C117.243 47.1958 116.576 47.8039 115.701 48.235C114.848 48.6547 113.831 49.0043 112.649 49.2838L109.631 50.8996L118.063 56.503C118.304 56.6629 118.5 56.8846 118.653 57.1681C118.828 57.4661 118.916 57.7579 118.916 58.0435V61.9767C118.916 62.2622 118.828 62.4378 118.653 62.5032C118.5 62.5832 118.304 62.5432 118.063 62.3834L101.232 51.1984Z" fill="white"/>
<path d="M133.007 72.3143C132.788 72.169 132.591 71.9473 132.416 71.6493C132.263 71.3658 132.187 71.0812 132.187 70.7957V66.3951L121.983 59.6144C121.764 59.469 121.568 59.2473 121.393 58.9493C121.239 58.6659 121.163 58.3813 121.163 58.0957V54.3962C121.163 54.1625 121.196 53.9766 121.261 53.8385C121.349 53.689 121.436 53.5524 121.524 53.4288L131.071 44.4301C131.356 44.1777 131.76 44.2259 132.285 44.5748L137.042 47.7362C137.283 47.8961 137.48 48.1178 137.633 48.4013C137.808 48.6993 137.895 48.9911 137.895 49.2766V64.3864L140.783 66.3051C141.045 66.4795 141.253 66.7214 141.406 67.0309C141.559 67.3144 141.636 67.5859 141.636 67.8455V71.7009C141.636 71.9864 141.548 72.162 141.373 72.2274C141.22 72.3074 141.034 72.2747 140.815 72.1293L137.895 70.1889V74.5894C137.895 74.875 137.808 75.0505 137.633 75.1159C137.48 75.1959 137.283 75.156 137.042 74.9961L133.007 72.3143ZM126.806 57.2896L132.318 60.9525V51.762L126.806 57.2896Z" fill="white"/>
<path d="M95.4707 184.104L95.484 188.999L110.17 197.493L110.157 192.597L95.4707 184.104Z" fill="#E1A713"/>
<path d="M115.848 192.604L115.861 197.493L126 191.669L125.987 186.773L115.848 192.604Z" fill="#E1A713"/>
<path d="M110.156 192.596L110.169 197.492H115.861L115.848 192.602L110.156 192.596Z" fill="#E1A713"/>
<path d="M105.629 175H111.314L126 183.493V186.773L115.861 192.596H110.169L95.4831 184.103C95.4831 182.824 95.4831 182.115 95.4831 180.823L105.629 175Z" fill="#ECBA09"/>
<path d="M101.254 188.449L60.5387 211.995C60.752 211.897 60.9876 211.857 61.2214 211.879C61.4553 211.901 61.6791 211.985 61.8701 212.121L102.586 188.575C102.397 188.434 102.173 188.348 101.938 188.326C101.703 188.304 101.467 188.346 101.254 188.449Z" fill="#E1A713"/>
<path d="M63.1354 216.439L103.851 192.894C104.037 192.763 104.185 192.586 104.279 192.38C104.374 192.174 104.412 191.947 104.39 191.721C104.355 191.09 104.17 190.477 103.852 189.93C103.534 189.384 103.091 188.919 102.56 188.574L61.8439 212.12C62.3783 212.463 62.8226 212.928 63.1398 213.477C63.4571 214.025 63.6382 214.641 63.668 215.273C63.6915 215.497 63.6545 215.723 63.5609 215.928C63.4673 216.133 63.3204 216.31 63.1354 216.439Z" fill="#ECBA09"/>
<path d="M61.8439 212.121C60.832 211.538 60.0065 212.009 59.9998 213.168C60.0357 213.799 60.22 214.412 60.5381 214.959C60.8561 215.506 61.2988 215.97 61.8306 216.315C62.8425 216.898 63.668 216.428 63.668 215.275C63.6381 214.643 63.4571 214.027 63.1398 213.478C62.8225 212.93 62.3782 212.465 61.8439 212.121Z" fill="#E1A713"/>
<path d="M69.7266 212.022L69.7199 214.784L68.6015 214.148L68.6081 211.379L69.7266 212.022Z" fill="#F5B40F"/>
<path d="M80.9766 213.168L80.9699 215.931L80.0246 215.388L80.0312 212.625L80.9766 213.168Z" fill="#ECBA09"/>
<path d="M81.8223 212.678L81.8156 215.44L80.9701 215.931L80.9768 213.168L81.8223 212.678Z" fill="#ECBA09"/>
<path d="M80.0312 212.625L80.0246 215.388L78.8263 216.083L78.8329 213.321L80.0312 212.625Z" fill="#F5B40F"/>
<path d="M76.4766 214.684L76.4632 217.446L75.2716 218.135L75.2783 215.373L76.4766 214.684Z" fill="#ECBA09"/>
<path d="M70.1719 215.387L70.1652 218.149L67.023 216.347L67.0296 213.578L70.1719 215.387Z" fill="#ECBA09"/>
<path d="M71.6895 214.512L71.6828 217.274L70.1649 218.149L70.1716 215.386L71.6895 214.512Z" fill="#ECBA09"/>
<path d="M80.5176 214.281L80.5043 217.051L78.1476 218.415L78.1543 215.646L80.5176 214.281Z" fill="#ECBA09"/>
<path d="M78.1543 215.644L78.1476 218.414L76.4633 217.446L76.4767 214.684L78.1543 215.644Z" fill="#ECBA09"/>
<path d="M75.1777 216.519L75.1711 219.282L71.6827 217.274L71.6893 214.512L75.1777 216.519Z" fill="#ECBA09"/>
<path d="M81.8223 212.677L80.9768 213.167L80.0315 212.624L78.8332 213.32L80.5174 214.281L78.1541 215.645L76.4765 214.685L75.2782 215.374L76.2235 215.917L75.1783 216.52L71.6899 214.512L70.1721 215.387L67.0298 213.578L69.726 212.021L68.6076 211.379L73.0879 208.795L74.1997 209.438L75.1916 208.861L81.8223 212.677Z" fill="#E1A713"/>
<path d="M76.2246 215.916L76.218 218.679L75.1728 219.282L75.1794 216.519L76.2246 215.916Z" fill="#ECBA09"/>
<path d="M83.793 208.271L83.7863 210.703L81.849 211.829L81.8557 209.398L83.793 208.271Z" fill="#ECBA09"/>
<path d="M81.8555 209.397L81.8488 211.829L76.9291 209L76.9358 206.568L81.8555 209.397Z" fill="#ECBA09"/>
<path d="M83.793 208.272L81.8557 209.398L76.936 206.569L78.8799 205.449L83.793 208.272Z" fill="#E1A713"/>
<defs>
<linearGradient id="paint0_linear_5045_46915" x1="174" y1="201.451" x2="77.0019" y2="201.451" gradientUnits="userSpaceOnUse">
<stop stop-color="#17D0A9"/>
<stop offset="0.43" stop-color="#2395B9"/>
<stop offset="0.81" stop-color="#2D66C5"/>
<stop offset="1" stop-color="#3154CA"/>
</linearGradient>
<linearGradient id="paint1_linear_5045_46915" x1="121.06" y1="1.1836" x2="-44.1294" y2="101.386" gradientUnits="userSpaceOnUse">
<stop stop-color="#0CDDB3"/>
<stop offset="1" stop-color="#4F6FC6"/>
</linearGradient>
<linearGradient id="paint2_linear_5045_46915" x1="66.2137" y1="118.23" x2="135.087" y2="172.194" gradientUnits="userSpaceOnUse">
<stop stop-color="#0CDDB3"/>
<stop offset="1" stop-color="#4F6FC6"/>
</linearGradient>
<linearGradient id="paint3_linear_5045_46915" x1="22.0711" y1="118.23" x2="90.9441" y2="172.194" gradientUnits="userSpaceOnUse">
<stop stop-color="#0CDDB3"/>
<stop offset="1" stop-color="#4F6FC6"/>
</linearGradient>
<linearGradient id="paint4_linear_5045_46915" x1="34.9565" y1="108.035" x2="34.9565" y2="74.9159" gradientUnits="userSpaceOnUse">
<stop stop-color="#1D45BA"/>
<stop offset="0.4204" stop-color="#1D47BA"/>
<stop offset="0.5718" stop-color="#1D4EB9"/>
<stop offset="0.6797" stop-color="#1C59B8"/>
<stop offset="0.767" stop-color="#1B6AB6"/>
<stop offset="0.8417" stop-color="#1A80B3"/>
<stop offset="0.9079" stop-color="#199CB0"/>
<stop offset="0.9663" stop-color="#18BBAD"/>
<stop offset="1" stop-color="#17D1AA"/>
</linearGradient>
<linearGradient id="paint5_linear_5045_46915" x1="59.7802" y1="121.197" x2="59.7802" y2="100.832" gradientUnits="userSpaceOnUse">
<stop stop-color="#1D45BA"/>
<stop offset="0.4204" stop-color="#1D47BA"/>
<stop offset="0.5718" stop-color="#1D4EB9"/>
<stop offset="0.6797" stop-color="#1C59B8"/>
<stop offset="0.767" stop-color="#1B6AB6"/>
<stop offset="0.8417" stop-color="#1A80B3"/>
<stop offset="0.9079" stop-color="#199CB0"/>
<stop offset="0.9663" stop-color="#18BBAD"/>
<stop offset="1" stop-color="#17D1AA"/>
</linearGradient>
<linearGradient id="paint6_linear_5045_46915" x1="60.3898" y1="90.5211" x2="60.3898" y2="48.6186" gradientUnits="userSpaceOnUse">
<stop stop-color="#1D45BA"/>
<stop offset="0.4204" stop-color="#1D47BA"/>
<stop offset="0.5718" stop-color="#1D4EB9"/>
<stop offset="0.6797" stop-color="#1C59B8"/>
<stop offset="0.767" stop-color="#1B6AB6"/>
<stop offset="0.8417" stop-color="#1A80B3"/>
<stop offset="0.9079" stop-color="#199CB0"/>
<stop offset="0.9663" stop-color="#18BBAD"/>
<stop offset="1" stop-color="#17D1AA"/>
</linearGradient>
</defs>
</svg>
