<svg width="24" height="24" xmlns="http://www.w3.org/2000/svg"><path d="M16.155 3.053a2.017 2.017 0 011.675.35c.363.281.59.677.637 1.106l.009.161v.87h1.144c1.204 0 2.204.88 2.359 2.016l.016.156.005.153v9.81c0 1.232-.985 2.241-2.224 2.32L19.62 20H4.38c-1.26 0-2.294-.96-2.375-2.172L2 17.676V7.865c0-1.232.985-2.24 2.224-2.32l.156-.004.907.007 10.868-2.495zm3.465 3.806H4.38c-.535 0-.975.394-1.032.897l-.006.109v9.81c0 .517.405.946.925 1l.113.007h15.24c.535 0 .975-.395 1.032-.897l.006-.11v-9.81c0-.553-.465-1.006-1.038-1.006zm-3.06-2.537l-.099.015-5.247 1.203h5.919v-.87a.265.265 0 00-.078-.18l-.054-.05a.641.641 0 00-.442-.118z" fill="#FFF" fillRule="nonzero"/></svg>