<svg width="24" height="24" xmlns="http://www.w3.org/2000/svg"><path d="M14.142 12.055a.638.638 0 01.886.091.607.607 0 01-.095.866l-.973.767h5.535c1.793 0 2.48 1.36 2.504 2.274v1.613c0 1.287-1.075 2.334-2.394 2.334H4.398c-1.32 0-2.394-1.047-2.394-2.334L2 13.525c0-.375.31-.677.692-.677.382 0 .693.302.693.677l-.003 4.14c0 .546.456.992 1.016.992h15.207c.56 0 1.016-.446 1.016-.991l-.006-1.596c-.014-.263-.152-.936-1.12-.936H13.99l.944.743c.27.214.313.601.095.866a.637.637 0 01-.886.092l-2.423-1.911a.61.61 0 010-.958zm2-9.002a2.038 2.038 0 011.69.354c.413.318.65.783.65 1.274v.855h1.122c1.32 0 2.395 1.047 2.395 2.334L22 11.314c0 .374-.31.677-.692.677a.684.684 0 01-.693-.677l.007-3.444c0-.546-.457-.99-1.018-.99H4.398c-.56 0-1.017.444-1.017.99l.003 1.367c.015.265.153.937 1.12.937h5.477l-.943-.744a.604.604 0 01-.095-.865.637.637 0 01.884-.093l2.425 1.912a.608.608 0 010 .957l-2.425 1.911a.634.634 0 01-.884-.092.604.604 0 01.095-.865l.972-.767H4.505c-1.793 0-2.48-1.36-2.504-2.273l.003-1.385c0-1.287 1.074-2.334 2.394-2.334h.964zm.429 1.291l-.113.017-5.118 1.175h5.764V4.68c0-.1-.069-.176-.128-.22a.63.63 0 00-.518-.1z" fill="#FFF" fillRule="evenodd"/></svg>