<?xml version="1.0" encoding="UTF-8"?>
<svg width="24px" height="24px" viewBox="0 0 24 24" version="1.1" xmlns="http://www.w3.org/2000/svg" xmlns:xlink="http://www.w3.org/1999/xlink">
    <!-- Generator: Sketch 60 (88103) - https://sketch.com -->
    <title>icon/wallet-settings-2-ic.inline</title>
    <desc>Created with Sketch.</desc>
    <g id="icon/wallet-settings-2-ic.inline" stroke="none" stroke-width="1" fill="none" fill-rule="evenodd">
        <g id="wallet-settings-2-ic.inline">
            <path d="M12.8299442,2.00001751 C13.4310423,1.99691921 13.9495621,2.40532596 14.0949822,2.97559448 L14.1203271,3.10018137 L14.3428661,4.42267134 L14.5603132,4.49248895 C14.7625228,4.56178134 14.961842,4.63911408 15.1577972,4.72429243 L15.4491477,4.85791982 L15.6522223,4.96060097 L16.7608058,4.17384937 C17.2090178,3.85329429 17.799708,3.8514799 18.2448706,4.14423087 L18.3529627,4.22354141 L18.4539912,4.31504155 L19.6850318,5.54608443 C20.1097674,5.96691865 20.191823,6.61651825 19.9006863,7.12530723 L19.8268623,7.24005226 L19.0394056,8.34384341 L19.139593,8.53893737 C19.2304762,8.72542529 19.313858,8.91543112 19.3895482,9.10849662 L19.4972909,9.40033235 L19.5645274,9.60787953 L20.9035542,9.83556012 C21.4458917,9.92528807 21.864622,10.3403313 21.9727191,10.8621476 L21.9931636,10.9946996 L21.9999927,11.1211039 L21.9999927,12.8662364 C22.0010498,13.466082 21.5969871,13.9844856 21.0277145,14.1373795 L20.9032862,14.1644444 L19.567483,14.3871774 L19.4985063,14.5998843 C19.4296308,14.7973695 19.3539871,14.9902482 19.2712396,15.1790677 L19.1417486,15.4593208 L19.0423612,15.6512136 L19.8301132,16.7594647 C20.1523439,17.2075543 20.15431,17.7994592 19.860567,18.2445143 L19.7809849,18.3525505 L19.6891668,18.4534587 L18.457621,19.6855232 C18.2088566,19.9342875 17.8787496,20.0710418 17.5265757,20.0710418 C17.3084446,20.0710418 17.0963784,20.0168797 16.9044976,19.9132413 L16.7645925,19.8263089 L15.660104,19.0383969 L15.4649895,19.1393253 C15.2778549,19.2306146 15.0876601,19.3141876 14.8948793,19.3898444 L14.6038277,19.4973673 L14.3970531,19.5635187 L14.1700429,20.9043876 C14.0758589,21.4543008 13.653443,21.8739563 13.123574,21.9760882 L12.9994896,21.9939353 L12.8721932,21.999999 L11.1269852,21.999999 C10.5274393,22.0007504 10.0094835,21.5966652 9.85689808,21.0276956 L9.82989702,20.9033373 L9.60593257,19.5674595 L9.33645171,19.4783175 C9.17876995,19.4220849 9.02295251,19.36091 8.86960842,19.295008 L8.64152342,19.1926363 L8.38918697,19.0669682 L7.26826226,19.8635314 C6.82005023,20.1840865 6.22936005,20.1859009 5.78419749,19.8931499 L5.67610534,19.8138394 L5.57507687,19.7223392 L4.34406394,18.4913238 C3.91902592,18.0704122 3.83693872,17.4204739 4.12837739,16.9114959 L4.20227702,16.7967102 L4.98032884,15.7054006 L4.88178955,15.5170346 C4.79032395,15.3330633 4.70601501,15.1441926 4.62893292,14.9509447 L4.5187387,14.6578552 L4.44831052,14.4453054 L3.09580303,14.2141526 C2.54567279,14.1205242 2.12605267,13.6979821 2.02393406,13.1678089 L2.00608946,13.0436513 L2.00001464,12.9162769 L2.00001464,11.1715837 C1.99718222,10.5706924 2.40554536,10.0524745 2.97557882,9.90712811 L3.10011245,9.88179544 L4.4217096,9.65714048 L4.48593683,9.45280886 C4.55153517,9.25721106 4.62537262,9.06385417 4.70726494,8.87304514 L4.83612154,8.58878088 L4.93500876,8.39113392 L4.14041541,7.27021468 C3.81776516,6.82214622 3.81556481,6.22996895 4.10935962,5.78466744 L4.18896074,5.67657037 L4.28081008,5.57560348 L5.51209025,4.34432388 C5.93341043,3.92103152 6.58193014,3.83917201 7.0910683,4.12924698 L7.20592063,4.20280363 L8.29657637,4.98030535 L8.48520382,4.88238701 C8.66900276,4.7909364 8.85779099,4.70662553 9.05102502,4.62952988 L9.34414249,4.51930724 L9.5556864,4.44927225 L9.78796339,3.09578892 C9.88162915,2.5459456 10.3042978,2.12612976 10.8343683,2.02395387 L10.9584979,2.00609879 L11.0858354,2.00001751 L12.8299442,2.00001751 Z M12.8301384,3.29379624 L11.0864073,3.29379624 L11.0747885,3.29798098 L11.0687284,3.30807125 L10.7718459,5.06336174 C10.7268592,5.31264933 10.5425618,5.51386676 10.2965738,5.58094727 C9.69644991,5.73741966 9.12193515,5.97934757 8.59181673,6.2986022 C8.4026547,6.41490729 8.16940106,6.42370314 7.97508208,6.32852678 L7.88155153,6.27229063 L6.45561697,5.25536553 L6.44347885,5.25235997 L6.43158005,5.25842955 L5.20691243,6.49181997 L5.20073656,6.5051171 L5.20331555,6.5176491 L6.22981648,7.96615667 C6.37762443,8.17369475 6.39048412,8.44847228 6.26250615,8.66925075 C5.9502436,9.20462994 5.71635996,9.7797265 5.56330901,10.38577 C5.50658009,10.6033455 5.34309995,10.7743 5.13292431,10.8430159 L5.04016521,10.8660439 L3.31250376,11.1542453 L3.30171854,11.1603214 L3.29741759,11.171402 L3.29741759,12.9161436 L3.30167747,12.9277876 L3.31217665,12.9338965 L5.06702649,13.2302741 C5.31649079,13.275369 5.51775219,13.4599671 5.58457216,13.7060693 C5.74103351,14.3063627 5.98296288,14.8810516 6.30222388,15.4113326 C6.41852897,15.6004946 6.42732482,15.8337483 6.33213546,16.0280855 L6.27589165,16.1216268 L5.25449815,17.5530358 L5.2523031,17.5618255 L5.25812422,17.5717894 L6.49925505,18.8093033 L6.51024239,18.8148343 L6.52070316,18.812832 L7.96918029,17.7854663 C8.17577366,17.6394624 8.44839812,17.6268797 8.66753566,17.7532182 C9.1926329,18.0558074 9.75587612,18.2867371 10.3404826,18.4394023 C10.5588898,18.4935519 10.730363,18.6575069 10.7965509,18.8668625 L10.818301,18.9591781 L11.1100817,20.6953688 L11.1161837,20.706119 L11.1273183,20.7103982 L12.8721398,20.7103982 L12.8837613,20.7061974 L12.8898406,20.6959942 L13.185797,18.955513 C13.2274075,18.7027974 13.4144771,18.4985775 13.6625177,18.4350327 C14.2634405,18.2807914 14.8393362,18.0417597 15.3731211,17.7249823 C15.5631077,17.6127589 15.7945849,17.6060239 15.9879415,17.7008725 L16.0810744,17.7567441 L17.515375,18.7783855 L17.5275571,18.781347 L17.5397632,18.7749689 L18.7684067,17.5458898 L18.7745961,17.5325393 L18.7718931,17.5198281 L17.748386,16.0779749 C17.6027968,15.8679204 17.592353,15.592464 17.7220078,15.3713289 C18.0386471,14.8376262 18.2776803,14.2615564 18.4316565,13.6614676 C18.4860108,13.4432904 18.6499541,13.2720836 18.8591193,13.2060362 L18.9513426,13.1843381 L20.6875263,12.8919506 L20.6983115,12.8858745 L20.7026124,12.874794 L20.7026124,11.1342006 L20.6983259,11.1225521 L20.6876402,11.1164116 L18.9476074,10.8199253 C18.695332,10.7781749 18.4914744,10.5914593 18.4277707,10.3437647 C18.2733814,9.74264512 18.034177,9.16657408 17.7171949,8.63261892 C17.604897,8.44249899 17.5981488,8.210864 17.6930529,8.01735667 L17.748958,7.92414903 L18.7747711,6.48407986 L18.777001,6.4753119 L18.7713091,6.46543828 L17.5381096,5.23222584 L17.5271343,5.22668617 L17.5167581,5.22862852 L16.0754533,6.25263427 C15.8654054,6.39842155 15.5897886,6.40887148 15.3690913,6.27928218 C14.8222854,5.95697579 14.2344975,5.71589739 13.6156383,5.56015739 C13.3981218,5.5031425 13.2273723,5.33942298 13.1589594,5.12926943 L13.1360672,5.03653643 L12.8479468,3.3088257 C12.8464356,3.30016318 12.8389317,3.29379624 12.8301384,3.29379624 Z M12.000015,7.98600145 C14.0862914,7.98600145 15.7775525,9.6772626 15.7775525,11.7635389 C15.7775525,13.8498153 14.0862914,15.5410764 12.000015,15.5410764 C9.91373867,15.5410764 8.22247752,13.8498153 8.22247752,11.7635389 C8.22247752,9.6772626 9.91373867,7.98600145 12.000015,7.98600145 Z M12.000015,9.31863994 C10.6497346,9.31863994 9.55511601,10.4132585 9.55511601,11.7635389 C9.55511601,13.1138194 10.6497346,14.208438 12.000015,14.208438 C13.3502955,14.208438 14.444914,13.1138194 14.444914,11.7635389 C14.444914,10.4132585 13.3502955,9.31863994 12.000015,9.31863994 Z" id="Combined-Shape" fill="#FFFFFF" fill-rule="nonzero"></path>
        </g>
    </g>
</svg>