<svg width="35" height="31" xmlns="http://www.w3.org/2000/svg"><path d="M27.04 24.248l-2.773 1.962L3.841 11.83c0-.029 0-.057-.008-.085v-1.283-2.553l23.208 16.34zm-5.7-18.56c-1.233.862-2.477 1.706-3.71 2.567a.329.329 0 01-.45 0c-1.524-1.081-3.056-2.152-4.582-3.225-1.605-1.136-3.21-2.275-4.813-3.417L5.51 0H0c.292.209.533.384.775.555l4.318 3.05L9.36 6.63c1.34.948 2.675 1.902 4.016 2.85 1.272.898 2.548 1.787 3.82 2.688a.276.276 0 00.375 0c1.027-.717 2.066-1.422 3.088-2.14 2.543-1.775 5.085-3.554 7.624-5.335l5.55-3.866C34.219.56 34.6.29 35 0h-5.525c-2.712 1.895-5.424 3.791-8.134 5.689zM3.864 17.475a.425.425 0 00-.03.074V21.315a.227.227 0 00.02.082L17.486 31h.013l2.774-1.96-16.41-11.566zm27.235-9.557l-10.146 7.15a.9.9 0 00.107.122c.858.619 1.717 1.235 2.576 1.85.028.015.06.02.093.016l7.346-5.182a.29.29 0 00.024-.07V7.917zm.009 9.707c-1.152.81-2.264 1.593-3.388 2.386l2.635 1.904.753-.532v-3.758z" fill="#FFF" fillRule="nonzero"/></svg>