<svg width="122" height="34" xmlns="http://www.w3.org/2000/svg"><g fill="#FFF" fill-rule="nonzero"><path d="M76.337 28.953l-1.275 3.545-1.153-3.545h-.667L72.105 32.5l-1.243-3.548h-.792l1.746 4.927h.632l1.136-3.534 1.15 3.534h.632l1.746-4.927h-.775zm5.24 0v.639a2.363 2.363 0 00-.447-.352 2.159 2.159 0 00-1.166-.317 2.337 2.337 0 00-1.777.723 2.497 2.497 0 00-.693 1.816c0 .744.24 1.346.716 1.785a2.476 2.476 0 001.74.66c.606.02 1.195-.209 1.627-.635v.606h.738v-4.925h-.738zm-1.627 4.222a1.893 1.893 0 01-.689-.12 1.476 1.476 0 01-.534-.359 1.586 1.586 0 01-.451-.866c-.02-.12-.03-.24-.03-.362-.023-.49.156-.967.495-1.32a1.66 1.66 0 011.223-.509c.227-.003.452.04.66.13.197.086.37.216.509.38.073.087.138.18.195.278.172.313.258.667.25 1.025.022.465-.147.92-.467 1.259a1.584 1.584 0 01-1.161.464zm6.223-6.558h.737v7.248h-.737v-7.248zm-2.35 0h.736v7.248h-.736v-7.248zm-38.69 3.323h19.9v.838h-19.9v-.838zm55.806 0h20.725v.838h-20.725v-.838zm-10.382 3.986a2.297 2.297 0 01-2.225-1.494 2.819 2.819 0 01-.165-.99 2.87 2.87 0 01.165-.99c.11-.3.278-.574.495-.806a2.174 2.174 0 011.651-.711c.16 0 .32.014.477.043a1.98 1.98 0 011.136.635c.419.404.632.972.632 1.688a.609.609 0 01-.038.29l-.06.115h-3.69c.048.376.21.729.465 1.01.29.311.7.483 1.126.472a1.65 1.65 0 001.373-.66l.137-.165.556.482-.124.156a2.33 2.33 0 01-1.91.925zm-1.596-2.936h3a1.697 1.697 0 00-.42-.936 1.343 1.343 0 00-1.022-.411 1.502 1.502 0 00-1.074.435c-.259.241-.43.562-.484.912zm6.326 2.92c-.585 0-.866-.219-.998-.402-.178-.25-.266-.597-.266-1.066v-2.77h-.632v-.72h.632v-1.58l.721-.073v1.67h1.763v.718h-1.77v2.641c-.018.245.024.491.123.716.023.042.097.165.406.165.287.003.567-.084.802-.249l.236-.165.221.736-.148.081c-.332.19-.707.292-1.09.297zM57.89.952l-5.787 9.337-5.665-9.238-.061-.099h-1.606l6.671 10.811v8.903h1.35v-8.901L59.495.952h-1.606zm18.093 2.656C74.2 1.751 71.948.81 69.296.81c-2.75 0-5.038.97-6.797 2.88-1.76 1.912-2.64 4.274-2.64 7.088s.889 5.21 2.64 7.117c1.751 1.906 4.047 2.88 6.797 2.88 2.64 0 4.887-.941 6.687-2.806 1.801-1.865 2.696-4.27 2.696-7.191 0-2.922-.906-5.31-2.696-7.17zm1.32 7.185c0 2.525-.78 4.62-2.31 6.219-1.53 1.597-3.436 2.401-5.673 2.401-2.33 0-4.283-.833-5.801-2.476-1.51-1.67-2.271-3.733-2.271-6.144 0-2.412.76-4.473 2.261-6.107 1.5-1.634 3.448-2.466 5.811-2.466 2.286 0 4.141.78 5.668 2.387 1.527 1.605 2.31 3.667 2.31 6.186h.006zm12.162 1.728c1.485-.14 2.734-.675 3.7-1.593 1.012-.979 1.527-2.4 1.527-4.22 0-1.735-.514-3.136-1.522-4.184C92.16 1.476 90.62.952 88.6.952h-6.426v19.714h1.364v-8.107h4.312l5.612 8.107h1.669l-5.666-8.145zm3.832-5.828c0 3.04-1.672 4.519-5.108 4.519h-4.666V2.329h5.138c1.452 0 2.604.37 3.426 1.096.822.726 1.21 1.807 1.21 3.268zm19.878-3.085C111.39 1.751 109.14.81 106.488.81c-2.752 0-5.038.97-6.797 2.88-1.76 1.912-2.64 4.275-2.64 7.088 0 2.812.89 5.21 2.64 7.117 1.75 1.906 4.047 2.88 6.798 2.88 2.641 0 4.887-.941 6.688-2.806 1.8-1.865 2.687-4.27 2.687-7.191 0-2.922-.901-5.31-2.689-7.17zm1.32 7.185c0 2.525-.778 4.62-2.31 6.219-1.515 1.594-3.421 2.401-5.668 2.401-2.33 0-4.283-.833-5.801-2.476-1.522-1.67-2.276-3.733-2.276-6.144 0-2.433.76-4.488 2.26-6.107 1.5-1.62 3.446-2.466 5.803-2.466 2.287 0 4.14.78 5.669 2.387 1.528 1.605 2.317 3.667 2.317 6.186h.007zm6.387 9.873h-1.349V.952h1.349v19.714zm-93.416 3.507l-2.818 1.956L3.902 11.793c0-.028 0-.056-.009-.084V7.884l23.573 16.289zm-5.79-18.502c-1.253.858-2.517 1.7-3.77 2.558a.338.338 0 01-.455 0c-1.549-1.077-3.105-2.145-4.655-3.215-1.63-1.132-3.26-2.268-4.889-3.406L5.595 0H0c.297.208.541.383.787.553l4.386 3.04A14798.9 14798.9 0 019.508 6.61c1.36.946 2.717 1.897 4.079 2.84 1.292.897 2.588 1.783 3.88 2.681a.284.284 0 00.381 0c1.043-.715 2.098-1.418 3.136-2.132 2.584-1.77 5.165-3.544 7.744-5.32L34.366.825C34.756.56 35.144.29 35.55 0h-5.612c-2.755 1.89-5.51 3.78-8.262 5.671zM3.923 17.42a.42.42 0 00-.03.074v3.755a.223.223 0 00.02.083l13.848 9.573h.013l2.817-1.954L3.923 17.42zm27.664-9.526l-10.306 7.126a.903.903 0 00.11.123c.87.617 1.743 1.231 2.615 1.843a.152.152 0 00.094.017l7.462-5.166a.286.286 0 00.025-.07V7.893zm.008 9.676c-1.17.808-2.299 1.588-3.441 2.379l2.677 1.898.764-.53v-3.747z"/></g></svg>