<?xml version="1.0" encoding="UTF-8"?>
<svg width="24px" height="24px" viewBox="0 0 24 24" version="1.1" xmlns="http://www.w3.org/2000/svg" xmlns:xlink="http://www.w3.org/1999/xlink">
    <!-- Generator: Sketch 52.2 (67145) - http://www.bohemiancoding.com/sketch -->
    <title>password.hiden.inline</title>
    <desc>Created with Sketch.</desc>
    <g id="password.hiden.inline" stroke="none" stroke-width="1" fill="none" fill-rule="evenodd">
        <g id="Icon-/-Visibility-/-open" stroke="#4A4A4A">
            <g id="eye" transform="translate(1.000000, 5.000000)">
                <path d="M0.884576651,7 C1.01520885,7.19862985 1.16641267,7.41615106 1.33780556,7.64836078 C1.91735685,8.43355929 2.60232866,9.21959252 3.38673869,9.95170855 C5.60279289,12.0200258 8.15059658,13.25 11,13.25 C13.8494034,13.25 16.3972071,12.0200258 18.6132613,9.95170855 C19.3976713,9.21959252 20.0826432,8.43355929 20.6621944,7.64836078 C20.8335873,7.41615106 20.9847911,7.19862985 21.1154233,7 C20.9847911,6.80137015 20.8335873,6.58384894 20.6621944,6.35163922 C20.0826432,5.56644071 19.3976713,4.78040748 18.6132613,4.04829145 C16.3972071,1.97997419 13.8494034,0.75 11,0.75 C8.15059658,0.75 5.60279289,1.97997419 3.38673869,4.04829145 C2.60232866,4.78040748 1.91735685,5.56644071 1.33780556,6.35163922 C1.16641267,6.58384894 1.01520885,6.80137015 0.884576651,7 Z" id="Path" stroke-width="1.5"></path>
                <ellipse id="Oval" stroke-width="1.5" stroke-linecap="round" stroke-linejoin="round" cx="11" cy="7.02631579" rx="2.75" ry="2.77631579"></ellipse>
            </g>
        </g>
    </g>
</svg>