<?xml version="1.0" encoding="UTF-8"?>
<svg width="24px" height="24px" viewBox="0 0 24 24" version="1.1" xmlns="http://www.w3.org/2000/svg" xmlns:xlink="http://www.w3.org/1999/xlink">
    <!-- Generator: Sketch 52.2 (67145) - http://www.bohemiancoding.com/sketch -->
    <title>password.watch.inline</title>
    <desc>Created with Sketch.</desc>
    <g id="password.watch.inline" stroke="none" stroke-width="1" fill="none" fill-rule="evenodd">
        <g id="Icon-/-Visibility-/-close" fill="#4A4A4A">
            <g id="eye-copy" transform="translate(1.000000, 5.000000)">
                <path d="M0,7 C0,7 4,0 11,0 C18,0 22,7 22,7 C22,7 18,14 11,14 C4,14 0,7 0,7 Z M11,9.05263158 C9.8954305,9.05263158 9,8.1454191 9,7.02631579 C9,5.90721248 9.8954305,5 11,5 C12.1045695,5 13,5.90721248 13,7.02631579 C13,8.1454191 12.1045695,9.05263158 11,9.05263158 Z M11,10.5526316 C12.9374175,10.5526316 14.5,8.96948879 14.5,7.02631579 C14.5,5.08314279 12.9374175,3.5 11,3.5 C9.06258249,3.5 7.5,5.08314279 7.5,7.02631579 C7.5,8.96948879 9.06258249,10.5526316 11,10.5526316 Z" id="Combined-Shape"></path>
            </g>
        </g>
    </g>
</svg>