<?xml version="1.0" encoding="UTF-8"?>
<svg width="92px" height="93px" viewBox="0 0 92 93" version="1.1" xmlns="http://www.w3.org/2000/svg" xmlns:xlink="http://www.w3.org/1999/xlink">
    <!-- Generator: Sketch 52.6 (67491) - http://www.bohemiancoding.com/sketch -->
    <title>download-paper-certificate.inline</title>
    <desc>Created with Sketch.</desc>
    <g id="download-paper-certificate.inline" stroke="none" stroke-width="1" fill="none" fill-rule="evenodd">
        <g id="download">
            <path d="M71.4528862,56.2302923 C70.5933786,56.2302923 69.9057725,56.9211692 69.9057725,57.7847653 L69.9057725,63.9247121 C69.9057725,67.7705934 66.7886248,70.891054 62.9724109,70.891054 L29.0275891,70.891054 C25.1999151,70.891054 22.0942275,67.7590788 22.0942275,63.9247121 L22.0942275,57.554473 C22.0942275,56.6908769 21.4066214,56 20.5471138,56 C19.6876061,56 19,56.6908769 19,57.554473 L19,63.9247121 C19,69.486271 23.50382,74 29.0275891,74 L62.9724109,74 C68.5076401,74 73,69.4747564 73,63.9247121 L73,57.7847653 C73,56.9326838 72.3123939,56.2302923 71.4528862,56.2302923 Z" id="Path" fill="#17D1AA"></path>
            <path d="M35.9427272,64.8801629 L56.7549624,64.8801629" id="Path-3" stroke="#17D1AA" stroke-width="3" stroke-linecap="round" stroke-linejoin="round"></path>
            <path d="M45.4058646,55.5442279 C45.7068966,55.8404798 46.1121319,56 46.5057891,56 C46.8994463,56 47.3046816,55.8518741 47.6057136,55.5442279 L57.5397684,45.767916 C58.1534105,45.164018 58.1534105,44.1955022 57.5397684,43.5916042 C56.9261264,42.9877061 55.9419834,42.9877061 55.3283413,43.5916042 L48.0688397,50.7472264 L48.0688397,19.5382309 C48.0688397,18.6836582 47.3741505,18 46.5057891,18 C45.6374276,18 44.9427385,18.6836582 44.9427385,19.5382309 L44.9427385,50.7472264 L37.6716587,43.5916042 C37.0580166,42.9877061 36.0738736,42.9877061 35.4602316,43.5916042 C34.8465895,44.1955022 34.8465895,45.164018 35.4602316,45.767916 L45.4058646,55.5442279 Z" id="Path" fill="#17D1AA"></path>
            <circle id="Oval" stroke="#17D1AA" stroke-width="3" cx="46" cy="46.425" r="44.5"></circle>
        </g>
    </g>
</svg>