<?xml version="1.0" encoding="UTF-8"?>
<svg width="48px" height="48px" viewBox="0 0 48 48" version="1.1" xmlns="http://www.w3.org/2000/svg" xmlns:xlink="http://www.w3.org/1999/xlink">
    <!-- Generator: Sketch 60 (88103) - https://sketch.com -->
    <title>icon/fee changed</title>
    <desc>Created with Sketch.</desc>
    <g id="icon/fee-changed" stroke="none" stroke-width="1" fill="none" fill-rule="evenodd">
        <g id="icon/bg-for-icon" fill="#F0F3F5">
            <circle id="Oval-Copy-4" cx="24" cy="24" r="24"></circle>
        </g>
        <g id="fee" fill="#D8D8D8" transform="translate(12.000000, 12.000000)" fill-rule="nonzero">
            <path d="M11.668,3.844 L11.768,3.944 L11.767,12.514 L19.915,12.514 L20.0148841,12.618814 C19.8004765,17.0675173 16.1340208,20.579 11.668,20.579 C7.04658451,20.579 3.3,16.8330415 3.3,12.212 C3.3,7.67634983 6.90928711,3.9830692 11.412183,3.84783646 L11.668,3.844 Z M10.567,5.129 L10.4430605,5.14822792 C7.04186537,5.73682968 4.5,8.70908419 4.5,12.212 C4.5,16.163577 7.7160339,19.379 11.668,19.379 C14.9342713,19.379 17.7527253,17.1800546 18.5804604,14.078648 L18.6416439,13.8319488 L18.666,13.714 L10.668,13.714 L10.568,13.614 L10.567,5.129 Z M12.7471,2.8996 C17.2827502,2.8996 20.9760308,6.50888711 21.1111917,11.0154684 L21.115024,11.271498 L21.1070127,11.4759869 L21.0938877,11.6771119 L20.9941,11.7706 L12.7471,11.7706 L12.6471,11.6706 L12.6471,2.9996 L12.7471,2.8996 Z M13.847,4.185 L13.847,10.57 L19.879,10.57 L19.8657229,10.4295285 C19.4986511,7.28849229 17.0873218,4.74691706 13.9801318,4.20616642 L13.847,4.185 Z" id="Combined-Shape" fill="#8791AD"></path>
        </g>
    </g>
</svg>