<?xml version="1.0" encoding="UTF-8"?>
<svg width="48px" height="48px" viewBox="0 0 48 48" version="1.1" xmlns="http://www.w3.org/2000/svg" xmlns:xlink="http://www.w3.org/1999/xlink">
    <!-- Generator: Sketch 60 (88103) - https://sketch.com -->
    <title>icon/retire</title>
    <desc>Created with Sketch.</desc>
    <g id="icon/retire" stroke="none" stroke-width="1" fill="none" fill-rule="evenodd">
        <g id="icon/bg-for-icon" fill="#F0F3F5">
            <circle id="Oval-Copy-4" cx="24" cy="24" r="24"></circle>
        </g>
        <g id="icon/action-pool-retiring" fill="#D8D8D8" transform="translate(12.000000, 12.000000)" fill-rule="nonzero">
            <path d="M18.7870927,2 C19.5232461,2 19.9988555,2.18150257 19.9988555,2.80377294 C20.0031731,3.00847158 19.9954103,3.16127506 19.9732585,3.27466652 L19.974,3.182 L19.9703497,3.37168638 C19.8393454,6.40575336 17.4243145,9.39816365 13.3237177,12.0425772 L13.190469,12.1285073 L13.3236381,12.2145538 C17.5485012,14.9444262 19.9738496,18.024112 19.9678408,21.1452448 C19.9678406,21.3637262 19.8701583,21.5587814 19.7153894,21.6899482 C19.5409015,21.889942 19.2432763,22 18.7870927,22 L5.06665986,22 C4.41908079,22 4.1318532,21.8357409 4.04471782,21.3941126 C4.01568314,21.3168248 4,21.2331131 4,21.1456537 C4,18.023163 6.43408847,14.9374584 10.6563189,12.2146052 L10.7896977,12.1285912 L10.6563189,12.0425772 C6.44274217,9.32530461 4.00406537,6.23178294 4.00406537,3.11152862 C4.00406537,3.07498274 4.00680378,3.03909123 4.01208993,3.00404409 L4.01249099,3.06342316 C4.01249099,2.77109897 4.00057465,2.4564319 4.12412838,2.29497962 C4.27598678,2.09654057 4.5780602,2 5.06665986,2 L18.7870927,2 Z M11.9273746,13.1131599 C8.17667654,15.4075609 5.85690815,17.9374511 5.4958397,20.4576587 L18.4719333,20.4578934 C18.1093412,17.9285664 15.7770485,15.3806438 12.1032348,13.1305016 L11.9273746,13.1131599 Z M12.1174381,15.6735612 C13.9669404,15.6735612 15.5350807,16.8973958 16.8202458,19.3248458 C16.8410941,19.3642247 16.8519718,19.407886 16.8519718,19.4521892 C16.8519718,19.6056807 16.7241795,19.7301101 16.5665377,19.7301101 L7.48555057,19.7299669 C7.43628764,19.7299669 7.38786112,19.7175546 7.34498156,19.6939367 C7.20773967,19.6183446 7.15941886,19.4487363 7.237054,19.315106 C8.64421419,16.8935266 10.2710669,15.6735612 12.1174381,15.6735612 Z M18.5101556,3.54240966 L5.46997364,3.54211749 C5.70687272,6.15703224 8.08003382,8.81015702 11.8728996,11.1268246 L12.0485966,11.1440225 C15.926866,8.77158269 18.2752108,6.14736205 18.5101556,3.54240966 Z" id="Combined-Shape" fill="#8791AD"></path>
        </g>
    </g>
</svg>