<?xml version="1.0" encoding="UTF-8"?>
<svg width="48px" height="48px" viewBox="0 0 48 48" version="1.1" xmlns="http://www.w3.org/2000/svg" xmlns:xlink="http://www.w3.org/1999/xlink">
    <!-- Generator: Sketch 60 (88103) - https://sketch.com -->
    <title>icon/reward received</title>
    <desc>Created with Sketch.</desc>
    <g id="icon/reward-received" stroke="none" stroke-width="1" fill="none" fill-rule="evenodd">
        <g id="icon/bg-for-icon" fill="#F0F3F5">
            <circle id="Oval-Copy-4" cx="24" cy="24" r="24"></circle>
        </g>
        <g id="icon/key-reward-reveived" transform="translate(12.000000, 12.000000)" fill="#8791AD" fill-rule="nonzero">
            <path d="M5.52597188,14.5132524 L5.68516419,14.7167715 C5.90062069,14.9922215 6.13277984,15.2534332 6.3801224,15.4987374 L6.41157269,15.6829534 L5.20021116,18.1797663 L7.16970233,18.1797663 C7.37579194,18.1797663 7.56925336,18.2794586 7.69181877,18.447949 L8.86974006,20.0664413 L10.0123357,17.711065 L10.194133,17.6245933 C10.520062,17.7009776 10.8513112,17.7565945 11.1865102,17.7909349 L11.4153073,17.8143746 L11.3150477,18.0210365 L9.56407389,21.6302638 C9.45500099,21.854908 9.23093161,22 8.9810147,22 C8.77514572,22 8.5817444,21.9004041 8.45885515,21.731758 L6.86427665,19.5404506 L4.15084841,19.5108517 C3.92411423,19.5108517 3.71417196,19.3901636 3.59591201,19.1930554 C3.4788856,18.997724 3.46828203,18.7546412 3.56777981,18.5493706 L5.52597188,14.5132524 Z M18.4720887,14.5087482 L18.5849134,14.7413391 L20.4321059,18.549374 C20.5317623,18.7546271 20.5211482,18.9977536 20.403972,19.1930555 C20.2859053,19.390123 20.0759588,19.5108517 19.8491824,19.5108517 L17.1931942,19.5108517 L15.5410016,21.7317956 C15.4183701,21.9003186 15.2248392,22 15.0190162,22 C14.7690841,22 14.5447556,21.8547261 14.4359461,21.6302414 L12.5845399,17.8139959 L12.8131692,17.7904284 C13.1482488,17.7558878 13.4793722,17.7000835 13.8051694,17.6235251 L13.9870579,17.7099699 L15.1302834,20.0664377 L16.3080974,18.447905 C16.4307746,18.2794931 16.6241465,18.1798172 16.8303284,18.179615 L18.7996852,18.179615 L17.586867,15.679275 L17.6182526,15.4951409 C17.865509,15.2496195 18.0975648,14.9881928 18.3129007,14.7125319 L18.4720887,14.5087482 Z M12.0000154,2 C16.0223341,2 19.2924697,5.37040892 19.2924697,9.51085174 C19.2924697,11.0184507 18.857617,12.4723033 18.0674071,13.6352224 L18.0406825,13.7176421 C16.6856384,15.7592765 14.4438791,17.0060062 11.9973754,17.0060062 C10.1277822,17.0060062 8.36816948,16.2802598 7.02436523,14.9966518 C6.93036962,14.9061454 6.83862878,14.8130568 6.74923983,14.7174755 C6.45759572,14.4099721 6.1945695,14.0788732 5.96018222,13.7268394 L5.952294,13.7034919 C5.14013048,12.4647086 4.70756114,11.0144891 4.70756114,9.51085174 C4.70756114,5.37040892 7.97769676,2 12.0000154,2 Z M12.0000154,3.33108549 C8.69796212,3.33108549 6.00921879,6.10230009 6.00921879,9.51085174 C6.00921879,12.9194034 8.69796212,15.690618 12.0000154,15.690618 C15.3020687,15.690618 17.990812,12.9194034 17.990812,9.51085174 C17.990812,6.10230008 15.3020687,3.33108549 12.0000154,3.33108549 Z M15.4922361,6.96493319 C15.7649723,7.19317421 15.8007437,7.59893971 15.5721337,7.87123578 L11.9713549,12.1601036 C11.7268039,12.4513871 11.2839728,12.4686341 11.0174367,12.1972562 L8.58841376,9.72410771 C8.33925186,9.47041955 8.34325355,9.06310501 8.59735179,8.81434521 C8.85145002,8.56558542 9.25942297,8.56958065 9.50858488,8.82326881 L11.4401318,10.7899041 L14.5844685,7.04470191 C14.8130785,6.77240584 15.2194998,6.73669216 15.4922361,6.96493319 Z" id="Combined-Shape"></path>
        </g>
    </g>
</svg>