<?xml version="1.0" encoding="UTF-8"?>
<svg width="48px" height="48px" viewBox="0 0 48 48" version="1.1" xmlns="http://www.w3.org/2000/svg" xmlns:xlink="http://www.w3.org/1999/xlink">
    <!-- Generator: Sketch 60 (88103) - https://sketch.com -->
    <title>icon/reward not received</title>
    <desc>Created with Sketch.</desc>
    <g id="icon/reward-not-received" stroke="none" stroke-width="1" fill="none" fill-rule="evenodd">
        <g id="icon/bg-for-icon" fill="#F0F3F5">
            <circle id="Oval-Copy-4" cx="24" cy="24" r="24"></circle>
        </g>
        <path d="M17.5259719,26.3873786 L17.6851642,26.5888827 C17.9006207,26.8616054 18.1327798,27.1202309 18.3801224,27.3631064 L18.4115727,27.5454984 L17.2002112,30.0175904 L19.1697023,30.0175904 C19.3757919,30.0175904 19.5692534,30.1162956 19.6918188,30.2831178 L20.8697401,31.8855855 L22.0123357,29.5535297 L22.194133,29.4679141 C22.520062,29.5435422 22.8513112,29.5986085 23.1865102,29.6326088 L23.4153073,29.6558165 L23.3150477,29.8604322 L21.5640739,33.4339245 C21.455001,33.6563446 21.2309316,33.8 20.9810147,33.8 C20.7751457,33.8 20.5817444,33.7013902 20.4588552,33.5344139 L18.8642767,31.3648025 L16.1508484,31.3354968 C15.9241142,31.3354968 15.714172,31.2160036 15.595912,31.0208469 C15.4788856,30.8274495 15.468282,30.5867734 15.5677798,30.3835352 L17.5259719,26.3873786 Z M30.4720887,26.382919 L30.5849134,26.613207 L32.4321059,30.3835386 C32.5317623,30.5867595 32.5211482,30.8274788 32.403972,31.020847 C32.2859053,31.2159633 32.0759588,31.3354968 31.8491824,31.3354968 L29.1931942,31.3354968 L27.5410016,33.5344511 C27.4183701,33.7013055 27.2248392,33.8 27.0190162,33.8 C26.7690841,33.8 26.5447556,33.6561645 26.4359461,33.4339024 L24.5845399,29.6554415 L24.8131692,29.6321073 C25.1482488,29.5979087 25.4793722,29.5426569 25.8051694,29.4668566 L25.9870579,29.5524455 L27.1302834,31.8855819 L28.3080974,30.2830742 C28.4307746,30.1163298 28.6241465,30.0176408 28.8303284,30.0174406 L30.7996852,30.0174406 L29.586867,27.5418565 L29.6182526,27.3595455 C29.865509,27.1164549 30.0975648,26.8576166 30.3129007,26.584685 L30.4720887,26.382919 Z M24,13.8 C27.9703005,13.8 31.2,17.0025751 31.2,20.9346825 C31.2,24.8646211 27.9724874,28.0574257 24,28.0574257 C22.1684926,28.0574257 20.4437456,27.375358 19.1261428,26.1747089 L18.958,26.0148515 L18.839,25.8851485 L18.6805796,25.7201181 C17.6171784,24.5678 16.9625793,23.1074782 16.8265287,21.5373915 L16.8062651,21.2219694 L16.8,20.9227433 C16.8,16.9928047 20.0275126,13.8 24,13.8 Z M28.558,17.3732673 L20.4,25.4435644 L20.4441092,25.4795755 C21.3822016,26.1972512 22.5203448,26.619207 23.7217035,26.6758248 L24,26.6823735 C27.2084194,26.6823735 29.8220112,24.0968996 29.8104237,20.9346825 C29.8104237,19.6454514 29.3758055,18.4166278 28.5945374,17.4172649 L28.558,17.3732673 Z M24,15.1750522 C20.7890275,15.1750522 18.1775862,17.7512644 18.1775862,20.9227433 C18.1775862,22.2093797 18.6102813,23.4279007 19.3930242,24.427909 L19.429,24.4712871 L27.586,16.4019802 L27.5437216,16.3680013 C26.6017209,15.6555784 25.4718826,15.2376124 24.2768726,15.1815377 L24,15.1750522 Z" id="Combined-Shape" fill="#8791AD" fill-rule="nonzero"></path>
    </g>
</svg>