<svg width="280" height="332" viewBox="0 0 280 332" fill="none" xmlns="http://www.w3.org/2000/svg">
<path d="M73.4707 177.08V232.826" stroke="url(#paint0_linear_3401_158091)" stroke-width="4" stroke-miterlimit="10" stroke-linecap="round" stroke-linejoin="round"/>
<path fill-rule="evenodd" clip-rule="evenodd" d="M128.469 46.0639L112.347 26.4505C110.597 24.3116 108.202 24.0386 107.004 25.8589L67.4368 86.4286C63.2452 92.845 64.9034 104.222 71.1218 111.776C77.3401 119.33 85.7694 120.24 89.9611 113.824L129.528 53.254C130.68 51.4337 130.219 48.2028 128.469 46.0639ZM73.2406 108.499C67.3447 102.037 65.1798 92.7995 68.358 87.9303C71.5363 83.061 78.9062 84.3352 84.7561 90.7972C90.652 97.2592 92.8169 106.497 89.6386 111.366C86.4604 116.281 79.0905 115.007 73.2406 108.499Z" fill="url(#paint1_linear_3401_158091)"/>
<path d="M66.1465 169.344V178.491C66.1465 179.446 66.6532 180.311 67.4823 180.811L76.5104 187C78.8135 187.273 80.4717 185.863 80.4717 183.86V176.306L66.1465 169.344Z" fill="url(#paint2_linear_3401_158091)"/>
<path d="M64.1665 169.934V179.08C64.1665 180.036 64.6732 180.901 65.5023 181.401L74.5304 186.68C76.2808 187.727 78.4917 186.453 78.4917 184.45V176.896L64.1665 169.934Z" fill="url(#paint3_linear_3401_158091)"/>
<path fill-rule="evenodd" clip-rule="evenodd" d="M76.0504 88.5211C71.9048 86.2003 68.5423 88.0661 68.5423 92.6167C68.5423 97.1674 71.9048 102.765 76.0504 105.04C80.196 107.361 83.5585 105.495 83.5585 100.945C83.5585 96.3938 80.196 90.7965 76.0504 88.5211ZM87.5659 187.226L64.9956 170.479C62.0937 168.841 59.7445 164.973 59.7445 161.787L57.0269 73.3673C60.0669 72.6392 65.9168 72.0476 68.2659 73.3673L89.5465 85.1991C92.4484 86.8374 94.7976 90.7055 94.7976 93.8909V180.764C94.8436 183.949 92.2181 186.406 87.5659 187.226Z" fill="url(#paint4_linear_3401_158091)"/>
<path fill-rule="evenodd" clip-rule="evenodd" d="M72.9641 89.7067C68.8186 87.3858 65.456 89.2516 65.456 93.8023C65.456 98.353 68.8186 103.95 72.9641 106.226C77.1097 108.547 80.4722 106.681 80.4722 102.13C80.4722 97.5794 77.1097 91.982 72.9641 89.7067ZM84.8481 186.545L60.2971 172.893C57.3952 171.255 55 167.387 55 164.201V76.7827C55 73.5972 57.3492 72.323 60.2511 73.9613L84.802 87.6134C87.7039 89.2516 90.0531 93.1197 90.0531 96.3052V183.724C90.0991 186.864 87.75 188.138 84.8481 186.545Z" fill="url(#paint5_linear_3401_158091)"/>
<path fill-rule="evenodd" clip-rule="evenodd" d="M78.6754 173.529L65.5017 166.202C63.5671 165.11 62.001 162.516 62.001 160.423V124.882C62.001 122.743 63.5671 121.924 65.5017 122.971L78.6754 130.297C80.61 131.39 82.1761 133.983 82.1761 136.077V171.618C82.2221 173.756 80.61 174.576 78.6754 173.529Z" fill="#2C30D1"/>
<path fill-rule="evenodd" clip-rule="evenodd" d="M121.974 44.017L105.76 24.4945C103.964 22.3557 101.615 22.1282 100.417 23.9484L61.1726 84.7456C57.027 91.2076 58.7313 102.539 64.9957 110.047C71.2601 117.556 79.6895 118.421 83.835 112.004L123.08 51.2071C124.231 49.3868 123.725 46.1558 121.974 44.017ZM68.7267 104.132C64.5351 99.5809 62.969 93.0734 65.18 89.6149C67.3909 86.1564 72.5959 87.021 76.7876 91.5717C80.9792 96.1224 82.5453 102.63 80.3343 106.088C78.1233 109.592 72.9184 108.682 68.7267 104.132Z" fill="url(#paint6_linear_3401_158091)"/>
<path fill-rule="evenodd" clip-rule="evenodd" d="M102.259 22.7649C102.259 22.7649 108.339 22.3553 111.61 25.3588C113.222 26.815 129.021 46.5195 129.021 46.5195C129.021 46.5195 130.91 49.3409 129.942 52.2989C129.942 52.2989 127.685 50.5241 123.125 50.7971C123.125 50.7971 124.553 47.0656 121.421 43.425C118.749 40.2395 106.773 25.8139 106.773 25.8139C106.773 25.8139 104.793 23.22 102.259 22.7649Z" fill="url(#paint7_linear_3401_158091)"/>
<path fill-rule="evenodd" clip-rule="evenodd" d="M81.5316 115.827C80.7486 116.236 77.2939 116.236 77.2939 116.236C77.2939 116.236 78.9982 116.145 80.8407 114.962C82.545 113.87 83.3741 112.641 84.7099 110.548L123.125 50.7517C123.356 50.3877 123.77 50.1602 124.231 50.1602C124.922 50.1602 126.027 50.2057 127.317 50.6152C128.423 50.9338 130.127 51.7074 129.943 52.2535C129.666 52.9816 129.021 53.9827 129.021 53.9827L94.8435 106.316V103.949L128.284 53.3911C128.423 53.1636 128.33 52.8906 128.054 52.8451L125.429 52.208C124.507 51.9804 123.54 52.3445 123.033 53.1636L84.7099 113.187C83.6044 114.825 82.7292 115.235 81.5316 115.827Z" fill="url(#paint8_linear_3401_158091)"/>
<path d="M100.279 48.5215L105.3 56.3032L104.977 56.8037L100.325 49.5226L98.2524 52.7991L97.93 52.2986L100.279 48.5215ZM96.4099 54.5739C96.8706 53.8458 97.4233 53.5272 98.0221 53.6183C98.6209 53.7093 99.2197 54.2554 99.8185 55.211C100.417 56.1211 100.786 57.0768 100.878 58.0324C100.97 58.9881 100.832 59.8072 100.417 60.4898C100.049 61.0814 99.5882 61.3089 99.0815 61.2179C98.5288 61.0814 98.0221 60.6263 97.5154 59.8072L97.2391 59.3521L99.5882 55.6661C99.0815 54.8924 98.5749 54.4374 98.1142 54.3464C97.6536 54.2098 97.2391 54.5284 96.8245 55.12C96.6403 55.393 96.5021 55.7116 96.4099 55.9846C96.3178 56.2577 96.1796 56.6217 96.0875 57.1223L95.7651 56.6217C95.8572 56.2121 95.9493 55.8481 96.0875 55.5295C96.0415 55.12 96.2257 54.8014 96.4099 54.5739ZM100.049 59.9437C100.371 59.4431 100.463 58.8515 100.463 58.2144C100.417 57.5318 100.187 56.8492 99.7725 56.0756L97.7918 59.2156C98.2064 59.8982 98.6209 60.3078 99.0355 60.3988C99.404 60.5808 99.7725 60.3988 100.049 59.9437ZM97.5615 64.8585C97.3312 65.2225 97.0548 65.45 96.8245 65.5866C96.5481 65.6776 96.2257 65.6776 95.8572 65.5411V65.5866C96.1796 66.0416 96.456 66.4512 96.7324 66.9063L98.0682 68.9996L97.7918 69.4547L92.4486 61.1269L92.6329 60.8083L93.2777 61.582C93.0935 60.5353 93.2317 59.6252 93.6923 58.8971C94.1529 58.1689 94.6135 57.8959 95.2123 58.0324C95.7651 58.1234 96.3178 58.715 96.9627 59.6707C97.6076 60.6718 97.9761 61.6275 98.1142 62.5376C98.1603 63.4022 97.976 64.1759 97.5615 64.8585ZM97.2391 64.4034C97.5615 63.8573 97.6997 63.2202 97.6076 62.4466C97.5154 61.7185 97.193 60.9449 96.6403 60.0802C95.5808 58.442 94.7057 58.1689 94.0147 59.3066C93.6462 59.8982 93.5081 60.4898 93.6002 61.1269C93.6923 61.764 93.9687 62.5376 94.5675 63.4477L94.6135 63.5388C95.1663 64.4489 95.673 64.9495 96.0875 65.0405C96.5021 65.268 96.8706 64.995 97.2391 64.4034ZM93.0014 71.8665L92.7711 71.5025L93.3699 70.3648C92.9092 70.2283 92.5407 69.9552 92.2644 69.5002C91.8959 68.9086 91.7116 68.317 91.7116 67.6344C91.7116 66.9518 91.8498 66.3602 92.2183 65.8141C92.3565 65.5866 92.4947 65.4045 92.5408 65.359C92.5868 65.0405 92.5868 64.7674 92.5868 64.5399C92.5408 64.2669 92.4947 64.0848 92.3565 63.9028C92.2183 63.7208 92.1262 63.6298 91.988 63.6753C91.8498 63.7208 91.7116 63.8573 91.5274 64.1759L90.9746 65.0405C90.6522 65.5866 90.2837 65.9051 89.9152 65.9506C89.5928 65.9961 89.2243 65.7686 88.9019 65.268C88.4873 64.6309 88.3491 63.9483 88.3952 63.2202C88.4412 62.4466 88.7637 61.673 89.2704 60.8539C89.6849 60.2168 90.0995 59.8527 90.514 59.7617C90.9286 59.6707 91.2971 59.8982 91.5734 60.3988C91.8498 60.8083 91.988 61.2634 91.988 61.7185C91.988 62.1736 91.9419 62.6741 91.7577 63.1292C91.8959 63.0837 92.0801 63.0382 92.1723 63.0837C92.3104 63.1292 92.4486 63.2202 92.5408 63.4022C92.7711 63.7663 92.8632 64.3579 92.8171 65.086C93.0935 64.9495 93.3699 64.904 93.6923 65.0405C93.9687 65.177 94.245 65.45 94.5214 65.8141C94.8899 66.4057 95.0742 67.0428 95.1202 67.6799C95.1202 68.3625 94.982 68.9541 94.6135 69.5002C94.3832 69.8187 94.199 70.0917 94.0608 70.1828L93.0014 71.8665ZM91.2971 60.9449C90.7904 60.1712 90.1916 60.2623 89.5467 61.3089C88.7176 62.6286 88.5794 63.8118 89.2243 64.7674C89.4546 65.1315 89.6849 65.268 89.9152 65.2225C90.1455 65.177 90.4219 64.904 90.6983 64.4489L91.205 63.6298C91.8038 62.6741 91.8038 61.764 91.2971 60.9449ZM94.245 66.3147C93.9687 65.8596 93.6462 65.6321 93.3238 65.6321C93.0014 65.6321 92.725 65.8141 92.4947 66.2237C92.2183 66.6332 92.0801 67.1338 92.1262 67.5889C92.1262 68.0894 92.3104 68.499 92.5868 68.9996C92.9092 69.5002 93.2317 69.7277 93.5081 69.7277C93.8305 69.7277 94.1069 69.5457 94.3832 69.1361C94.6596 68.7265 94.7517 68.2715 94.7057 67.7709C94.7057 67.2703 94.5214 66.7697 94.245 66.3147Z" fill="url(#paint9_linear_3401_158091)"/>
<path d="M87.7964 68.27C88.257 67.5419 88.8098 67.2234 89.4086 67.3144C90.0074 67.4054 90.6062 67.9515 91.205 68.9071C91.8038 69.8173 92.1723 70.7729 92.2644 71.7286C92.3565 72.6842 92.2183 73.5033 91.8038 74.1859C91.4353 74.7775 90.9747 75.0051 90.468 74.914C89.9153 74.7775 89.4086 74.3224 88.9019 73.5033L88.6255 73.0483L90.9286 69.3622C90.4219 68.5886 89.9153 68.1335 89.4546 68.0425C88.994 67.906 88.5795 68.2245 88.1649 68.8161C87.9807 69.0892 87.8425 69.4077 87.7504 69.6807C87.6582 69.9538 87.52 70.3178 87.4279 70.8184L87.1055 70.3178C87.1976 69.9083 87.2897 69.5442 87.4279 69.2257C87.4279 68.8616 87.5661 68.5886 87.7964 68.27ZM91.3892 73.7309C91.7117 73.2303 91.8038 72.6387 91.8038 72.0016C91.7577 71.319 91.5274 70.6364 91.1129 69.8628L89.1322 73.0028C89.5468 73.6854 89.9613 74.0949 90.3759 74.1859C90.7904 74.3224 91.1129 74.1859 91.3892 73.7309ZM88.8098 78.7821C88.6716 79.0097 88.4873 79.1917 88.3031 79.3737L88.0267 78.7821C88.211 78.6001 88.3492 78.4181 88.4873 78.1905C88.7637 77.781 88.8558 77.1894 88.7637 76.5068C88.6716 75.7787 88.4413 75.1416 88.0267 74.459L86 71.2735L86.3224 70.7729L90.0534 76.5523L89.7771 76.9618L89.0861 75.9607V76.0062C89.2243 76.6433 89.2704 77.1894 89.2243 77.5534C89.1783 78.054 89.0401 78.4181 88.8098 78.7821ZM108.34 52.0241L110.505 48.6111L107.142 43.3778L104.24 47.974L106.728 51.842C107.188 52.5702 107.925 52.6612 108.34 52.0241ZM111.15 47.5189L111.518 46.9273C111.933 46.2902 111.887 45.1525 111.38 44.3789L110.966 43.7418L109.86 45.5166L111.15 47.5189ZM110.182 42.5586L109.077 44.3334L107.787 42.3311L108.893 40.5563L110.182 42.5586ZM103.319 42.9682L102.951 43.5598C102.536 44.1969 102.582 45.3346 103.089 46.1082L103.504 46.7453L104.609 44.9705L103.319 42.9682ZM106.359 42.1491L105.254 43.9238L103.964 41.9215L105.07 40.1468L106.359 42.1491ZM108.11 39.3276L107.695 38.6906C107.235 37.9624 106.498 37.8714 106.083 38.554L105.714 39.1456L107.004 41.1479L108.11 39.3276Z" fill="url(#paint10_linear_3401_158091)"/>
<path d="M173.378 245.293V328.389" stroke="url(#paint11_linear_3401_158091)" stroke-width="6" stroke-miterlimit="10" stroke-linecap="round" stroke-linejoin="round"/>
<path d="M166.285 246.43V255.941C166.285 256.942 166.791 257.852 167.667 258.352L177.063 264.769C179.458 265.042 181.163 263.586 181.163 261.492V253.665L166.285 246.43Z" fill="url(#paint12_linear_3401_158091)"/>
<path d="M164.258 247.066V256.577C164.258 257.579 164.765 258.489 165.64 258.989L175.037 264.496C176.879 265.542 179.182 264.268 179.182 262.175V254.348L164.258 247.066Z" fill="url(#paint13_linear_3401_158091)"/>
<path d="M224.876 157.236C224.876 151.138 219.717 143.357 213.268 139.761L142.195 100.535C136.806 97.3491 126.073 99.943 126.073 99.943L128.929 179.034C128.883 181.218 129.482 183.721 130.633 186.179L150.486 229.274C150.486 229.274 156.889 242.152 163.89 246.066L187.474 263.859C187.704 263.859 187.98 263.904 188.211 263.904C194.245 264.086 200.187 261.401 204.655 256.805L223.126 238.056C224.185 236.782 224.784 234.962 224.876 232.823V157.236Z" fill="url(#paint14_linear_3401_158091)"/>
<path d="M218.565 159.694C218.565 153.596 213.406 145.814 206.957 142.219L134.226 101.354C127.777 97.7587 122.618 99.7155 122.618 105.813V181.446C122.572 183.63 123.171 186.133 124.322 188.59L144.175 231.685C144.175 231.685 150.578 244.564 157.579 248.477L183.236 262.903C190.191 266.817 196.363 261.583 196.363 261.583L216.815 240.468C217.874 239.194 218.473 237.374 218.565 235.235V159.694Z" fill="url(#paint15_linear_3401_158091)"/>
<path d="M135.699 131.798L205.437 170.979C207.51 172.163 209.214 174.938 209.214 177.214V226.816C209.214 229.092 207.51 229.956 205.437 228.773L135.699 189.592C133.627 188.408 131.922 185.633 131.922 183.357V133.755C131.922 131.525 133.581 130.615 135.699 131.798Z" fill="#2C30D1"/>
<path fill-rule="evenodd" clip-rule="evenodd" d="M179.459 176.894L175.221 174.528L165.963 169.34C165.41 167.656 164.95 165.426 165.318 164.016C165.594 163.015 166.239 162.468 167.391 162.377C168.635 162.286 169.786 162.741 170.846 163.743C172.181 165.017 173.287 167.019 174.024 168.566C174.254 169.112 174.807 169.431 175.36 169.385L177.294 169.249C177.709 169.203 177.985 168.748 177.801 168.339C176.788 166.018 174.945 162.423 172.181 159.829C169.97 157.781 167.621 156.78 165.364 156.917C163.199 157.053 161.725 158.282 161.219 160.466C160.758 162.377 161.034 164.653 161.495 166.701L159.468 165.563C159.008 165.335 158.501 165.699 158.501 166.246V184.903C158.501 185.449 158.685 185.996 159.054 186.36L169.832 198.328C170.385 198.919 171.076 199.238 171.859 199.284L179.828 199.375C181.44 199.375 182.776 197.964 182.776 196.235V180.535C182.776 179.443 182.223 178.487 181.348 177.986L179.459 176.894ZM178.492 193.959L170.569 193.868L162.647 185.085V172.343L178.446 181.217V193.959H178.492Z" fill="#E1F2FF"/>
<path fill-rule="evenodd" clip-rule="evenodd" d="M166.469 135.211L167.851 136.031C168.219 136.258 168.588 136.622 168.588 137.032C168.588 137.441 168.219 137.396 167.851 137.214L166.469 136.395V135.211ZM164.212 131.98V139.307L166.469 140.627V138.306L167.298 138.761L168.311 141.673L170.891 143.175L169.555 139.808C170.154 139.853 170.891 139.626 170.891 138.351C170.891 136.986 169.97 135.302 168.219 134.301L164.212 131.98Z" fill="url(#paint16_linear_3401_158091)"/>
<path fill-rule="evenodd" clip-rule="evenodd" d="M172.042 136.531V143.858L177.708 147.134V145.223L174.3 143.221V142.447L177.616 144.358V142.447L174.3 140.49V139.762L177.708 141.765V139.808L172.042 136.531Z" fill="url(#paint17_linear_3401_158091)"/>
<path fill-rule="evenodd" clip-rule="evenodd" d="M178.86 140.49V142.447L181.716 144.085L178.86 146.088V147.862L184.756 151.275V149.319L181.854 147.635L184.664 145.633V143.903L178.86 140.49Z" fill="url(#paint18_linear_3401_158091)"/>
<path fill-rule="evenodd" clip-rule="evenodd" d="M187.612 149.273C187.612 148.272 188.303 147.862 189.408 148.499C190.514 149.137 191.205 150.365 191.205 151.366C191.205 152.367 190.514 152.777 189.408 152.14C188.303 151.503 187.612 150.274 187.612 149.273ZM185.309 147.953C185.309 150.183 187.105 152.777 189.408 154.097C191.711 155.416 193.508 154.916 193.508 152.686C193.508 150.411 191.711 147.862 189.408 146.497C187.105 145.177 185.309 145.678 185.309 147.953Z" fill="url(#paint19_linear_3401_158091)"/>
<path fill-rule="evenodd" clip-rule="evenodd" d="M196.686 152.821L198.068 153.641C198.437 153.868 198.805 154.232 198.805 154.642C198.805 155.051 198.437 155.006 198.068 154.824L196.686 154.005V152.821ZM194.429 149.545V156.872L196.686 158.191V155.87L197.515 156.325L198.529 159.238L201.108 160.74L199.772 157.372C200.371 157.418 201.108 157.19 201.108 155.916C201.108 154.551 200.187 152.867 198.437 151.866L194.429 149.545Z" fill="url(#paint20_linear_3401_158091)"/>
<path fill-rule="evenodd" clip-rule="evenodd" d="M156.98 127.793V129.704L159.007 130.887V136.303L161.264 137.577V132.207L163.245 133.345V131.434L156.98 127.793Z" fill="url(#paint21_linear_3401_158091)"/>
<path fill-rule="evenodd" clip-rule="evenodd" d="M147.86 130.979C147.86 130.979 144.728 128.066 144.682 127.975C144.636 127.884 144.59 127.884 144.59 127.839V122.924C144.59 122.651 146.156 123.424 147.998 124.517C149.887 125.609 151.453 126.655 151.453 126.929V131.843C151.453 131.934 151.453 131.934 151.361 131.889C151.315 131.889 148.183 131.161 148.183 131.161C148.183 131.161 148.044 131.115 147.998 131.115L147.86 130.979ZM145.879 120.011C145.879 118.692 146.709 118.373 148.044 119.147C149.38 119.92 150.209 121.195 150.209 122.514V123.834C148.689 122.878 147.446 122.105 145.926 121.331V120.011H145.879ZM143.899 118.874V120.376C143.116 120.057 142.287 119.784 142.287 120.011V127.93C142.287 127.93 142.287 128.157 142.517 128.385C143.438 129.249 146.985 132.571 147.814 133.345C147.906 133.436 147.952 133.481 147.998 133.481C148.044 133.527 148.044 133.527 148.183 133.527C149.012 133.709 152.558 134.574 153.48 134.71C153.71 134.756 153.71 134.528 153.71 134.528V126.655C153.71 126.428 152.927 125.745 152.144 125.154V123.652C152.144 121.422 150.301 118.555 148.044 117.236C145.741 115.916 143.899 116.644 143.899 118.874Z" fill="url(#paint22_linear_3401_158091)"/>
<defs>
<linearGradient id="paint0_linear_3401_158091" x1="nan" y1="nan" x2="nan" y2="nan" gradientUnits="userSpaceOnUse">
<stop stop-color="#17D1AA"/>
<stop offset="0.066" stop-color="#1AC2AE"/>
<stop offset="0.265" stop-color="#229BB8"/>
<stop offset="0.462" stop-color="#297CC0"/>
<stop offset="0.652" stop-color="#2D66C6"/>
<stop offset="0.835" stop-color="#3059CA"/>
<stop offset="1" stop-color="#3154CB"/>
</linearGradient>
<linearGradient id="paint1_linear_3401_158091" x1="93.8086" y1="25.3233" x2="100.208" y2="107.948" gradientUnits="userSpaceOnUse">
<stop stop-color="#17D1AA"/>
<stop offset="0.227" stop-color="#1CB9B0"/>
<stop offset="0.704" stop-color="#297DC0"/>
<stop offset="1" stop-color="#3154CB"/>
</linearGradient>
<linearGradient id="paint2_linear_3401_158091" x1="77.9835" y1="172.095" x2="69.1364" y2="182.027" gradientUnits="userSpaceOnUse">
<stop stop-color="#17D1AA"/>
<stop offset="0.066" stop-color="#1AC2AE"/>
<stop offset="0.265" stop-color="#229BB8"/>
<stop offset="0.462" stop-color="#297CC0"/>
<stop offset="0.652" stop-color="#2D66C6"/>
<stop offset="0.835" stop-color="#3059CA"/>
<stop offset="1" stop-color="#3154CB"/>
</linearGradient>
<linearGradient id="paint3_linear_3401_158091" x1="72.7727" y1="173.56" x2="68.0078" y2="186.865" gradientUnits="userSpaceOnUse">
<stop stop-color="#3154CB"/>
<stop offset="0.165" stop-color="#3059CA"/>
<stop offset="0.347" stop-color="#2D66C6"/>
<stop offset="0.538" stop-color="#297CC0"/>
<stop offset="0.735" stop-color="#229BB8"/>
<stop offset="0.934" stop-color="#1AC2AE"/>
<stop offset="1" stop-color="#17D1AA"/>
</linearGradient>
<linearGradient id="paint4_linear_3401_158091" x1="49.1655" y1="170.308" x2="99.7037" y2="91.6251" gradientUnits="userSpaceOnUse">
<stop stop-color="#3154CB"/>
<stop offset="0.296" stop-color="#297DC0"/>
<stop offset="0.773" stop-color="#1CB9B0"/>
<stop offset="1" stop-color="#17D1AA"/>
</linearGradient>
<linearGradient id="paint5_linear_3401_158091" x1="46.4643" y1="171.618" x2="95.9075" y2="94.6403" gradientUnits="userSpaceOnUse">
<stop stop-color="#17D1AA"/>
<stop offset="0.227" stop-color="#1CB9B0"/>
<stop offset="0.704" stop-color="#297DC0"/>
<stop offset="1" stop-color="#3154CB"/>
</linearGradient>
<linearGradient id="paint6_linear_3401_158091" x1="50.7179" y1="63.0768" x2="123.045" y2="45.492" gradientUnits="userSpaceOnUse">
<stop stop-color="#17D1AA"/>
<stop offset="0.227" stop-color="#1CB9B0"/>
<stop offset="0.704" stop-color="#297DC0"/>
<stop offset="1" stop-color="#3154CB"/>
</linearGradient>
<linearGradient id="paint7_linear_3401_158091" x1="112.9" y1="40.6705" x2="119.938" y2="33.5462" gradientUnits="userSpaceOnUse">
<stop stop-color="#3154CB"/>
<stop offset="0.296" stop-color="#297DC0"/>
<stop offset="0.773" stop-color="#1CB9B0"/>
<stop offset="1" stop-color="#17D1AA"/>
</linearGradient>
<linearGradient id="paint8_linear_3401_158091" x1="103.716" y1="56.8715" x2="103.515" y2="111.52" gradientUnits="userSpaceOnUse">
<stop stop-color="#3154CB"/>
<stop offset="0.296" stop-color="#297DC0"/>
<stop offset="0.773" stop-color="#1CB9B0"/>
<stop offset="1" stop-color="#17D1AA"/>
</linearGradient>
<linearGradient id="paint9_linear_3401_158091" x1="88.635" y1="57.6286" x2="105.181" y2="58.4531" gradientUnits="userSpaceOnUse">
<stop stop-color="#17D1AA"/>
<stop offset="0.066" stop-color="#1AC2AE"/>
<stop offset="0.265" stop-color="#229BB8"/>
<stop offset="0.462" stop-color="#297CC0"/>
<stop offset="0.652" stop-color="#2D66C6"/>
<stop offset="0.835" stop-color="#3059CA"/>
<stop offset="1" stop-color="#3154CB"/>
</linearGradient>
<linearGradient id="paint10_linear_3401_158091" x1="86.8064" y1="55.2247" x2="111.23" y2="56.4418" gradientUnits="userSpaceOnUse">
<stop stop-color="#17D1AA"/>
<stop offset="0.066" stop-color="#1AC2AE"/>
<stop offset="0.265" stop-color="#229BB8"/>
<stop offset="0.462" stop-color="#297CC0"/>
<stop offset="0.652" stop-color="#2D66C6"/>
<stop offset="0.835" stop-color="#3059CA"/>
<stop offset="1" stop-color="#3154CB"/>
</linearGradient>
<linearGradient id="paint11_linear_3401_158091" x1="nan" y1="nan" x2="nan" y2="nan" gradientUnits="userSpaceOnUse">
<stop stop-color="#17D1AA"/>
<stop offset="0.066" stop-color="#1AC2AE"/>
<stop offset="0.265" stop-color="#229BB8"/>
<stop offset="0.462" stop-color="#297CC0"/>
<stop offset="0.652" stop-color="#2D66C6"/>
<stop offset="0.835" stop-color="#3059CA"/>
<stop offset="1" stop-color="#3154CB"/>
</linearGradient>
<linearGradient id="paint12_linear_3401_158091" x1="178.603" y1="249.303" x2="169.4" y2="259.634" gradientUnits="userSpaceOnUse">
<stop stop-color="#17D1AA"/>
<stop offset="0.066" stop-color="#1AC2AE"/>
<stop offset="0.265" stop-color="#229BB8"/>
<stop offset="0.462" stop-color="#297CC0"/>
<stop offset="0.652" stop-color="#2D66C6"/>
<stop offset="0.835" stop-color="#3059CA"/>
<stop offset="1" stop-color="#3154CB"/>
</linearGradient>
<linearGradient id="paint13_linear_3401_158091" x1="173.183" y1="250.828" x2="168.226" y2="264.668" gradientUnits="userSpaceOnUse">
<stop stop-color="#3154CB"/>
<stop offset="0.165" stop-color="#3059CA"/>
<stop offset="0.347" stop-color="#2D66C6"/>
<stop offset="0.538" stop-color="#297CC0"/>
<stop offset="0.735" stop-color="#229BB8"/>
<stop offset="0.934" stop-color="#1AC2AE"/>
<stop offset="1" stop-color="#17D1AA"/>
</linearGradient>
<linearGradient id="paint14_linear_3401_158091" x1="127.696" y1="214.702" x2="216.787" y2="138.581" gradientUnits="userSpaceOnUse">
<stop stop-color="#3154CB"/>
<stop offset="0.165" stop-color="#3059CA"/>
<stop offset="0.347" stop-color="#2D66C6"/>
<stop offset="0.538" stop-color="#297CC0"/>
<stop offset="0.735" stop-color="#229BB8"/>
<stop offset="0.934" stop-color="#1AC2AE"/>
<stop offset="1" stop-color="#17D1AA"/>
</linearGradient>
<linearGradient id="paint15_linear_3401_158091" x1="122.166" y1="218.122" x2="211.257" y2="142" gradientUnits="userSpaceOnUse">
<stop stop-color="#17D1AA"/>
<stop offset="0.066" stop-color="#1AC2AE"/>
<stop offset="0.265" stop-color="#229BB8"/>
<stop offset="0.462" stop-color="#297CC0"/>
<stop offset="0.652" stop-color="#2D66C6"/>
<stop offset="0.835" stop-color="#3059CA"/>
<stop offset="1" stop-color="#3154CB"/>
</linearGradient>
<linearGradient id="paint16_linear_3401_158091" x1="129.039" y1="130.916" x2="212.002" y2="145.623" gradientUnits="userSpaceOnUse">
<stop stop-color="#17D1AA"/>
<stop offset="0.227" stop-color="#1CB9B0"/>
<stop offset="0.704" stop-color="#297DC0"/>
<stop offset="1" stop-color="#3154CB"/>
</linearGradient>
<linearGradient id="paint17_linear_3401_158091" x1="128.523" y1="133.823" x2="211.487" y2="148.531" gradientUnits="userSpaceOnUse">
<stop stop-color="#17D1AA"/>
<stop offset="0.227" stop-color="#1CB9B0"/>
<stop offset="0.704" stop-color="#297DC0"/>
<stop offset="1" stop-color="#3154CB"/>
</linearGradient>
<linearGradient id="paint18_linear_3401_158091" x1="128.034" y1="136.586" x2="210.997" y2="151.293" gradientUnits="userSpaceOnUse">
<stop stop-color="#17D1AA"/>
<stop offset="0.227" stop-color="#1CB9B0"/>
<stop offset="0.704" stop-color="#297DC0"/>
<stop offset="1" stop-color="#3154CB"/>
</linearGradient>
<linearGradient id="paint19_linear_3401_158091" x1="127.501" y1="139.589" x2="210.466" y2="154.296" gradientUnits="userSpaceOnUse">
<stop stop-color="#17D1AA"/>
<stop offset="0.227" stop-color="#1CB9B0"/>
<stop offset="0.704" stop-color="#297DC0"/>
<stop offset="1" stop-color="#3154CB"/>
</linearGradient>
<linearGradient id="paint20_linear_3401_158091" x1="126.915" y1="142.897" x2="209.879" y2="157.604" gradientUnits="userSpaceOnUse">
<stop stop-color="#17D1AA"/>
<stop offset="0.227" stop-color="#1CB9B0"/>
<stop offset="0.704" stop-color="#297DC0"/>
<stop offset="1" stop-color="#3154CB"/>
</linearGradient>
<linearGradient id="paint21_linear_3401_158091" x1="129.629" y1="127.586" x2="212.593" y2="142.293" gradientUnits="userSpaceOnUse">
<stop stop-color="#17D1AA"/>
<stop offset="0.227" stop-color="#1CB9B0"/>
<stop offset="0.704" stop-color="#297DC0"/>
<stop offset="1" stop-color="#3154CB"/>
</linearGradient>
<linearGradient id="paint22_linear_3401_158091" x1="130.564" y1="122.314" x2="213.527" y2="137.021" gradientUnits="userSpaceOnUse">
<stop stop-color="#17D1AA"/>
<stop offset="0.227" stop-color="#1CB9B0"/>
<stop offset="0.704" stop-color="#297DC0"/>
<stop offset="1" stop-color="#3154CB"/>
</linearGradient>
</defs>
</svg>
