<svg xmlns="http://www.w3.org/2000/svg" viewBox="0 0 520 832.7"><style></style><switch><g><g id="Layer_1"><linearGradient id="SVGID_1_" gradientUnits="userSpaceOnUse" x1="108.625" y1="479.005" x2="167.539" y2="391.094"><stop offset="0" stopColor="#17d1aa"/><stop offset=".066" stopColor="#1ac2ae"/><stop offset=".265" stopColor="#229bb8"/><stop offset=".462" stopColor="#297cc0"/><stop offset=".652" stopColor="#2d66c6"/><stop offset=".835" stopColor="#3059ca"/><stop offset="1" stopColor="#3154cb"/></linearGradient><path fill="none" stroke="url(#SVGID_1_)" stroke-width="4" stroke-linecap="round" stroke-linejoin="round" stroke-miterlimit="10" d="M138.1 373.8v122.5"/><linearGradient id="SVGID_2_" gradientUnits="userSpaceOnUse" x1="182.253" y1="40.323" x2="196.485" y2="221.862"><stop offset="0" stopColor="#17d1aa"/><stop offset=".227" stopColor="#1cb9b0"/><stop offset=".704" stopColor="#297dc0"/><stop offset="1" stopColor="#3154cb"/></linearGradient><path d="M257.5 85.9l-35-43.1c-3.8-4.7-9-5.3-11.6-1.3L125 174.6c-9.1 14.1-5.5 39.1 8 55.7s31.8 18.6 40.9 4.5l85.9-133.1c2.5-4 1.5-11.1-2.3-15.8zM137.6 223.1c-12.8-14.2-17.5-34.5-10.6-45.2 6.9-10.7 22.9-7.9 35.6 6.3 12.8 14.2 17.5 34.5 10.6 45.2-6.9 10.8-22.9 8-35.6-6.3z" fillRule="evenodd" clipRule="evenodd" fill="url(#SVGID_2_)"/><linearGradient id="SVGID_3_" gradientUnits="userSpaceOnUse" x1="147.898" y1="362.845" x2="128.431" y2="384.437"><stop offset="0" stopColor="#17d1aa"/><stop offset=".066" stopColor="#1ac2ae"/><stop offset=".265" stopColor="#229bb8"/><stop offset=".462" stopColor="#297cc0"/><stop offset=".652" stopColor="#2d66c6"/><stop offset=".835" stopColor="#3059ca"/><stop offset="1" stopColor="#3154cb"/></linearGradient><path d="M122.2 356.8v20.1c0 2.1 1.1 4 2.9 5.1l19.6 13.6c5 .6 8.6-2.5 8.6-6.9v-16.6l-31.1-15.3z" fill="url(#SVGID_3_)"/><linearGradient id="SVGID_4_" gradientUnits="userSpaceOnUse" x1="136.584" y1="366.068" x2="126.015" y2="395.225"><stop offset="0" stopColor="#3154cb"/><stop offset=".165" stopColor="#3059ca"/><stop offset=".347" stopColor="#2d66c6"/><stop offset=".538" stopColor="#297cc0"/><stop offset=".735" stopColor="#229bb8"/><stop offset=".934" stopColor="#1ac2ae"/><stop offset="1" stopColor="#17d1aa"/></linearGradient><path d="M117.9 358.1v20.1c0 2.1 1.1 4 2.9 5.1l19.6 11.6c3.8 2.3 8.6-.5 8.6-4.9v-16.6l-31.1-15.3z" fill="url(#SVGID_4_)"/><linearGradient id="SVGID_5_" gradientUnits="userSpaceOnUse" x1="85.329" y1="712.922" x2="193.613" y2="534.348" gradientTransform="matrix(1 .04375 0 1 .004 -357.73)"><stop offset="0" stopColor="#3154cb"/><stop offset=".296" stopColor="#297dc0"/><stop offset=".773" stopColor="#1cb9b0"/><stop offset="1" stopColor="#17d1aa"/></linearGradient><path d="M143.7 179.2c-9-5.1-16.3-1-16.3 9s7.3 22.3 16.3 27.3c9 5.1 16.3 1 16.3-9s-7.3-22.3-16.3-27.3zm25 216.9l-49-36.8c-6.3-3.6-11.4-12.1-11.4-19.1l-5.9-194.3c6.6-1.6 19.3-2.9 24.4 0l46.2 26c6.3 3.6 11.4 12.1 11.4 19.1v190.9c.1 7-5.6 12.4-15.7 14.2z" fillRule="evenodd" clipRule="evenodd" fill="url(#SVGID_5_)"/><linearGradient id="SVGID_6_" gradientUnits="userSpaceOnUse" x1="79.465" y1="716.052" x2="185.403" y2="541.348" gradientTransform="matrix(1 .04375 0 1 .004 -357.73)"><stop offset="0" stopColor="#17d1aa"/><stop offset=".227" stopColor="#1cb9b0"/><stop offset=".704" stopColor="#297dc0"/><stop offset="1" stopColor="#3154cb"/></linearGradient><path d="M137 181.8c-9-5.1-16.3-1-16.3 9s7.3 22.3 16.3 27.3c9 5.1 16.3 1 16.3-9s-7.3-22.3-16.3-27.3zm25.8 212.8l-53.3-30C103.2 361 98 352.5 98 345.5V153.4c0-7 5.1-9.8 11.4-6.2l53.3 30c6.3 3.6 11.4 12.1 11.4 19.1v192.1c.1 6.9-5 9.7-11.3 6.2z" fillRule="evenodd" clipRule="evenodd" fill="url(#SVGID_6_)"/><path d="M149.4 366l-28.6-16.1c-4.2-2.4-7.6-8.1-7.6-12.7v-78.1c0-4.7 3.4-6.5 7.6-4.2l28.6 16.1c4.2 2.4 7.6 8.1 7.6 12.7v78.1c.1 4.7-3.4 6.5-7.6 4.2z" fillRule="evenodd" clipRule="evenodd" fill="#2c30d1"/><linearGradient id="SVGID_7_" gradientUnits="userSpaceOnUse" x1="1888.92" y1="8497.671" x2="2038.021" y2="8348.569" gradientTransform="matrix(.7588 .8373 -.4047 .6369 2094.398 -6870.476)"><stop offset="0" stopColor="#17d1aa"/><stop offset=".227" stopColor="#1cb9b0"/><stop offset=".704" stopColor="#297dc0"/><stop offset="1" stopColor="#3154cb"/></linearGradient><path d="M243.4 81.4l-35.2-42.9c-3.9-4.7-9-5.2-11.6-1.2l-85.2 133.6c-9 14.2-5.3 39.1 8.3 55.6 13.6 16.5 31.9 18.4 40.9 4.3l85.2-133.6c2.5-4 1.4-11.1-2.4-15.8zM127.8 213.5c-9.1-10-12.5-24.3-7.7-31.9 4.8-7.6 16.1-5.7 25.2 4.3 9.1 10 12.5 24.3 7.7 31.9-4.8 7.7-16.1 5.7-25.2-4.3z" fillRule="evenodd" clipRule="evenodd" fill="url(#SVGID_7_)"/><linearGradient id="SVGID_8_" gradientUnits="userSpaceOnUse" x1="223.7" y1="74.047" x2="239.168" y2="58.579"><stop offset="0" stopColor="#3154cb"/><stop offset=".296" stopColor="#297dc0"/><stop offset=".773" stopColor="#1cb9b0"/><stop offset="1" stopColor="#17d1aa"/></linearGradient><path d="M200.6 34.7s13.2-.9 20.3 5.7c3.5 3.2 37.8 46.5 37.8 46.5s4.1 6.2 2 12.7c0 0-4.9-3.9-14.8-3.3 0 0 3.1-8.2-3.7-16.2-5.8-7-31.8-38.7-31.8-38.7s-4.3-5.7-9.8-6.7z" fillRule="evenodd" clipRule="evenodd" fill="url(#SVGID_8_)"/><linearGradient id="SVGID_9_" gradientUnits="userSpaceOnUse" x1="203.762" y1="109.648" x2="203.315" y2="229.737"><stop offset="0" stopColor="#3154cb"/><stop offset=".296" stopColor="#297dc0"/><stop offset=".773" stopColor="#1cb9b0"/><stop offset="1" stopColor="#17d1aa"/></linearGradient><path d="M155.6 239.2c-1.7.9-9.2.9-9.2.9s3.7-.2 7.7-2.8c3.7-2.4 5.5-5.1 8.4-9.7l83.4-131.4c.5-.8 1.4-1.3 2.4-1.3 1.5 0 3.9.1 6.7 1 2.4.7 6.1 2.4 5.7 3.6-.6 1.6-2 3.8-2 3.8l-74.2 115v-5.2L257.1 102c.3-.5.1-1.1-.5-1.2l-5.7-1.4c-2-.5-4.1.3-5.2 2.1l-83.2 131.9c-2.4 3.6-4.3 4.5-6.9 5.8z" fillRule="evenodd" clipRule="evenodd" fill="url(#SVGID_9_)"/><g id="squares_2_"><linearGradient id="SVGID_10_" gradientUnits="userSpaceOnUse" x1="-1914.613" y1="2551.598" x2="-1870.497" y2="2551.598" gradientTransform="matrix(.803 .2694 -.06175 1.2543 1866.016 -2573.36)"><stop offset="0" stopColor="#17d1aa"/><stop offset=".066" stopColor="#1ac2ae"/><stop offset=".265" stopColor="#229bb8"/><stop offset=".462" stopColor="#297cc0"/><stop offset=".652" stopColor="#2d66c6"/><stop offset=".835" stopColor="#3059ca"/><stop offset="1" stopColor="#3154cb"/></linearGradient><path d="M196.3 91.3l10.9 17.1-.7 1.1-10.1-16-4.5 7.2-.7-1.1 5.1-8.3zm-8.4 13.3c1-1.6 2.2-2.3 3.5-2.1 1.3.2 2.6 1.4 3.9 3.5 1.3 2 2.1 4.1 2.3 6.2.2 2.1-.1 3.9-1 5.4-.8 1.3-1.8 1.8-2.9 1.6-1.2-.3-2.3-1.3-3.4-3.1l-.6-1 5.1-8.1c-1.1-1.7-2.2-2.7-3.2-2.9-1-.3-1.9.4-2.8 1.7-.4.6-.7 1.3-.9 1.9-.2.6-.5 1.4-.7 2.5l-.7-1.1c.2-.9.4-1.7.7-2.4-.1-.9.3-1.6.7-2.1zm7.9 11.8c.7-1.1.9-2.4.9-3.8-.1-1.5-.6-3-1.5-4.7l-4.3 6.9c.9 1.5 1.8 2.4 2.7 2.6.8.4 1.6 0 2.2-1zm-5.4 10.8c-.5.8-1.1 1.3-1.6 1.6-.6.2-1.3.2-2.1-.1v.1c.7 1 1.3 1.9 1.9 2.9l2.9 4.6-.6 1-11.6-18.3.4-.7 1.4 1.7c-.4-2.3-.1-4.3.9-5.9s2-2.2 3.3-1.9c1.2.2 2.4 1.5 3.8 3.6 1.4 2.2 2.2 4.3 2.5 6.3.1 1.9-.3 3.6-1.2 5.1zm-.7-1c.7-1.2 1-2.6.8-4.3-.2-1.6-.9-3.3-2.1-5.2-2.3-3.6-4.2-4.2-5.7-1.7-.8 1.3-1.1 2.6-.9 4 .2 1.4.8 3.1 2.1 5.1l.1.2c1.2 2 2.3 3.1 3.2 3.3.9.5 1.7-.1 2.5-1.4zm-9.2 16.4l-.5-.8 1.3-2.5c-1-.3-1.8-.9-2.4-1.9-.8-1.3-1.2-2.6-1.2-4.1 0-1.5.3-2.8 1.1-4 .3-.5.6-.9.7-1 .1-.7.1-1.3.1-1.8-.1-.6-.2-1-.5-1.4-.3-.4-.5-.6-.8-.5-.3.1-.6.4-1 1.1l-1.2 1.9c-.7 1.2-1.5 1.9-2.3 2-.7.1-1.5-.4-2.2-1.5-.9-1.4-1.2-2.9-1.1-4.5.1-1.7.8-3.4 1.9-5.2.9-1.4 1.8-2.2 2.7-2.4.9-.2 1.7.3 2.3 1.4.6.9.9 1.9.9 2.9s-.1 2.1-.5 3.1c.3-.1.7-.2.9-.1.3.1.6.3.8.7.5.8.7 2.1.6 3.7.6-.3 1.2-.4 1.9-.1.6.3 1.2.9 1.8 1.7.8 1.3 1.2 2.7 1.3 4.1 0 1.5-.3 2.8-1.1 4-.5.7-.9 1.3-1.2 1.5l-2.3 3.7zm-3.7-24c-1.1-1.7-2.4-1.5-3.8.8-1.8 2.9-2.1 5.5-.7 7.6.5.8 1 1.1 1.5 1 .5-.1 1.1-.7 1.7-1.7l1.1-1.8c1.3-2.1 1.3-4.1.2-5.9zm6.4 11.8c-.6-1-1.3-1.5-2-1.5s-1.3.4-1.8 1.3c-.6.9-.9 2-.8 3 0 1.1.4 2 1 3.1.7 1.1 1.4 1.6 2 1.6.7 0 1.3-.4 1.9-1.3.6-.9.8-1.9.7-3 0-1.1-.4-2.2-1-3.2z" fill="url(#SVGID_10_)"/><linearGradient id="SVGID_11_" gradientUnits="userSpaceOnUse" x1="-1919.795" y1="2548.502" x2="-1854.675" y2="2548.502" gradientTransform="matrix(.803 .2694 -.06175 1.2543 1866.016 -2573.36)"><stop offset="0" stopColor="#17d1aa"/><stop offset=".066" stopColor="#1ac2ae"/><stop offset=".265" stopColor="#229bb8"/><stop offset=".462" stopColor="#297cc0"/><stop offset=".652" stopColor="#2d66c6"/><stop offset=".835" stopColor="#3059ca"/><stop offset="1" stopColor="#3154cb"/></linearGradient><path d="M169.2 134.7c1-1.6 2.2-2.3 3.5-2.1 1.3.2 2.6 1.4 3.9 3.5 1.3 2 2.1 4.1 2.3 6.2.2 2.1-.1 3.9-1 5.4-.8 1.3-1.8 1.8-2.9 1.6-1.2-.3-2.3-1.3-3.4-3.1l-.6-1 5-8.1c-1.1-1.7-2.2-2.7-3.2-2.9-1-.3-1.9.4-2.8 1.7-.4.6-.7 1.3-.9 1.9-.2.6-.5 1.4-.7 2.5l-.7-1.1c.2-.9.4-1.7.7-2.4 0-.8.3-1.4.8-2.1zm7.8 12c.7-1.1.9-2.4.9-3.8-.1-1.5-.6-3-1.5-4.7l-4.3 6.9c.9 1.5 1.8 2.4 2.7 2.6.9.3 1.6 0 2.2-1zm-5.6 11.1c-.3.5-.7.9-1.1 1.3l-.6-1.3c.4-.4.7-.8 1-1.3.6-.9.8-2.2.6-3.7-.2-1.6-.7-3-1.6-4.5l-4.4-7 .7-1.1 8.1 12.7-.6.9-1.5-2.2v.1c.3 1.4.4 2.6.3 3.4-.1 1.1-.4 1.9-.9 2.7zM213.8 99l4.7-7.5-7.3-11.5-6.3 10.1 5.4 8.5c1 1.6 2.6 1.8 3.5.4zm6.1-9.9l.8-1.3c.9-1.4.8-3.9-.3-5.6l-.9-1.4-2.4 3.9 2.8 4.4zm-2.1-10.9l-2.4 3.9-2.8-4.4 2.4-3.9 2.8 4.4zm-14.9.9l-.8 1.3c-.9 1.4-.8 3.9.3 5.6l.9 1.4 2.4-3.9-2.8-4.4zm6.6-1.8l-2.4 3.9-2.8-4.4 2.4-3.9 2.8 4.4zm3.8-6.2l-.9-1.4c-1-1.6-2.6-1.8-3.5-.3l-.8 1.3 2.8 4.4 2.4-4z" fill="url(#SVGID_11_)"/></g><g><linearGradient id="SVGID_12_" gradientUnits="userSpaceOnUse" x1="311.141" y1="680.497" x2="398.941" y2="549.482"><stop offset="0" stopColor="#17d1aa"/><stop offset=".066" stopColor="#1ac2ae"/><stop offset=".265" stopColor="#229bb8"/><stop offset=".462" stopColor="#297cc0"/><stop offset=".652" stopColor="#2d66c6"/><stop offset=".835" stopColor="#3059ca"/><stop offset="1" stopColor="#3154cb"/></linearGradient><path fill="none" stroke="url(#SVGID_12_)" stroke-width="6" stroke-linecap="round" stroke-linejoin="round" stroke-miterlimit="10" d="M355 523.7v182.6"/><linearGradient id="SVGID_13_" gradientUnits="userSpaceOnUse" x1="366.343" y1="532.513" x2="346.093" y2="554.972"><stop offset="0" stopColor="#17d1aa"/><stop offset=".066" stopColor="#1ac2ae"/><stop offset=".265" stopColor="#229bb8"/><stop offset=".462" stopColor="#297cc0"/><stop offset=".652" stopColor="#2d66c6"/><stop offset=".835" stopColor="#3059ca"/><stop offset="1" stopColor="#3154cb"/></linearGradient><path d="M339.6 526.2v20.9c0 2.2 1.1 4.2 3 5.3l20.4 14.1c5.2.6 8.9-2.6 8.9-7.2v-17.2l-32.3-15.9z" fill="url(#SVGID_13_)"/><linearGradient id="SVGID_14_" gradientUnits="userSpaceOnUse" x1="354.575" y1="535.865" x2="343.581" y2="566.194"><stop offset="0" stopColor="#3154cb"/><stop offset=".165" stopColor="#3059ca"/><stop offset=".347" stopColor="#2d66c6"/><stop offset=".538" stopColor="#297cc0"/><stop offset=".735" stopColor="#229bb8"/><stop offset=".934" stopColor="#1ac2ae"/><stop offset="1" stopColor="#17d1aa"/></linearGradient><path d="M335.2 527.6v20.9c0 2.2 1.1 4.2 3 5.3l20.4 12.1c4 2.3 9-.5 9-5.1v-17.2l-32.4-16z" fill="url(#SVGID_14_)"/><linearGradient id="SVGID_15_" gradientUnits="userSpaceOnUse" x1="255.823" y1="3285.74" x2="439.145" y2="3012.189" gradientTransform="matrix(1 .5145 0 1 0 -2960.882)"><stop offset="0" stopColor="#3154cb"/><stop offset=".165" stopColor="#3059ca"/><stop offset=".347" stopColor="#2d66c6"/><stop offset=".538" stopColor="#297cc0"/><stop offset=".735" stopColor="#229bb8"/><stop offset=".934" stopColor="#1ac2ae"/><stop offset="1" stopColor="#17d1aa"/></linearGradient><path d="M466.8 330.2c0-13.4-11.2-30.5-25.2-38.4l-154.3-86.2c-11.7-7-35-1.3-35-1.3l6.2 173.8c-.1 4.8 1.2 10.3 3.7 15.7l43.1 94.7s13.9 28.3 29.1 36.9l51.2 39.1c.5 0 1.1.1 1.6.1 13.1.4 26-5.5 35.7-15.6l40.1-41.2c2.3-2.8 3.6-6.8 3.8-11.5V330.2z" fill="url(#SVGID_15_)"/><linearGradient id="SVGID_16_" gradientUnits="userSpaceOnUse" x1="243.819" y1="3299.431" x2="427.141" y2="3025.88" gradientTransform="matrix(1 .5145 0 1 0 -2960.882)"><stop offset="0" stopColor="#17d1aa"/><stop offset=".066" stopColor="#1ac2ae"/><stop offset=".265" stopColor="#229bb8"/><stop offset=".462" stopColor="#297cc0"/><stop offset=".652" stopColor="#2d66c6"/><stop offset=".835" stopColor="#3059ca"/><stop offset="1" stopColor="#3154cb"/></linearGradient><path d="M453.1 335.6c0-13.4-11.2-30.5-25.2-38.4L270 207.4c-14-7.9-25.2-3.6-25.2 9.8v166.2c-.1 4.8 1.2 10.3 3.7 15.7l43.1 94.7s13.9 28.3 29.1 36.9l55.7 31.7c15.1 8.6 28.5-2.9 28.5-2.9l44.4-46.4c2.3-2.8 3.6-6.8 3.8-11.5v-166z" fill="url(#SVGID_16_)"/><path d="M273.2 274.3l151.4 86.1c4.5 2.6 8.2 8.7 8.2 13.7v109c0 5-3.7 6.9-8.2 4.3l-151.4-86.1c-4.5-2.6-8.2-8.7-8.2-13.7v-109c0-4.9 3.6-6.9 8.2-4.3z" fill="#2c30d1"/><path d="M368.2 373.4l-9.2-5.2-20.1-11.4c-1.2-3.7-2.2-8.6-1.4-11.7.6-2.2 2-3.4 4.5-3.6 2.7-.2 5.2.8 7.5 3 2.9 2.8 5.3 7.2 6.9 10.6.5 1.2 1.7 1.9 2.9 1.8l4.2-.3c.9-.1 1.5-1.1 1.1-2-2.2-5.1-6.2-13-12.2-18.7-4.8-4.5-9.9-6.7-14.8-6.4-4.7.3-7.9 3-9 7.8-1 4.2-.4 9.2.6 13.7l-4.4-2.5c-1-.5-2.1.3-2.1 1.5v41c0 1.2.4 2.4 1.2 3.2l23.4 26.3c1.2 1.3 2.7 2 4.4 2.1l17.3.2c3.5 0 6.4-3.1 6.4-6.9v-34.5c0-2.4-1.2-4.5-3.1-5.6l-4.1-2.4zm-2.1 37.5l-17.2-.2-17.2-19.3v-28l34.3 19.5v28z" fillRule="evenodd" clipRule="evenodd" fill="#e1f2ff"/><linearGradient id="SVGID_17_" gradientUnits="userSpaceOnUse" x1="258.74" y1="272.36" x2="438.984" y2="303.928"><stop offset="0" stopColor="#17d1aa"/><stop offset=".227" stopColor="#1cb9b0"/><stop offset=".704" stopColor="#297dc0"/><stop offset="1" stopColor="#3154cb"/></linearGradient><path d="M340 281.8l3 1.8c.8.5 1.6 1.3 1.6 2.2 0 .9-.8.8-1.6.4l-3-1.8v-2.6zm-4.9-7.1v16.1l4.9 2.9v-5.1l1.8 1 2.2 6.4 5.6 3.3-2.9-7.4c1.3.1 2.9-.4 2.9-3.2 0-3-2-6.7-5.8-8.9l-8.7-5.1z" fillRule="evenodd" clipRule="evenodd" fill="url(#SVGID_17_)"/><linearGradient id="SVGID_18_" gradientUnits="userSpaceOnUse" x1="257.62" y1="278.749" x2="437.865" y2="310.317"><stop offset="0" stopColor="#17d1aa"/><stop offset=".227" stopColor="#1cb9b0"/><stop offset=".704" stopColor="#297dc0"/><stop offset="1" stopColor="#3154cb"/></linearGradient><path fillRule="evenodd" clipRule="evenodd" fill="url(#SVGID_18_)" d="M352.1 284.7v16.1l12.3 7.2v-4.2l-7.4-4.4v-1.7l7.2 4.2v-4.2l-7.2-4.3v-1.6l7.4 4.4v-4.3z"/><linearGradient id="SVGID_19_" gradientUnits="userSpaceOnUse" x1="256.557" y1="284.82" x2="436.802" y2="316.388"><stop offset="0" stopColor="#17d1aa"/><stop offset=".227" stopColor="#1cb9b0"/><stop offset=".704" stopColor="#297dc0"/><stop offset="1" stopColor="#3154cb"/></linearGradient><path fillRule="evenodd" clipRule="evenodd" fill="url(#SVGID_19_)" d="M366.9 293.4v4.3l6.2 3.6-6.2 4.4v3.9l12.8 7.5v-4.3l-6.3-3.7 6.1-4.4v-3.8z"/><linearGradient id="SVGID_20_" gradientUnits="userSpaceOnUse" x1="255.401" y1="291.419" x2="435.647" y2="322.987"><stop offset="0" stopColor="#17d1aa"/><stop offset=".227" stopColor="#1cb9b0"/><stop offset=".704" stopColor="#297dc0"/><stop offset="1" stopColor="#3154cb"/></linearGradient><path d="M385.9 312.7c0-2.2 1.5-3.1 3.9-1.7 2.4 1.4 3.9 4.1 3.9 6.3s-1.5 3.1-3.9 1.7c-2.4-1.4-3.9-4.1-3.9-6.3m-5-2.9c0 4.9 3.9 10.6 8.9 13.5 5 2.9 8.9 1.8 8.9-3.1 0-5-3.9-10.6-8.9-13.6-5-2.9-8.9-1.8-8.9 3.2" fillRule="evenodd" clipRule="evenodd" fill="url(#SVGID_20_)"/><linearGradient id="SVGID_21_" gradientUnits="userSpaceOnUse" x1="254.128" y1="298.691" x2="434.373" y2="330.259"><stop offset="0" stopColor="#17d1aa"/><stop offset=".227" stopColor="#1cb9b0"/><stop offset=".704" stopColor="#297dc0"/><stop offset="1" stopColor="#3154cb"/></linearGradient><path d="M405.6 320.5l3 1.8c.8.5 1.6 1.3 1.6 2.2 0 .9-.8.8-1.6.4l-3-1.8v-2.6zm-4.9-7.2v16.1l4.9 2.9v-5.1l1.8 1 2.2 6.4 5.6 3.3-2.9-7.4c1.3.1 2.9-.4 2.9-3.2 0-3-2-6.7-5.8-8.9l-8.7-5.1z" fillRule="evenodd" clipRule="evenodd" fill="url(#SVGID_21_)"/><linearGradient id="SVGID_22_" gradientUnits="userSpaceOnUse" x1="260.021" y1="265.045" x2="440.266" y2="296.613"><stop offset="0" stopColor="#17d1aa"/><stop offset=".227" stopColor="#1cb9b0"/><stop offset=".704" stopColor="#297dc0"/><stop offset="1" stopColor="#3154cb"/></linearGradient><path fillRule="evenodd" clipRule="evenodd" fill="url(#SVGID_22_)" d="M319.4 265.5v4.2l4.4 2.6v11.9l4.9 2.8v-11.8l4.3 2.5v-4.2z"/><linearGradient id="SVGID_23_" gradientUnits="userSpaceOnUse" x1="262.05" y1="253.46" x2="442.295" y2="285.028"><stop offset="0" stopColor="#17d1aa"/><stop offset=".227" stopColor="#1cb9b0"/><stop offset=".704" stopColor="#297dc0"/><stop offset="1" stopColor="#3154cb"/></linearGradient><path d="M299.6 272.5s-6.8-6.4-6.9-6.6c-.1-.2-.2-.2-.2-.3v-10.8c0-.6 3.4 1.1 7.4 3.5 4.1 2.4 7.5 4.7 7.5 5.3v10.8c0 .2 0 .2-.2.1-.1 0-6.9-1.6-6.9-1.6s-.3-.1-.4-.1l-.3-.3zm-4.3-24.1c0-2.9 1.8-3.6 4.7-1.9 2.9 1.7 4.7 4.5 4.7 7.4v2.9c-3.3-2.1-6-3.8-9.3-5.5v-2.9zm-4.3-2.5v3.3c-1.7-.7-3.5-1.3-3.5-.8v17.4s0 .5.5 1c2 1.9 9.7 9.2 11.5 10.9.2.2.3.3.4.3.1.1.1.1.4.1 1.8.4 9.5 2.3 11.5 2.6.5.1.5-.4.5-.4V263c0-.5-1.7-2-3.4-3.3v-3.3c0-4.9-4-11.2-8.9-14.1-5-2.9-9-1.3-9 3.6z" fillRule="evenodd" clipRule="evenodd" fill="url(#SVGID_23_)"/></g></g></g></switch></svg>