<svg xmlns="http://www.w3.org/2000/svg" xmlns:xlink="http://www.w3.org/1999/xlink" viewBox="0 0 520 832.7"><style>.st107{fill:#1d45ba}.st109{fill:#52fcff}.st112{fill:#17d1aa}.st199{fill:#163fa5}.st200{opacity:.7;fill:#52fcff}.st201{display:none}.st354{fill:#e1f2ff}</style><switch><g><g id="Layer_1"><defs><ellipse id="SVGID_181_" transform="rotate(-27.859 190.633 68.633)" cx="190.6" cy="68.6" rx="18.3" ry="29.4"/></defs><clipPath id="SVGID_1_"><use xlink:href="#SVGID_181_" overflow="visible"/></clipPath><g clip-path="url(#SVGID_1_)"><path class="st112" d="M168.1 25.9c.9.7 57.9 51.6 57.9 51.6M165.8 28.4c.9.7 57.9 51.6 57.9 51.6M163.6 30.9c.9.7 57.9 51.6 57.9 51.6M161.4 33.4c.8.6 57.8 51.6 57.8 51.6M159.1 35.8c.9.7 57.9 51.7 57.9 51.7M156.9 38.3c.9.7 57.9 51.6 57.9 51.6M154.7 40.8c.9.7 57.9 51.6 57.9 51.6M152.4 43.3c.9.7 57.9 51.6 57.9 51.6M150.2 45.7c.9.7 57.9 51.6 57.9 51.6M148 48.2c.9.7 57.9 51.6 57.9 51.6M145.7 50.7c.9.7 57.9 51.6 57.9 51.6"/></g><linearGradient id="SVGID_2_" gradientUnits="userSpaceOnUse" x1="12174.009" y1="-576.655" x2="12174.009" y2="-649.199" gradientTransform="matrix(-1 .1079 0 1 12370.165 -631.561)"><stop offset="0" stopColor="#1d45ba"/><stop offset=".42" stopColor="#1d47ba"/><stop offset=".572" stopColor="#1d4eb9"/><stop offset=".68" stopColor="#1c59b8"/><stop offset=".767" stopColor="#1b6ab6"/><stop offset=".842" stopColor="#1a80b3"/><stop offset=".908" stopColor="#199cb0"/><stop offset=".966" stopColor="#18bbad"/><stop offset="1" stopColor="#17d1aa"/></linearGradient><path d="M171.8 53c0 16.1 10.9 34.4 24.4 40.9 4.3 2.1 8.4 2.7 11.9 2.1l-.2 1.6 4.8-3.4c.5-.3.9-.6 1.3-.9l.1-.1c4-3.2 6.5-9 6.5-16.6 0-16.1-10.9-34.4-24.4-40.9-6.5-3.1-12.3-3-16.7-.2l-.2.1c-.2.1-.4.3-.6.4l-4.9 3.4 2.1-.6c-2.6 3.4-4.1 8.2-4.1 14.2zm11 5.3c0-8.8 6-13 13.3-9.5 7.4 3.6 13.3 13.6 13.3 22.4 0 8.8-6 13-13.3 9.5-7.3-3.6-13.3-13.6-13.3-22.4z" fill="url(#SVGID_2_)"/><radialGradient id="SVGID_3_" cx="12169.8" cy="-624.814" r="25.705" gradientTransform="matrix(-1 .1079 0 1 12370.165 -631.561)" gradientUnits="userSpaceOnUse"><stop offset="0" stopColor="#00fcff"/><stop offset=".093" stopColor="#06f8ff"/><stop offset=".218" stopColor="#17ebff"/><stop offset=".362" stopColor="#33d7ff"/><stop offset=".519" stopColor="#5bbaff"/><stop offset=".687" stopColor="#8d96ff"/><stop offset=".862" stopColor="#ca6aff"/><stop offset="1" stopColor="#ff43ff"/></radialGradient><path class="st112" d="M166.3 56.8c0 16.1 10.9 34.4 24.4 40.9 13.4 6.5 24.4-1.2 24.4-17.3S204.2 46 190.7 39.5c-13.5-6.5-24.4 1.3-24.4 17.3zm11 5.4c0-8.8 6-13 13.3-9.5C198 56.3 204 66.3 204 75.1c0 8.8-6 13-13.3 9.5-7.4-3.6-13.4-13.6-13.4-22.4z"/><path class="st199" d="M190.6 39.8c-13.4-6.5-24.4 1.2-24.4 17.3s10.9 34.4 24.4 40.9c13.4 6.5 24.4-1.2 24.4-17.3s-10.9-34.4-24.4-40.9zm0 45c-7.4-3.6-13.3-13.6-13.3-22.4s6-13 13.3-9.5C198 56.5 204 66.6 204 75.4s-6 13-13.4 9.4z"/><ellipse transform="rotate(-27.859 190.633 68.633)" class="st200" cx="190.6" cy="68.6" rx="18.3" ry="29.4"/><g class="st201"><linearGradient id="SVGID_4_" gradientUnits="userSpaceOnUse" x1="12179.222" y1="-620.893" x2="12188.052" y2="-620.893" gradientTransform="matrix(-1 .1079 0 1 12370.165 -631.561)"><stop offset="0" stopColor="#ff43ff"/><stop offset=".532" stopColor="#00fcff"/><stop offset=".578" stopColor="#05faff"/><stop offset=".636" stopColor="#15f5ff"/><stop offset=".701" stopColor="#2fecff"/><stop offset=".77" stopColor="#54dfff"/><stop offset=".844" stopColor="#82cfff"/><stop offset=".92" stopColor="#bbf"/><stop offset=".998" stopColor="#fda4ff"/><stop offset="1" stopColor="#ffa3ff"/></linearGradient><path d="M185.5 63.8c-1.9-1.4-3.4-4.5-3.4-6.8v-.2c0 2.3 1.5 5.3 3.4 6.7l5.4 4v.3l-5.4-4z" fill="url(#SVGID_4_)"/><linearGradient id="SVGID_5_" gradientUnits="userSpaceOnUse" x1="12182.699" y1="-636.96" x2="12186.588" y2="-636.96" gradientTransform="matrix(-1 .1079 0 1 12370.165 -631.561)"><stop offset="0" stopColor="#ff43ff"/><stop offset=".532" stopColor="#00fcff"/><stop offset=".578" stopColor="#05faff"/><stop offset=".636" stopColor="#15f5ff"/><stop offset=".701" stopColor="#2fecff"/><stop offset=".77" stopColor="#54dfff"/><stop offset=".844" stopColor="#82cfff"/><stop offset=".92" stopColor="#bbf"/><stop offset=".998" stopColor="#fda4ff"/><stop offset="1" stopColor="#ffa3ff"/></linearGradient><path fill="url(#SVGID_5_)" d="M183.6 44.8l3.9 2.9v.3l-3.9-2.9z"/><linearGradient id="SVGID_6_" gradientUnits="userSpaceOnUse" x1="12179.222" y1="-607.841" x2="12188.052" y2="-607.841" gradientTransform="matrix(-1 .1079 0 1 12370.165 -631.561)"><stop offset="0" stopColor="#ff43ff"/><stop offset=".532" stopColor="#00fcff"/><stop offset=".578" stopColor="#05faff"/><stop offset=".636" stopColor="#15f5ff"/><stop offset=".701" stopColor="#2fecff"/><stop offset=".77" stopColor="#54dfff"/><stop offset=".844" stopColor="#82cfff"/><stop offset=".92" stopColor="#bbf"/><stop offset=".998" stopColor="#fda4ff"/><stop offset="1" stopColor="#ffa3ff"/></linearGradient><path d="M182.1 69.9c0 2.3 1.5 5.3 3.4 6.7l5.4 4v.3l-5.4-4c-1.9-1.4-3.4-4.5-3.4-6.8v-.2z" fill="url(#SVGID_6_)"/><linearGradient id="SVGID_7_" gradientUnits="userSpaceOnUse" x1="12186.588" y1="-632.344" x2="12191.677" y2="-632.344" gradientTransform="matrix(-1 .1079 0 1 12370.165 -631.561)"><stop offset="0" stopColor="#ff43ff"/><stop offset=".532" stopColor="#00fcff"/><stop offset=".578" stopColor="#05faff"/><stop offset=".636" stopColor="#15f5ff"/><stop offset=".701" stopColor="#2fecff"/><stop offset=".77" stopColor="#54dfff"/><stop offset=".844" stopColor="#82cfff"/><stop offset=".92" stopColor="#bbf"/><stop offset=".998" stopColor="#fda4ff"/><stop offset="1" stopColor="#ffa3ff"/></linearGradient><path d="M183.6 49.7c-2.9-1.1-5 .6-5.1 4.5v-.1c0-4 2.2-5.8 5.1-4.7v.3z" fill="url(#SVGID_7_)"/><linearGradient id="SVGID_8_" gradientUnits="userSpaceOnUse" x1="12179.222" y1="-629.587" x2="12182.699" y2="-629.587" gradientTransform="matrix(-1 .1079 0 1 12370.165 -631.561)"><stop offset="0" stopColor="#ff43ff"/><stop offset=".532" stopColor="#00fcff"/><stop offset=".578" stopColor="#05faff"/><stop offset=".636" stopColor="#15f5ff"/><stop offset=".701" stopColor="#2fecff"/><stop offset=".77" stopColor="#54dfff"/><stop offset=".844" stopColor="#82cfff"/><stop offset=".92" stopColor="#bbf"/><stop offset=".998" stopColor="#fda4ff"/><stop offset="1" stopColor="#ffa3ff"/></linearGradient><path fill="url(#SVGID_8_)" d="M190.9 54.8l-3.4-2.6v-.3l3.4 2.6z"/><linearGradient id="SVGID_9_" gradientUnits="userSpaceOnUse" x1="12172.395" y1="-597.426" x2="12175.333" y2="-597.426" gradientTransform="matrix(-1 .1079 0 1 12370.165 -631.561)"><stop offset="0" stopColor="#ff43ff"/><stop offset=".532" stopColor="#00fcff"/><stop offset=".578" stopColor="#05faff"/><stop offset=".636" stopColor="#15f5ff"/><stop offset=".701" stopColor="#2fecff"/><stop offset=".77" stopColor="#54dfff"/><stop offset=".844" stopColor="#82cfff"/><stop offset=".92" stopColor="#bbf"/><stop offset=".998" stopColor="#fda4ff"/><stop offset="1" stopColor="#ffa3ff"/></linearGradient><path fill="url(#SVGID_9_)" d="M194.8 83.5l3 2.2v.3l-3-2.2z"/><linearGradient id="SVGID_10_" gradientUnits="userSpaceOnUse" x1="12189.351" y1="-619.199" x2="12191.677" y2="-619.199" gradientTransform="matrix(-1 .1079 0 1 12370.165 -631.561)"><stop offset="0" stopColor="#ff43ff"/><stop offset=".532" stopColor="#00fcff"/><stop offset=".578" stopColor="#05faff"/><stop offset=".636" stopColor="#15f5ff"/><stop offset=".701" stopColor="#2fecff"/><stop offset=".77" stopColor="#54dfff"/><stop offset=".844" stopColor="#82cfff"/><stop offset=".92" stopColor="#bbf"/><stop offset=".998" stopColor="#fda4ff"/><stop offset="1" stopColor="#ffa3ff"/></linearGradient><path d="M180.7 62.4c0 .1.1.2.1.2-1.4.5-2.3 2.2-2.3 4.7v-.2c0-2.5.8-4.2 2.2-4.7z" fill="url(#SVGID_10_)"/><linearGradient id="SVGID_11_" gradientUnits="userSpaceOnUse" x1="12175.333" y1="-630.674" x2="12179.222" y2="-630.674" gradientTransform="matrix(-1 .1079 0 1 12370.165 -631.561)"><stop offset="0" stopColor="#ff43ff"/><stop offset=".532" stopColor="#00fcff"/><stop offset=".578" stopColor="#05faff"/><stop offset=".636" stopColor="#15f5ff"/><stop offset=".701" stopColor="#2fecff"/><stop offset=".77" stopColor="#54dfff"/><stop offset=".844" stopColor="#82cfff"/><stop offset=".92" stopColor="#bbf"/><stop offset=".998" stopColor="#fda4ff"/><stop offset="1" stopColor="#ffa3ff"/></linearGradient><path fill="url(#SVGID_11_)" d="M190.9 50.3l3.9 2.9v.3l-3.9-2.9z"/><linearGradient id="SVGID_12_" gradientUnits="userSpaceOnUse" x1="12172.395" y1="-623.531" x2="12175.333" y2="-623.531" gradientTransform="matrix(-1 .1079 0 1 12370.165 -631.561)"><stop offset="0" stopColor="#ff43ff"/><stop offset=".532" stopColor="#00fcff"/><stop offset=".578" stopColor="#05faff"/><stop offset=".636" stopColor="#15f5ff"/><stop offset=".701" stopColor="#2fecff"/><stop offset=".77" stopColor="#54dfff"/><stop offset=".844" stopColor="#82cfff"/><stop offset=".92" stopColor="#bbf"/><stop offset=".998" stopColor="#fda4ff"/><stop offset="1" stopColor="#ffa3ff"/></linearGradient><path fill="url(#SVGID_12_)" d="M194.8 57.4l3 2.2v.3l-3-2.2z"/></g><path class="st107" d="M199.3 89.2l-4.6-15.7-11.7-7.2c-1.3 3.3-3 7.3-4.4 10.6-.1.2-.4.2-.7 0-.4-.3-.5-.4-.5-.9l10.3-24.8c.3-.6 1.1-1.1 1.8-.6.8.5 1.2 1.4 1.4 2.3l9.9 35.5c.2.7.5 1.6-.1 1.8-.8.2-1.2-.5-1.4-1zm-9.7-34.8c-.5-1.6-.9-2.1-1.3-1l-4.7 11.8 10.7 6.5-4.7-17.3z"/><path class="st107" d="M200.5 77.2l-22.6-13.8c-.2-.1-.4-.5-.4-.8v-.7c0-.3.2-.4.4-.3l22.6 13.8c.2.1.4.5.4.8v.7c0 .3-.2.4-.4.3zM198.5 69.8L180 58.5c-.2-.1-.4-.5-.4-.8V57c0-.3.2-.4.4-.3L198.5 68c.2.1.4.5.4.8v.7c0 .4-.2.5-.4.3z"/><defs><ellipse id="SVGID_194_" transform="rotate(-27.859 401.67 53.024)" cx="401.7" cy="53" rx="23.7" ry="38"/></defs><clipPath id="SVGID_13_"><use xlink:href="#SVGID_194_" overflow="visible"/></clipPath><g clip-path="url(#SVGID_13_)"><path class="st112" d="M372.5-2.2c1.1.9 74.8 66.8 74.8 66.8M369.6 1c1.1.9 74.8 66.8 74.8 66.8M366.7 4.2c1.1.9 74.8 66.8 74.8 66.8M363.8 7.4c1.1.9 74.8 66.8 74.8 66.8M360.9 10.6c1.1.9 74.8 66.8 74.8 66.8M358 13.8c1.1.9 74.8 66.8 74.8 66.8M355.2 17c1.1.9 74.8 66.8 74.8 66.8M352.3 20.2c1.1.9 74.8 66.8 74.8 66.8M349.4 23.4c1.1.9 74.8 66.8 74.8 66.8M346.5 26.6c1.1.9 74.8 66.8 74.8 66.8M343.6 29.8c1.1.9 74.8 66.8 74.8 66.8"/></g><linearGradient id="SVGID_14_" gradientUnits="userSpaceOnUse" x1="11961.357" y1="-558.497" x2="11961.357" y2="-652.288" gradientTransform="matrix(-1 .1079 0 1 12370.165 -631.561)"><stop offset="0" stopColor="#1d45ba"/><stop offset=".42" stopColor="#1d47ba"/><stop offset=".572" stopColor="#1d4eb9"/><stop offset=".68" stopColor="#1c59b8"/><stop offset=".767" stopColor="#1b6ab6"/><stop offset=".842" stopColor="#1a80b3"/><stop offset=".908" stopColor="#199cb0"/><stop offset=".966" stopColor="#18bbad"/><stop offset="1" stopColor="#17d1aa"/></linearGradient><path d="M377.3 32.8c0 20.8 14.1 44.4 31.5 52.9 5.6 2.7 10.8 3.5 15.4 2.7l-.3 2.1 6.2-4.4c.6-.4 1.1-.8 1.7-1.2l.1-.1c5.2-4.2 8.4-11.6 8.4-21.5 0-20.8-14.1-44.4-31.5-52.9-8.3-4.1-15.9-3.8-21.6-.2l-.2.2c-.2.2-.5.3-.7.5l-6.4 4.4 2.7-.8c-3.3 4.3-5.3 10.5-5.3 18.3zm14.3 6.9c0-11.4 7.7-16.8 17.2-12.2 9.5 4.6 17.2 17.6 17.2 29 0 11.4-7.7 16.8-17.2 12.2-9.5-4.7-17.2-17.7-17.2-29z" fill="url(#SVGID_14_)"/><radialGradient id="SVGID_15_" cx="11955.915" cy="-620.762" r="33.234" gradientTransform="matrix(-1 .1079 0 1 12370.165 -631.561)" gradientUnits="userSpaceOnUse"><stop offset="0" stopColor="#00fcff"/><stop offset=".093" stopColor="#06f8ff"/><stop offset=".218" stopColor="#17ebff"/><stop offset=".362" stopColor="#33d7ff"/><stop offset=".519" stopColor="#5bbaff"/><stop offset=".687" stopColor="#8d96ff"/><stop offset=".862" stopColor="#ca6aff"/><stop offset="1" stopColor="#ff43ff"/></radialGradient><path class="st112" d="M370.2 37.7c0 20.8 14.1 44.4 31.5 52.9 17.4 8.4 31.5-1.6 31.5-22.3 0-20.8-14.1-44.4-31.5-52.9-17.4-8.4-31.5 1.6-31.5 22.3zm14.2 7c0-11.4 7.7-16.8 17.2-12.2s17.2 17.6 17.2 29c0 11.4-7.7 16.8-17.2 12.2-9.5-4.7-17.2-17.7-17.2-29z"/><path class="st199" d="M401.7 15.8c-17.4-8.4-31.5 1.6-31.5 22.3 0 20.8 14.1 44.4 31.5 52.9 17.4 8.4 31.5-1.6 31.5-22.3-.1-20.8-14.2-44.5-31.5-52.9zm0 58.1c-9.5-4.6-17.2-17.6-17.2-29s7.7-16.8 17.2-12.2c9.5 4.6 17.2 17.6 17.2 29 0 11.4-7.7 16.9-17.2 12.2z"/><ellipse transform="rotate(-27.859 401.67 53.024)" class="st200" cx="401.7" cy="53" rx="23.7" ry="38"/><g class="st201"><linearGradient id="SVGID_16_" gradientUnits="userSpaceOnUse" x1="11968.097" y1="-615.692" x2="11979.513" y2="-615.692" gradientTransform="matrix(-1 .1079 0 1 12370.165 -631.561)"><stop offset="0" stopColor="#ff43ff"/><stop offset=".532" stopColor="#00fcff"/><stop offset=".578" stopColor="#05faff"/><stop offset=".636" stopColor="#15f5ff"/><stop offset=".701" stopColor="#2fecff"/><stop offset=".77" stopColor="#54dfff"/><stop offset=".844" stopColor="#82cfff"/><stop offset=".92" stopColor="#bbf"/><stop offset=".998" stopColor="#fda4ff"/><stop offset="1" stopColor="#ffa3ff"/></linearGradient><path d="M395.1 46.8c-2.4-1.8-4.4-5.8-4.4-8.8v-.3c.1 3 2 6.9 4.4 8.7l7 5.2v.4l-7-5.2z" fill="url(#SVGID_16_)"/><linearGradient id="SVGID_17_" gradientUnits="userSpaceOnUse" x1="11972.593" y1="-636.465" x2="11977.62" y2="-636.465" gradientTransform="matrix(-1 .1079 0 1 12370.165 -631.561)"><stop offset="0" stopColor="#ff43ff"/><stop offset=".532" stopColor="#00fcff"/><stop offset=".578" stopColor="#05faff"/><stop offset=".636" stopColor="#15f5ff"/><stop offset=".701" stopColor="#2fecff"/><stop offset=".77" stopColor="#54dfff"/><stop offset=".844" stopColor="#82cfff"/><stop offset=".92" stopColor="#bbf"/><stop offset=".998" stopColor="#fda4ff"/><stop offset="1" stopColor="#ffa3ff"/></linearGradient><path fill="url(#SVGID_17_)" d="M392.5 22.2l5.1 3.8v.4l-5.1-3.8z"/><linearGradient id="SVGID_18_" gradientUnits="userSpaceOnUse" x1="11968.097" y1="-598.817" x2="11979.513" y2="-598.817" gradientTransform="matrix(-1 .1079 0 1 12370.165 -631.561)"><stop offset="0" stopColor="#ff43ff"/><stop offset=".532" stopColor="#00fcff"/><stop offset=".578" stopColor="#05faff"/><stop offset=".636" stopColor="#15f5ff"/><stop offset=".701" stopColor="#2fecff"/><stop offset=".77" stopColor="#54dfff"/><stop offset=".844" stopColor="#82cfff"/><stop offset=".92" stopColor="#bbf"/><stop offset=".998" stopColor="#fda4ff"/><stop offset="1" stopColor="#ffa3ff"/></linearGradient><path d="M390.7 54.7c.1 3 2 6.9 4.4 8.7l7 5.2v.4l-7-5.2c-2.4-1.8-4.4-5.8-4.4-8.8v-.3z" fill="url(#SVGID_18_)"/><linearGradient id="SVGID_19_" gradientUnits="userSpaceOnUse" x1="11977.62" y1="-630.497" x2="11984.2" y2="-630.497" gradientTransform="matrix(-1 .1079 0 1 12370.165 -631.561)"><stop offset="0" stopColor="#ff43ff"/><stop offset=".532" stopColor="#00fcff"/><stop offset=".578" stopColor="#05faff"/><stop offset=".636" stopColor="#15f5ff"/><stop offset=".701" stopColor="#2fecff"/><stop offset=".77" stopColor="#54dfff"/><stop offset=".844" stopColor="#82cfff"/><stop offset=".92" stopColor="#bbf"/><stop offset=".998" stopColor="#fda4ff"/><stop offset="1" stopColor="#ffa3ff"/></linearGradient><path d="M392.5 28.5c-3.7-1.4-6.5.8-6.6 5.8v-.2c0-5.2 2.8-7.5 6.6-6v.4z" fill="url(#SVGID_19_)"/><linearGradient id="SVGID_20_" gradientUnits="userSpaceOnUse" x1="11968.097" y1="-626.933" x2="11972.593" y2="-626.933" gradientTransform="matrix(-1 .1079 0 1 12370.165 -631.561)"><stop offset="0" stopColor="#ff43ff"/><stop offset=".532" stopColor="#00fcff"/><stop offset=".578" stopColor="#05faff"/><stop offset=".636" stopColor="#15f5ff"/><stop offset=".701" stopColor="#2fecff"/><stop offset=".77" stopColor="#54dfff"/><stop offset=".844" stopColor="#82cfff"/><stop offset=".92" stopColor="#bbf"/><stop offset=".998" stopColor="#fda4ff"/><stop offset="1" stopColor="#ffa3ff"/></linearGradient><path fill="url(#SVGID_20_)" d="M402.1 35.2l-4.5-3.4v-.4l4.5 3.4z"/><linearGradient id="SVGID_21_" gradientUnits="userSpaceOnUse" x1="11959.271" y1="-585.352" x2="11963.069" y2="-585.352" gradientTransform="matrix(-1 .1079 0 1 12370.165 -631.561)"><stop offset="0" stopColor="#ff43ff"/><stop offset=".532" stopColor="#00fcff"/><stop offset=".578" stopColor="#05faff"/><stop offset=".636" stopColor="#15f5ff"/><stop offset=".701" stopColor="#2fecff"/><stop offset=".77" stopColor="#54dfff"/><stop offset=".844" stopColor="#82cfff"/><stop offset=".92" stopColor="#bbf"/><stop offset=".998" stopColor="#fda4ff"/><stop offset="1" stopColor="#ffa3ff"/></linearGradient><path fill="url(#SVGID_21_)" d="M407.1 72.3l3.8 2.8v.4l-3.8-2.8z"/><linearGradient id="SVGID_22_" gradientUnits="userSpaceOnUse" x1="11981.192" y1="-613.502" x2="11984.2" y2="-613.502" gradientTransform="matrix(-1 .1079 0 1 12370.165 -631.561)"><stop offset="0" stopColor="#ff43ff"/><stop offset=".532" stopColor="#00fcff"/><stop offset=".578" stopColor="#05faff"/><stop offset=".636" stopColor="#15f5ff"/><stop offset=".701" stopColor="#2fecff"/><stop offset=".77" stopColor="#54dfff"/><stop offset=".844" stopColor="#82cfff"/><stop offset=".92" stopColor="#bbf"/><stop offset=".998" stopColor="#fda4ff"/><stop offset="1" stopColor="#ffa3ff"/></linearGradient><path d="M388.8 44.9c.1.1.1.2.2.3-1.8.7-3 2.8-3 6V51c0-3.2 1.1-5.3 2.8-6.1z" fill="url(#SVGID_22_)"/><linearGradient id="SVGID_23_" gradientUnits="userSpaceOnUse" x1="11963.069" y1="-628.337" x2="11968.097" y2="-628.337" gradientTransform="matrix(-1 .1079 0 1 12370.165 -631.561)"><stop offset="0" stopColor="#ff43ff"/><stop offset=".532" stopColor="#00fcff"/><stop offset=".578" stopColor="#05faff"/><stop offset=".636" stopColor="#15f5ff"/><stop offset=".701" stopColor="#2fecff"/><stop offset=".77" stopColor="#54dfff"/><stop offset=".844" stopColor="#82cfff"/><stop offset=".92" stopColor="#bbf"/><stop offset=".998" stopColor="#fda4ff"/><stop offset="1" stopColor="#ffa3ff"/></linearGradient><path fill="url(#SVGID_23_)" d="M402.1 29.3l5 3.8v.4l-5-3.8z"/><linearGradient id="SVGID_24_" gradientUnits="userSpaceOnUse" x1="11959.271" y1="-619.102" x2="11963.069" y2="-619.102" gradientTransform="matrix(-1 .1079 0 1 12370.165 -631.561)"><stop offset="0" stopColor="#ff43ff"/><stop offset=".532" stopColor="#00fcff"/><stop offset=".578" stopColor="#05faff"/><stop offset=".636" stopColor="#15f5ff"/><stop offset=".701" stopColor="#2fecff"/><stop offset=".77" stopColor="#54dfff"/><stop offset=".844" stopColor="#82cfff"/><stop offset=".92" stopColor="#bbf"/><stop offset=".998" stopColor="#fda4ff"/><stop offset="1" stopColor="#ffa3ff"/></linearGradient><path fill="url(#SVGID_24_)" d="M407.1 38.5l3.8 2.9v.4l-3.8-2.9z"/></g><path class="st107" d="M412.9 79.6L407 59.3 391.9 50c-1.7 4.2-3.9 9.5-5.7 13.7-.2.3-.5.3-.9.1-.6-.3-.7-.5-.7-1.1v-.2l13.3-32.1c.4-.8 1.4-1.4 2.3-.8 1 .6 1.5 1.8 1.8 3l12.8 45.9c.3.8.7 2.1-.1 2.3-1.1.3-1.6-.5-1.8-1.2zm-12.5-45c-.6-2.1-1.1-2.7-1.6-1.3l-6.1 15.3 13.8 8.5-6.1-22.5z"/><path class="st107" d="M414.4 64.1l-29.2-17.8c-.3-.2-.5-.6-.5-1v-.9c0-.4.2-.5.5-.4l29.2 17.8c.3.2.5.6.5 1v.9c.1.4-.2.6-.5.4zM411.8 54.6L387.9 40c-.3-.2-.5-.6-.5-1v-1c0-.4.2-.5.5-.4l23.9 14.6c.3.2.5.6.5 1v.9c0 .5-.2.7-.5.5z"/><path class="st112" d="M403.5 573.6L417 566c3.9-2.2 6.3-6.5 6.1-11V331.7s.1-17.2-18.3-27.4c-17.4-9.7-269.5-156-269.5-156s-15.7-4.4-17 19.2.8 237.9.8 237.9l284.4 168.2z"/><linearGradient id="SVGID_25_" gradientUnits="userSpaceOnUse" x1="373.907" y1="316.89" x2="407.358" y2="550.458"><stop offset=".003" stopColor="#17d1aa" stop-opacity="0"/><stop offset=".618" stopColor="#1e9aa9" stop-opacity=".616"/><stop offset="1" stopColor="#227da8"/></linearGradient><path d="M403.5 573.6L417 566c3.9-2.2 6.3-6.5 6.1-11V331.7s.1-17.2-18.3-27.4c-17.4-9.7-38.7-22.2-38.7-22.2s-10.3 63.3-11.6 86.9c-1.3 23.6 6.1 183.9 6.1 183.9l42.9 20.7z" fill="url(#SVGID_25_)"/><linearGradient id="SVGID_26_" gradientUnits="userSpaceOnUse" x1="656.178" y1="456.318" x2="28.899" y2="312.353"><stop offset="0" stopColor="#1980ac"/><stop offset=".132" stopColor="#1977ac"/><stop offset="1" stopColor="#1b3dad"/></linearGradient><path d="M395.8 312.9L132.3 161.6c-1.1-.6-2.2-1-3.2-1.2-70.1-28.7-63.2 27.5-63.2 27.5l54.5 29.4v181.8c0 8.7 5.4 19 12 22.7L395.8 573c6.6 3.8 12-.3 12-9V335.6c0-8.7-5.4-19-12-22.7z" fill="url(#SVGID_26_)"/><path class="st109" d="M354.4 579.5l35.5-22.3c1.3-.8 2-2.2 2-3.6V342.2c0-6.5-3.4-12.6-9-15.9L128.2 175.2c-5-2.9-11-3.4-16.4-1.3l-33.7 13.2c-2.6 1-3.6 4.2-1.9 6.5l278.2 385.9z"/><linearGradient id="SVGID_27_" gradientUnits="userSpaceOnUse" x1="68.443" y1="380.299" x2="385.063" y2="380.299"><stop offset="0" stopColor="#17d1aa"/><stop offset=".066" stopColor="#1ac2ae"/><stop offset=".265" stopColor="#229bb8"/><stop offset=".462" stopColor="#297cc0"/><stop offset=".652" stopColor="#2d66c6"/><stop offset=".835" stopColor="#3059ca"/><stop offset="1" stopColor="#3154cb"/></linearGradient><path d="M347.5 583.9l35.5-22.3c1.3-.8 2-2.2 2-3.6V346.6c0-6.5-3.4-12.6-9-15.9L121.3 179.6c-5-2.9-12.4-3.8-17.8-1.7l-32.4 12.4c-2.6 1-3.5 5.4-1.9 7.7l278.3 385.9z" fill="url(#SVGID_27_)"/><path class="st109" d="M342 587.2l35.4-22.1c1.3-.8 1.7-3.4 1.7-4.8V349c0-6.5-3.4-12.6-9-15.9L115.4 182c-5-2.9-13.3-4.3-18.6-2.2l-31.5 14c-2.6 1-3.6 4.2-1.9 6.5L342 587.2z"/><linearGradient id="SVGID_28_" gradientUnits="userSpaceOnUse" x1="54.437" y1="386.769" x2="371.037" y2="386.769"><stop offset="0" stopColor="#17d1aa"/><stop offset=".066" stopColor="#1ac2ae"/><stop offset=".265" stopColor="#229bb8"/><stop offset=".462" stopColor="#297cc0"/><stop offset=".652" stopColor="#2d66c6"/><stop offset=".835" stopColor="#3059ca"/><stop offset="1" stopColor="#3154cb"/></linearGradient><path d="M335.1 591.8l34.2-21.7c1.3-.8 1.7-2.6 1.7-4.1V352.3c0-6.5-3.4-12.6-9-15.9L107.3 185.3c-5-2.9-12.6-4.7-17.9-2.6l-32.2 14.5c-2.6 1-3.6 4.2-1.9 6.5l279.8 388.1z" fill="url(#SVGID_28_)"/><path class="st109" d="M330.5 595l30.8-19.8c1.3-.8 1.6-2.8 1.6-4.3V355.4c0-6.5-3.4-12.6-9-15.9L99.2 188.4c-5-2.9-11.5-5.3-16.9-3.2l-27.8 11.1c-2.6 1 2.6 6.1 4.2 8.4L330.5 595z"/><linearGradient id="SVGID_29_" gradientUnits="userSpaceOnUse" x1="366.135" y1="332.524" x2="367.402" y2="592.772"><stop offset="0" stopColor="#52fcff" stop-opacity="0"/><stop offset=".086" stopColor="#46d3f0" stop-opacity=".142"/><stop offset=".198" stopColor="#39a5de" stop-opacity=".325"/><stop offset=".306" stopColor="#2f81d1" stop-opacity=".501"/><stop offset=".406" stopColor="#2767c7" stop-opacity=".665"/><stop offset=".495" stopColor="#2357c1" stop-opacity=".812"/><stop offset=".566" stopColor="#2152bf" stop-opacity=".928"/><stop offset=".757" stopColor="#1e48bb" stop-opacity=".96"/><stop offset=".998" stopColor="#1d45ba"/></linearGradient><path d="M340.5 361.5l48.5-29.3s3 3.5 3 8.8v212.9c0 1.3-.7 2.5-1.8 3.2l-35.7 22.4-14-218z" opacity=".5" fill="url(#SVGID_29_)"/><path class="st112" d="M135.2 148.2s-11.5-4.7-23.5-5.7c-24.4-2-65.4 4.5-62.9 56.7l28.9-4.5 8 1.7c-45-25.8 17.7-51 46.6-35l18.5-4.2-15.6-9z"/><path class="st112" d="M331.1 612.9l17.2-9.7c3.9-2.2 6.3-6.5 6.1-11V368.9s.1-17.2-18.3-27.4c-17.4-9.7-263.2-152.3-263.2-152.3s-22.1-8.1-23.4 15.5c-1.3 23.6.8 237.9.8 237.9l280.8 170.3z"/><linearGradient id="SVGID_30_" gradientUnits="userSpaceOnUse" x1="293.228" y1="332.684" x2="343.524" y2="633.773"><stop offset=".003" stopColor="#17d1aa" stop-opacity="0"/><stop offset=".618" stopColor="#1e9aa9" stop-opacity=".616"/><stop offset="1" stopColor="#227da8"/></linearGradient><path d="M331.1 612.9l17.2-9.7c3.9-2.2 6.3-6.5 6.1-11V368.9s.1-17.2-18.3-27.4c-17.4-9.7-34-19.7-34-19.7s-22.1-8.1-23.4 15.5S280 585 280 585l51.1 27.9z" fill="url(#SVGID_30_)"/><g><linearGradient id="SVGID_31_" gradientUnits="userSpaceOnUse" x1="68.399" y1="433.384" x2="312.233" y2="364.515"><stop offset="0" stopColor="#17d1aa"/><stop offset=".066" stopColor="#1ac2ae"/><stop offset=".265" stopColor="#229bb8"/><stop offset=".462" stopColor="#297cc0"/><stop offset=".652" stopColor="#2d66c6"/><stop offset=".835" stopColor="#3059ca"/><stop offset="1" stopColor="#3154cb"/></linearGradient><path d="M324.2 612.1L60.7 460.8c-6.6-3.8-12-14-12-22.7V209.7c-.8-19.4.5-24.9.5-24.9s1.6 7.2 6.8 12.1c1.7 1.6 8.6 6.2 11.1 7.6l257 147.6c6.6 3.8 12 14 12 22.7v228.4c.1 8.7-5.3 12.7-11.9 8.9z" fill="url(#SVGID_31_)"/></g><g><defs><ellipse id="SVGID_214_" transform="rotate(-27.859 241.33 193.091)" cx="241.3" cy="193.1" rx="33.4" ry="53.6"/></defs><clipPath id="SVGID_32_"><use xlink:href="#SVGID_214_" overflow="visible"/></clipPath><g clip-path="url(#SVGID_32_)"><path class="st112" d="M200.2 115.3c1.6 1.2 105.5 94.1 105.5 94.1M196.1 119.8c1.6 1.2 105.5 94.1 105.5 94.1M192 124.3c1.6 1.2 105.5 94.1 105.5 94.1M188 128.8c1.6 1.2 105.5 94.1 105.5 94.1M183.9 133.3c1.6 1.2 105.5 94.1 105.5 94.1M179.8 137.8c1.6 1.2 105.5 94.1 105.5 94.1M175.8 142.3c1.6 1.2 105.5 94.1 105.5 94.1M171.7 146.8c1.6 1.2 105.5 94.1 105.5 94.1M167.6 151.3c1.6 1.2 105.5 94.1 105.5 94.1M163.6 155.8c1.6 1.2 105.5 94.1 105.5 94.1M159.5 160.4c1.6 1.2 105.5 94.1 105.5 94.1"/></g><linearGradient id="SVGID_33_" gradientUnits="userSpaceOnUse" x1="12118.765" y1="-415.854" x2="12118.765" y2="-548.081" gradientTransform="matrix(-1 .1079 0 1 12370.165 -631.561)"><stop offset="0" stopColor="#1d45ba"/><stop offset=".42" stopColor="#1d47ba"/><stop offset=".572" stopColor="#1d4eb9"/><stop offset=".68" stopColor="#1c59b8"/><stop offset=".767" stopColor="#1b6ab6"/><stop offset=".842" stopColor="#1a80b3"/><stop offset=".908" stopColor="#199cb0"/><stop offset=".966" stopColor="#18bbad"/><stop offset="1" stopColor="#17d1aa"/></linearGradient><path d="M207 164.5c0 29.3 19.9 62.7 44.4 74.5 7.9 3.8 15.3 4.9 21.7 3.8l-.4 3 8.8-6.2c.8-.5 1.6-1.1 2.4-1.7l.1-.1c7.3-5.9 11.8-16.4 11.8-30.3 0-29.3-19.9-62.7-44.4-74.5-11.8-5.7-22.5-5.4-30.4-.3l-.3.2c-.3.2-.7.5-1 .7l-9 6.2 3.8-1.2c-4.7 6.2-7.5 15-7.5 25.9zm20.1 9.8c0-16 10.9-23.7 24.3-17.2s24.3 24.8 24.3 40.8c0 16-10.9 23.7-24.3 17.2s-24.3-24.8-24.3-40.8z" fill="url(#SVGID_33_)"/><radialGradient id="SVGID_34_" cx="12111.093" cy="-503.635" r="46.853" gradientTransform="matrix(-1 .1079 0 1 12370.165 -631.561)" gradientUnits="userSpaceOnUse"><stop offset="0" stopColor="#00fcff"/><stop offset=".093" stopColor="#06f8ff"/><stop offset=".218" stopColor="#17ebff"/><stop offset=".362" stopColor="#33d7ff"/><stop offset=".519" stopColor="#5bbaff"/><stop offset=".687" stopColor="#8d96ff"/><stop offset=".862" stopColor="#ca6aff"/><stop offset="1" stopColor="#ff43ff"/></radialGradient><path class="st112" d="M196.9 171.6c0 29.3 19.9 62.7 44.4 74.5 24.5 11.9 44.4-2.2 44.4-31.5s-19.9-62.7-44.4-74.5c-24.5-11.9-44.4 2.2-44.4 31.5zm20.1 9.7c0-16 10.9-23.7 24.3-17.2s24.3 24.8 24.3 40.8c0 16-10.9 23.7-24.3 17.2S217 197.3 217 181.3z"/><path class="st199" d="M241.3 140.5c-24.5-11.9-44.4 2.2-44.4 31.5s19.9 62.7 44.4 74.5c24.5 11.9 44.4-2.2 44.4-31.5s-19.9-62.6-44.4-74.5zm0 82.1c-13.4-6.5-24.3-24.8-24.3-40.8 0-16 10.9-23.7 24.3-17.2s24.3 24.8 24.3 40.8c0 16-10.9 23.7-24.3 17.2z"/><ellipse transform="rotate(-27.859 241.33 193.091)" class="st200" cx="241.3" cy="193.1" rx="33.4" ry="53.6"/><g class="st201"><linearGradient id="SVGID_35_" gradientUnits="userSpaceOnUse" x1="12128.267" y1="-496.488" x2="12144.361" y2="-496.488" gradientTransform="matrix(-1 .1079 0 1 12370.165 -631.561)"><stop offset="0" stopColor="#ff43ff"/><stop offset=".532" stopColor="#00fcff"/><stop offset=".578" stopColor="#05faff"/><stop offset=".636" stopColor="#15f5ff"/><stop offset=".701" stopColor="#2fecff"/><stop offset=".77" stopColor="#54dfff"/><stop offset=".844" stopColor="#82cfff"/><stop offset=".92" stopColor="#bbf"/><stop offset=".998" stopColor="#fda4ff"/><stop offset="1" stopColor="#ffa3ff"/></linearGradient><path d="M232 184.4c-3.4-2.6-6.2-8.1-6.2-12.4v-.4c.1 4.3 2.8 9.7 6.2 12.2l9.9 7.4v.6l-9.9-7.4z" fill="url(#SVGID_35_)"/><linearGradient id="SVGID_36_" gradientUnits="userSpaceOnUse" x1="12134.605" y1="-525.774" x2="12141.693" y2="-525.774" gradientTransform="matrix(-1 .1079 0 1 12370.165 -631.561)"><stop offset="0" stopColor="#ff43ff"/><stop offset=".532" stopColor="#00fcff"/><stop offset=".578" stopColor="#05faff"/><stop offset=".636" stopColor="#15f5ff"/><stop offset=".701" stopColor="#2fecff"/><stop offset=".77" stopColor="#54dfff"/><stop offset=".844" stopColor="#82cfff"/><stop offset=".92" stopColor="#bbf"/><stop offset=".998" stopColor="#fda4ff"/><stop offset="1" stopColor="#ffa3ff"/></linearGradient><path fill="url(#SVGID_36_)" d="M228.5 149.7l7.1 5.2v.6l-7.1-5.3z"/><linearGradient id="SVGID_37_" gradientUnits="userSpaceOnUse" x1="12128.267" y1="-472.697" x2="12144.361" y2="-472.697" gradientTransform="matrix(-1 .1079 0 1 12370.165 -631.561)"><stop offset="0" stopColor="#ff43ff"/><stop offset=".532" stopColor="#00fcff"/><stop offset=".578" stopColor="#05faff"/><stop offset=".636" stopColor="#15f5ff"/><stop offset=".701" stopColor="#2fecff"/><stop offset=".77" stopColor="#54dfff"/><stop offset=".844" stopColor="#82cfff"/><stop offset=".92" stopColor="#bbf"/><stop offset=".998" stopColor="#fda4ff"/><stop offset="1" stopColor="#ffa3ff"/></linearGradient><path d="M225.8 195.4c.1 4.3 2.8 9.7 6.2 12.2l9.9 7.4v.6l-9.9-7.4c-3.4-2.6-6.2-8.1-6.2-12.4v-.4z" fill="url(#SVGID_37_)"/><linearGradient id="SVGID_38_" gradientUnits="userSpaceOnUse" x1="12141.693" y1="-517.36" x2="12150.969" y2="-517.36" gradientTransform="matrix(-1 .1079 0 1 12370.165 -631.561)"><stop offset="0" stopColor="#ff43ff"/><stop offset=".532" stopColor="#00fcff"/><stop offset=".578" stopColor="#05faff"/><stop offset=".636" stopColor="#15f5ff"/><stop offset=".701" stopColor="#2fecff"/><stop offset=".77" stopColor="#54dfff"/><stop offset=".844" stopColor="#82cfff"/><stop offset=".92" stopColor="#bbf"/><stop offset=".998" stopColor="#fda4ff"/><stop offset="1" stopColor="#ffa3ff"/></linearGradient><path d="M228.5 158.6c-5.3-2-9.2 1.1-9.3 8.2v-.3c0-7.3 3.9-10.5 9.3-8.5v.6z" fill="url(#SVGID_38_)"/><linearGradient id="SVGID_39_" gradientUnits="userSpaceOnUse" x1="12128.267" y1="-512.335" x2="12134.605" y2="-512.335" gradientTransform="matrix(-1 .1079 0 1 12370.165 -631.561)"><stop offset="0" stopColor="#ff43ff"/><stop offset=".532" stopColor="#00fcff"/><stop offset=".578" stopColor="#05faff"/><stop offset=".636" stopColor="#15f5ff"/><stop offset=".701" stopColor="#2fecff"/><stop offset=".77" stopColor="#54dfff"/><stop offset=".844" stopColor="#82cfff"/><stop offset=".92" stopColor="#bbf"/><stop offset=".998" stopColor="#fda4ff"/><stop offset="1" stopColor="#ffa3ff"/></linearGradient><path fill="url(#SVGID_39_)" d="M241.9 167.9l-6.3-4.7v-.6l6.3 4.8z"/><linearGradient id="SVGID_40_" gradientUnits="userSpaceOnUse" x1="12115.823" y1="-453.714" x2="12121.179" y2="-453.714" gradientTransform="matrix(-1 .1079 0 1 12370.165 -631.561)"><stop offset="0" stopColor="#ff43ff"/><stop offset=".532" stopColor="#00fcff"/><stop offset=".578" stopColor="#05faff"/><stop offset=".636" stopColor="#15f5ff"/><stop offset=".701" stopColor="#2fecff"/><stop offset=".77" stopColor="#54dfff"/><stop offset=".844" stopColor="#82cfff"/><stop offset=".92" stopColor="#bbf"/><stop offset=".998" stopColor="#fda4ff"/><stop offset="1" stopColor="#ffa3ff"/></linearGradient><path fill="url(#SVGID_40_)" d="M249 220.2l5.3 4v.6l-5.3-4z"/><linearGradient id="SVGID_41_" gradientUnits="userSpaceOnUse" x1="12146.729" y1="-493.401" x2="12150.969" y2="-493.401" gradientTransform="matrix(-1 .1079 0 1 12370.165 -631.561)"><stop offset="0" stopColor="#ff43ff"/><stop offset=".532" stopColor="#00fcff"/><stop offset=".578" stopColor="#05faff"/><stop offset=".636" stopColor="#15f5ff"/><stop offset=".701" stopColor="#2fecff"/><stop offset=".77" stopColor="#54dfff"/><stop offset=".844" stopColor="#82cfff"/><stop offset=".92" stopColor="#bbf"/><stop offset=".998" stopColor="#fda4ff"/><stop offset="1" stopColor="#ffa3ff"/></linearGradient><path d="M223.2 181.6c.1.1.1.3.2.5-2.6 1-4.2 3.9-4.2 8.5v-.3c0-4.6 1.5-7.6 4-8.7z" fill="url(#SVGID_41_)"/><linearGradient id="SVGID_42_" gradientUnits="userSpaceOnUse" x1="12121.179" y1="-514.315" x2="12128.267" y2="-514.315" gradientTransform="matrix(-1 .1079 0 1 12370.165 -631.561)"><stop offset="0" stopColor="#ff43ff"/><stop offset=".532" stopColor="#00fcff"/><stop offset=".578" stopColor="#05faff"/><stop offset=".636" stopColor="#15f5ff"/><stop offset=".701" stopColor="#2fecff"/><stop offset=".77" stopColor="#54dfff"/><stop offset=".844" stopColor="#82cfff"/><stop offset=".92" stopColor="#bbf"/><stop offset=".998" stopColor="#fda4ff"/><stop offset="1" stopColor="#ffa3ff"/></linearGradient><path fill="url(#SVGID_42_)" d="M241.9 159.7l7.1 5.2v.6l-7.1-5.3z"/><linearGradient id="SVGID_43_" gradientUnits="userSpaceOnUse" x1="12115.823" y1="-501.296" x2="12121.179" y2="-501.296" gradientTransform="matrix(-1 .1079 0 1 12370.165 -631.561)"><stop offset="0" stopColor="#ff43ff"/><stop offset=".532" stopColor="#00fcff"/><stop offset=".578" stopColor="#05faff"/><stop offset=".636" stopColor="#15f5ff"/><stop offset=".701" stopColor="#2fecff"/><stop offset=".77" stopColor="#54dfff"/><stop offset=".844" stopColor="#82cfff"/><stop offset=".92" stopColor="#bbf"/><stop offset=".998" stopColor="#fda4ff"/><stop offset="1" stopColor="#ffa3ff"/></linearGradient><path fill="url(#SVGID_43_)" d="M249 172.7l5.3 3.9v.6l-5.3-4z"/></g></g><g><path class="st107" d="M257.2 230.5l-8.3-28.6-21.4-13.1c-2.4 6-5.5 13.3-8.1 19.4-.2.4-.7.4-1.3.1-.8-.5-1-.8-1-1.6v-.3l18.8-45.3c.5-1.1 2-1.9 3.3-1.2 1.5.9 2.1 2.5 2.5 4.3l18 64.7c.4 1.2.9 3-.2 3.2-1.3.6-2.1-.6-2.3-1.6zm-17.7-63.4c-.9-3-1.6-3.8-2.3-1.9l-8.6 21.5 19.5 11.9-8.6-31.5z"/><path class="st107" d="M259.3 208.7l-41.1-25.2c-.4-.3-.8-.9-.8-1.4v-1.3c0-.5.3-.8.8-.5l41.1 25.2c.4.3.8.9.8 1.4v1.3c0 .5-.3.7-.8.5zM255.6 195.3l-33.7-20.6c-.4-.3-.8-.9-.8-1.4V172c0-.5.3-.8.8-.5l33.7 20.6c.4.3.8.9.8 1.4v1.3c0 .5-.4.7-.8.5z"/></g><g><path class="st109" d="M209.9 337.3l-3.1.4c-7.7-9.7-15.3-19.3-23-29v-1.5-2.8c8.7 11 17.4 22 26.1 32.9zM203.5 313.2c-1.4.2-2.8.3-4.2.5-.2 0-.3 0-.5-.3-1.7-2.2-3.4-4.3-5.2-6.5l-5.4-6.9c-.9-1.1-1.7-2.2-2.6-3.2l-6.2-3.5c.3.4.6.8.9 1.1 1.6 2 3.2 4.1 4.9 6.1 1.6 2 3.2 4.1 4.8 6.1l4.5 5.7c1.4 1.8 2.9 3.6 4.3 5.4.2.2.3.3.4.2 1.2-.1 2.3-.2 3.5-.4 2.9-.3 5.7-.7 8.6-1 2.1-.2 4.2-.5 6.2-.7.4 0 .9-.1 1.3-.2l-6.2-3.6c-3 .5-6 .8-9.1 1.2zM183.8 315v4.3c5.1 6.4 10.2 12.9 15.4 19.4l3.1-.4c-6.2-7.8-12.3-15.6-18.5-23.3zM214.5 321.9c-3.8.5-7.6.9-11.4 1.4.1.1.1.2.1.2 1 1.2 1.9 2.5 2.9 3.7l.1.1c2.8-.3 5.5-.7 8.3-1V321.9zM214.5 332.6c-1.3.2-2.5.3-3.8.5 1 1.3 2 2.5 3 3.8l.8-.1v-4.2zM186.2 340.9l.6.3-3.4 3.4v4.4l-.5-.3v-4.4l-3.4-7.2.6.3 3 6.5 3.1-3zM192.1 354c-1.4-.8-2.5-1.9-3.4-3.4-.9-1.4-1.3-2.9-1.3-4.3s.4-2.3 1.3-2.7c.9-.4 2-.3 3.4.5 1.3.8 2.5 1.9 3.4 3.3.9 1.4 1.4 2.9 1.4 4.3s-.5 2.4-1.4 2.8c-.9.4-2.1.3-3.4-.5zm0-.5c1.2.7 2.2.8 3 .5.8-.4 1.2-1.2 1.2-2.5s-.4-2.6-1.2-3.9c-.8-1.3-1.8-2.3-3-2.9-1.3-.7-2.3-.9-3.1-.5-.8.4-1.2 1.2-1.2 2.5 0 1.2.4 2.5 1.2 3.8.8 1.3 1.8 2.3 3.1 3zM205.2 361.4l-.6-.3-2.9-5.7-2.4-1.4v4.1l-.5-.3v-9.7l3.2 1.8c1 .6 1.8 1.3 2.3 2.1.5.8.8 1.6.8 2.5 0 .9-.3 1.4-.8 1.6-.5.2-1.2.1-2-.4l2.9 5.7zm-5.9-12.5v4.7l2.5 1.4c1.8 1 2.8.8 2.8-.8 0-.8-.2-1.5-.7-2.1-.4-.6-1.1-1.2-1.8-1.6l-2.8-1.6zM211.3 365c-1.4-.8-2.5-1.9-3.4-3.4-.9-1.4-1.3-2.9-1.3-4.3s.4-2.3 1.3-2.7c.9-.4 2-.3 3.4.5 1.3.8 2.5 1.9 3.4 3.3.9 1.4 1.4 2.9 1.4 4.3s-.5 2.4-1.4 2.8c-.9.4-2 .2-3.4-.5zm0-.5c1.2.7 2.2.8 3 .5.8-.4 1.2-1.2 1.2-2.5s-.4-2.6-1.2-3.9c-.8-1.3-1.8-2.3-3-2.9-1.3-.7-2.3-.9-3.1-.5-.8.4-1.2 1.2-1.2 2.5 0 1.2.4 2.5 1.2 3.8.9 1.3 1.9 2.3 3.1 3zM218.2 368.8v-9.7l.5.3v9.7l-.5-.3zM195.5 359l.2.1-.8 1.9-.2-.1-.7-2.5-.7 1.7-.2-.1-.8-2.8.2.1.7 2.5.7-1.7.2.1.7 2.5.7-1.7zM198.2 360.6l.2.1v2.4l-.2-.1v-.5c-.2.2-.5.2-1 0-.3-.2-.6-.5-.8-.8-.2-.3-.3-.7-.3-1.1 0-.4.1-.6.3-.7.2-.1.5-.1.8.1.2.1.4.3.6.5s.3.4.4.6v-.5zm-.9 1.7c.3.2.5.2.7.1.2-.1.3-.3.3-.6s-.1-.6-.3-.9c-.2-.3-.4-.5-.7-.7-.3-.2-.5-.2-.7-.1-.2.1-.3.3-.3.6s.1.6.3.9c.1.3.4.5.7.7zM199.4 363.7v-3.6l.2.1v3.6l-.2-.1zM200.7 364.4v-3.6l.2.1v3.6l-.2-.1zM203.9 365l-2-1c0 .3.1.6.3.9.2.3.4.5.7.7.3.2.6.2.8.1l.1.2c-.2.2-.5.1-.9-.1-.3-.2-.6-.5-.8-.8-.2-.3-.3-.7-.3-1.1 0-.4.1-.6.3-.7.2-.1.5-.1.8.1.3.2.6.4.8.8.1.2.2.5.2.9zm-1.1-1.6c-.2-.1-.5-.2-.6-.1-.2.1-.3.2-.3.5l1.8 1c0-.3-.1-.6-.3-.8-.1-.3-.3-.5-.6-.6zM205.3 367c-.2-.1-.4-.3-.4-.4-.1-.2-.1-.3-.1-.6v-1.6l-.3-.2v-.2l.3.2v-.8l.2.1v.9l.9.5v.2l-.9-.5v1.5c0 .2 0 .4.1.5l.3.3c.2.1.3.1.5.1v.2c-.2 0-.4 0-.6-.2zM179.3 351.4l12.2 6.9M206.6 366.9l12.2 7"/></g><path class="st109" d="M432.7 388.9l-9.7-3.2.3 3.2-87.1 49.1-23.6-12.9s-19.7-7.8-34.6 14.6l58 11.8 96.7-62.6z"/><linearGradient id="SVGID_44_" gradientUnits="userSpaceOnUse" x1="273.771" y1="472.644" x2="336.182" y2="472.644"><stop offset="0" stopColor="#17d1aa"/><stop offset=".409" stopColor="#1eadb3"/><stop offset="1" stopColor="#287fbf"/></linearGradient><path d="M336.2 517.1L299 496.5c-15.5-8.6-25.2-25-25.2-42.7 0-19.5 20.9-31.8 38-22.4l24.4 13.5v72.2z" fill="url(#SVGID_44_)"/><linearGradient id="SVGID_45_" gradientUnits="userSpaceOnUse" x1="306.833" y1="445.073" x2="308.703" y2="480.288"><stop offset="0" stopColor="#17d1aa"/><stop offset=".138" stopColor="#1daeb2"/><stop offset=".321" stopColor="#2487bb"/><stop offset=".502" stopColor="#2a68c2"/><stop offset=".678" stopColor="#2e52c7"/><stop offset=".846" stopColor="#3045ca"/><stop offset=".998" stopColor="#3140cb"/></linearGradient><path d="M322.5 471c0 8.3-6.5 12.6-14.6 9.5s-14.6-12.4-14.6-20.7c0-8.3 6.5-12.6 14.6-9.5s14.6 12.4 14.6 20.7z" fill="url(#SVGID_45_)"/><linearGradient id="SVGID_46_" gradientUnits="userSpaceOnUse" x1="344.94" y1="431.327" x2="421.8" y2="473.536"><stop offset="0" stopColor="#17d1aa"/><stop offset=".138" stopColor="#1daeb2"/><stop offset=".321" stopColor="#2487bb"/><stop offset=".502" stopColor="#2a68c2"/><stop offset=".678" stopColor="#2e52c7"/><stop offset=".846" stopColor="#3045ca"/><stop offset=".998" stopColor="#3140cb"/></linearGradient><path fill="url(#SVGID_46_)" d="M432.7 461.1l-96.5 56.1V445l96.5-56.1z"/><g><linearGradient id="SVGID_47_" gradientUnits="userSpaceOnUse" x1="103.693" y1="394.991" x2="263.218" y2="394.991"><stop offset="0" stopColor="#17d1aa"/><stop offset=".142" stopColor="#19c9ac"/><stop offset=".368" stopColor="#1db2b2"/><stop offset=".648" stopColor="#258cbc"/><stop offset=".97" stopColor="#3059ca"/><stop offset="1" stopColor="#3154cb"/></linearGradient><path d="M106 364.9l154.2 88.9c1.2.7 2.7 1.4 3 0 0-.2.1-.4.1-.6v-23.3c0-1.8-1.1-3.9-2.5-4.7l-155.1-89.6c-.1-.1-.2-.1-.4-.2-1.2-.5-1.5 1.1-1.5 2.7l-.1 22.1c0 1.9 1 4 2.3 4.7z" fill="url(#SVGID_47_)"/><linearGradient id="SVGID_48_" gradientUnits="userSpaceOnUse" x1="103.172" y1="395.35" x2="263.167" y2="395.35"><stop offset="0" stopColor="#3154cb"/><stop offset=".03" stopColor="#3059ca"/><stop offset=".352" stopColor="#258cbc"/><stop offset=".632" stopColor="#1db2b2"/><stop offset=".858" stopColor="#19c9ac"/><stop offset="1" stopColor="#17d1aa"/></linearGradient><path d="M105.3 335.4c0 .2-.1.4-.1.6v23.3c0 1.8 1.1 3.9 2.5 4.7l155.1 89.6c.1.1.2.1.4.2-.2 1.4-1.2 1.9-2.4 1.2l-155.1-89.6c-1.4-.8-2.5-2.9-2.5-4.7v-23.3c0-1.6.9-2.4 2.1-2z" fill="url(#SVGID_48_)"/></g><g><linearGradient id="SVGID_49_" gradientUnits="userSpaceOnUse" x1="103.693" y1="448.072" x2="263.218" y2="448.072"><stop offset="0" stopColor="#17d1aa"/><stop offset=".142" stopColor="#19c9ac"/><stop offset=".368" stopColor="#1db2b2"/><stop offset=".648" stopColor="#258cbc"/><stop offset=".97" stopColor="#3059ca"/><stop offset="1" stopColor="#3154cb"/></linearGradient><path d="M106 418l154.2 88.9c1.2.7 2.7 1.4 3 0 0-.2.1-.4.1-.6V483c0-1.8-1.1-3.9-2.5-4.7l-155.1-89.6c-.1-.1-.2-.1-.4-.2-1.2-.5-1.5 1.1-1.5 2.7l-.1 22.1c0 1.9 1 3.9 2.3 4.7z" fill="url(#SVGID_49_)"/><linearGradient id="SVGID_50_" gradientUnits="userSpaceOnUse" x1="114.733" y1="391.033" x2="315.805" y2="598.34"><stop offset="0" stopColor="#3154cb"/><stop offset=".112" stopColor="#2d67c6"/><stop offset=".353" stopColor="#258dbc"/><stop offset=".632" stopColor="#1db2b2"/><stop offset=".858" stopColor="#19c9ac"/><stop offset="1" stopColor="#17d1aa"/></linearGradient><path d="M105.3 388.5c0 .2-.1.4-.1.6v23.3c0 1.8 1.1 3.9 2.5 4.7l155.1 89.6c.1.1.2.1.4.2-.2 1.4-1.2 1.9-2.4 1.2l-155.1-89.6c-1.4-.8-2.5-2.9-2.5-4.7v-23.3c0-1.6.9-2.4 2.1-2z" fill="url(#SVGID_50_)"/><g opacity=".7"><path class="st354" d="M218.9 472.2l-1.9 3.6-3.6-4.5 2.7-2.8-4.1-4.2 1.3-3.5 3.7 4.5-.5-5.4 4.5 2.6-.5 4.8 3.7-.2 1.4 5-4-.5 2.7 6-3.5.4-1.9-5.8zM201 461.9l-1.9 3.6-3.6-4.5 2.7-2.8-4.1-4.2 1.3-3.5 3.7 4.5-.5-5.4 4.5 2.6-.5 4.8 3.7-.2 1.4 5-4-.5 2.7 6-3.5.4-1.9-5.8zM183.2 451.6l-1.9 3.6-3.6-4.5 2.7-2.8-4.1-4.2 1.3-3.5 3.7 4.5-.5-5.4 4.5 2.6-.5 4.8 3.7-.2 1.4 5-4-.5 2.7 6-3.5.4-1.9-5.8zM165.4 441.3l-1.9 3.6-3.6-4.5 2.7-2.8-4.1-4.2 1.3-3.5 3.7 4.5-.5-5.4 4.5 2.6-.5 4.8 3.7-.2 1.4 5-4-.5 2.7 6-3.5.4-1.9-5.8zM147.6 431l-1.9 3.6-3.6-4.5 2.7-2.8-4.1-4.2 1.3-3.5 3.7 4.5-.5-5.4 4.5 2.6-.5 4.8 3.7-.2 1.4 5-4-.5 2.7 6-3.5.4-1.9-5.8z"/></g></g><g opacity=".5"><path class="st354" d="M144.3 378.4c-.1-.1-.1-.2-.1-.3v-3l-3.2-7.9v-.2c0-.1 0-.1.1-.1h.2l1.8 1.1.3.3c.1.1.1.2.2.3l1.9 4.7 1.9-2.4c0-.1.1-.1.2-.1s.2 0 .3.1l1.8 1.1c.1 0 .1.1.2.2s.1.2.1.3v.1l-3.2 4.1v3c0 .1 0 .2-.1.2s-.2 0-.3-.1l-1.9-1.1c-.1-.1-.2-.2-.2-.3zM150.6 381.6c-.6-.9-1-1.9-1-2.9v-.6-.6c.1-1 .4-1.5 1.1-1.7.6-.2 1.5.1 2.7.7 1.1.7 2 1.5 2.7 2.4.6.9 1 1.9 1.1 2.9v1.2c-.1 1-.4 1.6-1 1.7-.6.2-1.5-.1-2.7-.8-1.3-.6-2.2-1.4-2.9-2.3zm3.6.8c.2-.1.3-.4.3-.9v-.6-.6c0-.5-.1-.9-.3-1.3-.2-.4-.5-.6-.9-.9s-.7-.3-.9-.1c-.2.1-.3.4-.3.9v1.2c0 .5.1.9.3 1.3.2.3.5.6.9.9s.7.2.9.1zM158.6 386.8c-.1-.1-.1-.2-.1-.3v-6.6c0-.1 0-.2.1-.2h.3l1.7 1c.1.1.2.1.3.3.1.1.1.2.1.3v.5c.3-.1.6-.2.9-.1.4.1.7.2 1.2.5l.6.4c.1.1.2.1.3.2s.1.2.1.3v1.5c0 .1 0 .2-.1.2h-.3l-1.4-.8c-.4-.2-.7-.3-.9-.2-.2.1-.3.3-.3.7v3.5c0 .1 0 .2-.1.2s-.2 0-.3-.1l-1.8-1.1c-.2 0-.3-.1-.3-.2zM165.6 390.4c-.6-.9-1-1.9-1-2.9v-.6-.6c.1-1 .4-1.5 1.1-1.7.6-.2 1.5.1 2.7.7 1.1.7 2 1.5 2.7 2.4.6.9 1 1.9 1.1 2.9v1.2c-.1 1-.4 1.6-1 1.7-.6.2-1.5-.1-2.7-.8-1.3-.6-2.2-1.4-2.9-2.3zm3.6.8c.2-.1.3-.4.3-.9v-.6-.6c0-.5-.1-.9-.3-1.3-.2-.4-.5-.6-.9-.9s-.7-.3-.9-.1c-.2.1-.3.4-.3.9v1.2c0 .5.1.9.3 1.3.2.3.5.6.9.9.4.2.7.2.9.1zM173.6 387.3c-.1-.1-.1-.2-.1-.3v-1.3c0-.1 0-.2.1-.2h.2l1.8 1c.1.1.2.1.3.3.1.1.1.2.1.3v1.3c0 .1 0 .2-.1.2h-.3l-1.8-1c-.1-.1-.2-.2-.2-.3zm0 8.3c-.1-.1-.1-.2-.1-.3v-6.6c0-.1 0-.2.1-.2h.2l1.8 1c.1.1.2.1.3.3.1.1.1.2.1.3v6.6c0 .1 0 .2-.1.2s-.2 0-.3-.1l-1.8-1c-.1 0-.2-.1-.2-.2zM181.7 400.3c-.1-.1-.2-.3-.2-.4l-1.5-9.8v-.1c0-.1 0-.1.1-.2h.2l1.8 1.1c.3.2.4.4.4.6l.9 5.8 1-2.5c.1-.2.2-.2.5-.1l1.1.6c.2.1.4.4.5.6l1 3.6.9-4.8c0-.1.1-.2.1-.2.1 0 .2 0 .3.1l1.8 1.1c.1 0 .2.1.2.2.1.1.1.2.1.3v.1l-1.5 8.1c0 .1-.1.2-.2.2s-.2 0-.4-.1l-1.4-.8c-.1-.1-.3-.2-.4-.3-.1-.1-.1-.2-.2-.4l-1.4-4.7-1.4 3.1c0 .1-.1.1-.2.1s-.2 0-.4-.1l-1.4-.8c-.1 0-.2-.1-.3-.3zM192.6 406.7c-.4-.4-.7-.9-1-1.4-.2-.5-.3-.9-.3-1.3 0-.6.3-1 .8-1.1.5-.1 1.3.1 2.2.5l1.7.8v-.2c0-.3-.1-.6-.2-.9s-.4-.5-.7-.7c-.2-.1-.3-.2-.5-.2h-.7-.1l-1.6-1c-.1-.1-.2-.1-.2-.2-.1-.1-.1-.2-.1-.3 0-.2.1-.5.4-.6.2-.2.6-.2 1.1-.2s1.1.3 1.8.7c1.2.7 2 1.4 2.6 2.3s.8 1.7.8 2.6v4.2c0 .1 0 .2-.1.2h-.3l-1.7-1c-.1-.1-.2-.1-.2-.2-.1-.1-.1-.2-.1-.3v-.5c-.2.2-.5.2-.9.2s-.8-.2-1.3-.5c-.5-.1-1-.4-1.4-.9zm3.1 0c.3-.1.4-.4.4-1v-.2l-1.2-.5c-.8-.3-1.2-.3-1.2.2 0 .2.1.4.3.7.2.2.4.4.7.6.4.3.7.4 1 .2zM200.2 411.2c-.1-.1-.1-.2-.1-.3v-9.2c0-.1 0-.2.1-.2s.2 0 .3.1l1.8 1c.1.1.2.1.3.2.1.1.1.2.1.3v9.2c0 .1 0 .2-.1.2h-.3l-1.8-1c-.2-.1-.3-.2-.3-.3zM204.2 413.6c-.1-.1-.1-.2-.1-.3V404c0-.1 0-.2.1-.2s.2 0 .3.1l1.8 1c.1.1.2.1.3.2.1.1.1.2.1.3v9.2c0 .1 0 .2-.1.2h-.3l-1.8-1c-.1 0-.2-.1-.3-.2zM208.9 415.7c-.7-1-1-2.1-1-3.3v-.4c0-1.1.4-1.8 1-2 .7-.2 1.5 0 2.6.6.8.5 1.5 1 2 1.7.6.6 1 1.3 1.2 2.1.3.7.4 1.5.4 2.2v.3c0 .1 0 .2-.1.2h-.3l-4.4-2.6v.1c0 .4.1.8.3 1.2.2.4.5.7.8.9.2.1.4.2.5.2.1 0 .3 0 .4-.1.1 0 .2-.1.2-.1.1 0 .1 0 .2.1l1.8 1.1c.1 0 .2.1.2.2s.1.2.1.2c0 .2-.1.4-.4.6-.3.2-.7.2-1.2.1s-1.2-.3-1.9-.7c-.8-.8-1.7-1.6-2.4-2.6zm3.8-1.4c0-.5-.1-.9-.3-1.2-.2-.4-.5-.6-.8-.9-.4-.2-.6-.2-.8-.1-.2.1-.3.4-.3.9l2.2 1.3zM217.4 418.6V416l-1.1-.6c-.1-.1-.2-.1-.2-.2-.1-.1-.1-.2-.1-.3v-1.2c0-.1 0-.2.1-.2h.2l1.1.6v-2.3c0-.1 0-.2.1-.2h.2l1.7 1c.1.1.2.1.3.2.1.1.1.2.1.3v2.3l1.8 1c.1.1.2.1.3.2.1.1.1.2.1.3v1.2c0 .1 0 .2-.1.2s-.2 0-.3-.1l-1.8-1v2.4c0 .3.1.6.2.8s.3.4.6.6l1.1.6c.1.1.2.1.3.3.1.1.1.2.1.3v1.3c0 .1 0 .2-.1.2h-.3l-1.3-.8c-2-.9-3-2.4-3-4.3z"/></g></g></g></switch></svg>