<svg width="280" height="328" viewBox="0 0 280 328" fill="none" xmlns="http://www.w3.org/2000/svg">
<path d="M103.102 34.7559C103.524 35.0801 130.248 58.6564 130.248 58.6564ZM102.024 35.9138C102.446 36.2381 129.169 59.8144 129.169 59.8144ZM100.992 37.0718C101.414 37.396 128.138 60.9724 128.138 60.9724ZM99.9609 38.2298C100.336 38.5077 127.06 62.1304 127.06 62.1304ZM98.8825 39.3414C99.3045 39.6657 126.028 63.2883 126.028 63.2883ZM97.8511 40.4994C98.273 40.8236 124.997 64.4 124.997 64.4ZM96.8196 41.6574C97.2416 41.9816 123.965 65.558 123.965 65.558ZM95.7413 42.8154C96.1633 43.1396 122.887 66.7159 122.887 66.7159ZM94.7099 43.927C95.1318 44.2512 121.856 67.8276 121.856 67.8276ZM93.6784 45.085C94.1004 45.4092 120.824 68.9856 120.824 68.9856ZM92.6001 46.243C93.0221 46.5672 119.746 70.1435 119.746 70.1435Z" fill="#17D1AA"/>
<path d="M104.837 47.3012C104.837 54.7585 109.947 63.2349 116.277 66.2456C118.293 67.2183 120.215 67.4962 121.856 67.2183L121.762 67.9594L124.012 66.3846C124.247 66.2456 124.434 66.1067 124.622 65.9677L124.669 65.9214C126.544 64.4392 127.716 61.7527 127.716 58.2324C127.716 50.7751 122.606 42.2987 116.277 39.288C113.229 37.8521 110.51 37.8984 108.447 39.1954L108.353 39.2417C108.259 39.288 108.166 39.3806 108.072 39.427L105.775 41.0018L106.759 40.7239C105.54 42.2987 104.837 44.522 104.837 47.3012V47.3012ZM109.994 49.7561C109.994 45.68 112.807 43.7346 116.23 45.3558C119.699 47.0233 122.465 51.6552 122.465 55.7312C122.465 59.8073 119.652 61.7527 116.23 60.1315C112.807 58.464 109.994 53.8321 109.994 49.7561V49.7561Z" fill="url(#paint0_linear_3401_157872)"/>
<path d="M102.256 49.0617C102.256 56.5191 107.366 64.9954 113.696 68.0062C119.978 71.0169 125.135 67.4504 125.135 59.993C125.135 52.5357 120.025 44.0593 113.696 41.0486C107.366 38.0378 102.256 41.6507 102.256 49.0617V49.0617ZM107.413 51.563C107.413 47.4869 110.226 45.5415 113.649 47.1627C117.118 48.8301 119.931 53.462 119.931 57.5381C119.931 61.6142 117.118 63.5596 113.696 61.9384C110.226 60.2709 107.413 55.639 107.413 51.563V51.563Z" fill="#17D1AA"/>
<path d="M113.649 41.1855C107.367 38.1748 102.209 41.7413 102.209 49.1987C102.209 56.656 107.32 65.1324 113.649 68.1431C119.932 71.1539 125.089 67.5873 125.089 60.1299C125.089 52.6726 119.978 44.1962 113.649 41.1855V41.1855ZM113.649 62.029C110.18 60.3615 107.414 55.7297 107.414 51.6536C107.414 47.5775 110.227 45.6321 113.649 47.2533C117.119 48.9208 119.932 53.599 119.932 57.675C119.932 61.7511 117.119 63.6965 113.649 62.029V62.029Z" fill="#163FA5"/>
<path opacity="0.7" d="M120.084 66.575C124.274 64.3874 124.786 57.2238 121.229 50.5745C117.671 43.9253 111.391 40.3085 107.202 42.496C103.013 44.6836 102.501 51.8473 106.058 58.4965C109.615 65.1457 115.895 68.7626 120.084 66.575Z" fill="#52FCFF"/>
<path d="M117.729 64.0696L115.573 56.7975L110.087 53.4626C109.478 54.9911 108.681 56.8439 108.025 58.3724C107.978 58.465 107.837 58.465 107.696 58.3724C107.509 58.2334 107.462 58.1871 107.462 57.9555L112.291 46.4684C112.432 46.1905 112.807 45.9589 113.135 46.1905C113.51 46.4221 113.697 46.839 113.791 47.2558L118.433 63.6991C118.526 64.0233 118.667 64.4402 118.386 64.5328C118.011 64.6254 117.823 64.3012 117.729 64.0696V64.0696ZM113.182 47.9506C112.947 47.2095 112.76 46.9779 112.572 47.4874L110.369 52.9531L115.385 55.9638L113.182 47.9506Z" fill="#1D45BA"/>
<path d="M118.294 58.5088L107.698 52.1168C107.604 52.0705 107.51 51.8852 107.51 51.7463V51.422C107.51 51.2831 107.604 51.2368 107.698 51.2831L118.294 57.6751C118.387 57.7214 118.481 57.9067 118.481 58.0457V58.3699C118.481 58.5088 118.387 58.5552 118.294 58.5088ZM117.356 55.0812L108.682 49.8472C108.589 49.8009 108.495 49.6156 108.495 49.4767V49.1524C108.495 49.0135 108.589 48.9671 108.682 49.0135L117.356 54.2475C117.45 54.2938 117.543 54.4791 117.543 54.6181V54.9423C117.543 55.1276 117.45 55.1739 117.356 55.0812Z" fill="#1D45BA"/>
<path d="M198.93 21.7344C199.446 22.1512 233.999 52.6754 233.999 52.6754ZM197.571 23.2166C198.086 23.6335 232.64 54.1576 232.64 54.1576ZM196.211 24.6988C196.727 25.1157 231.28 55.6398 231.28 55.6398ZM194.851 26.181C195.367 26.5979 229.92 57.122 229.92 57.122ZM193.492 27.6632C194.007 28.0801 228.561 58.6042 228.561 58.6042ZM192.132 29.1454C192.648 29.5623 227.201 60.0865 227.201 60.0865ZM190.819 30.6276C191.335 31.0445 225.888 61.5687 225.888 61.5687ZM189.46 32.1098C189.975 32.5267 224.529 63.0509 224.529 63.0509ZM188.1 33.592C188.616 34.0089 223.169 64.5331 223.169 64.5331ZM186.74 35.0742C187.256 35.4911 221.81 66.0153 221.81 66.0153ZM185.381 36.5564C185.897 36.9733 220.45 67.4975 220.45 67.4975Z" fill="#17D1AA"/>
<path d="M201.182 37.9448C201.182 47.5792 207.793 58.5104 215.951 62.4475C218.576 63.6982 221.014 64.0687 223.171 63.6982L223.03 64.6709L225.937 62.6328C226.218 62.4475 226.452 62.2623 226.734 62.077L226.781 62.0307C229.219 60.0853 230.719 56.6577 230.719 52.0721C230.719 42.4378 224.108 31.5065 215.951 27.5694C212.059 25.6703 208.496 25.8093 205.824 27.4767L205.73 27.5694C205.636 27.662 205.495 27.7083 205.402 27.801L202.401 29.839L203.667 29.4685C202.12 31.4602 201.182 34.3319 201.182 37.9448V37.9448ZM207.887 41.1408C207.887 35.8605 211.497 33.3592 215.951 35.4899C220.404 37.6206 224.015 43.6421 224.015 48.9224C224.015 54.2028 220.404 56.704 215.951 54.5733C211.497 52.3963 207.887 46.3749 207.887 41.1408V41.1408Z" fill="url(#paint1_linear_3401_157872)"/>
<path d="M197.853 40.2168C197.853 49.8512 204.464 60.7825 212.621 64.7196C220.779 68.6104 227.39 63.9785 227.39 54.3904C227.39 44.7561 220.779 33.8248 212.621 29.8877C204.464 25.9969 197.853 30.6288 197.853 40.2168ZM204.511 43.4592C204.511 38.1788 208.121 35.6776 212.575 37.8083C217.028 39.9389 220.639 45.9604 220.639 51.2408C220.639 56.5211 217.028 59.0223 212.575 56.8917C208.121 54.7147 204.511 48.6932 204.511 43.4592Z" fill="#17D1AA"/>
<path d="M212.621 30.0713C204.464 26.1805 197.853 30.8124 197.853 40.4004C197.853 50.0348 204.464 60.966 212.621 64.9032C220.779 68.7939 227.39 64.1621 227.39 54.574C227.343 44.9397 220.732 33.9621 212.621 30.0713V30.0713ZM212.621 56.9826C208.167 54.8519 204.557 48.8305 204.557 43.5501C204.557 38.2698 208.167 35.7685 212.621 37.8992C217.075 40.0299 220.685 46.0513 220.685 51.3317C220.685 56.6121 217.075 59.1596 212.621 56.9826Z" fill="#163FA5"/>
<path opacity="0.7" d="M220.94 62.8579C226.365 60.0248 227.036 50.7611 222.438 42.1669C217.84 33.5726 209.714 28.9023 204.289 31.7354C198.864 34.5685 198.193 43.8322 202.791 52.4265C207.389 61.0207 215.514 65.691 220.94 62.8579Z" fill="#52FCFF"/>
<path d="M217.874 59.62L215.108 50.2173L208.028 45.9096C207.231 47.855 206.2 50.3099 205.356 52.2553C205.262 52.3943 205.122 52.3943 204.934 52.3016C204.653 52.1627 204.606 52.07 204.606 51.7921V51.6995L210.841 36.8311C211.029 36.4606 211.498 36.1826 211.92 36.4606C212.389 36.7385 212.623 37.2943 212.764 37.8501L218.765 59.1105C218.906 59.4811 219.093 60.0832 218.718 60.1759C218.202 60.3148 217.968 59.9443 217.874 59.62V59.62ZM212.014 38.7765C211.732 37.8038 211.498 37.5259 211.263 38.1744L208.404 45.2612L214.874 49.1983L212.014 38.7765V38.7765Z" fill="#1D45BA"/>
<path d="M218.577 52.4436L204.887 44.1988C204.746 44.1062 204.652 43.9209 204.652 43.7356V43.3187C204.652 43.1335 204.746 43.0871 204.887 43.1335L218.577 51.3782C218.717 51.4709 218.811 51.6561 218.811 51.8414V52.2583C218.858 52.4436 218.717 52.5362 218.577 52.4436ZM217.358 48.0433L206.153 41.2807C206.012 41.1881 205.918 41.0028 205.918 40.8175V40.3543C205.918 40.1691 206.012 40.1227 206.153 40.169L217.358 46.9316C217.498 47.0243 217.592 47.2095 217.592 47.3948V47.8117C217.592 48.0433 217.498 48.1359 217.358 48.0433V48.0433Z" fill="#1D45BA"/>
<path d="M213.464 288.438L219.793 284.918C221.622 283.899 222.747 281.907 222.653 279.822V176.392C222.653 176.392 222.7 168.425 214.073 163.701C205.916 159.208 87.7216 91.4433 87.7216 91.4433C87.7216 91.4433 80.3608 89.4053 79.7513 100.337C79.1418 111.268 80.1264 210.529 80.1264 210.529L213.464 288.438V288.438Z" fill="#17D1AA"/>
<path d="M213.465 288.438L219.794 284.917C221.623 283.898 222.748 281.907 222.654 279.822V176.392C222.654 176.392 222.701 168.425 214.074 163.701C205.917 159.208 195.93 153.418 195.93 153.418C195.93 153.418 191.101 182.738 190.492 193.669C189.882 204.6 193.352 278.85 193.352 278.85L213.465 288.438Z" fill="url(#paint2_linear_3401_157872)"/>
<path d="M209.856 167.685L86.317 97.6043C85.8013 97.3264 85.2856 97.1411 84.8167 97.0485C51.9512 83.7549 55.1862 109.786 55.1862 109.786L80.7378 123.404V207.612C80.7378 211.642 83.2696 216.412 86.3639 218.126L209.856 288.16C212.95 289.921 215.482 288.021 215.482 283.992V178.199C215.482 174.17 212.95 169.399 209.856 167.685V167.685Z" fill="url(#paint3_linear_3401_157872)"/>
<path d="M190.446 291.168L207.09 280.839C207.699 280.469 208.027 279.82 208.027 279.172V181.253C208.027 178.243 206.433 175.417 203.808 173.889L84.3949 103.901C82.0507 102.558 79.2377 102.326 76.706 103.299L60.9061 109.413C59.6872 109.876 59.2183 111.358 60.0153 112.423L190.446 291.168Z" fill="#52FCFF"/>
<path d="M187.211 293.207L203.855 282.877C204.465 282.507 204.793 281.858 204.793 281.21V183.292C204.793 180.281 203.199 177.456 200.573 175.927L81.1602 105.939C78.816 104.596 75.3466 104.179 72.8149 105.152L57.6246 110.895C56.4056 111.358 55.9836 113.396 56.7338 114.462L187.211 293.207Z" fill="url(#paint4_linear_3401_157872)"/>
<path d="M184.631 294.736L201.228 284.5C201.837 284.129 202.025 282.925 202.025 282.277V184.405C202.025 181.394 200.431 178.569 197.805 177.04L78.392 107.052C76.0478 105.709 72.1564 105.06 69.6716 106.033L54.9032 112.518C53.6842 112.981 53.2154 114.463 54.0124 115.528L184.631 294.736Z" fill="#52FCFF"/>
<path d="M181.397 296.871L197.432 286.819C198.041 286.449 198.229 285.615 198.229 284.92V185.937C198.229 182.926 196.635 180.1 194.009 178.572L74.5961 108.584C72.2519 107.241 68.6887 106.407 66.2039 107.38L51.1073 114.096C49.8883 114.559 49.4195 116.041 50.2165 117.107L181.397 296.871V296.871Z" fill="url(#paint5_linear_3401_157872)"/>
<path d="M179.239 298.354L193.679 289.182C194.289 288.812 194.43 287.886 194.43 287.191V187.373C194.43 184.363 192.836 181.537 190.21 180.009L70.797 110.021C68.4528 108.678 65.4054 107.566 62.8737 108.539L49.84 113.68C48.621 114.143 51.0589 116.505 51.8091 117.571L179.239 298.354Z" fill="#52FCFF"/>
<path opacity="0.5" d="M183.931 190.194L206.669 176.623C206.669 176.623 208.076 178.244 208.076 180.699V279.312C208.076 279.914 207.748 280.47 207.232 280.794L190.494 291.17L183.931 190.194Z" fill="url(#paint6_linear_3401_157872)"/>
<path d="M87.6775 91.3962C87.6775 91.3962 82.2858 89.2192 76.6598 88.756C65.2201 87.8296 45.9978 90.8404 47.1699 115.019L60.7193 112.934L64.47 113.722C43.3723 101.772 72.7684 90.0992 86.3178 97.5103L94.9913 95.5649L87.6775 91.3962Z" fill="#17D1AA"/>
<path d="M179.522 306.643L187.586 302.15C189.414 301.131 190.539 299.139 190.446 297.055V193.624C190.446 193.624 190.493 185.657 181.866 180.933C173.708 176.44 58.4677 110.389 58.4677 110.389C58.4677 110.389 48.1064 106.637 47.4969 117.569C46.8874 128.5 47.872 227.761 47.872 227.761L179.522 306.643V306.643Z" fill="#17D1AA"/>
<path d="M179.521 306.642L187.585 302.149C189.414 301.13 190.539 299.138 190.445 297.054V193.623C190.445 193.623 190.492 185.657 181.866 180.932C173.708 176.439 165.925 171.807 165.925 171.807C165.925 171.807 155.564 168.055 154.954 178.987C154.345 189.918 155.564 293.719 155.564 293.719L179.521 306.642Z" fill="url(#paint7_linear_3401_157872)"/>
<path d="M176.287 306.267L52.7481 236.186C49.6537 234.426 47.122 229.701 47.122 225.672V119.879C46.7469 110.893 47.3564 108.346 47.3564 108.346C47.3564 108.346 48.1066 111.681 50.5445 113.95C51.3415 114.691 54.5765 116.822 55.7486 117.471L176.24 185.837C179.334 187.597 181.866 192.322 181.866 196.352V302.144C181.913 306.174 179.381 308.027 176.287 306.267V306.267Z" fill="url(#paint8_linear_3401_157872)"/>
<path d="M118.151 76.1562C118.901 76.7121 167.613 119.742 167.613 119.742ZM116.229 78.2406C116.979 78.7964 165.691 121.827 165.691 121.827ZM114.307 80.325C115.057 80.8808 163.769 123.911 163.769 123.911ZM112.431 82.4093C113.181 82.9651 161.894 125.995 161.894 125.995ZM110.509 84.4937C111.259 85.0495 159.971 128.08 159.971 128.08ZM108.587 86.578C109.337 87.1338 158.049 130.164 158.049 130.164ZM106.711 88.6624C107.462 89.2182 156.174 132.248 156.174 132.248ZM104.789 90.7467C105.539 91.3025 154.252 134.333 154.252 134.333ZM102.867 92.8311C103.617 93.3869 152.329 136.417 152.329 136.417ZM100.992 94.9154C101.742 95.4712 150.454 138.502 150.454 138.502ZM99.0693 97.0461C99.8195 97.6019 148.532 140.632 148.532 140.632Z" fill="#17D1AA"/>
<path d="M121.339 98.946C121.339 112.517 130.669 127.988 142.156 133.454C145.86 135.214 149.329 135.723 152.33 135.214L152.142 136.603L156.268 133.732C156.643 133.5 157.018 133.222 157.393 132.944L157.44 132.898C160.862 130.165 162.972 125.301 162.972 118.863C162.972 105.292 153.642 89.8212 142.156 84.3556C136.623 81.7154 131.607 81.8543 127.903 84.2166L127.762 84.3092C127.622 84.4019 127.434 84.5408 127.294 84.6335L123.074 87.5052L124.856 86.9494C122.652 89.8212 121.339 93.8973 121.339 98.946V98.946ZM130.763 103.485C130.763 96.0742 135.873 92.5077 142.156 95.5184C148.438 98.5292 153.549 107.006 153.549 114.417C153.549 121.828 148.438 125.394 142.156 122.383C135.873 119.373 130.763 110.896 130.763 103.485V103.485Z" fill="url(#paint9_linear_3401_157872)"/>
<path d="M116.606 102.233C116.606 115.804 125.936 131.275 137.422 136.74C148.909 142.252 158.239 135.721 158.239 122.15C158.239 108.578 148.909 93.108 137.422 87.6423C125.936 82.1304 116.606 88.6613 116.606 102.233V102.233ZM126.03 106.726C126.03 99.3147 131.14 95.7481 137.422 98.7589C143.705 101.77 148.815 110.246 148.815 117.657C148.815 125.068 143.705 128.635 137.422 125.624C131.14 122.613 126.03 114.137 126.03 106.726V106.726Z" fill="#17D1AA"/>
<path d="M137.422 87.8298C125.936 82.3179 116.606 88.8488 116.606 102.42C116.606 115.992 125.936 131.462 137.422 136.928C148.909 142.44 158.239 135.909 158.239 122.337C158.239 108.766 148.909 93.3418 137.422 87.8298V87.8298ZM137.422 125.858C131.14 122.847 126.03 114.371 126.03 106.96C126.03 99.5485 131.14 95.982 137.422 98.9927C143.705 102.003 148.815 110.48 148.815 117.891C148.815 125.302 143.705 128.868 137.422 125.858V125.858Z" fill="#163FA5"/>
<path opacity="0.7" d="M149.169 134.144C156.815 130.152 157.756 117.088 151.27 104.965C144.785 92.8431 133.329 86.2526 125.683 90.2453C118.037 94.2379 117.096 107.302 123.581 119.424C130.067 131.547 141.523 138.137 149.169 134.144Z" fill="#52FCFF"/>
<path d="M144.876 129.518L140.984 116.271L130.951 110.203C129.826 112.982 128.372 116.364 127.154 119.189C127.06 119.374 126.825 119.374 126.544 119.235C126.169 119.004 126.075 118.865 126.075 118.494V118.355L134.889 97.3729C135.124 96.8634 135.827 96.4928 136.437 96.8171C137.14 97.234 137.421 97.9751 137.609 98.8088L146.048 128.777C146.235 129.333 146.47 130.167 145.954 130.259C145.344 130.537 144.969 129.981 144.876 129.518V129.518ZM136.577 100.152C136.155 98.7625 135.827 98.3919 135.499 99.272L131.467 109.231L140.609 114.743L136.577 100.152Z" fill="#1D45BA"/>
<path d="M145.86 119.423L126.591 107.75C126.403 107.611 126.216 107.334 126.216 107.102V106.5C126.216 106.268 126.356 106.129 126.591 106.268L145.86 117.941C146.048 118.08 146.235 118.357 146.235 118.589V119.191C146.235 119.423 146.095 119.515 145.86 119.423ZM144.125 113.216L128.326 103.674C128.138 103.535 127.951 103.257 127.951 103.026V102.424C127.951 102.192 128.091 102.053 128.326 102.192L144.125 111.734C144.313 111.873 144.501 112.151 144.501 112.382V112.984C144.501 113.216 144.313 113.309 144.125 113.216V113.216Z" fill="#1D45BA"/>
<path d="M122.699 178.99L121.246 179.175C117.636 174.682 114.072 170.235 110.462 165.743V165.048V163.751C114.541 168.846 118.62 173.941 122.699 178.99V178.99ZM119.698 167.827C119.042 167.919 118.386 167.966 117.729 168.058C117.636 168.058 117.589 168.058 117.495 167.919C116.698 166.9 115.901 165.928 115.057 164.909L112.525 161.713C112.103 161.203 111.728 160.694 111.306 160.231L108.399 158.609C108.54 158.795 108.681 158.98 108.821 159.119C109.572 160.045 110.322 161.018 111.119 161.944C111.869 162.871 112.619 163.843 113.369 164.77L115.479 167.41C116.135 168.244 116.839 169.077 117.495 169.911C117.589 170.004 117.636 170.05 117.682 170.004C118.245 169.958 118.761 169.911 119.323 169.819C120.683 169.68 121.996 169.494 123.355 169.355C124.34 169.263 125.324 169.124 126.262 169.031C126.45 169.031 126.684 168.985 126.872 168.939L123.965 167.271C122.558 167.503 121.152 167.642 119.698 167.827V167.827ZM110.462 168.661V170.652C112.853 173.617 115.244 176.627 117.682 179.638L119.136 179.453C116.229 175.84 113.369 172.227 110.462 168.661ZM124.856 171.857C123.074 172.088 121.292 172.273 119.511 172.505C119.558 172.551 119.558 172.598 119.558 172.598C120.027 173.154 120.449 173.756 120.917 174.312L120.964 174.358C122.277 174.219 123.543 174.034 124.856 173.895V171.857ZM124.856 176.813C124.246 176.905 123.684 176.952 123.074 177.044C123.543 177.646 124.012 178.202 124.481 178.804L124.856 178.758V176.813ZM111.588 180.657L111.869 180.796L110.275 182.371V184.409L110.04 184.27V182.232L108.446 178.897L108.728 179.036L110.134 182.047L111.588 180.657V180.657ZM114.354 186.725C113.697 186.354 113.182 185.845 112.76 185.15C112.338 184.502 112.15 183.807 112.15 183.158C112.15 182.51 112.338 182.093 112.76 181.908C113.182 181.723 113.697 181.769 114.354 182.139C114.963 182.51 115.526 183.019 115.948 183.668C116.37 184.316 116.604 185.011 116.604 185.66C116.604 186.308 116.37 186.771 115.948 186.957C115.526 187.142 114.963 187.096 114.354 186.725V186.725ZM114.354 186.493C114.916 186.818 115.385 186.864 115.76 186.725C116.135 186.54 116.323 186.169 116.323 185.567C116.323 184.965 116.135 184.363 115.76 183.761C115.385 183.158 114.916 182.695 114.354 182.417C113.744 182.093 113.275 182 112.9 182.186C112.525 182.371 112.338 182.742 112.338 183.344C112.338 183.9 112.525 184.502 112.9 185.104C113.275 185.706 113.744 186.169 114.354 186.493V186.493ZM120.495 190.153L120.214 190.014L118.855 187.373L117.729 186.725V188.624L117.495 188.485V183.992L118.995 184.826C119.464 185.104 119.839 185.428 120.073 185.799C120.308 186.169 120.449 186.54 120.449 186.957C120.449 187.373 120.308 187.605 120.073 187.698C119.839 187.79 119.511 187.744 119.136 187.512L120.495 190.153V190.153ZM117.729 184.363V186.54L118.901 187.188C119.745 187.651 120.214 187.559 120.214 186.818C120.214 186.447 120.12 186.123 119.886 185.845C119.698 185.567 119.37 185.289 119.042 185.104L117.729 184.363V184.363ZM123.355 191.82C122.699 191.45 122.183 190.94 121.761 190.245C121.339 189.597 121.152 188.902 121.152 188.253C121.152 187.605 121.339 187.188 121.761 187.003C122.183 186.818 122.699 186.864 123.355 187.234C123.965 187.605 124.527 188.115 124.949 188.763C125.371 189.411 125.606 190.106 125.606 190.755C125.606 191.403 125.371 191.866 124.949 192.052C124.527 192.237 124.012 192.144 123.355 191.82V191.82ZM123.355 191.588C123.918 191.913 124.387 191.959 124.762 191.82C125.137 191.635 125.324 191.264 125.324 190.662C125.324 190.06 125.137 189.458 124.762 188.856C124.387 188.254 123.918 187.79 123.355 187.512C122.746 187.188 122.277 187.096 121.902 187.281C121.527 187.466 121.339 187.837 121.339 188.439C121.339 188.995 121.527 189.597 121.902 190.199C122.324 190.801 122.793 191.264 123.355 191.588V191.588ZM126.59 193.58V189.087L126.825 189.226V193.719L126.59 193.58ZM115.948 189.041L116.041 189.087L115.666 189.967L115.573 189.921L115.244 188.763L114.916 189.55L114.823 189.504L114.447 188.207L114.541 188.253L114.869 189.411L115.198 188.624L115.291 188.67L115.62 189.828L115.948 189.041V189.041ZM117.214 189.782L117.307 189.828V190.94L117.214 190.894V190.662C117.12 190.755 116.979 190.755 116.745 190.662C116.604 190.569 116.463 190.43 116.37 190.292C116.276 190.153 116.229 189.967 116.229 189.782C116.229 189.597 116.276 189.504 116.37 189.458C116.463 189.411 116.604 189.411 116.745 189.504C116.839 189.55 116.932 189.643 117.026 189.736C117.12 189.828 117.167 189.921 117.214 190.014V189.782ZM116.792 190.569C116.932 190.662 117.026 190.662 117.12 190.616C117.214 190.569 117.26 190.477 117.26 190.338C117.26 190.199 117.214 190.06 117.12 189.921C117.026 189.782 116.932 189.689 116.792 189.597C116.651 189.504 116.557 189.504 116.463 189.55C116.37 189.597 116.323 189.689 116.323 189.828C116.323 189.967 116.37 190.106 116.463 190.245C116.51 190.384 116.651 190.477 116.792 190.569ZM117.776 191.218V189.55L117.87 189.597V191.264L117.776 191.218ZM118.386 191.542V189.875L118.479 189.921V191.588L118.386 191.542ZM119.886 191.82L118.948 191.357C118.948 191.496 118.995 191.635 119.089 191.774C119.183 191.913 119.276 192.005 119.417 192.098C119.558 192.191 119.698 192.191 119.792 192.144L119.839 192.237C119.745 192.33 119.605 192.283 119.417 192.191C119.276 192.098 119.136 191.959 119.042 191.82C118.948 191.681 118.901 191.496 118.901 191.311C118.901 191.125 118.948 191.033 119.042 190.986C119.136 190.94 119.276 190.94 119.417 191.033C119.558 191.125 119.698 191.218 119.792 191.403C119.839 191.496 119.886 191.635 119.886 191.82V191.82ZM119.37 191.079C119.276 191.033 119.136 190.986 119.089 191.033C118.995 191.079 118.948 191.125 118.948 191.264L119.792 191.727C119.792 191.588 119.745 191.45 119.652 191.357C119.605 191.218 119.511 191.125 119.37 191.079V191.079ZM120.542 192.746C120.449 192.7 120.355 192.607 120.355 192.561C120.308 192.469 120.308 192.422 120.308 192.283V191.542L120.167 191.45V191.357L120.308 191.45V191.079L120.402 191.125V191.542L120.824 191.774V191.866L120.402 191.635V192.33C120.402 192.422 120.402 192.515 120.449 192.561L120.589 192.7C120.683 192.746 120.73 192.746 120.824 192.746V192.839C120.73 192.839 120.636 192.839 120.542 192.746ZM108.353 185.521L114.072 188.717ZM121.152 192.7L126.872 195.942Z" fill="#52FCFF"/>
<path d="M227.156 202.888L222.608 201.406L222.749 202.888L181.913 225.631L170.849 219.656C170.849 219.656 161.613 216.043 154.627 226.418L181.82 231.884L227.156 202.888V202.888Z" fill="#52FCFF"/>
<path d="M181.913 262.265L164.472 252.723C157.205 248.74 152.657 241.143 152.657 232.945C152.657 223.913 162.456 218.216 170.473 222.57L181.913 228.823V262.265Z" fill="url(#paint10_linear_3401_157872)"/>
<path d="M175.488 240.914C175.488 244.759 172.441 246.75 168.643 245.314C164.846 243.879 161.798 239.571 161.798 235.726C161.798 231.882 164.846 229.89 168.643 231.326C172.441 232.762 175.488 237.07 175.488 240.914Z" fill="url(#paint11_linear_3401_157872)"/>
<path d="M227.155 236.331L181.913 262.316V228.874L227.155 202.889V236.331Z" fill="url(#paint12_linear_3401_157872)"/>
<path d="M73.9851 191.772L146.28 232.949C146.843 233.273 147.546 233.598 147.686 232.949C147.686 232.857 147.733 232.764 147.733 232.671V221.879C147.733 221.045 147.218 220.073 146.561 219.702L73.8444 178.2C73.7975 178.154 73.7506 178.154 73.6569 178.108C73.0943 177.876 72.9536 178.617 72.9536 179.358L72.9067 189.595C72.9067 190.475 73.3756 191.447 73.9851 191.772V191.772Z" fill="url(#paint13_linear_3401_157872)"/>
<path d="M73.6579 178.108C73.6579 178.2 73.611 178.293 73.611 178.386V189.178C73.611 190.012 74.1267 190.984 74.7831 191.355L147.5 232.857C147.547 232.903 147.594 232.903 147.687 232.949C147.594 233.598 147.125 233.829 146.562 233.505L73.8454 192.003C73.1891 191.633 72.6733 190.66 72.6733 189.826V179.034C72.6733 178.293 73.0953 177.922 73.6579 178.108V178.108Z" fill="url(#paint14_linear_3401_157872)"/>
<path d="M73.9851 216.369L146.28 257.547C146.843 257.871 147.546 258.195 147.686 257.547C147.686 257.454 147.733 257.362 147.733 257.269V246.477C147.733 245.643 147.218 244.67 146.561 244.3L73.8444 202.798C73.7975 202.752 73.7506 202.752 73.6569 202.705C73.0943 202.474 72.9536 203.215 72.9536 203.956L72.9067 214.192C72.9067 215.072 73.3756 215.999 73.9851 216.369V216.369Z" fill="url(#paint15_linear_3401_157872)"/>
<path d="M73.6579 202.705C73.6579 202.798 73.611 202.891 73.611 202.983V213.776C73.611 214.609 74.1267 215.582 74.7831 215.953L147.5 257.454C147.547 257.501 147.594 257.501 147.687 257.547C147.594 258.196 147.125 258.427 146.562 258.103L73.8454 216.601C73.1891 216.231 72.6733 215.258 72.6733 214.424V203.632C72.6733 202.891 73.0953 202.52 73.6579 202.705V202.705Z" fill="url(#paint16_linear_3401_157872)"/>
<g opacity="0.7">
<path d="M126.917 241.474L126.026 243.141L124.338 241.057L125.604 239.76L123.682 237.815L124.291 236.194L126.026 238.278L125.791 235.777L127.901 236.981L127.667 239.204L129.401 239.112L130.058 241.428L128.182 241.196L129.448 243.975L127.807 244.16L126.917 241.474V241.474ZM118.524 236.703L117.634 238.371L115.946 236.286L117.212 234.989L115.289 233.044L115.899 231.423L117.634 233.507L117.399 231.006L119.509 232.21L119.274 234.434L121.009 234.341L121.666 236.657L119.79 236.425L121.056 239.204L119.415 239.39L118.524 236.703V236.703ZM110.179 231.932L109.288 233.6L107.6 231.515L108.866 230.218L106.944 228.273L107.554 226.652L109.288 228.736L109.054 226.235L111.164 227.439L110.929 229.663L112.664 229.57L113.32 231.886L111.445 231.654L112.711 234.434L111.07 234.619L110.179 231.932V231.932ZM101.834 227.161L100.943 228.829L99.2551 226.745L100.521 225.448L98.5987 223.502L99.2082 221.881L100.943 223.965L100.709 221.464L102.818 222.668L102.584 224.892L104.319 224.799L104.975 227.115L103.1 226.884L104.365 229.663L102.725 229.848L101.834 227.161V227.161ZM93.4884 222.391L92.5976 224.058L90.9098 221.974L92.1757 220.677L90.2534 218.731L90.8629 217.11L92.5976 219.195L92.3632 216.693L94.473 217.898L94.2385 220.121L95.9732 220.028L96.6296 222.344L94.7543 222.113L96.0201 224.892L94.3792 225.077L93.4884 222.391V222.391Z" fill="#E1F2FF"/>
</g>
<g opacity="0.5">
<path d="M91.9427 198.028C91.8958 197.982 91.8958 197.935 91.8958 197.889V196.499L90.3955 192.84V192.747C90.3955 192.701 90.3955 192.701 90.4424 192.701H90.5362L91.3801 193.211L91.5207 193.35C91.5676 193.396 91.5676 193.442 91.6145 193.489L92.5053 195.666L93.3961 194.554C93.3961 194.508 93.443 194.508 93.4898 194.508C93.5367 194.508 93.5836 194.508 93.6305 194.554L94.4744 195.063C94.5213 195.063 94.5213 195.11 94.5682 195.156C94.615 195.202 94.615 195.249 94.615 195.295V195.341L93.1148 197.24V198.63C93.1148 198.676 93.1148 198.723 93.0679 198.723C93.021 198.723 92.9741 198.723 92.9272 198.676L92.0364 198.167C91.9896 198.12 91.9427 198.074 91.9427 198.028V198.028ZM94.8964 199.51C94.6151 199.093 94.4275 198.63 94.4275 198.167V197.889V197.611C94.4744 197.148 94.615 196.916 94.9432 196.824C95.2245 196.731 95.6465 196.87 96.2091 197.148C96.7248 197.472 97.1468 197.843 97.475 198.259C97.7563 198.676 97.9438 199.14 97.9907 199.603V200.159C97.9438 200.622 97.8031 200.9 97.5218 200.946C97.2405 201.039 96.8186 200.9 96.256 200.575C95.6465 200.297 95.2245 199.927 94.8964 199.51V199.51ZM96.5842 199.881C96.6779 199.834 96.7248 199.695 96.7248 199.464V199.186V198.908C96.7248 198.676 96.6779 198.491 96.5842 198.306C96.4904 198.12 96.3498 198.028 96.1622 197.889C95.9747 197.75 95.834 197.75 95.7403 197.843C95.6465 197.889 95.5996 198.028 95.5996 198.259V198.815C95.5996 199.047 95.6465 199.232 95.7403 199.417C95.834 199.556 95.9747 199.695 96.1622 199.834C96.3498 199.973 96.4904 199.927 96.5842 199.881V199.881ZM98.6471 201.919C98.6002 201.872 98.6002 201.826 98.6002 201.78V198.723C98.6002 198.676 98.6002 198.63 98.6471 198.63H98.7877L99.5847 199.093C99.6316 199.14 99.6785 199.14 99.7254 199.232C99.7723 199.278 99.7723 199.325 99.7723 199.371V199.603C99.9129 199.556 100.054 199.51 100.194 199.556C100.382 199.603 100.522 199.649 100.757 199.788L101.038 199.973C101.085 200.02 101.132 200.02 101.179 200.066C101.226 200.112 101.226 200.159 101.226 200.205V200.9C101.226 200.946 101.226 200.992 101.179 200.992H101.038L100.382 200.622C100.194 200.529 100.054 200.483 99.9598 200.529C99.866 200.575 99.8192 200.668 99.8192 200.853V202.474C99.8192 202.521 99.8192 202.567 99.7723 202.567C99.7254 202.567 99.6785 202.567 99.6316 202.521L98.7877 202.011C98.6939 202.011 98.6471 201.965 98.6471 201.919V201.919ZM101.929 203.586C101.648 203.169 101.46 202.706 101.46 202.243V201.965V201.687C101.507 201.224 101.648 200.992 101.976 200.9C102.257 200.807 102.679 200.946 103.242 201.224C103.757 201.548 104.179 201.919 104.508 202.336C104.789 202.752 104.976 203.216 105.023 203.679V204.235C104.976 204.698 104.836 204.976 104.554 205.022C104.273 205.115 103.851 204.976 103.289 204.651C102.679 204.374 102.257 204.003 101.929 203.586V203.586ZM103.617 203.957C103.711 203.91 103.757 203.771 103.757 203.54V203.262V202.984C103.757 202.752 103.711 202.567 103.617 202.382C103.523 202.197 103.382 202.104 103.195 201.965C103.007 201.826 102.867 201.826 102.773 201.919C102.679 201.965 102.632 202.104 102.632 202.336V202.891C102.632 203.123 102.679 203.308 102.773 203.493C102.867 203.632 103.007 203.771 103.195 203.91C103.382 204.003 103.523 204.003 103.617 203.957V203.957ZM105.68 202.15C105.633 202.104 105.633 202.058 105.633 202.011V201.409C105.633 201.363 105.633 201.316 105.68 201.316H105.773L106.617 201.78C106.664 201.826 106.711 201.826 106.758 201.919C106.805 201.965 106.805 202.011 106.805 202.058V202.66C106.805 202.706 106.805 202.752 106.758 202.752H106.617L105.773 202.289C105.727 202.243 105.68 202.197 105.68 202.15ZM105.68 205.995C105.633 205.948 105.633 205.902 105.633 205.856V202.799C105.633 202.752 105.633 202.706 105.68 202.706H105.773L106.617 203.169C106.664 203.216 106.711 203.216 106.758 203.308C106.805 203.355 106.805 203.401 106.805 203.447V206.504C106.805 206.551 106.805 206.597 106.758 206.597C106.711 206.597 106.664 206.597 106.617 206.551L105.773 206.087C105.727 206.087 105.68 206.041 105.68 205.995ZM109.477 208.172C109.43 208.125 109.383 208.033 109.383 207.986L108.68 203.447V203.401C108.68 203.355 108.68 203.355 108.727 203.308H108.821L109.665 203.818C109.805 203.91 109.852 204.003 109.852 204.096L110.274 206.782L110.743 205.624C110.79 205.532 110.837 205.532 110.977 205.578L111.493 205.856C111.587 205.902 111.681 206.041 111.728 206.134L112.196 207.801L112.618 205.578C112.618 205.532 112.665 205.485 112.665 205.485C112.712 205.485 112.759 205.485 112.806 205.532L113.65 206.041C113.697 206.041 113.744 206.087 113.744 206.134C113.791 206.18 113.791 206.226 113.791 206.273V206.319L113.087 210.071C113.087 210.117 113.04 210.163 112.993 210.163C112.947 210.163 112.9 210.163 112.806 210.117L112.15 209.747C112.103 209.7 112.009 209.654 111.962 209.608C111.915 209.561 111.915 209.515 111.868 209.422L111.212 207.245L110.556 208.681C110.556 208.728 110.509 208.728 110.462 208.728C110.415 208.728 110.368 208.728 110.274 208.681L109.618 208.311C109.571 208.311 109.524 208.264 109.477 208.172V208.172ZM114.588 211.136C114.4 210.951 114.259 210.719 114.119 210.488C114.025 210.256 113.978 210.071 113.978 209.886C113.978 209.608 114.119 209.422 114.353 209.376C114.588 209.33 114.963 209.422 115.385 209.608L116.182 209.978V209.886C116.182 209.747 116.135 209.608 116.088 209.469C116.041 209.33 115.9 209.237 115.76 209.144C115.666 209.098 115.619 209.052 115.525 209.052H115.197H115.15L114.4 208.589C114.353 208.542 114.306 208.542 114.306 208.496C114.259 208.45 114.259 208.403 114.259 208.357C114.259 208.264 114.306 208.125 114.447 208.079C114.541 207.986 114.728 207.986 114.963 207.986C115.197 207.986 115.478 208.125 115.807 208.311C116.369 208.635 116.744 208.959 117.026 209.376C117.307 209.793 117.401 210.163 117.401 210.58V212.526C117.401 212.572 117.401 212.618 117.354 212.618H117.213L116.416 212.155C116.369 212.109 116.322 212.109 116.322 212.062C116.275 212.016 116.275 211.97 116.275 211.924V211.692C116.182 211.785 116.041 211.785 115.853 211.785C115.666 211.785 115.478 211.692 115.244 211.553C115.01 211.507 114.775 211.368 114.588 211.136V211.136ZM116.041 211.136C116.182 211.09 116.228 210.951 116.228 210.673V210.58L115.666 210.349C115.291 210.21 115.103 210.21 115.103 210.441C115.103 210.534 115.15 210.627 115.244 210.766C115.338 210.858 115.431 210.951 115.572 211.043C115.76 211.182 115.9 211.229 116.041 211.136V211.136ZM118.151 213.22C118.104 213.174 118.104 213.128 118.104 213.082V208.82C118.104 208.774 118.104 208.728 118.151 208.728C118.198 208.728 118.244 208.728 118.291 208.774L119.135 209.237C119.182 209.283 119.229 209.283 119.276 209.33C119.323 209.376 119.323 209.422 119.323 209.469V213.73C119.323 213.776 119.323 213.823 119.276 213.823H119.135L118.291 213.359C118.198 213.313 118.151 213.267 118.151 213.22ZM120.026 214.332C119.979 214.286 119.979 214.239 119.979 214.193V209.886C119.979 209.839 119.979 209.793 120.026 209.793C120.073 209.793 120.12 209.793 120.167 209.839L121.011 210.302C121.058 210.349 121.104 210.349 121.151 210.395C121.198 210.441 121.198 210.488 121.198 210.534V214.795C121.198 214.842 121.198 214.888 121.151 214.888H121.011L120.167 214.425C120.12 214.425 120.073 214.378 120.026 214.332ZM122.23 215.305C121.901 214.842 121.761 214.332 121.761 213.776V213.591C121.761 213.082 121.948 212.757 122.23 212.665C122.558 212.572 122.933 212.665 123.449 212.943C123.824 213.174 124.152 213.406 124.386 213.73C124.668 214.008 124.855 214.332 124.949 214.703C125.09 215.027 125.136 215.397 125.136 215.722V215.861C125.136 215.907 125.136 215.953 125.09 215.953H124.949L122.886 214.749V214.795C122.886 214.981 122.933 215.166 123.027 215.351C123.12 215.536 123.261 215.675 123.402 215.768C123.495 215.814 123.589 215.861 123.636 215.861C123.683 215.861 123.777 215.861 123.824 215.814C123.871 215.814 123.917 215.768 123.917 215.768C123.964 215.768 123.964 215.768 124.011 215.814L124.855 216.324C124.902 216.324 124.949 216.37 124.949 216.416C124.949 216.463 124.996 216.509 124.996 216.509C124.996 216.602 124.949 216.694 124.808 216.787C124.668 216.88 124.48 216.88 124.246 216.833C124.011 216.787 123.683 216.694 123.355 216.509C122.98 216.139 122.558 215.768 122.23 215.305V215.305ZM124.011 214.656C124.011 214.425 123.964 214.239 123.871 214.101C123.777 213.915 123.636 213.823 123.495 213.684C123.308 213.591 123.214 213.591 123.12 213.637C123.027 213.684 122.98 213.823 122.98 214.054L124.011 214.656V214.656ZM126.215 216.648V215.444L125.699 215.166C125.652 215.12 125.605 215.12 125.605 215.073C125.558 215.027 125.558 214.981 125.558 214.934V214.378C125.558 214.332 125.558 214.286 125.605 214.286H125.699L126.215 214.564V213.498C126.215 213.452 126.215 213.406 126.262 213.406H126.355L127.152 213.869C127.199 213.915 127.246 213.915 127.293 213.962C127.34 214.008 127.34 214.054 127.34 214.101V215.166L128.184 215.629C128.231 215.675 128.278 215.675 128.324 215.722C128.371 215.768 128.371 215.814 128.371 215.861V216.416C128.371 216.463 128.371 216.509 128.324 216.509C128.278 216.509 128.231 216.509 128.184 216.463L127.34 216V217.111C127.34 217.25 127.387 217.389 127.434 217.482C127.481 217.574 127.574 217.667 127.715 217.76L128.231 218.038C128.278 218.084 128.325 218.084 128.371 218.177C128.418 218.223 128.418 218.269 128.418 218.316V218.918C128.418 218.964 128.418 219.01 128.371 219.01H128.231L127.621 218.64C126.684 218.223 126.215 217.528 126.215 216.648V216.648Z" fill="#E1F2FF"/>
</g>
<defs>
<linearGradient id="paint0_linear_3401_157872" x1="116.256" y1="71.5536" x2="112.714" y2="38.3295" gradientUnits="userSpaceOnUse">
<stop stop-color="#1D45BA"/>
<stop offset="0.42" stop-color="#1D47BA"/>
<stop offset="0.572" stop-color="#1D4EB9"/>
<stop offset="0.68" stop-color="#1C59B8"/>
<stop offset="0.767" stop-color="#1B6AB6"/>
<stop offset="0.842" stop-color="#1A80B3"/>
<stop offset="0.908" stop-color="#199CB0"/>
<stop offset="0.966" stop-color="#18BBAD"/>
<stop offset="1" stop-color="#17D1AA"/>
</linearGradient>
<linearGradient id="paint1_linear_3401_157872" x1="215.954" y1="69.3363" x2="211.375" y2="26.3814" gradientUnits="userSpaceOnUse">
<stop stop-color="#1D45BA"/>
<stop offset="0.42" stop-color="#1D47BA"/>
<stop offset="0.572" stop-color="#1D4EB9"/>
<stop offset="0.68" stop-color="#1C59B8"/>
<stop offset="0.767" stop-color="#1B6AB6"/>
<stop offset="0.842" stop-color="#1A80B3"/>
<stop offset="0.908" stop-color="#199CB0"/>
<stop offset="0.966" stop-color="#18BBAD"/>
<stop offset="1" stop-color="#17D1AA"/>
</linearGradient>
<linearGradient id="paint2_linear_3401_157872" x1="199.59" y1="169.532" x2="214.905" y2="277.771" gradientUnits="userSpaceOnUse">
<stop offset="0.003" stop-color="#17D1AA" stop-opacity="0"/>
<stop offset="0.618" stop-color="#1E9AA9" stop-opacity="0.616"/>
<stop offset="1" stop-color="#227DA8"/>
</linearGradient>
<linearGradient id="paint3_linear_3401_157872" x1="331.931" y1="234.115" x2="38.1993" y2="165.879" gradientUnits="userSpaceOnUse">
<stop stop-color="#1980AC"/>
<stop offset="0.132" stop-color="#1977AC"/>
<stop offset="1" stop-color="#1B3DAD"/>
</linearGradient>
<linearGradient id="paint4_linear_3401_157872" x1="56.3789" y1="198.901" x2="204.822" y2="198.901" gradientUnits="userSpaceOnUse">
<stop stop-color="#17D1AA"/>
<stop offset="0.066" stop-color="#1AC2AE"/>
<stop offset="0.265" stop-color="#229BB8"/>
<stop offset="0.462" stop-color="#297CC0"/>
<stop offset="0.652" stop-color="#2D66C6"/>
<stop offset="0.835" stop-color="#3059CA"/>
<stop offset="1" stop-color="#3154CB"/>
</linearGradient>
<linearGradient id="paint5_linear_3401_157872" x1="49.8119" y1="201.902" x2="198.246" y2="201.902" gradientUnits="userSpaceOnUse">
<stop stop-color="#17D1AA"/>
<stop offset="0.066" stop-color="#1AC2AE"/>
<stop offset="0.265" stop-color="#229BB8"/>
<stop offset="0.462" stop-color="#297CC0"/>
<stop offset="0.652" stop-color="#2D66C6"/>
<stop offset="0.835" stop-color="#3059CA"/>
<stop offset="1" stop-color="#3154CB"/>
</linearGradient>
<linearGradient id="paint6_linear_3401_157872" x1="195.949" y1="176.773" x2="196.529" y2="297.317" gradientUnits="userSpaceOnUse">
<stop stop-color="#52FCFF" stop-opacity="0"/>
<stop offset="0.086" stop-color="#46D3F0" stop-opacity="0.142"/>
<stop offset="0.198" stop-color="#39A5DE" stop-opacity="0.325"/>
<stop offset="0.306" stop-color="#2F81D1" stop-opacity="0.501"/>
<stop offset="0.406" stop-color="#2767C7" stop-opacity="0.665"/>
<stop offset="0.495" stop-color="#2357C1" stop-opacity="0.812"/>
<stop offset="0.566" stop-color="#2152BF" stop-opacity="0.928"/>
<stop offset="0.757" stop-color="#1E48BB" stop-opacity="0.96"/>
<stop offset="0.998" stop-color="#1D45BA"/>
</linearGradient>
<linearGradient id="paint7_linear_3401_157872" x1="161.766" y1="176.848" x2="184.797" y2="316.4" gradientUnits="userSpaceOnUse">
<stop offset="0.003" stop-color="#17D1AA" stop-opacity="0"/>
<stop offset="0.618" stop-color="#1E9AA9" stop-opacity="0.616"/>
<stop offset="1" stop-color="#227DA8"/>
</linearGradient>
<linearGradient id="paint8_linear_3401_157872" x1="56.3576" y1="223.487" x2="170.469" y2="190.864" gradientUnits="userSpaceOnUse">
<stop stop-color="#17D1AA"/>
<stop offset="0.066" stop-color="#1AC2AE"/>
<stop offset="0.265" stop-color="#229BB8"/>
<stop offset="0.462" stop-color="#297CC0"/>
<stop offset="0.652" stop-color="#2D66C6"/>
<stop offset="0.835" stop-color="#3059CA"/>
<stop offset="1" stop-color="#3154CB"/>
</linearGradient>
<linearGradient id="paint9_linear_3401_157872" x1="142.156" y1="143.273" x2="135.7" y2="82.7151" gradientUnits="userSpaceOnUse">
<stop stop-color="#1D45BA"/>
<stop offset="0.42" stop-color="#1D47BA"/>
<stop offset="0.572" stop-color="#1D4EB9"/>
<stop offset="0.68" stop-color="#1C59B8"/>
<stop offset="0.767" stop-color="#1B6AB6"/>
<stop offset="0.842" stop-color="#1A80B3"/>
<stop offset="0.908" stop-color="#199CB0"/>
<stop offset="0.966" stop-color="#18BBAD"/>
<stop offset="1" stop-color="#17D1AA"/>
</linearGradient>
<linearGradient id="paint10_linear_3401_157872" x1="152.644" y1="241.673" x2="181.904" y2="241.673" gradientUnits="userSpaceOnUse">
<stop stop-color="#17D1AA"/>
<stop offset="0.409" stop-color="#1EADB3"/>
<stop offset="1" stop-color="#287FBF"/>
</linearGradient>
<linearGradient id="paint11_linear_3401_157872" x1="168.143" y1="228.905" x2="168.999" y2="245.217" gradientUnits="userSpaceOnUse">
<stop stop-color="#17D1AA"/>
<stop offset="0.138" stop-color="#1DAEB2"/>
<stop offset="0.321" stop-color="#2487BB"/>
<stop offset="0.502" stop-color="#2A68C2"/>
<stop offset="0.678" stop-color="#2E52C7"/>
<stop offset="0.846" stop-color="#3045CA"/>
<stop offset="0.998" stop-color="#3140CB"/>
</linearGradient>
<linearGradient id="paint12_linear_3401_157872" x1="186.01" y1="222.54" x2="221.841" y2="242.458" gradientUnits="userSpaceOnUse">
<stop stop-color="#17D1AA"/>
<stop offset="0.138" stop-color="#1DAEB2"/>
<stop offset="0.321" stop-color="#2487BB"/>
<stop offset="0.502" stop-color="#2A68C2"/>
<stop offset="0.678" stop-color="#2E52C7"/>
<stop offset="0.846" stop-color="#3045CA"/>
<stop offset="0.998" stop-color="#3140CB"/>
</linearGradient>
<linearGradient id="paint13_linear_3401_157872" x1="72.9035" y1="205.71" x2="147.695" y2="205.71" gradientUnits="userSpaceOnUse">
<stop stop-color="#17D1AA"/>
<stop offset="0.142" stop-color="#19C9AC"/>
<stop offset="0.368" stop-color="#1DB2B2"/>
<stop offset="0.648" stop-color="#258CBC"/>
<stop offset="0.97" stop-color="#3059CA"/>
<stop offset="1" stop-color="#3154CB"/>
</linearGradient>
<linearGradient id="paint14_linear_3401_157872" x1="72.6602" y1="205.876" x2="147.672" y2="205.876" gradientUnits="userSpaceOnUse">
<stop stop-color="#3154CB"/>
<stop offset="0.03" stop-color="#3059CA"/>
<stop offset="0.352" stop-color="#258CBC"/>
<stop offset="0.632" stop-color="#1DB2B2"/>
<stop offset="0.858" stop-color="#19C9AC"/>
<stop offset="1" stop-color="#17D1AA"/>
</linearGradient>
<linearGradient id="paint15_linear_3401_157872" x1="72.9035" y1="230.298" x2="147.695" y2="230.298" gradientUnits="userSpaceOnUse">
<stop stop-color="#17D1AA"/>
<stop offset="0.142" stop-color="#19C9AC"/>
<stop offset="0.368" stop-color="#1DB2B2"/>
<stop offset="0.648" stop-color="#258CBC"/>
<stop offset="0.97" stop-color="#3059CA"/>
<stop offset="1" stop-color="#3154CB"/>
</linearGradient>
<linearGradient id="paint16_linear_3401_157872" x1="78.0805" y1="203.879" x2="171.174" y2="301.029" gradientUnits="userSpaceOnUse">
<stop stop-color="#3154CB"/>
<stop offset="0.112" stop-color="#2D67C6"/>
<stop offset="0.353" stop-color="#258DBC"/>
<stop offset="0.632" stop-color="#1DB2B2"/>
<stop offset="0.858" stop-color="#19C9AC"/>
<stop offset="1" stop-color="#17D1AA"/>
</linearGradient>
</defs>
</svg>
