<svg width="280" height="328" viewBox="0 0 280 328" fill="none" xmlns="http://www.w3.org/2000/svg">
<path d="M260.723 157.463L264.783 155.205C265.956 154.552 266.678 153.274 266.617 151.937V85.5902C266.617 85.5902 266.648 80.4797 261.114 77.4491C255.881 74.567 180.064 31.0984 180.064 31.0984C180.064 31.0984 175.342 29.7911 174.951 36.8031C174.56 43.8151 175.192 107.488 175.192 107.488L260.723 157.463Z" fill="#17D1AA"/>
<path d="M260.723 157.466L264.783 155.208C265.956 154.554 266.678 153.276 266.618 151.939V85.5926C266.618 85.5926 266.648 80.4821 261.114 77.4515C255.881 74.5695 249.476 70.8555 249.476 70.8555C249.476 70.8555 246.378 89.6631 245.987 96.6752C245.596 103.687 247.822 151.316 247.822 151.316L260.723 157.466Z" fill="url(#paint0_linear_3416_157987)"/>
<path d="M258.402 80.0037L179.156 35.0494C178.826 34.8712 178.495 34.7523 178.194 34.6929C157.112 26.1656 159.187 42.8637 159.187 42.8637L175.578 51.599V105.615C175.578 108.2 177.202 111.261 179.186 112.36L258.402 157.285C260.387 158.414 262.011 157.195 262.011 154.61V86.7483C262.011 84.1633 260.387 81.103 258.402 80.0037Z" fill="url(#paint1_linear_3416_157987)"/>
<path d="M202.584 43.9941C203.066 44.3507 234.313 71.9531 234.313 71.9531L202.584 43.9941ZM201.351 45.3312C201.833 45.6877 233.08 73.2902 233.08 73.2902L201.351 45.3312ZM200.118 46.6682C200.6 47.0248 231.847 74.6272 231.847 74.6272L200.118 46.6682ZM198.915 48.0053C199.397 48.3618 230.644 75.9642 230.644 75.9642L198.915 48.0053ZM197.682 49.3423C198.164 49.6988 229.411 77.3013 229.411 77.3013L197.682 49.3423ZM196.449 50.7091C196.931 51.0656 228.178 78.668 228.178 78.668L196.449 50.7091ZM195.246 52.0461C195.728 52.4026 226.975 80.0051 226.975 80.0051L195.246 52.0461ZM194.013 53.3831C194.494 53.7397 225.742 81.3421 225.742 81.3421L194.013 53.3831ZM192.78 54.7202C193.261 55.0767 224.509 82.6791 224.509 82.6791L192.78 54.7202ZM191.577 56.0572C192.058 56.4138 223.306 84.0162 223.306 84.0162L191.577 56.0572ZM190.344 57.3942C190.825 57.7508 222.073 85.3532 222.073 85.3532L190.344 57.3942Z" fill="#17D1AA"/>
<path d="M204.633 58.6423C204.633 67.3479 210.618 77.2717 217.986 80.7778C220.362 81.9068 222.587 82.2336 224.512 81.9068L224.392 82.7982L227.038 80.956C227.279 80.8075 227.519 80.6292 227.76 80.4509L227.79 80.4212C229.985 78.6682 231.339 75.5484 231.339 71.4185C231.339 62.7129 225.354 52.7891 217.986 49.2831C214.437 47.5895 211.219 47.6786 208.843 49.1939L208.753 49.2533C208.663 49.3128 208.542 49.4019 208.452 49.4613L205.746 51.3035L206.888 50.9469C205.475 52.7891 204.633 55.4037 204.633 58.6423ZM210.678 61.5244C210.678 56.7705 213.956 54.4827 217.986 56.4139C222.016 58.3452 225.294 63.7825 225.294 68.5364C225.294 73.2903 222.016 75.5782 217.986 73.6469C213.956 71.7156 210.678 66.2783 210.678 61.5244Z" fill="url(#paint2_linear_3416_157987)"/>
<path d="M201.591 60.7219C201.591 69.4275 207.576 79.3513 214.944 82.8573C222.313 86.393 228.297 82.2037 228.297 73.498C228.297 64.7924 222.313 54.8686 214.944 51.3626C207.576 47.8269 201.591 52.0163 201.591 60.7219ZM207.636 63.604C207.636 58.85 210.914 56.5622 214.944 58.4935C218.974 60.4248 222.252 65.8621 222.252 70.616C222.252 75.3699 218.974 77.6577 214.944 75.7264C210.914 73.7952 207.636 68.3876 207.636 63.604Z" fill="#17D1AA"/>
<path d="M214.944 51.5111C207.576 47.9753 201.591 52.1647 201.591 60.8703C201.591 69.5759 207.576 79.4997 214.944 83.0058C222.313 86.5415 228.297 82.3521 228.297 73.6465C228.297 64.9409 222.313 55.0468 214.944 51.5111ZM214.944 75.8749C210.914 73.9436 207.636 68.5063 207.636 63.7524C207.636 58.9985 210.914 56.7107 214.944 58.6419C218.974 60.5732 222.252 66.0105 222.252 70.7644C222.252 75.5183 218.974 77.8062 214.944 75.8749Z" fill="#163FA5"/>
<path opacity="0.7" d="M222.477 81.1942C227.382 78.6331 227.985 70.2531 223.825 62.477C219.665 54.7009 212.316 50.4734 207.411 53.0345C202.507 55.5957 201.903 63.9756 206.064 71.7517C210.224 79.5278 217.572 83.7553 222.477 81.1942Z" fill="#52FCFF"/>
<path d="M219.731 78.2497L217.235 69.752L210.799 65.8598C210.077 67.6425 209.145 69.8115 208.363 71.6239C208.303 71.7427 208.153 71.7427 207.972 71.6536C207.732 71.505 207.671 71.4159 207.671 71.1782V71.1188L213.325 57.6593C213.476 57.3324 213.927 57.0947 214.318 57.3027C214.769 57.5701 214.949 58.0455 215.07 58.5803L220.483 77.804C220.603 78.1605 220.754 78.6954 220.423 78.7548C220.032 78.8736 219.791 78.5171 219.731 78.2497ZM214.408 59.3826C214.137 58.4912 213.927 58.2535 213.716 58.818L211.13 65.2061L216.994 68.7418L214.408 59.3826Z" fill="#1D45BA"/>
<path d="M220.361 71.7447L208 64.287C207.88 64.1978 207.76 64.0196 207.76 63.871V63.4847C207.76 63.3362 207.85 63.247 208 63.3362L220.361 70.8236C220.481 70.9127 220.602 71.091 220.602 71.2396V71.6258C220.602 71.7744 220.481 71.8338 220.361 71.7447ZM219.248 67.7633L209.113 61.6426C208.993 61.5535 208.873 61.3752 208.873 61.2266V60.8404C208.873 60.6918 208.963 60.6027 209.113 60.6918L219.248 66.8125C219.368 66.9016 219.489 67.0799 219.489 67.2285V67.6147C219.459 67.793 219.368 67.8524 219.248 67.7633Z" fill="#1D45BA"/>
<path d="M233.564 55.0176C233.894 55.285 256.059 74.8652 256.059 74.8652L233.564 55.0176ZM232.691 55.9684C233.022 56.2358 255.187 75.816 255.187 75.816L232.691 55.9684ZM231.819 56.9191C232.15 57.1866 254.315 76.7667 254.315 76.7667L231.819 56.9191ZM230.947 57.8699C231.278 58.1373 253.443 77.7175 253.443 77.7175L230.947 57.8699ZM230.075 58.8207C230.406 59.0881 252.571 78.6683 252.571 78.6683L230.075 58.8207ZM229.203 59.7715C229.534 60.0389 251.698 79.6191 251.698 79.6191L229.203 59.7715ZM228.331 60.7223C228.661 60.9897 250.826 80.5699 250.826 80.5699L228.331 60.7223ZM227.489 61.6434C227.819 61.9108 249.984 81.4909 249.984 81.4909L227.489 61.6434ZM226.616 62.5941C226.947 62.8615 249.112 82.4417 249.112 82.4417L226.616 62.5941ZM225.744 63.5449C226.075 63.8123 248.24 83.3925 248.24 83.3925L225.744 63.5449ZM224.872 64.4957C225.203 64.7631 247.368 84.3433 247.368 84.3433L224.872 64.4957Z" fill="#17D1AA"/>
<path d="M235.008 65.3869C235.008 71.567 239.248 78.579 244.481 81.1046C246.165 81.9068 247.729 82.1445 249.113 81.9068L249.022 82.5307L250.887 81.2234C251.067 81.1045 251.218 80.9857 251.398 80.8668L251.428 80.8371C252.992 79.5892 253.955 77.3906 253.955 74.4491C253.955 68.269 249.714 61.2569 244.481 58.7314C241.985 57.5132 239.699 57.6024 237.985 58.672L237.925 58.7314C237.865 58.7909 237.775 58.8206 237.715 58.88L235.79 60.1873L236.602 59.9496C235.609 61.2272 235.008 63.0991 235.008 65.3869ZM239.308 67.437C239.308 64.0499 241.624 62.4454 244.481 63.8122C247.338 65.1789 249.654 69.0415 249.654 72.4287C249.654 75.8158 247.338 77.4203 244.481 76.0535C241.624 74.6571 239.308 70.8242 239.308 67.437Z" fill="url(#paint3_linear_3416_157987)"/>
<path d="M232.871 66.8717C232.871 73.0518 237.112 80.0638 242.345 82.5893C247.577 85.0851 251.818 82.1139 251.818 75.9636C251.818 69.7835 247.577 62.7714 242.345 60.2459C237.112 57.7204 232.871 60.6916 232.871 66.8717ZM237.142 68.9218C237.142 65.5347 239.457 63.9302 242.314 65.297C245.171 66.6637 247.487 70.5263 247.487 73.9134C247.487 77.3006 245.171 78.9051 242.314 77.5383C239.457 76.1418 237.142 72.309 237.142 68.9218Z" fill="#17D1AA"/>
<path d="M242.317 60.337C237.084 57.8412 232.843 60.8124 232.843 66.9628C232.843 73.1429 237.084 80.1549 242.317 82.6804C247.55 85.1762 251.79 82.2051 251.79 76.0547C251.79 69.8746 247.55 62.8328 242.317 60.337ZM242.317 77.6294C239.46 76.2627 237.144 72.4001 237.144 69.0129C237.144 65.6258 239.46 64.0213 242.317 65.3881C245.174 66.7548 247.489 70.6174 247.489 74.0045C247.52 77.362 245.204 78.9962 242.317 77.6294Z" fill="#163FA5"/>
<path opacity="0.7" d="M247.661 81.4058C251.141 79.5885 251.572 73.6461 248.622 68.1332C245.673 62.6203 240.46 59.6245 236.98 61.4418C233.5 63.2592 233.07 69.2015 236.019 74.7144C238.969 80.2273 244.181 83.2231 247.661 81.4058Z" fill="#52FCFF"/>
<path d="M245.711 79.2936L243.936 73.2621L239.365 70.4989C238.854 71.7468 238.192 73.3215 237.651 74.5694C237.59 74.6586 237.5 74.6586 237.38 74.5992C237.2 74.51 237.169 74.4506 237.169 74.2723V74.2129L241.169 64.6753C241.29 64.4377 241.59 64.2594 241.861 64.4377C242.162 64.6159 242.312 64.9725 242.402 65.329L246.252 78.9668C246.342 79.2045 246.462 79.5908 246.222 79.6502C245.921 79.7393 245.771 79.5016 245.711 79.2936ZM241.951 65.9233C241.771 65.2993 241.62 65.121 241.47 65.537L239.636 70.0829L243.786 72.6085L241.951 65.9233Z" fill="#1D45BA"/>
<path d="M246.165 74.6867L237.383 69.398C237.293 69.3386 237.233 69.2197 237.233 69.1009V68.8334C237.233 68.7146 237.293 68.6849 237.383 68.7146L246.165 74.0033C246.255 74.0628 246.315 74.1816 246.315 74.3005V74.5679C246.345 74.6867 246.255 74.7461 246.165 74.6867ZM245.383 71.8641L238.195 67.5261C238.105 67.4667 238.045 67.3478 238.045 67.229V66.9616C238.045 66.8427 238.105 66.813 238.195 66.8427L245.383 71.1807C245.473 71.2401 245.533 71.359 245.533 71.4778V71.7452C245.533 71.8641 245.473 71.9235 245.383 71.8641Z" fill="#1D45BA"/>
<path d="M202.464 4.00195C202.795 4.26936 224.96 23.8496 224.96 23.8496L202.464 4.00195ZM201.592 4.95274C201.923 5.22014 224.088 24.8003 224.088 24.8003L201.592 4.95274ZM200.75 5.90352C201.081 6.17093 223.245 25.7511 223.245 25.7511L200.75 5.90352ZM199.878 6.8543C200.209 7.12171 222.373 26.7019 222.373 26.7019L199.878 6.8543ZM199.006 7.80509C199.336 8.0725 221.501 27.6527 221.501 27.6527L199.006 7.80509ZM198.133 8.75587C198.464 9.02328 220.629 28.6035 220.629 28.6035L198.133 8.75587ZM197.261 9.70665C197.592 9.97406 219.757 29.5543 219.757 29.5543L197.261 9.70665ZM196.389 10.6574C196.72 10.9248 218.885 30.505 218.885 30.505L196.389 10.6574ZM195.517 11.6082C195.848 11.8756 218.013 31.4558 218.013 31.4558L195.517 11.6082ZM194.645 12.559C194.976 12.8264 217.14 32.4066 217.14 32.4066L194.645 12.559ZM193.803 13.5098C194.134 13.7772 216.298 33.3574 216.298 33.3574L193.803 13.5098Z" fill="#17D1AA"/>
<path d="M203.941 14.3713C203.941 20.5514 208.181 27.5634 213.414 30.0889C215.098 30.8912 216.662 31.1288 218.046 30.8912L217.956 31.5151L219.82 30.2078C220.001 30.0889 220.151 29.9701 220.331 29.8512L220.361 29.8215C221.925 28.5736 222.888 26.3749 222.888 23.4334C222.888 17.2534 218.647 10.2413 213.414 7.71581C210.918 6.49761 208.633 6.58675 206.918 7.65638L206.858 7.71581C206.798 7.77523 206.708 7.80494 206.648 7.86437L204.723 9.17169L205.535 8.934C204.512 10.2413 203.941 12.0835 203.941 14.3713ZM208.211 16.4214C208.211 13.0343 210.527 11.4298 213.384 12.7966C216.241 14.1633 218.557 18.0259 218.557 21.413C218.557 24.8002 216.241 26.4046 213.384 25.0379C210.527 23.6711 208.211 19.8086 208.211 16.4214Z" fill="url(#paint4_linear_3416_157987)"/>
<path d="M201.776 15.8554C201.776 22.0355 206.017 29.0475 211.25 31.573C216.483 34.0688 220.723 31.0977 220.723 24.9473C220.723 18.7672 216.483 11.7552 211.25 9.22963C206.017 6.73383 201.776 9.67531 201.776 15.8554ZM206.077 17.9055C206.077 14.5184 208.393 12.9139 211.25 14.2807C214.107 15.6474 216.423 19.51 216.423 22.8971C216.423 26.2843 214.107 27.8888 211.25 26.522C208.393 25.1553 206.077 21.2927 206.077 17.9055Z" fill="#17D1AA"/>
<path d="M211.25 9.32141C206.017 6.8256 201.776 9.7968 201.776 15.9472C201.776 22.1273 206.017 29.1393 211.25 31.6648C216.483 34.1606 220.723 31.1894 220.723 25.039C220.723 18.859 216.483 11.8469 211.25 9.32141ZM211.25 26.6138C208.393 25.247 206.077 21.3845 206.077 17.9973C206.077 14.6101 208.393 13.0057 211.25 14.3724C214.107 15.7392 216.423 19.6018 216.423 22.9889C216.423 26.3761 214.107 27.9805 211.25 26.6138Z" fill="#163FA5"/>
<path opacity="0.7" d="M216.591 30.3863C220.071 28.5689 220.502 22.6266 217.552 17.1137C214.603 11.6008 209.391 8.60496 205.91 10.4223C202.43 12.2396 202 18.182 204.949 23.6949C207.899 29.2078 213.111 32.2036 216.591 30.3863Z" fill="#52FCFF"/>
<path d="M214.646 28.3054L212.871 22.2738L208.3 19.5106C207.789 20.7585 207.127 22.3333 206.586 23.5812C206.526 23.6703 206.435 23.6703 206.315 23.6109C206.135 23.5217 206.104 23.4623 206.104 23.284V23.2246L210.104 13.6871C210.225 13.4494 210.525 13.2711 210.796 13.4494C211.097 13.6276 211.247 13.9842 211.337 14.3407L215.187 27.9785C215.277 28.2162 215.397 28.6025 215.157 28.6619C214.856 28.751 214.676 28.4836 214.646 28.3054ZM210.856 14.935C210.676 14.311 210.525 14.1327 210.375 14.5487L208.541 19.0947L212.691 21.6202L210.856 14.935Z" fill="#1D45BA"/>
<path d="M215.095 23.7004L206.313 18.4116C206.223 18.3522 206.163 18.2334 206.163 18.1145V17.8471C206.163 17.7283 206.223 17.6986 206.313 17.7283L215.095 23.017C215.185 23.0764 215.245 23.1953 215.245 23.3141V23.5815C215.245 23.7004 215.185 23.7301 215.095 23.7004ZM214.283 20.8777L207.095 16.5398C207.005 16.4804 206.945 16.3615 206.945 16.2427V15.9753C206.945 15.8564 207.005 15.8267 207.095 15.8564L214.283 20.1944C214.373 20.2538 214.433 20.3726 214.433 20.4915V20.7589C214.463 20.8777 214.373 20.9075 214.283 20.8777Z" fill="#1D45BA"/>
<path d="M245.954 159.218L256.631 152.592C257.022 152.355 257.232 151.939 257.232 151.523V88.7115C257.232 86.7802 256.21 84.9678 254.526 83.9873L177.926 39.0925C176.422 38.2308 174.618 38.0822 172.994 38.7062L162.859 42.6282C162.077 42.9253 161.776 43.8761 162.288 44.5595L245.954 159.218Z" fill="#52FCFF"/>
<path d="M178.915 33.3223C179.186 33.5302 196.328 48.6536 196.328 48.6536L178.915 33.3223ZM178.253 34.0651C178.524 34.273 195.666 49.3964 195.666 49.3964L178.253 34.0651ZM177.562 34.8079C177.832 35.0158 194.975 50.1392 194.975 50.1392L177.562 34.8079ZM176.9 35.521C177.171 35.7289 194.313 50.8523 194.313 50.8523L176.9 35.521ZM176.238 36.2637C176.509 36.4717 193.651 51.5951 193.651 51.5951L176.238 36.2637ZM175.547 37.0065C175.817 37.2145 192.96 52.3379 192.96 52.3379L175.547 37.0065ZM174.885 37.7493C175.156 37.9573 192.298 53.0807 192.298 53.0807L174.885 37.7493ZM174.223 38.4624C174.494 38.6704 191.637 53.7938 191.637 53.7938L174.223 38.4624ZM173.532 39.2052C173.802 39.4132 190.945 54.5366 190.945 54.5366L173.532 39.2052ZM172.87 39.948C173.141 40.156 190.283 55.2794 190.283 55.2794L172.87 39.948ZM172.208 40.6908C172.479 40.8988 189.622 56.0222 189.622 56.0222L172.208 40.6908Z" fill="#17D1AA"/>
<path d="M180.031 41.3488C180.031 46.1324 183.309 51.5697 187.369 53.501C188.663 54.1249 189.896 54.3032 190.948 54.1249L190.888 54.6003L192.332 53.5901C192.482 53.501 192.602 53.4119 192.723 53.3227L192.753 53.293C193.956 52.3422 194.708 50.6189 194.708 48.3608C194.708 43.5772 191.429 38.1399 187.369 36.2086C185.415 35.2875 183.67 35.3173 182.347 36.1492L182.287 36.1789C182.227 36.2086 182.167 36.268 182.106 36.2978L180.633 37.308L181.264 37.1297C180.512 38.1399 180.031 39.5958 180.031 41.3488ZM183.37 42.9532C183.37 40.3386 185.174 39.0907 187.369 40.1306C189.595 41.2002 191.369 44.1714 191.369 46.7861C191.369 49.4007 189.565 50.6486 187.369 49.6087C185.144 48.5391 183.37 45.5679 183.37 42.9532Z" fill="url(#paint5_linear_3416_157987)"/>
<path d="M178.375 42.5051C178.375 47.2888 181.653 52.7261 185.713 54.6574C189.743 56.5886 193.051 54.3008 193.051 49.5172C193.051 44.7335 189.773 39.2963 185.713 37.365C181.653 35.4337 178.375 37.7215 178.375 42.5051ZM181.683 44.0799C181.683 41.4652 183.487 40.2173 185.683 41.2572C187.878 42.2972 189.682 45.2981 189.682 47.9127C189.682 50.5274 187.878 51.7753 185.683 50.7354C183.487 49.6954 181.683 46.6945 181.683 44.0799Z" fill="#17D1AA"/>
<path d="M185.713 37.4568C181.683 35.5255 178.375 37.8133 178.375 42.5969C178.375 47.3806 181.653 52.8179 185.713 54.7491C189.743 56.6804 193.051 54.3926 193.051 49.609C193.021 44.8253 189.743 39.3881 185.713 37.4568ZM185.713 50.8272C183.487 49.7575 181.713 46.7863 181.713 44.1717C181.713 41.557 183.517 40.3091 185.713 41.349C187.938 42.4187 189.713 45.3899 189.713 48.0045C189.713 50.6192 187.908 51.8968 185.713 50.8272Z" fill="#163FA5"/>
<path opacity="0.7" d="M189.844 53.7292C192.531 52.3259 192.86 47.7307 190.578 43.4655C188.296 39.2002 184.267 36.8801 181.58 38.2834C178.893 39.6866 178.564 44.2819 180.846 48.5471C183.128 52.8124 187.156 55.1324 189.844 53.7292Z" fill="#52FCFF"/>
<path d="M188.328 52.1336L186.945 47.4688L183.426 45.3295C183.035 46.31 182.524 47.4985 182.103 48.479C182.073 48.5384 181.982 48.5384 181.892 48.479C181.772 48.3899 181.742 48.3601 181.742 48.2116V48.1819L184.839 40.8133C184.93 40.635 185.17 40.4865 185.381 40.635C185.621 40.7836 185.742 41.051 185.802 41.3184L188.779 51.8662C188.839 52.0741 188.929 52.3416 188.749 52.401C188.478 52.4604 188.358 52.2821 188.328 52.1336ZM185.411 41.7938C185.26 41.3184 185.14 41.1698 185.02 41.4967L183.606 45.0027L186.824 46.934L185.411 41.7938Z" fill="#1D45BA"/>
<path d="M188.659 48.5669L181.862 44.4667C181.802 44.437 181.742 44.3181 181.742 44.229V44.021C181.742 43.9319 181.802 43.9022 181.862 43.9319L188.659 48.0321C188.719 48.0618 188.779 48.1807 188.779 48.2698V48.4778C188.809 48.5669 188.749 48.5967 188.659 48.5669ZM188.057 46.3683L182.494 43.0108C182.433 42.9811 182.373 42.8622 182.373 42.7731V42.5651C182.373 42.476 182.433 42.4463 182.494 42.476L188.057 45.8334C188.117 45.8631 188.178 45.982 188.178 46.0711V46.2791C188.178 46.3683 188.117 46.4277 188.057 46.3683Z" fill="#1D45BA"/>
<path d="M243.881 160.521L254.557 153.895C254.948 153.658 255.159 153.242 255.159 152.826V90.0145C255.159 88.0832 254.136 86.2708 252.452 85.2903L175.853 40.3955C174.349 39.5339 172.123 39.2665 170.499 39.8904L160.755 43.5747C159.973 43.8718 159.703 45.1791 160.184 45.8625L243.881 160.521Z" fill="url(#paint6_linear_3416_157987)"/>
<path d="M242.225 161.504L252.871 154.938C253.262 154.7 253.383 153.928 253.383 153.512V90.7302C253.383 88.7989 252.36 86.9865 250.676 86.006L174.077 41.1112C172.573 40.2495 170.077 39.8336 168.483 40.4575L159.009 44.6172C158.227 44.9143 157.927 45.8651 158.438 46.5485L242.225 161.504Z" fill="#52FCFF"/>
<path d="M240.148 162.87L250.434 156.422C250.825 156.185 250.945 155.65 250.945 155.204V91.7095C250.945 89.7783 249.923 87.9658 248.238 86.9853L171.639 42.0905C170.135 41.2289 167.85 40.6941 166.256 41.318L156.572 45.6263C155.79 45.9234 155.489 46.8742 156 47.5576L240.148 162.87Z" fill="url(#paint7_linear_3416_157987)"/>
<path d="M238.767 163.82L248.03 157.937C248.421 157.7 248.511 157.105 248.511 156.66V92.6305C248.511 90.6992 247.488 88.8868 245.804 87.9063L169.205 43.0115C167.701 42.1498 165.746 41.4367 164.122 42.0607L155.762 45.3587C154.98 45.6558 156.544 47.1712 157.025 47.8545L238.767 163.82Z" fill="#52FCFF"/>
<path d="M199.696 40.5195C200.237 40.9355 235.364 71.9548 235.364 71.9548L199.696 40.5195ZM198.342 42.0348C198.884 42.4508 234.01 73.4701 234.01 73.4701L198.342 42.0348ZM196.959 43.5204C197.5 43.9364 232.627 74.9557 232.627 74.9557L196.959 43.5204ZM195.575 45.0358C196.117 45.4517 231.244 76.471 231.244 76.471L195.575 45.0358ZM194.192 46.5511C194.733 46.967 229.86 77.9863 229.86 77.9863L194.192 46.5511ZM192.839 48.0367C193.38 48.4526 228.507 79.4719 228.507 79.4719L192.839 48.0367ZM191.455 49.552C191.997 49.9679 227.123 80.9873 227.123 80.9873L191.455 49.552ZM190.072 51.0673C190.613 51.4833 225.74 82.5026 225.74 82.5026L190.072 51.0673ZM188.688 52.5529C189.23 52.9689 224.357 83.9882 224.357 83.9882L188.688 52.5529ZM187.335 54.0682C187.876 54.4842 222.973 85.5035 222.973 85.5035L187.335 54.0682ZM185.952 55.5835C186.493 55.9995 221.62 87.0188 221.62 87.0188L185.952 55.5835Z" fill="#17D1AA"/>
<path d="M202.013 56.9511C202.013 66.7263 208.72 77.8683 217.02 81.8497C219.697 83.1273 222.193 83.5136 224.358 83.0976L224.208 84.0781L227.155 82.028C227.426 81.8497 227.697 81.6714 227.967 81.4634L228.027 81.4337C230.494 79.4727 232.027 75.9667 232.027 71.3317C232.027 61.5564 225.321 50.4144 217.02 46.433C213.05 44.5315 209.442 44.6206 206.735 46.3142L206.615 46.4033C206.494 46.4924 206.374 46.5519 206.284 46.641L203.246 48.7208L204.539 48.3346C202.945 50.3847 202.013 53.3262 202.013 56.9511ZM208.81 60.2194C208.81 54.8712 212.479 52.2863 217.02 54.4553C221.561 56.6242 225.231 62.7449 225.231 68.0931C225.231 73.4412 221.561 76.0262 217.02 73.8572C212.479 71.6585 208.81 65.5675 208.81 60.2194Z" fill="url(#paint8_linear_3416_157987)"/>
<path d="M198.614 59.2954C198.614 69.0707 205.32 80.2127 213.621 84.1941C221.891 88.1755 228.628 83.4513 228.628 73.676C228.628 63.9008 221.921 52.7588 213.621 48.7774C205.32 44.8257 198.614 49.5202 198.614 59.2954ZM205.38 62.5638C205.38 57.2156 209.05 54.6307 213.591 56.7996C218.132 58.9686 221.801 65.0893 221.801 70.4374C221.801 75.7856 218.132 78.3705 213.591 76.2016C209.08 74.0029 205.38 67.9119 205.38 62.5638Z" fill="#17D1AA"/>
<path d="M213.621 48.9558C205.35 44.9744 198.614 49.6986 198.614 59.4738C198.614 69.2491 205.32 80.3911 213.621 84.3725C221.891 88.3539 228.628 83.6297 228.628 73.8544C228.628 64.0792 221.891 52.9372 213.621 48.9558ZM213.621 76.3502C209.08 74.1813 205.411 68.0606 205.411 62.7124C205.411 57.3643 209.08 54.7793 213.621 56.9483C218.162 59.1173 221.831 65.238 221.831 70.5861C221.831 75.9343 218.132 78.5192 213.621 76.3502Z" fill="#163FA5"/>
<path opacity="0.7" d="M222.077 82.2955C227.584 79.42 228.26 70.0089 223.588 61.2753C218.915 52.5417 210.664 47.7928 205.157 50.6684C199.65 53.5439 198.974 62.955 203.646 71.6886C208.319 80.4221 216.571 85.171 222.077 82.2955Z" fill="#52FCFF"/>
<path d="M218.978 78.9953L216.181 69.4578L208.963 65.0901C208.151 67.0808 207.099 69.5469 206.226 71.5376C206.136 71.6565 205.986 71.6862 205.805 71.5673C205.535 71.4188 205.475 71.2999 205.475 71.0622V70.9731L211.82 55.8497C212.001 55.4634 212.482 55.196 212.933 55.4634C213.414 55.7606 213.655 56.2954 213.805 56.8896L219.88 78.5199C220.001 78.9062 220.211 79.5301 219.82 79.6193C219.309 79.7084 219.068 79.3222 218.978 78.9953ZM212.993 57.8404C212.692 56.8599 212.452 56.5925 212.211 57.2164L209.324 64.4067L215.91 68.3881L212.993 57.8404Z" fill="#1D45BA"/>
<path d="M219.698 71.7167L205.803 63.3082C205.653 63.2191 205.533 63.0111 205.533 62.8328V62.3871C205.533 62.2089 205.653 62.1197 205.803 62.2089L219.698 70.6174C219.848 70.7065 219.968 70.9145 219.968 71.0928V71.5384C219.938 71.7167 219.848 71.8058 219.698 71.7167ZM218.435 67.2302L207.067 60.3667C206.916 60.2776 206.796 60.0696 206.796 59.8913V59.4457C206.796 59.2674 206.916 59.1783 207.067 59.2674L218.435 66.1309C218.585 66.22 218.705 66.428 218.705 66.6062V67.0519C218.675 67.2599 218.585 67.3193 218.435 67.2302Z" fill="#1D45BA"/>
<path opacity="0.5" d="M241.771 94.4458L256.358 85.7402C256.358 85.7402 257.26 86.7801 257.26 88.3549V151.612C257.26 151.998 257.049 152.354 256.718 152.562L245.982 159.218L241.771 94.4458Z" fill="url(#paint9_linear_3416_157987)"/>
<path d="M180.03 31.0703C180.03 31.0703 176.572 29.6738 172.963 29.3767C165.625 28.7825 153.294 30.7137 154.046 46.2234L162.738 44.8864L165.143 45.3915C151.61 37.7258 170.467 30.2384 179.158 34.9923L184.722 33.7444L180.03 31.0703Z" fill="#17D1AA"/>
<path d="M238.949 169.142L244.122 166.26C245.294 165.606 246.016 164.329 245.956 162.992V96.6447C245.956 96.6447 245.986 91.5342 240.453 88.5036C235.22 85.6215 161.297 43.2522 161.297 43.2522C161.297 43.2522 154.65 40.8456 154.26 47.8576C153.869 54.8696 154.5 118.542 154.5 118.542L238.949 169.142Z" fill="#17D1AA"/>
<path d="M238.945 169.144L244.118 166.262C245.291 165.608 246.013 164.331 245.952 162.994V96.647C245.952 96.647 245.982 91.5365 240.449 88.5059C235.216 85.6238 230.224 82.6526 230.224 82.6526C230.224 82.6526 223.577 80.246 223.186 87.258C222.795 94.27 223.577 160.855 223.577 160.855L238.945 169.144Z" fill="url(#paint10_linear_3416_157987)"/>
<path d="M236.93 168.725L157.684 123.771C155.699 122.642 154.075 119.611 154.075 117.026V49.1639C153.835 43.3998 154.226 41.7656 154.226 41.7656C154.226 41.7656 154.707 43.9049 156.271 45.3608C156.782 45.8362 158.857 47.2029 159.609 47.6189L236.9 91.4738C238.885 92.6028 240.509 95.6334 240.509 98.2184V166.081C240.509 168.665 238.885 169.854 236.93 168.725Z" fill="url(#paint11_linear_3416_157987)"/>
<path d="M269.505 102.586L266.588 101.635L266.678 102.586L240.484 117.174L233.386 113.341C233.386 113.341 227.462 111.024 222.98 117.679L240.424 121.185L269.505 102.586Z" fill="#52FCFF"/>
<path d="M240.481 140.676L229.294 134.555C224.632 132 221.715 127.127 221.715 121.868C221.715 116.074 228 112.42 233.143 115.213L240.481 119.224V140.676Z" fill="url(#paint12_linear_3416_157987)"/>
<path d="M236.358 126.981C236.358 129.447 234.404 130.725 231.968 129.804C229.531 128.883 227.577 126.119 227.577 123.653C227.577 121.187 229.531 119.91 231.968 120.831C234.404 121.752 236.358 124.515 236.358 126.981Z" fill="url(#paint13_linear_3416_157987)"/>
<path d="M269.5 124.038L240.479 140.706V119.254L269.5 102.586V124.038Z" fill="url(#paint14_linear_3416_157987)"/>
<path d="M199.158 109.152L198.226 109.271C195.91 106.389 193.625 103.536 191.309 100.654V100.209V99.3469C193.925 102.615 196.512 105.883 199.158 109.152ZM197.203 101.962C196.782 102.021 196.361 102.051 195.94 102.11C195.88 102.11 195.85 102.11 195.79 102.021C195.279 101.367 194.767 100.743 194.226 100.09L192.602 98.0395C192.331 97.7127 192.091 97.3859 191.82 97.0887L189.956 96.0488C190.046 96.1677 190.136 96.2865 190.226 96.3757C190.707 96.9699 191.189 97.5939 191.7 98.1881C192.181 98.7823 192.662 99.4063 193.143 100.001L194.497 101.694C194.918 102.229 195.369 102.764 195.79 103.299C195.85 103.358 195.88 103.388 195.91 103.358C196.271 103.328 196.602 103.299 196.963 103.239C197.835 103.15 198.677 103.031 199.549 102.942C200.181 102.883 200.812 102.793 201.414 102.734C201.534 102.734 201.685 102.704 201.805 102.675L199.94 101.605C199.038 101.754 198.136 101.843 197.203 101.962ZM191.309 102.496C191.279 102.496 191.279 102.526 191.309 102.496V103.774C192.843 105.676 194.376 107.607 195.94 109.538L196.873 109.419C195.008 107.102 193.143 104.814 191.309 102.496ZM200.512 104.546C199.369 104.695 198.226 104.814 197.083 104.962C197.113 104.992 197.113 105.022 197.113 105.022C197.414 105.378 197.685 105.765 197.985 106.121L198.015 106.151C198.858 106.062 199.67 105.943 200.512 105.854V104.546ZM200.512 107.755C200.121 107.815 199.76 107.844 199.369 107.904C199.67 108.29 199.97 108.647 200.271 109.033L200.512 109.003V107.755ZM192.031 110.221L192.211 110.311L191.189 111.321V112.628L191.038 112.539V111.232L190.016 109.092L190.196 109.182L191.098 111.113L192.031 110.221ZM193.775 114.084C193.354 113.846 193.023 113.519 192.752 113.074C192.482 112.658 192.362 112.212 192.362 111.796C192.362 111.38 192.482 111.113 192.752 110.994C193.023 110.875 193.354 110.905 193.775 111.143C194.166 111.38 194.527 111.707 194.798 112.123C195.068 112.539 195.219 112.985 195.219 113.401C195.219 113.817 195.068 114.114 194.798 114.233C194.527 114.381 194.196 114.322 193.775 114.084ZM193.775 113.965C194.136 114.173 194.437 114.203 194.677 114.114C194.918 113.995 195.038 113.757 195.038 113.371C195.038 112.985 194.918 112.598 194.677 112.212C194.437 111.826 194.136 111.529 193.775 111.35C193.384 111.143 193.083 111.083 192.843 111.202C192.602 111.321 192.482 111.558 192.482 111.945C192.482 112.301 192.602 112.688 192.843 113.074C193.113 113.43 193.414 113.727 193.775 113.965ZM197.745 116.312L197.564 116.223L196.692 114.53L195.97 114.114V115.332L195.82 115.243V112.361L196.782 112.896C197.083 113.074 197.324 113.282 197.474 113.519C197.625 113.757 197.715 113.995 197.715 114.262C197.715 114.53 197.625 114.678 197.474 114.738C197.324 114.797 197.113 114.767 196.873 114.619L197.745 116.312ZM195.97 112.569V113.965L196.722 114.381C197.264 114.678 197.564 114.619 197.564 114.143C197.564 113.906 197.504 113.698 197.354 113.519C197.234 113.341 197.023 113.163 196.813 113.044L195.97 112.569ZM199.579 117.352C199.158 117.115 198.827 116.788 198.557 116.342C198.286 115.926 198.166 115.48 198.166 115.064C198.166 114.649 198.286 114.381 198.557 114.262C198.827 114.143 199.158 114.173 199.579 114.411C199.97 114.649 200.331 114.975 200.602 115.391C200.873 115.807 201.023 116.253 201.023 116.669C201.023 117.085 200.873 117.382 200.602 117.501C200.301 117.649 199.97 117.59 199.579 117.352ZM199.579 117.204C199.94 117.412 200.241 117.441 200.482 117.352C200.722 117.233 200.842 116.996 200.842 116.61C200.842 116.223 200.722 115.837 200.482 115.451C200.241 115.064 199.94 114.767 199.579 114.589C199.188 114.381 198.888 114.322 198.647 114.441C198.406 114.559 198.286 114.797 198.286 115.183C198.286 115.54 198.406 115.926 198.647 116.312C198.888 116.699 199.188 116.996 199.579 117.204ZM201.624 118.511V115.629L201.775 115.718V118.6L201.624 118.511ZM194.798 115.599L194.858 115.629L194.617 116.194L194.557 116.164L194.346 115.421L194.136 115.926L194.076 115.896L193.835 115.064L193.895 115.094L194.106 115.837L194.316 115.332L194.376 115.362L194.587 116.104L194.798 115.599ZM195.64 116.075L195.7 116.104V116.817L195.64 116.788V116.639C195.579 116.699 195.489 116.699 195.339 116.639C195.249 116.58 195.158 116.491 195.098 116.402C195.038 116.312 195.008 116.194 195.008 116.075C195.008 115.956 195.038 115.896 195.098 115.867C195.158 115.837 195.249 115.837 195.339 115.896C195.399 115.926 195.459 115.986 195.519 116.045C195.579 116.104 195.61 116.164 195.64 116.223V116.075ZM195.339 116.55C195.429 116.61 195.489 116.61 195.549 116.58C195.61 116.55 195.64 116.491 195.64 116.402C195.64 116.312 195.61 116.223 195.549 116.134C195.489 116.045 195.429 115.986 195.339 115.926C195.249 115.867 195.188 115.867 195.128 115.896C195.068 115.926 195.038 115.986 195.038 116.075C195.038 116.164 195.068 116.253 195.128 116.342C195.188 116.431 195.249 116.52 195.339 116.55ZM196.001 116.966V115.896L196.061 115.926V116.996L196.001 116.966ZM196.361 117.174V116.104L196.422 116.134V117.204L196.361 117.174ZM197.324 117.352C197.324 117.352 197.324 117.382 197.324 117.352L196.722 117.055C196.722 117.144 196.752 117.233 196.813 117.323C196.873 117.412 196.933 117.471 197.023 117.531C197.113 117.59 197.203 117.59 197.264 117.56L197.294 117.62C197.234 117.679 197.143 117.649 197.023 117.59C196.933 117.531 196.843 117.441 196.782 117.352C196.722 117.263 196.692 117.144 196.692 117.025C196.692 116.907 196.722 116.847 196.782 116.817C196.843 116.788 196.933 116.788 197.023 116.847C197.113 116.907 197.203 116.966 197.264 117.085C197.294 117.144 197.324 117.233 197.324 117.352ZM197.023 116.877C196.963 116.847 196.873 116.817 196.843 116.847C196.782 116.877 196.752 116.907 196.752 116.996L197.294 117.293C197.294 117.204 197.264 117.115 197.203 117.055C197.143 116.996 197.083 116.907 197.023 116.877ZM197.775 117.976C197.715 117.947 197.655 117.887 197.655 117.857C197.625 117.798 197.625 117.768 197.625 117.679V117.204L197.534 117.144V117.085L197.625 117.144V116.907L197.685 116.936V117.204L197.955 117.352V117.412L197.685 117.263V117.709C197.685 117.768 197.685 117.828 197.715 117.857L197.805 117.947C197.865 117.976 197.895 117.976 197.955 117.976V118.036C197.865 118.006 197.805 118.006 197.775 117.976ZM189.956 113.311L193.595 115.362L189.956 113.311ZM198.166 117.947L201.805 119.997L198.166 117.947Z" fill="#52FCFF"/>
<path d="M195.667 86.9574C184.149 79.47 174.826 82.6492 174.826 93.9991L167.878 89.4829L167.066 89.7503L177.141 104.666L185.592 101.784L185.171 100.714L179.457 97C179.457 88.1459 186.705 85.7095 195.667 91.533C204.629 97.3566 211.877 109.241 211.877 118.066C211.877 126.89 204.629 129.356 195.667 123.533C192.148 121.245 188.57 117.412 185.893 113.817L182.555 115.035L182.164 115.837C185.652 120.621 191.066 125.108 195.667 128.079C207.186 135.566 216.509 132.387 216.509 121.037C216.509 109.687 207.186 94.4151 195.667 86.9574Z" fill="url(#paint15_linear_3416_157987)"/>
<path d="M194.855 87.223C183.337 79.7356 174.014 82.9148 174.014 94.2647L167.066 89.7485L176.329 104.902L185.592 101.782L178.645 97.2657C178.645 88.4115 185.893 85.9751 194.855 91.7987C203.817 97.6222 211.065 109.507 211.065 118.331C211.065 127.156 203.817 129.622 194.855 123.798C191.336 121.511 188.118 118.302 185.442 114.707L182.164 115.865C185.682 120.827 190.073 125.284 194.825 128.374C206.343 135.862 215.667 132.682 215.667 121.332C215.667 109.982 206.343 94.6807 194.855 87.223Z" fill="#52FCFF"/>
<g opacity="0.5">
<path d="M65.6938 135.963C65.9472 136.158 81.9953 150.316 81.9953 150.316L65.6938 135.963ZM65.0463 136.658C65.2997 136.853 81.3477 151.011 81.3477 151.011L65.0463 136.658ZM64.4269 137.354C64.6803 137.548 80.7283 151.706 80.7283 151.706L64.4269 137.354ZM63.8075 138.049C64.0327 138.216 80.0808 152.402 80.0808 152.402L63.8075 138.049ZM63.1599 138.717C63.4133 138.911 79.4614 153.097 79.4614 153.097L63.1599 138.717ZM62.5405 139.412C62.7939 139.607 78.842 153.765 78.842 153.765L62.5405 139.412ZM61.9211 140.107C62.1745 140.302 78.2226 154.46 78.2226 154.46L61.9211 140.107ZM61.2736 140.803C61.5269 140.997 77.575 155.155 77.575 155.155L61.2736 140.803ZM60.6542 141.47C60.9075 141.665 76.9556 155.823 76.9556 155.823L60.6542 141.47ZM60.0348 142.166C60.2882 142.36 76.3362 156.518 76.3362 156.518L60.0348 142.166ZM59.3872 142.861C59.6406 143.056 75.6887 157.214 75.6887 157.214L59.3872 142.861Z" fill="#17D1AA"/>
<path d="M66.7354 143.535C66.7354 148.014 69.8042 153.104 73.605 154.912C74.8157 155.496 75.97 155.663 76.9554 155.496L76.8991 155.941L78.2505 154.995C78.3913 154.912 78.5039 154.828 78.6165 154.745L78.6447 154.717C79.7709 153.827 80.4747 152.214 80.4747 150.1C80.4747 145.622 77.4059 140.531 73.605 138.723C71.775 137.861 70.142 137.889 68.9032 138.668L68.8469 138.696C68.7906 138.723 68.7343 138.779 68.678 138.807L67.2984 139.753L67.8897 139.586C67.1577 140.531 66.7354 141.866 66.7354 143.535ZM69.8323 145.01C69.8323 142.562 71.5216 141.394 73.5769 142.367C75.6603 143.369 77.3214 146.15 77.3214 148.598C77.3214 151.046 75.6322 152.214 73.5769 151.24C71.5216 150.239 69.8323 147.457 69.8323 145.01Z" fill="url(#paint16_linear_3416_157987)"/>
<path d="M65.1885 144.591C65.1885 149.069 68.2573 154.159 72.0582 155.967C75.8309 157.775 78.9279 155.633 78.9279 151.155C78.9279 146.677 75.859 141.587 72.0582 139.779C68.2573 137.971 65.1885 140.14 65.1885 144.591ZM68.2855 146.093C68.2855 143.645 69.9747 142.477 72.03 143.45C74.1134 144.451 75.8027 147.233 75.8027 149.681C75.8027 152.128 74.1134 153.297 72.0582 152.323C69.9747 151.322 68.2855 148.54 68.2855 146.093Z" fill="#17D1AA"/>
<path d="M72.025 139.86C68.2523 138.052 65.1553 140.194 65.1553 144.672C65.1553 149.151 68.2241 154.241 72.025 156.049C75.7977 157.857 78.8947 155.715 78.8947 151.237C78.8947 146.758 75.8258 141.668 72.025 139.86ZM72.025 152.377C69.9415 151.376 68.2804 148.594 68.2804 146.147C68.2804 143.699 69.9697 142.531 72.025 143.504C74.1084 144.505 75.7977 147.315 75.7977 149.763C75.7977 152.21 74.1084 153.379 72.025 152.377Z" fill="#163FA5"/>
<path opacity="0.7" d="M75.8913 155.109C78.407 153.795 78.7146 149.493 76.5784 145.5C74.4421 141.507 70.6709 139.335 68.1552 140.649C65.6395 141.962 65.3319 146.264 67.4681 150.257C69.6044 154.25 73.3755 156.422 75.8913 155.109Z" fill="#52FCFF"/>
<path d="M74.4783 153.602L73.1832 149.235L69.8892 147.233C69.5231 148.15 69.0445 149.263 68.6504 150.181C68.6222 150.237 68.5377 150.237 68.4533 150.181C68.3407 150.097 68.3125 150.07 68.3125 149.931L71.2124 143.032C71.2969 142.866 71.5221 142.726 71.7192 142.866C71.9444 143.005 72.057 143.255 72.1134 143.505L74.9007 153.38C74.957 153.574 75.0414 153.825 74.8725 153.88C74.6473 153.936 74.5346 153.741 74.4783 153.602ZM71.7474 143.923C71.6066 143.477 71.494 143.338 71.3813 143.644L70.0581 146.927L73.0706 148.735L71.7474 143.923Z" fill="#1D45BA"/>
<path d="M74.8159 150.263L68.4529 146.425C68.3966 146.397 68.3403 146.286 68.3403 146.202V146.008C68.3403 145.924 68.3966 145.896 68.4529 145.924L74.8159 149.763C74.8722 149.79 74.9285 149.902 74.9285 149.985V150.18C74.9285 150.263 74.8722 150.291 74.8159 150.263ZM74.2528 148.205L69.0442 145.062C68.9879 145.034 68.9316 144.923 68.9316 144.839V144.645C68.9316 144.561 68.9879 144.533 69.0442 144.561L74.2528 147.704C74.3091 147.732 74.3654 147.843 74.3654 147.927V148.122C74.3654 148.233 74.3091 148.261 74.2528 148.205Z" fill="#1D45BA"/>
<path d="M131.967 288.34L135.768 286.226C136.866 285.614 137.542 284.418 137.485 283.166V221.055C137.485 221.055 137.513 216.27 132.333 213.433C127.434 210.735 56.4566 170.041 56.4566 170.041C56.4566 170.041 52.0363 168.818 51.6703 175.382C51.3043 181.946 51.8956 241.555 51.8956 241.555L131.967 288.34Z" fill="#17D1AA"/>
<path d="M131.969 288.339L135.77 286.225C136.868 285.613 137.543 284.417 137.487 283.166V221.054C137.487 221.054 137.515 216.27 132.335 213.433C127.436 210.735 121.439 207.258 121.439 207.258C121.439 207.258 118.539 224.865 118.173 231.429C117.807 237.994 119.89 282.582 119.89 282.582L131.969 288.339Z" fill="url(#paint17_linear_3416_157987)"/>
<path d="M129.802 215.824L55.6148 173.739C55.3051 173.572 54.9954 173.461 54.7139 173.405C34.9776 165.422 36.9202 181.054 36.9202 181.054L52.2644 189.232V239.8C52.2644 242.22 53.7848 245.085 55.643 246.114L129.802 288.171C131.66 289.228 133.18 288.088 133.18 285.668V222.138C133.18 219.718 131.66 216.853 129.802 215.824Z" fill="url(#paint18_linear_3416_157987)"/>
<path d="M118.144 289.977L128.138 283.774C128.504 283.552 128.702 283.162 128.702 282.773V223.971C128.702 222.163 127.744 220.467 126.168 219.549L54.4581 177.52C53.0504 176.713 51.3611 176.574 49.8408 177.158L40.3527 180.83C39.6207 181.108 39.3392 181.998 39.8178 182.638L118.144 289.977Z" fill="#52FCFF"/>
<path d="M116.204 291.201L126.199 284.998C126.565 284.776 126.762 284.386 126.762 283.997V225.195C126.762 223.387 125.805 221.691 124.228 220.773L52.5187 178.744C51.111 177.937 49.0275 177.687 47.5072 178.271L38.3852 181.72C37.6531 181.998 37.3997 183.222 37.8502 183.862L116.204 291.201Z" fill="url(#paint19_linear_3416_157987)"/>
<path d="M114.652 292.121L124.619 285.974C124.985 285.751 125.098 285.028 125.098 284.639V225.865C125.098 224.057 124.14 222.36 122.564 221.443L50.8541 179.414C49.4464 178.607 47.1096 178.218 45.6174 178.802L36.7487 182.696C36.0167 182.974 35.7352 183.864 36.2138 184.504L114.652 292.121Z" fill="#52FCFF"/>
<path d="M112.713 293.404L122.342 287.368C122.708 287.145 122.82 286.644 122.82 286.227V226.786C122.82 224.978 121.863 223.281 120.286 222.363L48.5768 180.334C47.1691 179.528 45.0293 179.027 43.5371 179.611L34.4714 183.644C33.7394 183.923 33.4578 184.813 33.9365 185.452L112.713 293.404Z" fill="url(#paint20_linear_3416_157987)"/>
<path d="M111.414 294.294L120.086 288.787C120.452 288.564 120.536 288.008 120.536 287.591V227.649C120.536 225.841 119.579 224.144 118.002 223.226L46.2929 181.197C44.8852 180.391 43.0552 179.723 41.5348 180.307L33.7079 183.395C32.9758 183.673 34.4399 185.092 34.8904 185.731L111.414 294.294Z" fill="#52FCFF"/>
<path opacity="0.5" d="M114.231 229.343L127.886 221.193C127.886 221.193 128.731 222.167 128.731 223.641V282.86C128.731 283.221 128.533 283.555 128.224 283.75L118.173 289.981L114.231 229.343Z" fill="url(#paint21_linear_3416_157987)"/>
<path d="M56.429 170.013C56.429 170.013 53.1912 168.706 49.8127 168.428C42.943 167.871 31.3996 169.679 32.1035 184.199L40.2402 182.947L42.4925 183.42C29.823 176.244 47.4759 169.234 55.6125 173.685L60.8211 172.516L56.429 170.013Z" fill="#17D1AA"/>
<path d="M111.586 299.27L116.428 296.572C117.526 295.96 118.202 294.764 118.146 293.512V231.4C118.146 231.4 118.174 226.616 112.993 223.779C108.095 221.081 38.8908 181.416 38.8908 181.416C38.8908 181.416 32.6687 179.163 32.3026 185.728C31.9366 192.292 32.5279 251.9 32.5279 251.9L111.586 299.27Z" fill="#17D1AA"/>
<path d="M111.585 299.271L116.428 296.573C117.526 295.961 118.202 294.765 118.145 293.514V231.402C118.145 231.402 118.174 226.618 112.993 223.781C108.094 221.083 103.421 218.301 103.421 218.301C103.421 218.301 97.1985 216.048 96.8325 222.612C96.4665 229.177 97.1985 291.511 97.1985 291.511L111.585 299.271Z" fill="url(#paint22_linear_3416_157987)"/>
<path d="M109.643 299.046L35.4557 256.962C33.5975 255.905 32.0772 253.067 32.0772 250.647V187.117C31.8519 181.721 32.2179 180.191 32.2179 180.191C32.2179 180.191 32.6684 182.194 34.1324 183.557C34.6111 184.002 36.5537 185.282 37.2576 185.671L109.615 226.726C111.473 227.783 112.993 230.62 112.993 233.04V296.571C113.021 298.99 111.501 300.103 109.643 299.046Z" fill="url(#paint23_linear_3416_157987)"/>
<path d="M74.7343 160.863C75.1847 161.197 104.437 187.037 104.437 187.037L74.7343 160.863ZM73.5799 162.115C74.0304 162.449 103.283 188.289 103.283 188.289L73.5799 162.115ZM72.4256 163.367C72.8761 163.7 102.129 189.541 102.129 189.541L72.4256 163.367ZM71.2994 164.618C71.7499 164.952 101.002 190.793 101.002 190.793L71.2994 164.618ZM70.1451 165.87C70.5956 166.204 99.8481 192.044 99.8481 192.044L70.1451 165.87ZM68.9908 167.122C69.4412 167.456 98.6937 193.296 98.6937 193.296L68.9908 167.122ZM67.8646 168.373C68.315 168.707 97.5676 194.548 97.5676 194.548L67.8646 168.373ZM66.7102 169.625C67.1607 169.959 96.4132 195.799 96.4132 195.799L66.7102 169.625ZM65.5559 170.877C66.0064 171.211 95.2589 197.051 95.2589 197.051L65.5559 170.877ZM64.4297 172.128C64.8802 172.462 94.1327 198.303 94.1327 198.303L64.4297 172.128ZM63.2754 173.408C63.7259 173.742 92.9784 199.582 92.9784 199.582L63.2754 173.408Z" fill="#17D1AA"/>
<path d="M76.6455 174.547C76.6455 182.697 82.2482 191.987 89.1461 195.27C91.3703 196.327 93.4537 196.633 95.2556 196.327L95.143 197.161L97.6206 195.437C97.8458 195.297 98.0711 195.131 98.2963 194.964L98.3245 194.936C100.38 193.295 101.647 190.374 101.647 186.508C101.647 178.358 96.0439 169.068 89.1461 165.785C85.8239 164.2 82.8113 164.283 80.5871 165.702L80.5027 165.758C80.4182 165.813 80.3056 165.897 80.2211 165.952L77.6872 167.677L78.7571 167.343C77.4338 169.068 76.6455 171.515 76.6455 174.547ZM82.3046 177.273C82.3046 172.823 85.3734 170.681 89.1461 172.489C92.9188 174.297 95.9876 179.387 95.9876 183.838C95.9876 188.288 92.9188 190.43 89.1461 188.622C85.3734 186.814 82.3046 181.724 82.3046 177.273Z" fill="url(#paint24_linear_3416_157987)"/>
<path d="M73.8052 176.523C73.8052 184.673 79.4079 193.963 86.3058 197.245C93.2036 200.555 98.8064 196.633 98.8064 188.483C98.8064 180.334 93.2036 171.043 86.3058 167.761C79.4079 164.451 73.8052 168.373 73.8052 176.523ZM79.4642 179.221C79.4642 174.77 82.5331 172.629 86.3058 174.437C90.0785 176.245 93.1473 181.335 93.1473 185.785C93.1473 190.236 90.0785 192.378 86.3058 190.57C82.5331 188.762 79.4642 183.671 79.4642 179.221Z" fill="#17D1AA"/>
<path d="M86.3058 167.872C79.4079 164.562 73.8052 168.484 73.8052 176.634C73.8052 184.784 79.4079 194.074 86.3058 197.357C93.2036 200.667 98.8064 196.745 98.8064 188.595C98.8064 180.445 93.2036 171.182 86.3058 167.872ZM86.3058 190.709C82.5331 188.901 79.4642 183.81 79.4642 179.36C79.4642 174.91 82.5331 172.768 86.3058 174.576C90.0785 176.384 93.1473 181.474 93.1473 185.924C93.1473 190.375 90.0785 192.517 86.3058 190.709Z" fill="#163FA5"/>
<path opacity="0.7" d="M93.3579 195.685C97.9495 193.287 98.5144 185.442 94.6198 178.162C90.7251 170.883 83.8457 166.925 79.2542 169.323C74.6626 171.72 74.0977 179.565 77.9923 186.845C81.887 194.125 88.7664 198.082 93.3579 195.685Z" fill="#52FCFF"/>
<path d="M90.7782 192.906L88.4414 184.951L82.4163 181.307C81.7406 182.976 80.8678 185.006 80.1358 186.703C80.0795 186.814 79.9388 186.814 79.7698 186.731C79.5446 186.592 79.4883 186.509 79.4883 186.286V186.203L84.7813 173.602C84.9221 173.296 85.3444 173.074 85.7104 173.268C86.1327 173.519 86.3017 173.964 86.4143 174.464L91.4821 192.461C91.5947 192.795 91.7355 193.295 91.4258 193.351C91.0598 193.518 90.8345 193.184 90.7782 192.906ZM85.7949 175.271C85.5415 174.437 85.3444 174.214 85.1473 174.743L82.726 180.723L88.2162 184.033L85.7949 175.271Z" fill="#1D45BA"/>
<path d="M91.3705 186.842L79.799 179.832C79.6863 179.749 79.5737 179.582 79.5737 179.443V179.081C79.5737 178.942 79.6582 178.859 79.799 178.942L91.3705 185.951C91.4831 186.035 91.5957 186.202 91.5957 186.341V186.702C91.5957 186.842 91.5112 186.897 91.3705 186.842ZM90.3287 183.114L80.8407 177.384C80.7281 177.301 80.6154 177.134 80.6154 176.995V176.633C80.6154 176.494 80.6999 176.411 80.8407 176.494L90.3287 182.224C90.4414 182.308 90.554 182.475 90.554 182.614V182.975C90.554 183.114 90.4414 183.17 90.3287 183.114Z" fill="#1D45BA"/>
<path d="M77.4629 222.614L76.5901 222.725C74.4222 220.027 72.2825 217.357 70.1146 214.659V214.241V213.462C72.564 216.522 75.0135 219.582 77.4629 222.614ZM75.661 215.91C75.2669 215.966 74.8727 215.994 74.4786 216.049C74.4222 216.049 74.3941 216.049 74.3378 215.966C73.8592 215.354 73.3805 214.77 72.8737 214.158L71.3534 212.239C71.1 211.933 70.8748 211.627 70.6214 211.349L68.8758 210.375C68.9603 210.486 69.0447 210.598 69.1292 210.681C69.5797 211.237 70.0301 211.821 70.5088 212.378C70.9592 212.934 71.4097 213.518 71.8602 214.074L73.1271 215.66C73.5213 216.161 73.9436 216.661 74.3378 217.162C74.3941 217.218 74.4222 217.245 74.4504 217.218C74.7883 217.19 75.0979 217.162 75.4358 217.106C76.2523 217.023 77.0406 216.912 77.8571 216.828C78.4483 216.773 79.0396 216.689 79.6027 216.633C79.7153 216.633 79.8561 216.606 79.9687 216.578L78.2231 215.576C77.3785 215.716 76.5338 215.799 75.661 215.91ZM70.1146 216.411V217.607C71.5505 219.387 72.9864 221.195 74.4504 223.003L75.3232 222.892C73.5776 220.722 71.8602 218.553 70.1146 216.411ZM78.758 218.33C77.6882 218.469 76.6183 218.581 75.5484 218.72C75.5766 218.747 75.5766 218.775 75.5766 218.775C75.8581 219.109 76.1115 219.471 76.3931 219.804L76.4212 219.832C77.2095 219.749 77.9697 219.637 78.758 219.554V218.33ZM78.758 221.306C78.392 221.362 78.0542 221.39 77.6882 221.445C77.9697 221.807 78.2513 222.141 78.5328 222.502L78.758 222.475V221.306ZM70.7903 223.615L70.9592 223.699L70.002 224.644V225.868L69.8612 225.785V224.561L68.904 222.558L69.0729 222.642L69.9175 224.45L70.7903 223.615ZM72.4514 227.259C72.0573 227.036 71.7476 226.73 71.4942 226.313C71.2408 225.924 71.1282 225.507 71.1282 225.117C71.1282 224.728 71.2408 224.477 71.4942 224.366C71.7476 224.255 72.0573 224.283 72.4514 224.505C72.8174 224.728 73.1553 225.034 73.4087 225.423C73.6621 225.812 73.8028 226.23 73.8028 226.619C73.8028 227.009 73.6621 227.287 73.4087 227.398C73.1553 227.509 72.8174 227.481 72.4514 227.259ZM72.4514 227.12C72.7893 227.315 73.0708 227.342 73.2961 227.259C73.5213 227.148 73.6339 226.925 73.6339 226.563C73.6339 226.202 73.5213 225.84 73.2961 225.479C73.0708 225.117 72.7893 224.839 72.4514 224.672C72.0854 224.477 71.8039 224.422 71.5786 224.533C71.3534 224.644 71.2408 224.867 71.2408 225.228C71.2408 225.562 71.3534 225.924 71.5786 226.285C71.8039 226.647 72.0854 226.925 72.4514 227.12ZM76.1397 229.317L75.9707 229.234L75.1543 227.648L74.4786 227.259V228.399L74.3378 228.316V225.618L75.2387 226.118C75.5203 226.285 75.7455 226.48 75.8863 226.703C76.027 226.925 76.1115 227.148 76.1115 227.398C76.1115 227.648 76.027 227.787 75.8863 227.843C75.7455 227.899 75.5484 227.871 75.3232 227.732L76.1397 229.317ZM74.4786 225.84V227.148L75.1824 227.537C75.6892 227.815 75.9707 227.76 75.9707 227.315C75.9707 227.092 75.9144 226.897 75.7737 226.73C75.661 226.563 75.464 226.397 75.2669 226.285L74.4786 225.84ZM77.8571 230.319C77.4629 230.096 77.1532 229.79 76.8998 229.373C76.6464 228.983 76.5338 228.566 76.5338 228.177C76.5338 227.787 76.6464 227.537 76.8998 227.426C77.1532 227.315 77.4629 227.342 77.8571 227.565C78.2231 227.787 78.561 228.093 78.8143 228.483C79.0677 228.872 79.2085 229.289 79.2085 229.679C79.2085 230.068 79.0677 230.346 78.8143 230.458C78.561 230.569 78.2513 230.513 77.8571 230.319ZM77.8571 230.179C78.1949 230.374 78.4765 230.402 78.7017 230.319C78.927 230.207 79.0396 229.985 79.0396 229.623C79.0396 229.262 78.927 228.9 78.7017 228.538C78.4765 228.177 78.1949 227.899 77.8571 227.732C77.4911 227.537 77.2095 227.481 76.9843 227.593C76.7591 227.704 76.6464 227.926 76.6464 228.288C76.6464 228.622 76.7591 228.983 76.9843 229.345C77.2377 229.707 77.5192 229.985 77.8571 230.179ZM79.7997 231.376V228.677L79.9405 228.761V231.459L79.7997 231.376ZM73.4087 228.65L73.465 228.677L73.2398 229.206L73.1834 229.178L72.9864 228.483L72.7893 228.956L72.733 228.928L72.5077 228.149L72.564 228.177L72.7611 228.872L72.9582 228.399L73.0145 228.427L73.2116 229.123L73.4087 228.65ZM74.1689 229.095L74.2252 229.123V229.79L74.1689 229.762V229.623C74.1125 229.679 74.0281 229.679 73.8873 229.623C73.8028 229.568 73.7184 229.484 73.6621 229.401C73.6058 229.317 73.5776 229.206 73.5776 229.095C73.5776 228.983 73.6058 228.928 73.6621 228.9C73.7184 228.872 73.8028 228.872 73.8873 228.928C73.9436 228.956 73.9999 229.011 74.0562 229.067C74.1125 229.122 74.1407 229.178 74.1689 229.234V229.095ZM73.9155 229.568C73.9999 229.623 74.0562 229.623 74.1125 229.595C74.1689 229.568 74.197 229.512 74.197 229.428C74.197 229.345 74.1689 229.262 74.1125 229.178C74.0562 229.095 73.9999 229.039 73.9155 228.983C73.831 228.928 73.7747 228.928 73.7184 228.956C73.6621 228.983 73.6339 229.039 73.6339 229.123C73.6339 229.206 73.6621 229.289 73.7184 229.373C73.7465 229.456 73.831 229.512 73.9155 229.568ZM74.5067 229.957V228.956L74.563 228.983V229.985L74.5067 229.957ZM74.8727 230.152V229.15L74.929 229.178V230.179L74.8727 230.152ZM75.7737 230.319L75.2106 230.04C75.2106 230.124 75.2387 230.207 75.295 230.291C75.3513 230.374 75.4076 230.43 75.4921 230.485C75.5766 230.541 75.661 230.541 75.7173 230.513L75.7455 230.569C75.6892 230.625 75.6047 230.597 75.4921 230.541C75.4076 230.485 75.3232 230.402 75.2669 230.319C75.2106 230.235 75.1824 230.124 75.1824 230.013C75.1824 229.901 75.2106 229.846 75.2669 229.818C75.3232 229.79 75.4076 229.79 75.4921 229.846C75.5766 229.901 75.661 229.957 75.7173 230.068C75.7455 230.124 75.7737 230.207 75.7737 230.319ZM75.464 229.874C75.4077 229.846 75.3232 229.818 75.295 229.846C75.2387 229.874 75.2106 229.901 75.2106 229.985L75.7173 230.263C75.7173 230.179 75.6892 230.096 75.6329 230.04C75.6047 229.957 75.5484 229.901 75.464 229.874ZM76.1678 230.875C76.1115 230.847 76.0552 230.791 76.0552 230.764C76.027 230.708 76.027 230.68 76.027 230.597V230.152L75.9426 230.096V230.04L76.027 230.096V229.874L76.0834 229.901V230.152L76.3367 230.291V230.346L76.0834 230.207V230.625C76.0834 230.68 76.0834 230.736 76.1115 230.764L76.196 230.847C76.2523 230.875 76.2804 230.875 76.3367 230.875V230.93C76.2804 230.93 76.2241 230.93 76.1678 230.875ZM68.8477 226.536L72.2825 228.455L68.8477 226.536ZM76.5338 230.847L79.9687 232.794L76.5338 230.847Z" fill="#52FCFF"/>
<path d="M140.191 236.962L137.46 236.072L137.545 236.962L113.022 250.62L106.378 247.031C106.378 247.031 100.831 244.862 96.6362 251.093L112.966 254.375L140.191 236.962Z" fill="#52FCFF"/>
<path d="M113.022 272.626L102.548 266.896C98.1841 264.504 95.4531 259.942 95.4531 255.019C95.4531 249.595 101.337 246.174 106.152 248.788L113.022 252.543V272.626Z" fill="url(#paint25_linear_3416_157987)"/>
<path d="M109.162 259.8C109.162 262.108 107.331 263.305 105.051 262.442C102.77 261.58 100.94 258.993 100.94 256.684C100.94 254.376 102.77 253.18 105.051 254.042C107.331 254.904 109.162 257.491 109.162 259.8Z" fill="url(#paint26_linear_3416_157987)"/>
<path d="M140.19 257.049L113.021 272.654V252.571L140.19 236.967V257.049Z" fill="url(#paint27_linear_3416_157987)"/>
<path d="M48.211 230.29L91.6252 255.018C91.9631 255.213 92.3854 255.407 92.4699 255.018C92.4699 254.962 92.498 254.907 92.498 254.851V248.37C92.498 247.869 92.1883 247.285 91.7942 247.063L48.1266 222.14C48.0984 222.112 48.0703 222.112 48.014 222.085C47.6761 221.945 47.5916 222.39 47.5916 222.836L47.5635 228.983C47.5635 229.511 47.845 230.095 48.211 230.29Z" fill="url(#paint28_linear_3416_157987)"/>
<path d="M48.0141 222.083C48.0141 222.139 47.9859 222.194 47.9859 222.25V228.731C47.9859 229.232 48.2956 229.816 48.6898 230.038L92.3574 254.961C92.3856 254.989 92.4137 254.989 92.47 255.016C92.4137 255.406 92.1322 255.545 91.7943 255.35L48.1267 230.428C47.7326 230.205 47.4229 229.621 47.4229 229.12V222.639C47.4229 222.194 47.6762 221.972 48.0141 222.083Z" fill="url(#paint29_linear_3416_157987)"/>
<path d="M48.211 245.062L91.6252 269.789C91.9631 269.984 92.3854 270.179 92.4699 269.789C92.4699 269.734 92.498 269.678 92.498 269.622V263.141C92.498 262.641 92.1883 262.057 91.7942 261.834L48.1266 236.912C48.0984 236.884 48.0703 236.884 48.014 236.856C47.6761 236.717 47.5916 237.162 47.5916 237.607L47.5635 243.754C47.5635 244.283 47.845 244.839 48.211 245.062Z" fill="url(#paint30_linear_3416_157987)"/>
<path d="M48.0141 236.853C48.0141 236.908 47.9859 236.964 47.9859 237.019V243.5C47.9859 244.001 48.2956 244.585 48.6898 244.808L92.3574 269.73C92.3856 269.758 92.4137 269.758 92.47 269.786C92.4137 270.175 92.1322 270.314 91.7943 270.12L48.1267 245.197C47.7326 244.975 47.4229 244.391 47.4229 243.89V237.409C47.4229 236.964 47.6762 236.741 48.0141 236.853Z" fill="url(#paint31_linear_3416_157987)"/>
<g opacity="0.7">
<path d="M79.9919 260.135L79.457 261.136L78.4434 259.885L79.2036 259.106L78.0492 257.938L78.4153 256.964L79.457 258.216L79.3162 256.714L80.5831 257.437L80.4424 258.772L81.4841 258.716L81.8783 260.107L80.7521 259.968L81.5122 261.637L80.5268 261.748L79.9919 260.135ZM74.9523 257.27L74.4173 258.271L73.4038 257.02L74.1639 256.241L73.0096 255.073L73.3756 254.099L74.4173 255.351L74.2765 253.849L75.5435 254.572L75.4027 255.907L76.4444 255.852L76.8386 257.242L75.7124 257.103L76.4726 258.772L75.4872 258.883L74.9523 257.27ZM69.9408 254.405L69.4058 255.406L68.3923 254.155L69.1524 253.376L67.9981 252.208L68.3641 251.234L69.4058 252.486L69.265 250.984L70.532 251.707L70.3912 253.042L71.4329 252.987L71.8271 254.377L70.7009 254.238L71.4611 255.907L70.4757 256.018L69.9408 254.405ZM64.9293 251.54L64.3943 252.542L63.3808 251.29L64.1409 250.511L62.9866 249.343L63.3526 248.369L64.3943 249.621L64.2535 248.119L65.5205 248.842L65.3797 250.177L66.4214 250.122L66.8156 251.512L65.6894 251.373L66.4496 253.042L65.4642 253.153L64.9293 251.54ZM59.9178 248.675L59.3828 249.677L58.3693 248.425L59.1294 247.646L57.9751 246.478L58.3411 245.504L59.3828 246.756L59.242 245.254L60.509 245.977L60.3682 247.312L61.4099 247.257L61.8041 248.647L60.6779 248.508L61.4381 250.177L60.4527 250.288L59.9178 248.675Z" fill="#E1F2FF"/>
</g>
<path d="M58.9926 234.044C58.9644 234.017 58.9644 233.989 58.9644 233.961V233.127L58.0635 230.929V230.874C58.0635 230.846 58.0635 230.846 58.0916 230.846H58.1479L58.6547 231.152L58.7392 231.235C58.7673 231.263 58.7673 231.291 58.7955 231.319L59.3304 232.626L59.8654 231.958C59.8654 231.93 59.8935 231.93 59.9217 231.93C59.9498 231.93 59.978 231.93 60.0061 231.958L60.5129 232.264C60.5411 232.264 60.5411 232.292 60.5692 232.32C60.5974 232.348 60.5974 232.376 60.5974 232.403V232.431L59.6964 233.572V234.406C59.6964 234.434 59.6964 234.462 59.6683 234.462C59.6401 234.462 59.612 234.462 59.5838 234.434L59.0489 234.128C59.0207 234.1 58.9926 234.072 58.9926 234.044ZM60.7663 234.935C60.5974 234.684 60.4848 234.406 60.4848 234.128V233.961V233.794C60.5129 233.516 60.5974 233.377 60.7945 233.321C60.9634 233.266 61.2168 233.349 61.5546 233.516C61.8643 233.711 62.1177 233.933 62.3148 234.184C62.4837 234.434 62.5963 234.712 62.6245 234.99V235.324C62.5963 235.602 62.5119 235.769 62.343 235.797C62.174 235.852 61.9206 235.769 61.5828 235.574C61.2168 235.407 60.9634 235.185 60.7663 234.935ZM61.7799 235.157C61.8362 235.129 61.8643 235.046 61.8643 234.907V234.74V234.573C61.8643 234.434 61.8362 234.323 61.7799 234.211C61.7236 234.1 61.6391 234.044 61.5265 233.961C61.4139 233.878 61.3294 233.878 61.2731 233.933C61.2168 233.961 61.1886 234.044 61.1886 234.184V234.517C61.1886 234.656 61.2168 234.768 61.2731 234.879C61.3294 234.962 61.4139 235.046 61.5265 235.129C61.6391 235.213 61.7236 235.185 61.7799 235.157ZM63.0187 236.381C62.9905 236.353 62.9905 236.325 62.9905 236.297V234.462C62.9905 234.434 62.9905 234.406 63.0187 234.406H63.1031L63.5818 234.684C63.6099 234.712 63.6381 234.712 63.6662 234.768C63.6944 234.795 63.6944 234.823 63.6944 234.851V234.99C63.7788 234.962 63.8633 234.935 63.9478 234.962C64.0604 234.99 64.1448 235.018 64.2856 235.101L64.4545 235.213C64.4827 235.241 64.5109 235.241 64.539 235.268C64.5672 235.296 64.5672 235.324 64.5672 235.352V235.769C64.5672 235.797 64.5672 235.825 64.539 235.825H64.4545L64.0604 235.602C63.9478 235.546 63.8633 235.519 63.807 235.546C63.7507 235.574 63.7225 235.63 63.7225 235.741V236.715C63.7225 236.743 63.7225 236.77 63.6944 236.77C63.6662 236.77 63.6381 236.77 63.6099 236.743L63.1031 236.437C63.0468 236.437 63.0187 236.409 63.0187 236.381ZM64.9895 237.382C64.8206 237.132 64.7079 236.854 64.7079 236.576V236.409V236.242C64.7361 235.964 64.8206 235.825 65.0176 235.769C65.1866 235.713 65.4399 235.797 65.7778 235.964C66.0875 236.158 66.3409 236.381 66.538 236.631C66.7069 236.882 66.8195 237.16 66.8477 237.438V237.772C66.8195 238.05 66.7351 238.217 66.5661 238.245C66.3972 238.3 66.1438 238.217 65.806 238.022C65.44 237.855 65.1866 237.633 64.9895 237.382ZM66.003 237.605C66.0593 237.577 66.0875 237.494 66.0875 237.354V237.188V237.021C66.0875 236.882 66.0593 236.77 66.003 236.659C65.9467 236.548 65.8623 236.492 65.7497 236.409C65.637 236.325 65.5526 236.325 65.4963 236.381C65.4399 236.409 65.4118 236.492 65.4118 236.631V236.965C65.4118 237.104 65.4399 237.215 65.4963 237.327C65.5526 237.41 65.637 237.494 65.7497 237.577C65.8623 237.633 65.9467 237.633 66.003 237.605ZM67.2418 236.52C67.2137 236.492 67.2137 236.464 67.2137 236.437V236.075C67.2137 236.047 67.2137 236.019 67.2418 236.019H67.2981L67.8049 236.297C67.8331 236.325 67.8612 236.325 67.8894 236.381C67.9175 236.409 67.9175 236.437 67.9175 236.464V236.826C67.9175 236.854 67.9175 236.882 67.8894 236.882H67.8049L67.2981 236.603C67.27 236.576 67.2418 236.548 67.2418 236.52ZM67.2418 238.829C67.2137 238.801 67.2137 238.773 67.2137 238.745V236.909C67.2137 236.882 67.2137 236.854 67.2418 236.854H67.2981L67.8049 237.132C67.8331 237.16 67.8612 237.16 67.8894 237.215C67.9175 237.243 67.9175 237.271 67.9175 237.299V239.135C67.9175 239.162 67.9175 239.19 67.8894 239.19C67.8612 239.19 67.8331 239.19 67.8049 239.162L67.2981 238.884C67.27 238.884 67.2418 238.857 67.2418 238.829ZM69.5223 240.136C69.4942 240.108 69.466 240.053 69.466 240.025L69.0437 237.299V237.271C69.0437 237.243 69.0437 237.243 69.0719 237.215H69.1282L69.635 237.521C69.7194 237.577 69.7476 237.633 69.7476 237.688L70.001 239.302L70.2825 238.606C70.3107 238.551 70.3388 238.551 70.4233 238.578L70.733 238.745C70.7893 238.773 70.8456 238.857 70.8738 238.912L71.1553 239.913L71.4087 238.578C71.4087 238.551 71.4369 238.523 71.4369 238.523C71.465 238.523 71.4932 238.523 71.5213 238.551L72.0281 238.857C72.0563 238.857 72.0844 238.884 72.0844 238.912C72.1126 238.94 72.1126 238.968 72.1126 238.996V239.023L71.6902 241.276C71.6902 241.304 71.6621 241.332 71.6339 241.332C71.6058 241.332 71.5776 241.332 71.5213 241.304L71.1272 241.082C71.099 241.054 71.0427 241.026 71.0145 240.998C70.9864 240.97 70.9864 240.943 70.9582 240.887L70.5641 239.58L70.1699 240.442C70.1699 240.47 70.1417 240.47 70.1136 240.47C70.0854 240.47 70.0573 240.47 70.001 240.442L69.6068 240.219C69.5787 240.219 69.5505 240.192 69.5223 240.136ZM72.5912 241.916C72.4786 241.805 72.3941 241.666 72.3096 241.527C72.2533 241.388 72.2252 241.276 72.2252 241.165C72.2252 240.998 72.3096 240.887 72.4504 240.859C72.5912 240.831 72.8164 240.887 73.0698 240.998L73.5484 241.221V241.165C73.5484 241.082 73.5203 240.998 73.4921 240.915C73.464 240.831 73.3795 240.776 73.2951 240.72C73.2387 240.692 73.2106 240.665 73.1543 240.665H72.9572H72.929L72.4786 240.386C72.4504 240.359 72.4223 240.359 72.4223 240.331C72.3941 240.303 72.3941 240.275 72.3941 240.247C72.3941 240.192 72.4223 240.108 72.5067 240.08C72.563 240.025 72.6757 240.025 72.8164 240.025C72.9572 240.025 73.1261 240.108 73.3232 240.219C73.6611 240.414 73.8863 240.609 74.0552 240.859C74.2241 241.11 74.2805 241.332 74.2805 241.582V242.751C74.2805 242.778 74.2805 242.806 74.2523 242.806H74.1678L73.6892 242.528C73.6611 242.5 73.6329 242.5 73.6329 242.472C73.6048 242.445 73.6047 242.417 73.6047 242.389V242.25C73.5484 242.306 73.464 242.306 73.3514 242.306C73.2387 242.306 73.1261 242.25 72.9854 242.167C72.8446 242.139 72.7038 242.055 72.5912 241.916ZM73.464 241.916C73.5484 241.888 73.5766 241.805 73.5766 241.638V241.582L73.2387 241.443C73.0135 241.36 72.9009 241.36 72.9009 241.499C72.9009 241.555 72.929 241.61 72.9854 241.694C73.0417 241.749 73.098 241.805 73.1824 241.861C73.295 241.944 73.3795 241.972 73.464 241.916ZM74.7309 243.168C74.7028 243.14 74.7028 243.112 74.7028 243.084V240.525C74.7028 240.498 74.7028 240.47 74.7309 240.47C74.7591 240.47 74.7872 240.47 74.8154 240.498L75.3222 240.776C75.3503 240.804 75.3785 240.804 75.4066 240.831C75.4348 240.859 75.4348 240.887 75.4348 240.915V243.474C75.4348 243.502 75.4348 243.529 75.4066 243.529H75.3222L74.8154 243.251C74.7591 243.224 74.7309 243.196 74.7309 243.168ZM75.8571 243.835C75.829 243.808 75.829 243.78 75.829 243.752V241.165C75.829 241.137 75.829 241.11 75.8571 241.11C75.8853 241.11 75.9134 241.11 75.9416 241.137L76.4484 241.416C76.4765 241.443 76.5047 241.443 76.5328 241.471C76.561 241.499 76.561 241.527 76.561 241.555V244.114C76.561 244.141 76.561 244.169 76.5328 244.169H76.4484L75.9416 243.891C75.9134 243.891 75.8853 243.863 75.8571 243.835ZM77.1804 244.42C76.9833 244.141 76.8988 243.835 76.8988 243.502V243.39C76.8988 243.084 77.0114 242.89 77.1804 242.834C77.3774 242.778 77.6027 242.834 77.9124 243.001C78.1376 243.14 78.3347 243.279 78.4755 243.474C78.6444 243.641 78.757 243.835 78.8133 244.058C78.8978 244.253 78.9259 244.475 78.9259 244.67V244.753C78.9259 244.781 78.9259 244.809 78.8978 244.809H78.8133L77.5745 244.086V244.114C77.5745 244.225 77.6027 244.336 77.659 244.447C77.7153 244.559 77.7998 244.642 77.8842 244.698C77.9405 244.726 77.9968 244.753 78.025 244.753C78.0532 244.753 78.1095 244.753 78.1376 244.726C78.1658 244.726 78.1939 244.698 78.1939 244.698C78.2221 244.698 78.2221 244.698 78.2502 244.726L78.757 245.031C78.7852 245.031 78.8133 245.059 78.8133 245.087C78.8133 245.115 78.8415 245.143 78.8415 245.143C78.8415 245.198 78.8133 245.254 78.7289 245.31C78.6444 245.365 78.5318 245.365 78.391 245.337C78.2502 245.31 78.0532 245.254 77.8561 245.143C77.6308 244.92 77.3774 244.698 77.1804 244.42ZM78.2502 244.03C78.2502 243.891 78.2221 243.78 78.1658 243.696C78.1095 243.585 78.025 243.529 77.9405 243.446C77.8279 243.39 77.7716 243.39 77.7153 243.418C77.659 243.446 77.6308 243.529 77.6308 243.669L78.2502 244.03ZM79.5735 245.226V244.503L79.2638 244.336C79.2356 244.308 79.2075 244.308 79.2075 244.28C79.1793 244.253 79.1793 244.225 79.1793 244.197V243.863C79.1793 243.835 79.1793 243.808 79.2075 243.808H79.2638L79.5735 243.975V243.335C79.5735 243.307 79.5735 243.279 79.6017 243.279H79.658L80.1366 243.557C80.1647 243.585 80.1929 243.585 80.2211 243.613C80.2492 243.641 80.2492 243.669 80.2492 243.696V244.336L80.756 244.614C80.7841 244.642 80.8123 244.642 80.8405 244.67C80.8686 244.698 80.8686 244.726 80.8686 244.753V245.087C80.8686 245.115 80.8686 245.143 80.8405 245.143C80.8123 245.143 80.7841 245.143 80.756 245.115L80.2492 244.837V245.504C80.2492 245.588 80.2774 245.671 80.3055 245.727C80.3337 245.783 80.39 245.838 80.4744 245.894L80.7841 246.061C80.8123 246.088 80.8405 246.088 80.8686 246.144C80.8968 246.172 80.8968 246.2 80.8968 246.228V246.589C80.8968 246.617 80.8968 246.645 80.8686 246.645H80.7841L80.4181 246.422C79.855 246.172 79.5735 245.755 79.5735 245.226Z" fill="#E1F2FF"/>
</g>
<path d="M84.5962 132C84.5962 132.828 85.2678 133.5 86.0962 133.5C86.9246 133.5 87.5962 132.828 87.5962 132H84.5962ZM142.796 83.5099C143.382 82.9241 143.382 81.9743 142.796 81.3886L133.25 71.8426C132.664 71.2568 131.715 71.2568 131.129 71.8426C130.543 72.4284 130.543 73.3782 131.129 73.9639L139.614 82.4492L131.129 90.9345C130.543 91.5203 130.543 92.47 131.129 93.0558C131.715 93.6416 132.664 93.6416 133.25 93.0558L142.796 83.5099ZM87.5962 132V106.449H84.5962V132H87.5962ZM110.096 83.9492H141.735V80.9492H110.096V83.9492ZM87.5962 106.449C87.5962 94.0228 97.6698 83.9492 110.096 83.9492V80.9492C96.0129 80.9492 84.5962 92.366 84.5962 106.449H87.5962Z" fill="url(#paint32_linear_3416_157987)"/>
<defs>
<linearGradient id="paint0_linear_3416_157987" x1="251.824" y1="81.1923" x2="261.647" y2="150.623" gradientUnits="userSpaceOnUse">
<stop offset="0.003" stop-color="#17D1AA" stop-opacity="0"/>
<stop offset="0.618" stop-color="#1E9AA9" stop-opacity="0.616"/>
<stop offset="1" stop-color="#227DA8"/>
</linearGradient>
<linearGradient id="paint1_linear_3416_157987" x1="336.709" y1="122.616" x2="148.291" y2="78.8453" gradientUnits="userSpaceOnUse">
<stop stop-color="#1980AC"/>
<stop offset="0.132" stop-color="#1977AC"/>
<stop offset="1" stop-color="#1B3DAD"/>
</linearGradient>
<linearGradient id="paint2_linear_3416_157987" x1="217.984" y1="87.0671" x2="213.843" y2="48.2213" gradientUnits="userSpaceOnUse">
<stop stop-color="#1D45BA"/>
<stop offset="0.42" stop-color="#1D47BA"/>
<stop offset="0.572" stop-color="#1D4EB9"/>
<stop offset="0.68" stop-color="#1C59B8"/>
<stop offset="0.767" stop-color="#1B6AB6"/>
<stop offset="0.842" stop-color="#1A80B3"/>
<stop offset="0.908" stop-color="#199CB0"/>
<stop offset="0.966" stop-color="#18BBAD"/>
<stop offset="1" stop-color="#17D1AA"/>
</linearGradient>
<linearGradient id="paint3_linear_3416_157987" x1="244.48" y1="85.541" x2="241.543" y2="57.9873" gradientUnits="userSpaceOnUse">
<stop stop-color="#1D45BA"/>
<stop offset="0.42" stop-color="#1D47BA"/>
<stop offset="0.572" stop-color="#1D4EB9"/>
<stop offset="0.68" stop-color="#1C59B8"/>
<stop offset="0.767" stop-color="#1B6AB6"/>
<stop offset="0.842" stop-color="#1A80B3"/>
<stop offset="0.908" stop-color="#199CB0"/>
<stop offset="0.966" stop-color="#18BBAD"/>
<stop offset="1" stop-color="#17D1AA"/>
</linearGradient>
<linearGradient id="paint4_linear_3416_157987" x1="213.4" y1="34.5337" x2="210.463" y2="6.97961" gradientUnits="userSpaceOnUse">
<stop stop-color="#1D45BA"/>
<stop offset="0.42" stop-color="#1D47BA"/>
<stop offset="0.572" stop-color="#1D4EB9"/>
<stop offset="0.68" stop-color="#1C59B8"/>
<stop offset="0.767" stop-color="#1B6AB6"/>
<stop offset="0.842" stop-color="#1A80B3"/>
<stop offset="0.908" stop-color="#199CB0"/>
<stop offset="0.966" stop-color="#18BBAD"/>
<stop offset="1" stop-color="#17D1AA"/>
</linearGradient>
<linearGradient id="paint5_linear_3416_157987" x1="187.367" y1="56.9376" x2="185.095" y2="35.6255" gradientUnits="userSpaceOnUse">
<stop stop-color="#1D45BA"/>
<stop offset="0.42" stop-color="#1D47BA"/>
<stop offset="0.572" stop-color="#1D4EB9"/>
<stop offset="0.68" stop-color="#1C59B8"/>
<stop offset="0.767" stop-color="#1B6AB6"/>
<stop offset="0.842" stop-color="#1A80B3"/>
<stop offset="0.908" stop-color="#199CB0"/>
<stop offset="0.966" stop-color="#18BBAD"/>
<stop offset="1" stop-color="#17D1AA"/>
</linearGradient>
<linearGradient id="paint6_linear_3416_157987" x1="159.956" y1="100.027" x2="255.178" y2="100.027" gradientUnits="userSpaceOnUse">
<stop stop-color="#17D1AA"/>
<stop offset="0.066" stop-color="#1AC2AE"/>
<stop offset="0.265" stop-color="#229BB8"/>
<stop offset="0.462" stop-color="#297CC0"/>
<stop offset="0.652" stop-color="#2D66C6"/>
<stop offset="0.835" stop-color="#3059CA"/>
<stop offset="1" stop-color="#3154CB"/>
</linearGradient>
<linearGradient id="paint7_linear_3416_157987" x1="155.741" y1="101.951" x2="250.956" y2="101.951" gradientUnits="userSpaceOnUse">
<stop stop-color="#17D1AA"/>
<stop offset="0.066" stop-color="#1AC2AE"/>
<stop offset="0.265" stop-color="#229BB8"/>
<stop offset="0.462" stop-color="#297CC0"/>
<stop offset="0.652" stop-color="#2D66C6"/>
<stop offset="0.835" stop-color="#3059CA"/>
<stop offset="1" stop-color="#3154CB"/>
</linearGradient>
<linearGradient id="paint8_linear_3416_157987" x1="217.013" y1="88.9242" x2="212.36" y2="45.2736" gradientUnits="userSpaceOnUse">
<stop stop-color="#1D45BA"/>
<stop offset="0.42" stop-color="#1D47BA"/>
<stop offset="0.572" stop-color="#1D4EB9"/>
<stop offset="0.68" stop-color="#1C59B8"/>
<stop offset="0.767" stop-color="#1B6AB6"/>
<stop offset="0.842" stop-color="#1A80B3"/>
<stop offset="0.908" stop-color="#199CB0"/>
<stop offset="0.966" stop-color="#18BBAD"/>
<stop offset="1" stop-color="#17D1AA"/>
</linearGradient>
<linearGradient id="paint9_linear_3416_157987" x1="249.481" y1="85.8365" x2="249.853" y2="163.161" gradientUnits="userSpaceOnUse">
<stop stop-color="#52FCFF" stop-opacity="0"/>
<stop offset="0.086" stop-color="#46D3F0" stop-opacity="0.142"/>
<stop offset="0.198" stop-color="#39A5DE" stop-opacity="0.325"/>
<stop offset="0.306" stop-color="#2F81D1" stop-opacity="0.501"/>
<stop offset="0.406" stop-color="#2767C7" stop-opacity="0.665"/>
<stop offset="0.495" stop-color="#2357C1" stop-opacity="0.812"/>
<stop offset="0.566" stop-color="#2152BF" stop-opacity="0.928"/>
<stop offset="0.757" stop-color="#1E48BB" stop-opacity="0.96"/>
<stop offset="0.998" stop-color="#1D45BA"/>
</linearGradient>
<linearGradient id="paint10_linear_3416_157987" x1="227.555" y1="85.8865" x2="242.329" y2="175.404" gradientUnits="userSpaceOnUse">
<stop offset="0.003" stop-color="#17D1AA" stop-opacity="0"/>
<stop offset="0.618" stop-color="#1E9AA9" stop-opacity="0.616"/>
<stop offset="1" stop-color="#227DA8"/>
</linearGradient>
<linearGradient id="paint11_linear_3416_157987" x1="159.984" y1="115.628" x2="233.183" y2="94.7013" gradientUnits="userSpaceOnUse">
<stop offset="0.001" stop-color="#17D1AA"/>
<stop offset="0.067" stop-color="#1AC2AE"/>
<stop offset="0.266" stop-color="#229BB8"/>
<stop offset="0.462" stop-color="#297CC0"/>
<stop offset="0.653" stop-color="#2D66C6"/>
<stop offset="0.835" stop-color="#3059CA"/>
<stop offset="1" stop-color="#3154CB"/>
</linearGradient>
<linearGradient id="paint12_linear_3416_157987" x1="221.706" y1="127.467" x2="240.476" y2="127.467" gradientUnits="userSpaceOnUse">
<stop stop-color="#17D1AA"/>
<stop offset="0.409" stop-color="#1EADB3"/>
<stop offset="1" stop-color="#287FBF"/>
</linearGradient>
<linearGradient id="paint13_linear_3416_157987" x1="231.647" y1="119.278" x2="232.196" y2="129.741" gradientUnits="userSpaceOnUse">
<stop stop-color="#17D1AA"/>
<stop offset="0.138" stop-color="#1DAEB2"/>
<stop offset="0.321" stop-color="#2487BB"/>
<stop offset="0.502" stop-color="#2A68C2"/>
<stop offset="0.678" stop-color="#2E52C7"/>
<stop offset="0.846" stop-color="#3045CA"/>
<stop offset="0.998" stop-color="#3140CB"/>
</linearGradient>
<linearGradient id="paint14_linear_3416_157987" x1="243.107" y1="115.192" x2="266.091" y2="127.968" gradientUnits="userSpaceOnUse">
<stop stop-color="#17D1AA"/>
<stop offset="0.138" stop-color="#1DAEB2"/>
<stop offset="0.321" stop-color="#2487BB"/>
<stop offset="0.502" stop-color="#2A68C2"/>
<stop offset="0.678" stop-color="#2E52C7"/>
<stop offset="0.846" stop-color="#3045CA"/>
<stop offset="0.998" stop-color="#3140CB"/>
</linearGradient>
<linearGradient id="paint15_linear_3416_157987" x1="167.067" y1="107.538" x2="216.502" y2="107.538" gradientUnits="userSpaceOnUse">
<stop stop-color="#3154CB" stop-opacity="0"/>
<stop offset="1" stop-color="#E1F2FF"/>
</linearGradient>
<linearGradient id="paint16_linear_3416_157987" x1="73.5927" y1="158.099" x2="71.4658" y2="138.148" gradientUnits="userSpaceOnUse">
<stop stop-color="#1D45BA"/>
<stop offset="0.42" stop-color="#1D47BA"/>
<stop offset="0.572" stop-color="#1D4EB9"/>
<stop offset="0.68" stop-color="#1C59B8"/>
<stop offset="0.767" stop-color="#1B6AB6"/>
<stop offset="0.842" stop-color="#1A80B3"/>
<stop offset="0.908" stop-color="#199CB0"/>
<stop offset="0.966" stop-color="#18BBAD"/>
<stop offset="1" stop-color="#17D1AA"/>
</linearGradient>
<linearGradient id="paint17_linear_3416_157987" x1="123.637" y1="216.935" x2="132.834" y2="281.934" gradientUnits="userSpaceOnUse">
<stop offset="0.003" stop-color="#17D1AA" stop-opacity="0"/>
<stop offset="0.618" stop-color="#1E9AA9" stop-opacity="0.616"/>
<stop offset="1" stop-color="#227DA8"/>
</linearGradient>
<linearGradient id="paint18_linear_3416_157987" x1="203.11" y1="255.716" x2="26.7194" y2="214.739" gradientUnits="userSpaceOnUse">
<stop stop-color="#1980AC"/>
<stop offset="0.132" stop-color="#1977AC"/>
<stop offset="1" stop-color="#1B3DAD"/>
</linearGradient>
<linearGradient id="paint19_linear_3416_157987" x1="37.6371" y1="234.569" x2="126.78" y2="234.569" gradientUnits="userSpaceOnUse">
<stop stop-color="#17D1AA"/>
<stop offset="0.066" stop-color="#1AC2AE"/>
<stop offset="0.265" stop-color="#229BB8"/>
<stop offset="0.462" stop-color="#297CC0"/>
<stop offset="0.652" stop-color="#2D66C6"/>
<stop offset="0.835" stop-color="#3059CA"/>
<stop offset="1" stop-color="#3154CB"/>
</linearGradient>
<linearGradient id="paint20_linear_3416_157987" x1="33.6935" y1="236.374" x2="122.831" y2="236.374" gradientUnits="userSpaceOnUse">
<stop stop-color="#17D1AA"/>
<stop offset="0.066" stop-color="#1AC2AE"/>
<stop offset="0.265" stop-color="#229BB8"/>
<stop offset="0.462" stop-color="#297CC0"/>
<stop offset="0.652" stop-color="#2D66C6"/>
<stop offset="0.835" stop-color="#3059CA"/>
<stop offset="1" stop-color="#3154CB"/>
</linearGradient>
<linearGradient id="paint21_linear_3416_157987" x1="121.448" y1="221.283" x2="121.797" y2="293.672" gradientUnits="userSpaceOnUse">
<stop stop-color="#52FCFF" stop-opacity="0"/>
<stop offset="0.086" stop-color="#46D3F0" stop-opacity="0.142"/>
<stop offset="0.198" stop-color="#39A5DE" stop-opacity="0.325"/>
<stop offset="0.306" stop-color="#2F81D1" stop-opacity="0.501"/>
<stop offset="0.406" stop-color="#2767C7" stop-opacity="0.665"/>
<stop offset="0.495" stop-color="#2357C1" stop-opacity="0.812"/>
<stop offset="0.566" stop-color="#2152BF" stop-opacity="0.928"/>
<stop offset="0.757" stop-color="#1E48BB" stop-opacity="0.96"/>
<stop offset="0.998" stop-color="#1D45BA"/>
</linearGradient>
<linearGradient id="paint22_linear_3416_157987" x1="100.923" y1="221.328" x2="114.753" y2="305.132" gradientUnits="userSpaceOnUse">
<stop offset="0.003" stop-color="#17D1AA" stop-opacity="0"/>
<stop offset="0.618" stop-color="#1E9AA9" stop-opacity="0.616"/>
<stop offset="1" stop-color="#227DA8"/>
</linearGradient>
<linearGradient id="paint23_linear_3416_157987" x1="37.6233" y1="249.336" x2="106.149" y2="229.745" gradientUnits="userSpaceOnUse">
<stop stop-color="#17D1AA"/>
<stop offset="0.066" stop-color="#1AC2AE"/>
<stop offset="0.265" stop-color="#229BB8"/>
<stop offset="0.462" stop-color="#297CC0"/>
<stop offset="0.652" stop-color="#2D66C6"/>
<stop offset="0.835" stop-color="#3059CA"/>
<stop offset="1" stop-color="#3154CB"/>
</linearGradient>
<linearGradient id="paint24_linear_3416_157987" x1="89.1461" y1="201.166" x2="85.2695" y2="164.8" gradientUnits="userSpaceOnUse">
<stop stop-color="#1D45BA"/>
<stop offset="0.42" stop-color="#1D47BA"/>
<stop offset="0.572" stop-color="#1D4EB9"/>
<stop offset="0.68" stop-color="#1C59B8"/>
<stop offset="0.767" stop-color="#1B6AB6"/>
<stop offset="0.842" stop-color="#1A80B3"/>
<stop offset="0.908" stop-color="#199CB0"/>
<stop offset="0.966" stop-color="#18BBAD"/>
<stop offset="1" stop-color="#17D1AA"/>
</linearGradient>
<linearGradient id="paint25_linear_3416_157987" x1="95.445" y1="260.26" x2="113.016" y2="260.26" gradientUnits="userSpaceOnUse">
<stop stop-color="#17D1AA"/>
<stop offset="0.409" stop-color="#1EADB3"/>
<stop offset="1" stop-color="#287FBF"/>
</linearGradient>
<linearGradient id="paint26_linear_3416_157987" x1="104.751" y1="252.588" x2="105.264" y2="262.384" gradientUnits="userSpaceOnUse">
<stop stop-color="#17D1AA"/>
<stop offset="0.138" stop-color="#1DAEB2"/>
<stop offset="0.321" stop-color="#2487BB"/>
<stop offset="0.502" stop-color="#2A68C2"/>
<stop offset="0.678" stop-color="#2E52C7"/>
<stop offset="0.846" stop-color="#3045CA"/>
<stop offset="0.998" stop-color="#3140CB"/>
</linearGradient>
<linearGradient id="paint27_linear_3416_157987" x1="115.481" y1="248.768" x2="136.998" y2="260.729" gradientUnits="userSpaceOnUse">
<stop stop-color="#17D1AA"/>
<stop offset="0.138" stop-color="#1DAEB2"/>
<stop offset="0.321" stop-color="#2487BB"/>
<stop offset="0.502" stop-color="#2A68C2"/>
<stop offset="0.678" stop-color="#2E52C7"/>
<stop offset="0.846" stop-color="#3045CA"/>
<stop offset="0.998" stop-color="#3140CB"/>
</linearGradient>
<linearGradient id="paint28_linear_3416_157987" x1="47.5615" y1="238.66" x2="92.4749" y2="238.66" gradientUnits="userSpaceOnUse">
<stop stop-color="#17D1AA"/>
<stop offset="0.142" stop-color="#19C9AC"/>
<stop offset="0.368" stop-color="#1DB2B2"/>
<stop offset="0.648" stop-color="#258CBC"/>
<stop offset="0.97" stop-color="#3059CA"/>
<stop offset="1" stop-color="#3154CB"/>
</linearGradient>
<linearGradient id="paint29_linear_3416_157987" x1="47.415" y1="238.758" x2="92.4607" y2="238.758" gradientUnits="userSpaceOnUse">
<stop stop-color="#3154CB"/>
<stop offset="0.03" stop-color="#3059CA"/>
<stop offset="0.352" stop-color="#258CBC"/>
<stop offset="0.632" stop-color="#1DB2B2"/>
<stop offset="0.858" stop-color="#19C9AC"/>
<stop offset="1" stop-color="#17D1AA"/>
</linearGradient>
<linearGradient id="paint30_linear_3416_157987" x1="47.5615" y1="253.426" x2="92.4749" y2="253.426" gradientUnits="userSpaceOnUse">
<stop stop-color="#17D1AA"/>
<stop offset="0.142" stop-color="#19C9AC"/>
<stop offset="0.368" stop-color="#1DB2B2"/>
<stop offset="0.648" stop-color="#258CBC"/>
<stop offset="0.97" stop-color="#3059CA"/>
<stop offset="1" stop-color="#3154CB"/>
</linearGradient>
<linearGradient id="paint31_linear_3416_157987" x1="50.6699" y1="237.557" x2="106.574" y2="295.897" gradientUnits="userSpaceOnUse">
<stop stop-color="#3154CB"/>
<stop offset="0.112" stop-color="#2D67C6"/>
<stop offset="0.353" stop-color="#258DBC"/>
<stop offset="0.632" stop-color="#1DB2B2"/>
<stop offset="0.858" stop-color="#19C9AC"/>
<stop offset="1" stop-color="#17D1AA"/>
</linearGradient>
<linearGradient id="paint32_linear_3416_157987" x1="133.891" y1="82.4492" x2="133.891" y2="182.448" gradientUnits="userSpaceOnUse">
<stop stop-color="#17D1AA"/>
<stop offset="1" stop-color="#2FECFF" stop-opacity="0.67"/>
</linearGradient>
</defs>
</svg>
