<svg width="21" height="20" xmlns="http://www.w3.org/2000/svg"><g transform="translate(.054)" fill="none" fill-rule="evenodd"><circle stroke="#EB2256" cx="10" cy="10" r="9.5"/><path d="M9.098 4.76c0-.243.087-.43.261-.562.174-.132.4-.198.676-.198s.48.069.609.206c.13.137.194.321.194.553 0 .76-.014 1.113-.04 2.832-.028 1.719-.042 2.26-.042 3.02 0 .158-.078.282-.234.372a.969.969 0 01-.487.134c-.493 0-.74-.169-.74-.506 0-.76-.032-1.301-.098-3.02-.066-1.72-.099-2.072-.099-2.832M9 13.144c0-.238.102-.44.307-.607.205-.166.453-.25.746-.25.257 0 .48.084.667.25a.788.788 0 010 1.206.957.957 0 01-.667.257c-.293 0-.541-.085-.746-.257-.205-.171-.307-.37-.307-.6" fill="#EB2256"/></g></svg>