<?xml version="1.0" encoding="UTF-8"?>
<svg width="117px" height="120px" viewBox="0 0 117 120" version="1.1" xmlns="http://www.w3.org/2000/svg" xmlns:xlink="http://www.w3.org/1999/xlink">
    <title>icon/total-delegated</title>
    <g id="icon/total-delegated" stroke="none" stroke-width="1" fill="none" fill-rule="evenodd">
        <g id="icon/delegated" fill="#F0F3F5">
            <path d="M22.3174907,96.7161741 C23.2822116,96.7161741 24.1831141,97.158191 24.8095976,97.8927504 C32.9517565,107.435617 45.0251263,113.479717 58.5003726,113.479717 C71.9745554,113.479717 84.0479251,107.435617 92.1911476,97.8927504 C92.8176312,97.158191 93.7185337,96.7161741 94.6821909,96.7161741 L94.6843182,96.7161741 C97.435953,96.7161741 98.9558936,99.9597665 97.1700432,102.060948 C87.8397992,113.040903 73.9773882,120 58.5003726,120 C43.0233571,120 29.160946,113.040903 19.8296384,102.060948 C18.0448517,99.9597665 19.5647922,96.7161741 22.3153635,96.7161741 L22.3174907,96.7161741 Z M101.466508,73.30348 C109.323611,73.3387132 114.455671,77.4129557 116.862687,85.5347488 C117.497679,87.6775697 115.851166,89.8235936 113.623905,89.8235936 L113.623905,89.8235936 L113.620714,89.8235936 L101.421835,89.8097139 L89.2218921,89.8235936 C86.9914405,89.8235936 85.3438632,87.6775697 85.9788559,85.5347488 C88.3858716,77.4129557 93.5189949,73.3387132 101.376098,73.306683 L101.376098,73.306683 C101.390989,73.30348 101.40588,73.3045477 101.421835,73.3045477 L101.443773,73.3040138 L101.443773,73.3040138 L101.466508,73.30348 Z M15.6243277,73.30348 C23.4814312,73.3387132 28.6145545,77.4129557 31.0205066,85.5347488 C31.6554993,87.6775697 30.0089857,89.8235936 27.7827886,89.8235936 L27.7827886,89.8235936 L27.778534,89.8235936 L15.5796548,89.8097139 L3.37971201,89.8235936 C1.14926039,89.8235936 -0.497253257,87.6775697 0.137739409,85.5347488 C2.54369152,77.4129557 7.6768148,73.3387132 15.5339184,73.306683 L15.5339184,73.306683 C15.5498729,73.30348 15.5637003,73.3045477 15.5796548,73.3045477 L15.6019913,73.3040138 L15.6019913,73.3040138 L15.6243277,73.30348 Z M101.445235,78.645051 L101.397371,78.645051 C96.7864949,78.6642691 93.8710595,80.4387427 92.0245817,84.4820226 L92.0245817,84.4820226 L101.415453,84.4713459 L110.818025,84.4820226 C108.971547,80.4387427 106.056111,78.6642691 101.445235,78.645051 L101.445235,78.645051 Z M15.6030549,78.645051 L15.5551911,78.645051 C10.9443147,78.6642691 8.02887941,80.4387427 6.18240158,84.4820226 L6.18240158,84.4820226 L15.573273,84.4713459 L24.9758445,84.4820226 C23.1293666,80.4387427 20.2139313,78.6642691 15.6030549,78.645051 L15.6030549,78.645051 Z M101.421303,52.8925502 C106.375735,52.8925502 110.392037,56.9368978 110.392037,61.9250689 C110.392037,66.91324 106.375735,70.9575876 101.421303,70.9575876 C96.4668713,70.9575876 92.4505693,66.91324 92.4505693,61.9250689 C92.4505693,56.9368978 96.4668713,52.8925502 101.421303,52.8925502 Z M15.579123,52.8925502 C20.5335549,52.8925502 24.5498569,56.9368978 24.5498569,61.9250689 C24.5498569,66.91324 20.5335549,70.9575876 15.579123,70.9575876 C10.6246911,70.9575876 6.60838912,66.91324 6.60838912,61.9250689 C6.60838912,56.9368978 10.6246911,52.8925502 15.579123,52.8925502 Z M101.421303,58.2309182 C99.4067703,58.2309182 97.7687658,59.8879477 97.7687658,61.9250689 C97.7687658,63.9621901 99.4067703,65.6192195 101.421303,65.6192195 C103.434772,65.6192195 105.073841,63.9621901 105.073841,61.9250689 C105.073841,59.8879477 103.434772,58.2309182 101.421303,58.2309182 Z M15.579123,58.2309182 C13.5645902,58.2309182 11.9265856,59.8879477 11.9265856,61.9250689 C11.9265856,63.9621901 13.5645902,65.6192195 15.579123,65.6192195 C17.5936559,65.6192195 19.2316604,63.9621901 19.2316604,61.9250689 C19.2316604,59.8879477 17.5936559,58.2309182 15.579123,58.2309182 Z M84.9269166,24.962102 C92.3798372,29.518933 98.5404361,35.9345836 102.818393,43.5257429 C104.071597,45.7483072 102.454115,48.4689969 99.9555305,48.4141574 L99.7838304,48.406079 C98.7201911,48.3292065 97.7458975,47.741986 97.222587,46.8099069 C93.4838948,40.1476237 88.0848617,34.5177808 81.5477346,30.5268168 C80.5245135,29.9011601 79.9490847,28.7427343 80.0341758,27.5416015 L80.0352395,27.5287894 C80.207549,25.1147794 82.8687746,23.7043825 84.9269166,24.962102 Z M37.3172513,27.3935151 L37.3172513,27.4073949 C37.3938334,28.6085277 36.8088317,29.7626829 35.7792289,30.3797982 C29.2112562,34.3163108 23.7675502,39.902379 19.9746125,46.5336998 C19.4438564,47.4615081 18.4642446,48.0412549 17.4006053,48.1085183 C14.8031981,48.2740078 13.1056298,45.4670939 14.405397,43.2036258 C18.7450454,35.6476997 24.956699,29.2832974 32.4457833,24.7883915 C34.5145618,23.5456195 37.1640873,24.9784374 37.3172513,27.3935151 Z M58.5454709,20.4109298 C66.4025745,20.446163 71.5356978,24.5204055 73.9416499,32.6421986 C74.5766425,34.7850195 72.9301289,36.9310434 70.7039318,36.9310434 L70.7039318,36.9310434 L70.6996773,36.9310434 L58.5007981,36.9171637 L46.3008553,36.9310434 C44.0704036,36.9310434 42.42389,34.7850195 43.057819,32.6421986 C45.4648348,24.5204055 50.5979581,20.446163 58.4550616,20.4141328 L58.4550616,20.4141328 C58.4699526,20.4109298 58.4848435,20.4119974 58.5007981,20.4119974 L58.5227357,20.4114636 L58.5227357,20.4114636 L58.5454709,20.4109298 Z M58.5241982,25.7525008 L58.4763344,25.7525008 C53.865458,25.7717189 50.9500227,27.5461925 49.1035448,31.5894724 L49.1035448,31.5894724 L58.4944163,31.5787956 L67.8969877,31.5894724 C66.0505099,27.5461925 63.1350745,25.7717189 58.5241982,25.7525008 L58.5241982,25.7525008 Z M58.5002663,0 C63.4546982,0 67.4710002,4.0443476 67.4710002,9.03251867 C67.4710002,14.0206897 63.4546982,18.0650373 58.5002663,18.0650373 C53.5458344,18.0650373 49.5295324,14.0206897 49.5295324,9.03251867 C49.5295324,4.0443476 53.5458344,0 58.5002663,0 Z M58.5002663,5.33836801 C56.4857334,5.33836801 54.8477289,6.99539744 54.8477289,9.03251867 C54.8477289,11.0696399 56.4857334,12.7266693 58.5002663,12.7266693 C60.5137355,12.7266693 62.1528036,11.0696399 62.1528036,9.03251867 C62.1528036,6.99539744 60.5137355,5.33836801 58.5002663,5.33836801 Z" id="Combined-Shape"></path>
        </g>
    </g>
</svg>