<?xml version="1.0" encoding="UTF-8"?>
<svg width="120px" height="112px" viewBox="0 0 120 112" version="1.1" xmlns="http://www.w3.org/2000/svg" xmlns:xlink="http://www.w3.org/1999/xlink">
    <title>icon/total-ada</title>
    <g id="icon/total-ada" stroke="none" stroke-width="1" fill="none" fill-rule="evenodd">
        <g id="icon/ada" fill="#F0F3F5">
            <path d="M9.19647273,44.963868 C9.53792727,44.6169942 10.0844727,44.6169942 10.4259273,44.963868 L10.4259273,44.963868 L19.3561091,54.0086835 C19.9244727,54.5849942 19.5208364,55.5690718 18.7408364,55.5690718 L18.7408364,55.5690718 L12.6230182,55.5690718 L12.6230182,56.7608388 C12.6230182,57.2545087 12.6306545,57.7416544 12.6448364,58.2222757 C12.6590182,58.7192078 12.6808364,59.2117903 12.7092,59.6967612 C13.1564727,67.381266 15.4157455,74.9461592 19.2426545,81.5759068 C22.9790182,88.0501592 28.2164727,93.6664699 34.3899273,97.8213437 C40.6626545,102.04146 47.9215636,104.755557 55.3888364,105.670043 C63.6982909,106.686742 72.1452,105.53412 79.8153818,102.33614 C86.8833818,99.3893437 93.2226545,94.7429748 98.2299273,88.8439456 C98.5626545,88.4514019 98.8724727,88.0762563 99.1670182,87.7065476 C100.143382,86.4832466 101.904109,86.2951301 103.108473,87.2813825 C104.323745,88.2774214 104.513564,90.0933437 103.527382,91.3275184 C97.7968364,98.5042175 90.3328364,104.147713 81.9437455,107.644722 C73.3910182,111.211324 63.9753818,112.497693 54.7190182,111.364645 C46.3921091,110.344683 38.2899273,107.316334 31.2928364,102.607984 C24.4092,97.9768388 18.5652,91.708101 14.3968364,84.485732 C10.1204727,77.0785087 7.59501818,68.621965 7.09538182,60.0371107 C7.03210909,58.9540816 7.00047273,57.852567 6.99938182,56.7608388 L6.99938182,56.7608388 L6.99938182,55.5690718 L0.881563636,55.5690718 C0.101563636,55.5690718 -0.300981818,54.5849942 0.267381818,54.0086835 L0.267381818,54.0086835 Z M58.7727273,22.1603417 C59.9225455,22.1701282 60.9305455,22.7431767 61.4825455,23.6750602 L61.6909091,24.0958757 L70.6538182,46.2457786 L77.6596364,46.2501282 C79.2763636,46.2501282 80.6018182,47.4505942 80.772,48.9881476 L80.7872727,49.4578951 C80.7196364,50.9606524 79.4792727,52.1535068 77.9563636,52.3590214 L77.4916364,52.389468 L73.1345455,52.3883806 L75.0043636,56.9977786 L82.7563636,57.0010408 C84.3272727,57.0010408 85.704,58.0579728 85.9974545,59.4922252 L86.0487273,59.9282641 C86.1218182,61.5288854 84.9501818,62.8739728 83.4,63.1055845 L82.9243636,63.1403806 L77.4850909,63.1403806 L84.6632727,80.863565 C85.2447273,82.2989049 84.6447273,83.9060505 83.3247273,84.6530796 L82.9069091,84.8509825 C82.5338182,84.9956039 82.1487273,85.0673709 81.7549091,85.0673709 C80.6432727,85.0673709 79.6178182,84.4867107 79.0570909,83.5493903 L78.8465455,83.1253126 L70.7530909,63.1403806 L47.2450909,63.1403806 L39.4712727,82.9491573 C39.06,83.9952155 38.1141818,84.7161476 37.0243636,84.8803417 L36.5498182,84.9151379 C36.1701818,84.9151379 35.7927273,84.8477204 35.4316364,84.7128854 C33.9621818,84.1594097 33.1603636,82.6414291 33.4952727,81.1778175 L33.6305455,80.7417786 L40.5370909,63.1403806 L35.0530909,63.1403806 C33.4232727,63.1403806 32.0890909,61.918167 31.9396364,60.3653903 L31.9298182,59.933701 C31.9941818,58.4320311 33.2378182,57.2370019 34.7629091,57.0314874 L35.2287273,57.0010408 L42.9469091,56.9977786 L44.7589091,52.3883806 L40.1923636,52.389468 C38.5603636,52.389468 37.2272727,51.1683417 37.0778182,49.6123029 L37.068,49.1806136 C37.1323636,47.6800311 38.3749091,46.4860893 39.9010909,46.2816621 L40.3669091,46.2501282 L47.1730909,46.2457786 L55.8643636,24.1219728 C56.2712727,23.0900505 57.2050909,22.3647689 58.296,22.1973126 L58.7727273,22.1603417 Z M38.0562545,4.11888155 C46.6089818,0.552279612 56.0246182,-0.73408932 65.2809818,0.400046602 C73.6078909,1.41892039 81.7100727,4.4472699 88.7071636,9.15561942 C95.5908,13.7878524 101.4348,20.0555029 105.603164,27.2778718 C109.879527,34.6850951 112.404982,43.1416388 112.904618,51.7275806 C112.967891,52.8095223 112.999527,53.9121243 113.000618,55.002765 L113.000618,55.002765 L113.000618,56.194532 L119.118436,56.194532 C119.898436,56.194532 120.300982,57.1796971 119.732618,57.7549204 L119.732618,57.7549204 L110.803527,66.7997359 C110.462073,67.1466097 109.915527,67.1466097 109.574073,66.7997359 L109.574073,66.7997359 L100.643891,57.7549204 C100.075527,57.1796971 100.479164,56.194532 101.259164,56.194532 L101.259164,56.194532 L107.376982,56.194532 L107.376982,55.002765 C107.376982,54.5090951 107.369345,54.0219495 107.355164,53.5413282 C107.340982,53.0443961 107.319164,52.5518136 107.2908,52.0679301 C106.843527,44.3823379 104.584255,36.8174447 100.757345,30.1876971 C97.0209818,23.7134447 91.7835273,18.0982214 85.6100727,13.9422602 C79.3373455,9.72214369 72.0784364,7.0080466 64.6111636,6.09356117 C56.3017091,5.07686214 47.8548,6.2294835 40.1846182,9.42746408 C33.1177091,12.3742602 26.7773455,17.0206291 21.7700727,22.9196583 C21.4373455,23.3122019 21.1275273,23.6873476 20.8329818,24.0570563 C19.8566182,25.2803573 18.0958909,25.4684738 16.8915273,24.4822214 C15.6762545,23.4861825 15.4864364,21.6702602 16.4726182,20.4360854 C22.2031636,13.2593864 29.6671636,7.61697864 38.0562545,4.11888155 Z M66.4025455,52.3883806 L51.4669091,52.3883806 L49.6592727,56.9977786 L68.2723636,56.9977786 L66.4025455,52.3883806 Z M58.8250909,33.6495845 L53.8810909,46.2457786 L63.9218182,46.2457786 L58.8250909,33.6495845 Z" id="Combined-Shape"></path>
        </g>
    </g>
</svg>