<svg width="44" height="44" xmlns="http://www.w3.org/2000/svg"><g fill="none" fill-rule="evenodd"><circle fill="#F0F3F5" cx="22" cy="22" r="22"/><path d="M21.556 15.492a.6.6 0 01.52.291l.039.081 1.718 4.26 1.344.001c.31 0 .564.231.596.527l.003.09c-.013.29-.25.519-.543.558l-.089.006h-.835l.358.886 1.487.001c.301 0 .565.204.621.48l.01.083a.593.593 0 01-.508.611l-.091.007h-1.043l1.377 3.41a.586.586 0 01-.257.728l-.08.038a.604.604 0 01-.739-.25l-.04-.082-1.551-3.844h-4.508l-1.49 3.81a.598.598 0 01-.47.372l-.09.006a.61.61 0 01-.214-.038.589.589 0 01-.372-.68l.026-.084 1.324-3.386h-1.051a.596.596 0 01-.597-.534l-.002-.083c.012-.289.25-.518.543-.558l.09-.006h1.48l.347-.887h-.876a.596.596 0 01-.597-.534l-.002-.083c.013-.289.25-.518.543-.558l.09-.006h1.305l1.666-4.256a.598.598 0 01.466-.37l.092-.007zm1.462 5.814h-2.863l-.347.886h3.569l-.359-.886zm-1.453-3.604l-.947 2.422h1.925l-.978-2.422z" fill="#3154CB" fill-rule="nonzero"/><g fill="#F14D78"><path d="M33.125 22.038h-1.173v-.229a10.724 10.724 0 00-1.418-5.333c-.8-1.39-1.92-2.595-3.24-3.486a10.314 10.314 0 00-4.49-1.684c-1.775-.218-3.58.03-5.22.715a10.477 10.477 0 00-4.139 3.14.56.56 0 00.08.777.53.53 0 00.757-.081 9.385 9.385 0 013.71-2.814 9.237 9.237 0 014.683-.642 9.243 9.243 0 014.026 1.51 9.512 9.512 0 012.904 3.125 9.594 9.594 0 011.27 4.773v.23H29.7c-.15 0-.227.188-.118.3l1.712 1.739c.066.067.17.067.236 0l1.712-1.74c.11-.11.032-.3-.118-.3zM10.456 21.918h1.173v.229a10.724 10.724 0 001.418 5.333c.8 1.39 1.92 2.595 3.24 3.486a10.314 10.314 0 004.491 1.684c1.775.218 3.58-.03 5.22-.716a10.477 10.477 0 004.138-3.138.56.56 0 00-.08-.778.53.53 0 00-.756.081 9.385 9.385 0 01-3.71 2.814 9.237 9.237 0 01-4.683.642 9.243 9.243 0 01-4.026-1.51 9.512 9.512 0 01-2.904-3.125 9.594 9.594 0 01-1.27-4.773v-.23h1.173c.15 0 .227-.189.118-.3l-1.712-1.74a.164.164 0 00-.236 0l-1.712 1.74c-.108.111-.031.3.118.3z" /></g></g></svg>