<?xml version="1.0" encoding="UTF-8"?>
<svg width="42px" height="42px" viewBox="0 0 42 42" version="1.1" xmlns="http://www.w3.org/2000/svg" xmlns:xlink="http://www.w3.org/1999/xlink">
    <!-- Generator: Sketch 52.6 (67491) - http://www.bohemiancoding.com/sketch -->
    <title>Ada</title>
    <desc>Created with Sketch.</desc>
    <defs>
        <rect id="path-1" x="0" y="0" width="38" height="38" rx="8"></rect>
        <filter x="-46.1%" y="-40.8%" width="192.1%" height="192.1%" filterUnits="objectBoundingBox" id="filter-2">
            <feOffset dx="0" dy="2" in="SourceAlpha" result="shadowOffsetOuter1"></feOffset>
            <feGaussianBlur stdDeviation="5.5" in="shadowOffsetOuter1" result="shadowBlurOuter1"></feGaussianBlur>
            <feColorMatrix values="0 0 0 0 0   0 0 0 0 0   0 0 0 0 0  0 0 0 0.05 0" type="matrix" in="shadowBlurOuter1"></feColorMatrix>
        </filter>
    </defs>
    <g id="Ada" stroke="none" stroke-width="1" fill="none" fill-rule="evenodd">
        <g transform="translate(2.000000, 2.000000)">
            <g id="Rectangle-11-Copy">
                <use fill="black" fill-opacity="1" filter="url(#filter-2)" xlink:href="#path-1"></use>
                <use fill="#F0F3F5" fill-rule="evenodd" xlink:href="#path-1"></use>
            </g>
            <g id="icon/ada" transform="translate(9.000000, 9.000000)">
                <g id="-ADA-symbol-50">
                    <rect id="Rectangle" opacity="0" x="0" y="0" width="20" height="20"></rect>
                    <path d="M17.2093023,11.4341085 C17.2093023,11.0465116 16.8604651,10.7751938 16.4728682,10.7751938 L14.379845,10.7751938 C14.379845,10.7751938 14.379845,10.7751938 14.379845,10.7751938 L13.7984496,9.34108527 C13.7984496,9.34108527 13.7984496,9.34108527 13.7984496,9.34108527 L15.1162791,9.34108527 C15.503876,9.34108527 15.8527132,9.06976744 15.8527132,8.68217054 C15.8527132,8.29457364 15.5426357,7.98449612 15.1550388,7.98449612 L13.255814,7.98449612 C13.255814,7.98449612 13.255814,7.98449612 13.255814,7.98449612 L10.8527132,2.09302326 C10.7364341,1.82170543 10.503876,1.66666667 10.1937984,1.66666667 C9.92248062,1.66666667 9.65116279,1.86046512 9.53488372,2.09302326 L7.24806202,7.94573643 C7.24806202,7.94573643 7.24806202,7.94573643 7.24806202,7.94573643 L5.3875969,7.94573643 C5,7.94573643 4.65116279,8.21705426 4.65116279,8.60465116 C4.65116279,8.99224806 4.96124031,9.30232558 5.34883721,9.30232558 L6.70542636,9.30232558 C6.70542636,9.30232558 6.70542636,9.30232558 6.70542636,9.30232558 L6.12403101,10.7364341 C6.12403101,10.7364341 6.12403101,10.7364341 6.12403101,10.7364341 L4.06976744,10.7364341 C3.68217054,10.7364341 3.33333333,11.0077519 3.33333333,11.3953488 C3.33333333,11.7829457 3.64341085,12.0930233 4.03100775,12.0930233 L5.62015504,12.0930233 C5.62015504,12.0930233 5.62015504,12.0930233 5.62015504,12.0930233 L3.75968992,16.9379845 C3.60465116,17.2868217 3.79844961,17.6744186 4.14728682,17.8294574 C4.2248062,17.8682171 4.30232558,17.8682171 4.37984496,17.8682171 C4.65116279,17.8682171 4.92248062,17.7131783 5.03875969,17.4418605 L7.09302326,12.1705426 C7.09302326,12.1705426 7.09302326,12.1705426 7.09302326,12.1705426 L13.372093,12.1705426 C13.372093,12.1705426 13.372093,12.1705426 13.372093,12.1705426 L15.503876,17.4806202 C15.620155,17.751938 15.8527132,17.9069767 16.1627907,17.9069767 C16.2403101,17.9069767 16.3178295,17.9069767 16.4341085,17.8682171 C16.7829457,17.7131783 16.9767442,17.3255814 16.8217054,16.9767442 L14.8837209,12.1705426 C14.8837209,12.1705426 14.8837209,12.1705426 14.8837209,12.1705426 L16.4728682,12.1705426 C16.8992248,12.1317829 17.248062,11.8217054 17.2093023,11.4341085 Z M10.2325581,4.2248062 L11.744186,7.94573643 C11.744186,7.94573643 11.744186,7.94573643 11.744186,7.94573643 L8.75968992,7.94573643 C8.75968992,7.94573643 8.75968992,7.94573643 8.75968992,7.94573643 L10.2325581,4.2248062 C10.2325581,4.2248062 10.2325581,4.2248062 10.2325581,4.2248062 Z M7.6744186,10.7751938 L8.25581395,9.34108527 C8.25581395,9.34108527 8.25581395,9.34108527 8.25581395,9.34108527 L12.2868217,9.34108527 C12.2868217,9.34108527 12.2868217,9.34108527 12.2868217,9.34108527 L12.8682171,10.7751938 C12.8682171,10.7751938 12.8682171,10.7751938 12.8682171,10.7751938 L7.6744186,10.7751938 C7.6744186,10.7751938 7.6744186,10.7751938 7.6744186,10.7751938 Z" id="Shape" fill="#464749"></path>
                </g>
            </g>
        </g>
    </g>
</svg>