<svg width="40" height="40" viewBox="0 0 40 40" fill="none" xmlns="http://www.w3.org/2000/svg">
<path d="M0 8C0 3.58172 3.58172 0 8 0H32C36.4183 0 40 3.58172 40 8V32C40 36.4183 36.4183 40 32 40H8C3.58172 40 0 36.4183 0 32V8Z" fill="#F0F3F5"/>
<path fillRule="evenodd" clipRule="evenodd" d="M26.997 21.6229C26.997 21.241 26.6451 20.9737 26.2542 20.9737H24.1429L23.5564 19.5609H24.8857C25.2767 19.5609 25.6286 19.2936 25.6286 18.9117C25.6286 18.5298 25.3158 18.2243 24.9248 18.2243H23.009L20.585 12.42C20.4677 12.1527 20.2331 12 19.9203 12C19.6466 12 19.3729 12.1909 19.2557 12.42L16.9489 18.1862H15.0722C14.6812 18.1862 14.3293 18.4535 14.3293 18.8353C14.3293 19.2172 14.6421 19.5227 15.0331 19.5227H16.4015L15.815 20.9356H13.7429C13.3519 20.9356 13 21.2029 13 21.5847C13 21.9666 13.3128 22.2721 13.7038 22.2721H15.3068L13.4301 27.0453C13.2737 27.389 13.4692 27.7709 13.8211 27.9236C13.8993 27.9618 13.9774 27.9618 14.0556 27.9618C14.3293 27.9618 14.603 27.8091 14.7203 27.5418L16.7925 22.3484H23.1263L25.2767 27.58C25.394 27.8473 25.6286 28 25.9414 28C26.0196 28 26.0978 28 26.2151 27.9618C26.567 27.8091 26.7624 27.4272 26.606 27.0835L24.6512 22.3484H26.2542C26.6842 22.3103 27.0361 22.0048 26.997 21.6229ZM19.9594 14.5203L21.4842 18.1862H18.4737L19.9594 14.5203ZM17.379 20.9737L17.9654 19.5609H22.0316L22.6181 20.9737H17.379Z" fill="#464749"/>
</svg>
