<svg width="40" height="40" viewBox="0 0 40 40" fill="none" xmlns="http://www.w3.org/2000/svg">
<path d="M0 20C0 8.95431 8.95431 0 20 0V0C31.0457 0 40 8.95431 40 20V20C40 31.0457 31.0457 40 20 40V40C8.95431 40 0 31.0457 0 20V20Z" fill="#F0F3F5"/>
<path d="M20 29C24.9706 29 29 24.9706 29 20C29 15.0294 24.9706 11 20 11C15.0294 11 11 15.0294 11 20C11 24.9706 15.0294 29 20 29Z" fill="#009B3A"/>
<path d="M20.0049 20H20V20.0049H20.0049V20Z" fill="#009B3A"/>
<path d="M11.4875 20L19.9999 25.4356L28.5122 20L19.9999 14.5644L11.4875 20Z" fill="#FEDF00"/>
<path d="M19.9999 23.5895C21.9824 23.5895 23.5895 21.9824 23.5895 20C23.5895 18.0176 21.9824 16.4105 19.9999 16.4105C18.0175 16.4105 16.4104 18.0176 16.4104 20C16.4104 21.9824 18.0175 23.5895 19.9999 23.5895Z" fill="#002776"/>
<mask id="mask0_319_22605" style="mask-type:alpha" maskUnits="userSpaceOnUse" x="16" y="16" width="8" height="8">
<path d="M19.9999 23.5895C21.9824 23.5895 23.5895 21.9824 23.5895 20C23.5895 18.0176 21.9824 16.4105 19.9999 16.4105C18.0175 16.4105 16.4104 18.0176 16.4104 20C16.4104 21.9824 18.0175 23.5895 19.9999 23.5895Z" fill="#002776"/>
</mask>
<g mask="url(#mask0_319_22605)">
<path d="M9.2312 27.1791C9.2312 24.8671 10.1496 22.6497 11.7845 21.0149C13.4193 19.3801 15.6367 18.4616 17.9487 18.4616C20.2607 18.4616 22.478 19.3801 24.1128 21.0149C25.7477 22.6497 26.6661 24.8671 26.6661 27.1791H26.1533C26.1533 25.0031 25.2889 22.9162 23.7502 21.3775C22.2116 19.8388 20.1247 18.9744 17.9487 18.9744C15.7727 18.9744 13.6858 19.8388 12.1471 21.3775C10.6084 22.9162 9.74399 25.0031 9.74399 27.1791H9.2312Z" fill="white"/>
<path fill-rule="evenodd" clip-rule="evenodd" d="M16.9385 18.9507C16.9789 18.9457 17.0155 18.9231 17.0402 18.8877C17.0649 18.8524 17.0757 18.8073 17.0702 18.7624C17.0647 18.7174 17.0433 18.6762 17.0108 18.6479C16.9783 18.6196 16.9373 18.6065 16.8968 18.6114C16.8563 18.6164 16.8197 18.6391 16.795 18.6744C16.7703 18.7097 16.7596 18.7548 16.7651 18.7998C16.7706 18.8448 16.792 18.8859 16.8245 18.9142C16.857 18.9425 16.898 18.9557 16.9385 18.9507V18.9507ZM16.9307 18.8877C16.9545 18.8848 16.9759 18.8707 16.9902 18.8487C17.0046 18.8266 17.0107 18.7983 17.0072 18.7701C17.0037 18.7418 16.991 18.7159 16.9717 18.6979C16.9525 18.68 16.9283 18.6716 16.9045 18.6744C16.8808 18.6774 16.8594 18.6914 16.845 18.7135C16.8307 18.7356 16.8246 18.7638 16.8281 18.7921C16.8315 18.8203 16.8443 18.8463 16.8635 18.8642C16.8828 18.8822 16.907 18.8906 16.9307 18.8877" fill="#009B3A"/>
<path fill-rule="evenodd" clip-rule="evenodd" d="M17.217 18.9199L17.2803 18.9154L17.2714 18.7888L17.4079 18.7792C17.4363 18.7772 17.4628 18.764 17.4815 18.7425C17.5001 18.721 17.5095 18.693 17.5075 18.6645C17.5056 18.6361 17.4924 18.6096 17.4709 18.591C17.4493 18.5723 17.4213 18.5629 17.3929 18.5649L17.198 18.5785L17.217 18.9199ZM17.267 18.7254L17.3986 18.7162C17.4102 18.7154 17.421 18.71 17.4287 18.7012C17.4363 18.6924 17.4402 18.6809 17.4393 18.6693C17.4385 18.6577 17.4331 18.6469 17.4243 18.6392C17.4155 18.6316 17.4041 18.6277 17.3924 18.6285L17.2609 18.6377L17.267 18.7254Z" fill="#009B3A"/>
<path d="M17.5069 18.8996C17.5035 18.8508 17.496 18.7437 17.4229 18.7488L17.3303 18.7552C17.4375 18.7478 17.445 18.8549 17.4484 18.9037" fill="#009B3A"/>
<path fill-rule="evenodd" clip-rule="evenodd" d="M17.6503 18.8929L17.8114 18.8901C17.8502 18.8894 17.8872 18.8733 17.9142 18.8454C17.9412 18.8174 17.956 18.7799 17.9553 18.741L17.9545 18.6922C17.9541 18.673 17.95 18.654 17.9423 18.6363C17.9347 18.6187 17.9236 18.6027 17.9098 18.5894C17.8959 18.576 17.8796 18.5655 17.8617 18.5584C17.8438 18.5514 17.8247 18.5479 17.8054 18.5483L17.6443 18.5511L17.6503 18.8929ZM17.7126 18.8283L17.8054 18.8267C17.83 18.8263 17.8534 18.8161 17.8705 18.7984C17.8876 18.7807 17.897 18.7569 17.8966 18.7323L17.896 18.703C17.8956 18.6784 17.8854 18.655 17.8677 18.6379C17.85 18.6208 17.8263 18.6114 17.8016 18.6118L17.7089 18.6135L17.7126 18.8283Z" fill="#009B3A"/>
<path d="M18.0845 18.8886L18.392 18.8994L18.3942 18.8359L18.1453 18.8272L18.1483 18.7394L18.3436 18.7462L18.3456 18.6876L18.1504 18.6808L18.1528 18.6125L18.387 18.6206L18.3892 18.5572L18.0964 18.547L18.0845 18.8886Z" fill="#009B3A"/>
<path d="M18.5181 18.9071L18.5764 18.9122L18.5969 18.6787L18.6446 18.9182L18.6981 18.9228L18.7866 18.6953L18.7662 18.9288L18.8246 18.9339L18.8544 18.5933L18.7692 18.5859L18.6807 18.8135L18.633 18.574L18.5479 18.5665L18.5181 18.9071Z" fill="#009B3A"/>
<path d="M19.2263 18.987L19.479 19.0304L19.4889 18.9726L19.294 18.9391L19.3072 18.8621L19.4661 18.8894L19.476 18.8317L19.3172 18.8044L19.3263 18.7514L19.5152 18.7839L19.5251 18.7261L19.2784 18.6837L19.2263 18.987Z" fill="#009B3A"/>
<path fill-rule="evenodd" clip-rule="evenodd" d="M19.8755 19.1145L19.937 19.1304L19.9687 19.0074L20.1011 19.0417C20.1287 19.0488 20.158 19.0447 20.1826 19.0302C20.2071 19.0158 20.2249 18.9921 20.232 18.9646C20.2392 18.937 20.2351 18.9077 20.2206 18.8831C20.2061 18.8586 20.1825 18.8408 20.1549 18.8336L19.9658 18.7847L19.8755 19.1145ZM19.9846 18.946L20.1123 18.979C20.1236 18.9819 20.1356 18.9802 20.1456 18.9743C20.1557 18.9684 20.1629 18.9587 20.1659 18.9474C20.1688 18.9362 20.1671 18.9242 20.1612 18.9141C20.1553 18.9041 20.1456 18.8968 20.1343 18.8939L20.0067 18.8609L19.9846 18.946Z" fill="#009B3A"/>
<path fill-rule="evenodd" clip-rule="evenodd" d="M20.2949 19.2264L20.3555 19.2455L20.3936 19.1244L20.5241 19.1655C20.5512 19.1741 20.5807 19.1715 20.606 19.1583C20.6313 19.1452 20.6503 19.1225 20.6588 19.0953C20.6674 19.0681 20.6648 19.0387 20.6517 19.0134C20.6385 18.9881 20.6159 18.9691 20.5887 18.9605L20.4024 18.9018L20.2949 19.2264ZM20.4127 19.0638L20.5385 19.1035C20.5496 19.107 20.5617 19.1059 20.572 19.1005C20.5823 19.0952 20.5901 19.0859 20.5936 19.0748C20.5971 19.0636 20.5961 19.0516 20.5907 19.0413C20.5853 19.0309 20.576 19.0231 20.5649 19.0196L20.4392 18.98L20.4127 19.0638Z" fill="#009B3A"/>
<path d="M20.5721 19.3138C20.5868 19.2672 20.6191 19.1647 20.5492 19.1427L20.4607 19.1148C20.5632 19.1471 20.5309 19.2496 20.5162 19.2961" fill="#009B3A"/>
<path fill-rule="evenodd" clip-rule="evenodd" d="M20.852 19.4139C20.8902 19.4282 20.9332 19.425 20.9715 19.4051C21.0097 19.3852 21.0401 19.3502 21.056 19.3077C21.0719 19.2652 21.0719 19.2188 21.0561 19.1787C21.0403 19.1386 21.01 19.108 20.9718 19.0937C20.9335 19.0794 20.8906 19.0826 20.8523 19.1025C20.8141 19.1224 20.7837 19.1575 20.7678 19.2C20.7519 19.2424 20.7519 19.2888 20.7677 19.3289C20.7835 19.3691 20.8138 19.3996 20.852 19.4139V19.4139ZM20.8743 19.3545C20.8967 19.3629 20.9222 19.3603 20.9451 19.3474C20.9681 19.3344 20.9865 19.3122 20.9965 19.2855C21.0065 19.2588 21.0072 19.2298 20.9983 19.205C20.9895 19.1802 20.972 19.1616 20.9495 19.1532C20.9271 19.1448 20.9016 19.1474 20.8787 19.1603C20.8557 19.1732 20.8372 19.1955 20.8273 19.2222C20.8173 19.2489 20.8166 19.2778 20.8254 19.3026C20.8343 19.3274 20.8518 19.3461 20.8743 19.3545" fill="#009B3A"/>
<path fill-rule="evenodd" clip-rule="evenodd" d="M21.2545 19.5765C21.2919 19.5928 21.335 19.5919 21.3742 19.574C21.4135 19.5561 21.4457 19.5227 21.4638 19.4811C21.4818 19.4395 21.4843 19.3932 21.4706 19.3523C21.457 19.3114 21.4283 19.2793 21.3908 19.263C21.3534 19.2467 21.3104 19.2476 21.2711 19.2655C21.2319 19.2834 21.1997 19.3168 21.1816 19.3584C21.1635 19.4 21.161 19.4463 21.1747 19.4872C21.1884 19.5281 21.2171 19.5602 21.2545 19.5765V19.5765ZM21.2798 19.5183C21.3018 19.5278 21.3274 19.5266 21.351 19.5149C21.3745 19.5032 21.3942 19.4819 21.4055 19.4558C21.4169 19.4297 21.4191 19.4008 21.4116 19.3756C21.4041 19.3503 21.3875 19.3308 21.3655 19.3212C21.3435 19.3117 21.318 19.3129 21.2944 19.3246C21.2708 19.3363 21.2512 19.3576 21.2398 19.3837C21.2285 19.4099 21.2263 19.4387 21.2338 19.464C21.2413 19.4892 21.2579 19.5087 21.2798 19.5183" fill="#009B3A"/>
<path d="M21.4636 19.4811L21.345 19.4295L21.3255 19.4743L21.4442 19.5259L21.4636 19.4811Z" fill="#009B3A"/>
<path d="M21.4637 19.4811L21.4189 19.4616L21.3508 19.6184L21.3956 19.6378L21.4637 19.4811Z" fill="#009B3A"/>
<path fill-rule="evenodd" clip-rule="evenodd" d="M21.5101 19.6913L21.5669 19.7196L21.6235 19.606L21.7459 19.667C21.7714 19.6797 21.8009 19.6818 21.8279 19.6727C21.855 19.6637 21.8773 19.6443 21.89 19.6188C21.9027 19.5933 21.9048 19.5638 21.8957 19.5368C21.8867 19.5097 21.8673 19.4874 21.8418 19.4747L21.667 19.3875L21.5101 19.6913ZM21.6519 19.5492L21.7699 19.608C21.7803 19.6132 21.7924 19.614 21.8034 19.6103C21.8145 19.6066 21.8236 19.5987 21.8288 19.5883C21.834 19.5778 21.8349 19.5658 21.8312 19.5547C21.8275 19.5437 21.8195 19.5345 21.8091 19.5293L21.6911 19.4705L21.6519 19.5492Z" fill="#009B3A"/>
<path d="M21.77 19.8209C21.7918 19.7772 21.8398 19.6811 21.7742 19.6484L21.6912 19.607C21.7873 19.6549 21.7394 19.7511 21.7176 19.7948" fill="#009B3A"/>
<path d="M21.8972 19.888L22.165 20.0395L22.1963 19.9842L21.9795 19.8616L22.0228 19.785L22.1928 19.8812L22.2216 19.8302L22.0516 19.734L22.0853 19.6745L22.2893 19.79L22.3206 19.7347L22.0656 19.5904L21.8972 19.888Z" fill="#009B3A"/>
<path d="M22.396 20.0553C22.3776 20.0841 22.3963 20.1163 22.4375 20.1425C22.4786 20.1687 22.5067 20.1678 22.5185 20.1493C22.5559 20.0906 22.3398 20.005 22.4064 19.9027C22.4638 19.8148 22.5621 19.8832 22.5992 19.9068C22.6363 19.9304 22.6958 19.9915 22.6495 20.0619L22.5867 20.0219C22.6064 19.991 22.5847 19.9613 22.5518 19.9403C22.5199 19.9199 22.4939 19.9107 22.4749 19.9405C22.4431 19.9883 22.6549 20.0784 22.59 20.1803C22.5421 20.2555 22.4588 20.2227 22.4032 20.1872C22.3558 20.1571 22.285 20.0859 22.3311 20.014L22.396 20.0553Z" fill="#009B3A"/>
<path d="M22.7626 20.2978C22.7428 20.3256 22.7597 20.3587 22.7994 20.387C22.8392 20.4154 22.8673 20.4159 22.8801 20.3981C22.9205 20.3414 22.7091 20.2446 22.781 20.1459C22.8429 20.0612 22.9375 20.1346 22.9733 20.1601C23.0091 20.1857 23.0653 20.2498 23.0154 20.3176L22.9548 20.2744C22.9761 20.2446 22.956 20.2138 22.9242 20.1911C22.8934 20.1691 22.868 20.1585 22.8474 20.1873C22.8131 20.2333 23.02 20.3344 22.9498 20.4328C22.898 20.5053 22.8165 20.4682 22.7629 20.4299C22.7171 20.3973 22.6502 20.3226 22.7 20.2531L22.7626 20.2978Z" fill="#009B3A"/>
<path fill-rule="evenodd" clip-rule="evenodd" d="M23.1094 20.6911C23.1414 20.7165 23.1832 20.7268 23.2257 20.7197C23.2682 20.7125 23.308 20.6886 23.3362 20.6531C23.3644 20.6176 23.3788 20.5735 23.3762 20.5305C23.3736 20.4874 23.3542 20.449 23.3222 20.4236C23.2903 20.3982 23.2485 20.3879 23.2059 20.3951C23.1634 20.4022 23.1237 20.4261 23.0955 20.4616C23.0672 20.4971 23.0529 20.5412 23.0555 20.5842C23.0581 20.6273 23.0775 20.6657 23.1094 20.6911ZM23.149 20.6415C23.1677 20.6563 23.1927 20.6617 23.2185 20.6565C23.2443 20.6512 23.2687 20.6358 23.2864 20.6135C23.3041 20.5912 23.3137 20.564 23.313 20.5377C23.3123 20.5114 23.3014 20.4882 23.2827 20.4733C23.264 20.4584 23.2389 20.453 23.2132 20.4583C23.1874 20.4635 23.163 20.4789 23.1453 20.5012C23.1275 20.5235 23.118 20.5508 23.1187 20.5771C23.1194 20.6034 23.1303 20.6265 23.149 20.6415" fill="#009B3A"/>
</g>
<path d="M17.0698 19.2015L17.0223 19.3478L17.0954 19.3716" fill="white"/>
<path d="M17.0698 19.2015L17.1173 19.3478L17.0442 19.3716" fill="white"/>
<path d="M17.2161 19.3078L17.0622 19.3078L17.0622 19.3847" fill="white"/>
<path d="M17.2162 19.3078L17.0917 19.3983L17.0465 19.336" fill="white"/>
<path d="M16.9233 19.3079L17.0478 19.3983L17.093 19.3361" fill="white"/>
<path d="M16.9234 19.3079L17.0773 19.3079L17.0773 19.3848" fill="white"/>
<path d="M17.1599 19.4798L17.1124 19.3335L17.0392 19.3573" fill="white"/>
<path d="M17.1599 19.4798L17.0355 19.3894L17.0807 19.3272" fill="white"/>
<path d="M16.9792 19.4798L17.1037 19.3894L17.0585 19.3272" fill="white"/>
<path d="M16.9793 19.4798L17.0268 19.3335L17.1 19.3573" fill="white"/>
<path d="M17.3872 20.7106L17.3397 20.8569L17.4128 20.8807" fill="white"/>
<path d="M17.3872 20.7106L17.4347 20.8569L17.3616 20.8807" fill="white"/>
<path d="M17.5334 20.8169L17.3796 20.8169L17.3796 20.8938" fill="white"/>
<path d="M17.5335 20.8169L17.4091 20.9073L17.3639 20.8451" fill="white"/>
<path d="M17.2407 20.8169L17.3652 20.9073L17.4104 20.8451" fill="white"/>
<path d="M17.2408 20.8169L17.3947 20.8169L17.3947 20.8938" fill="white"/>
<path d="M17.4775 20.9889L17.43 20.8426L17.3568 20.8663" fill="white"/>
<path d="M17.4773 20.9889L17.3529 20.8985L17.3981 20.8362" fill="white"/>
<path d="M17.2966 20.9889L17.4211 20.8985L17.3759 20.8362" fill="white"/>
<path d="M17.2967 20.9889L17.3442 20.8426L17.4173 20.8664" fill="white"/>
<path d="M16.9475 21.0586L16.9079 21.1805L16.9689 21.2003" fill="white"/>
<path d="M16.9476 21.0586L16.9872 21.1805L16.9263 21.2003" fill="white"/>
<path d="M17.0696 21.1472L16.9414 21.1472L16.9414 21.2112" fill="white"/>
<path d="M17.0696 21.1472L16.9659 21.2225L16.9282 21.1707" fill="white"/>
<path d="M16.8257 21.1472L16.9294 21.2225L16.9671 21.1706" fill="white"/>
<path d="M16.8257 21.1471L16.9539 21.1471L16.9539 21.2112" fill="white"/>
<path d="M17.0229 21.2905L16.9833 21.1685L16.9224 21.1883" fill="white"/>
<path d="M17.0228 21.2905L16.9191 21.2151L16.9567 21.1633" fill="white"/>
<path d="M16.8723 21.2905L16.976 21.2151L16.9383 21.1633" fill="white"/>
<path d="M16.8721 21.2905L16.9117 21.1685L16.9727 21.1883" fill="white"/>
<path d="M17.7388 20.5714L17.7161 20.6411L17.751 20.6524" fill="white"/>
<path d="M17.7388 20.5714L17.7614 20.6411L17.7266 20.6524" fill="white"/>
<path d="M17.8086 20.622L17.7353 20.622L17.7353 20.6587" fill="white"/>
<path d="M17.8085 20.622L17.7492 20.6651L17.7277 20.6355" fill="white"/>
<path d="M17.6692 20.622L17.7284 20.6651L17.75 20.6354" fill="white"/>
<path d="M17.6691 20.622L17.7423 20.622L17.7423 20.6586" fill="white"/>
<path d="M17.7817 20.7039L17.7591 20.6343L17.7243 20.6456" fill="white"/>
<path d="M17.7816 20.7039L17.7224 20.6609L17.7439 20.6312" fill="white"/>
<path d="M17.6958 20.7039L17.7551 20.6609L17.7335 20.6312" fill="white"/>
<path d="M17.6957 20.7039L17.7183 20.6343L17.7532 20.6456" fill="white"/>
<path d="M18.1343 21.0927L18.0947 21.2147L18.1556 21.2345" fill="white"/>
<path d="M18.1344 21.0927L18.174 21.2147L18.113 21.2345" fill="white"/>
<path d="M18.2563 21.1813L18.1282 21.1813L18.1282 21.2455" fill="white"/>
<path d="M18.2564 21.1813L18.1526 21.2567L18.115 21.2048" fill="white"/>
<path d="M18.0125 21.1814L18.1162 21.2567L18.1538 21.2049" fill="white"/>
<path d="M18.0125 21.1814L18.1407 21.1814L18.1407 21.2455" fill="white"/>
<path d="M18.2097 21.3247L18.1701 21.2028L18.1092 21.2226" fill="white"/>
<path d="M18.2095 21.3247L18.1058 21.2493L18.1435 21.1975" fill="white"/>
<path d="M18.0591 21.3247L18.1628 21.2493L18.1251 21.1975" fill="white"/>
<path d="M18.0589 21.3246L18.0985 21.2027L18.1595 21.2225" fill="white"/>
<path d="M18.0269 21.4749L17.9952 21.5725L18.0439 21.5883" fill="white"/>
<path d="M18.0268 21.4749L18.0585 21.5725L18.0098 21.5883" fill="white"/>
<path d="M18.1243 21.5458L18.0217 21.5458L18.0217 21.597" fill="white"/>
<path d="M18.1242 21.5458L18.0412 21.606L18.0111 21.5646" fill="white"/>
<path d="M17.9292 21.5457L18.0122 21.606L18.0423 21.5645" fill="white"/>
<path d="M17.9291 21.5457L18.0317 21.5457L18.0317 21.597" fill="white"/>
<path d="M18.0872 21.6604L18.0555 21.5629L18.0067 21.5787" fill="white"/>
<path d="M18.0873 21.6605L18.0043 21.6002L18.0344 21.5587" fill="white"/>
<path d="M17.9666 21.6605L18.0495 21.6002L18.0194 21.5587" fill="white"/>
<path d="M17.9667 21.6605L17.9983 21.5629L18.0471 21.5788" fill="white"/>
<path d="M21.1135 18.7327L21.066 18.879L21.1391 18.9028" fill="white"/>
<path d="M21.1135 18.7327L21.161 18.879L21.0879 18.9028" fill="white"/>
<path d="M21.2598 18.839L21.1059 18.839L21.1059 18.9159" fill="white"/>
<path d="M21.2599 18.839L21.1354 18.9294L21.0902 18.8672" fill="white"/>
<path d="M20.967 18.839L21.0915 18.9294L21.1367 18.8672" fill="white"/>
<path d="M20.9671 18.839L21.121 18.839L21.121 18.9159" fill="white"/>
<path d="M21.2036 19.011L21.1561 18.8647L21.0829 18.8885" fill="white"/>
<path d="M21.2036 19.011L21.0792 18.9206L21.1244 18.8583" fill="white"/>
<path d="M21.0229 19.011L21.1474 18.9206L21.1022 18.8583" fill="white"/>
<path d="M21.023 19.011L21.0705 18.8647L21.1437 18.8885" fill="white"/>
<path d="M22.5151 21.1062L22.4676 21.2525L22.5407 21.2763" fill="white"/>
<path d="M22.5151 21.1062L22.5627 21.2525L22.4895 21.2763" fill="white"/>
<path d="M22.6614 21.2125L22.5075 21.2125L22.5075 21.2894" fill="white"/>
<path d="M22.6615 21.2125L22.537 21.3029L22.4918 21.2407" fill="white"/>
<path d="M22.3687 21.2125L22.4931 21.3029L22.5383 21.2407" fill="white"/>
<path d="M22.3688 21.2125L22.5226 21.2125L22.5226 21.2894" fill="white"/>
<path d="M22.6055 21.3845L22.5579 21.2382L22.4848 21.2619" fill="white"/>
<path d="M22.6053 21.3845L22.4808 21.294L22.526 21.2318" fill="white"/>
<path d="M22.4246 21.3845L22.549 21.2941L22.5038 21.2318" fill="white"/>
<path d="M22.4246 21.3845L22.4721 21.2382L22.5453 21.2619" fill="white"/>
<path d="M23.0132 21.1916L22.9815 21.2892L23.0303 21.305" fill="white"/>
<path d="M23.0132 21.1916L23.0449 21.2892L22.9961 21.305" fill="white"/>
<path d="M23.1106 21.2625L23.008 21.2625L23.008 21.3138" fill="white"/>
<path d="M23.1107 21.2625L23.0278 21.3228L22.9976 21.2813" fill="white"/>
<path d="M22.9155 21.2625L22.9985 21.3228L23.0287 21.2813" fill="white"/>
<path d="M22.9157 21.2625L23.0182 21.2625L23.0182 21.3138" fill="white"/>
<path d="M23.0735 21.3772L23.0418 21.2796L22.993 21.2955" fill="white"/>
<path d="M23.0736 21.3772L22.9906 21.3169L23.0208 21.2754" fill="white"/>
<path d="M22.9529 21.3772L23.0359 21.3169L23.0057 21.2754" fill="white"/>
<path d="M22.953 21.3772L22.9847 21.2796L23.0334 21.2955" fill="white"/>
<path d="M22.6614 21.4493L22.6218 21.5712L22.6827 21.591" fill="white"/>
<path d="M22.6615 21.4493L22.7011 21.5712L22.6401 21.591" fill="white"/>
<path d="M22.7834 21.5379L22.6553 21.5379L22.6553 21.602" fill="white"/>
<path d="M22.7835 21.5379L22.6797 21.6132L22.6421 21.5613" fill="white"/>
<path d="M22.5396 21.5378L22.6433 21.6132L22.681 21.5613" fill="white"/>
<path d="M22.5396 21.5379L22.6678 21.5379L22.6678 21.602" fill="white"/>
<path d="M22.7371 21.6812L22.6974 21.5593L22.6365 21.5791" fill="white"/>
<path d="M22.7369 21.6812L22.6332 21.6058L22.6708 21.554" fill="white"/>
<path d="M22.5862 21.6812L22.6899 21.6058L22.6522 21.554" fill="white"/>
<path d="M22.586 21.6811L22.6256 21.5592L22.6866 21.579" fill="white"/>
<path d="M21.7969 22.2014L21.7573 22.3233L21.8182 22.3431" fill="white"/>
<path d="M21.797 22.2014L21.8366 22.3233L21.7756 22.3431" fill="white"/>
<path d="M21.9189 22.29L21.7908 22.29L21.7908 22.3541" fill="white"/>
<path d="M21.919 22.29L21.8152 22.3653L21.7776 22.3134" fill="white"/>
<path d="M21.675 22.2899L21.7788 22.3653L21.8165 22.3134" fill="white"/>
<path d="M21.6751 22.2899L21.8032 22.2899L21.8032 22.354" fill="white"/>
<path d="M21.8726 22.4333L21.8329 22.3113L21.772 22.3311" fill="white"/>
<path d="M21.8724 22.4333L21.7687 22.3579L21.8063 22.3061" fill="white"/>
<path d="M21.7217 22.4333L21.8254 22.3579L21.7877 22.3061" fill="white"/>
<path d="M21.7215 22.4333L21.7611 22.3113L21.8221 22.3311" fill="white"/>
<path d="M21.7922 22.5884L21.7605 22.6859L21.8093 22.7018" fill="white"/>
<path d="M21.7922 22.5884L21.8239 22.6859L21.7751 22.7018" fill="white"/>
<path d="M21.8896 22.6593L21.7871 22.6593L21.7871 22.7105" fill="white"/>
<path d="M21.8896 22.6592L21.8066 22.7195L21.7764 22.678" fill="white"/>
<path d="M21.6946 22.6592L21.7776 22.7195L21.8077 22.678" fill="white"/>
<path d="M21.6945 22.6592L21.797 22.6592L21.797 22.7105" fill="white"/>
<path d="M21.8525 22.7739L21.8208 22.6764L21.7721 22.6922" fill="white"/>
<path d="M21.8524 22.7739L21.7694 22.7136L21.7996 22.6721" fill="white"/>
<path d="M21.7319 22.7739L21.8149 22.7136L21.7848 22.6721" fill="white"/>
<path d="M21.732 22.7739L21.7637 22.6763L21.8125 22.6922" fill="white"/>
<path d="M22.1538 21.9437L22.1221 22.0413L22.1709 22.0571" fill="white"/>
<path d="M22.1538 21.9437L22.1855 22.0413L22.1367 22.0571" fill="white"/>
<path d="M22.2512 22.0146L22.1487 22.0146L22.1487 22.0659" fill="white"/>
<path d="M22.2514 22.0146L22.1684 22.0749L22.1383 22.0334" fill="white"/>
<path d="M22.0562 22.0146L22.1391 22.0749L22.1693 22.0334" fill="white"/>
<path d="M22.0563 22.0146L22.1589 22.0146L22.1589 22.0659" fill="white"/>
<path d="M22.2141 22.1292L22.1824 22.0317L22.1336 22.0476" fill="white"/>
<path d="M22.2142 22.1292L22.1312 22.069L22.1614 22.0275" fill="white"/>
<path d="M22.0935 22.1293L22.1765 22.069L22.1463 22.0275" fill="white"/>
<path d="M22.0936 22.1293L22.1253 22.0317L22.1741 22.0476" fill="white"/>
<path d="M22.4417 21.7374L22.402 21.8593L22.463 21.8791" fill="white"/>
<path d="M22.4418 21.7374L22.4814 21.8593L22.4204 21.8791" fill="white"/>
<path d="M22.5637 21.826L22.4355 21.826L22.4355 21.8901" fill="white"/>
<path d="M22.5637 21.826L22.46 21.9013L22.4223 21.8495" fill="white"/>
<path d="M22.3198 21.826L22.4235 21.9013L22.4612 21.8495" fill="white"/>
<path d="M22.3198 21.826L22.448 21.826L22.448 21.89" fill="white"/>
<path d="M22.5173 21.9693L22.4777 21.8474L22.4168 21.8672" fill="white"/>
<path d="M22.5172 21.9693L22.4134 21.894L22.4511 21.8421" fill="white"/>
<path d="M22.3665 21.9693L22.4702 21.894L22.4325 21.8421" fill="white"/>
<path d="M22.3663 21.9693L22.4059 21.8474L22.4669 21.8672" fill="white"/>
<path d="M21.7825 21.8754L21.7508 21.9729L21.7995 21.9888" fill="white"/>
<path d="M21.7825 21.8754L21.8142 21.9729L21.7654 21.9888" fill="white"/>
<path d="M21.8799 21.9462L21.7773 21.9462L21.7773 21.9975" fill="white"/>
<path d="M21.88 21.9462L21.7971 22.0065L21.7669 21.965" fill="white"/>
<path d="M21.6848 21.9462L21.7678 22.0065L21.7979 21.965" fill="white"/>
<path d="M21.685 21.9462L21.7875 21.9462L21.7875 21.9975" fill="white"/>
<path d="M21.8428 22.0609L21.8111 21.9634L21.7623 21.9792" fill="white"/>
<path d="M21.8429 22.0609L21.7599 22.0006L21.7901 21.9591" fill="white"/>
<path d="M21.7222 22.0609L21.8052 22.0006L21.775 21.9592" fill="white"/>
<path d="M21.7223 22.0609L21.754 21.9634L21.8027 21.9792" fill="white"/>
<path d="M18.6323 20.0183L18.5927 20.1403L18.6537 20.1601" fill="white"/>
<path d="M18.6324 20.0183L18.672 20.1403L18.6111 20.1601" fill="white"/>
<path d="M18.7544 20.107L18.6262 20.107L18.6262 20.171" fill="white"/>
<path d="M18.7544 20.1069L18.6507 20.1823L18.613 20.1304" fill="white"/>
<path d="M18.5105 20.1069L18.6142 20.1823L18.6519 20.1304" fill="white"/>
<path d="M18.5105 20.1069L18.6387 20.1069L18.6387 20.171" fill="white"/>
<path d="M18.7078 20.2502L18.6681 20.1283L18.6072 20.1481" fill="white"/>
<path d="M18.7076 20.2502L18.6039 20.1749L18.6415 20.123" fill="white"/>
<path d="M18.5571 20.2502L18.6608 20.1749L18.6232 20.123" fill="white"/>
<path d="M18.5569 20.2502L18.5966 20.1283L18.6575 20.1481" fill="white"/>
<path d="M20.9768 19.7168L20.9451 19.8143L20.9939 19.8301" fill="white"/>
<path d="M20.9768 19.7168L21.0085 19.8143L20.9597 19.8301" fill="white"/>
<path d="M21.0742 19.7876L20.9717 19.7876L20.9717 19.8389" fill="white"/>
<path d="M21.0744 19.7876L20.9914 19.8479L20.9613 19.8064" fill="white"/>
<path d="M20.8792 19.7876L20.9621 19.8479L20.9923 19.8064" fill="white"/>
<path d="M20.8793 19.7876L20.9819 19.7876L20.9819 19.8389" fill="white"/>
<path d="M21.0371 19.9023L21.0054 19.8048L20.9567 19.8206" fill="white"/>
<path d="M21.0372 19.9023L20.9543 19.842L20.9844 19.8005" fill="white"/>
<path d="M20.9165 19.9023L20.9995 19.842L20.9693 19.8005" fill="white"/>
<path d="M20.9166 19.9023L20.9483 19.8048L20.9971 19.8206" fill="white"/>
<path d="M20 21.4578L19.9525 21.6041L20.0256 21.6279" fill="white"/>
<path d="M20 21.4578L20.0475 21.6041L19.9744 21.6279" fill="white"/>
<path d="M20.1462 21.5641L19.9924 21.5641L19.9924 21.641" fill="white"/>
<path d="M20.1463 21.5641L20.0219 21.6545L19.9767 21.5923" fill="white"/>
<path d="M19.8535 21.5641L19.978 21.6545L20.0232 21.5923" fill="white"/>
<path d="M19.8536 21.5641L20.0074 21.5641L20.0074 21.641" fill="white"/>
<path d="M20.0901 21.7361L20.0425 21.5898L19.9694 21.6136" fill="white"/>
<path d="M20.0901 21.7361L19.9657 21.6457L20.0109 21.5835" fill="white"/>
<path d="M19.9094 21.7361L20.0339 21.6457L19.9887 21.5834" fill="white"/>
<path d="M19.9095 21.7361L19.957 21.5898L20.0301 21.6135" fill="white"/>
<path d="M20.4148 20.7704L20.3752 20.8923L20.4361 20.9121" fill="white"/>
<path d="M20.4149 20.7704L20.4545 20.8923L20.3936 20.9121" fill="white"/>
<path d="M20.5369 20.859L20.4087 20.859L20.4087 20.9231" fill="white"/>
<path d="M20.5369 20.859L20.4332 20.9343L20.3955 20.8825" fill="white"/>
<path d="M20.293 20.859L20.3967 20.9343L20.4344 20.8825" fill="white"/>
<path d="M20.293 20.859L20.4212 20.859L20.4212 20.9231" fill="white"/>
<path d="M20.4905 21.0023L20.4509 20.8804L20.3899 20.9002" fill="white"/>
<path d="M20.4903 21.0023L20.3866 20.927L20.4243 20.8751" fill="white"/>
<path d="M20.3396 21.0023L20.4433 20.927L20.4056 20.8751" fill="white"/>
<path d="M20.3394 21.0023L20.379 20.8804L20.44 20.9002" fill="white"/>
<path d="M19.9998 20.4481L19.9601 20.57L20.0211 20.5898" fill="white"/>
<path d="M19.9999 20.4481L20.0395 20.57L19.9785 20.5898" fill="white"/>
<path d="M20.1218 20.5367L19.9936 20.5367L19.9936 20.6008" fill="white"/>
<path d="M20.1218 20.5367L20.0181 20.612L19.9804 20.5601" fill="white"/>
<path d="M19.8779 20.5367L19.9817 20.612L20.0193 20.5602" fill="white"/>
<path d="M19.8779 20.5366L20.0061 20.5367L20.0061 20.6007" fill="white"/>
<path d="M20.0752 20.68L20.0356 20.5581L19.9746 20.5779" fill="white"/>
<path d="M20.075 20.68L19.9713 20.6046L20.009 20.5528" fill="white"/>
<path d="M19.9246 20.68L20.0283 20.6046L19.9906 20.5528" fill="white"/>
<path d="M19.9244 20.68L19.964 20.5581L20.025 20.5779" fill="white"/>
<path d="M19.6387 20.7961L19.607 20.8936L19.6558 20.9094" fill="white"/>
<path d="M19.6387 20.7961L19.6703 20.8936L19.6216 20.9094" fill="white"/>
<path d="M19.7361 20.8669L19.6335 20.8669L19.6335 20.9182" fill="white"/>
<path d="M19.736 20.8669L19.653 20.9272L19.6229 20.8857" fill="white"/>
<path d="M19.541 20.8669L19.624 20.9271L19.6541 20.8856" fill="white"/>
<path d="M19.5409 20.8669L19.6435 20.8669L19.6435 20.9182" fill="white"/>
<path d="M19.699 20.9816L19.6673 20.884L19.6185 20.8999" fill="white"/>
<path d="M19.6991 20.9816L19.6161 20.9213L19.6462 20.8798" fill="white"/>
<path d="M19.5784 20.9816L19.6613 20.9213L19.6312 20.8798" fill="white"/>
<path d="M19.5785 20.9816L19.6102 20.8841L19.6589 20.8999" fill="white"/>
<path d="M19.8191 21.0744L19.7965 21.1441L19.8313 21.1554" fill="white"/>
<path d="M19.8191 21.0744L19.8417 21.1441L19.8069 21.1554" fill="white"/>
<path d="M19.8889 21.1251L19.8157 21.1251L19.8157 21.1617" fill="white"/>
<path d="M19.8888 21.1251L19.8295 21.1681L19.808 21.1385" fill="white"/>
<path d="M19.7495 21.125L19.8088 21.1681L19.8303 21.1385" fill="white"/>
<path d="M19.7494 21.125L19.8226 21.125L19.8226 21.1616" fill="white"/>
<path d="M19.8621 21.2069L19.8394 21.1373L19.8046 21.1486" fill="white"/>
<path d="M19.862 21.2069L19.8027 21.1639L19.8242 21.1343" fill="white"/>
<path d="M19.7761 21.207L19.8354 21.1639L19.8139 21.1343" fill="white"/>
<path d="M19.776 21.207L19.7987 21.1373L19.8335 21.1486" fill="white"/>
<path d="M21.0742 22.2893L21.0346 22.4112L21.0956 22.431" fill="white"/>
<path d="M21.0743 22.2893L21.114 22.4112L21.053 22.431" fill="white"/>
<path d="M21.1963 22.3779L21.0681 22.3779L21.0681 22.442" fill="white"/>
<path d="M21.1963 22.3778L21.0926 22.4532L21.0549 22.4013" fill="white"/>
<path d="M20.9524 22.3778L21.0561 22.4532L21.0938 22.4013" fill="white"/>
<path d="M20.9524 22.3778L21.0806 22.3778L21.0806 22.4419" fill="white"/>
<path d="M21.1499 22.5212L21.1103 22.3993L21.0493 22.4191" fill="white"/>
<path d="M21.1497 22.5212L21.046 22.4458L21.0837 22.394" fill="white"/>
<path d="M20.999 22.5212L21.1027 22.4458L21.0651 22.394" fill="white"/>
<path d="M20.9988 22.5212L21.0385 22.3993L21.0994 22.4191" fill="white"/>
<path d="M21.3821 21.9975L21.3504 22.095L21.3992 22.1109" fill="white"/>
<path d="M21.3821 21.9975L21.4138 22.095L21.365 22.1109" fill="white"/>
<path d="M21.4795 22.0683L21.3769 22.0683L21.3769 22.1196" fill="white"/>
<path d="M21.4796 22.0683L21.3967 22.1286L21.3665 22.0871" fill="white"/>
<path d="M21.2844 22.0683L21.3674 22.1286L21.3976 22.0871" fill="white"/>
<path d="M21.2843 22.0684L21.3869 22.0684L21.3869 22.1196" fill="white"/>
<path d="M21.4424 22.183L21.4107 22.0855L21.3619 22.1013" fill="white"/>
<path d="M21.4422 22.183L21.3593 22.1227L21.3894 22.0812" fill="white"/>
<path d="M21.3218 22.183L21.4048 22.1227L21.3746 22.0813" fill="white"/>
<path d="M21.3219 22.183L21.3536 22.0855L21.4023 22.1013" fill="white"/>
<path d="M20.7913 21.9095L20.7596 22.0071L20.8083 22.0229" fill="white"/>
<path d="M20.7913 21.9095L20.823 22.0071L20.7742 22.0229" fill="white"/>
<path d="M20.8887 21.9804L20.7861 21.9804L20.7861 22.0317" fill="white"/>
<path d="M20.8888 21.9804L20.8059 22.0407L20.7757 21.9992" fill="white"/>
<path d="M20.6936 21.9804L20.7766 22.0407L20.8067 21.9992" fill="white"/>
<path d="M20.6935 21.9804L20.7961 21.9804L20.7961 22.0317" fill="white"/>
<path d="M20.8513 22.0951L20.8196 21.9975L20.7709 22.0134" fill="white"/>
<path d="M20.8514 22.0951L20.7685 22.0348L20.7986 21.9933" fill="white"/>
<path d="M20.731 22.0951L20.8139 22.0348L20.7838 21.9933" fill="white"/>
<path d="M20.7311 22.0951L20.7627 21.9975L20.8115 22.0134" fill="white"/>
<path d="M18.5593 21.7508L18.5118 21.8971L18.5849 21.9209" fill="white"/>
<path d="M18.5593 21.7508L18.6068 21.8971L18.5337 21.9209" fill="white"/>
<path d="M18.7056 21.8571L18.5517 21.8571L18.5517 21.9341" fill="white"/>
<path d="M18.7057 21.8571L18.5812 21.9475L18.536 21.8853" fill="white"/>
<path d="M18.4128 21.8571L18.5373 21.9475L18.5825 21.8853" fill="white"/>
<path d="M18.4129 21.8571L18.5668 21.8571L18.5668 21.9341" fill="white"/>
<path d="M18.6497 22.0291L18.6021 21.8828L18.529 21.9066" fill="white"/>
<path d="M18.6494 22.0291L18.525 21.9387L18.5702 21.8765" fill="white"/>
<path d="M18.4688 22.0291L18.5932 21.9387L18.548 21.8765" fill="white"/>
<path d="M18.4688 22.0291L18.5163 21.8828L18.5895 21.9066" fill="white"/>
<path d="M20 22.7569L19.9841 22.8056L20.0085 22.8136" fill="white"/>
<path d="M20 22.7569L20.0158 22.8056L19.9915 22.8136" fill="white"/>
<path d="M20.0488 22.7923L19.9976 22.7923L19.9976 22.818" fill="white"/>
<path d="M20.0488 22.7923L20.0073 22.8225L19.9922 22.8017" fill="white"/>
<path d="M19.9512 22.7923L19.9927 22.8224L20.0077 22.8017" fill="white"/>
<path d="M19.9511 22.7923L20.0024 22.7923L20.0024 22.818" fill="white"/>
<path d="M20.03 22.8496L20.0142 22.8009L19.9898 22.8088" fill="white"/>
<path d="M20.0302 22.8497L19.9887 22.8195L20.0038 22.7988" fill="white"/>
<path d="M19.97 22.8496L20.0115 22.8195L19.9964 22.7987" fill="white"/>
<path d="M19.9699 22.8496L19.9857 22.8009L20.0101 22.8088" fill="white"/>
</svg>
