<svg width="40" height="40" viewBox="0 0 40 40" fill="none" xmlns="http://www.w3.org/2000/svg">
<path d="M0 8C0 3.58172 3.58172 0 8 0H32C36.4183 0 40 3.58172 40 8V32C40 36.4183 36.4183 40 32 40H8C3.58172 40 0 36.4183 0 32V8Z" fill="#F0F3F5"/>
<path d="M25.5273 20.394C25.1415 19.9133 24.5593 19.5831 23.7807 19.4037C24.7722 18.9165 25.2078 18.0895 25.0882 16.9227C25.0482 16.4996 24.9269 16.1329 24.7238 15.8221C24.5207 15.5112 24.2465 15.2613 23.9003 15.0722C23.5544 14.8829 23.1781 14.7388 22.7725 14.6394C22.3667 14.5401 21.9008 14.4679 21.3752 14.4231V12H19.8384V14.3558C19.5723 14.3558 19.1664 14.3622 18.6209 14.375V12H17.0838V14.4231C16.8642 14.4296 16.5416 14.4328 16.1158 14.4328L14 14.4231V16.0001H15.1077C15.6134 16.0001 15.9095 16.2181 15.996 16.6539V19.4136C16.0626 19.4136 16.1158 19.4169 16.1557 19.4233H15.996V23.2886C15.9428 23.6155 15.7499 23.779 15.4172 23.779H14.3095L14.0001 25.5387H15.9961C16.1226 25.5387 16.3054 25.5403 16.5451 25.5432C16.7846 25.5465 16.9641 25.5481 17.0839 25.5481V28H18.6212V25.5769C18.9006 25.5835 19.3064 25.5866 19.8387 25.5866V28H21.3755V25.5481C21.9212 25.5225 22.4053 25.4747 22.8276 25.4039C23.2501 25.3331 23.6544 25.2227 24.0402 25.072C24.426 24.9215 24.7486 24.7338 25.0081 24.5095C25.2677 24.2853 25.482 23.9999 25.652 23.6537C25.8214 23.3075 25.9297 22.9068 25.9761 22.4516C26.0629 21.5608 25.9132 20.8748 25.5273 20.394ZM19.045 16.1007C19.2614 16.0974 19.4409 16.0943 19.584 16.091C19.727 16.0879 19.92 16.0959 20.1629 16.1151C20.4058 16.1343 20.6104 16.16 20.7766 16.192C20.9429 16.224 21.1261 16.2769 21.3255 16.3507C21.5253 16.4243 21.6848 16.5141 21.8045 16.6198C21.9243 16.7256 22.0258 16.8603 22.1088 17.0238C22.1921 17.1872 22.2337 17.3747 22.2337 17.5862C22.2337 17.7657 22.2038 17.9292 22.144 18.0767C22.0843 18.2241 21.9942 18.3476 21.8746 18.4469C21.7549 18.5463 21.6316 18.6329 21.5052 18.7066C21.3789 18.7802 21.2174 18.8396 21.0212 18.8844C20.825 18.9293 20.6537 18.9646 20.5074 18.9902C20.361 19.0158 20.178 19.0335 19.9585 19.0431C19.7388 19.0526 19.5724 19.0592 19.4594 19.0623C19.3462 19.0655 19.1916 19.0655 18.9952 19.0623C18.7988 19.0592 18.6842 19.0575 18.6509 19.0575V16.1055C18.6974 16.1056 18.8288 16.104 19.045 16.1007ZM22.8476 22.6536C22.7843 22.8011 22.7029 22.9294 22.6031 23.0385C22.5032 23.1473 22.3718 23.2435 22.2088 23.3267C22.0459 23.4102 21.8878 23.4774 21.7349 23.5287C21.5818 23.5802 21.397 23.6248 21.181 23.6634C20.9645 23.7019 20.775 23.729 20.6118 23.7451C20.4489 23.7612 20.2544 23.7739 20.028 23.7836C19.8019 23.7931 19.6255 23.7979 19.4991 23.7979C19.3727 23.7979 19.213 23.7962 19.02 23.7931C18.8269 23.7901 18.704 23.7884 18.6507 23.7884V20.5383C18.7039 20.5383 18.8619 20.5351 19.1248 20.5286C19.3877 20.5221 19.6021 20.5191 19.7685 20.5191C19.9348 20.5191 20.1644 20.5286 20.4573 20.548C20.7499 20.5671 20.9961 20.5958 21.1959 20.6343C21.3954 20.6728 21.6131 20.732 21.8495 20.8122C22.0857 20.8923 22.277 20.99 22.4235 21.1054C22.5699 21.221 22.6929 21.3682 22.7926 21.5478C22.8927 21.7272 22.9425 21.9324 22.9425 22.1632C22.9425 22.3429 22.9109 22.5061 22.8476 22.6536Z" fill="#F5B300"/>
</svg>
