<svg width="40" height="40" viewBox="0 0 40 40" fill="none" xmlns="http://www.w3.org/2000/svg">
<path d="M0 20C0 8.95431 8.95431 0 20 0V0C31.0457 0 40 8.95431 40 20V20C40 31.0457 31.0457 40 20 40V40C8.95431 40 0 31.0457 0 20V20Z" fill="#F0F3F5"/>
<mask id="mask0_319_30387" style="mask-type:alpha" maskUnits="userSpaceOnUse" x="11" y="11" width="18" height="18">
<path d="M19.9999 28.8783C24.8801 28.8783 28.8363 24.9122 28.8363 20.0198C28.8363 15.1273 24.8801 11.1612 19.9999 11.1612C15.1197 11.1612 11.1636 15.1273 11.1636 20.0198C11.1636 24.9122 15.1197 28.8783 19.9999 28.8783Z" fill="white"/>
</mask>
<g mask="url(#mask0_319_30387)">
<mask id="mask1_319_30387" style="mask-type:alpha" maskUnits="userSpaceOnUse" x="11" y="11" width="18" height="18">
<path d="M19.9999 28.8783C24.8801 28.8783 28.8363 24.9122 28.8363 20.0198C28.8363 15.1273 24.8801 11.1612 19.9999 11.1612C15.1197 11.1612 11.1636 15.1273 11.1636 20.0198C11.1636 24.9122 15.1197 28.8783 19.9999 28.8783Z" fill="white"/>
</mask>
<g mask="url(#mask1_319_30387)">
<path fill-rule="evenodd" clip-rule="evenodd" d="M11.1636 11.1612H42.0909V28.8783H11.1636V11.1612Z" fill="#CB2127"/>
<path fill-rule="evenodd" clip-rule="evenodd" d="M14.2177 17.8051L14.7343 16.1151L13.3728 15.0659L15.0572 15.0602L15.5846 13.3758L16.1066 15.0602L17.791 15.0659L16.4295 16.1151L16.9461 17.8051L15.5846 16.7616L14.2177 17.8051Z" fill="#F7DE28"/>
<path fill-rule="evenodd" clip-rule="evenodd" d="M18.9945 18.1395L19.802 18.4517L20.3581 17.8051L20.2971 18.6523L21.1046 18.9719L20.2591 19.18L20.1981 20.0198L19.7334 19.3063L18.8955 19.507L19.4516 18.853L18.9945 18.1395Z" fill="#F7DE28"/>
<path fill-rule="evenodd" clip-rule="evenodd" d="M23.3138 14.9844L22.4723 14.8423L22.0665 15.5905L21.9463 14.745L21.1047 14.5954L21.8712 14.2213L21.7509 13.3758L22.352 13.9893L23.1185 13.6152L22.7202 14.3709L23.3138 14.9844Z" fill="#F7DE28"/>
<path fill-rule="evenodd" clip-rule="evenodd" d="M21.5273 18.9124L21.7867 18.0702L21.1047 17.5478H21.9498L22.2093 16.6978L22.4687 17.5478H23.3138L22.6318 18.0702L22.8913 18.9124L22.2093 18.3978L21.5273 18.9124Z" fill="#F7DE28"/>
<path fill-rule="evenodd" clip-rule="evenodd" d="M19.0614 12.5369L19.8455 12.8874L20.4336 12.2685L20.328 13.1111L21.1046 13.4765L20.2602 13.6405L20.1546 14.4831L19.7399 13.7375L18.8955 13.9015L19.4761 13.2751L19.0614 12.5369Z" fill="#F7DE28"/>
</g>
</g>
</svg>
