<svg width="40" height="40" viewBox="0 0 40 40" fill="none" xmlns="http://www.w3.org/2000/svg">
<path d="M0 8C0 3.58172 3.58172 0 8 0H32C36.4183 0 40 3.58172 40 8V32C40 36.4183 36.4183 40 32 40H8C3.58172 40 0 36.4183 0 32V8Z" fill="#F0F3F5"/>
<path d="M19.9982 11L19.8672 11.4102V23.3122L19.9982 23.4326L25.9963 20.1669L19.9982 11Z" fill="#62688F"/>
<path d="M19.9981 11L14 20.1669L19.9981 23.4327V17.6558V11Z" fill="#62688F"/>
<path d="M19.9984 24.4787L19.9246 24.5616V28.8014L19.9984 29L26.0001 21.2147L19.9984 24.4787Z" fill="#62688F"/>
<path d="M19.9981 28.9999V24.4786L14 21.2146L19.9981 28.9999Z" fill="#62688F"/>
<path d="M19.9983 23.4326L25.9963 20.167L19.9983 17.6558V23.4326Z" fill="#62688F"/>
<path d="M14 20.167L19.998 23.4326V17.6558L14 20.167Z" fill="#62688F"/>
</svg>
