<?xml version="1.0" encoding="UTF-8"?>
<svg width="42px" height="42px" viewBox="0 0 42 42" version="1.1" xmlns="http://www.w3.org/2000/svg" xmlns:xlink="http://www.w3.org/1999/xlink">
    <!-- Generator: Sketch 52.6 (67491) - http://www.bohemiancoding.com/sketch -->
    <title>Euro</title>
    <desc>Created with Sketch.</desc>
    <defs>
        <rect id="path-1" x="0" y="0" width="38" height="38" rx="19"></rect>
        <filter x="-46.1%" y="-40.8%" width="192.1%" height="192.1%" filterUnits="objectBoundingBox" id="filter-2">
            <feOffset dx="0" dy="2" in="SourceAlpha" result="shadowOffsetOuter1"></feOffset>
            <feGaussianBlur stdDeviation="5.5" in="shadowOffsetOuter1" result="shadowBlurOuter1"></feGaussianBlur>
            <feColorMatrix values="0 0 0 0 0   0 0 0 0 0   0 0 0 0 0  0 0 0 0.05 0" type="matrix" in="shadowBlurOuter1"></feColorMatrix>
        </filter>
        <circle id="path-3" cx="9" cy="9" r="9"></circle>
    </defs>
    <g id="Euro" stroke="none" stroke-width="1" fill="none" fill-rule="evenodd">
        <g id="euro" transform="translate(2.000000, 2.000000)">
            <g id="Rectangle-11-Copy">
                <use fill="black" fill-opacity="1" filter="url(#filter-2)" xlink:href="#path-1"></use>
                <use fill="#F0F3F5" fill-rule="evenodd" xlink:href="#path-1"></use>
            </g>
            <g transform="translate(10.000000, 10.000000)">
                <mask id="mask-4" fill="white">
                    <use xlink:href="#path-3"></use>
                </mask>
                <circle stroke-opacity="0.3" stroke="#4A4A4A" stroke-width="0.5" cx="9" cy="9" r="9.25"></circle>
                <g id="european-union" mask="url(#mask-4)">
                    <path d="M8.99373418,0 L8.99373418,17.9877342 C13.9610886,17.9877342 17.9877342,13.9610506 17.9877342,8.994 C17.9877342,4.02653165 13.9610506,0 8.99373418,0 Z" id="Path" fill="#214391"></path>
                    <path d="M8.99373418,0 C4.02668354,0 0,4.02653165 0,8.994 C0,13.9610506 4.02668354,17.9877342 8.99373418,17.9877342 C13.9610506,17.9877342 13.9610506,0 8.99373418,0 Z" id="Path" fill="#2B479D"></path>
                    <g id="Group" transform="translate(1.670886, 1.556962)" fill="#F8D12E">
                        <polygon id="Path" points="7.30750633 0.00284810127 7.52688608 0.677962025 8.23693671 0.677962025 7.66253165 1.09518987 7.88191139 1.7703038 7.30750633 1.35281013 6.73321519 1.7703038 6.95263291 1.09518987 6.37803797 0.677962025 7.08808861 0.677962025"></polygon>
                        <polygon id="Path" points="7.30750633 12.7476076 7.52688608 13.4230253 8.23693671 13.4230253 7.66253165 13.8402532 7.88191139 14.5153291 7.30750633 14.0981392 6.73321519 14.5153291 6.95263291 13.8402532 6.37803797 13.4230253 7.08808861 13.4230253"></polygon>
                        <polygon id="Path" points="10.8053165 1.13240506 11.0245823 1.80767089 11.7346329 1.80767089 11.1601899 2.22516456 11.3796076 2.90027848 10.8053165 2.48278481 10.2309114 2.90027848 10.4502911 2.22516456 9.876 1.80767089 10.5860506 1.80767089"></polygon>
                        <polygon id="Path" points="13.1917975 3.48691139 13.4110633 4.16202532 14.1211139 4.16202532 13.5466709 4.57940506 13.7660886 5.25451899 13.1917975 4.83729114 12.6173544 5.25451899 12.8367722 4.57940506 12.2623291 4.16202532 12.9722278 4.16202532"></polygon>
                        <polygon id="Path" points="13.2486076 9.43568354 13.4678734 10.1110633 14.1778861 10.1110633 13.603481 10.5282911 13.8230127 11.2032532 13.2486076 10.7861772 12.6741646 11.2032532 12.8935823 10.5282911 12.3191392 10.1110633 13.0291899 10.1110633"></polygon>
                        <polygon id="Path" points="1.50968354 3.48691139 1.72894937 4.16202532 2.4388481 4.16202532 1.86455696 4.57940506 2.08382278 5.25451899 1.50968354 4.83729114 0.935278481 5.25451899 1.15465823 4.57940506 0.580367089 4.16202532 1.29041772 4.16202532"></polygon>
                        <polygon id="Path" points="13.7448987 6.32396203 13.9641646 6.99907595 14.6742152 6.99907595 14.0998101 7.4163038 14.3191899 8.09156962 13.7448987 7.67449367 13.1704937 8.09156962 13.3900253 7.4163038 12.8154684 6.99907595 13.5253671 6.99907595"></polygon>
                        <polygon id="Path" points="0.96721519 6.32396203 1.18648101 6.99907595 1.89637975 6.99907595 1.32197468 7.4163038 1.54150633 8.09156962 0.96721519 7.67449367 0.392772152 8.09156962 0.612189873 7.4163038 0.0377848101 6.99907595 0.747797468 6.99907595"></polygon>
                        <polygon id="Path" points="1.43270886 9.43568354 1.65197468 10.1110633 2.36187342 10.1110633 1.78762025 10.5282911 2.0068481 11.2032532 1.43270886 10.7861772 0.858303797 11.2032532 1.07768354 10.5282911 0.503278481 10.1110633 1.21332911 10.1110633"></polygon>
                        <polygon id="Path" points="10.9082658 11.8905949 11.1275316 12.5657089 11.8375823 12.5657089 11.2630253 12.9832025 11.482557 13.6583165 10.9082658 13.2410886 10.3337089 13.6583165 10.5532785 12.9832025 9.97883544 12.5657089 10.6888861 12.5657089"></polygon>
                        <polygon id="Path" points="3.92301266 1.13240506 4.14224051 1.80767089 4.85229114 1.80767089 4.27788608 2.22516456 4.49741772 2.90027848 3.92301266 2.48278481 3.34872152 2.90027848 3.56810127 2.22516456 2.9936962 1.80767089 3.70359494 1.80767089"></polygon>
                        <polygon id="Path" points="3.66398734 11.8474177 3.88336709 12.5228354 4.59341772 12.5228354 4.01901266 12.9399114 4.23839241 13.6150253 3.66398734 13.1980633 3.0896962 13.6150253 3.30907595 12.9399114 2.73467089 12.5228354 3.44456962 12.5228354"></polygon>
                    </g>
                </g>
            </g>
        </g>
    </g>
</svg>