<svg width="40" height="40" viewBox="0 0 40 40" fill="none" xmlns="http://www.w3.org/2000/svg">
<path d="M0 20C0 8.95431 8.95431 0 20 0V0C31.0457 0 40 8.95431 40 20V20C40 31.0457 31.0457 40 20 40V40C8.95431 40 0 31.0457 0 20V20Z" fill="#F0F3F5"/>
<path fillRule="evenodd" clipRule="evenodd" d="M19.9998 11V29C24.9705 29 28.9999 24.9706 28.9999 20.0001C28.9999 15.0293 24.9705 11 19.9998 11Z" fill="#214391"/>
<path fillRule="evenodd" clipRule="evenodd" d="M19.9999 11C15.0294 11 11 15.0293 11 20.0001C11 24.9706 15.0294 29 19.9999 29C24.9706 29 24.9706 11 19.9999 11Z" fill="#2B479D"/>
<path fillRule="evenodd" clipRule="evenodd" d="M19.9845 12.5609L20.2041 13.2365H20.9146L20.3398 13.654L20.5593 14.3295L19.9845 13.9118L19.4099 14.3295L19.6294 13.654L19.0544 13.2365H19.765L19.9845 12.5609Z" fill="#F8D12E"/>
<path fillRule="evenodd" clipRule="evenodd" d="M19.9845 25.3143L20.2041 25.9902H20.9146L20.3398 26.4077L20.5593 27.0833L19.9845 26.6658L19.4099 27.0833L19.6294 26.4077L19.0544 25.9902H19.765L19.9845 25.3143Z" fill="#F8D12E"/>
<path fillRule="evenodd" clipRule="evenodd" d="M23.4846 13.6912L23.7041 14.3669H24.4146L23.8398 14.7847L24.0593 15.4603L23.4846 15.0425L22.9098 15.4603L23.1294 14.7847L22.5547 14.3669H23.2652L23.4846 13.6912Z" fill="#F8D12E"/>
<path fillRule="evenodd" clipRule="evenodd" d="M25.873 16.0473L26.0924 16.7229H26.8029L26.2281 17.1406L26.4477 17.8161L25.873 17.3986L25.2981 17.8161L25.5177 17.1406L24.9429 16.7229H25.6533L25.873 16.0473Z" fill="#F8D12E"/>
<path fillRule="evenodd" clipRule="evenodd" d="M25.9296 22.0001L26.149 22.676H26.8595L26.2847 23.0935L26.5044 23.7689L25.9296 23.3516L25.3548 23.7689L25.5743 23.0935L24.9995 22.676H25.71L25.9296 22.0001Z" fill="#F8D12E"/>
<path fillRule="evenodd" clipRule="evenodd" d="M14.1826 16.0473L14.4021 16.7229H15.1124L14.5378 17.1406L14.7572 17.8161L14.1826 17.3986L13.6078 17.8161L13.8274 17.1406L13.2527 16.7229H13.9632L14.1826 16.0473Z" fill="#F8D12E"/>
<path fillRule="evenodd" clipRule="evenodd" d="M26.4262 18.8863L26.6456 19.5619H27.3561L26.7813 19.9794L27.0008 20.6551L26.4262 20.2378L25.8514 20.6551L26.071 19.9794L25.4961 19.5619H26.2065L26.4262 18.8863Z" fill="#F8D12E"/>
<path fillRule="evenodd" clipRule="evenodd" d="M13.64 18.8863L13.8594 19.5619H14.5698L13.995 19.9794L14.2147 20.6551L13.64 20.2378L13.0652 20.6551L13.2848 19.9794L12.71 19.5619H13.4205L13.64 18.8863Z" fill="#F8D12E"/>
<path fillRule="evenodd" clipRule="evenodd" d="M14.1058 22.0001L14.3253 22.676H15.0356L14.461 23.0935L14.6804 23.7689L14.1058 23.3516L13.531 23.7689L13.7506 23.0935L13.1758 22.676H13.8863L14.1058 22.0001Z" fill="#F8D12E"/>
<path fillRule="evenodd" clipRule="evenodd" d="M23.588 24.4567L23.8074 25.1323H24.518L23.943 25.5501L24.1627 26.2256L23.588 25.8081L23.0131 26.2256L23.2328 25.5501L22.658 25.1323H23.3685L23.588 24.4567Z" fill="#F8D12E"/>
<path fillRule="evenodd" clipRule="evenodd" d="M16.5977 13.6912L16.8171 14.3669H17.5276L16.9528 14.7847L17.1725 15.4603L16.5977 15.0425L16.023 15.4603L16.2425 14.7847L15.6677 14.3669H16.3781L16.5977 13.6912Z" fill="#F8D12E"/>
<path fillRule="evenodd" clipRule="evenodd" d="M16.3384 24.4135L16.5579 25.0894H17.2685L16.6937 25.5068L16.9132 26.1823L16.3384 25.7651L15.7637 26.1823L15.9832 25.5068L15.4084 25.0894H16.1188L16.3384 24.4135Z" fill="#F8D12E"/>
</svg>
