<svg width="40" height="40" viewBox="0 0 40 40" fill="none" xmlns="http://www.w3.org/2000/svg">
<path d="M0 20C0 8.95431 8.95431 0 20 0V0C31.0457 0 40 8.95431 40 20V20C40 31.0457 31.0457 40 20 40V40C8.95431 40 0 31.0457 0 20V20Z" fill="#F0F3F5"/>
<path d="M20 29C24.9706 29 29 24.9706 29 20C29 15.0294 24.9706 11 20 11C15.0294 11 11 15.0294 11 20C11 24.9706 15.0294 29 20 29Z" stroke="#4A4A4A" stroke-opacity="0.3" stroke-width="0.5"/>
<mask id="mask0_319_29879" style="mask-type:alpha" maskUnits="userSpaceOnUse" x="11" y="11" width="18" height="18">
<path d="M20 28.7273C24.8199 28.7273 28.7273 24.8199 28.7273 20C28.7273 15.1801 24.8199 11.2727 20 11.2727C15.18 11.2727 11.2727 15.1801 11.2727 20C11.2727 24.8199 15.18 28.7273 20 28.7273Z" fill="white"/>
</mask>
<g mask="url(#mask0_319_29879)">
<path fill-rule="evenodd" clip-rule="evenodd" d="M3.63672 11.2728H34.1822V28.7273H3.63672V11.2728Z" fill="white"/>
<path fill-rule="evenodd" clip-rule="evenodd" d="M20.0004 15.6364C22.4111 15.6364 24.364 17.5893 24.364 20.0001C24.364 22.4108 22.4111 24.3637 20.0004 24.3637C17.5896 24.3637 15.6367 22.4108 15.6367 20.0001C15.6367 17.5893 17.5896 15.6364 20.0004 15.6364Z" fill="#AD1F23"/>
</g>
</svg>
