<svg width="40" height="40" viewBox="0 0 40 40" fill="none" xmlns="http://www.w3.org/2000/svg">
<path d="M0 20C0 8.95431 8.95431 0 20 0V0C31.0457 0 40 8.95431 40 20V20C40 31.0457 31.0457 40 20 40V40C8.95431 40 0 31.0457 0 20V20Z" fill="#F0F3F5"/>
<mask id="mask0_319_30400" style="mask-type:alpha" maskUnits="userSpaceOnUse" x="11" y="11" width="18" height="18">
<path d="M19.9999 28.8783C24.8801 28.8783 28.8363 24.9122 28.8363 20.0198C28.8363 15.1273 24.8801 11.1612 19.9999 11.1612C15.1197 11.1612 11.1636 15.1273 11.1636 20.0198C11.1636 24.9122 15.1197 28.8783 19.9999 28.8783Z" fill="white"/>
</mask>
<g mask="url(#mask0_319_30400)">
<path fillRule="evenodd" clipRule="evenodd" d="M6.25464 11.0436H33.7455V28.7297H6.25464V11.0436Z" fill="white"/>
<path fillRule="evenodd" clipRule="evenodd" d="M23.8909 15.0694L24.4449 14.7141L25.4633 16.1846L24.9093 16.54L23.8909 15.0694Z" fill="#010101"/>
<path fillRule="evenodd" clipRule="evenodd" d="M25.0981 16.8043L25.6522 16.4489L26.6708 17.9194L26.1167 18.2748L25.0981 16.8043Z" fill="#010101"/>
<path fillRule="evenodd" clipRule="evenodd" d="M24.7258 14.5316L25.2798 14.1762L27.5043 17.3883L26.9503 17.7436L24.7258 14.5316Z" fill="#010101"/>
<path fillRule="evenodd" clipRule="evenodd" d="M25.5618 13.9983L26.1158 13.6429L27.1344 15.1134L26.5804 15.4688L25.5618 13.9983Z" fill="#010101"/>
<path fillRule="evenodd" clipRule="evenodd" d="M26.7632 15.7363L27.3172 15.3809L28.3358 16.8515L27.7818 17.2069L26.7632 15.7363Z" fill="#010101"/>
<path fillRule="evenodd" clipRule="evenodd" d="M13.3264 21.8445L13.8804 21.4891L16.1049 24.7011L15.5509 25.0565L13.3264 21.8445Z" fill="#010101"/>
<path fillRule="evenodd" clipRule="evenodd" d="M12.4971 22.38L13.0511 22.0246L14.0697 23.4952L13.5157 23.8506L12.4971 22.38Z" fill="#010101"/>
<path fillRule="evenodd" clipRule="evenodd" d="M13.7014 24.1223L14.2554 23.7668L15.274 25.2374L14.72 25.5928L13.7014 24.1223Z" fill="#010101"/>
<path fillRule="evenodd" clipRule="evenodd" d="M11.6592 22.9194L12.2132 22.5641L14.4376 25.7761L13.8836 26.1314L11.6592 22.9194Z" fill="#010101"/>
<path fillRule="evenodd" clipRule="evenodd" d="M13.3286 17.9218L15.553 14.7097L16.1071 15.0651L13.8826 18.2771L13.3286 17.9218Z" fill="#010101"/>
<path fillRule="evenodd" clipRule="evenodd" d="M12.4937 17.3841L14.7181 14.1721L15.2721 14.5275L13.0477 17.7395L12.4937 17.3841Z" fill="#010101"/>
<path fillRule="evenodd" clipRule="evenodd" d="M11.6602 16.8535L13.8846 13.6415L14.4386 13.9968L12.2142 17.2089L11.6602 16.8535Z" fill="#010101"/>
<path fillRule="evenodd" clipRule="evenodd" d="M23.8921 24.7024L24.9107 23.2319L25.4647 23.5873L24.4461 25.0579L23.8921 24.7024Z" fill="#010101"/>
<path fillRule="evenodd" clipRule="evenodd" d="M25.0955 22.9596L26.1139 21.489L26.6679 21.8444L25.6495 23.315L25.0955 22.9596Z" fill="#010101"/>
<path fillRule="evenodd" clipRule="evenodd" d="M24.7258 25.233L25.7444 23.7625L26.2984 24.1179L25.2798 25.5885L24.7258 25.233Z" fill="#010101"/>
<path fillRule="evenodd" clipRule="evenodd" d="M25.9316 23.4968L26.9502 22.0262L27.5042 22.3817L26.4856 23.8522L25.9316 23.4968Z" fill="#010101"/>
<path fillRule="evenodd" clipRule="evenodd" d="M25.5608 25.7708L26.5794 24.3003L27.1334 24.6557L26.1148 26.1262L25.5608 25.7708Z" fill="#010101"/>
<path fillRule="evenodd" clipRule="evenodd" d="M26.7622 24.0317L27.7808 22.5611L28.3348 22.9166L27.3162 24.3871L26.7622 24.0317Z" fill="#010101"/>
<path fillRule="evenodd" clipRule="evenodd" d="M16.7205 17.7447C16.6862 17.7816 16.6633 17.8185 16.6289 17.8555C16.6518 17.8185 16.6862 17.7816 16.7205 17.7447Z" fill="#B51E3A"/>
<path fillRule="evenodd" clipRule="evenodd" d="M22.2229 16.6751C20.3813 15.4917 17.8899 15.9723 16.6657 17.7447C16.0536 18.6335 16.3006 19.8272 17.2241 20.4215C18.1476 21.0106 19.3879 20.7729 20.0054 19.8841C20.6175 18.9953 21.8632 18.7576 22.7867 19.3467C23.7102 19.9358 23.9572 21.1346 23.3451 22.0234C24.564 20.251 24.0646 17.8532 22.2229 16.6751Z" fill="#B51E3A"/>
<path fillRule="evenodd" clipRule="evenodd" d="M16.6656 17.7447C16.0535 18.6335 16.3005 19.8272 17.2241 20.4215C18.1476 21.0106 19.3879 20.7729 20.0054 19.8841C20.6175 18.9953 21.8631 18.7576 22.7867 19.3466C23.7102 19.9357 23.9572 21.1346 23.3451 22.0234C22.1155 23.7959 19.6295 24.2764 17.7878 23.0931C15.9462 21.9097 15.4361 19.5172 16.6656 17.7447Z" fill="#273775"/>
</g>
<path d="M20 29C24.9706 29 29 24.9706 29 20C29 15.0294 24.9706 11 20 11C15.0294 11 11 15.0294 11 20C11 24.9706 15.0294 29 20 29Z" stroke="#4A4A4A" stroke-opacity="0.3" stroke-width="0.5"/>
</svg>
