<svg width="40" height="40" viewBox="0 0 40 40" fill="none" xmlns="http://www.w3.org/2000/svg">
<path d="M0 20C0 8.95431 8.95431 0 20 0V0C31.0457 0 40 8.95431 40 20V20C40 31.0457 31.0457 40 20 40V40C8.95431 40 0 31.0457 0 20V20Z" fill="#F0F3F5"/>
<mask id="mask0_319_29409" style="mask-type:alpha" maskUnits="userSpaceOnUse" x="11" y="11" width="18" height="18">
<path d="M20 29C24.9706 29 29 24.9706 29 20C29 15.0294 24.9706 11 20 11C15.0294 11 11 15.0294 11 20C11 24.9706 15.0294 29 20 29Z" fill="white"/>
</mask>
<g mask="url(#mask0_319_29409)">
<path d="M20 29.25C25.1086 29.25 29.25 25.1086 29.25 20C29.25 14.8914 25.1086 10.75 20 10.75C14.8914 10.75 10.75 14.8914 10.75 20C10.75 25.1086 14.8914 29.25 20 29.25Z" stroke="#4A4A4A" stroke-opacity="0.3" stroke-width="0.5"/>
<path d="M20 30.125C25.5919 30.125 30.125 25.5919 30.125 20C30.125 14.4081 25.5919 9.875 20 9.875C14.4081 9.875 9.875 14.4081 9.875 20C9.875 25.5919 14.4081 30.125 20 30.125Z" fill="#F0F0F0"/>
<path d="M19.3921 20.0109H30.125C30.125 19.1044 30.0012 18.2262 29.7707 17.3908H19.3921V20.0109Z" fill="#D80027"/>
<path d="M19.3921 14.7707H28.6153C27.9857 13.7674 27.1806 12.8806 26.242 12.1506H19.3921V14.7707Z" fill="#D80027"/>
<path d="M19.8392 30.0547C22.2599 30.0547 24.4849 29.2377 26.2419 27.8713H13.4365C15.1935 29.2377 17.4185 30.0547 19.8392 30.0547Z" fill="#D80027"/>
<path d="M11.0633 25.2511H28.6154C29.1209 24.4457 29.5129 23.5653 29.7707 22.631H9.90796C10.1658 23.5653 10.5578 24.4457 11.0633 25.2511Z" fill="#D80027"/>
<path d="M13.9612 11.6318H14.9864L14.0328 12.3246L14.3971 13.4456L13.4435 12.7528L12.4899 13.4456L12.8046 12.4772C11.965 13.1766 11.229 13.996 10.6226 14.909H10.9511L10.3441 15.35C10.2495 15.5078 10.1588 15.668 10.0719 15.8307L10.3617 16.7228L9.82095 16.3299C9.68652 16.6147 9.56356 16.9059 9.45304 17.2032L9.77239 18.1862H10.9511L9.99748 18.879L10.3617 20L9.40817 19.3072L8.83697 19.7222C8.77979 20.1818 8.75 20.6499 8.75 21.125H20C20 14.9118 20 14.1794 20 9.875C17.7776 9.875 15.7059 10.5197 13.9612 11.6318ZM14.3971 20L13.4435 19.3072L12.4899 20L12.8542 18.879L11.9006 18.1862H13.0793L13.4435 17.0652L13.8077 18.1862H14.9864L14.0328 18.879L14.3971 20ZM14.0328 15.6018L14.3971 16.7228L13.4435 16.03L12.4899 16.7228L12.8542 15.6018L11.9006 14.909H13.0793L13.4435 13.788L13.8077 14.909H14.9864L14.0328 15.6018ZM18.4324 20L17.4788 19.3072L16.5252 20L16.8895 18.879L15.9359 18.1862H17.1146L17.4788 17.0652L17.843 18.1862H19.0217L18.0681 18.879L18.4324 20ZM18.0681 15.6018L18.4324 16.7228L17.4788 16.03L16.5252 16.7228L16.8895 15.6018L15.9359 14.909H17.1146L17.4788 13.788L17.843 14.909H19.0217L18.0681 15.6018ZM18.0681 12.3246L18.4324 13.4456L17.4788 12.7528L16.5252 13.4456L16.8895 12.3246L15.9359 11.6318H17.1146L17.4788 10.5108L17.843 11.6318H19.0217L18.0681 12.3246Z" fill="#0052B4"/>
</g>
</svg>
