<?xml version="1.0" encoding="UTF-8"?>
<svg width="42px" height="42px" viewBox="0 0 42 42" version="1.1" xmlns="http://www.w3.org/2000/svg" xmlns:xlink="http://www.w3.org/1999/xlink">
    <!-- Generator: Sketch 52.6 (67491) - http://www.bohemiancoding.com/sketch -->
    <title>UDS</title>
    <desc>Created with Sketch.</desc>
    <defs>
        <rect id="path-1" x="0" y="0" width="38" height="38" rx="19"></rect>
        <filter x="-46.1%" y="-40.8%" width="192.1%" height="192.1%" filterUnits="objectBoundingBox" id="filter-2">
            <feOffset dx="0" dy="2" in="SourceAlpha" result="shadowOffsetOuter1"></feOffset>
            <feGaussianBlur stdDeviation="5.5" in="shadowOffsetOuter1" result="shadowBlurOuter1"></feGaussianBlur>
            <feColorMatrix values="0 0 0 0 0   0 0 0 0 0   0 0 0 0 0  0 0 0 0.05 0" type="matrix" in="shadowBlurOuter1"></feColorMatrix>
        </filter>
        <circle id="path-3" cx="9" cy="9" r="9"></circle>
    </defs>
    <g id="UDS" stroke="none" stroke-width="1" fill="none" fill-rule="evenodd">
        <g id="USD" transform="translate(2.000000, 2.000000)">
            <g id="Rectangle-11-Copy">
                <use fill="black" fill-opacity="1" filter="url(#filter-2)" xlink:href="#path-1"></use>
                <use fill="#F0F3F5" fill-rule="evenodd" xlink:href="#path-1"></use>
            </g>
            <g id="en-copy-2" transform="translate(10.000000, 10.000000)">
                <mask id="mask-4" fill="white">
                    <use xlink:href="#path-3"></use>
                </mask>
                <circle stroke-opacity="0.3" stroke="#4A4A4A" stroke-width="0.5" cx="9" cy="9" r="9.25"></circle>
                <g id="united-states" mask="url(#mask-4)">
                    <g transform="translate(-2.250000, -1.125000)">
                        <circle id="Oval" fill="#F0F0F0" fill-rule="nonzero" cx="11.25" cy="10.125" r="10.125"></circle>
                        <g id="Group" stroke-width="1" fill="none" fill-rule="evenodd" transform="translate(1.125000, 2.250000)">
                            <path d="M9.51709821,7.88592382 L20.25,7.88592382 C20.25,6.97939569 20.12625,6.1011941 19.8956652,5.26579621 L9.51709821,5.26579621 L9.51709821,7.88592382 Z" id="Shape" fill="#D80027" fill-rule="nonzero"></path>
                            <path d="M9.51709821,2.64570783 L18.7403304,2.64570783 C18.110692,1.64243 17.3056339,0.755636283 16.3669821,0.0255802106 L9.51709821,0.0255802106 L9.51709821,2.64570783 Z" id="Shape" fill="#D80027" fill-rule="nonzero"></path>
                            <path d="M9.96428571,17.9296875 C12.3850045,17.9296875 14.6099732,17.1126901 16.3669821,15.7462674 L3.56158929,15.7462674 C5.31859821,17.1126901 7.54356696,17.9296875 9.96428571,17.9296875 Z" id="Shape" fill="#D80027" fill-rule="nonzero"></path>
                            <path d="M1.18824107,13.1261398 L18.7403304,13.1261398 C19.245817,12.3207163 19.6378393,11.4403176 19.8956652,10.5060122 L0.03290625,10.5060122 C0.290732143,11.4403176 0.682754464,12.3207163 1.18824107,13.1261398 Z" id="Shape" fill="#D80027" fill-rule="nonzero"></path>
                        </g>
                        <path d="M5.21121094,1.7568457 L6.23641113,1.7568457 L5.28279785,2.44964355 L5.64706055,3.57064453 L4.69349121,2.87784668 L3.73992187,3.57064453 L4.05457031,2.60222168 C3.21495117,3.30161133 2.47904297,4.12101563 1.87259766,5.03402344 L2.20108887,5.03402344 L1.59407227,5.47501465 C1.49950195,5.63277832 1.40879883,5.79304688 1.321875,5.95568848 L1.61173828,6.84782227 L1.07094727,6.45490723 C0.936518555,6.7397168 0.81355957,7.03094238 0.703037109,7.32823242 L1.0223877,8.31120117 L2.20108887,8.31120117 L1.24747559,9.00399902 L1.61173828,10.125 L0.658168945,9.43220215 L0.0869677734,9.84722168 C0.0297949219,10.3068018 0,10.7749072 0,11.25 L11.25,11.25 C11.25,5.03683594 11.25,4.30435547 11.25,0 C9.02759766,0 6.95588379,0.644677734 5.21121094,1.7568457 Z M5.64706055,10.125 L4.69349121,9.43220215 L3.73992187,10.125 L4.10418457,9.00399902 L3.15057129,8.31120117 L4.32927246,8.31120117 L4.69349121,7.1902002 L5.05770996,8.31120117 L6.23641113,8.31120117 L5.28279785,9.00399902 L5.64706055,10.125 Z M5.28279785,5.72682129 L5.64706055,6.84782227 L4.69349121,6.15502441 L3.73992187,6.84782227 L4.10418457,5.72682129 L3.15057129,5.03402344 L4.32927246,5.03402344 L4.69349121,3.91302246 L5.05770996,5.03402344 L6.23641113,5.03402344 L5.28279785,5.72682129 Z M9.68238281,10.125 L8.72881348,9.43220215 L7.77524414,10.125 L8.13950684,9.00399902 L7.18589355,8.31120117 L8.36459473,8.31120117 L8.72881348,7.1902002 L9.09303223,8.31120117 L10.2717334,8.31120117 L9.31812012,9.00399902 L9.68238281,10.125 Z M9.31812012,5.72682129 L9.68238281,6.84782227 L8.72881348,6.15502441 L7.77524414,6.84782227 L8.13950684,5.72682129 L7.18589355,5.03402344 L8.36459473,5.03402344 L8.72881348,3.91302246 L9.09303223,5.03402344 L10.2717334,5.03402344 L9.31812012,5.72682129 Z M9.31812012,2.44964355 L9.68238281,3.57064453 L8.72881348,2.87784668 L7.77524414,3.57064453 L8.13950684,2.44964355 L7.18589355,1.7568457 L8.36459473,1.7568457 L8.72881348,0.635844727 L9.09303223,1.7568457 L10.2717334,1.7568457 L9.31812012,2.44964355 Z" id="Shape" fill="#0052B4" fill-rule="nonzero"></path>
                    </g>
                </g>
            </g>
        </g>
    </g>
</svg>