<?xml version="1.0" encoding="UTF-8"?>
<svg width="358px" height="193px" viewBox="0 0 358 193" version="1.1" xmlns="http://www.w3.org/2000/svg" xmlns:xlink="http://www.w3.org/1999/xlink">
    <!-- Generator: Sketch 55.2 (78181) - https://sketchapp.com -->
    <title>about-url.inline</title>
    <desc>Created with Sketch.</desc>
    <defs>
        <linearGradient x1="-9.07742215%" y1="46.4545323%" x2="126.688495%" y2="54.5434405%" id="linearGradient-1">
            <stop stopColor="#17D1AA" offset="0%"></stop>
            <stop stopColor="#1CB9B0" offset="22.74%"></stop>
            <stop stopColor="#297DC0" offset="70.39%"></stop>
            <stop stopColor="#3154CB" offset="100%"></stop>
        </linearGradient>
        <linearGradient x1="0.00851266809%" y1="49.9960344%" x2="99.978254%" y2="49.9960344%" id="linearGradient-2">
            <stop stopColor="#17D1AA" offset="0%"></stop>
            <stop stopColor="#1AC2AE" offset="6.594372%"></stop>
            <stop stopColor="#229BB8" offset="26.51%"></stop>
            <stop stopColor="#297CC0" offset="46.16%"></stop>
            <stop stopColor="#2D66C6" offset="65.25%"></stop>
            <stop stopColor="#3059CA" offset="83.49%"></stop>
            <stop stopColor="#3154CB" offset="100%"></stop>
        </linearGradient>
        <linearGradient x1="0.00851266809%" y1="49.8853092%" x2="99.978254%" y2="49.8853092%" id="linearGradient-3">
            <stop stopColor="#17D1AA" offset="0%"></stop>
            <stop stopColor="#1AC2AE" offset="6.594372%"></stop>
            <stop stopColor="#229BB8" offset="26.51%"></stop>
            <stop stopColor="#297CC0" offset="46.16%"></stop>
            <stop stopColor="#2D66C6" offset="65.25%"></stop>
            <stop stopColor="#3059CA" offset="83.49%"></stop>
            <stop stopColor="#3154CB" offset="100%"></stop>
        </linearGradient>
        <linearGradient x1="18.343486%" y1="43.0039432%" x2="180.164623%" y2="68.4053628%" id="linearGradient-4">
            <stop stopColor="#17D1AA" offset="0%"></stop>
            <stop stopColor="#1CB9B0" offset="22.74%"></stop>
            <stop stopColor="#297DC0" offset="70.39%"></stop>
            <stop stopColor="#3154CB" offset="100%"></stop>
        </linearGradient>
        <linearGradient x1="-70.3333213%" y1="46.5434783%" x2="42.7397334%" y2="50.1209194%" id="linearGradient-5">
            <stop stopColor="#17D1AA" offset="0%"></stop>
            <stop stopColor="#1CB9B0" offset="22.74%"></stop>
            <stop stopColor="#297DC0" offset="70.39%"></stop>
            <stop stopColor="#3154CB" offset="100%"></stop>
        </linearGradient>
        <linearGradient x1="0.0288027762%" y1="50.0177019%" x2="99.9779641%" y2="50.0177019%" id="linearGradient-6">
            <stop stopColor="#17D1AA" offset="0%"></stop>
            <stop stopColor="#1CB9B0" offset="22.74%"></stop>
            <stop stopColor="#297DC0" offset="70.39%"></stop>
            <stop stopColor="#3154CB" offset="100%"></stop>
        </linearGradient>
        <linearGradient x1="0.00184478372%" y1="49.9969306%" x2="100.030725%" y2="49.9969306%" id="linearGradient-7">
            <stop stopColor="#17D1AA" offset="0%"></stop>
            <stop stopColor="#1AC2AE" offset="6.594372%"></stop>
            <stop stopColor="#229BB8" offset="26.51%"></stop>
            <stop stopColor="#297CC0" offset="46.16%"></stop>
            <stop stopColor="#2D66C6" offset="65.25%"></stop>
            <stop stopColor="#3059CA" offset="83.49%"></stop>
            <stop stopColor="#3154CB" offset="100%"></stop>
        </linearGradient>
        <linearGradient x1="0.0282763407%" y1="19.0814015%" x2="99.9123218%" y2="80.9396623%" id="linearGradient-8">
            <stop stopColor="#17D1AA" offset="0%"></stop>
            <stop stopColor="#1CB9B0" offset="22.74%"></stop>
            <stop stopColor="#297DC0" offset="70.39%"></stop>
            <stop stopColor="#3154CB" offset="100%"></stop>
        </linearGradient>
        <linearGradient x1="0.231247072%" y1="19.1454416%" x2="99.8821553%" y2="80.9274382%" id="linearGradient-9">
            <stop stopColor="#17D1AA" offset="0%"></stop>
            <stop stopColor="#1CB9B0" offset="22.74%"></stop>
            <stop stopColor="#297DC0" offset="70.39%"></stop>
            <stop stopColor="#3154CB" offset="100%"></stop>
        </linearGradient>
    </defs>
    <g id="Design-1.7.1" stroke="none" stroke-width="1" fill="none" fillRule="evenodd">
        <g id="about-url" transform="translate(-541.000000, -292.000000)">
            <g id="popup-" transform="translate(384.000000, 200.000000)">
                <g id="about-url.inline" transform="translate(157.000000, 92.000000)">
                    <g id="Group" opacity="0.3" stroke="#1D45BA" stroke-width="0.5">
                        <path d="M0,62.24 L216.892626,185.728" id="Path"></path>
                        <path d="M68.7991007,28.512 L293.804676,156.608" id="Path"></path>
                        <path d="M144.198022,0.288 L357.935612,121.984" id="Path"></path>
                        <path d="M216.892626,7.552 L10.0124101,125.792" id="Path"></path>
                        <path d="M273.683273,40.16 L66.8030576,158.368" id="Path"></path>
                        <path d="M332.244604,73.76 L125.364388,191.968" id="Path"></path>
                    </g>
                    <path d="M117.367647,140 C116.823529,140 116.247405,139.872071 115.767301,139.584232 L82.6081315,120.522871 C82.2240484,120.298996 82,119.91521 82,119.46746 C82,119.01971 82.2240484,118.635924 82.6081315,118.412049 L119,97.431759 C119.992215,96.8560803 121.208478,96.8560803 122.200692,97.431759 L155.391869,116.49312 C155.775952,116.716995 156,117.100781 156,117.548531 C156,117.996281 155.775952,118.380067 155.391869,118.603942 L118.967993,139.55225 C118.487889,139.840089 117.943772,140 117.367647,140 Z M120.568339,98.071402 C120.216263,98.071402 119.83218,98.1673485 119.512111,98.3592414 L83.1202422,119.339531 C83.0882353,119.371514 83.0562284,119.403496 83.0562284,119.435478 C83.0562284,119.46746 83.0882353,119.499442 83.1202422,119.531424 L116.343426,138.592785 L116.343426,138.592785 C116.983564,138.976571 117.783737,138.976571 118.423875,138.592785 L154.815744,117.612495 C154.847751,117.580513 154.879758,117.548531 154.879758,117.516549 C154.879758,117.484567 154.847751,117.452585 154.815744,117.420602 L121.624567,98.3272592 C121.304498,98.1673485 120.952422,98.071402 120.568339,98.071402 Z" id="Shape" fill="url(#linearGradient-1)" fillRule="nonzero"></path>
                    <g id="Group" opacity="0.5" transform="translate(95.000000, 104.000000)">
                        <path d="M23.2692308,28.5811111 L0.705128205,15.4988889 C-0.192307692,14.9833333 -0.0961538462,14.0488889 0.961538462,13.4366667 L23.0128205,0.644444444 C24.0705128,0.0322222222 25.6730769,-0.0322222222 26.5705128,0.483333333 L49.1346154,13.5655556 C50.0320513,14.0811111 49.9358974,15.0155556 48.8782051,15.6277778 L26.8269231,28.42 C25.7692308,29.0644444 24.1666667,29.1288889 23.2692308,28.5811111 Z" id="Path" fill="url(#linearGradient-2)" opacity="0.66"></path>
                        <path d="M23.2692308,28.5811111 L0.705128205,15.4988889 C-0.192307692,14.9833333 -0.0961538462,14.0488889 0.961538462,13.4366667 L23.0128205,0.644444444 C24.0705128,0.0322222222 25.6730769,-0.0322222222 26.5705128,0.483333333 L49.1346154,13.5655556 C50.0320513,14.0811111 49.9358974,15.0155556 48.8782051,15.6277778 L26.8269231,28.42 C25.7692308,29.0644444 24.1666667,29.1288889 23.2692308,28.5811111 Z" id="Path" fill="url(#linearGradient-2)" opacity="0.25"></path>
                        <path d="M0.705128205,15.4988889 L2.69230769,16.6588889 L23.0128205,4.86555556 C24.0705128,4.25333333 25.6730769,4.18888889 26.5705128,4.70444444 L47.1474359,16.6588889 L48.8782051,15.66 C49.9358974,15.0477778 50.0320513,14.1133333 49.1346154,13.5977778 L26.5705128,0.515555556 C25.6730769,-2.77555756e-17 24.0705128,0.0644444444 23.0128205,0.676666667 L0.961538462,13.4366667 C-0.0961538462,14.0488889 -0.192307692,14.9833333 0.705128205,15.4988889 Z" id="Path" fill="url(#linearGradient-3)"></path>
                    </g>
                    <g id="Group" transform="translate(84.000000, 68.000000)">
                        <path d="M2.69932584,31.373913 C2.05662921,31.0231884 1.67101124,30.3855072 1.67101124,29.6521739 C1.67101124,28.9188406 2.05662921,28.2811594 2.66719101,27.9304348 L23.4905618,16.6115942 C25.2258427,15.6869565 26.2862921,13.8695652 26.2862921,11.9246377 L26.2862921,0.031884058 L24.6795506,0.031884058 L24.6795506,11.9246377 C24.6795506,13.2956522 23.9404494,14.5391304 22.7193258,15.2086957 L1.89595506,26.5275362 C0.739101124,27.1652174 0.0642696629,28.3449275 0.0642696629,29.6521739 C0.0642696629,30.9594203 0.771235955,32.1391304 1.92808989,32.7768116 L15.9710112,40.4608696 L17.5777528,39.5362319 L2.69932584,31.373913 Z" id="Path" fill="url(#linearGradient-4)"></path>
                        <path d="M115.749663,38.8985507 C113.693034,37.8463768 111.315056,37.9101449 109.322697,39.057971 L66.7761798,63.5768116 C65.2337079,64.4695652 63.305618,64.4695652 61.7631461,63.6405797 L55.2397753,60.0695652 L53.6330337,60.9942029 L61.0240449,65.0434783 C62.0202247,65.5855072 63.1449438,65.8724638 64.2375281,65.8724638 C65.394382,65.8724638 66.5833708,65.5855072 67.6116854,64.9797101 L110.158202,40.4608696 C111.668539,39.6 113.500225,39.5362319 115.042697,40.3333333 L142.100225,54.1391304 L142.839326,52.7362319 L115.749663,38.8985507 Z" id="Path" fill="url(#linearGradient-5)"></path>
                    </g>
                    <g id="_x36__29_" transform="translate(205.000000, 61.000000)">
                        <g id="XMLID_315_">
                            <path d="M57.606383,3.03346614 L54.0957447,1.00039841 C53.8404255,0.806772908 52.8510638,0.484063745 52.5319149,0.387250996 L52.5319149,0.387250996 L52.5319149,0.387250996 C51.5744681,0.0645418327 50.4574468,0.258167331 49.212766,0.96812749 L5.96808511,26.3976096 C2.71276596,28.3015936 0.0957446809,33.4326693 0.0957446809,37.8215139 L0.223404255,73.2227092 C0.223404255,75.8689243 1.18085106,77.6438247 2.64893617,78.2247012 L6.67021277,80.3545817 L9.82978723,75.5462151 L49.3723404,52.2788845 C52.6276596,50.3749004 55.2446809,45.2438247 55.2446809,40.8549801 L55.1170213,6.7123506 L57.606383,3.03346614 Z" id="XMLID_316_" fill="#E1F2FF"></path>
                            <path d="M59.5531915,7.77729084 C59.5531915,3.38844622 56.8723404,1.35537849 53.6170213,3.29163347 L10.3723404,28.7211155 C7.11702128,30.6250996 4.5,35.7561753 4.5,40.1450199 L4.62765957,75.5462151 C4.62765957,79.9350598 7.30851064,81.9681275 10.5638298,80.0318725 L53.8085106,54.6023904 C57.0638298,52.6984064 59.6808511,47.5673307 59.6808511,43.1784861 L59.5531915,7.77729084 Z" id="Path" fill="url(#linearGradient-6)"></path>
                        </g>
                    </g>
                    <ellipse id="Oval" fill="#C7ECFF" transform="translate(238.495820, 103.067686) rotate(-53.432609) translate(-238.495820, -103.067686) " cx="238.49582" cy="103.067686" rx="19.5310663" ry="10.7627079"></ellipse>
                    <path d="M237.67203,110.930047 C237.476457,111.028183 237.280884,111.028183 237.117906,110.897335 L233.27163,107.985959 C232.945674,107.756974 232.913079,107.135445 233.173843,106.644763 C233.434607,106.154082 233.890945,105.925097 234.216901,106.186794 L237.443861,108.640201 L243.669613,94.6394264 C243.897782,94.1160329 244.35412,93.8543362 244.680076,94.0833208 C245.006031,94.2795934 245.103818,94.868411 244.875649,95.3918044 L238.193559,110.406654 C238.063177,110.602926 237.900199,110.831911 237.67203,110.930047 C237.67203,110.930047 237.67203,110.930047 237.67203,110.930047 Z" id="Path" fill="#2C30D1"></path>
                    <g id="_x36__28_" transform="translate(87.000000, 14.000000)">
                        <g id="XMLID_313_">
                            <path d="M2.00365854,2.40825688 L5.10609756,0.642201835 C5.33231707,0.481651376 6.20487805,0.19266055 6.46341463,0.128440367 L6.46341463,0.128440367 L6.46341463,0.128440367 C7.30365854,-0.128440367 8.3054878,0 9.37195122,0.642201835 L47.6030488,22.733945 C50.4792683,24.4036697 52.8060976,28.8348624 52.8060976,32.6559633 L52.7091463,63.4174312 C52.7091463,65.6972477 51.8365854,67.2385321 50.5439024,67.7522936 L46.9890244,69.5825688 L44.2097561,65.4082569 L9.24268293,45.1788991 C6.36646341,43.5091743 4.03963415,39.0779817 4.03963415,35.2568807 L4.13658537,5.61926606 L2.00365854,2.40825688 Z" id="XMLID_314_" fill="url(#linearGradient-7)"></path>
                            <path d="M0.290853659,6.51834862 C0.290853659,2.69724771 2.65,0.963302752 5.52621951,2.60091743 L43.7573171,24.7247706 C46.6335366,26.3944954 48.9603659,30.8256881 48.9603659,34.646789 L48.8634146,65.4082569 C48.8634146,69.2293578 46.5042683,70.9633028 43.6280488,69.3256881 L5.36463415,47.2018349 C2.48841463,45.5321101 0.161585366,41.1009174 0.161585366,37.2798165 L0.290853659,6.51834862 Z" id="Path" fill="#C7ECFF"></path>
                        </g>
                    </g>
                    <g id="Group" transform="translate(92.000000, 36.000000)">
                        <path d="M19.6671875,15.9396226 C19.6671875,12.2349057 16.5601562,7.25377358 12.7164062,4.88773585 L7.20703125,1.46320755 C3.3953125,-0.902830189 0.25625,0.186792453 0.25625,3.92264151 C0.25625,7.62735849 3.36328125,12.6084906 7.20703125,14.9745283 L12.7164062,18.3990566 C16.528125,20.7339623 19.6671875,19.6443396 19.6671875,15.9396226 Z M3.17109375,5.72830189 C3.17109375,3.58018868 4.996875,2.92641509 7.20703125,4.29622642 L12.7164062,7.72075472 C14.9585937,9.09056604 16.7523438,11.9858491 16.7523438,14.1339623 C16.7523438,16.3132075 14.9265625,16.9358491 12.7164062,15.5660377 L7.20703125,12.1415094 C4.96484375,10.7716981 3.17109375,7.87641509 3.17109375,5.72830189 Z" id="Shape" fill="url(#linearGradient-8)" fillRule="nonzero"></path>
                        <path d="M40.74375,28.9839623 C40.74375,32.7198113 37.6367188,33.809434 33.7929688,31.4433962 L28.2835938,28.0188679 C24.471875,25.6528302 21.3328125,20.7028302 21.3328125,16.9669811 C21.3328125,13.2311321 24.4398438,12.1415094 28.2835938,14.5075472 L33.7929688,17.9320755 C37.6367188,20.2981132 40.74375,25.2792453 40.74375,28.9839623 Z M24.2476562,18.7726415 C24.2476562,20.9518868 26.0734375,23.8160377 28.2835938,25.1858491 L33.7929688,28.6103774 C36.0351562,29.9801887 37.8289063,29.3575472 37.8289063,27.1783019 C37.8289063,24.9990566 36.003125,22.1349057 33.7929688,20.7650943 L28.2835938,17.340566 C26.0734375,15.9707547 24.2476562,16.6245283 24.2476562,18.7726415 Z" id="Shape" fill="url(#linearGradient-9)" fillRule="nonzero"></path>
                        <path d="M24.984375,20.9207547 L16.015625,15.3792453 C15.0546875,14.7877358 14.2859375,13.5424528 14.2859375,12.6084906 C14.2859375,11.6745283 15.0546875,11.3943396 16.015625,11.9858491 L24.984375,17.5273585 C25.9453125,18.1188679 26.7140625,19.3641509 26.7140625,20.2981132 C26.7140625,21.2320755 25.9453125,21.5122642 24.984375,20.9207547 Z" id="Path" fill="#2C30D1"></path>
                        <path d="M20.5,7.84528302 C20.24375,7.68962264 20.0195312,7.34716981 20.0195312,7.09811321 L20.0195312,3.82924528 C20.0195312,3.58018868 20.24375,3.51792453 20.5,3.67358491 C20.75625,3.82924528 20.9804688,4.17169811 20.9804688,4.42075472 L20.9804688,7.68962264 C20.9804688,7.93867925 20.75625,8.0009434 20.5,7.84528302 Z" id="Path" fill="#F0F9FF"></path>
                        <path d="M23.31875,10.6160377 C23.0945313,10.3358491 23.0625,10.0245283 23.2226562,9.93113208 L25.2085937,8.4990566 C25.36875,8.3745283 25.6570312,8.53018868 25.8492187,8.81037736 C26.0734375,9.09056604 26.1054688,9.40188679 25.9453125,9.49528302 L23.959375,10.9273585 C23.83125,11.0207547 23.5109375,10.8962264 23.31875,10.6160377 Z" id="Path" fill="#F0F9FF"></path>
                        <path d="M17.68125,7.12924528 C17.9054687,7.09811321 17.9375,6.8490566 17.7773438,6.56886792 L15.7914063,2.67735849 C15.63125,2.36603774 15.3429688,2.14811321 15.1507813,2.17924528 C14.9265625,2.21037736 14.8945312,2.45943396 15.0546875,2.73962264 L17.040625,6.63113208 C17.16875,6.91132075 17.4890625,7.12924528 17.68125,7.12924528 Z" id="Path" fill="#F0F9FF"></path>
                        <path d="M20.5,25.0613208 C20.75625,25.2169811 20.9804688,25.559434 20.9804688,25.8084906 L20.9804688,29.0773585 C20.9804688,29.3264151 20.75625,29.3886792 20.5,29.2330189 C20.24375,29.0773585 20.0195312,28.7349057 20.0195312,28.4858491 L20.0195312,25.2169811 C20.0195312,24.9679245 20.24375,24.9056604 20.5,25.0613208 Z" id="Path" fill="#F0F9FF"></path>
                        <path d="M17.68125,22.290566 C17.9054687,22.5707547 17.9375,22.8820755 17.7773438,22.9754717 L15.7914063,24.4075472 C15.63125,24.5320755 15.3429688,24.3764151 15.1507813,24.0962264 C14.9265625,23.8160377 14.8945312,23.504717 15.0546875,23.4113208 L17.040625,21.9792453 C17.16875,21.8858491 17.4890625,22.0415094 17.68125,22.290566 Z" id="Path" fill="#F0F9FF"></path>
                        <path d="M23.31875,25.7773585 C23.0945313,25.8084906 23.0625,26.0575472 23.2226562,26.3377358 L25.2085937,30.2292453 C25.36875,30.540566 25.6570312,30.7584906 25.8492187,30.7273585 C26.0734375,30.6962264 26.1054688,30.4471698 25.9453125,30.1669811 L23.959375,26.2754717 C23.83125,25.995283 23.5109375,25.7773585 23.31875,25.7773585 Z" id="Path" fill="#F0F9FF"></path>
                    </g>
                    <g id="Group" transform="translate(102.000000, 100.000000)" fill="#2C30D1">
                        <path d="M7.56752137,1.6 C7.04786325,1.792 6.91794872,2.272 7.34017094,2.624 L10.3282051,5.376 C10.7179487,5.728 11.4649573,5.856 11.9846154,5.664 C12.5042735,5.472 12.634188,4.992 12.2119658,4.64 L9.22393162,1.888 C8.83418803,1.536 8.08717949,1.408 7.56752137,1.6 Z" id="Path" opacity="0.4"></path>
                        <path d="M25.7880342,18.304 C25.2683761,18.496 25.1384615,18.976 25.5606838,19.328 L28.5487179,22.08 C28.9384615,22.432 29.6854701,22.56 30.2051282,22.368 C30.7247863,22.176 30.8547009,21.696 30.4324786,21.344 L27.4444444,18.592 C27.0547009,18.24 26.3076923,18.112 25.7880342,18.304 Z" id="Path"></path>
                        <path d="M32.3811966,5.92 L28.3538462,7.456 C27.834188,7.648 27.7042735,8.128 28.0940171,8.48 C28.4837607,8.832 29.2307692,8.96 29.7504274,8.768 L33.7777778,7.232 C34.2974359,7.04 34.4273504,6.56 34.0376068,6.208 C33.6803419,5.824 32.9333333,5.696 32.3811966,5.92 Z" id="Path" opacity="0.6"></path>
                        <path d="M9.61367521,15.52 C9.22393162,15.168 8.47692308,15.04 7.95726496,15.232 L3.92991453,16.768 C3.41025641,16.96 3.28034188,17.44 3.7025641,17.792 C4.09230769,18.144 4.83931624,18.272 5.35897436,18.08 L9.38632479,16.544 C9.90598291,16.32 10.0034188,15.872 9.61367521,15.52 Z" id="Path"></path>
                        <path d="M23.4495726,5.76 C24.0666667,5.984 24.7487179,5.856 25.008547,5.504 L26.9897436,2.784 C27.2495726,2.432 26.957265,1.984 26.3726496,1.76 C25.7555556,1.536 25.0735043,1.664 24.8136752,2.016 L22.8324786,4.736 C22.5726496,5.088 22.8324786,5.568 23.4495726,5.76 Z" id="Path" opacity="0.5"></path>
                        <path d="M14.3230769,18.208 C13.7059829,17.984 13.0239316,18.112 12.7641026,18.464 L10.782906,21.184 C10.5230769,21.536 10.8153846,21.984 11.4,22.208 C12.017094,22.432 12.6991453,22.304 12.9589744,21.952 L14.9401709,19.232 C15.2,18.88 14.9076923,18.432 14.3230769,18.208 Z" id="Path"></path>
                        <path d="M17.5384615,4.736 C18.1880342,4.736 18.6752137,4.416 18.5777778,4 L17.9931624,0.864 C17.9282051,0.448 17.3111111,0.096 16.6615385,0.096 C16.0119658,0.096 15.5247863,0.416 15.6222222,0.832 L16.2068376,3.968 C16.2717949,4.384 16.8888889,4.736 17.5384615,4.736 Z" id="Path" opacity="0.5"></path>
                        <path d="M20.234188,19.232 C19.5846154,19.232 19.0974359,19.552 19.1948718,19.968 L19.7794872,23.104 C19.8444444,23.52 20.4615385,23.872 21.1111111,23.872 C21.7606838,23.872 22.2153846,23.552 22.1504274,23.136 L21.565812,20 C21.4683761,19.584 20.8837607,19.232 20.234188,19.232 Z" id="Path"></path>
                        <path d="M3.05299145,5.632 C2.43589744,5.408 1.75384615,5.536 1.49401709,5.888 C1.23418803,6.24 1.52649573,6.688 2.11111111,6.912 L6.72307692,8.512 C7.34017094,8.736 8.02222222,8.608 8.28205128,8.256 C8.54188034,7.904 8.24957265,7.456 7.66495726,7.232 L3.05299145,5.632 Z" id="Path" opacity="0.4"></path>
                        <path d="M31.0495726,15.424 C30.4324786,15.2 29.7504274,15.328 29.4905983,15.68 C29.2307692,16.032 29.5230769,16.48 30.1076923,16.704 L34.7196581,18.304 C35.3367521,18.528 36.0188034,18.4 36.2786325,18.048 C36.5384615,17.696 36.2461538,17.248 35.6615385,17.024 L31.0495726,15.424 Z" id="Path" opacity="0.8"></path>
                        <path d="M1.3965812,12.576 L6.36581197,12.608 C7.01538462,12.608 7.5025641,12.288 7.40512821,11.872 C7.34017094,11.456 6.72307692,11.104 6.07350427,11.104 L1.1042735,11.072 C0.454700855,11.072 -0.0324786325,11.392 0.064957265,11.808 C0.12991453,12.224 0.747008547,12.576 1.3965812,12.576 Z" id="Path" opacity="0.2"></path>
                        <path d="M36.3760684,11.392 L31.4068376,11.36 C30.757265,11.36 30.3025641,11.68 30.3675214,12.096 C30.4324786,12.512 31.0495726,12.864 31.6991453,12.864 L36.6683761,12.896 C37.3179487,12.896 37.8051282,12.576 37.7076923,12.16 C37.6102564,11.744 37.025641,11.392 36.3760684,11.392 Z" id="Path" opacity="0.8"></path>
                    </g>
                </g>
            </g>
        </g>
    </g>
</svg>