<?xml version="1.0" encoding="UTF-8"?>
<svg width="266px" height="160px" viewBox="0 0 266 160" version="1.1" xmlns="http://www.w3.org/2000/svg" xmlns:xlink="http://www.w3.org/1999/xlink">
    <!-- Generator: Sketch 52.6 (67491) - http://www.bohemiancoding.com/sketch -->
    <title>invalid-url.inline</title>
    <desc>Created with Sketch.</desc>
    <defs>
        <path d="M6.81356796,0.187427184 L6.81291262,0.188082524 C6.43543689,0.309320388 5.17521845,0.701213592 4.85082524,0.937791262 L0.416140777,3.47657767 L3.50213592,8.11245146 L3.35599515,50.7527913 C3.33830097,56.2484709 6.65759709,62.643932 10.771165,65.0378883 L60.7336165,94.1100728 L64.7220146,100.103811 L69.7982767,97.4490291 C71.6515777,96.7130825 72.8659223,94.5006553 72.8764078,91.2056068 L73.0271359,46.9793447 C73.0461408,41.483665 69.7261893,35.0875485 65.6126214,32.6942476 L10.9893932,0.90961165 C9.93364078,0.294902913 8.92703883,0.00393203883 8.01480583,0.00393203883 C7.59276699,0.00393203883 7.19104369,0.0661893204 6.81356796,0.187427184" id="path-1"></path>
        <linearGradient x1="0.000697388186%" y1="49.9998714%" x2="99.9998865%" y2="49.9998714%" id="linearGradient-3">
            <stop stopColor="#3154CA" offset="0%"></stop>
            <stop stopColor="#17D1AA" offset="100%"></stop>
        </linearGradient>
    </defs>
    <g id="invalid-url.inline" stroke="none" stroke-width="1" fill="none" fillRule="evenodd">
        <g id="Group-20" transform="translate(12.000000, 12.000000)">
            <g id="Group-9" opacity="0.200000003" transform="translate(0.000000, 1.041286)" stroke="#1D45BA" stroke-width="0.5">
                <path d="M82.2014345,132.68901 L241.793716,41.1655631" id="Stroke-1"></path>
                <path d="M21.5549782,87.0878447 L170.430488,1.71148544" id="Stroke-3"></path>
                <path d="M89.2329029,0.100463592 L231.948874,81.8403422" id="Stroke-5"></path>
                <path d="M0.0817208738,53.4856893 L141.009269,134.202583" id="Stroke-7"></path>
            </g>
            <g id="Group-12" transform="translate(91.092233, 0.871383)">
                <mask id="mask-2" fill="white">
                    <use xlink:href="#path-1"></use>
                </mask>
                <g id="Clip-11"></g>
                <path d="M6.81356796,0.187427184 L6.81291262,0.188082524 C6.43543689,0.309320388 5.17521845,0.701213592 4.85082524,0.937791262 L0.416140777,3.47657767 L3.50213592,8.11245146 L3.35599515,50.7527913 C3.33830097,56.2484709 6.65759709,62.643932 10.771165,65.0378883 L60.7336165,94.1100728 L64.7220146,100.103811 L69.7982767,97.4490291 C71.6515777,96.7130825 72.8659223,94.5006553 72.8764078,91.2056068 L73.0271359,46.9793447 C73.0461408,41.483665 69.7261893,35.0875485 65.6126214,32.6942476 L10.9893932,0.90961165 C9.93364078,0.294902913 8.92703883,0.00393203883 8.01480583,0.00393203883 C7.59276699,0.00393203883 7.19104369,0.0661893204 6.81356796,0.187427184" id="Fill-10" fill="url(#linearGradient-3)" mask="url(#mask-2)"></path>
            </g>
            <g id="Group-19" transform="translate(88.470874, 3.492743)">
                <path d="M0.58790534,6.7773932 C0.606910194,1.28171359 3.95700728,-1.23282524 8.07057524,1.16113107 L62.6938034,32.9451117 C66.8073714,35.339068 70.1266675,41.7345291 70.108318,47.2308641 L69.9582451,91.4571262 C69.9392403,96.9528058 66.5897985,99.4673447 62.4762306,97.0740437 L7.85300243,65.2894078 C3.73943447,62.8954515 0.41948301,56.4999903 0.437832524,51.0043107 L0.58790534,6.7773932 Z" id="Fill-13" fill="#C7ECFF"></path>
                <path d="M35.2729442,28.9904636 C46.388818,35.7306335 55.3997403,50.2051238 55.4003956,61.3203422 C55.4003956,72.436216 46.388818,75.9835704 35.2729442,69.2440558 C24.1577257,62.5045413 15.1461481,48.0293956 15.1461481,36.9141772 C15.1461481,25.7983034 24.1577257,22.250949 35.2729442,28.9904636" id="Fill-15" fill="#FF1351"></path>
                <path d="M43.1837476,61.2877063 C43.5192816,61.861784 43.6870485,62.4011286 43.6870485,62.9044296 C43.6870485,63.4077306 43.5192816,63.724915 43.1837476,63.8553277 C42.8475583,63.9863956 42.4287961,63.8979248 41.9248398,63.5905704 C41.4215388,63.2825607 40.9850825,62.8487257 40.6154709,62.2870995 L34.0201311,51.6633859 L27.4234806,54.2310073 C27.0545243,54.3411044 26.6351068,54.2532888 26.1645728,53.96625 C25.6946942,53.6792112 25.275932,53.2552063 24.9063204,52.6935801 C24.5373641,52.1326092 24.3525583,51.6004733 24.3525583,51.096517 C24.3525583,50.593216 24.5373641,50.2701335 24.9063204,50.1259587 L31.4518544,47.5275364 L24.9063204,36.9339684 C24.5373641,36.3395752 24.3525583,35.7904005 24.3525583,35.2864442 C24.3525583,34.7831432 24.5373641,34.4764442 24.9063204,34.3663471 C25.275932,34.2555947 25.6946942,34.3447209 26.1645728,34.6311044 C26.6351068,34.9181432 27.0545243,35.3428034 27.4234806,35.9037743 L34.0201311,46.5281432 L40.6154709,43.9598665 C40.9850825,43.8497694 41.4215388,43.9487257 41.9248398,44.2560801 C42.4287961,44.5634345 42.8475583,44.9874393 43.1837476,45.5280947 C43.5192816,46.06875 43.6870485,46.5910558 43.6870485,47.0943568 C43.6870485,47.5976578 43.5192816,47.9318811 43.1837476,48.0963714 L36.5877524,50.6639927 L43.1837476,61.2877063 Z" id="Fill-17" fill="#C7ECFF"></path>
            </g>
        </g>
    </g>
</svg>