<?xml version="1.0" encoding="UTF-8"?>
<svg width="405px" height="219px" viewBox="0 0 405 219" version="1.1" xmlns="http://www.w3.org/2000/svg" xmlns:xlink="http://www.w3.org/1999/xlink">
    <!-- Generator: Sketch 52.2 (67145) - http://www.bohemiancoding.com/sketch -->
    <title>connect-load</title>
    <desc>Created with Sketch.</desc>
    <defs>
        <linearGradient x1="-6.10616698%" y1="-0.151651253%" x2="114.164042%" y2="90.9334744%" id="linearGradient-1">
            <stop stop-color="#17D1AA" offset="0%"></stop>
            <stop stop-color="#3154CA" offset="100%"></stop>
        </linearGradient>
    </defs>
    <g id="connect-load" stroke="none" stroke-width="1" fill="none" fill-rule="evenodd">
        <rect id="bg-copy" fill="#244BC0" opacity="0.06" x="0" y="0" width="405" height="219" rx="8"></rect>
        <g id="Group-18" transform="translate(100.000000, 20.000000)">
            <path d="M81.7346,8.7914 C81.7346,3.9704 77.3696,0.1134 71.9146,0.1134 L10.2686,0.1134 C4.8136,0.1134 0.4486,3.9704 0.4486,8.7914 L0.4486,68.6684 C0.4486,70.4044 0.8856,72.1394 1.8676,73.5854 L18.7536,98.8484 C18.7536,98.8484 24.1886,106.1764 30.0806,106.1764 L51.7766,106.1764 C57.6686,106.1764 62.8996,99.2794 62.8996,99.2794 L80.2066,73.4894 C81.1886,71.9464 81.6256,70.3074 81.7346,68.5724 L81.7346,8.7914 Z" id="Fill-3" fill="url(#linearGradient-1)"></path>
            <path d="M11.1613,21.9994 L73.1553,21.9994 C74.4553,21.9994 75.5393,23.4994 75.5393,25.2994 L75.5393,64.0064 C75.5393,65.8064 74.4553,67.3064 73.1553,67.3064 L11.1613,67.3064 C9.8603,67.3064 8.7773,65.8064 8.7773,64.0064 L8.7773,25.2994 C8.6683,23.4994 9.7523,21.9994 11.1613,21.9994" id="Fill-5" fill="#2C30D1"></path>
            <path d="M49.4773,52.8582 L41.0923,56.8852 L32.7063,52.8582 L32.7063,41.0552 L49.4773,41.0552 L49.4773,52.8582 Z M37.6743,31.6432 C38.4303,30.8302 39.4743,30.4352 40.8653,30.4352 C42.3863,30.4352 43.5223,30.8572 44.3393,31.7272 C45.5733,33.0412 45.9303,35.2102 45.9943,36.5612 L36.0463,36.5612 C36.1163,35.1082 36.4773,32.9332 37.6743,31.6432 Z M50.4973,36.5612 C50.4413,34.7242 50.0003,31.2102 47.6373,28.6742 C45.9713,26.8862 43.6293,25.9412 40.8653,25.9412 C38.2193,25.9412 35.9703,26.8622 34.3623,28.6062 C32.0663,31.0962 31.6073,34.5862 31.5473,36.5612 L28.2123,36.5612 L28.2123,55.6852 L41.0923,61.8712 L53.9713,55.6852 L53.9713,36.5612 L50.4973,36.5612 Z" id="Fill-7" fill="#FFFFFF"></path>
            <path d="M167.2514,132.3958 C165.0734,132.3958 163.3074,130.6308 163.3074,128.4528 L163.3074,119.3548 L175.4334,119.3548 L175.4334,128.7058 C175.4334,130.7438 173.7804,132.3958 171.7424,132.3958 L167.2514,132.3958 Z" id="Fill-9" fill="#2C30D1"></path>
            <path d="M170.19,116.053 L172.292,116.053 L172.292,113.95 L170.19,113.95 L170.19,116.053 Z M166.642,116.053 L168.744,116.053 L168.744,113.95 L166.642,113.95 L166.642,116.053 Z M165.207,123.182 L173.535,123.182 L173.535,112.54 L165.207,112.54 L165.207,123.182 Z" id="Fill-11" fill="#2C30D1"></path>
            <path d="M42.0554,135.8734 L37.5184,135.8734 C36.0454,135.8734 34.8514,134.6794 34.8514,133.2064 L34.8514,121.2274 L44.7814,121.2274 L44.7814,133.1474 C44.7814,134.6524 43.5604,135.8734 42.0554,135.8734" id="Fill-13" fill="#2C30D1"></path>
            <polygon id="Fill-14" fill="#2C30D1" points="36.555 125.524 43.078 125.524 43.078 117.86 36.555 117.86"></polygon>
            <path d="M167.9729,119.5931 L167.9729,139.3011 C167.9729,142.4091 165.5939,144.9381 162.6699,144.9381 L122.9009,144.9381 L119.0449,144.9381 L46.1249,144.9381 C43.2019,144.9381 40.8229,142.4091 40.8229,139.3011 L40.8229,119.5931 L38.2649,119.5931 L38.2649,139.3011 C38.2649,143.8241 41.7909,147.5051 46.1249,147.5051 L118.8589,147.5051 L123.0869,147.5051 L162.6699,147.5051 C167.0049,147.5051 170.5319,143.8241 170.5319,139.3011 L170.5319,119.5931 L167.9729,119.5931 Z" id="Fill-15" fill="#2C30D1"></path>
            <path d="M199.5808,50.4496 L137.7808,50.4496 C135.5718,50.4496 133.7808,52.2406 133.7808,54.4496 L133.7808,93.4776 C133.7808,95.6866 135.5718,97.4776 137.7808,97.4776 L157.3328,97.4776 L157.3328,104.2076 L151.8518,104.2076 C150.5208,104.2076 149.4418,104.8246 149.4418,105.5856 C149.4418,106.3466 150.5208,106.9636 151.8518,106.9636 L185.5098,106.9636 C186.8408,106.9636 187.9208,106.3466 187.9208,105.5856 C187.9208,104.8246 186.8418,104.2076 185.5098,104.2076 L180.0318,104.2076 L180.0318,97.4776 L199.5808,97.4776 C201.7898,97.4776 203.5808,95.6866 203.5808,93.4776 L203.5808,54.4496 C203.5808,52.2406 201.7898,50.4496 199.5808,50.4496" id="Fill-16" fill="url(#linearGradient-1)"></path>
            <path d="M200.0144,90.6043 C200.0144,92.4883 198.4064,94.0163 196.4234,94.0163 L140.9384,94.0163 C138.9554,94.0163 137.3474,92.4883 137.3474,90.6043 L137.3474,57.3223 C137.3474,55.4383 138.9554,53.9113 140.9384,53.9113 L196.4234,53.9113 C198.4064,53.9113 200.0144,55.4383 200.0144,57.3223 L200.0144,90.6043 Z" id="Fill-17" fill="#2C30D1"></path>
        </g>
    </g>
</svg>