<svg width="262" height="200" xmlns="http://www.w3.org/2000/svg"><defs><linearGradient x1="58.084%" y1="0%" x2="41.916%" y2="100%" id="a"><stop stopColor="#F14D78" offset="0%"/><stop stopColor="#1A44B7" offset="100%"/></linearGradient><linearGradient x1="76.661%" y1="0%" x2="23.339%" y2="100%" id="b"><stop stopColor="#F14D78" offset="0%"/><stop stopColor="#1A44B7" offset="100%"/></linearGradient><linearGradient x1="13.947%" y1="98.252%" x2="52.783%" y2="70.976%" id="c"><stop stopColor="#1A44B7" offset="0%"/><stop stopColor="#4760FF" offset="100%"/></linearGradient><linearGradient x1="13.947%" y1="98.252%" x2="52.783%" y2="70.976%" id="d"><stop stopColor="#1A44B7" offset="0%"/><stop stopColor="#4760FF" offset="100%"/></linearGradient><linearGradient x1="0%" y1="74.963%" x2="53.86%" y2="60.852%" id="e"><stop stopColor="#1A44B7" offset="0%"/><stop stopColor="#4760FF" offset="100%"/></linearGradient></defs><g fill="none" fillRule="evenodd"><g opacity=".2" stroke="#1D45BA" stroke-width=".5"><path d="M89.512 198.008l172.395-98.866M24.001 148.748l160.818-92.225M79.51 44.704l181.606 104.014M.805 112.451l152.232 87.192"/></g><g fillRule="nonzero"><path d="M43.44 106.652c2.5-16.313 0-20.069 0-20.069l-16.398 21.79s4.387 6.972 3.296 10.894a24.265 24.265 0 01-2.015 5.27 1.485 1.485 0 00.428 1.943c.11.084.23.154.357.207l5.824 3.44 7.042-12.202 1.547-6.88-1.622 1.272a26.273 26.273 0 001.541-5.665z" fill="url(#a)" transform="translate(73.24)"/><path d="M91.822 4.662l-5.594-3.177a14.715 14.715 0 00-2.47-.94c-1.507-.482-3.319-.224-5.264.906l-68.86 39.8C4.439 44.248.26 52.26.283 59.14l.19 55.39c0 4.128 1.547 6.88 3.88 7.815l6.4 3.326 5.028-7.506L78.765 81.76c5.195-2.999 9.374-11.01 9.35-17.89l-.184-53.4 3.89-5.81z" fill="url(#b)" transform="translate(73.24)"/><path d="M168.149 12.081c0-6.88-4.248-10.034-9.431-7.035L89.858 44.85c-5.196 3-9.375 11.01-9.352 17.89l.19 55.385c0 6.88 4.25 10.034 9.432 7.035l21.27-12.293a18.807 18.807 0 01-1.189 10.292 63.448 63.448 0 01-2.516 4.983 1.524 1.524 0 00.302 1.846c.511.475 1.28.548 1.874.178 4.964-3.21 11.879-9.41 13.443-19.604.277-1.807.49-3.44.652-4.96l35.025-20.247c5.195-2.999 9.374-11.01 9.35-17.89l-.19-55.385z" fill="#E1F2FF"/></g><path d="M10.504 9.881c0 2.798-2.262 3.668-5.053 1.945C2.661 10.102.398 6.436.398 3.639.398.842 2.66-.029 5.451 1.695c2.79 1.724 5.053 5.39 5.053 8.186" fill="url(#c)" transform="matrix(-1 0 0 1 153.99 40.376)"/><path d="M51.654 35.299c0 2.797-2.262 3.668-5.052 1.944-2.791-1.724-5.053-5.389-5.053-8.186 0-2.798 2.262-3.668 5.053-1.944 2.79 1.723 5.052 5.389 5.052 8.186" fill="url(#d)" transform="matrix(-1 0 0 1 153.99 40.376)"/><path d="M34.799 47.854L14.359 35.23c-1.249-.77-2.27-2.427-2.27-3.679 0-1.252 1.021-1.646 2.27-.874l20.44 12.625c1.249.772 2.27 2.428 2.27 3.68 0 1.252-1.021 1.645-2.27.873" fill="url(#e)" transform="matrix(-1 0 0 1 153.99 40.376)"/></g></svg>