<?xml version="1.0" encoding="UTF-8"?>
<svg width="105px" height="120px" viewBox="0 0 105 120" version="1.1" xmlns="http://www.w3.org/2000/svg" xmlns:xlink="http://www.w3.org/1999/xlink">
    <title>icon/total-reward</title>
    <g id="icon/total-reward" stroke="none" stroke-width="1" fill="none" fillRule="evenodd">
        <g id="icon/reward" fill="#F0F3F5">
            <path d="M95.0721691,81.1865455 L104.674094,100.365818 C105.152443,101.320364 105.101113,102.452727 104.539763,103.360364 C104.071243,104.116364 103.304575,104.625818 102.442891,104.775273 L101.916489,104.821091 L86.1899517,104.821091 C85.2408988,104.821091 84.3475441,105.260727 83.7698123,106.012364 L73.9734899,118.768364 C73.3902975,119.544 72.4751004,120 71.5074815,120 C70.4776117,120 69.5602303,119.494909 68.9988803,118.711636 L68.7487847,118.298182 L59.619748,100.070182 C58.7078273,98.2505455 59.8054085,96.0752727 61.8105421,95.7130909 C61.8312924,95.7098182 61.8531348,95.7054545 61.8738851,95.7021818 C63.2051802,95.46 64.5331989,96.1232727 65.1382338,97.3309091 L71.6964183,110.417455 L72.4849295,110.488364 L80.4432128,99.8956364 C80.9095483,99.276 81.5877552,98.8603636 82.33695,98.7185455 L82.9114055,98.664 L96.1741188,98.664 L96.5913089,97.9909091 L89.5667888,83.964 C88.9934255,82.8185455 89.1954678,81.4363636 90.0811776,80.5112727 C90.0975594,80.4949091 90.1139413,80.4774545 90.1303231,80.4610909 C91.5937648,78.9305455 94.1242083,79.2938182 95.0721691,81.1865455 Z M14.8613668,80.4850909 C14.8755643,80.5014545 14.890854,80.5178182 14.9072358,80.5330909 C15.7940378,81.4570909 15.9960802,82.8403636 15.4227168,83.9847273 L8.40911788,97.992 L8.82521586,98.6650909 L22.0901135,98.6650909 C22.8666113,98.6650909 23.6059769,98.9574545 24.1695112,99.4701818 L24.5561219,99.8956364 L32.5154973,110.488364 L33.3040085,110.417455 L39.852364,97.3363636 C40.4573988,96.1276364 41.7843254,95.4643636 43.1145284,95.7054545 C43.1385551,95.7109091 43.1625817,95.7141818 43.1866084,95.7185455 C45.1906498,96.0796364 46.2893232,98.2538182 45.3784945,100.073455 L36.2516421,118.298182 C35.7416218,119.313818 34.6942781,120 33.4929453,120 C32.7186318,120 31.978174,119.708727 31.4146397,119.193818 L31.0258448,118.768364 L21.5899222,106.207636 C21.0209273,105.450545 20.1319411,105.001091 19.1839804,104.990182 L3.0828454,104.821091 C2.01475139,104.821091 1.0220137,104.268 0.460663679,103.360364 C-0.00785608715,102.603273 -0.121436636,101.691273 0.130843237,100.855636 L0.325240716,100.365818 L9.92388925,81.2116364 C10.8707579,79.3210909 13.3979251,78.9578182 14.8613668,80.4850909 Z M52.5002134,0 C77.2564047,0 97.3983861,20.1065455 97.3983861,44.8210909 C97.3983861,53.2778182 95.0339449,61.3930909 90.6556331,68.4196364 L89.6869221,69.9087273 C81.5746498,81.7734545 67.937339,89.5461818 52.4838316,89.5461818 C41.3583984,89.5461818 31.1743732,85.5174545 23.3143807,78.8410909 L23.5502788,79.0516364 C23.2193662,78.7723636 22.8928222,78.4876364 22.5695544,78.1985455 L22.5717387,78.1952727 C21.7450033,77.4610909 20.945571,76.6909091 20.1734417,75.8912727 C18.3867323,74.0661818 16.763841,72.0883636 15.315689,69.9818182 L15.3145969,69.9109091 C10.3159606,62.5516364 7.60313283,53.8821818 7.60313283,44.8210909 C7.60313283,20.1065455 27.7440222,0 52.5002134,0 Z M52.5002134,6.15490909 C31.1437938,6.15490909 13.7692461,23.5003636 13.7692461,44.8210909 C13.7692461,66.1407273 31.1437938,83.4861818 52.5002134,83.4861818 C73.856633,83.4861818 91.2311807,66.1407273 91.2311807,44.8210909 C91.2311807,23.5003636 73.856633,6.15490909 52.5002134,6.15490909 Z M58.5371288,55.2944727 L58.7216972,55.3282909 C58.8953444,55.3937455 59.0307674,55.5486545 59.0537019,55.7428364 L59.0373201,55.9468364 L52.4966094,79.6184727 L52.3830289,79.8301091 C52.1820787,80.0559273 51.8085734,80.0559273 51.6076232,79.8301091 L51.4940426,79.6184727 L44.953332,55.9468364 L44.9391344,55.7286545 C44.9795429,55.4537455 45.2460203,55.2606545 45.523419,55.2988364 L45.7309219,55.3741091 L46.5325385,55.8213818 C47.8452675,56.4901091 49.2945116,56.9264727 50.8289412,57.0737455 L51.995326,57.1293818 L52.9694977,57.0901091 C54.8970906,56.9362909 56.6936291,56.3264727 58.258638,55.3741091 C58.3503762,55.3184727 58.4453907,55.2944727 58.5371288,55.2944727 Z M65.0740171,57.4990909 L65.2451216,57.5048523 C65.4160556,57.5164091 65.5862216,57.5454545 65.7533161,57.5929091 L65.7533161,57.5929091 L66.1639535,57.7489091 L66.5505642,57.9823636 L73.4014371,62.9918182 L73.5420455,63.1023924 C74.5365717,63.9429053 74.7234255,65.4195178 73.9420369,66.4849091 L73.9420369,66.4849091 L73.8289195,66.6284594 C73.0856777,67.5046064 71.845329,67.7517273 70.8316772,67.2594545 L70.8316772,67.2594545 L70.4450665,67.026 L63.5941936,62.0176364 L63.4535851,61.907056 C62.459057,61.0664544 62.2721577,59.5887984 63.0525017,58.5223636 C63.5428639,57.8536364 64.3029799,57.4990909 65.0740171,57.4990909 L65.0740171,57.4990909 Z M38.1139263,57.4085455 L38.2915647,57.4148213 C39.0004698,57.4649564 39.6838918,57.8146154 40.1365338,58.4329091 L40.1365338,58.4329091 L40.244101,58.5919803 C40.8480216,59.5627192 40.7073105,60.8137895 39.9333993,61.6281818 L39.9333993,61.6281818 L39.5948419,61.926 L32.743969,66.9365455 L32.5959374,67.0369885 C31.4931481,67.7297457 30.0272951,67.4608458 29.2459065,66.3954545 L29.2459065,66.3954545 L29.1381757,66.2363832 C28.5333265,65.2656414 28.6740376,64.0145167 29.4479488,63.1990909 L29.4479488,63.1990909 L29.7875983,62.9012727 L36.6384713,57.8918182 C37.0840565,57.5656364 37.6017217,57.4085455 38.1139263,57.4085455 L38.1139263,57.4085455 Z M51.995326,37.1242909 L52.6866384,37.1581091 C56.0798573,37.4952 58.7839481,40.2846545 59.1290582,43.7984727 L59.1661903,44.5621091 L59.1334267,45.2777455 C58.810159,48.7981091 56.1202658,51.6028364 52.7314154,51.9606545 L51.995326,51.9988364 L51.3040136,51.9650182 C47.6683439,51.6050182 44.8244617,48.4282909 44.8244617,44.5621091 C44.8244617,40.4537455 48.0352965,37.1242909 51.995326,37.1242909 Z M41.3209386,38.0417455 L41.5207967,38.0875636 C41.704273,38.1748364 41.8254984,38.3755636 41.8113008,38.5926545 L41.7479578,38.8108364 L41.3340441,39.6857455 C40.8240237,40.8781091 40.4952954,42.1730182 40.3838991,43.5312 L40.3423985,44.5621091 L40.3817149,45.5690182 C40.4876506,46.8977455 40.8010892,48.1653818 41.288175,49.3370182 L41.6857069,50.1966545 L41.7446815,50.4006545 C41.767616,50.6712 41.5786791,50.9199273 41.3198465,50.9559273 L41.1156199,50.9417455 L20.389354,45.0115636 L20.1851274,44.8981091 C19.9677954,44.6973818 19.9677954,44.3242909 20.1851274,44.1235636 L20.389354,44.0101091 L41.1822393,38.0613818 C41.2292005,38.0482909 41.2761617,38.0417455 41.3209386,38.0417455 Z M62.6697134,38.0417455 L62.738517,38.0472 L62.8084127,38.0613818 L83.600206,44.0101091 L83.8044325,44.1235636 C84.0228567,44.3242909 84.0228567,44.6973818 83.8044325,44.8981091 L83.600206,45.0115636 L62.87394,50.9417455 L62.6697134,50.9559273 C62.4119729,50.9199273 62.2230361,50.6712 62.2459706,50.4006545 L62.3060372,50.1966545 L62.702477,49.3370182 C63.1895628,48.1653818 63.5030015,46.8977455 63.6089372,45.5690182 L63.6482535,44.5621091 L63.6067529,43.5312 C63.4680536,41.8326545 62.9886126,40.2355636 62.2426942,38.8108364 C62.0537574,38.4508364 62.3104057,38.0417455 62.6697134,38.0417455 Z M51.995326,9.99883636 C52.1394859,9.99883636 52.2825538,10.0555636 52.3830289,10.1690182 L52.4966094,10.3806545 L59.4414047,35.5130182 L59.4009963,35.5130182 L58.6092088,34.9479273 C56.9797647,33.8799273 55.0794748,33.1904727 53.0306564,33.0159273 L51.995326,32.9712 L50.9589035,33.0159273 C48.9100851,33.1904727 47.0097952,33.8799273 45.3814433,34.9479273 L44.5896558,35.5130182 L44.5492473,35.5130182 L51.4940426,10.3806545 L51.6076232,10.1690182 C51.7080983,10.0555636 51.8511661,9.99883636 51.995326,9.99883636 Z M71.9205215,22.4994545 L72.0981594,22.5057299 C72.8070585,22.5558591 73.490403,22.9054406 73.9420369,23.5227273 L73.9420369,23.5227273 L74.0497764,23.6819532 C74.6547288,24.6535195 74.5149979,25.9036651 73.7410867,26.7190909 L73.7410867,26.7190909 L73.4014371,27.0169091 L66.5505642,32.0263636 L66.4026629,32.1266824 C65.3007425,32.8186565 63.8338903,32.5517075 63.0525017,31.4852727 L63.0525017,31.4852727 L62.9449343,31.3262015 C62.3410108,30.3554626 62.4816675,29.1043923 63.254544,28.29 L63.254544,28.29 L63.5941936,27.9921818 L70.4450665,22.9816364 C70.8906517,22.6565455 71.4083169,22.4994545 71.9205215,22.4994545 L71.9205215,22.4994545 Z M31.2674218,22.4089091 L31.4380657,22.4146705 C31.6088461,22.4262273 31.7796264,22.4552727 31.9467209,22.5027273 L31.9467209,22.5027273 L32.3562661,22.6587273 L32.743969,22.8921818 L39.5948419,27.9005455 L39.73532,28.0111257 C40.7289793,28.8517254 40.9168777,30.329336 40.1365338,31.3947273 L40.1365338,31.3947273 L40.0231128,31.5382775 C39.2780969,32.4144245 38.0387338,32.6615455 37.025082,32.1692727 L37.025082,32.1692727 L36.6384713,31.9358182 L29.7875983,26.9263636 L29.6469899,26.8157893 C28.6524617,25.9752744 28.4655625,24.4986166 29.2459065,23.4321818 C29.7351766,22.7634545 30.4963847,22.4089091 31.2674218,22.4089091 L31.2674218,22.4089091 Z" id="Combined-Shape"></path>
        </g>
    </g>
</svg>