<svg width="40" height="40" viewBox="0 0 40 40" fill="none" xmlns="http://www.w3.org/2000/svg">
<rect width="40" height="40" rx="20" fill="#E4E8F7"/>
<path fillRule="evenodd" clipRule="evenodd" d="M27.0001 17C27.0001 13.134 23.8661 10 20.0001 10C16.1341 10 13.0001 13.134 13.0001 17C13.0001 20.866 16.1341 24 20.0001 24C23.8661 24 27.0001 20.866 27.0001 17ZM15.0001 17C15.0001 14.2386 17.2387 12 20.0001 12C22.7615 12 25.0001 14.2386 25.0001 17C25.0001 19.7614 22.7615 22 20.0001 22C17.2387 22 15.0001 19.7614 15.0001 17Z" fill="#3154CB"/>
<path d="M13.8322 23.5547C14.1385 23.0952 14.0143 22.4743 13.5548 22.168C13.0953 21.8616 12.4744 21.9858 12.1681 22.4453L10.1755 25.4342C10.1208 25.5137 10.0773 25.6016 10.0473 25.6955C10.0067 25.8223 9.99264 25.9543 10.0036 26.0836C10.0148 26.2189 10.0529 26.3466 10.1127 26.4613C10.179 26.5893 10.2739 26.7044 10.3953 26.7964C10.4824 26.8627 10.5806 26.9149 10.6868 26.9499C10.7939 26.9853 10.9048 27.0017 11.0148 27H13.882L15.0985 29.4329C15.1357 29.5106 15.1832 29.584 15.2406 29.6509C15.3239 29.7483 15.4239 29.827 15.5341 29.8849C15.6642 29.9536 15.804 29.9909 15.944 29.9986C16.2122 30.0134 16.481 29.9198 16.6827 29.7311C16.7436 29.6743 16.7965 29.6106 16.8406 29.542L18.8322 26.5547C19.1385 26.0952 19.0143 25.4743 18.5548 25.168C18.0953 24.8616 17.4744 24.9858 17.1681 25.4453L16.1239 27.0116L15.405 25.5738C15.3244 25.4029 15.1967 25.2584 15.0387 25.1573C14.9149 25.078 14.7725 25.0253 14.6196 25.0071C14.573 25.0014 14.526 24.999 14.4787 25H12.8686L13.8322 23.5547Z" fill="#3154CB"/>
<path d="M26.4454 22.168C25.9859 22.4743 25.8617 23.0952 26.1681 23.5547L27.1316 25H25.5224C25.4703 24.9989 25.4184 25.0018 25.3672 25.0087C25.229 25.0271 25.0997 25.0737 24.9853 25.1425C24.8172 25.2436 24.6813 25.3928 24.5965 25.571L23.8763 27.0115L22.8322 25.4453C22.5258 24.9858 21.9049 24.8616 21.4454 25.1679C20.9859 25.4743 20.8617 26.0952 21.1681 26.5547L23.1589 29.5409C23.2065 29.6151 23.2642 29.6834 23.3312 29.7437C23.4255 29.8286 23.5338 29.8933 23.6493 29.9365C23.7848 29.9875 23.9258 30.007 24.0635 29.9981C24.1998 29.9896 24.3357 29.9531 24.4625 29.8867C24.5738 29.8288 24.6748 29.7497 24.7589 29.6517C24.8167 29.5845 24.8645 29.5107 24.9019 29.4325L26.1181 27H28.9854C29.0954 27.0017 29.2063 26.9853 29.3134 26.9499C29.4196 26.9149 29.5179 26.8626 29.6049 26.7964C29.7263 26.7044 29.8212 26.5893 29.8876 26.4613C29.9469 26.3474 29.9849 26.2206 29.9964 26.0863C30.0078 25.9561 29.9938 25.8232 29.9529 25.6955C29.9229 25.6016 29.8794 25.5138 29.8248 25.4342L27.8322 22.4453C27.5258 21.9858 26.9049 21.8616 26.4454 22.168Z" fill="#3154CB"/>
</svg>
