<svg width="42" height="42" xmlns="http://www.w3.org/2000/svg"><g fill="none" fill-rule="evenodd"><path fill="none" d="M0 0h42v42H0z"/><g fill="#3154CB" fill-rule="nonzero"><path d="M32.183 26.098a1.378 1.378 0 0 1 2.14.169l.094.162 2.937 5.895a1.38 1.38 0 0 1-.836 1.946l-.207.05-.2.015h-4.81a.484.484 0 0 0-.307.11l-.078.081-2.993 3.917a1.38 1.38 0 0 1-2.134.103l-.127-.158-.094-.158-2.792-5.602a1.38 1.38 0 0 1 .817-1.93l.176-.044.205-.023c.476-.018.92.204 1.186.586l.103.174 1.785 3.58 2.139-2.86c.125-.167.284-.302.474-.398l.2-.084.22-.056.218-.02h3.565l-1.93-3.875a1.378 1.378 0 0 1 .017-1.261l.1-.161.132-.158Zm-24.605.339c.399-.8 1.422-1 2.095-.459l.152.142c.356.372.468.909.307 1.388l-.073.177-1.928 3.868 3.567.001c.21 0 .413.047.604.142l.187.11.177.143.144.162 2.137 2.86 1.784-3.578a1.376 1.376 0 0 1 1.08-.755l.197-.008.222.026a1.38 1.38 0 0 1 1.06 1.807l-.07.166-2.792 5.602c-.233.468-.711.769-1.242.769a1.37 1.37 0 0 1-.79-.252l-.176-.142-.147-.163-2.885-3.86a.487.487 0 0 0-.273-.182l-.11-.014-4.92-.052a1.388 1.388 0 0 1-1.366-1.62l.049-.206.075-.185 2.935-5.887ZM20.998 3c6.897 0 12.488 5.572 12.488 12.444 0 6.873-5.59 12.445-12.488 12.445-6.896 0-12.487-5.572-12.487-12.445C8.51 8.572 14.1 3 20.998 3Zm0 3.556c-4.926 0-8.92 3.98-8.92 8.888 0 4.91 3.994 8.89 8.92 8.89 4.927 0 8.92-3.98 8.92-8.89 0-4.909-3.993-8.888-8.92-8.888Z"/></g></g></svg>