<svg width="358" height="293" viewBox="0 0 358 293" fill="none" xmlns="http://www.w3.org/2000/svg">
<path d="M357.281 220.624L357.151 200.855L333.249 195.999L207.687 123.059C188.951 112.174 156.183 113.477 134.492 125.973L18.6467 192.706C17.6892 193.251 16.7908 193.819 15.916 194.388L0.714294 199.078V217.047C0.856146 223.798 5.00529 230.218 13.3272 235.063L150.296 314.612C169.033 325.497 201.8 324.194 223.492 311.71L339.337 244.977C351.394 238.024 357.47 229.093 357.281 220.648V220.624Z" fill="url(#paint0_linear_8461_8438)"/>
<path opacity="0.7" d="M150.32 296.619L13.3505 217.058C-5.38564 206.185 -2.99781 187.233 18.6818 174.737L134.527 108.004C156.218 95.508 188.986 94.2051 207.722 105.09L344.691 184.639C363.392 195.525 361.004 214.476 339.277 226.972L223.432 293.705C201.824 306.202 169.056 307.504 150.32 296.619Z" fill="#52FCFF"/>
<path d="M257.442 206.28V48.1649L99.6203 45.0972V201.838C99.0529 203.591 99.7858 205.392 101.902 206.576L173.501 249.004C177.213 251.195 183.726 250.994 188.065 248.554L253.848 211.409C256.437 209.987 257.714 208.057 257.442 206.28Z" fill="url(#paint1_linear_8461_8438)"/>
<path opacity="0.7" d="M173.513 90.0358L101.913 47.6199C98.2134 45.4168 98.7099 41.6975 103.095 39.2101L168.843 2.06514C173.17 -0.386713 179.695 -0.588073 183.395 1.61504L254.994 44.0309C258.694 46.234 258.186 49.9533 253.812 52.4407L188.064 89.5856C183.738 92.0375 177.213 92.2389 173.513 90.0358Z" fill="#52FCFF"/>
<path d="M161.148 190.444C161.15 188.934 160.794 187.446 160.11 186.101C159.425 184.757 158.432 183.594 157.212 182.709L103.935 151.19C103.555 150.914 103.107 150.745 102.639 150.701C102.171 150.658 101.7 150.74 101.275 150.941C101.167 150.989 101.063 151.049 100.968 151.119L87.7167 159.019L145.828 201.838L159.233 193.819C159.541 193.725 159.824 193.563 160.061 193.345C160.43 192.962 160.717 192.506 160.904 192.007C161.091 191.508 161.174 190.976 161.148 190.444Z" fill="#0CDDB3"/>
<path d="M143.416 201.447L90.1512 169.94C88.9275 169.058 87.9317 167.896 87.247 166.551C86.5622 165.206 86.2084 163.716 86.2149 162.205C86.2149 159.256 88.1417 157.941 90.3877 159.268L143.653 190.787C144.878 191.669 145.875 192.833 146.56 194.181C147.245 195.529 147.598 197.021 147.589 198.533C147.53 201.447 145.662 202.797 143.416 201.447Z" fill="url(#paint2_linear_8461_8438)"/>
<path d="M161.066 166.908C161.072 165.397 160.718 163.908 160.034 162.562C159.349 161.217 158.353 160.055 157.129 159.173L103.864 127.643C103.481 127.372 103.034 127.207 102.567 127.163C102.101 127.119 101.631 127.199 101.204 127.394L100.885 127.583L87.6458 135.484L145.757 178.302L159.162 170.283C159.466 170.189 159.745 170.027 159.978 169.81C160.349 169.427 160.637 168.972 160.824 168.472C161.011 167.973 161.094 167.44 161.066 166.908Z" fill="#0CDDB3"/>
<path d="M143.346 177.935L90.0688 146.405C88.8486 145.52 87.8554 144.357 87.1711 143.013C86.4868 141.668 86.1308 140.18 86.1325 138.67C86.2034 135.721 88.0711 134.406 90.3052 135.733L143.582 167.252C144.802 168.137 145.796 169.299 146.48 170.644C147.164 171.988 147.52 173.477 147.519 174.986C147.448 177.935 145.58 179.262 143.346 177.935Z" fill="url(#paint3_linear_8461_8438)"/>
<path d="M161.219 143.408C161.214 141.9 160.851 140.414 160.158 139.075C159.465 137.736 158.463 136.582 157.235 135.709L104.041 104.179C103.658 103.908 103.211 103.743 102.744 103.699C102.278 103.655 101.808 103.735 101.381 103.93C101.27 103.984 101.163 104.048 101.062 104.119L87.8228 112.008L145.934 154.838L159.339 146.82C159.644 146.721 159.923 146.555 160.155 146.334C160.525 145.947 160.811 145.487 160.994 144.983C161.178 144.48 161.254 143.943 161.219 143.408Z" fill="#0CDDB3"/>
<path d="M143.5 154.459L90.2227 122.94C89.0066 122.05 88.018 120.884 87.338 119.538C86.6579 118.191 86.3056 116.703 86.31 115.194C86.3809 112.244 88.2486 110.93 90.4828 112.256L143.76 143.787C144.984 144.668 145.979 145.83 146.664 147.176C147.349 148.521 147.703 150.011 147.696 151.521C147.602 154.471 145.734 155.785 143.5 154.459Z" fill="url(#paint4_linear_8461_8438)"/>
<path d="M161.219 119.967C161.22 118.453 160.859 116.96 160.166 115.615C159.473 114.269 158.468 113.109 157.235 112.233L104.041 80.7139C103.66 80.4391 103.213 80.2703 102.746 80.2246C102.279 80.1788 101.808 80.2577 101.381 80.4533L101.062 80.6428L87.8228 88.5432L145.934 131.362L159.339 123.343C159.643 123.249 159.922 123.087 160.155 122.869C160.522 122.485 160.805 122.028 160.988 121.529C161.172 121.03 161.25 120.498 161.219 119.967Z" fill="#0CDDB3"/>
<path d="M143.5 130.994L90.2227 99.4639C89.0068 98.5763 88.0182 97.4126 87.3381 96.0681C86.6579 94.7236 86.3056 93.2367 86.31 91.7293C86.3809 88.78 88.2486 87.4652 90.4828 88.7918L143.76 120.311C144.98 121.196 145.973 122.358 146.657 123.703C147.342 125.048 147.698 126.536 147.696 128.045C147.602 130.994 145.734 132.321 143.5 130.994Z" fill="url(#paint5_linear_8461_8438)"/>
<path d="M246.141 91.3503L196.221 120.228V112.458L246.141 83.5684V91.3503Z" fill="url(#paint6_linear_8461_8438)"/>
<path d="M246.141 106.287L230.832 115.147V107.376L246.141 98.5166V106.287Z" fill="url(#paint7_linear_8461_8438)"/>
<path d="M225.017 118.51L196.221 135.176V127.394L225.017 110.74V118.51Z" fill="url(#paint8_linear_8461_8438)"/>
<path d="M246.141 120.666L210.619 141.264V133.494L246.141 112.884V120.666Z" fill="url(#paint9_linear_8461_8438)"/>
<path d="M204.791 144.628L196.221 149.544V141.773L204.791 136.858V144.628Z" fill="url(#paint10_linear_8461_8438)"/>
<path d="M246.141 135.685L196.221 164.563V156.792L246.141 127.915V135.685Z" fill="url(#paint11_linear_8461_8438)"/>
<path d="M246.141 150.681L230.832 159.541V151.77L246.141 142.911V150.681Z" fill="url(#paint12_linear_8461_8438)"/>
<path d="M225.017 162.904L196.221 179.57V171.788L225.017 155.134V162.904Z" fill="url(#paint13_linear_8461_8438)"/>
<path d="M246.141 165.06L210.619 185.658V177.888L246.141 157.278V165.06Z" fill="url(#paint14_linear_8461_8438)"/>
<path d="M204.791 189.022L196.221 193.938V186.156L204.791 181.252V189.022Z" fill="url(#paint15_linear_8461_8438)"/>
<path d="M246.141 186.274L196.221 215.152V200.393L246.141 171.516V186.274Z" fill="#0CDDB3"/>
<path d="M246.141 186.274L234.154 178.445L246.141 171.516V186.274Z" fill="url(#paint16_linear_8461_8438)"/>
<path d="M233.114 236.33C236.571 238.991 239.196 242.587 240.679 246.694C243.386 253.801 252.571 260.908 252.571 260.908L289.216 282.939L336.204 255.293L299.559 233.25C299.559 233.25 290.398 226.143 287.738 219.108C286.256 215.009 283.635 211.421 280.185 208.767L243.788 187.542L196.823 215.163L233.114 236.33Z" fill="url(#paint17_linear_8461_8438)"/>
<path d="M136.434 34.5527L223.998 35.2754V47.3517C223.998 53.7941 219.714 60.2242 211.169 65.1356C194.067 74.9339 166.353 74.9339 149.251 65.1356C140.707 60.2365 136.434 53.7941 136.434 47.3517V34.5527Z" fill="url(#paint18_linear_8461_8438)"/>
<path d="M211.172 53.0981C194.071 62.8543 166.357 62.8543 149.256 53.0981C132.154 43.3419 132.167 27.488 149.256 17.7317C166.345 7.97549 194.071 7.97549 211.172 17.7317C228.274 27.488 228.274 43.3175 211.172 53.0981Z" fill="url(#paint19_linear_8461_8438)"/>
<path d="M179.358 56.9669C200.219 56.9669 217.131 46.9318 217.131 34.5528C217.131 22.1738 200.219 12.1387 179.358 12.1387C158.497 12.1387 141.585 22.1738 141.585 34.5528C141.585 46.9318 158.497 56.9669 179.358 56.9669Z" fill="url(#paint20_linear_8461_8438)"/>
<path fill-rule="evenodd" clip-rule="evenodd" d="M196.282 26.7797C195.488 26.3191 194.217 26.4112 193.423 26.8718L189.134 29.3585L185.004 28.3454L187.704 26.7797C188.498 26.3191 188.657 25.5823 187.863 25.1218C187.069 24.6613 185.798 24.6613 185.004 25.1218L181.112 27.3783L164.115 23.2337C163.321 23.0495 162.527 23.1416 161.891 23.51C161.335 23.8324 161.176 24.385 161.415 24.7994L168.722 34.4703L164.909 36.6808C164.115 37.1413 163.956 37.8781 164.75 38.3386C165.545 38.7991 166.816 38.7991 167.61 38.3386L170.39 36.7268L172.137 39.1215L167.927 41.5622C167.133 42.0228 166.974 42.7596 167.769 43.2201C168.563 43.6806 169.834 43.6806 170.628 43.2201L173.884 41.332L180 49.2989C180.397 49.8976 181.588 50.1278 182.621 49.8976C182.859 49.8515 183.018 49.7594 183.177 49.6673C183.733 49.345 183.971 48.8384 183.653 48.3779L177.061 39.6741L189.928 32.2138L205.177 35.99C205.972 36.1742 206.766 36.0821 207.401 35.7137C207.56 35.6216 207.719 35.5295 207.878 35.3453C208.275 34.7466 207.878 34.0558 206.845 33.8256L193.025 30.4177L196.282 28.5296C197.076 27.977 197.156 27.1941 196.282 26.7797ZM167.212 26.5036L177.934 29.1286L171.819 32.6745L167.212 26.5036ZM173.646 34.931L175.393 37.3257L186.036 31.1548L181.906 30.1416L173.646 34.931Z" fill="white"/>
<path d="M196.282 26.7797L196.152 26.8549L196.159 26.8586L196.166 26.862L196.282 26.7797ZM189.134 29.3585L189.062 29.4565L189.176 29.4845L189.263 29.4338L189.134 29.3585ZM185.004 28.3454L184.874 28.2702L184.681 28.3819L184.932 28.4434L185.004 28.3454ZM181.112 27.3783L181.041 27.4764L181.154 27.5041L181.242 27.4536L181.112 27.3783ZM164.115 23.2337L164.186 23.1356L164.183 23.1349L164.115 23.2337ZM161.415 24.7994L161.24 24.8332L161.247 24.8421L161.415 24.7994ZM168.722 34.4703L168.851 34.5455L168.94 34.4941L168.89 34.4276L168.722 34.4703ZM170.39 36.7268L170.559 36.6854L170.452 36.5399L170.26 36.6516L170.39 36.7268ZM172.137 39.1215L172.267 39.1967L172.354 39.1461L172.306 39.08L172.137 39.1215ZM173.884 41.332L174.052 41.2887L173.943 41.1473L173.754 41.2567L173.884 41.332ZM180 49.2989L180.171 49.2607L180.168 49.2557L180 49.2989ZM182.621 49.8976L182.563 49.7965L182.555 49.7983L182.621 49.8976ZM183.653 48.3779L183.824 48.3383L183.821 48.3351L183.653 48.3779ZM177.061 39.6741L176.931 39.5989L176.843 39.6503L176.893 39.7169L177.061 39.6741ZM189.928 32.2138L190 32.1159L189.886 32.0876L189.798 32.1385L189.928 32.2138ZM205.177 35.99L205.105 36.0879L205.109 36.0888L205.177 35.99ZM207.878 35.3453L208.042 35.3928L208.046 35.3883L208.049 35.3835L207.878 35.3453ZM206.845 33.8256L206.773 33.9235L206.779 33.9249L206.845 33.8256ZM193.025 30.4177L192.896 30.3425L192.703 30.454L192.954 30.5157L193.025 30.4177ZM196.282 28.5296L196.412 28.6052L196.423 28.5977L196.282 28.5296ZM177.934 29.1286L178.064 29.2038L178.257 29.092L178.006 29.0305L177.934 29.1286ZM167.212 26.5036L167.284 26.4056L166.862 26.3024L167.044 26.5459L167.212 26.5036ZM171.819 32.6745L171.65 32.7168L171.758 32.8605L171.949 32.7498L171.819 32.6745ZM175.393 37.3257L175.224 37.3671L175.33 37.5126L175.523 37.4009L175.393 37.3257ZM173.646 34.931L173.516 34.8558L173.428 34.9064L173.477 34.9724L173.646 34.931ZM186.036 31.1548L186.166 31.23L186.358 31.1183L186.107 31.0568L186.036 31.1548ZM181.906 30.1416L181.977 30.0436L181.863 30.0157L181.776 30.0664L181.906 30.1416ZM193.552 26.947C194.294 26.5167 195.448 26.4464 196.152 26.8549L196.412 26.7044C195.528 26.1919 194.139 26.3057 193.293 26.7965L193.552 26.947ZM189.263 29.4338L193.552 26.947L193.293 26.7965L189.004 29.2833L189.263 29.4338ZM184.932 28.4434L189.062 29.4565L189.205 29.2606L185.075 28.2474L184.932 28.4434ZM187.574 26.7044L184.874 28.2702L185.133 28.4207L187.834 26.8549L187.574 26.7044ZM187.733 25.197C188.438 25.6055 188.316 26.2742 187.574 26.7044L187.834 26.8549C188.68 26.3641 188.877 25.5591 187.993 25.0466L187.733 25.197ZM185.133 25.197C185.856 24.7781 187.011 24.7781 187.733 25.197L187.993 25.0466C187.127 24.5445 185.74 24.5445 184.874 25.0466L185.133 25.197ZM181.242 27.4536L185.133 25.197L184.874 25.0466L180.982 27.3031L181.242 27.4536ZM164.044 23.3318L181.041 27.4764L181.183 27.2802L164.186 23.1356L164.044 23.3318ZM162.021 23.5852C162.606 23.2463 163.322 23.1644 164.047 23.3325L164.183 23.1349C163.319 22.9346 162.448 23.0368 161.761 23.4347L162.021 23.5852ZM161.589 24.7658C161.369 24.384 161.521 23.8751 162.021 23.5852L161.761 23.4347C161.15 23.7896 160.984 24.386 161.241 24.8331L161.589 24.7658ZM168.89 34.4276L161.583 24.7567L161.247 24.8421L168.554 34.513L168.89 34.4276ZM165.039 36.756L168.851 34.5455L168.592 34.395L164.78 36.6055L165.039 36.756ZM164.88 38.2634C164.176 37.8549 164.297 37.1863 165.039 36.756L164.78 36.6055C163.933 37.0963 163.737 37.9013 164.621 38.4139L164.88 38.2634ZM167.48 38.2634C166.757 38.6823 165.603 38.6823 164.88 38.2634L164.621 38.4139C165.487 38.9159 166.874 38.9159 167.74 38.4139L167.48 38.2634ZM170.26 36.6516L167.48 38.2634L167.74 38.4139L170.519 36.8021L170.26 36.6516ZM172.306 39.08L170.559 36.6854L170.221 36.7683L171.968 39.163L172.306 39.08ZM168.057 41.6375L172.267 39.1967L172.007 39.0463L167.798 41.487L168.057 41.6375ZM167.898 43.1449C167.194 42.7364 167.315 42.0677 168.057 41.6375L167.798 41.487C166.951 41.9778 166.755 42.7828 167.639 43.2953L167.898 43.1449ZM170.498 43.1449C169.776 43.5638 168.621 43.5638 167.898 43.1449L167.639 43.2953C168.505 43.7974 169.892 43.7974 170.758 43.2953L170.498 43.1449ZM173.754 41.2567L170.498 43.1449L170.758 43.2953L174.014 41.4072L173.754 41.2567ZM180.168 49.2557L174.052 41.2887L173.717 41.3752L179.832 49.3422L180.168 49.2557ZM182.555 49.7983C181.597 50.0118 180.525 49.7937 180.171 49.2607L179.829 49.3371C180.269 50.0014 181.579 50.2438 182.687 49.9969L182.555 49.7983ZM183.047 49.5921C182.885 49.6861 182.754 49.7596 182.563 49.7966L182.679 49.9985C182.964 49.9434 183.151 49.8328 183.307 49.7426L183.047 49.5921ZM183.483 48.4174C183.771 48.8346 183.556 49.2968 183.047 49.5921L183.307 49.7426C183.909 49.3931 184.171 48.8422 183.824 48.3384L183.483 48.4174ZM176.893 39.7169L183.485 48.4207L183.821 48.3351L177.229 39.6313L176.893 39.7169ZM189.798 32.1385L176.931 39.5989L177.191 39.7494L190.058 32.289L189.798 32.1385ZM205.249 35.8921L190 32.1159L189.856 32.3116L205.105 36.0878L205.249 35.8921ZM207.271 35.6384C206.687 35.9774 205.97 36.0593 205.246 35.8912L205.109 36.0888C205.973 36.2891 206.845 36.1868 207.531 35.7889L207.271 35.6384ZM207.714 35.2977C207.568 35.4662 207.427 35.5485 207.271 35.6384L207.531 35.7889C207.694 35.6946 207.87 35.5927 208.042 35.3928L207.714 35.2977ZM206.779 33.9249C207.699 34.1299 208.075 34.7518 207.707 35.3071L208.049 35.3835C208.475 34.7414 208.057 33.9817 206.911 33.7262L206.779 33.9249ZM192.954 30.5157L206.773 33.9235L206.917 33.7276L193.097 30.3198L192.954 30.5157ZM196.152 28.4544L192.896 30.3425L193.155 30.493L196.412 28.6049L196.152 28.4544ZM196.166 26.862C196.932 27.2254 196.896 27.9358 196.141 28.4615L196.423 28.5977C197.256 28.0182 197.379 27.1628 196.398 26.6973L196.166 26.862ZM178.006 29.0305L167.284 26.4056L167.141 26.6016L177.863 29.2266L178.006 29.0305ZM171.949 32.7498L178.064 29.2038L177.805 29.0533L171.689 32.5993L171.949 32.7498ZM167.044 26.5459L171.65 32.7168L171.987 32.6323L167.381 26.4614L167.044 26.5459ZM175.562 37.2842L173.815 34.8895L173.477 34.9724L175.224 37.3671L175.562 37.2842ZM185.906 31.0795L175.263 37.2504L175.523 37.4009L186.166 31.23L185.906 31.0795ZM181.834 30.2396L185.964 31.2528L186.107 31.0568L181.977 30.0436L181.834 30.2396ZM173.775 35.0062L182.036 30.2169L181.776 30.0664L173.516 34.8558L173.775 35.0062Z" fill="white"/>
<path d="M212.025 202.102L270.436 202.584V210.64C270.436 214.937 267.578 219.227 261.878 222.503C250.47 229.039 231.983 229.039 220.575 222.503C214.875 219.235 212.025 214.937 212.025 210.64V202.102Z" fill="url(#paint21_linear_8461_8438)"/>
<path d="M261.88 214.473C250.473 220.981 231.986 220.981 220.578 214.473C209.17 207.965 209.178 197.389 220.578 190.881C231.977 184.373 250.473 184.373 261.88 190.881C273.288 197.389 273.288 207.948 261.88 214.473Z" fill="url(#paint22_linear_8461_8438)"/>
<path d="M240.658 217.053C254.574 217.053 265.855 210.359 265.855 202.102C265.855 193.844 254.574 187.15 240.658 187.15C226.742 187.15 215.461 193.844 215.461 202.102C215.461 210.359 226.742 217.053 240.658 217.053Z" fill="url(#paint23_linear_8461_8438)"/>
<path fill-rule="evenodd" clip-rule="evenodd" d="M251.948 196.917C251.418 196.609 250.57 196.671 250.04 196.978L247.179 198.637L244.424 197.961L246.226 196.917C246.755 196.609 246.861 196.118 246.332 195.811C245.802 195.503 244.954 195.503 244.424 195.811L241.828 197.316L230.49 194.551C229.96 194.428 229.431 194.49 229.007 194.735C228.636 194.951 228.53 195.319 228.689 195.596L233.563 202.047L231.02 203.521C230.49 203.828 230.384 204.32 230.914 204.627C231.444 204.934 232.292 204.934 232.821 204.627L234.676 203.552L235.841 205.149L233.033 206.778C232.503 207.085 232.398 207.576 232.927 207.883C233.457 208.191 234.305 208.191 234.835 207.883L237.007 206.624L241.086 211.938C241.351 212.338 242.146 212.491 242.835 212.338C242.994 212.307 243.1 212.246 243.206 212.184C243.577 211.969 243.736 211.631 243.524 211.324L239.126 205.518L247.709 200.541L257.882 203.06C258.411 203.183 258.941 203.122 259.365 202.876C259.471 202.815 259.577 202.753 259.683 202.63C259.948 202.231 259.683 201.77 258.994 201.617L249.775 199.343L251.948 198.084C252.477 197.715 252.53 197.193 251.948 196.917ZM232.556 196.732L239.709 198.483L235.629 200.849L232.556 196.732ZM236.848 202.354L238.013 203.951L245.113 199.835L242.358 199.159L236.848 202.354Z" fill="white"/>
<path d="M250.04 196.978L249.911 196.903L250.04 196.978ZM251.948 196.917L251.818 196.992L251.824 196.996L251.831 196.999L251.948 196.917ZM247.179 198.637L247.108 198.735L247.222 198.763L247.309 198.712L247.179 198.637ZM244.424 197.961L244.295 197.886L244.102 197.997L244.353 198.059L244.424 197.961ZM241.828 197.316L241.757 197.414L241.871 197.442L241.958 197.391L241.828 197.316ZM230.49 194.551L230.561 194.453L230.558 194.452L230.49 194.551ZM228.689 195.596L228.514 195.629L228.521 195.638L228.689 195.596ZM233.563 202.047L233.693 202.122L233.782 202.071L233.731 202.004L233.563 202.047ZM231.02 203.521L231.15 203.597L231.02 203.521ZM232.821 204.627L232.951 204.702L232.821 204.627ZM234.676 203.552L234.845 203.511L234.739 203.365L234.546 203.477L234.676 203.552ZM235.841 205.149L235.971 205.225L236.058 205.174L236.01 205.108L235.841 205.149ZM233.033 206.778L232.904 206.702L233.033 206.778ZM237.007 206.624L237.175 206.581L237.066 206.439L236.877 206.549L237.007 206.624ZM241.086 211.938L241.258 211.9L241.254 211.895L241.086 211.938ZM242.835 212.338L242.777 212.237L242.769 212.238L242.835 212.338ZM243.524 211.324L243.694 211.285L243.692 211.281L243.524 211.324ZM239.126 205.518L238.996 205.443L238.908 205.494L238.958 205.561L239.126 205.518ZM247.709 200.541L247.781 200.444L247.667 200.415L247.579 200.466L247.709 200.541ZM257.882 203.06L257.809 203.158L257.813 203.159L257.882 203.06ZM259.683 202.63L259.847 202.678L259.851 202.673L259.854 202.669L259.683 202.63ZM258.994 201.617L258.922 201.715L258.928 201.716L258.994 201.617ZM249.775 199.343L249.646 199.268L249.453 199.38L249.704 199.441L249.775 199.343ZM251.948 198.084L252.078 198.159L252.089 198.152L251.948 198.084ZM239.709 198.483L239.839 198.559L240.031 198.447L239.78 198.385L239.709 198.483ZM232.556 196.732L232.628 196.634L232.206 196.531L232.388 196.775L232.556 196.732ZM235.629 200.849L235.461 200.891L235.568 201.035L235.759 200.924L235.629 200.849ZM238.013 203.951L237.844 203.993L237.95 204.138L238.143 204.027L238.013 203.951ZM236.848 202.354L236.718 202.279L236.631 202.329L236.679 202.395L236.848 202.354ZM245.113 199.835L245.243 199.91L245.435 199.798L245.184 199.737L245.113 199.835ZM242.358 199.159L242.429 199.061L242.315 199.033L242.228 199.084L242.358 199.159ZM250.17 197.053C250.648 196.776 251.378 196.737 251.818 196.992L252.077 196.841C251.458 196.482 250.493 196.565 249.911 196.903L250.17 197.053ZM247.309 198.712L250.17 197.053L249.911 196.903L247.05 198.562L247.309 198.712ZM244.353 198.059L247.108 198.735L247.251 198.539L244.496 197.863L244.353 198.059ZM246.096 196.841L244.295 197.886L244.554 198.036L246.355 196.992L246.096 196.841ZM246.202 195.886C246.642 196.141 246.574 196.564 246.096 196.841L246.355 196.992C246.937 196.654 247.081 196.095 246.461 195.735L246.202 195.886ZM244.554 195.886C245.012 195.62 245.744 195.62 246.202 195.886L246.461 195.735C245.86 195.387 244.896 195.387 244.295 195.735L244.554 195.886ZM241.958 197.391L244.554 195.886L244.295 195.735L241.698 197.241L241.958 197.391ZM230.419 194.649L241.757 197.414L241.899 197.218L230.561 194.453L230.419 194.649ZM229.136 194.811C229.509 194.594 229.962 194.543 230.422 194.65L230.558 194.452C229.959 194.313 229.352 194.385 228.877 194.66L229.136 194.811ZM228.863 195.562C228.723 195.318 228.822 194.993 229.136 194.811L228.877 194.66C228.45 194.908 228.337 195.32 228.515 195.629L228.863 195.562ZM233.731 202.004L228.857 195.553L228.521 195.638L233.395 202.089L233.731 202.004ZM231.15 203.597L233.693 202.122L233.433 201.972L230.89 203.446L231.15 203.597ZM231.044 204.552C230.604 204.297 230.672 203.873 231.15 203.597L230.89 203.446C230.308 203.783 230.165 204.343 230.784 204.702L231.044 204.552ZM232.692 204.552C232.233 204.818 231.502 204.818 231.044 204.552L230.784 204.702C231.386 205.051 232.35 205.051 232.951 204.702L232.692 204.552ZM234.546 203.477L232.692 204.552L232.951 204.702L234.805 203.627L234.546 203.477ZM236.01 205.108L234.845 203.511L234.507 203.593L235.672 205.191L236.01 205.108ZM233.163 206.853L235.971 205.225L235.712 205.074L232.904 206.702L233.163 206.853ZM233.057 207.808C232.617 207.553 232.685 207.13 233.163 206.853L232.904 206.702C232.322 207.04 232.178 207.599 232.798 207.959L233.057 207.808ZM234.705 207.808C234.247 208.074 233.515 208.074 233.057 207.808L232.798 207.959C233.399 208.307 234.363 208.307 234.964 207.959L234.705 207.808ZM236.877 206.549L234.705 207.808L234.964 207.959L237.137 206.699L236.877 206.549ZM241.254 211.895L237.175 206.581L236.839 206.667L240.919 211.982L241.254 211.895ZM242.769 212.238C242.155 212.375 241.479 212.234 241.258 211.9L240.915 211.977C241.224 212.442 242.137 212.607 242.901 212.437L242.769 212.238ZM243.076 212.109C242.967 212.172 242.889 212.215 242.777 212.237L242.893 212.439C243.099 212.399 243.233 212.319 243.335 212.259L243.076 212.109ZM243.353 211.364C243.535 211.627 243.4 211.921 243.076 212.109L243.335 212.259C243.753 212.017 243.936 211.635 243.694 211.285L243.353 211.364ZM238.958 205.561L243.356 211.367L243.692 211.281L239.294 205.475L238.958 205.561ZM247.579 200.466L238.996 205.443L239.256 205.593L247.839 200.617L247.579 200.466ZM257.954 202.963L247.781 200.444L247.637 200.639L257.809 203.158L257.954 202.963ZM259.235 202.801C258.862 203.017 258.41 203.068 257.95 202.962L257.813 203.159C258.413 203.298 259.02 203.227 259.495 202.951L259.235 202.801ZM259.519 202.583C259.426 202.69 259.337 202.742 259.235 202.801L259.495 202.951C259.605 202.888 259.728 202.817 259.847 202.678L259.519 202.583ZM258.928 201.716C259.504 201.844 259.748 202.236 259.512 202.592L259.854 202.669C260.148 202.226 259.862 201.696 259.06 201.517L258.928 201.716ZM249.704 199.441L258.922 201.715L259.066 201.519L249.847 199.246L249.704 199.441ZM251.818 198.009L249.646 199.268L249.905 199.419L252.077 198.159L251.818 198.009ZM251.831 196.999C252.307 197.224 252.298 197.674 251.807 198.016L252.089 198.152C252.657 197.756 252.754 197.162 252.064 196.834L251.831 196.999ZM239.78 198.385L232.628 196.634L232.485 196.83L239.637 198.581L239.78 198.385ZM235.759 200.924L239.839 198.559L239.579 198.408L235.499 200.773L235.759 200.924ZM232.388 196.775L235.461 200.891L235.798 200.806L232.725 196.69L232.388 196.775ZM238.182 203.91L237.017 202.312L236.679 202.395L237.844 203.993L238.182 203.91ZM244.983 199.76L237.884 203.876L238.143 204.027L245.243 199.91L244.983 199.76ZM242.286 199.257L245.041 199.933L245.184 199.737L242.429 199.061L242.286 199.257ZM236.978 202.429L242.488 199.234L242.228 199.084L236.718 202.279L236.978 202.429Z" fill="white"/>
<defs>
<linearGradient id="paint0_linear_8461_8438" x1="7.71661" y1="125.733" x2="623.357" y2="57.8253" gradientUnits="userSpaceOnUse">
<stop stop-color="#17D1AA"/>
<stop offset="0.0659437" stop-color="#1AC2AE"/>
<stop offset="0.2651" stop-color="#229BB8"/>
<stop offset="0.4616" stop-color="#297CC0"/>
<stop offset="0.6525" stop-color="#2D66C6"/>
<stop offset="0.8349" stop-color="#3059CA"/>
<stop offset="1" stop-color="#3154CB"/>
</linearGradient>
<linearGradient id="paint1_linear_8461_8438" x1="267.676" y1="275.902" x2="267.676" y2="44.0135" gradientUnits="userSpaceOnUse">
<stop stop-color="#1D45BA"/>
<stop offset="0.4204" stop-color="#1D47BA"/>
<stop offset="0.5718" stop-color="#1D4EB9"/>
<stop offset="0.6797" stop-color="#1C59B8"/>
<stop offset="0.767" stop-color="#1B6AB6"/>
<stop offset="0.8417" stop-color="#1A80B3"/>
<stop offset="0.9079" stop-color="#199CB0"/>
<stop offset="0.9663" stop-color="#18BBAD"/>
<stop offset="1" stop-color="#17D1AA"/>
</linearGradient>
<linearGradient id="paint2_linear_8461_8438" x1="87.4201" y1="160.858" x2="193.802" y2="151.216" gradientUnits="userSpaceOnUse">
<stop stop-color="#17D1AA"/>
<stop offset="0.0659437" stop-color="#1AC2AE"/>
<stop offset="0.2651" stop-color="#229BB8"/>
<stop offset="0.4616" stop-color="#297CC0"/>
<stop offset="0.6525" stop-color="#2D66C6"/>
<stop offset="0.8349" stop-color="#3059CA"/>
<stop offset="1" stop-color="#3154CB"/>
</linearGradient>
<linearGradient id="paint3_linear_8461_8438" x1="151.48" y1="183.791" x2="151.48" y2="134.988" gradientUnits="userSpaceOnUse">
<stop stop-color="#1D45BA"/>
<stop offset="0.4204" stop-color="#1D47BA"/>
<stop offset="0.5718" stop-color="#1D4EB9"/>
<stop offset="0.6797" stop-color="#1C59B8"/>
<stop offset="0.767" stop-color="#1B6AB6"/>
<stop offset="0.8417" stop-color="#1A80B3"/>
<stop offset="0.9079" stop-color="#199CB0"/>
<stop offset="0.9663" stop-color="#18BBAD"/>
<stop offset="1" stop-color="#17D1AA"/>
</linearGradient>
<linearGradient id="paint4_linear_8461_8438" x1="151.657" y1="160.317" x2="151.657" y2="111.511" gradientUnits="userSpaceOnUse">
<stop stop-color="#1D45BA"/>
<stop offset="0.4204" stop-color="#1D47BA"/>
<stop offset="0.5718" stop-color="#1D4EB9"/>
<stop offset="0.6797" stop-color="#1C59B8"/>
<stop offset="0.767" stop-color="#1B6AB6"/>
<stop offset="0.8417" stop-color="#1A80B3"/>
<stop offset="0.9079" stop-color="#199CB0"/>
<stop offset="0.9663" stop-color="#18BBAD"/>
<stop offset="1" stop-color="#17D1AA"/>
</linearGradient>
<linearGradient id="paint5_linear_8461_8438" x1="151.657" y1="136.851" x2="151.657" y2="88.0468" gradientUnits="userSpaceOnUse">
<stop stop-color="#1D45BA"/>
<stop offset="0.4204" stop-color="#1D47BA"/>
<stop offset="0.5718" stop-color="#1D4EB9"/>
<stop offset="0.6797" stop-color="#1C59B8"/>
<stop offset="0.767" stop-color="#1B6AB6"/>
<stop offset="0.8417" stop-color="#1A80B3"/>
<stop offset="0.9079" stop-color="#199CB0"/>
<stop offset="0.9663" stop-color="#18BBAD"/>
<stop offset="1" stop-color="#17D1AA"/>
</linearGradient>
<linearGradient id="paint6_linear_8461_8438" x1="257.938" y1="81.4482" x2="192.021" y2="117.995" gradientUnits="userSpaceOnUse">
<stop stop-color="#0024FF"/>
<stop offset="1" stop-color="#00FFE2"/>
</linearGradient>
<linearGradient id="paint7_linear_8461_8438" x1="250.774" y1="99.7721" x2="229.499" y2="111.947" gradientUnits="userSpaceOnUse">
<stop stop-color="#0024FF"/>
<stop offset="1" stop-color="#00FFE2"/>
</linearGradient>
<linearGradient id="paint8_linear_8461_8438" x1="235.324" y1="108.537" x2="192.466" y2="133.455" gradientUnits="userSpaceOnUse">
<stop stop-color="#0024FF"/>
<stop offset="1" stop-color="#00FFE2"/>
</linearGradient>
<linearGradient id="paint9_linear_8461_8438" x1="254.38" y1="112.02" x2="209.735" y2="137.775" gradientUnits="userSpaceOnUse">
<stop stop-color="#0024FF"/>
<stop offset="1" stop-color="#00FFE2"/>
</linearGradient>
<linearGradient id="paint10_linear_8461_8438" x1="209.649" y1="137.711" x2="193.946" y2="147.111" gradientUnits="userSpaceOnUse">
<stop stop-color="#0024FF"/>
<stop offset="1" stop-color="#00FFE2"/>
</linearGradient>
<linearGradient id="paint11_linear_8461_8438" x1="254.841" y1="125.57" x2="194.488" y2="162.477" gradientUnits="userSpaceOnUse">
<stop stop-color="#0024FF"/>
<stop offset="1" stop-color="#00FFE2"/>
</linearGradient>
<linearGradient id="paint12_linear_8461_8438" x1="250.963" y1="143.669" x2="229.627" y2="156.542" gradientUnits="userSpaceOnUse">
<stop stop-color="#0024FF"/>
<stop offset="1" stop-color="#00FFE2"/>
</linearGradient>
<linearGradient id="paint13_linear_8461_8438" x1="210.619" y1="155.134" x2="210.619" y2="179.57" gradientUnits="userSpaceOnUse">
<stop stop-color="#52FCFF" stop-opacity="0"/>
<stop offset="1" stop-color="#52FCFF"/>
</linearGradient>
<linearGradient id="paint14_linear_8461_8438" x1="254.959" y1="155.845" x2="208.574" y2="183.007" gradientUnits="userSpaceOnUse">
<stop stop-color="#0024FF"/>
<stop offset="1" stop-color="#00FFE2"/>
</linearGradient>
<linearGradient id="paint15_linear_8461_8438" x1="208.597" y1="181.903" x2="192.204" y2="193.397" gradientUnits="userSpaceOnUse">
<stop stop-color="#0024FF"/>
<stop offset="1" stop-color="#00FFE2"/>
</linearGradient>
<linearGradient id="paint16_linear_8461_8438" x1="249.116" y1="170.77" x2="230.749" y2="177.749" gradientUnits="userSpaceOnUse">
<stop stop-color="#0024FF"/>
<stop offset="1" stop-color="#00FFE2"/>
</linearGradient>
<linearGradient id="paint17_linear_8461_8438" x1="212.995" y1="157.657" x2="297.507" y2="279.653" gradientUnits="userSpaceOnUse">
<stop stop-color="#3124FF"/>
<stop offset="1" stop-color="#00FFE2"/>
</linearGradient>
<linearGradient id="paint18_linear_8461_8438" x1="172.988" y1="36.8101" x2="221.855" y2="69.3936" gradientUnits="userSpaceOnUse">
<stop stop-color="#17D1AA"/>
<stop offset="0.0659437" stop-color="#1AC2AE"/>
<stop offset="0.2651" stop-color="#229BB8"/>
<stop offset="0.4616" stop-color="#297CC0"/>
<stop offset="0.6525" stop-color="#2D66C6"/>
<stop offset="0.8349" stop-color="#3059CA"/>
<stop offset="1" stop-color="#3154CB"/>
</linearGradient>
<linearGradient id="paint19_linear_8461_8438" x1="177.031" y1="8.14623" x2="184.547" y2="73.7245" gradientUnits="userSpaceOnUse">
<stop offset="0.09" stop-color="#84E4A4"/>
<stop offset="0.97" stop-color="#3C53D7"/>
</linearGradient>
<linearGradient id="paint20_linear_8461_8438" x1="222.006" y1="62.505" x2="222.006" y2="11.9022" gradientUnits="userSpaceOnUse">
<stop stop-color="#1D45BA"/>
<stop offset="0.4204" stop-color="#1D47BA"/>
<stop offset="0.5718" stop-color="#1D4EB9"/>
<stop offset="0.6797" stop-color="#1C59B8"/>
<stop offset="0.767" stop-color="#1B6AB6"/>
<stop offset="0.8417" stop-color="#1A80B3"/>
<stop offset="0.9079" stop-color="#199CB0"/>
<stop offset="0.9663" stop-color="#18BBAD"/>
<stop offset="1" stop-color="#17D1AA"/>
</linearGradient>
<linearGradient id="paint21_linear_8461_8438" x1="236.409" y1="203.608" x2="269.007" y2="225.343" gradientUnits="userSpaceOnUse">
<stop stop-color="#17D1AA"/>
<stop offset="0.0659437" stop-color="#1AC2AE"/>
<stop offset="0.2651" stop-color="#229BB8"/>
<stop offset="0.4616" stop-color="#297CC0"/>
<stop offset="0.6525" stop-color="#2D66C6"/>
<stop offset="0.8349" stop-color="#3059CA"/>
<stop offset="1" stop-color="#3154CB"/>
</linearGradient>
<linearGradient id="paint22_linear_8461_8438" x1="239.106" y1="184.487" x2="244.119" y2="228.232" gradientUnits="userSpaceOnUse">
<stop offset="0.09" stop-color="#84E4A4"/>
<stop offset="0.97" stop-color="#3C53D7"/>
</linearGradient>
<linearGradient id="paint23_linear_8461_8438" x1="269.107" y1="220.748" x2="269.107" y2="186.992" gradientUnits="userSpaceOnUse">
<stop stop-color="#1D45BA"/>
<stop offset="0.4204" stop-color="#1D47BA"/>
<stop offset="0.5718" stop-color="#1D4EB9"/>
<stop offset="0.6797" stop-color="#1C59B8"/>
<stop offset="0.767" stop-color="#1B6AB6"/>
<stop offset="0.8417" stop-color="#1A80B3"/>
<stop offset="0.9079" stop-color="#199CB0"/>
<stop offset="0.9663" stop-color="#18BBAD"/>
<stop offset="1" stop-color="#17D1AA"/>
</linearGradient>
</defs>
</svg>
