<svg width="40" height="40" viewBox="0 0 40 40" fill="none" xmlns="http://www.w3.org/2000/svg">
<rect width="40" height="40" rx="20" fill="#E4F7F3"/>
<path fillRule="evenodd" clipRule="evenodd" d="M17 11C13.134 11 10 14.134 10 18C10 21.0791 11.988 23.6938 14.7504 24.6307C15.5503 25.5367 16.5809 26.2341 17.7504 26.6307C19.0331 28.0836 20.9095 29 23 29C26.866 29 30 25.866 30 22C30 18.9209 28.012 16.3062 25.2496 15.3693C24.4497 14.4633 23.4191 13.7659 22.2496 13.3693C20.9669 11.9164 19.0905 11 17 11ZM21.3715 15.1904C20.9357 15.0664 20.4756 15 20 15C17.2386 15 15 17.2386 15 20C15 21.1776 15.4071 22.2601 16.0882 23.1145C16.0302 22.7515 16 22.3793 16 22C16 18.6947 18.2909 15.9244 21.3715 15.1904ZM13 20C13 20.3793 13.0302 20.7515 13.0882 21.1145C12.4071 20.2601 12 19.1776 12 18C12 15.2386 14.2386 13 17 13C17.4756 13 17.9357 13.0664 18.3715 13.1904C15.2909 13.9244 13 16.6947 13 20ZM28 22C28 24.7614 25.7614 27 23 27C20.2386 27 18 24.7614 18 22C18 19.2386 20.2386 17 23 17C25.7614 17 28 19.2386 28 22Z" fill="#0CDDB3"/>
</svg>
