<svg width="42" height="42" xmlns="http://www.w3.org/2000/svg"><g fill="none" fill-rule="evenodd"><path d="M0 0h42v42H0z"/><path d="M8.471 30.143c.386 0 .752.175 1.007.474a14.569 14.569 0 0 0 11.114 5.142c4.328 0 8.348-1.9 11.115-5.142a1.34 1.34 0 0 1 .728-.442l.145-.024.134-.008c1.115 0 1.728 1.313 1.005 2.164-3.26 3.837-8.012 6.089-13.127 6.089-5.114 0-9.865-2.252-13.127-6.09-.696-.82-.151-2.07.888-2.158l.118-.005ZM7.953 21.6c3.097.014 5.138 1.635 6.082 4.821.258.87-.323 1.756-1.204 1.904l-.122.016-.126.005-4.647-.005-4.648.005c-1.004 0-1.737-.965-1.452-1.925.889-3.002 2.752-4.615 5.558-4.802l.258-.013.301-.006Zm26.13 0c3.097.014 5.137 1.635 6.081 4.821.258.87-.322 1.756-1.204 1.904l-.122.016-.126.005-4.647-.005-4.648.005c-1.003 0-1.736-.965-1.452-1.925.89-3.002 2.753-4.615 5.559-4.802l.258-.013.301-.006ZM8.16 24.092l-.216-.005h-.016c-1.538.007-2.524.539-3.185 1.732l-.02.038 3.211-.003 3.216.003-.02-.038c-.633-1.14-1.559-1.674-2.97-1.727Zm26.13 0-.216-.005h-.016c-1.539.007-2.524.539-3.186 1.732l-.02.038 3.212-.003 3.215.003-.02-.038c-.633-1.14-1.558-1.674-2.97-1.727ZM7.934 13.824c2.013 0 3.644 1.642 3.644 3.667s-1.631 3.667-3.644 3.667-3.644-1.642-3.644-3.667 1.631-3.667 3.644-3.667Zm26.13 0c2.013 0 3.644 1.642 3.644 3.667s-1.631 3.667-3.644 3.667-3.644-1.642-3.644-3.667 1.631-3.667 3.644-3.667ZM7.935 16.31c-.642 0-1.165.53-1.165 1.181 0 .652.523 1.181 1.165 1.181s1.166-.53 1.166-1.181c0-.652-.524-1.181-1.166-1.181Zm26.13 0c-.642 0-1.166.53-1.166 1.181 0 .652.524 1.181 1.166 1.181.642 0 1.165-.53 1.165-1.181 0-.652-.523-1.181-1.165-1.181ZM20.592 3.774c5.115 0 9.866 2.252 13.127 6.09.662.778.204 1.965-.771 2.141l-.115.016-.12.005c-.386 0-.751-.174-1.007-.473A14.569 14.569 0 0 0 20.592 6.41c-4.327 0-8.348 1.9-11.114 5.143a1.334 1.334 0 0 1-.863.465l-.144.008-.117-.005c-1.04-.088-1.585-1.338-.888-2.158 3.26-3.837 8.012-6.09 13.126-6.09Z" fill="#59B1F4" fill-rule="nonzero"/></g></svg>