<svg width="44" height="44" xmlns="http://www.w3.org/2000/svg"><g fill="none" fill-rule="evenodd"><circle fill="#F0F3F5" cx="22" cy="22" r="22"/><path d="M23.553 21.137l.034.007c.032.012.057.04.06.076l-.002.037-1.198 4.34-.02.039a.097.097 0 01-.143 0l-.02-.04-1.198-4.339-.003-.04a.095.095 0 01.107-.079l.038.014.147.082c.24.123.506.203.787.23l.213.01.179-.007c.353-.029.682-.14.968-.315a.097.097 0 01.051-.015zm-1.198-3.33l.127.005c.621.062 1.116.574 1.18 1.218l.006.14-.006.131c-.059.645-.551 1.16-1.172 1.225l-.135.007-.126-.006c-.666-.066-1.187-.648-1.187-1.357 0-.753.588-1.364 1.313-1.364zm-1.955.167l.037.009a.096.096 0 01.053.092l-.011.04-.076.16a2.266 2.266 0 00-.174.706l-.008.189.007.184c.02.244.077.476.166.691l.073.158.011.037a.094.094 0 01-.078.102l-.037-.003-3.796-1.087-.037-.02a.1.1 0 010-.143l.037-.02 3.808-1.09a.096.096 0 01.025-.005zm3.91 0l.013.001.012.003 3.808 1.09.037.021a.1.1 0 010 .142l-.037.021-3.796 1.087-.037.003a.094.094 0 01-.077-.102l.01-.037.073-.158a2.27 2.27 0 00.166-.69l.007-.185-.007-.19a2.262 2.262 0 00-.25-.865c-.035-.066.012-.14.078-.14zm-1.955-5.14c.027 0 .053.01.071.03l.021.04 1.272 4.607h-.008l-.145-.104a2.2 2.2 0 00-1.021-.354l-.19-.008-.19.008a2.2 2.2 0 00-1.021.354l-.145.104h-.007l1.272-4.608.02-.039a.095.095 0 01.071-.03z" fill="#3154CB"/><path d="M29.873 25.143l2.13 4.258a.563.563 0 01-.41.808l-.096.008h-3.155l-1.962 2.557a.565.565 0 01-.91-.01l-.047-.076-2.019-4.036a9.51 9.51 0 001.167-.19l1.392 2.781.145.013 1.457-1.942a.566.566 0 01.347-.216l.105-.01h2.429l.076-.123-1.466-2.93c.29-.28.564-.578.817-.892zm-14.852.006c.253.313.526.61.816.89l-1.464 2.926.077.124h2.429c.142 0 .277.053.38.147l.071.078 1.458 1.942.144-.013 1.39-2.78c.382.087.772.15 1.169.19l-2.019 4.035a.564.564 0 01-.886.164l-.07-.078-1.894-2.523-3.224-.034a.565.565 0 01-.54-.727l.035-.09zM22.448 11c4.533 0 8.222 3.686 8.222 8.217 0 1.55-.433 3.038-1.235 4.327l-.177.273a8.235 8.235 0 01-6.813 3.6 8.217 8.217 0 01-5.342-1.963l.043.039a8.294 8.294 0 01-.18-.156v-.001a7.945 7.945 0 01-.438-.423 8.115 8.115 0 01-.89-1.083v-.013a8.165 8.165 0 01-1.412-4.6c0-4.53 3.688-8.217 8.222-8.217zm0 1.129c-3.911 0-7.093 3.18-7.093 7.088 0 3.909 3.182 7.089 7.093 7.089 3.91 0 7.093-3.18 7.093-7.089 0-3.909-3.182-7.088-7.093-7.088z" fill="#3154CB"/><path d="M24.95 21.587l.07.043 1.255.919a.458.458 0 01-.47.782l-.071-.043-1.255-.918a.458.458 0 01.396-.811l.075.028zm-4.767.126a.458.458 0 01-.037.586l-.062.054-1.254.919a.458.458 0 01-.604-.685l.062-.055 1.255-.918a.458.458 0 01.64.099zm6.191-6.4a.458.458 0 01-.037.586l-.062.054-1.254.919a.458.458 0 01-.604-.685l.062-.055 1.255-.918a.458.458 0 01.64.099zm-7.615-.159l.07.043 1.255.918a.458.458 0 01-.47.783l-.071-.043-1.255-.918a.458.458 0 01.396-.811l.075.028z" fill="#F14D78" fill-rule="nonzero"/></g></svg>