<svg width="44" height="44" xmlns="http://www.w3.org/2000/svg"><g fill="none" fill-rule="evenodd"><circle cx="22" cy="22" r="22" fill="#F0F3F5"/><path d="M15.082 28.385A8.845 8.845 0 0022 31.708a8.845 8.845 0 006.918-3.323h1.594A10.145 10.145 0 0122 33c-3.564 0-6.7-1.837-8.512-4.615h1.594zM31.047 18.23h-1.481a8.899 8.899 0 00-3.873-3.442v-1.404a10.19 10.19 0 015.354 4.846zm-12.74-4.846v1.404a8.899 8.899 0 00-3.873 3.442h-1.48a10.19 10.19 0 015.354-4.846z" fill="#F14D78"/><g transform="translate(10 19.154)" fill="#3154CB"><circle cx="3.523" cy="2.138" r="2.138"/><path d="M.175 7.485c.502-1.913 1.653-2.87 3.453-2.87 1.785 0 2.994.942 3.625 2.825a.7.7 0 01-.664.922H.852a.7.7 0 01-.677-.877z"/></g><g transform="translate(26.615 19.154)" fill="#3154CB"><circle cx="3.523" cy="2.138" r="2.138"/><path d="M.175 7.485c.502-1.913 1.653-2.87 3.453-2.87 1.785 0 2.994.942 3.625 2.825a.7.7 0 01-.664.922H.852a.7.7 0 01-.677-.877z"/></g><g transform="translate(18.308 9)" fill="#3154CB"><circle cx="3.523" cy="2.138" r="2.138"/><path d="M.175 7.485c.502-1.913 1.653-2.87 3.453-2.87 1.785 0 2.994.942 3.625 2.825a.7.7 0 01-.664.922H.852a.7.7 0 01-.677-.877z"/></g></g></svg>