<?xml version="1.0" encoding="UTF-8"?>
<svg width="1652px" height="972px" viewBox="0 0 1652 972" version="1.1" xmlns="http://www.w3.org/2000/svg" xmlns:xlink="http://www.w3.org/1999/xlink">
    <!-- Generator: Sketch 52.6 (67491) - http://www.bohemiancoding.com/sketch -->
    <title>Artboard</title>
    <desc>Created with Sketch.</desc>
    <defs>
        <linearGradient x1="100%" y1="0%" x2="0%" y2="100%" id="linearGradient-1">
            <stop stop-color="#F14D78" offset="0%"></stop>
            <stop stop-color="#1A44B7" offset="100%"></stop>
        </linearGradient>
        <linearGradient x1="94.454147%" y1="-4.0586575%" x2="4.72293496%" y2="87.7961238%" id="linearGradient-2">
            <stop stop-color="#EC4872" offset="0%"></stop>
            <stop stop-color="#2D49D5" offset="100%"></stop>
        </linearGradient>
        <linearGradient x1="94.454147%" y1="-4.0586575%" x2="4.72293496%" y2="87.7961238%" id="linearGradient-3">
            <stop stop-color="#EC4872" offset="0%"></stop>
            <stop stop-color="#2B57D7" offset="100%"></stop>
        </linearGradient>
    </defs>
    <g id="Artboard" stroke="none" stroke-width="1" fill="none" fill-rule="evenodd">
        <g id="bg-testnet.inline">
            <path d="M1652,-1.70530257e-12 L1652,263.148876 L416.025085,964.334244 C411.123165,966.943086 403.513827,970.215086 397.969139,969.46434 C392.288106,968.68857 373.48551,958.203153 373.48551,958.203153 L0,734.312543 L0,-1.70530257e-12 L1652,-1.70530257e-12 Z" id="Path" fill="url(#linearGradient-1)"></path>
            <path d="M1652.30822,0 L1652,102 L392.554303,824.157393 C387.652383,826.767509 380.043045,830.047366 374.504849,829.289995 C368.817324,828.520104 350.014728,818.023308 350.014728,818.023308 L1.13686838e-13,617.393019 L1.13686838e-13,0 L1652.30822,0 Z" id="Path" fill="url(#linearGradient-2)"></path>
            <path d="M1470,0 L363.645733,642.438782 C359.001877,645.048954 351.783574,648.322623 346.523821,647.571494 C341.128571,646.795328 323.298379,636.304565 323.298379,636.304565 L0,459.949376 L0,0 L1470,0 Z" id="Path" fill="url(#linearGradient-3)"></path>
        </g>
    </g>
</svg>