<?xml version="1.0" encoding="UTF-8"?>
<svg width="20px" height="20px" viewBox="0 0 20 20" version="1.1" xmlns="http://www.w3.org/2000/svg" xmlns:xlink="http://www.w3.org/1999/xlink">
    <!-- Generator: Sketch 52.2 (67145) - http://www.bohemiancoding.com/sketch -->
    <title>buy-trezor.inline</title>
    <desc>Created with Sketch.</desc>
    <defs>
        <rect id="path-1" x="0" y="0" width="18" height="18"></rect>
    </defs>
    <g id="buy-trezor.inline" stroke="none" stroke-width="1" fill="none" fill-rule="evenodd">
        <g id="shopping-bag.inline" transform="translate(1.000000, 1.000000)">
            <mask id="mask-2" fill="white">
                <use xlink:href="#path-1"></use>
            </mask>
            <g id="Rectangle" opacity="0"></g>
            <path d="M17.3586507,15.6847687 L15.9693244,4.29222108 C15.9351023,4.01220703 15.6684483,3.7997589 15.3506933,3.7997589 L13.0545576,3.7997589 L13.0545576,3.43061828 C13.0547125,1.53904725 11.3192935,0 9.18621622,0 C7.05329385,0 5.31787484,1.53904725 5.31787484,3.43061828 L5.31787484,3.7997589 L3.02158429,3.7997589 C2.70382933,3.7997589 2.4371753,4.01206971 2.40295316,4.29222108 L1.01362692,15.6847687 C0.941775895,16.2740479 1.15655472,16.8648377 1.60299115,17.3059387 C2.04942754,17.7470398 2.68880872,18 3.35714716,18 L15.0149756,18 C15.683314,18 16.3226952,17.7470398 16.7692865,17.3059387 C17.2157229,16.8648377 17.4305017,16.2739105 17.3586507,15.6847687 Z M6.56226023,3.43061828 C6.56226023,2.14755251 7.73944012,1.10357666 9.18621622,1.10357666 C10.6331472,1.10357666 11.8101722,2.14755251 11.8101722,3.43061828 L11.8101722,3.7997589 L6.56226023,3.7997589 L6.56226023,3.43061828 Z M15.8431206,16.5687561 C15.6292709,16.7799683 15.3352082,16.8964233 15.0151305,16.8964233 L3.35714716,16.8964233 C3.03706942,16.8964233 2.74300671,16.7799683 2.52900214,16.5687561 C2.31530732,16.3574066 2.21635731,16.0856323 2.25088917,15.803421 L3.58013309,4.90347288 L5.31787484,4.90347288 L5.31787484,6.30958556 C5.31787484,6.61431885 5.59645242,6.86137391 5.94006755,6.86137391 C6.28368265,6.86137391 6.56226023,6.61431885 6.56226023,6.30958556 L6.56226023,4.90347288 L11.8101722,4.90347288 L11.8101722,6.30958556 C11.8101722,6.61431885 12.0887498,6.86137391 12.4323649,6.86137391 C12.7761349,6.86137391 13.0547125,6.61431885 13.0547125,6.30958556 L13.0547125,4.90347288 L14.7921446,4.90347288 L16.1213885,15.803421 C16.1557655,16.0856323 16.0569703,16.3574066 15.8431206,16.5687561 Z" id="Shape" fill="#4A4A4A" fill-rule="nonzero" mask="url(#mask-2)"></path>
            <path d="M9.17971249,10.0155487 L10.0961227,10.0155487 C10.4397379,10.0155487 10.7183154,9.76849365 10.7183154,9.46376037 C10.7183154,9.15902712 10.4397379,8.91197205 10.0961227,8.91197205 L9.80206,8.91197205 L9.80206,8.69869997 C9.80206,8.39396668 9.52332759,8.14691162 9.17971249,8.14691162 C8.83609735,8.14691162 8.55751977,8.39396668 8.55751977,8.69869997 L8.55751977,9.03543089 C8.01832742,9.25968934 7.64126439,9.76560975 7.64126439,10.3526916 C7.64126439,11.1472778 8.33143681,11.7935486 9.17971249,11.7935486 C9.33920935,11.7935486 9.47393004,11.9479065 9.47393004,12.1306915 C9.47393004,12.3136139 9.33920935,12.4679718 9.17971249,12.4679718 L8.26345706,12.4679718 C7.91984196,12.4679718 7.64126439,12.7150269 7.64126439,13.0197601 C7.64126439,13.3244934 7.91984196,13.5715485 8.26345706,13.5715485 L8.55751977,13.5715485 L8.55751977,13.7846832 C8.55751977,14.0895538 8.83609735,14.3366089 9.17971249,14.3366089 C9.52332759,14.3366089 9.80206,14.0895538 9.80206,13.7846832 L9.80206,13.4480896 C10.3410976,13.2238312 10.7183154,12.7179108 10.7183154,12.1306915 C10.7183154,11.3362427 10.028143,10.6899719 9.17971249,10.6899719 C9.02037042,10.6899719 8.88564978,10.5354767 8.88564978,10.3526916 C8.88564978,10.1699066 9.02037042,10.0155487 9.17971249,10.0155487 Z" id="Path" fill="#4A4A4A" mask="url(#mask-2)"></path>
        </g>
    </g>
</svg>