<?xml version="1.0" encoding="UTF-8"?>
<svg width="20px" height="20px" viewBox="0 0 20 20" version="1.1" xmlns="http://www.w3.org/2000/svg" xmlns:xlink="http://www.w3.org/1999/xlink">
    <!-- Generator: Sketch 52.2 (67145) - http://www.bohemiancoding.com/sketch -->
    <title>how-to-restore-wallet.inline</title>
    <desc>Created with Sketch.</desc>
    <defs>
        <rect id="path-1" x="0" y="0" width="20" height="19"></rect>
    </defs>
    <g id="how-to-restore-wallet.inline" stroke="none" stroke-width="1" fill="none" fill-rule="evenodd">
        <g id="wallet-copy">
            <mask id="mask-2" fill="white">
                <use xlink:href="#path-1"></use>
            </mask>
            <g id="Rectangle" opacity="0"></g>
            <g id="wallet-(1)-copy-3" mask="url(#mask-2)">
                <g transform="translate(1.000000, 0.000000)">
                    <rect id="Rectangle" stroke="#4A4A4A" stroke-width="1.3" fill="none" x="0.65" y="6.65" width="16.7" height="11.7" rx="2"></rect>
                    <path d="M15.2132133,3.79557993 C14.8939506,2.94921212 13.8517721,2.4897832 12.8854845,2.76941082 L5.58181311,4.92595321 L15.6162379,4.92595321 L15.2132133,3.79557993 Z" id="Path" stroke="none" fill="#4A4A4A" fill-rule="evenodd"></path>
                    <path d="M4.19071338,4.32375113 L12.2114374,2.46244986 L11.7886698,1.76643904 C11.5120719,1.31403201 10.8374428,1.12720805 10.2819982,1.35249576 L3.13542729,4.23727745 L4.19071338,4.32375113 Z" id="Path" stroke="none" fill="#4A4A4A" fill-rule="evenodd" transform="translate(7.673432, 2.790322) rotate(-6.000000) translate(-7.673432, -2.790322) "></path>
                    <g id="Group-4" stroke="none" stroke-width="1" fill="none" fill-rule="evenodd" transform="translate(4.000000, 9.000000)">
                        <path d="M5.14285714,0 C3.01285045,0 1.28571429,1.70499339 1.28571429,3.80769231 L0,3.80769231 L1.71427902,5.49999339 L3.42857813,3.80769231 L2.14286384,3.80769231 C2.14286384,2.17250661 3.48643527,0.846160457 5.14285714,0.846160457 C6.79927902,0.846160457 8.14285045,2.17250661 8.14285045,3.80769231 C8.14285045,5.442878 6.79927902,6.76922416 5.14285714,6.76922416 C4.49357143,6.76922416 3.89571429,6.56402524 3.40286384,6.21710877 L2.79642857,6.82423738 C3.44786384,7.31923738 4.2599933,7.61538462 5.14285714,7.61538462 C7.27286384,7.61538462 9,5.91039123 9,3.80769231 C9,1.70499339 7.27286384,0 5.14285714,0 Z" id="Path" fill="#4A4A4A"></path>
                        <path d="M6.23076923,3.80769231 C6.23076923,3.2339549 5.76606944,2.76923077 5.19230769,2.76923077 C4.61854595,2.76923077 4.15384615,3.2339549 4.15384615,3.80769231 C4.15384615,4.38142971 4.61854595,4.84615385 5.19230769,4.84615385 C5.76606944,4.84615385 6.23076923,4.38142971 6.23076923,3.80769231 Z" id="Path" fill="#4A4A4A"></path>
                    </g>
                </g>
            </g>
        </g>
    </g>
</svg>