<?xml version="1.0" encoding="UTF-8"?>
<svg width="20px" height="20px" viewBox="0 0 20 20" version="1.1" xmlns="http://www.w3.org/2000/svg" xmlns:xlink="http://www.w3.org/1999/xlink">
    <!-- Generator: Sketch 52.2 (67145) - http://www.bohemiancoding.com/sketch -->
    <title>how-to-create-wallet.inline</title>
    <desc>Created with Sketch.</desc>
    <defs>
        <rect id="path-1" x="0" y="0" width="20" height="19"></rect>
    </defs>
    <g id="how-to-create-wallet.inline" stroke="none" stroke-width="1" fill="none" fill-rule="evenodd">
        <g id="wallet">
            <mask id="mask-2" fill="white">
                <use xlink:href="#path-1"></use>
            </mask>
            <g id="Rectangle" opacity="0"></g>
            <g id="wallet-(1)-copy-3" mask="url(#mask-2)">
                <g transform="translate(1.000000, 0.000000)">
                    <rect id="Rectangle" stroke="#4A4A4A" stroke-width="1.3" fill="none" x="0.65" y="6.65" width="16.7" height="11.7" rx="2"></rect>
                    <path d="M15.2132133,3.79557993 C14.8939506,2.94921212 13.8517721,2.4897832 12.8854845,2.76941082 L5.58181311,4.92595321 L15.6162379,4.92595321 L15.2132133,3.79557993 Z" id="Path" stroke="none" fill="#4A4A4A" fill-rule="evenodd"></path>
                    <path d="M4.19071338,4.32375113 L12.2114374,2.46244986 L11.7886698,1.76643904 C11.5120719,1.31403201 10.8374428,1.12720805 10.2819982,1.35249576 L3.13542729,4.23727745 L4.19071338,4.32375113 Z" id="Path" stroke="none" fill="#4A4A4A" fill-rule="evenodd" transform="translate(7.673432, 2.790322) rotate(-6.000000) translate(-7.673432, -2.790322) "></path>
                    <path d="M5,14.3111148 L5,16 L6.68888889,16 L11.5777778,11.0666774 L9.88888889,9.37779221 L5,14.3111148 Z M12.8666667,9.77779133 C13.0444444,9.60001394 13.0444444,9.33334786 12.8666667,9.15557047 L11.8444444,8.13333304 C11.6666667,7.95555565 11.4,7.95555565 11.2222222,8.13333304 L10.4222222,8.9333313 L12.1111111,10.6222165 L12.8666667,9.77779133 Z" id="Shape" stroke="none" fill="#4A4A4A" fill-rule="nonzero"></path>
                </g>
            </g>
        </g>
    </g>
</svg>