<svg width="48" height="48" viewBox="0 0 48 48" fill="none" xmlns="http://www.w3.org/2000/svg">
<rect width="48" height="48" rx="8" fill="#1F232E"/>
<path fill-rule="evenodd" clip-rule="evenodd" d="M20.4 13.2002C15.7608 13.2002 12 16.961 12 21.6002C12 25.2951 14.3856 28.4328 17.7005 29.557C18.6603 30.6442 19.8971 31.4811 21.3005 31.957C22.8397 33.7006 25.0914 34.8002 27.6 34.8002C32.2392 34.8002 36 31.0394 36 26.4002C36 22.7053 33.6144 19.5676 30.2995 18.4434C29.3397 17.3562 28.1029 16.5193 26.6995 16.0434C25.1603 14.2998 22.9086 13.2002 20.4 13.2002ZM25.6458 18.2287C25.1228 18.0799 24.5707 18.0002 24 18.0002C20.6863 18.0002 18 20.6865 18 24.0002C18 25.4133 18.4885 26.7123 19.3059 27.7376C19.2362 27.302 19.2 26.8554 19.2 26.4002C19.2 22.4338 21.9491 19.1095 25.6458 18.2287ZM15.6 24.0002C15.6 24.4553 15.6362 24.9021 15.7059 25.3376C14.8885 24.3123 14.4 23.0133 14.4 21.6002C14.4 18.2865 17.0863 15.6002 20.4 15.6002C20.9707 15.6002 21.5228 15.6799 22.0458 15.8287C18.3491 16.7095 15.6 20.0338 15.6 24.0002ZM33.6 26.4002C33.6 29.7139 30.9137 32.4002 27.6 32.4002C24.2863 32.4002 21.6 29.7139 21.6 26.4002C21.6 23.0865 24.2863 20.4002 27.6 20.4002C30.9137 20.4002 33.6 23.0865 33.6 26.4002Z" fill="#6B7384"/>
</svg>
