<svg width="224" height="168" viewBox="0 0 224 168" fill="none" xmlns="http://www.w3.org/2000/svg">
<g opacity="0.2">
<path d="M75.8723 165.63L222.45 82.3646" stroke="#1D45B9" stroke-width="0.5"/>
<path d="M20.1738 124.146L156.904 46.4735" stroke="#1D45B9" stroke-width="0.5"/>
<path d="M82.3307 45.0068L213.41 119.371" stroke="#1D45B9" stroke-width="0.5"/>
<path d="M0.449951 93.5731L129.886 167.007" stroke="#1D45B9" stroke-width="0.5"/>
</g>
<path d="M142.168 7.98519C138.262 6.11051 130.546 7.38433 129.664 7.95515L89.5841 29.9946C86.0561 32.0255 84.9881 34.8015 85.0001 39.4882L85.1321 123.44C85.1321 126.991 87.0881 128.277 89.8961 129.659L138.496 97.8135C142.03 95.7766 143.896 92.2315 143.896 87.5569L142.168 7.98519Z" fill="url(#paint0_linear_6939_217964)"/>
<path d="M89.8962 129.659V40.8398C89.8958 37.6353 91.6297 34.6823 94.4262 33.1247L139.12 8.16507C140.207 7.55772 141.534 7.57248 142.608 8.20387C143.681 8.83525 144.34 9.98879 144.34 11.2355V98.3599L89.8962 129.659Z" fill="url(#paint1_linear_6939_217964)"/>
<path d="M94.7141 127.106L95.5361 49.9074C95.5418 46.1639 97.5685 42.7162 100.834 40.8945L134.272 22.2138C135.522 21.5138 137.049 21.5303 138.284 22.2573C139.518 22.9843 140.275 24.3126 140.272 25.7469L139.456 101.371L94.7141 127.106Z" fill="#E0F1FF"/>
<path d="M124.276 23.9917L110.872 32.2835C110.607 32.4501 110.272 32.4589 109.998 32.3063C109.725 32.1537 109.556 31.864 109.558 31.5505V31.0878C109.552 30.7967 109.694 30.5226 109.936 30.3608L123.34 22.0689C123.605 21.9023 123.94 21.8935 124.214 22.0461C124.487 22.1987 124.656 22.4884 124.654 22.802V23.2586C124.661 23.5515 124.519 23.8278 124.276 23.9917Z" fill="url(#paint2_linear_6939_217964)"/>
<path d="M136.767 69.0566L100.171 89.5738C98.917 90.2799 97.8984 89.8273 97.8984 88.5721V71.8083C98.0408 70.3297 98.8869 69.0107 100.171 68.2661L136.767 47.7488C138.02 47.0488 139.039 47.4954 139.039 48.7505V65.5083C138.896 66.9881 138.05 68.3085 136.767 69.0566Z" fill="#FFEFE1"/>
<path d="M121.91 65.3274L103.063 75.8756C102.605 76.1351 102.238 75.9722 102.238 75.5136V73.8722C102.282 73.3282 102.591 72.8408 103.063 72.5687L121.916 62.0024C122.368 61.7489 122.736 61.9118 122.736 62.3644V64.0118C122.694 64.5599 122.385 65.0521 121.91 65.3274Z" fill="#F3994B"/>
<path d="M121.91 71.4106L103.063 81.9709C102.605 82.2244 102.238 82.0615 102.238 81.6089V79.9675C102.288 79.4301 102.596 78.9507 103.063 78.6821L121.916 68.1218C122.368 67.8683 122.736 68.0252 122.736 68.4839V70.1554C122.673 70.6804 122.367 71.1452 121.91 71.4106Z" fill="#F3994B"/>
<ellipse cx="130.592" cy="61.8784" rx="5.53112" ry="3.5455" transform="rotate(-52.81 130.592 61.8784)" fill="#F3994B"/>
<defs>
<linearGradient id="paint0_linear_6939_217964" x1="85.0001" y1="129.609" x2="143.848" y2="129.609" gradientUnits="userSpaceOnUse">
<stop stop-color="#17D0A9"/>
<stop offset="0.43" stop-color="#2395B9"/>
<stop offset="0.81" stop-color="#2D66C5"/>
<stop offset="1" stop-color="#3154CA"/>
</linearGradient>
<linearGradient id="paint1_linear_6939_217964" x1="73.7225" y1="95.1468" x2="131.059" y2="105.953" gradientUnits="userSpaceOnUse">
<stop stop-color="#3154CA"/>
<stop offset="0.02" stop-color="#3057C9"/>
<stop offset="0.26" stop-color="#2782BE"/>
<stop offset="0.38" stop-color="#2493B9"/>
<stop offset="0.43" stop-color="#219FB6"/>
<stop offset="0.54" stop-color="#1DB5B0"/>
<stop offset="0.66" stop-color="#1AC4AC"/>
<stop offset="0.8" stop-color="#18CDAA"/>
<stop offset="1" stop-color="#17D0A9"/>
</linearGradient>
<linearGradient id="paint2_linear_6939_217964" x1="111.564" y1="17.0581" x2="106.809" y2="31.6396" gradientUnits="userSpaceOnUse">
<stop stop-color="#17D0A9"/>
<stop offset="0.35" stop-color="#1DB4B0"/>
<stop offset="1" stop-color="#2783BD"/>
</linearGradient>
</defs>
</svg>
