<svg width="224" height="168" viewBox="0 0 224 168" fill="none" xmlns="http://www.w3.org/2000/svg">
<g opacity="0.2">
<path d="M75.8723 165.63L222.45 82.3646" stroke="#1D45B9" stroke-width="0.5"/>
<path d="M20.1738 124.146L156.904 46.4735" stroke="#1D45B9" stroke-width="0.5"/>
<path d="M82.3307 45.0068L213.41 119.371" stroke="#1D45B9" stroke-width="0.5"/>
<path d="M0.449951 93.5731L129.886 167.007" stroke="#1D45B9" stroke-width="0.5"/>
</g>
<path d="M139.168 5.98519C135.262 4.11051 127.546 5.38433 126.664 5.95515L86.5841 27.9946C83.0561 30.0255 81.9881 32.8015 82.0001 37.4882L82.1321 121.44C82.1321 124.991 84.0881 126.277 86.8961 127.659L135.496 95.8135C139.03 93.7766 140.896 90.2315 140.896 85.5569L139.168 5.98519Z" fill="url(#paint0_linear_6939_217994)"/>
<path d="M86.8962 127.659V38.8398C86.8958 35.6353 88.6297 32.6823 91.4262 31.1247L136.12 6.16507C137.207 5.55772 138.534 5.57248 139.608 6.20387C140.681 6.83525 141.34 7.98879 141.34 9.23546V96.3599L86.8962 127.659Z" fill="url(#paint1_linear_6939_217994)"/>
<path d="M91.7141 125.106L92.5361 47.9074C92.5418 44.1639 94.5685 40.7162 97.8341 38.8945L131.272 20.2138C132.522 19.5138 134.049 19.5303 135.284 20.2573C136.518 20.9843 137.275 22.3126 137.272 23.7469L136.456 99.3709L91.7141 125.106Z" fill="#E0F1FF"/>
<path d="M121.276 21.9917L107.872 30.2835C107.607 30.4501 107.272 30.4589 106.998 30.3063C106.725 30.1537 106.556 29.864 106.558 29.5505V29.0878C106.552 28.7967 106.694 28.5226 106.936 28.3608L120.34 20.0689C120.605 19.9023 120.94 19.8935 121.214 20.0461C121.487 20.1987 121.656 20.4884 121.654 20.802V21.2586C121.661 21.5515 121.519 21.8278 121.276 21.9917Z" fill="url(#paint2_linear_6939_217994)"/>
<path d="M116.866 72.7615L112.198 76.2044C111.548 76.6902 111.127 77.4227 111.034 78.2293V88.7443L108.7 90.4688C108.228 90.833 107.866 91.322 107.656 91.8808C107.458 92.4216 107.5 92.8662 107.764 93.0224L113.602 95.8104C113.818 95.9426 114.166 95.8585 114.532 95.5881C114.929 95.2811 115.249 94.8862 115.468 94.4344L121.3 83.0181C121.559 82.6314 121.6 82.1383 121.408 81.7143C121.21 81.4679 120.808 81.51 120.364 81.8404L118.03 83.5589V73.0439C118.03 72.425 117.508 72.2868 116.866 72.7615Z" fill="url(#paint3_linear_6939_217994)"/>
<path d="M127.246 58.0943C126.766 56.0995 124.846 55.6909 122.392 57.0909C121.372 53.7381 117.646 53.4137 113.392 56.5742C109.138 59.7347 105.412 65.4849 104.35 70.2918L104.02 70.5261C98.878 74.3175 94.612 81.66 94.612 86.8094C94.612 91.9587 98.878 93.0102 104.02 89.2128L108.688 85.7699V79.9295C108.688 77.9948 110.26 75.2669 112.186 73.8428L116.854 70.3999C118.786 68.9759 120.352 69.3905 120.352 71.3252V77.1656L127.354 72.0042C131.212 69.1561 134.428 63.6403 134.428 59.7767C134.428 55.9132 131.17 55.1081 127.246 58.0943Z" fill="url(#paint4_linear_6939_217994)"/>
<defs>
<linearGradient id="paint0_linear_6939_217994" x1="82.0001" y1="127.609" x2="140.848" y2="127.609" gradientUnits="userSpaceOnUse">
<stop stopColor="#17D0A9"/>
<stop offset="0.43" stopColor="#2395B9"/>
<stop offset="0.81" stopColor="#2D66C5"/>
<stop offset="1" stopColor="#3154CA"/>
</linearGradient>
<linearGradient id="paint1_linear_6939_217994" x1="70.7225" y1="93.1468" x2="128.059" y2="103.953" gradientUnits="userSpaceOnUse">
<stop stopColor="#3154CA"/>
<stop offset="0.02" stopColor="#3057C9"/>
<stop offset="0.26" stopColor="#2782BE"/>
<stop offset="0.38" stopColor="#2493B9"/>
<stop offset="0.43" stopColor="#219FB6"/>
<stop offset="0.54" stopColor="#1DB5B0"/>
<stop offset="0.66" stopColor="#1AC4AC"/>
<stop offset="0.8" stopColor="#18CDAA"/>
<stop offset="1" stopColor="#17D0A9"/>
</linearGradient>
<linearGradient id="paint2_linear_6939_217994" x1="108.564" y1="15.0581" x2="103.809" y2="29.6396" gradientUnits="userSpaceOnUse">
<stop stopColor="#17D0A9"/>
<stop offset="0.35" stopColor="#1DB4B0"/>
<stop offset="1" stopColor="#2783BD"/>
</linearGradient>
<linearGradient id="paint3_linear_6939_217994" x1="107.536" y1="95.8712" x2="121.534" y2="95.8712" gradientUnits="userSpaceOnUse">
<stop stopColor="#1D45B9"/>
<stop offset="1" stopColor="#2A93F2"/>
</linearGradient>
<linearGradient id="paint4_linear_6939_217994" x1="94.624" y1="91.5029" x2="134.44" y2="91.5029" gradientUnits="userSpaceOnUse">
<stop stopColor="#1D45B9"/>
<stop offset="1" stopColor="#2A93F2"/>
</linearGradient>
</defs>
</svg>
