<svg width="24" height="24" viewBox="0 0 24 24" fill="none" xmlns="http://www.w3.org/2000/svg">
<path fill-rule="evenodd" clip-rule="evenodd" d="M9.25475 4.2705C9.43616 4.10723 9.70277 4 10 4H14C14.2972 4 14.5638 4.10723 14.7452 4.2705C14.9232 4.43064 15 4.62386 15 4.8V6H9V4.8C9 4.62386 9.07682 4.43064 9.25475 4.2705ZM7 6V4.8C7 4.02136 7.34461 3.2989 7.91682 2.78391C8.48556 2.27205 9.23637 2 10 2H14C14.7636 2 15.5144 2.27205 16.0832 2.78391C16.6554 3.2989 17 4.02136 17 4.8V6H19H21C21.5523 6 22 6.44772 22 7C22 7.55228 21.5523 8 21 8H20V19.2C20 19.9786 19.6554 20.7011 19.0832 21.2161C18.5144 21.7279 17.7636 22 17 22H7C6.23637 22 5.48555 21.7279 4.91682 21.2161C4.34461 20.7011 4 19.9786 4 19.2V8H3C2.44772 8 2 7.55228 2 7C2 6.44772 2.44772 6 3 6H5H7ZM6 8V19.2C6 19.3761 6.07682 19.5694 6.25475 19.7295C6.43616 19.8928 6.70277 20 7 20H17C17.2972 20 17.5638 19.8928 17.7452 19.7295C17.9232 19.5694 18 19.3761 18 19.2V8H6Z" fill="black"/>
</svg>
