<svg width="24" height="24" viewBox="0 0 24 24" fill="none" xmlns="http://www.w3.org/2000/svg">
<path d="M12 8C12.5523 8 13 8.44772 13 9V13C13 13.5523 12.5523 14 12 14C11.4477 14 11 13.5523 11 13V9C11 8.44772 11.4477 8 12 8Z" fill="#FF1351"/>
<path d="M12 15C11.4477 15 11 15.4477 11 16C11 16.5523 11.4477 17 12 17H12.01C12.5623 17 13.01 16.5523 13.01 16C13.01 15.4477 12.5623 15 12.01 15H12Z" fill="#FF1351"/>
<path fillRule="evenodd" clipRule="evenodd" d="M10.5728 2.40352C11.0027 2.14068 11.4953 2 12 2C12.5047 2 12.9974 2.14068 13.4272 2.40352C13.8561 2.66577 14.2052 3.03883 14.4438 3.47999L14.4447 3.48165L21.6352 16.6868L21.6363 16.6888C21.8756 17.1245 21.9999 17.615 22 18.1118C22.0001 18.6093 21.8756 19.1007 21.6359 19.537C21.396 19.9735 21.0475 20.3422 20.6208 20.6012C20.1936 20.8605 19.7049 20.9994 19.2044 20.9999H4.81903C4.31781 21.0037 3.82733 20.8686 3.39752 20.6123C2.96667 20.3553 2.61416 19.987 2.37096 19.5494C2.12791 19.1122 2.00106 18.6188 2.00001 18.1189C1.99895 17.6197 2.1233 17.1267 2.36366 16.6889L2.36487 16.6867L9.55538 3.48165L9.55627 3.47999C9.79489 3.03883 10.144 2.66577 10.5728 2.40352ZM12 4C11.8684 4 11.7361 4.03645 11.6162 4.1098C11.4958 4.18341 11.3903 4.29295 11.3152 4.43201L11.3135 4.43505L4.11714 17.6509C4.04118 17.7889 3.99965 17.9491 4 18.1146C4.00035 18.2802 4.04255 18.4401 4.11904 18.5777C4.19539 18.7151 4.30158 18.8228 4.42207 18.8946C4.54213 18.9662 4.67416 19.0012 4.80531 19L4.81475 18.9999L19.2022 18.9999C19.3327 18.9998 19.4639 18.9638 19.5831 18.8915C19.7026 18.8189 19.8077 18.711 19.8831 18.5738C19.9586 18.4363 20 18.277 20 18.1123C20 17.9475 19.9585 17.7882 19.8829 17.6508L19.8808 17.647L12.6865 4.43505L12.6849 4.43201C12.6098 4.29295 12.5042 4.18341 12.3838 4.1098C12.2639 4.03645 12.1316 4 12 4Z" fill="#FF1351"/>
</svg>
