<svg width="20" height="20" viewBox="0 0 20 20" fill="none" xmlns="http://www.w3.org/2000/svg">
<path d="M10.2581 6.02431C9.79259 5.94446 9.31383 6.03194 8.90663 6.27126C8.49943 6.51057 8.19006 6.88628 8.03333 7.33184C7.85006 7.85282 7.27914 8.1266 6.75815 7.94333C6.23716 7.76005 5.96339 7.18914 6.14666 6.66815C6.46013 5.77704 7.07886 5.02562 7.89327 4.54699C8.70767 4.06836 9.66519 3.8934 10.5962 4.0531C11.5273 4.2128 12.3717 4.69685 12.9801 5.41952C13.5883 6.14204 13.9213 7.05647 13.92 8.0009C13.9195 9.53126 12.7849 10.5419 11.9747 11.082C11.5391 11.3725 11.1105 11.586 10.7949 11.7263C10.6356 11.7971 10.5015 11.8508 10.4049 11.8876C10.3565 11.906 10.3173 11.9203 10.2887 11.9305L10.254 11.9427L10.2429 11.9464L10.239 11.9477L10.2375 11.9483L10.2362 11.9487C9.71228 12.1233 9.14596 11.8402 8.97131 11.3162C8.79678 10.7926 9.07945 10.2267 9.60272 10.0517L9.61868 10.0461C9.63406 10.0406 9.65927 10.0314 9.69291 10.0186C9.76034 9.99294 9.86061 9.9529 9.98261 9.89868C10.2294 9.78898 10.5509 9.62752 10.8653 9.41794C11.5549 8.95821 11.92 8.46913 11.92 7.99999L11.92 7.9985C11.9207 7.52618 11.7542 7.06886 11.45 6.70752C11.1459 6.34618 10.7236 6.10416 10.2581 6.02431Z" fill="#6B7384"/>
<path d="M10 14C9.44771 14 9 14.4477 9 15C9 15.5523 9.44771 16 10 16H10.01C10.5623 16 11.01 15.5523 11.01 15C11.01 14.4477 10.5623 14 10.01 14H10Z" fill="#6B7384"/>
<path fill-rule="evenodd" clip-rule="evenodd" d="M0 10C0 4.47715 4.47715 0 10 0C15.5228 0 20 4.47715 20 10C20 15.5228 15.5228 20 10 20C4.47715 20 0 15.5228 0 10ZM10 2C5.58172 2 2 5.58172 2 10C2 14.4183 5.58172 18 10 18C14.4183 18 18 14.4183 18 10C18 5.58172 14.4183 2 10 2Z" fill="#6B7384"/>
</svg>
