<svg width="20" height="20" viewBox="0 0 20 20" fill="none" xmlns="http://www.w3.org/2000/svg">
<path d="M14.4437 0.000213666C12.9719 -0.0126659 11.5552 0.557188 10.4986 1.58488L10.4882 1.59513L8.79233 3.29339C8.40209 3.68419 8.40253 4.31736 8.79333 4.70761C9.18413 5.09785 9.8173 5.09741 10.2075 4.70661L11.8979 3.01382C12.5778 2.3551 13.4855 1.99191 14.4262 2.00014C15.3692 2.00839 16.2727 2.38923 16.9416 3.06286C17.6108 3.73671 17.9916 4.64971 17.9998 5.6056C18.008 6.55874 17.6452 7.4758 16.9912 8.1607L14.2346 10.9367C13.8688 11.3052 13.429 11.5897 12.9453 11.7714C12.4616 11.9531 11.945 12.0279 11.4304 11.9907C10.9159 11.9536 10.4149 11.8055 9.96161 11.5561C9.58218 11.3473 9.18432 10.9175 8.8027 10.4037C8.47338 9.96035 7.847 9.86791 7.40364 10.1972C6.96029 10.5266 6.86785 11.1529 7.19718 11.5963C7.60661 12.1475 8.21799 12.8795 8.99753 13.3084C9.70317 13.6966 10.4838 13.9277 11.2866 13.9856C12.0893 14.0435 12.8949 13.9268 13.6486 13.6437C14.4022 13.3606 15.0861 12.9177 15.654 12.3457L18.4168 9.56346L18.429 9.55102C19.4491 8.48737 20.0125 7.0642 19.9997 5.58834C19.987 4.11247 19.3992 2.69931 18.3607 1.65359C17.3221 0.607643 15.9155 0.0130932 14.4437 0.000213666Z" fill="black"/>
<path d="M8.71337 6.01444C7.91064 5.95655 7.10506 6.0732 6.35137 6.35632C5.59775 6.63941 4.91382 7.08232 4.34597 7.65431L1.5831 10.4365L1.57097 10.449C0.550803 11.5126 -0.0125242 12.9358 0.000211329 14.4117C0.0129469 15.8875 0.600757 17.3007 1.6392 18.3464C2.67787 19.3924 4.08439 19.9869 5.55623 19.9998C7.02807 20.0127 8.44471 19.4428 9.50135 18.4151L9.51174 18.4049L11.2076 16.7066C11.5979 16.3158 11.5974 15.6826 11.2066 15.2924C10.8158 14.9021 10.1826 14.9026 9.79239 15.2934L8.102 16.9862C7.42216 17.6449 6.51445 18.0081 5.57373 17.9999C4.63074 17.9916 3.72728 17.6108 3.05834 16.9371C2.38918 16.2633 2.00839 15.3503 2.00014 14.3944C1.99191 13.4413 2.35478 12.5242 3.00873 11.8393L5.76537 9.06332C6.13118 8.69481 6.57097 8.41028 7.05467 8.22858C7.53836 8.04689 8.05495 7.97215 8.56951 8.00926C9.08407 8.04637 9.585 8.1945 10.0383 8.44391C10.4178 8.65266 10.8156 9.08254 11.1972 9.5963C11.5266 10.0397 12.1529 10.1321 12.5963 9.80276C13.0397 9.47344 13.1321 8.84706 12.8028 8.4037C12.3933 7.85251 11.7819 7.12049 11.0024 6.69161C10.2968 6.30338 9.5161 6.07233 8.71337 6.01444Z" fill="black"/>
</svg>
