<svg width="244" height="260" viewBox="0 0 244 260" fill="none" xmlns="http://www.w3.org/2000/svg">
<g clip-path="url(#clip0_6993_206134)">
<g opacity="0.2">
<path d="M85.917 260.128L260.684 164.795" stroke="#1D45BA" stroke-width="0.5"/>
<path d="M19.5039 212.629L182.535 123.699" stroke="#1D45BA" stroke-width="0.5"/>
<path d="M75.7773 112.302L259.882 212.6" stroke="#1D45BA" stroke-width="0.5"/>
<path d="M-4.01074 177.628L150.317 261.705" stroke="#1D45BA" stroke-width="0.5"/>
</g>
<path d="M116.556 228.184L45.8002 187.505C42.6419 185.68 42.5617 176.094 43.7949 172.866L110.199 138.373C113.849 136.267 119.423 136.036 122.592 137.861L194.951 174.721C197.608 178.912 196.114 188.859 192.455 190.974L128.948 227.643C125.329 229.779 119.724 230.009 116.556 228.184Z" fill="url(#paint0_linear_6993_206134)"/>
<path d="M116.555 217.656L45.7997 176.926C42.6414 175.101 43.0425 171.913 46.692 169.777L110.199 133.108C113.848 131.003 119.423 130.762 122.591 132.597L193.347 173.327C196.515 175.152 196.114 178.34 192.454 180.476L128.948 217.145C125.328 219.25 119.724 219.481 116.555 217.656Z" fill="url(#paint1_linear_6993_206134)"/>
<path d="M116.455 212.933L53.9813 176.987C50.8231 175.162 51.2241 171.973 54.8737 169.837L110.289 137.831C113.939 135.725 119.513 135.495 122.682 137.32L185.155 173.267C188.324 175.091 187.923 178.28 184.263 180.416L128.838 212.422C125.198 214.578 119.624 214.758 116.455 212.933Z" fill="url(#paint2_linear_6993_206134)"/>
<path d="M118.961 198.665C145.796 198.665 167.549 188.07 167.549 175.001C167.549 161.932 145.796 151.337 118.961 151.337C92.1274 151.337 70.374 161.932 70.374 175.001C70.374 188.07 92.1274 198.665 118.961 198.665Z" fill="url(#paint3_linear_6993_206134)"/>
<path d="M148.971 187.615C132.999 195.396 107.101 195.396 91.1192 187.615C75.1372 179.834 75.1974 167.21 91.1192 159.429C107.041 151.648 132.999 151.648 148.971 159.429C164.943 167.21 164.953 179.834 148.971 187.615Z" fill="#0CDDB3"/>
<path d="M84.9121 157.745L156.219 158.336V168.223C156.219 173.497 152.73 178.761 145.772 182.782C131.845 190.804 109.276 190.804 95.3495 182.782C88.3912 178.771 84.9121 173.497 84.9121 168.223V157.745Z" fill="url(#paint4_linear_6993_206134)"/>
<path d="M120.566 179.283C140.257 179.283 156.219 170.066 156.219 158.697C156.219 147.328 140.257 138.112 120.566 138.112C100.875 138.112 84.9121 147.328 84.9121 158.697C84.9121 170.066 100.875 179.283 120.566 179.283Z" fill="#0CDDB3"/>
<path fillRule="evenodd" clipRule="evenodd" d="M98.8441 145.549C93.2988 148.75 90.0213 153.084 90.0213 157.745C90.0213 162.406 93.2988 166.739 98.8441 169.941C104.374 173.133 112.052 175.126 120.566 175.126C129.08 175.126 136.759 173.133 142.289 169.941C147.834 166.739 151.111 162.406 151.111 157.745C151.111 153.084 147.834 148.75 142.289 145.549C136.759 142.356 129.08 140.363 120.566 140.363C112.052 140.363 104.374 142.356 98.8441 145.549ZM98.2476 144.515C103.989 141.201 111.881 139.17 120.566 139.17C129.251 139.17 137.144 141.201 142.885 144.515C148.611 147.821 152.305 152.477 152.305 157.745C152.305 163.013 148.611 167.669 142.885 170.974C137.144 174.289 129.251 176.32 120.566 176.32C111.881 176.32 103.989 174.289 98.2476 170.974C92.5219 167.669 88.8281 163.013 88.8281 157.745C88.8281 152.477 92.5219 147.821 98.2476 144.515Z" fill="#0CDDB3"/>
<path d="M116.816 146.575L112.294 143.978L108.183 146.394L112.314 148.78L108.183 151.157L104.062 148.78L99.9316 151.157L104.062 153.543L99.9316 155.92L120.566 167.832L124.687 165.455L128.817 167.832L132.938 165.455L128.817 163.069L132.938 160.693L137.059 163.069L141.19 160.693L136.688 158.086C136.992 157.757 137.224 157.37 137.372 156.948C137.519 156.526 137.578 156.079 137.546 155.633C137.513 155.187 137.388 154.753 137.18 154.357C136.973 153.961 136.686 153.613 136.337 153.333C134.356 151.722 131.872 150.86 129.319 150.896C129.188 149.212 127.604 147.678 125.098 146.815C122.42 145.929 119.541 145.845 116.816 146.575ZM108.183 155.88L118.5 149.934C119.138 149.607 119.844 149.437 120.561 149.437C121.277 149.437 121.983 149.607 122.621 149.934C122.87 150.017 123.086 150.177 123.24 150.39C123.393 150.603 123.476 150.859 123.476 151.122C123.476 151.384 123.393 151.64 123.24 151.854C123.086 152.067 122.87 152.226 122.621 152.31L112.294 158.266L108.183 155.88ZM130.873 157.073L120.566 163.029L116.435 160.652L126.752 154.696C127.39 154.37 128.096 154.2 128.812 154.2C129.529 154.2 130.235 154.37 130.873 154.696C131.122 154.78 131.338 154.94 131.491 155.153C131.645 155.366 131.727 155.622 131.727 155.885C131.727 156.147 131.645 156.403 131.491 156.616C131.338 156.83 131.122 156.989 130.873 157.073Z" fill="white"/>
<path d="M84.9121 146.043L156.219 146.635V156.531C156.219 161.796 152.73 167.07 145.772 171.081C131.845 179.102 109.276 179.102 95.3495 171.081C88.3912 167.07 84.9121 161.796 84.9121 156.531V146.043Z" fill="url(#paint5_linear_6993_206134)"/>
<path d="M120.566 167.591C140.257 167.591 156.219 158.375 156.219 147.006C156.219 135.637 140.257 126.42 120.566 126.42C100.875 126.42 84.9121 135.637 84.9121 147.006C84.9121 158.375 100.875 167.591 120.566 167.591Z" fill="#0CDDB3"/>
<path fillRule="evenodd" clipRule="evenodd" d="M98.8441 133.847C93.2988 137.049 90.0213 141.382 90.0213 146.043C90.0213 150.704 93.2988 155.038 98.8441 158.239C104.374 161.432 112.052 163.425 120.566 163.425C129.08 163.425 136.759 161.432 142.289 158.239C147.834 155.038 151.111 150.704 151.111 146.043C151.111 141.382 147.834 137.049 142.289 133.847C136.759 130.655 129.08 128.661 120.566 128.661C112.052 128.661 104.374 130.655 98.8441 133.847ZM98.2476 132.814C103.989 129.499 111.881 127.468 120.566 127.468C129.251 127.468 137.144 129.499 142.885 132.814C148.611 136.119 152.305 140.775 152.305 146.043C152.305 151.311 148.611 155.967 142.885 159.273C137.144 162.587 129.251 164.618 120.566 164.618C111.881 164.618 103.989 162.587 98.2476 159.273C92.5219 155.967 88.8281 151.311 88.8281 146.043C88.8281 140.775 92.5219 136.119 98.2476 132.814Z" fill="#0CDDB3"/>
<path d="M116.816 134.883L112.314 132.276L108.183 134.663L112.314 137.039L108.183 139.425L104.062 137.039L99.9316 139.425L104.062 141.802L99.9316 144.188L120.566 156.1L124.687 153.714L128.817 156.1L132.938 153.714L128.817 151.337L132.938 148.951L137.059 151.337L141.19 148.951L136.688 146.394C136.992 146.066 137.224 145.679 137.372 145.257C137.519 144.835 137.578 144.387 137.546 143.941C137.513 143.496 137.388 143.061 137.18 142.666C136.973 142.27 136.686 141.921 136.337 141.641C134.361 140.022 131.873 139.159 129.319 139.205C129.188 137.52 127.604 135.986 125.098 135.124C122.421 134.232 119.54 134.148 116.816 134.883ZM108.183 144.188L118.5 138.232C119.138 137.906 119.844 137.735 120.561 137.735C121.277 137.735 121.983 137.906 122.621 138.232C122.869 138.318 123.084 138.48 123.236 138.693C123.388 138.907 123.469 139.163 123.469 139.425C123.469 139.688 123.388 139.944 123.236 140.157C123.084 140.371 122.869 140.532 122.621 140.619L112.294 146.565L108.183 144.188ZM130.873 145.391L120.566 151.347L116.435 148.961L126.752 143.005C127.391 142.684 128.097 142.517 128.812 142.517C129.528 142.517 130.233 142.684 130.873 143.005C131.121 143.091 131.335 143.252 131.487 143.466C131.639 143.68 131.721 143.936 131.721 144.198C131.721 144.461 131.639 144.716 131.487 144.93C131.335 145.144 131.121 145.305 130.873 145.391Z" fill="white"/>
<path d="M84.9121 134.362L156.219 134.953V144.84C156.219 150.114 152.73 155.378 145.772 159.399C131.845 167.421 109.276 167.421 95.3495 159.399C88.3912 155.388 84.9121 150.114 84.9121 144.84V134.362Z" fill="url(#paint6_linear_6993_206134)"/>
<path d="M120.566 155.89C140.257 155.89 156.219 146.673 156.219 135.304C156.219 123.935 140.257 114.719 120.566 114.719C100.875 114.719 84.9121 123.935 84.9121 135.304C84.9121 146.673 100.875 155.89 120.566 155.89Z" fill="#0CDDB3"/>
<path fillRule="evenodd" clipRule="evenodd" d="M120.566 116.97C112.675 116.97 104.815 118.709 98.8464 122.154C92.8744 125.601 90.0259 130.037 90.0271 134.351C90.0283 138.666 92.8794 143.103 98.8466 146.549C104.81 149.994 112.669 151.733 120.562 151.733C128.455 151.733 136.317 149.994 142.286 146.549C148.258 143.097 151.109 138.661 151.109 134.348C151.109 130.035 148.258 125.601 142.286 122.154C136.317 118.709 128.457 116.97 120.566 116.97ZM120.566 115.777C128.611 115.777 136.689 117.547 142.882 121.121C149.072 124.693 152.302 129.458 152.302 134.348C152.302 139.237 149.072 144.005 142.882 147.582L142.882 147.583C136.689 151.157 128.609 152.927 120.562 152.927C112.516 152.927 104.438 151.157 98.2499 147.582C92.0651 144.01 88.8353 139.242 88.834 134.352C88.8327 129.461 92.0601 124.693 98.25 121.121C104.443 117.547 112.521 115.777 120.566 115.777Z" fill="#0CDDB3"/>
<path d="M116.816 123.182L112.294 120.585L108.163 122.961L112.294 125.338L108.163 127.714L104.062 125.338L99.9316 127.714L104.062 130.1L99.9316 132.477L120.566 144.389L124.687 142.012L128.817 144.389L132.938 142.012L128.817 139.626L132.938 137.25L137.059 139.626L141.19 137.25L136.688 134.643C136.992 134.314 137.224 133.927 137.372 133.505C137.519 133.083 137.578 132.636 137.546 132.19C137.513 131.744 137.388 131.31 137.18 130.914C136.973 130.518 136.686 130.17 136.337 129.89C134.356 128.279 131.872 127.417 129.319 127.453C129.188 125.769 127.604 124.235 125.098 123.372C122.415 122.502 119.536 122.436 116.816 123.182ZM108.183 132.487L118.5 126.541C119.138 126.214 119.844 126.044 120.561 126.044C121.277 126.044 121.983 126.214 122.621 126.541C122.87 126.624 123.086 126.784 123.24 126.997C123.393 127.21 123.476 127.466 123.476 127.729C123.476 127.992 123.393 128.248 123.24 128.461C123.086 128.674 122.87 128.834 122.621 128.917L112.294 134.873L108.183 132.487ZM130.873 133.68L120.566 139.636L116.435 137.26L126.752 131.354C127.39 131.027 128.096 130.857 128.812 130.857C129.529 130.857 130.235 131.027 130.873 131.354C131.105 131.447 131.304 131.608 131.444 131.815C131.584 132.022 131.659 132.267 131.659 132.517C131.659 132.767 131.584 133.012 131.444 133.219C131.304 133.426 131.105 133.587 130.873 133.68Z" fill="white"/>
<path d="M84.9121 122.65L156.219 123.242V133.138C156.219 138.403 152.73 143.677 145.772 147.698C131.845 155.719 109.276 155.719 95.3495 147.698C88.3912 143.687 84.9121 138.403 84.9121 133.138V122.65Z" fill="url(#paint7_linear_6993_206134)"/>
<path d="M145.773 138.172C131.846 146.194 109.277 146.194 95.3503 138.172C81.4238 130.151 81.4338 117.115 95.3503 109.094C109.267 101.072 131.846 101.072 145.773 109.094C159.699 117.115 159.699 130.13 145.773 138.172Z" fill="#0CDDB3"/>
<path fillRule="evenodd" clipRule="evenodd" d="M98.8441 110.454C93.2988 113.656 90.0213 117.989 90.0213 122.65C90.0213 127.311 93.2988 131.645 98.8441 134.846C104.374 138.038 112.052 140.032 120.566 140.032C129.08 140.032 136.759 138.038 142.289 134.846C147.834 131.645 151.111 127.311 151.111 122.65C151.111 117.989 147.834 113.656 142.289 110.454C136.759 107.262 129.08 105.268 120.566 105.268C112.052 105.268 104.374 107.262 98.8441 110.454ZM98.2476 109.421C103.989 106.106 111.881 104.075 120.566 104.075C129.251 104.075 137.144 106.106 142.885 109.421C148.611 112.726 152.305 117.382 152.305 122.65C152.305 127.918 148.611 132.574 142.885 135.88C137.144 139.194 129.251 141.225 120.566 141.225C111.881 141.225 103.989 139.194 98.2476 135.88C92.5219 132.574 88.8281 127.918 88.8281 122.65C88.8281 117.382 92.5219 112.726 98.2476 109.421Z" fill="#0CDDB3"/>
<path d="M116.816 111.49L112.314 108.883L108.183 111.3L112.314 113.676L108.183 116.062L104.062 113.676L99.9316 116.062L104.062 118.439L99.9316 120.825L120.566 132.737L124.687 130.351L128.817 132.737L132.938 130.351L128.817 127.974L132.938 125.588L137.059 127.974L141.19 125.588L136.688 122.991C136.992 122.663 137.224 122.276 137.372 121.854C137.519 121.432 137.578 120.984 137.546 120.538C137.513 120.093 137.388 119.658 137.18 119.263C136.973 118.867 136.686 118.518 136.337 118.238C134.359 116.623 131.872 115.76 129.319 115.802C129.188 114.117 127.604 112.583 125.098 111.721C122.42 110.832 119.539 110.752 116.816 111.49ZM108.183 120.795L118.5 114.839C119.14 114.518 119.845 114.351 120.561 114.351C121.276 114.351 121.982 114.518 122.621 114.839C122.869 114.925 123.084 115.087 123.236 115.3C123.388 115.514 123.469 115.77 123.469 116.032C123.469 116.295 123.388 116.55 123.236 116.764C123.084 116.978 122.869 117.139 122.621 117.226L112.294 123.182L108.183 120.795ZM130.873 121.988L120.566 127.944L116.435 125.558L126.752 119.602C127.391 119.281 128.097 119.114 128.812 119.114C129.528 119.114 130.233 119.281 130.873 119.602C131.121 119.688 131.335 119.849 131.487 120.063C131.639 120.277 131.721 120.533 131.721 120.795C131.721 121.057 131.639 121.313 131.487 121.527C131.335 121.741 131.121 121.902 130.873 121.988Z" fill="white"/>
<path d="M84.9121 110.959L156.219 111.55V121.437C156.219 126.711 152.73 131.975 145.772 135.996C131.845 144.018 109.276 144.018 95.3495 135.996C88.3912 131.985 84.9121 126.711 84.9121 121.437V110.959Z" fill="url(#paint8_linear_6993_206134)"/>
<path d="M145.773 126.47C131.846 134.492 109.277 134.492 95.3503 126.47C81.4238 118.449 81.4338 105.414 95.3503 97.3922C109.267 89.3706 131.846 89.3706 145.773 97.3922C159.699 105.414 159.699 118.429 145.773 126.47Z" fill="url(#paint9_linear_6993_206134)"/>
<path opacity="0.7" d="M145.802 126.691C131.916 134.713 109.407 134.713 95.5204 126.691C88.2713 122.5 84.8123 116.955 85.1331 111.47C76.4203 94.8955 63.7771 79.3236 40.5361 37.5912C78.5559 -6.0162 138.363 -15.8828 196.024 30.5924C202.04 35.3953 161.132 101.002 156.189 111.47C156.51 116.955 153.051 122.5 145.802 126.691Z" fill="url(#paint10_linear_6993_206134)"/>
<path d="M120.566 128.937C137.765 128.937 151.707 120.888 151.707 110.959C151.707 101.03 137.765 92.9805 120.566 92.9805C103.366 92.9805 89.4238 101.03 89.4238 110.959C89.4238 120.888 103.366 128.937 120.566 128.937Z" fill="url(#paint11_linear_6993_206134)"/>
<path d="M136.257 69.4471C136.257 74.0094 134.913 77.4687 132.657 79.4741C130.8 80.9486 128.84 82.2889 126.792 83.4849C123.784 84.6881 123.443 81.7302 119.242 79.3036C109.838 73.879 102.198 60.6835 102.198 49.8243C102.198 45.6932 99.4504 45.0715 101.345 42.9959C101.837 42.4645 106.238 39.4062 106.83 38.9851C109.928 36.9797 114.329 37.1502 119.212 39.9878C128.637 45.4024 136.257 58.5979 136.257 69.4471Z" fill="url(#paint12_linear_6993_206134)"/>
<path d="M127.27 83.2069C133.916 79.3692 133.918 66.9274 127.273 55.4174C120.628 43.9074 109.853 37.6877 103.207 41.5254C96.56 45.3631 96.5586 57.8048 103.203 69.3148C109.848 80.8248 120.623 87.0445 127.27 83.2069Z" fill="url(#paint13_linear_6993_206134)"/>
<path fillRule="evenodd" clipRule="evenodd" d="M100.482 53.6456C100.482 58.0232 101.93 63.2609 104.844 68.3087C107.758 73.3565 111.57 77.2292 115.361 79.4175C119.161 81.6112 122.872 82.0802 125.659 80.4709C128.447 78.8615 129.896 75.4126 129.897 71.0246C129.897 66.647 128.45 61.4093 125.535 56.3615C122.621 51.3137 118.809 47.441 115.018 45.2527C111.218 43.059 107.507 42.5899 104.72 44.1993C101.932 45.8087 100.483 49.2576 100.482 53.6456ZM99.7905 53.6456C99.791 49.1367 101.282 45.3854 104.374 43.6002C107.466 41.8149 111.459 42.3994 115.364 44.6535C119.278 46.9128 123.171 50.8818 126.134 56.0156C129.098 61.1494 130.589 66.5052 130.589 71.0246C130.588 75.5335 129.097 79.2848 126.005 81.07C122.913 82.8553 118.92 82.2708 115.015 80.0167C111.101 77.7574 107.208 73.7884 104.245 68.6546C101.281 63.5208 99.7901 58.165 99.7905 53.6456Z" fill="#0CDDB3"/>
<path fillRule="evenodd" clipRule="evenodd" d="M133.938 104.727C133.287 104.351 132.246 104.426 131.595 104.802L128.082 106.831L124.698 106.004L126.91 104.727C127.561 104.351 127.691 103.75 127.041 103.374C126.39 102.999 125.349 102.999 124.698 103.374L121.51 105.215L107.586 101.834C106.935 101.684 106.284 101.759 105.764 102.059C105.308 102.322 105.178 102.773 105.373 103.111L111.36 111.001L108.236 112.804C107.586 113.18 107.456 113.781 108.106 114.156C108.757 114.532 109.798 114.532 110.449 114.156L112.726 112.842L114.157 114.795L110.709 116.786C110.058 117.162 109.928 117.763 110.579 118.139C111.229 118.514 112.27 118.514 112.921 118.139L115.589 116.598L120.599 123.098C120.924 123.586 121.9 123.774 122.746 123.586C122.941 123.549 123.072 123.474 123.202 123.398C123.657 123.135 123.852 122.722 123.592 122.346L118.192 115.246L128.732 109.16L141.225 112.24C141.876 112.391 142.526 112.316 143.047 112.015C143.177 111.94 143.307 111.865 143.437 111.714C143.763 111.226 143.437 110.663 142.591 110.475L131.27 107.695L133.938 106.154C134.588 105.703 134.653 105.065 133.938 104.727ZM110.123 104.501L118.907 106.643L113.897 109.535L110.123 104.501ZM115.394 111.376L116.825 113.33L125.544 108.296L122.161 107.469L115.394 111.376Z" fill="white"/>
<path d="M133.938 104.727L133.808 104.802L133.814 104.805L133.821 104.809L133.938 104.727ZM128.082 106.831L128.01 106.928L128.124 106.956L128.212 106.906L128.082 106.831ZM124.698 106.004L124.568 105.929L124.375 106.04L124.627 106.102L124.698 106.004ZM124.698 103.374L124.568 103.299L124.698 103.374ZM121.51 105.215L121.439 105.313L121.553 105.341L121.64 105.29L121.51 105.215ZM107.586 101.834L107.657 101.736L107.654 101.735L107.586 101.834ZM105.373 103.111L105.198 103.145L105.205 103.154L105.373 103.111ZM111.36 111.001L111.489 111.076L111.578 111.024L111.528 110.958L111.36 111.001ZM110.449 114.156L110.579 114.231L110.449 114.156ZM112.726 112.842L112.895 112.8L112.789 112.655L112.596 112.767L112.726 112.842ZM114.157 114.795L114.287 114.87L114.375 114.82L114.327 114.754L114.157 114.795ZM112.921 118.139L113.051 118.214L112.921 118.139ZM115.589 116.598L115.757 116.555L115.648 116.414L115.459 116.523L115.589 116.598ZM120.599 123.098L120.771 123.06L120.767 123.055L120.599 123.098ZM122.746 123.586L122.688 123.485L122.68 123.487L122.746 123.586ZM123.592 122.346L123.763 122.307L123.76 122.304L123.592 122.346ZM118.192 115.246L118.062 115.171L117.973 115.222L118.023 115.289L118.192 115.246ZM128.732 109.16L128.804 109.062L128.69 109.034L128.602 109.085L128.732 109.16ZM141.225 112.24L141.153 112.338L141.157 112.339L141.225 112.24ZM143.437 111.714L143.602 111.762L143.606 111.757L143.609 111.753L143.437 111.714ZM142.591 110.475L142.52 110.572L142.526 110.574L142.591 110.475ZM131.27 107.695L131.14 107.62L130.948 107.731L131.198 107.792L131.27 107.695ZM133.938 106.154L134.068 106.23L134.079 106.222L133.938 106.154ZM118.907 106.643L119.037 106.718L119.23 106.606L118.979 106.545L118.907 106.643ZM110.123 104.501L110.195 104.404L109.773 104.301L109.955 104.543L110.123 104.501ZM113.897 109.535L113.728 109.578L113.836 109.721L114.027 109.61L113.897 109.535ZM116.825 113.33L116.656 113.371L116.762 113.516L116.955 113.405L116.825 113.33ZM115.394 111.376L115.264 111.301L115.176 111.352L115.225 111.418L115.394 111.376ZM125.544 108.296L125.674 108.371L125.867 108.259L125.616 108.198L125.544 108.296ZM122.161 107.469L122.232 107.372L122.118 107.344L122.031 107.394L122.161 107.469ZM131.725 104.877C132.324 104.531 133.247 104.478 133.808 104.802L134.068 104.652C133.327 104.224 132.168 104.321 131.465 104.727L131.725 104.877ZM128.212 106.906L131.725 104.877L131.465 104.727L127.952 106.756L128.212 106.906ZM124.627 106.102L128.01 106.928L128.153 106.733L124.77 105.906L124.627 106.102ZM126.781 104.652L124.568 105.929L124.828 106.079L127.04 104.802L126.781 104.652ZM126.911 103.449C127.472 103.773 127.379 104.306 126.781 104.652L127.04 104.802C127.743 104.396 127.911 103.727 127.17 103.299L126.911 103.449ZM124.828 103.449C125.407 103.115 126.332 103.115 126.911 103.449L127.17 103.299C126.448 102.882 125.291 102.882 124.568 103.299L124.828 103.449ZM121.64 105.29L124.828 103.449L124.568 103.299L121.38 105.14L121.64 105.29ZM107.514 101.932L121.439 105.313L121.581 105.117L107.657 101.736L107.514 101.932ZM105.894 102.134C106.363 101.863 106.936 101.798 107.517 101.932L107.654 101.735C106.934 101.569 106.205 101.654 105.634 101.984L105.894 102.134ZM105.548 103.078C105.371 102.772 105.494 102.365 105.894 102.134L105.634 101.984C105.122 102.28 104.985 102.774 105.199 103.145L105.548 103.078ZM111.528 110.958L105.542 103.069L105.205 103.154L111.191 111.043L111.528 110.958ZM108.366 112.879L111.489 111.076L111.23 110.926L108.106 112.729L108.366 112.879ZM108.236 114.081C107.675 113.758 107.768 113.225 108.366 112.879L108.106 112.729C107.404 113.135 107.236 113.804 107.976 114.231L108.236 114.081ZM110.319 114.081C109.74 114.416 108.815 114.416 108.236 114.081L107.976 114.231C108.699 114.649 109.856 114.649 110.579 114.231L110.319 114.081ZM112.596 112.767L110.319 114.081L110.579 114.231L112.856 112.917L112.596 112.767ZM114.327 114.754L112.895 112.8L112.557 112.883L113.988 114.836L114.327 114.754ZM110.839 116.861L114.287 114.87L114.028 114.72L110.579 116.711L110.839 116.861ZM110.709 118.064C110.148 117.74 110.24 117.207 110.839 116.861L110.579 116.711C109.876 117.117 109.708 117.786 110.449 118.214L110.709 118.064ZM112.791 118.064C112.212 118.398 111.288 118.398 110.709 118.064L110.449 118.214C111.171 118.631 112.329 118.631 113.051 118.214L112.791 118.064ZM115.459 116.523L112.791 118.064L113.051 118.214L115.719 116.673L115.459 116.523ZM120.767 123.055L115.757 116.555L115.421 116.642L120.431 123.141L120.767 123.055ZM122.68 123.487C121.909 123.658 121.052 123.483 120.77 123.06L120.428 123.136C120.796 123.69 121.891 123.89 122.812 123.685L122.68 123.487ZM123.072 123.323C122.938 123.4 122.836 123.457 122.688 123.486L122.804 123.687C123.046 123.64 123.205 123.547 123.332 123.473L123.072 123.323ZM123.421 122.386C123.652 122.718 123.48 123.087 123.072 123.323L123.332 123.473C123.834 123.183 124.053 122.726 123.763 122.307L123.421 122.386ZM118.023 115.289L123.424 122.389L123.76 122.304L118.36 115.203L118.023 115.289ZM128.602 109.085L118.062 115.171L118.321 115.321L128.862 109.235L128.602 109.085ZM141.297 112.143L128.804 109.062L128.66 109.257L141.153 112.338L141.297 112.143ZM142.917 111.94C142.447 112.211 141.874 112.276 141.293 112.142L141.157 112.339C141.877 112.505 142.605 112.42 143.177 112.09L142.917 111.94ZM143.273 111.667C143.156 111.802 143.043 111.867 142.917 111.94L143.177 112.09C143.311 112.013 143.458 111.928 143.602 111.762L143.273 111.667ZM142.526 110.574C143.258 110.736 143.562 111.231 143.266 111.676L143.609 111.753C143.963 111.221 143.617 110.589 142.657 110.376L142.526 110.574ZM131.198 107.792L142.52 110.572L142.663 110.377L131.342 107.597L131.198 107.792ZM133.808 106.079L131.14 107.62L131.4 107.77L134.068 106.229L133.808 106.079ZM133.821 104.809C134.429 105.096 134.408 105.662 133.796 106.086L134.079 106.222C134.768 105.745 134.877 105.034 134.054 104.645L133.821 104.809ZM118.979 106.545L110.195 104.404L110.052 104.599L118.836 106.74L118.979 106.545ZM114.027 109.61L119.037 106.718L118.777 106.568L113.767 109.46L114.027 109.61ZM109.955 104.543L113.728 109.578L114.066 109.493L110.292 104.459L109.955 104.543ZM116.994 113.289L115.563 111.335L115.225 111.418L116.656 113.371L116.994 113.289ZM125.414 108.221L116.695 113.255L116.955 113.405L125.674 108.371L125.414 108.221ZM122.089 107.567L125.473 108.393L125.616 108.198L122.232 107.372L122.089 107.567ZM115.524 111.451L122.291 107.544L122.031 107.394L115.264 111.301L115.524 111.451Z" fill="white"/>
</g>
<defs>
<linearGradient id="paint0_linear_6993_206134" x1="206.19" y1="240.876" x2="206.19" y2="136.14" gradientUnits="userSpaceOnUse">
<stop stopColor="#1D45BA"/>
<stop offset="0.4204" stopColor="#1D47BA"/>
<stop offset="0.5718" stopColor="#1D4EB9"/>
<stop offset="0.6797" stopColor="#1C59B8"/>
<stop offset="0.767" stopColor="#1B6AB6"/>
<stop offset="0.8417" stopColor="#1A80B3"/>
<stop offset="0.9079" stopColor="#199CB0"/>
<stop offset="0.9663" stopColor="#18BBAD"/>
<stop offset="1" stopColor="#17D1AA"/>
</linearGradient>
<linearGradient id="paint1_linear_6993_206134" x1="114.325" y1="141.992" x2="115.365" y2="231.811" gradientUnits="userSpaceOnUse">
<stop offset="0.09" stopColor="#84E4A4"/>
<stop offset="0.97" stopColor="#3C53D7"/>
</linearGradient>
<linearGradient id="paint2_linear_6993_206134" x1="108.392" y1="140.736" x2="195.679" y2="184.462" gradientUnits="userSpaceOnUse">
<stop stopColor="#17D1AA"/>
<stop offset="0.0659437" stopColor="#1AC2AE"/>
<stop offset="0.2651" stopColor="#229BB8"/>
<stop offset="0.4616" stopColor="#297CC0"/>
<stop offset="0.6525" stopColor="#2D66C6"/>
<stop offset="0.8349" stopColor="#3059CA"/>
<stop offset="1" stopColor="#3154CB"/>
</linearGradient>
<linearGradient id="paint3_linear_6993_206134" x1="173.82" y1="204.512" x2="173.82" y2="151.088" gradientUnits="userSpaceOnUse">
<stop stopColor="#1D45BA"/>
<stop offset="0.4204" stopColor="#1D47BA"/>
<stop offset="0.5718" stopColor="#1D4EB9"/>
<stop offset="0.6797" stopColor="#1C59B8"/>
<stop offset="0.767" stopColor="#1B6AB6"/>
<stop offset="0.8417" stopColor="#1A80B3"/>
<stop offset="0.9079" stopColor="#199CB0"/>
<stop offset="0.9663" stopColor="#18BBAD"/>
<stop offset="1" stopColor="#17D1AA"/>
</linearGradient>
<linearGradient id="paint4_linear_6993_206134" x1="114.68" y1="159.593" x2="154.604" y2="186.072" gradientUnits="userSpaceOnUse">
<stop stopColor="#17D1AA"/>
<stop offset="0.0659437" stopColor="#1AC2AE"/>
<stop offset="0.2651" stopColor="#229BB8"/>
<stop offset="0.4616" stopColor="#297CC0"/>
<stop offset="0.6525" stopColor="#2D66C6"/>
<stop offset="0.8349" stopColor="#3059CA"/>
<stop offset="1" stopColor="#3154CB"/>
</linearGradient>
<linearGradient id="paint5_linear_6993_206134" x1="114.68" y1="147.891" x2="154.604" y2="174.371" gradientUnits="userSpaceOnUse">
<stop stopColor="#17D1AA"/>
<stop offset="0.0659437" stopColor="#1AC2AE"/>
<stop offset="0.2651" stopColor="#229BB8"/>
<stop offset="0.4616" stopColor="#297CC0"/>
<stop offset="0.6525" stopColor="#2D66C6"/>
<stop offset="0.8349" stopColor="#3059CA"/>
<stop offset="1" stopColor="#3154CB"/>
</linearGradient>
<linearGradient id="paint6_linear_6993_206134" x1="114.68" y1="136.21" x2="154.604" y2="162.69" gradientUnits="userSpaceOnUse">
<stop stopColor="#17D1AA"/>
<stop offset="0.0659437" stopColor="#1AC2AE"/>
<stop offset="0.2651" stopColor="#229BB8"/>
<stop offset="0.4616" stopColor="#297CC0"/>
<stop offset="0.6525" stopColor="#2D66C6"/>
<stop offset="0.8349" stopColor="#3059CA"/>
<stop offset="1" stopColor="#3154CB"/>
</linearGradient>
<linearGradient id="paint7_linear_6993_206134" x1="114.68" y1="124.499" x2="154.612" y2="150.975" gradientUnits="userSpaceOnUse">
<stop stopColor="#17D1AA"/>
<stop offset="0.0659437" stopColor="#1AC2AE"/>
<stop offset="0.2651" stopColor="#229BB8"/>
<stop offset="0.4616" stopColor="#297CC0"/>
<stop offset="0.6525" stopColor="#2D66C6"/>
<stop offset="0.8349" stopColor="#3059CA"/>
<stop offset="1" stopColor="#3154CB"/>
</linearGradient>
<linearGradient id="paint8_linear_6993_206134" x1="114.68" y1="112.807" x2="154.604" y2="139.287" gradientUnits="userSpaceOnUse">
<stop stopColor="#17D1AA"/>
<stop offset="0.0659437" stopColor="#1AC2AE"/>
<stop offset="0.2651" stopColor="#229BB8"/>
<stop offset="0.4616" stopColor="#297CC0"/>
<stop offset="0.6525" stopColor="#2D66C6"/>
<stop offset="0.8349" stopColor="#3059CA"/>
<stop offset="1" stopColor="#3154CB"/>
</linearGradient>
<linearGradient id="paint9_linear_6993_206134" x1="117.97" y1="89.511" x2="124.207" y2="143.416" gradientUnits="userSpaceOnUse">
<stop offset="0.09" stopColor="#84E4A4"/>
<stop offset="0.97" stopColor="#3C53D7"/>
</linearGradient>
<linearGradient id="paint10_linear_6993_206134" x1="118.581" y1="0.0170898" x2="118.581" y2="132.707" gradientUnits="userSpaceOnUse">
<stop stopColor="#52FCFF" stop-opacity="0"/>
<stop offset="1" stopColor="#52FCFF"/>
</linearGradient>
<linearGradient id="paint11_linear_6993_206134" x1="155.726" y1="133.379" x2="155.726" y2="92.7908" gradientUnits="userSpaceOnUse">
<stop stopColor="#1D45BA"/>
<stop offset="0.4204" stopColor="#1D47BA"/>
<stop offset="0.5718" stopColor="#1D4EB9"/>
<stop offset="0.6797" stopColor="#1C59B8"/>
<stop offset="0.767" stopColor="#1B6AB6"/>
<stop offset="0.8417" stopColor="#1A80B3"/>
<stop offset="0.9079" stopColor="#199CB0"/>
<stop offset="0.9663" stopColor="#18BBAD"/>
<stop offset="1" stopColor="#17D1AA"/>
</linearGradient>
<linearGradient id="paint12_linear_6993_206134" x1="138.553" y1="89.4596" x2="138.553" y2="37.4003" gradientUnits="userSpaceOnUse">
<stop stopColor="#1D45BA"/>
<stop offset="0.4204" stopColor="#1D47BA"/>
<stop offset="0.5718" stopColor="#1D4EB9"/>
<stop offset="0.6797" stopColor="#1C59B8"/>
<stop offset="0.767" stopColor="#1B6AB6"/>
<stop offset="0.8417" stopColor="#1A80B3"/>
<stop offset="0.9079" stopColor="#199CB0"/>
<stop offset="0.9663" stopColor="#18BBAD"/>
<stop offset="1" stopColor="#17D1AA"/>
</linearGradient>
<linearGradient id="paint13_linear_6993_206134" x1="102.652" y1="45.1531" x2="123.349" y2="37.4027" gradientUnits="userSpaceOnUse">
<stop stopColor="#17D1AA"/>
<stop offset="0.0659437" stopColor="#1AC2AE"/>
<stop offset="0.2651" stopColor="#229BB8"/>
<stop offset="0.4616" stopColor="#297CC0"/>
<stop offset="0.6525" stopColor="#2D66C6"/>
<stop offset="0.8349" stopColor="#3059CA"/>
<stop offset="1" stopColor="#3154CB"/>
</linearGradient>
<clipPath id="clip0_6993_206134">
<rect width="244" height="260" fill="white"/>
</clipPath>
</defs>
</svg>
