<svg width="248" height="207" viewBox="0 0 248 207" fill="none" xmlns="http://www.w3.org/2000/svg">
<path opacity="0.6" d="M60.4805 62.4131C74.316 70.288 74.316 83.0546 60.4805 90.9295C46.6449 98.8044 24.2125 98.8044 10.3769 90.9295C-3.45895 83.0546 -3.45895 70.288 10.3769 62.4131C24.2125 54.5382 46.6449 54.5382 60.4805 62.4131Z" fill="#52FCFF"/>
<path fill-rule="evenodd" clip-rule="evenodd" d="M37.7746 79.0644C26.0974 73.4116 16.6349 57.7166 16.6349 43.8838C16.6349 38.6965 17.9771 34.5732 20.1918 31.7136L18.3798 32.2456L22.6748 29.3194C22.742 29.2529 22.8258 29.203 22.9097 29.1531C22.9936 29.1033 23.0775 29.0534 23.1446 28.9869L23.2788 28.8539C27.1041 26.4597 32.2045 26.2602 37.7746 28.9869C49.4517 34.6397 58.9142 50.3347 58.9142 64.1675C58.9142 70.7514 56.7667 75.6727 53.277 78.4659L53.2099 78.5324C53.0085 78.6654 52.824 78.7984 52.6394 78.9314C52.4549 79.0644 52.2703 79.1974 52.069 79.3304L47.9082 82.2566L48.1095 80.86C45.0225 81.3921 41.5327 80.86 37.7746 79.0644ZM37.7746 40.3591C31.3991 37.2999 26.2317 40.8911 26.2317 48.4726C26.2317 55.9875 31.3991 64.6331 37.7746 67.7587C44.15 70.8179 49.3175 67.2267 49.3175 59.6452C49.3175 52.0638 44.15 43.4183 37.7746 40.3591Z" fill="url(#paint0_linear_1735_23204)"/>
<path fill-rule="evenodd" clip-rule="evenodd" d="M11.8701 47.4085C11.8701 33.6421 21.3326 26.9917 33.0097 32.5781C44.6198 38.1644 54.0823 53.9258 54.1494 67.7587C54.1494 81.525 44.6869 88.1754 33.0097 82.5891C21.3326 76.9362 11.8701 61.2413 11.8701 47.4085ZM21.4668 51.9307C21.4668 59.5122 26.6343 68.1577 33.0097 71.2169C39.3852 74.3426 44.5527 70.6849 44.5527 63.1034C44.5527 55.5219 39.3852 46.8764 33.0097 43.8172C26.6343 40.7581 21.4668 44.3493 21.4668 51.9307Z" fill="url(#paint1_linear_1735_23204)"/>
<ellipse cx="15.8739" cy="25.3222" rx="15.8739" ry="25.3222" transform="matrix(0.886168 -0.463365 0.471249 0.882 7 42.3318)" fill="url(#paint2_linear_1735_23204)"/>
<path fill-rule="evenodd" clip-rule="evenodd" d="M36.6351 61.7409L26.3492 55.5274C25.2205 58.2865 23.7863 61.7082 22.6077 64.4335C22.4735 64.633 22.2721 64.633 22.0037 64.5C21.601 64.3005 21.5339 64.1675 21.5339 63.7684V63.6354L25.2114 54.84L21.9366 52.8618C21.7353 52.7288 21.601 52.4627 21.601 52.1967V51.5982C21.601 51.3322 21.7353 51.2657 21.9366 51.3322L25.7219 53.6188L26.9739 50.6245L23.7486 48.672C23.5472 48.539 23.413 48.273 23.413 48.007V47.3419C23.413 47.0759 23.5472 47.0094 23.7486 47.0759L27.5064 49.3508L30.4596 42.2876C30.728 41.7556 31.3991 41.3566 32.0031 41.7556C32.6742 42.1546 33.0097 42.9527 33.2111 43.7507L36.2819 54.6632L39.7878 56.7855C39.9892 56.9185 40.1234 57.1845 40.1234 57.4506V58.0491C40.1234 58.3816 39.9892 58.5146 39.7878 58.3816L36.8233 56.587L38.0906 61.0906L41.5327 63.1699C41.734 63.3029 41.8683 63.5689 41.8683 63.8349V64.4335C41.9354 64.6995 41.734 64.8325 41.5327 64.6995L38.6092 62.9335L41.8011 74.2761C42.0025 74.8081 42.2709 75.6727 41.734 75.8057C40.9958 76.0052 40.6603 75.4731 40.526 75.0076L36.6351 61.7409ZM34.9799 55.4711L36.2058 59.952L26.9759 54.3763L28.1893 51.3603L34.9799 55.4711ZM34.4565 53.5581L28.7057 50.0768L31.0635 44.2163C31.3991 43.2852 31.7346 43.6842 32.1373 45.0808L34.4565 53.5581Z" fill="white"/>
<path opacity="0.6" d="M218.602 174.565C232.466 181.985 232.466 194.015 218.602 201.435C204.739 208.855 182.261 208.855 168.398 201.435C154.534 194.015 154.534 181.985 168.398 174.565C182.261 167.145 204.739 167.145 218.602 174.565Z" fill="#52FCFF"/>
<path opacity="0.6" d="M246.735 98.005L227.37 100.395L163.312 63.4434C158.933 60.9163 153.536 60.9163 149.158 63.4434L46.4019 122.717L12.6531 126.88L13.7691 145.346C13.7691 147.563 14.8676 149.78 17.0647 151.049L22.8812 154.403L97.6536 197.533C99.5239 198.613 101.649 199.061 103.73 198.878C105.207 198.748 106.661 198.3 107.99 197.533L236.174 123.592L242.159 120.139C244.269 118.925 245.345 116.816 245.394 114.685L246.735 98.005Z" fill="#52FCFF"/>
<path d="M246 87.5L227.644 96.527L231.302 99.7482L109.831 170.194C108.514 170.958 107.073 171.404 105.609 171.531V189.582C107.073 189.455 108.514 189.009 109.831 188.245L242.789 111.14C244.93 109.899 246 107.725 246 105.551C247.764 99.6655 247.765 93.3885 246 87.5Z" fill="url(#paint3_linear_1735_23204)"/>
<path d="M98.1577 170.197L24.8073 128.018L27.7934 125.743L14.1186 118.072L13.8668 119.215C12.6323 124.808 12.7184 130.612 14.1186 136.171C14.1184 138.385 15.2193 140.599 17.4205 141.866L98.1577 188.292C100.031 189.371 102.161 189.817 104.245 189.633V171.537C102.161 171.722 100.031 171.276 98.1577 170.197Z" fill="url(#paint4_linear_1735_23204)"/>
<path d="M98.1577 170.197L24.8073 128.018L27.7934 125.743L14.1186 118.072L13.8668 119.215C12.6323 124.808 12.7184 130.612 14.1186 136.171C14.1184 138.385 15.2193 140.599 17.4205 141.866L98.1577 188.292C100.031 189.371 102.161 189.817 104.245 189.633V171.537C102.161 171.722 100.031 171.276 98.1577 170.197Z" fill="url(#paint5_linear_1735_23204)"/>
<path opacity="0.8" d="M14.5782 118.744L14.4664 119.252C13.255 124.747 13.3409 130.532 14.7149 135.989C14.7244 136.027 14.7294 136.065 14.7294 136.107C14.7296 138.312 15.8732 140.284 17.7886 141.388L98.4813 187.818C100.246 188.832 102.253 189.276 104.282 189.094C105.72 188.97 107.087 188.542 108.35 187.818L242.691 110.514C244.572 109.433 245.694 107.496 245.694 105.329C245.694 105.291 245.699 105.252 245.708 105.214C247.421 99.5435 247.474 93.5826 245.874 87.9153L228.491 96.3972L231.643 99.151C231.76 99.2532 231.82 99.4063 231.805 99.5595C231.789 99.7127 231.701 99.8531 231.566 99.9297L108.831 170.551C107.452 171.345 105.95 171.818 104.367 171.955C102.138 172.153 99.9355 171.668 97.9991 170.551L24.6891 128.372C24.5498 128.289 24.4596 128.145 24.4492 127.985C24.4387 127.826 24.5092 127.67 24.6372 127.574L27.0413 125.739L14.5782 118.744ZM103.393 190.096C101.502 190.096 99.6541 189.602 97.9991 188.651L17.3065 142.221C15.1065 140.954 13.7864 138.695 13.7659 136.164C12.369 130.583 12.2857 124.667 13.5246 119.047L13.7764 117.905C13.8092 117.755 13.9108 117.63 14.0503 117.57C14.1898 117.506 14.3505 117.516 14.4837 117.589L28.151 125.257C28.2922 125.337 28.384 125.484 28.3954 125.643C28.407 125.806 28.3364 125.959 28.2076 126.058L25.7968 127.899L98.4813 169.721C100.245 170.736 102.25 171.18 104.282 170.998C105.725 170.873 107.093 170.442 108.349 169.721L230.501 99.4319L227.311 96.6429C227.19 96.5376 227.13 96.378 227.152 96.2185C227.173 96.0589 227.273 95.9217 227.417 95.8515L245.964 86.8017C246.091 86.741 246.239 86.7378 246.369 86.7921C246.499 86.8495 246.597 86.9612 246.638 87.0952C248.447 93.0817 248.454 99.4127 246.658 105.402C246.633 107.885 245.335 110.103 243.173 111.347L108.831 188.651C107.446 189.445 105.944 189.917 104.366 190.052C104.041 190.08 103.717 190.096 103.393 190.096Z" fill="#52FCFF"/>
<path d="M242.929 92.9003L108.513 170.198C107.182 170.963 105.726 171.41 104.246 171.538C102.161 171.723 100.032 171.276 98.1578 170.198L17.4206 123.771C13.0183 121.238 13.0183 114.91 17.4206 112.377L149.757 36.2762C154.144 33.7523 159.55 33.7523 163.937 36.2762L242.929 81.7005C247.257 84.1926 247.257 90.4114 242.929 92.9003Z" fill="url(#paint6_linear_1735_23204)"/>
<path d="M242.929 92.9003L108.513 170.198C107.182 170.963 105.726 171.41 104.246 171.538C102.161 171.723 100.032 171.276 98.1578 170.198L17.4206 123.771C13.0183 121.238 13.0183 114.91 17.4206 112.377L149.757 36.2762C154.144 33.7523 159.55 33.7523 163.937 36.2762L242.929 81.7005C247.257 84.1926 247.257 90.4114 242.929 92.9003Z" fill="url(#paint7_linear_1735_23204)"/>
<path opacity="0.8" d="M157.003 34.7857C154.637 34.7857 152.271 35.3973 150.161 36.6172L17.9403 112.978C16.0255 114.086 14.8822 116.068 14.8822 118.277C14.8822 120.489 16.0255 122.471 17.9403 123.579L98.6065 170.166C100.371 171.184 102.375 171.629 104.406 171.447C105.848 171.322 107.215 170.89 108.471 170.166L242.769 92.6014C244.648 91.516 245.771 89.5725 245.771 87.4016C245.772 85.2276 244.649 83.284 242.769 82.1986L163.846 36.6172C161.735 35.3973 159.369 34.7857 157.003 34.7857ZM103.523 172.452C101.629 172.452 99.7802 171.956 98.1245 170.999L17.4583 124.412C15.2418 123.131 13.9184 120.838 13.9184 118.277C13.9184 115.719 15.2418 113.426 17.4583 112.145L149.679 35.7815C154.197 33.1688 159.81 33.1688 164.328 35.7815L243.251 81.3629C245.433 82.6245 246.735 84.8818 246.735 87.4016C246.734 89.9215 245.432 92.1756 243.251 93.4371L108.953 170.999C107.574 171.796 106.073 172.27 104.49 172.407C104.167 172.436 103.844 172.452 103.523 172.452Z" fill="#52FCFF"/>
<path opacity="0.8" d="M156.541 78.6179L160.404 80.7795C165.615 83.6986 172.034 83.7047 177.249 80.7918L206.634 64.3861C207.801 63.7333 207.803 62.1013 206.636 61.4455L191.599 53.024C190.888 52.6268 190.011 52.6268 189.298 53.024L156.546 71.3111C153.643 72.9307 153.641 76.9922 156.541 78.6179Z" fill="#52FCFF"/>
<path opacity="0.8" d="M152.72 86.9762C173.474 99.0354 173.474 118.585 152.72 130.645C131.967 142.699 98.3189 142.699 77.565 130.645C56.8117 118.585 56.8117 99.0354 77.565 86.9762C98.3189 74.9171 131.967 74.9171 152.72 86.9762Z" fill="#52FCFF"/>
<path d="M175.443 70.7705C179.397 72.9852 179.397 76.5761 175.443 78.7909C171.49 81.0056 165.081 81.0056 161.128 78.7909C157.175 76.5761 157.175 72.9852 161.128 70.7705C165.081 68.5558 171.49 68.5558 175.443 70.7705Z" fill="url(#paint8_linear_1735_23204)"/>
<path d="M162 178.645L225.884 179.111V186.915C225.884 191.078 222.758 195.233 216.524 198.407C204.047 204.739 183.828 204.739 171.351 198.407C165.117 195.241 162 191.078 162 186.915V178.645Z" fill="url(#paint9_linear_1735_23204)"/>
<path d="M216.526 190.629C204.05 196.933 183.831 196.933 171.354 190.629C158.877 184.324 158.886 174.08 171.354 167.775C183.822 161.471 204.05 161.471 216.526 167.775C229.003 174.08 229.003 184.308 216.526 190.629Z" fill="url(#paint10_linear_1735_23204)"/>
<path d="M193.316 193.129C208.536 193.129 220.874 186.644 220.874 178.645C220.874 170.646 208.536 164.161 193.316 164.161C178.096 164.161 165.758 170.646 165.758 178.645C165.758 186.644 178.096 193.129 193.316 193.129Z" fill="url(#paint11_linear_1735_23204)"/>
<path fill-rule="evenodd" clip-rule="evenodd" d="M205.662 173.622C205.083 173.324 204.156 173.384 203.576 173.681L200.447 175.288L197.434 174.633L199.404 173.622C199.984 173.324 200.099 172.848 199.52 172.55C198.941 172.253 198.013 172.253 197.434 172.55L194.595 174.009L182.194 171.33C181.615 171.211 181.035 171.271 180.572 171.509C180.166 171.717 180.05 172.074 180.224 172.342L185.555 178.591L182.774 180.02C182.194 180.317 182.078 180.793 182.658 181.091C183.237 181.389 184.164 181.389 184.744 181.091L186.772 180.049L188.047 181.597L184.976 183.174C184.396 183.472 184.28 183.948 184.86 184.245C185.439 184.543 186.366 184.543 186.946 184.245L189.322 183.025L193.783 188.173C194.073 188.56 194.942 188.709 195.696 188.56C195.869 188.531 195.985 188.471 196.101 188.412C196.507 188.203 196.681 187.876 196.449 187.578L191.639 181.954L201.027 177.133L212.152 179.573C212.732 179.692 213.311 179.633 213.775 179.395C213.89 179.335 214.006 179.276 214.122 179.157C214.412 178.77 214.122 178.323 213.369 178.175L203.286 175.973L205.662 174.752C206.242 174.395 206.3 173.889 205.662 173.622ZM184.454 173.443L192.276 175.139L187.815 177.431L184.454 173.443ZM189.148 178.889L190.423 180.436L198.187 176.449L195.174 175.794L189.148 178.889Z" fill="white"/>
<path d="M162 164.635L225.884 165.102V172.906C225.884 177.069 222.758 181.224 216.524 184.398C204.047 190.73 183.828 190.73 171.351 184.398C165.117 181.232 162 177.069 162 172.906V164.635Z" fill="url(#paint12_linear_1735_23204)"/>
<path d="M216.526 176.619C204.05 182.924 183.831 182.924 171.354 176.619C158.877 170.315 158.886 160.07 171.354 153.766C183.822 147.461 204.05 147.461 216.526 153.766C229.003 160.07 229.003 170.299 216.526 176.619Z" fill="url(#paint13_linear_1735_23204)"/>
<path d="M193.316 179.119C208.536 179.119 220.874 172.635 220.874 164.635C220.874 156.636 208.536 150.152 193.316 150.152C178.096 150.152 165.758 156.636 165.758 164.635C165.758 172.635 178.096 179.119 193.316 179.119Z" fill="url(#paint14_linear_1735_23204)"/>
<path fill-rule="evenodd" clip-rule="evenodd" d="M205.662 159.613C205.083 159.315 204.156 159.375 203.576 159.672L200.447 161.279L197.434 160.625L199.404 159.613C199.984 159.315 200.099 158.839 199.52 158.542C198.941 158.244 198.013 158.244 197.434 158.542L194.595 160L182.194 157.321C181.615 157.202 181.035 157.262 180.572 157.5C180.166 157.708 180.05 158.065 180.224 158.333L185.555 164.582L182.774 166.011C182.194 166.308 182.078 166.785 182.658 167.082C183.237 167.38 184.164 167.38 184.744 167.082L186.772 166.041L188.047 167.588L184.976 169.165C184.396 169.463 184.28 169.939 184.86 170.237C185.439 170.534 186.366 170.534 186.946 170.237L189.322 169.016L193.783 174.165C194.073 174.552 194.942 174.7 195.696 174.552C195.869 174.522 195.985 174.462 196.101 174.403C196.507 174.194 196.681 173.867 196.449 173.569L191.639 167.945L201.027 163.124L212.152 165.565C212.732 165.684 213.311 165.624 213.775 165.386C213.89 165.326 214.006 165.267 214.122 165.148C214.412 164.761 214.122 164.315 213.369 164.166L203.286 161.964L205.662 160.744C206.242 160.387 206.3 159.881 205.662 159.613ZM184.454 159.434L192.276 161.131L187.815 163.422L184.454 159.434ZM189.148 164.88L190.423 166.428L198.187 162.44L195.174 161.785L189.148 164.88Z" fill="white"/>
<path d="M162 150.626L225.884 151.093V158.897C225.884 163.06 222.758 167.215 216.524 170.388C204.047 176.72 183.828 176.72 171.351 170.388C165.117 167.223 162 163.06 162 158.897V150.626Z" fill="url(#paint15_linear_1735_23204)"/>
<path d="M216.526 162.61C204.05 168.914 183.831 168.914 171.354 162.61C158.877 156.305 158.886 146.061 171.354 139.756C183.822 133.452 204.05 133.452 216.526 139.756C229.003 146.061 229.003 156.29 216.526 162.61Z" fill="url(#paint16_linear_1735_23204)"/>
<path d="M193.316 165.11C208.536 165.11 220.874 158.625 220.874 150.626C220.874 142.627 208.536 136.142 193.316 136.142C178.096 136.142 165.758 142.627 165.758 150.626C165.758 158.625 178.096 165.11 193.316 165.11Z" fill="url(#paint17_linear_1735_23204)"/>
<path fill-rule="evenodd" clip-rule="evenodd" d="M205.662 145.603C205.083 145.306 204.156 145.365 203.576 145.663L200.447 147.27L197.434 146.615L199.404 145.603C199.984 145.306 200.099 144.83 199.52 144.532C198.941 144.234 198.013 144.234 197.434 144.532L194.595 145.99L182.194 143.312C181.615 143.193 181.035 143.252 180.572 143.491C180.166 143.699 180.05 144.056 180.224 144.324L185.555 150.573L182.774 152.001C182.194 152.299 182.078 152.775 182.658 153.073C183.237 153.37 184.164 153.37 184.744 153.073L186.772 152.031L188.047 153.579L184.976 155.156C184.396 155.453 184.28 155.929 184.86 156.227C185.439 156.525 186.366 156.525 186.946 156.227L189.322 155.007L193.783 160.155C194.073 160.542 194.942 160.691 195.696 160.542C195.869 160.512 195.985 160.453 196.101 160.393C196.507 160.185 196.681 159.858 196.449 159.56L191.639 153.936L201.027 149.115L212.152 151.555C212.732 151.674 213.311 151.615 213.775 151.376C213.89 151.317 214.006 151.257 214.122 151.138C214.412 150.752 214.122 150.305 213.369 150.156L203.286 147.954L205.662 146.734C206.242 146.377 206.3 145.871 205.662 145.603ZM184.454 145.425L192.276 147.121L187.815 149.412L184.454 145.425ZM189.148 150.871L190.423 152.418L198.187 148.43L195.174 147.776L189.148 150.871Z" fill="white"/>
<path d="M162 136.616L225.884 137.083V144.887C225.884 149.05 222.758 153.205 216.524 156.379C204.047 162.71 183.828 162.71 171.351 156.379C165.117 153.213 162 149.05 162 144.887V136.616Z" fill="url(#paint18_linear_1735_23204)"/>
<path d="M216.526 148.601C204.05 154.905 183.831 154.905 171.354 148.601C158.877 142.296 158.886 132.052 171.354 125.747C183.822 119.443 204.05 119.443 216.526 125.747C229.003 132.052 229.003 142.28 216.526 148.601Z" fill="url(#paint19_linear_1735_23204)"/>
<path d="M193.316 151.1C208.536 151.1 220.874 144.616 220.874 136.616C220.874 128.617 208.536 122.133 193.316 122.133C178.096 122.133 165.758 128.617 165.758 136.616C165.758 144.616 178.096 151.1 193.316 151.1Z" fill="url(#paint20_linear_1735_23204)"/>
<path fill-rule="evenodd" clip-rule="evenodd" d="M205.662 131.594C205.083 131.296 204.156 131.356 203.576 131.653L200.447 133.26L197.434 132.606L199.404 131.594C199.984 131.296 200.099 130.82 199.52 130.523C198.941 130.225 198.013 130.225 197.434 130.523L194.595 131.981L182.194 129.302C181.615 129.183 181.035 129.243 180.572 129.481C180.166 129.689 180.05 130.046 180.224 130.314L185.555 136.563L182.774 137.992C182.194 138.289 182.078 138.766 182.658 139.063C183.237 139.361 184.164 139.361 184.744 139.063L186.772 138.022L188.047 139.569L184.976 141.146C184.396 141.444 184.28 141.92 184.86 142.218C185.439 142.515 186.366 142.515 186.946 142.218L189.322 140.997L193.783 146.146C194.073 146.532 194.942 146.681 195.696 146.532C195.869 146.503 195.985 146.443 196.101 146.384C196.507 146.175 196.681 145.848 196.449 145.55L191.639 139.926L201.027 135.105L212.152 137.545C212.732 137.665 213.311 137.605 213.775 137.367C213.89 137.307 214.006 137.248 214.122 137.129C214.412 136.742 214.122 136.296 213.369 136.147L203.286 133.945L205.662 132.725C206.242 132.368 206.3 131.862 205.662 131.594ZM184.454 131.415L192.276 133.112L187.815 135.403L184.454 131.415ZM189.148 136.861L190.423 138.409L198.187 134.421L195.174 133.766L189.148 136.861Z" fill="white"/>
<path d="M162 122.607L225.884 123.074V130.878C225.884 135.041 222.758 139.196 216.524 142.37C204.047 148.701 183.828 148.701 171.351 142.37C165.117 139.204 162 135.041 162 130.878V122.607Z" fill="url(#paint21_linear_1735_23204)"/>
<path d="M216.526 134.591C204.05 140.896 183.831 140.896 171.354 134.591C158.877 128.287 158.886 118.042 171.354 111.738C183.822 105.433 204.05 105.433 216.526 111.738C229.003 118.042 229.003 128.271 216.526 134.591Z" fill="url(#paint22_linear_1735_23204)"/>
<path d="M193.316 137.091C208.536 137.091 220.874 130.607 220.874 122.607C220.874 114.608 208.536 108.124 193.316 108.124C178.096 108.124 165.758 114.608 165.758 122.607C165.758 130.607 178.096 137.091 193.316 137.091Z" fill="url(#paint23_linear_1735_23204)"/>
<path fill-rule="evenodd" clip-rule="evenodd" d="M205.662 117.585C205.083 117.287 204.156 117.347 203.576 117.644L200.447 119.251L197.434 118.597L199.404 117.585C199.984 117.287 200.099 116.811 199.52 116.513C198.941 116.216 198.013 116.216 197.434 116.513L194.595 117.972L182.194 115.293C181.615 115.174 181.035 115.234 180.572 115.472C180.166 115.68 180.05 116.037 180.224 116.305L185.555 122.554L182.774 123.983C182.194 124.28 182.078 124.757 182.658 125.054C183.237 125.352 184.164 125.352 184.744 125.054L186.772 124.013L188.047 125.56L184.976 127.137C184.396 127.435 184.28 127.911 184.86 128.208C185.439 128.506 186.366 128.506 186.946 128.208L189.322 126.988L193.783 132.137C194.073 132.523 194.942 132.672 195.696 132.523C195.869 132.494 195.985 132.434 196.101 132.375C196.507 132.166 196.681 131.839 196.449 131.541L191.639 125.917L201.027 121.096L212.152 123.536C212.732 123.655 213.311 123.596 213.775 123.358C213.89 123.298 214.006 123.239 214.122 123.12C214.412 122.733 214.122 122.287 213.369 122.138L203.286 119.936L205.662 118.716C206.242 118.359 206.3 117.853 205.662 117.585ZM184.454 117.406L192.276 119.103L187.815 121.394L184.454 117.406ZM189.148 122.852L190.423 124.399L198.187 120.412L195.174 119.757L189.148 122.852Z" fill="white"/>
<path d="M162 108.598L225.884 109.065V116.869C225.884 121.032 222.758 125.187 216.524 128.36C204.047 134.692 183.828 134.692 171.351 128.36C165.117 125.195 162 121.032 162 116.869V108.598Z" fill="url(#paint24_linear_1735_23204)"/>
<path d="M216.526 120.582C204.05 126.886 183.831 126.886 171.354 120.582C158.877 114.277 158.886 104.033 171.354 97.7283C183.822 91.4239 204.05 91.4239 216.526 97.7283C229.003 104.033 229.003 114.262 216.526 120.582Z" fill="url(#paint25_linear_1735_23204)"/>
<path d="M193.316 123.082C208.536 123.082 220.874 116.597 220.874 108.598C220.874 100.599 208.536 94.114 193.316 94.114C178.096 94.114 165.758 100.599 165.758 108.598C165.758 116.597 178.096 123.082 193.316 123.082Z" fill="url(#paint26_linear_1735_23204)"/>
<path d="M111.687 96.2663C113.928 81.4982 111.687 78.0981 111.687 78.0981L96.9869 97.8235C96.9869 97.8235 100.919 104.136 99.9415 107.686C99.5256 109.341 98.9196 110.942 98.1356 112.457C97.7974 113.055 97.9624 113.814 98.5186 114.216C98.6168 114.293 98.7247 114.355 98.8394 114.403L104.06 117.518L110.373 106.472L111.76 100.243L110.306 101.395C110.955 99.7421 111.418 98.022 111.687 96.2663Z" fill="url(#paint27_linear_1735_23204)"/>
<path d="M155.061 3.93606L150.047 1.0603C149.335 0.710134 148.594 0.425204 147.832 0.208997C146.481 -0.227039 144.857 0.00655163 143.113 1.02916L81.3826 37.0592C76.7256 39.774 72.9794 47.0257 73.0001 53.2547L73.1708 103.399C73.1708 107.136 74.5576 109.628 76.648 110.474L82.3864 113.485L86.8933 106.69L143.356 73.7328C148.013 71.018 151.759 63.7663 151.739 57.5372L151.573 9.19444L155.061 3.93606Z" fill="url(#paint28_linear_1735_23204)"/>
<path opacity="0.9" d="M157.829 10.6533C157.829 4.42425 154.021 1.56925 149.374 4.28409L87.644 40.3193C82.987 43.0341 79.2408 50.2858 79.2615 56.5149L79.4323 106.654C79.4323 112.883 83.2406 115.738 87.8872 113.023L106.955 101.894C107.47 105.039 107.101 108.265 105.889 111.211C105.118 112.94 104.337 114.456 103.633 115.722C103.334 116.276 103.446 116.963 103.904 117.393C104.362 117.823 105.052 117.89 105.584 117.555C110.034 114.648 116.232 109.036 117.635 99.8069C117.883 98.1718 118.074 96.6924 118.219 95.3168L149.617 76.9878C154.274 74.2729 158.021 67.0212 158 60.7922L157.829 10.6533Z" fill="#52FCFF"/>
<path d="M120.93 37.0847C108.824 44.4056 99.0109 60.129 99.0109 72.2038C99.0109 84.2781 108.824 88.1313 120.93 80.8104C133.036 73.4895 142.85 57.7661 142.85 45.6913C142.85 33.617 133.036 29.7633 120.93 37.0847Z" fill="url(#paint29_linear_1735_23204)"/>
<path d="M118.946 70.1745L113.217 65.8167C112.542 65.3023 112.448 64.1612 112.918 63.2336C113.413 62.2591 114.41 61.8029 115.155 62.3703L119.494 65.6703L128.515 45.3025C128.958 44.3054 129.918 43.7649 130.702 44.2367C131.436 44.6766 131.6 45.8014 131.173 46.7658L121.244 69.1823C121.031 69.6638 120.69 70.0548 120.303 70.2522C120.276 70.2664 120.276 70.2664 120.265 70.2717C119.815 70.4922 119.326 70.4633 118.946 70.1745Z" fill="white"/>
<defs>
<linearGradient id="paint0_linear_1735_23204" x1="16.635" y1="82.2569" x2="58.9142" y2="82.2569" gradientUnits="userSpaceOnUse">
<stop stop-color="#17D1AA"/>
<stop offset="0.15" stop-color="#1ACBAF"/>
<stop offset="0.37" stop-color="#21B8BC"/>
<stop offset="0.62" stop-color="#2E9BD3"/>
<stop offset="0.89" stop-color="#3F71F1"/>
<stop offset="1" stop-color="#475FFF"/>
</linearGradient>
<linearGradient id="paint1_linear_1735_23204" x1="56.0447" y1="117.246" x2="128.073" y2="19.8778" gradientUnits="userSpaceOnUse">
<stop stop-color="#244ABF"/>
<stop offset="1" stop-color="#4760FF"/>
</linearGradient>
<linearGradient id="paint2_linear_1735_23204" x1="19.3547" y1="4.01195e-06" x2="-10.6607" y2="26.4343" gradientUnits="userSpaceOnUse">
<stop stop-color="#17D1AA"/>
<stop offset="0.15" stop-color="#1ACBAF"/>
<stop offset="0.37" stop-color="#21B8BC"/>
<stop offset="0.62" stop-color="#2E9BD3"/>
<stop offset="0.89" stop-color="#3F71F1"/>
<stop offset="1" stop-color="#475FFF"/>
</linearGradient>
<linearGradient id="paint3_linear_1735_23204" x1="256.468" y1="74.8888" x2="256.468" y2="190.121" gradientUnits="userSpaceOnUse">
<stop stop-color="#1D45BA"/>
<stop offset="0.4204" stop-color="#1D47BA"/>
<stop offset="0.5718" stop-color="#1D4EB9"/>
<stop offset="0.6797" stop-color="#1C59B8"/>
<stop offset="0.767" stop-color="#1B6AB6"/>
<stop offset="0.8417" stop-color="#1A80B3"/>
<stop offset="0.9079" stop-color="#199CB0"/>
<stop offset="0.9663" stop-color="#18BBAD"/>
<stop offset="1" stop-color="#17D1AA"/>
</linearGradient>
<linearGradient id="paint4_linear_1735_23204" x1="110.133" y1="198.519" x2="110.133" y2="117.695" gradientUnits="userSpaceOnUse">
<stop stop-color="#1D45BA"/>
<stop offset="0.4204" stop-color="#1D47BA"/>
<stop offset="0.5718" stop-color="#1D4EB9"/>
<stop offset="0.6797" stop-color="#1C59B8"/>
<stop offset="0.767" stop-color="#1B6AB6"/>
<stop offset="0.8417" stop-color="#1A80B3"/>
<stop offset="0.9079" stop-color="#199CB0"/>
<stop offset="0.9663" stop-color="#18BBAD"/>
<stop offset="1" stop-color="#17D1AA"/>
</linearGradient>
<linearGradient id="paint5_linear_1735_23204" x1="110.133" y1="198.519" x2="110.133" y2="117.695" gradientUnits="userSpaceOnUse">
<stop stop-color="#1D45BA"/>
<stop offset="0.4204" stop-color="#1D47BA"/>
<stop offset="0.5718" stop-color="#1D4EB9"/>
<stop offset="0.6797" stop-color="#1C59B8"/>
<stop offset="0.767" stop-color="#1B6AB6"/>
<stop offset="0.8417" stop-color="#1A80B3"/>
<stop offset="0.9079" stop-color="#199CB0"/>
<stop offset="0.9663" stop-color="#18BBAD"/>
<stop offset="1" stop-color="#17D1AA"/>
</linearGradient>
<linearGradient id="paint6_linear_1735_23204" x1="14.1191" y1="171.579" x2="246.175" y2="171.579" gradientUnits="userSpaceOnUse">
<stop stop-color="#17D1AA"/>
<stop offset="0.15" stop-color="#1ACBAF"/>
<stop offset="0.37" stop-color="#21B8BC"/>
<stop offset="0.62" stop-color="#2E9BD3"/>
<stop offset="0.89" stop-color="#3F71F1"/>
<stop offset="1" stop-color="#475FFF"/>
</linearGradient>
<linearGradient id="paint7_linear_1735_23204" x1="14.1191" y1="171.579" x2="246.175" y2="171.579" gradientUnits="userSpaceOnUse">
<stop stop-color="#17D1AA"/>
<stop offset="0.15" stop-color="#1ACBAF"/>
<stop offset="0.37" stop-color="#21B8BC"/>
<stop offset="0.62" stop-color="#2E9BD3"/>
<stop offset="0.89" stop-color="#3F71F1"/>
<stop offset="1" stop-color="#475FFF"/>
</linearGradient>
<linearGradient id="paint8_linear_1735_23204" x1="179.715" y1="67.7082" x2="179.715" y2="80.5117" gradientUnits="userSpaceOnUse">
<stop stop-color="#1D45BA"/>
<stop offset="0.4204" stop-color="#1D47BA"/>
<stop offset="0.5718" stop-color="#1D4EB9"/>
<stop offset="0.6797" stop-color="#1C59B8"/>
<stop offset="0.767" stop-color="#1B6AB6"/>
<stop offset="0.8417" stop-color="#1A80B3"/>
<stop offset="0.9079" stop-color="#199CB0"/>
<stop offset="0.9663" stop-color="#18BBAD"/>
<stop offset="1" stop-color="#17D1AA"/>
</linearGradient>
<linearGradient id="paint9_linear_1735_23204" x1="200.946" y1="178.645" x2="193.502" y2="205.9" gradientUnits="userSpaceOnUse">
<stop stop-color="#17D1AA"/>
<stop offset="0.15" stop-color="#1ACBAF"/>
<stop offset="0.37" stop-color="#21B8BC"/>
<stop offset="0.62" stop-color="#2E9BD3"/>
<stop offset="0.89" stop-color="#3F71F1"/>
<stop offset="1" stop-color="#475FFF"/>
</linearGradient>
<linearGradient id="paint10_linear_1735_23204" x1="162" y1="195.357" x2="225.884" y2="195.357" gradientUnits="userSpaceOnUse">
<stop stop-color="#17D1AA"/>
<stop offset="0.15" stop-color="#1ACBAF"/>
<stop offset="0.37" stop-color="#21B8BC"/>
<stop offset="0.62" stop-color="#2E9BD3"/>
<stop offset="0.89" stop-color="#3F71F1"/>
<stop offset="1" stop-color="#475FFF"/>
</linearGradient>
<linearGradient id="paint11_linear_1735_23204" x1="223.344" y1="210.669" x2="245.883" y2="136.671" gradientUnits="userSpaceOnUse">
<stop stop-color="#244ABF"/>
<stop offset="1" stop-color="#4760FF"/>
</linearGradient>
<linearGradient id="paint12_linear_1735_23204" x1="200.946" y1="164.635" x2="193.502" y2="191.891" gradientUnits="userSpaceOnUse">
<stop stop-color="#17D1AA"/>
<stop offset="0.15" stop-color="#1ACBAF"/>
<stop offset="0.37" stop-color="#21B8BC"/>
<stop offset="0.62" stop-color="#2E9BD3"/>
<stop offset="0.89" stop-color="#3F71F1"/>
<stop offset="1" stop-color="#475FFF"/>
</linearGradient>
<linearGradient id="paint13_linear_1735_23204" x1="162" y1="181.348" x2="225.884" y2="181.348" gradientUnits="userSpaceOnUse">
<stop stop-color="#17D1AA"/>
<stop offset="0.15" stop-color="#1ACBAF"/>
<stop offset="0.37" stop-color="#21B8BC"/>
<stop offset="0.62" stop-color="#2E9BD3"/>
<stop offset="0.89" stop-color="#3F71F1"/>
<stop offset="1" stop-color="#475FFF"/>
</linearGradient>
<linearGradient id="paint14_linear_1735_23204" x1="223.344" y1="196.66" x2="245.883" y2="122.662" gradientUnits="userSpaceOnUse">
<stop stop-color="#244ABF"/>
<stop offset="1" stop-color="#4760FF"/>
</linearGradient>
<linearGradient id="paint15_linear_1735_23204" x1="200.946" y1="150.626" x2="193.502" y2="177.882" gradientUnits="userSpaceOnUse">
<stop stop-color="#17D1AA"/>
<stop offset="0.15" stop-color="#1ACBAF"/>
<stop offset="0.37" stop-color="#21B8BC"/>
<stop offset="0.62" stop-color="#2E9BD3"/>
<stop offset="0.89" stop-color="#3F71F1"/>
<stop offset="1" stop-color="#475FFF"/>
</linearGradient>
<linearGradient id="paint16_linear_1735_23204" x1="162" y1="167.338" x2="225.884" y2="167.338" gradientUnits="userSpaceOnUse">
<stop stop-color="#17D1AA"/>
<stop offset="0.15" stop-color="#1ACBAF"/>
<stop offset="0.37" stop-color="#21B8BC"/>
<stop offset="0.62" stop-color="#2E9BD3"/>
<stop offset="0.89" stop-color="#3F71F1"/>
<stop offset="1" stop-color="#475FFF"/>
</linearGradient>
<linearGradient id="paint17_linear_1735_23204" x1="223.344" y1="182.65" x2="245.883" y2="108.653" gradientUnits="userSpaceOnUse">
<stop stop-color="#244ABF"/>
<stop offset="1" stop-color="#4760FF"/>
</linearGradient>
<linearGradient id="paint18_linear_1735_23204" x1="200.946" y1="136.616" x2="193.502" y2="163.872" gradientUnits="userSpaceOnUse">
<stop stop-color="#17D1AA"/>
<stop offset="0.15" stop-color="#1ACBAF"/>
<stop offset="0.37" stop-color="#21B8BC"/>
<stop offset="0.62" stop-color="#2E9BD3"/>
<stop offset="0.89" stop-color="#3F71F1"/>
<stop offset="1" stop-color="#475FFF"/>
</linearGradient>
<linearGradient id="paint19_linear_1735_23204" x1="162" y1="153.329" x2="225.884" y2="153.329" gradientUnits="userSpaceOnUse">
<stop stop-color="#17D1AA"/>
<stop offset="0.15" stop-color="#1ACBAF"/>
<stop offset="0.37" stop-color="#21B8BC"/>
<stop offset="0.62" stop-color="#2E9BD3"/>
<stop offset="0.89" stop-color="#3F71F1"/>
<stop offset="1" stop-color="#475FFF"/>
</linearGradient>
<linearGradient id="paint20_linear_1735_23204" x1="223.344" y1="168.641" x2="245.883" y2="94.6428" gradientUnits="userSpaceOnUse">
<stop stop-color="#244ABF"/>
<stop offset="1" stop-color="#4760FF"/>
</linearGradient>
<linearGradient id="paint21_linear_1735_23204" x1="200.946" y1="122.607" x2="193.502" y2="149.863" gradientUnits="userSpaceOnUse">
<stop stop-color="#17D1AA"/>
<stop offset="0.15" stop-color="#1ACBAF"/>
<stop offset="0.37" stop-color="#21B8BC"/>
<stop offset="0.62" stop-color="#2E9BD3"/>
<stop offset="0.89" stop-color="#3F71F1"/>
<stop offset="1" stop-color="#475FFF"/>
</linearGradient>
<linearGradient id="paint22_linear_1735_23204" x1="162" y1="139.32" x2="225.884" y2="139.32" gradientUnits="userSpaceOnUse">
<stop stop-color="#17D1AA"/>
<stop offset="0.15" stop-color="#1ACBAF"/>
<stop offset="0.37" stop-color="#21B8BC"/>
<stop offset="0.62" stop-color="#2E9BD3"/>
<stop offset="0.89" stop-color="#3F71F1"/>
<stop offset="1" stop-color="#475FFF"/>
</linearGradient>
<linearGradient id="paint23_linear_1735_23204" x1="223.344" y1="154.631" x2="245.883" y2="80.6338" gradientUnits="userSpaceOnUse">
<stop stop-color="#244ABF"/>
<stop offset="1" stop-color="#4760FF"/>
</linearGradient>
<linearGradient id="paint24_linear_1735_23204" x1="200.946" y1="108.598" x2="193.502" y2="135.854" gradientUnits="userSpaceOnUse">
<stop stop-color="#17D1AA"/>
<stop offset="0.15" stop-color="#1ACBAF"/>
<stop offset="0.37" stop-color="#21B8BC"/>
<stop offset="0.62" stop-color="#2E9BD3"/>
<stop offset="0.89" stop-color="#3F71F1"/>
<stop offset="1" stop-color="#475FFF"/>
</linearGradient>
<linearGradient id="paint25_linear_1735_23204" x1="162" y1="125.31" x2="225.884" y2="125.31" gradientUnits="userSpaceOnUse">
<stop stop-color="#17D1AA"/>
<stop offset="0.15" stop-color="#1ACBAF"/>
<stop offset="0.37" stop-color="#21B8BC"/>
<stop offset="0.62" stop-color="#2E9BD3"/>
<stop offset="0.89" stop-color="#3F71F1"/>
<stop offset="1" stop-color="#475FFF"/>
</linearGradient>
<linearGradient id="paint26_linear_1735_23204" x1="199.359" y1="94.114" x2="187.999" y2="124.478" gradientUnits="userSpaceOnUse">
<stop stop-color="#17D1AA"/>
<stop offset="0.15" stop-color="#1ACBAF"/>
<stop offset="0.37" stop-color="#21B8BC"/>
<stop offset="0.62" stop-color="#2E9BD3"/>
<stop offset="0.89" stop-color="#3F71F1"/>
<stop offset="1" stop-color="#475FFF"/>
</linearGradient>
<linearGradient id="paint27_linear_1735_23204" x1="106.556" y1="78.0981" x2="86.4866" y2="89.3249" gradientUnits="userSpaceOnUse">
<stop stop-color="#17D1AA"/>
<stop offset="0.15" stop-color="#1ACBAF"/>
<stop offset="0.37" stop-color="#21B8BC"/>
<stop offset="0.62" stop-color="#2E9BD3"/>
<stop offset="0.89" stop-color="#3F71F1"/>
<stop offset="1" stop-color="#475FFF"/>
</linearGradient>
<linearGradient id="paint28_linear_1735_23204" x1="123.027" y1="8.99005e-06" x2="55.2331" y2="68.8699" gradientUnits="userSpaceOnUse">
<stop stop-color="#17D1AA"/>
<stop offset="0.15" stop-color="#1ACBAF"/>
<stop offset="0.37" stop-color="#21B8BC"/>
<stop offset="0.62" stop-color="#2E9BD3"/>
<stop offset="0.89" stop-color="#3F71F1"/>
<stop offset="1" stop-color="#475FFF"/>
</linearGradient>
<linearGradient id="paint29_linear_1735_23204" x1="145.679" y1="90.8371" x2="145.679" y2="33.1062" gradientUnits="userSpaceOnUse">
<stop stop-color="#1D45BA"/>
<stop offset="0.4204" stop-color="#1D47BA"/>
<stop offset="0.5718" stop-color="#1D4EB9"/>
<stop offset="0.6797" stop-color="#1C59B8"/>
<stop offset="0.767" stop-color="#1B6AB6"/>
<stop offset="0.8417" stop-color="#1A80B3"/>
<stop offset="0.9079" stop-color="#199CB0"/>
<stop offset="0.9663" stop-color="#18BBAD"/>
<stop offset="1" stop-color="#17D1AA"/>
</linearGradient>
</defs>
</svg>
