<svg width="264" height="280" viewBox="0 0 264 280" fill="none" xmlns="http://www.w3.org/2000/svg">
<g clip-path="url(#clip0_7154_206793)">
<g opacity="0.2">
<path d="M74.814 262.582L263.126 159.916" stroke="#1D45BA" stroke-width="0.5"/>
<path d="M3.25431 211.428L178.921 115.658" stroke="#1D45BA" stroke-width="0.5"/>
<path d="M63.8894 103.385L262.263 211.397" stroke="#1D45BA" stroke-width="0.5"/>
<path d="M-22.083 173.736L144.205 264.279" stroke="#1D45BA" stroke-width="0.5"/>
</g>
<path d="M212.13 58.1805L126.071 108.375H126.034L39.6151 58.8098L125.674 8.61548L212.13 58.1805Z" fill="#0CDDB3"/>
<path d="M212.13 58.1804L212.49 157.94L126.395 208.18L126.034 108.375H126.071L212.13 58.1804Z" fill="url(#paint0_linear_7154_206793)"/>
<path d="M126.034 108.375L126.394 208.18L39.9846 158.569L39.6151 58.8098L126.034 108.375Z" fill="url(#paint1_linear_7154_206793)"/>
<path d="M126.126 108.55L126.016 108.485V108.384L126.098 108.43L126.126 108.448V108.55Z" fill="url(#paint2_linear_7154_206793)"/>
<path d="M126.395 182.722V183.305L125.887 183.009L125.748 182.935L61.5826 146.104V146.094L125.748 182.898L125.923 182.991L126.395 182.722Z" fill="url(#paint3_linear_7154_206793)"/>
<path d="M125.748 182.898L125.922 182.99L125.885 183.009L125.748 183.091V182.898Z" fill="url(#paint4_linear_7154_206793)"/>
<path d="M126.367 108.588L126.478 108.643L126.404 108.69H126.367L126.127 108.551L126.016 108.486V108.236L126.367 108.032V108.588Z" fill="url(#paint5_linear_7154_206793)"/>
<path d="M190.56 145.826V145.882L184.398 149.417L190.56 145.826Z" fill="url(#paint6_linear_7154_206793)"/>
<path d="M190.837 70.4885V70.9882L190.403 70.7384L190.837 70.4885Z" fill="url(#paint7_linear_7154_206793)"/>
<path d="M190.56 145.391V145.826L184.398 149.417L126.404 183.25H126.367L125.923 182.991L125.748 182.898L61.5826 146.095V146.058L126.007 108.486H126.016L126.127 108.551L126.367 108.689H126.404L126.478 108.643L190.56 145.391Z" fill="url(#paint8_linear_7154_206793)"/>
<path d="M61.5549 146.076L61.5825 146.058V146.094L61.5549 146.076Z" fill="url(#paint9_linear_7154_206793)"/>
<path d="M126.127 108.551L126.016 108.486V108.477L126.099 108.43L126.127 108.449L126.367 108.588L126.478 108.643L126.404 108.69H126.367L126.127 108.551Z" fill="url(#paint10_linear_7154_206793)"/>
<path d="M190.938 145.604L190.56 145.826V145.391L190.938 145.604Z" fill="url(#paint11_linear_7154_206793)"/>
<path d="M126.367 108.032L126.016 108.236V108.486H126.007L61.5826 146.058L61.3147 71.275L61.638 71.4601H61.6473L126.099 33.8699L126.367 108.032Z" fill="url(#paint12_linear_7154_206793)"/>
<path d="M126.367 108.032V108.69L126.127 108.551L126.016 108.486V108.236L126.367 108.032Z" fill="url(#paint13_linear_7154_206793)"/>
<path d="M190.837 70.9881V71.1084L190.56 145.391L126.478 108.643L126.367 108.588V108.032L126.099 33.8699L190.403 70.7383L190.837 70.9881Z" fill="url(#paint14_linear_7154_206793)"/>
<path d="M126.478 108.643L126.404 108.689H126.367V108.588L126.478 108.643Z" fill="url(#paint15_linear_7154_206793)"/>
<path d="M190.938 71.0435L190.837 71.1079V70.9883L190.938 71.0435Z" fill="url(#paint16_linear_7154_206793)"/>
<path opacity="0.7" d="M224.554 139.45L198.744 154.507H198.726L172.805 139.635L198.615 124.579L224.554 139.45Z" fill="#52FCFF"/>
<path d="M224.554 139.45L224.665 169.378L198.837 184.444L198.726 154.507H198.744L224.554 139.45Z" fill="url(#paint17_linear_7154_206793)"/>
<path d="M198.726 154.507L198.837 184.444L172.916 169.563L172.805 139.635L198.726 154.507Z" fill="url(#paint18_linear_7154_206793)"/>
<path d="M152.223 93.6238L126.404 108.68H126.395L100.464 93.8089L126.284 78.7524L152.223 93.6238Z" fill="#ECBA09"/>
<path d="M152.223 93.6238L152.325 123.552L126.505 138.617L126.394 108.68H126.403L152.223 93.6238Z" fill="#E1A713"/>
<path d="M126.395 108.68L126.505 138.617L100.575 123.737L100.464 93.8088L126.395 108.68Z" fill="#F5B40F"/>
<path opacity="0.7" d="M52.9728 173.848L78.783 188.904H78.7923L104.723 174.033L78.9031 158.977L52.9728 173.848Z" fill="#52FCFF"/>
<path d="M52.9731 173.848L52.8623 203.775L78.691 218.841L78.7926 188.904H78.7833L52.9731 173.848Z" fill="url(#paint19_linear_7154_206793)"/>
<path d="M78.7923 188.904L78.6907 218.841L104.612 203.961L104.723 174.033L78.7923 188.904Z" fill="url(#paint20_linear_7154_206793)"/>
<path opacity="0.7" d="M38.368 143.383L64.1783 158.44H64.1967L90.1178 143.577L64.3076 128.512L38.368 143.383Z" fill="#52FCFF"/>
<path d="M38.3681 143.383L38.2572 173.311L64.0859 188.386L64.1968 158.44H64.1783L38.3681 143.383Z" fill="url(#paint21_linear_7154_206793)"/>
<path d="M64.1968 158.439L64.0859 188.386L90.007 173.505L90.1179 143.577L64.1968 158.439Z" fill="url(#paint22_linear_7154_206793)"/>
<path opacity="0.7" d="M56.8157 112.567L82.6259 127.623H82.6444L108.565 112.752L82.746 97.6956L56.8157 112.567Z" fill="#52FCFF"/>
<path d="M56.8157 112.567L56.7049 142.495L82.5336 157.57L82.6444 127.623H82.626L56.8157 112.567Z" fill="url(#paint23_linear_7154_206793)"/>
<path d="M82.6445 127.624L82.5336 157.57L108.455 142.689L108.566 112.752L82.6445 127.624Z" fill="url(#paint24_linear_7154_206793)"/>
</g>
<defs>
<linearGradient id="paint0_linear_7154_206793" x1="127.732" y1="65.4919" x2="278.615" y2="59.9414" gradientUnits="userSpaceOnUse">
<stop stop-color="#17D1AA"/>
<stop offset="0.0659437" stop-color="#1AC2AE"/>
<stop offset="0.2651" stop-color="#229BB8"/>
<stop offset="0.4616" stop-color="#297CC0"/>
<stop offset="0.6525" stop-color="#2D66C6"/>
<stop offset="0.8349" stop-color="#3059CA"/>
<stop offset="1" stop-color="#3154CB"/>
</linearGradient>
<linearGradient id="paint1_linear_7154_206793" x1="41.3192" y1="66.0906" x2="192.763" y2="60.4751" gradientUnits="userSpaceOnUse">
<stop stop-color="#17D1AA"/>
<stop offset="0.0659437" stop-color="#1AC2AE"/>
<stop offset="0.2651" stop-color="#229BB8"/>
<stop offset="0.4616" stop-color="#297CC0"/>
<stop offset="0.6525" stop-color="#2D66C6"/>
<stop offset="0.8349" stop-color="#3059CA"/>
<stop offset="1" stop-color="#3154CB"/>
</linearGradient>
<linearGradient id="paint2_linear_7154_206793" x1="126.016" y1="108.467" x2="126.126" y2="108.467" gradientUnits="userSpaceOnUse">
<stop stop-color="#B885D0"/>
<stop offset="1" stop-color="#6774FF"/>
</linearGradient>
<linearGradient id="paint3_linear_7154_206793" x1="61.5826" y1="164.695" x2="126.395" y2="164.695" gradientUnits="userSpaceOnUse">
<stop stop-color="#B885D0"/>
<stop offset="1" stop-color="#6774FF"/>
</linearGradient>
<linearGradient id="paint4_linear_7154_206793" x1="125.748" y1="182.99" x2="125.922" y2="182.99" gradientUnits="userSpaceOnUse">
<stop stop-color="#B885D0"/>
<stop offset="1" stop-color="#6774FF"/>
</linearGradient>
<linearGradient id="paint5_linear_7154_206793" x1="126.016" y1="108.356" x2="126.478" y2="108.356" gradientUnits="userSpaceOnUse">
<stop stop-color="#B885D0"/>
<stop offset="1" stop-color="#6774FF"/>
</linearGradient>
<linearGradient id="paint6_linear_7154_206793" x1="184.398" y1="147.621" x2="190.56" y2="147.621" gradientUnits="userSpaceOnUse">
<stop stop-color="#B885D0"/>
<stop offset="1" stop-color="#6774FF"/>
</linearGradient>
<linearGradient id="paint7_linear_7154_206793" x1="190.403" y1="70.7384" x2="190.837" y2="70.7384" gradientUnits="userSpaceOnUse">
<stop stop-color="#B885D0"/>
<stop offset="1" stop-color="#6774FF"/>
</linearGradient>
<linearGradient id="paint8_linear_7154_206793" x1="64.1155" y1="112.13" x2="286.812" y2="87.6101" gradientUnits="userSpaceOnUse">
<stop stop-color="#17D1AA"/>
<stop offset="0.0659437" stop-color="#1AC2AE"/>
<stop offset="0.2651" stop-color="#229BB8"/>
<stop offset="0.4616" stop-color="#297CC0"/>
<stop offset="0.6525" stop-color="#2D66C6"/>
<stop offset="0.8349" stop-color="#3059CA"/>
<stop offset="1" stop-color="#3154CB"/>
</linearGradient>
<linearGradient id="paint9_linear_7154_206793" x1="61.5549" y1="146.076" x2="61.5825" y2="146.076" gradientUnits="userSpaceOnUse">
<stop stop-color="#B885D0"/>
<stop offset="1" stop-color="#6774FF"/>
</linearGradient>
<linearGradient id="paint10_linear_7154_206793" x1="126.016" y1="108.56" x2="126.478" y2="108.56" gradientUnits="userSpaceOnUse">
<stop stop-color="#B885D0"/>
<stop offset="1" stop-color="#6774FF"/>
</linearGradient>
<linearGradient id="paint11_linear_7154_206793" x1="190.56" y1="145.604" x2="190.938" y2="145.604" gradientUnits="userSpaceOnUse">
<stop stop-color="#B885D0"/>
<stop offset="1" stop-color="#6774FF"/>
</linearGradient>
<linearGradient id="paint12_linear_7154_206793" x1="130.565" y1="159.917" x2="130.565" y2="33.278" gradientUnits="userSpaceOnUse">
<stop stop-color="#1D45BA"/>
<stop offset="0.4204" stop-color="#1D47BA"/>
<stop offset="0.5718" stop-color="#1D4EB9"/>
<stop offset="0.6797" stop-color="#1C59B8"/>
<stop offset="0.767" stop-color="#1B6AB6"/>
<stop offset="0.8417" stop-color="#1A80B3"/>
<stop offset="0.9079" stop-color="#199CB0"/>
<stop offset="0.9663" stop-color="#18BBAD"/>
<stop offset="1" stop-color="#17D1AA"/>
</linearGradient>
<linearGradient id="paint13_linear_7154_206793" x1="126.016" y1="108.356" x2="126.367" y2="108.356" gradientUnits="userSpaceOnUse">
<stop stop-color="#B885D0"/>
<stop offset="1" stop-color="#6774FF"/>
</linearGradient>
<linearGradient id="paint14_linear_7154_206793" x1="195.014" y1="159.169" x2="195.014" y2="33.2815" gradientUnits="userSpaceOnUse">
<stop stop-color="#1D45BA"/>
<stop offset="0.4204" stop-color="#1D47BA"/>
<stop offset="0.5718" stop-color="#1D4EB9"/>
<stop offset="0.6797" stop-color="#1C59B8"/>
<stop offset="0.767" stop-color="#1B6AB6"/>
<stop offset="0.8417" stop-color="#1A80B3"/>
<stop offset="0.9079" stop-color="#199CB0"/>
<stop offset="0.9663" stop-color="#18BBAD"/>
<stop offset="1" stop-color="#17D1AA"/>
</linearGradient>
<linearGradient id="paint15_linear_7154_206793" x1="126.367" y1="108.634" x2="126.478" y2="108.634" gradientUnits="userSpaceOnUse">
<stop stop-color="#B885D0"/>
<stop offset="1" stop-color="#6774FF"/>
</linearGradient>
<linearGradient id="paint16_linear_7154_206793" x1="190.837" y1="71.0435" x2="190.938" y2="71.0435" gradientUnits="userSpaceOnUse">
<stop stop-color="#B885D0"/>
<stop offset="1" stop-color="#6774FF"/>
</linearGradient>
<linearGradient id="paint17_linear_7154_206793" x1="211.696" y1="139.45" x2="252.276" y2="171.134" gradientUnits="userSpaceOnUse">
<stop stop-color="#0CDDB3"/>
<stop offset="1" stop-color="#4F6FC6"/>
</linearGradient>
<linearGradient id="paint18_linear_7154_206793" x1="173.316" y1="141.82" x2="218.746" y2="140.135" gradientUnits="userSpaceOnUse">
<stop stop-color="#17D1AA"/>
<stop offset="0.0659437" stop-color="#1AC2AE"/>
<stop offset="0.2651" stop-color="#229BB8"/>
<stop offset="0.4616" stop-color="#297CC0"/>
<stop offset="0.6525" stop-color="#2D66C6"/>
<stop offset="0.8349" stop-color="#3059CA"/>
<stop offset="1" stop-color="#3154CB"/>
</linearGradient>
<linearGradient id="paint19_linear_7154_206793" x1="53.3715" y1="176.041" x2="98.6251" y2="174.376" gradientUnits="userSpaceOnUse">
<stop stop-color="#17D1AA"/>
<stop offset="0.0659437" stop-color="#1AC2AE"/>
<stop offset="0.2651" stop-color="#229BB8"/>
<stop offset="0.4616" stop-color="#297CC0"/>
<stop offset="0.6525" stop-color="#2D66C6"/>
<stop offset="0.8349" stop-color="#3059CA"/>
<stop offset="1" stop-color="#3154CB"/>
</linearGradient>
<linearGradient id="paint20_linear_7154_206793" x1="91.7067" y1="174.033" x2="132.195" y2="205.888" gradientUnits="userSpaceOnUse">
<stop stop-color="#0CDDB3"/>
<stop offset="1" stop-color="#4F6FC6"/>
</linearGradient>
<linearGradient id="paint21_linear_7154_206793" x1="38.7666" y1="145.577" x2="84.0364" y2="143.911" gradientUnits="userSpaceOnUse">
<stop stop-color="#17D1AA"/>
<stop offset="0.0659437" stop-color="#1AC2AE"/>
<stop offset="0.2651" stop-color="#229BB8"/>
<stop offset="0.4616" stop-color="#297CC0"/>
<stop offset="0.6525" stop-color="#2D66C6"/>
<stop offset="0.8349" stop-color="#3059CA"/>
<stop offset="1" stop-color="#3154CB"/>
</linearGradient>
<linearGradient id="paint22_linear_7154_206793" x1="77.1019" y1="143.577" x2="117.59" y2="175.432" gradientUnits="userSpaceOnUse">
<stop stop-color="#0CDDB3"/>
<stop offset="1" stop-color="#4F6FC6"/>
</linearGradient>
<linearGradient id="paint23_linear_7154_206793" x1="57.2143" y1="114.76" x2="102.484" y2="113.095" gradientUnits="userSpaceOnUse">
<stop stop-color="#17D1AA"/>
<stop offset="0.0659437" stop-color="#1AC2AE"/>
<stop offset="0.2651" stop-color="#229BB8"/>
<stop offset="0.4616" stop-color="#297CC0"/>
<stop offset="0.6525" stop-color="#2D66C6"/>
<stop offset="0.8349" stop-color="#3059CA"/>
<stop offset="1" stop-color="#3154CB"/>
</linearGradient>
<linearGradient id="paint24_linear_7154_206793" x1="95.5496" y1="112.752" x2="136.044" y2="144.606" gradientUnits="userSpaceOnUse">
<stop stop-color="#0CDDB3"/>
<stop offset="1" stop-color="#4F6FC6"/>
</linearGradient>
<clipPath id="clip0_7154_206793">
<rect width="262.911" height="280" fill="white" transform="translate(0.544601)"/>
</clipPath>
</defs>
</svg>
