<svg width="249" height="180" viewBox="0 0 249 180" fill="none" xmlns="http://www.w3.org/2000/svg">
<path opacity="0.6" d="M60.9805 35.4131C74.816 43.288 74.816 56.0546 60.9805 63.9295C47.1449 71.8044 24.7125 71.8044 10.8769 63.9295C-2.95895 56.0546 -2.95895 43.288 10.8769 35.4131C24.7125 27.5382 47.1449 27.5382 60.9805 35.4131Z" fill="#52FCFF"/>
<path fill-rule="evenodd" clip-rule="evenodd" d="M38.2744 52.0644C26.5973 46.4116 17.1348 30.7166 17.1348 16.8838C17.1348 11.6965 18.477 7.57323 20.6916 4.71355L18.8796 5.24559L23.1747 2.31941C23.2418 2.2529 23.3257 2.20303 23.4095 2.15315C23.4934 2.10327 23.5773 2.05339 23.6444 1.98689L23.7786 1.85388C27.6039 -0.540264 32.7043 -0.739776 38.2744 1.98689C49.9515 7.63973 59.414 23.3347 59.414 37.1675C59.414 43.7514 57.2665 48.6727 53.7768 51.4659L53.7097 51.5324C53.5084 51.6654 53.3238 51.7984 53.1392 51.9314C52.9547 52.0644 52.7701 52.1974 52.5688 52.3304L48.408 55.2566L48.6093 53.86C45.5223 54.3921 42.0326 53.86 38.2744 52.0644ZM38.2744 13.3591C31.899 10.2999 26.7315 13.8911 26.7315 21.4726C26.7315 28.9875 31.899 37.6331 38.2744 40.7587C44.6498 43.8179 49.8173 40.2267 49.8173 32.6452C49.8173 25.0638 44.6498 16.4183 38.2744 13.3591Z" fill="url(#paint0_linear_16394_20929)"/>
<path fill-rule="evenodd" clip-rule="evenodd" d="M12.3701 20.4085C12.3701 6.64212 21.8326 -0.0082798 33.5097 5.57806C45.1198 11.1644 54.5823 26.9258 54.6494 40.7587C54.6494 54.525 45.1869 61.1754 33.5097 55.5891C21.8326 49.9362 12.3701 34.2413 12.3701 20.4085ZM21.9668 24.9307C21.9668 32.5122 27.1343 41.1577 33.5097 44.2169C39.8852 47.3426 45.0527 43.6849 45.0527 36.1034C45.0527 28.5219 39.8852 19.8764 33.5097 16.8172C27.1343 13.7581 21.9668 17.3493 21.9668 24.9307Z" fill="url(#paint1_linear_16394_20929)"/>
<ellipse cx="15.8739" cy="25.3222" rx="15.8739" ry="25.3222" transform="matrix(0.886168 -0.463365 0.471249 0.882 7.5 15.3318)" fill="url(#paint2_linear_16394_20929)"/>
<path fill-rule="evenodd" clip-rule="evenodd" d="M37.1353 34.7409L26.8494 28.5274C25.7207 31.2865 24.2866 34.7082 23.1079 37.4335C22.9737 37.633 22.7724 37.633 22.5039 37.5C22.1013 37.3005 22.0342 37.1675 22.0342 36.7684V36.6354L25.7116 27.84L22.4368 25.8618C22.2355 25.7288 22.1013 25.4627 22.1013 25.1967V24.5982C22.1013 24.3322 22.2355 24.2657 22.4368 24.3322L26.2222 26.6188L27.4741 23.6245L24.2488 21.672C24.0475 21.539 23.9133 21.273 23.9133 21.007V20.3419C23.9133 20.0759 24.0475 20.0094 24.2488 20.0759L28.0067 22.3508L30.9598 15.2876C31.2282 14.7556 31.8993 14.3566 32.5033 14.7556C33.1744 15.1546 33.51 15.9527 33.7113 16.7507L36.7822 27.6632L40.2881 29.7855C40.4894 29.9185 40.6236 30.1845 40.6236 30.4506V31.0491C40.6236 31.3816 40.4894 31.5146 40.2881 31.3816L37.3235 29.587L38.5909 34.0906L42.0329 36.1699C42.2343 36.3029 42.3685 36.5689 42.3685 36.8349V37.4335C42.4356 37.6995 42.2343 37.8325 42.0329 37.6995L39.1095 35.9335L42.3014 47.2761C42.5027 47.8081 42.7711 48.6727 42.2343 48.8057C41.4961 49.0052 41.1605 48.4731 41.0263 48.0076L37.1353 34.7409ZM35.4801 28.4711L36.706 32.952L27.4761 27.3763L28.6896 24.3603L35.4801 28.4711ZM34.9568 26.5581L29.2059 23.0768L31.5638 17.2163C31.8993 16.2852 32.2349 16.6842 32.6375 18.0808L34.9568 26.5581Z" fill="white"/>
<path opacity="0.6" d="M219.102 147.565C232.966 154.985 232.966 167.015 219.102 174.435C205.239 181.855 182.761 181.855 168.898 174.435C155.034 167.015 155.034 154.985 168.898 147.565C182.761 140.145 205.239 140.145 219.102 147.565Z" fill="#52FCFF"/>
<path opacity="0.6" d="M247.234 71.005L227.869 73.3947L163.811 36.4434C159.433 33.9163 154.036 33.9163 149.658 36.4434L46.9016 95.717L13.1528 99.8799L14.2689 118.346C14.2689 120.563 15.3673 122.78 17.5645 124.049L23.381 127.403L98.1534 170.533C100.024 171.613 102.149 172.061 104.23 171.878C105.707 171.748 107.161 171.3 108.49 170.533L236.674 96.5924L242.659 93.1388C244.769 91.9248 245.845 89.8162 245.894 87.6852L247.234 71.005Z" fill="#52FCFF"/>
<path d="M246.499 60.5L228.143 69.527L231.801 72.7482L110.33 143.194C109.014 143.958 107.573 144.404 106.109 144.531V162.582C107.573 162.455 109.014 162.009 110.33 161.245L243.289 84.1402C245.429 82.8988 246.499 80.7248 246.499 78.5508C248.264 72.6655 248.264 66.3885 246.499 60.5Z" fill="url(#paint3_linear_16394_20929)"/>
<path d="M98.6576 143.197L25.3071 101.018L28.2933 98.743L14.6184 91.0723L14.3667 92.2146C13.1322 97.8081 13.2183 103.612 14.6184 109.171C14.6183 111.385 15.7192 113.599 17.9204 114.866L98.6576 161.292C100.531 162.371 102.661 162.817 104.745 162.633V144.537C102.661 144.722 100.531 144.276 98.6576 143.197Z" fill="url(#paint4_linear_16394_20929)"/>
<path d="M98.6576 143.197L25.3071 101.018L28.2933 98.743L14.6184 91.0723L14.3667 92.2146C13.1322 97.8081 13.2183 103.612 14.6184 109.171C14.6183 111.385 15.7192 113.599 17.9204 114.866L98.6576 161.292C100.531 162.371 102.661 162.817 104.745 162.633V144.537C102.661 144.722 100.531 144.276 98.6576 143.197Z" fill="url(#paint5_linear_16394_20929)"/>
<path opacity="0.8" d="M15.078 91.7441L14.9662 92.2515C13.7547 97.7465 13.8407 103.532 15.2147 108.989C15.2242 109.027 15.2292 109.065 15.2292 109.107C15.2293 111.312 16.373 113.284 18.2884 114.388L98.981 160.818C100.746 161.832 102.753 162.276 104.782 162.094C106.219 161.97 107.587 161.542 108.849 160.818L243.191 83.5144C245.071 82.4326 246.194 80.4957 246.194 78.3289C246.194 78.2906 246.199 78.2523 246.208 78.2141C247.921 72.5435 247.974 66.5826 246.373 60.9153L228.991 69.3972L232.142 72.151C232.259 72.2532 232.32 72.4063 232.304 72.5595C232.289 72.7127 232.2 72.8531 232.066 72.9297L109.331 143.551C107.952 144.345 106.45 144.818 104.867 144.955C102.638 145.153 100.435 144.668 98.4989 143.551L25.1888 101.372C25.0495 101.289 24.9593 101.145 24.949 100.985C24.9385 100.826 25.009 100.67 25.1369 100.574L27.541 98.7389L15.078 91.7441ZM103.893 163.096C102.002 163.096 100.154 162.602 98.4989 161.651L17.8062 115.221C15.6063 113.954 14.2862 111.695 14.2656 109.164C12.8687 103.583 12.7854 97.6667 14.0244 92.0473L14.2762 90.9049C14.3089 90.7549 14.4106 90.6305 14.5501 90.5698C14.6895 90.506 14.8502 90.5156 14.9834 90.589L28.6508 98.2571C28.792 98.3369 28.8838 98.4837 28.8952 98.6432C28.9068 98.806 28.8361 98.9591 28.7073 99.058L26.2966 100.899L98.981 142.721C100.745 143.736 102.75 144.18 104.782 143.998C106.224 143.873 107.593 143.442 108.849 142.721L231.001 72.4319L227.811 69.6429C227.69 69.5376 227.63 69.378 227.651 69.2185C227.672 69.0589 227.772 68.9217 227.917 68.8515L246.464 59.8017C246.591 59.741 246.739 59.7378 246.869 59.7921C246.999 59.8495 247.097 59.9612 247.138 60.0952C248.947 66.0817 248.954 72.4127 247.158 78.4023C247.133 80.885 245.835 83.1028 243.673 84.3473L109.331 161.651C107.945 162.445 106.443 162.917 104.866 163.052C104.541 163.08 104.216 163.096 103.893 163.096Z" fill="#52FCFF"/>
<path d="M243.429 65.9003L109.013 143.198C107.682 143.963 106.225 144.41 104.745 144.538C102.661 144.723 100.531 144.276 98.6576 143.198L17.9203 96.7713C13.5181 94.2378 13.5181 87.9104 17.9203 85.3769L150.257 9.27624C154.643 6.75232 160.05 6.75232 164.437 9.27624L243.429 54.7005C247.757 57.1926 247.757 63.4114 243.429 65.9003Z" fill="url(#paint6_linear_16394_20929)"/>
<path d="M243.429 65.9003L109.013 143.198C107.682 143.963 106.225 144.41 104.745 144.538C102.661 144.723 100.531 144.276 98.6576 143.198L17.9203 96.7713C13.5181 94.2378 13.5181 87.9104 17.9203 85.3769L150.257 9.27624C154.643 6.75232 160.05 6.75232 164.437 9.27624L243.429 54.7005C247.757 57.1926 247.757 63.4114 243.429 65.9003Z" fill="url(#paint7_linear_16394_20929)"/>
<path opacity="0.8" d="M157.503 7.78571C155.136 7.78571 152.77 8.39726 150.66 9.61716L18.4399 85.9779C16.5251 87.0858 15.3818 89.0677 15.3818 91.277C15.3818 93.4895 16.5251 95.4714 18.4399 96.5793L99.1061 143.166C100.87 144.184 102.875 144.629 104.905 144.447C106.347 144.322 107.715 143.89 108.97 143.166L243.269 65.6014C245.148 64.516 246.27 62.5725 246.271 60.4016C246.271 58.2276 245.149 56.284 243.269 55.1986L164.345 9.61716C162.235 8.39726 159.869 7.78571 157.503 7.78571ZM104.023 145.452C102.129 145.452 100.28 144.956 98.6241 143.999L17.9579 97.4117C15.7414 96.131 14.418 93.8385 14.418 91.277C14.418 88.7187 15.7414 86.4262 17.9579 85.1455L150.178 8.78148C154.697 6.16878 160.31 6.16878 164.827 8.78148L243.751 54.3629C245.933 55.6245 247.235 57.8818 247.234 60.4016C247.234 62.9215 245.932 65.1756 243.751 66.4371L109.452 143.999C108.074 144.796 106.572 145.27 104.99 145.407C104.667 145.436 104.344 145.452 104.023 145.452Z" fill="#52FCFF"/>
<path opacity="0.8" d="M157.041 51.6179L160.904 53.7795C166.115 56.6986 172.534 56.7047 177.749 53.7918L207.134 37.3861C208.301 36.7333 208.302 35.1013 207.136 34.4455L192.099 26.024C191.387 25.6268 190.51 25.6268 189.798 26.024L157.046 44.3111C154.143 45.9307 154.14 49.9922 157.041 51.6179Z" fill="#52FCFF"/>
<path opacity="0.8" d="M153.22 59.9762C173.974 72.0354 173.974 91.5854 153.22 103.645C132.467 115.699 98.8189 115.699 78.065 103.645C57.3117 91.5854 57.3117 72.0354 78.065 59.9762C98.8189 47.9171 132.467 47.9171 153.22 59.9762Z" fill="#52FCFF"/>
<path d="M175.943 43.7705C179.896 45.9852 179.896 49.5761 175.943 51.7909C171.99 54.0056 165.581 54.0056 161.628 51.7909C157.675 49.5761 157.675 45.9852 161.628 43.7705C165.581 41.5558 171.99 41.5558 175.943 43.7705Z" fill="url(#paint8_linear_16394_20929)"/>
<path opacity="0.8" d="M159.304 37.5868L121.043 59.5476H121.025L82.7451 37.5868L121.025 15.644L159.304 37.5868Z" fill="#52FCFF"/>
<path d="M159.304 37.5869V81.5085L121.024 103.487V59.5477H121.043L159.304 37.5869Z" fill="url(#paint9_linear_16394_20929)"/>
<path d="M121.025 59.5477V103.487L82.7451 81.5085V37.5869L121.025 59.5477Z" fill="url(#paint10_linear_16394_20929)"/>
<path d="M104.342 65.8468C103.825 65.9217 103.308 65.978 102.791 66.0342C102.274 66.0904 101.757 66.1466 101.24 66.2215C101.092 66.2215 101.018 66.2215 100.87 65.9967C99.6148 64.3478 98.3591 62.7738 97.0296 61.1249L93.041 55.9533C92.8023 55.6573 92.5732 55.3614 92.3467 55.0689C91.9424 54.5466 91.5466 54.0353 91.1205 53.5549L86.541 50.9316C86.7626 51.2314 86.9842 51.5312 87.2058 51.7561C87.5673 52.2146 87.9287 52.6801 88.2923 53.1484C89.1174 54.2109 89.9535 55.2876 90.8251 56.3281C91.416 57.0776 92.0069 57.8458 92.5978 58.6141C93.1887 59.3823 93.7796 60.1505 94.3705 60.9001L97.6943 65.1722C98.2114 65.8468 98.7469 66.5213 99.2824 67.1959C99.8179 67.8704 100.353 68.5451 100.87 69.2196C101.018 69.3695 101.092 69.4444 101.166 69.3695C102.052 69.2945 102.865 69.2196 103.751 69.0697C104.822 68.9572 105.875 68.8261 106.927 68.6949C107.98 68.5637 109.032 68.4326 110.103 68.3202C110.929 68.2404 111.754 68.1394 112.568 68.0398C113.284 67.9522 113.992 67.8656 114.683 67.7955C114.978 67.7955 115.348 67.7206 115.643 67.6456L111.064 64.9474C109.525 65.2077 107.986 65.3956 106.422 65.5866C105.734 65.6706 105.041 65.7553 104.342 65.8468Z" fill="white"/>
<path d="M109.069 83.9099L106.779 84.2097C103.936 80.5746 101.11 76.9581 98.2851 73.3417C95.4599 69.7254 92.6347 66.1091 89.791 62.4741V59.2512L89.7924 59.253C96.218 67.497 102.644 75.7409 109.069 83.9099Z" fill="white"/>
<path d="M89.791 67.1958C92.7292 70.8986 95.6369 74.6321 98.5533 78.3768C100.182 80.4682 101.815 82.5644 103.456 84.6593L101.166 84.9591C99.0221 82.2398 96.9013 79.5206 94.7906 76.8144C93.12 74.6724 91.4552 72.5378 89.791 70.4187V67.1958Z" fill="white"/>
<path d="M112.467 72.3675C111.064 72.5548 109.66 72.7235 108.257 72.8921C106.853 73.0607 105.45 73.2294 104.047 73.4168C104.12 73.4917 104.12 73.5667 104.12 73.5667C104.49 74.0164 104.841 74.4848 105.191 74.9532C105.542 75.4217 105.893 75.8901 106.262 76.3398L106.336 76.4148C107.37 76.3023 108.386 76.1712 109.402 76.04C110.417 75.9089 111.433 75.7777 112.467 75.6653V72.3675Z" fill="white"/>
<path d="M111.064 80.5746C111.525 80.5183 111.987 80.4621 112.467 80.3872V83.5351L111.876 83.61C111.507 83.1229 111.137 82.6544 110.768 82.186C110.399 81.7175 110.029 81.2491 109.66 80.7619C110.14 80.687 110.602 80.6308 111.064 80.5746Z" fill="white"/>
<path d="M162.5 151.645L226.384 152.111V159.915C226.384 164.078 223.258 168.233 217.024 171.407C204.547 177.739 184.328 177.739 171.851 171.407C165.617 168.241 162.5 164.078 162.5 159.915V151.645Z" fill="url(#paint11_linear_16394_20929)"/>
<path d="M217.026 163.629C204.55 169.933 184.331 169.933 171.854 163.629C159.377 157.324 159.386 147.08 171.854 140.775C184.322 134.471 204.55 134.471 217.026 140.775C229.503 147.08 229.503 157.308 217.026 163.629Z" fill="url(#paint12_linear_16394_20929)"/>
<path d="M193.816 166.129C209.036 166.129 221.374 159.644 221.374 151.645C221.374 143.646 209.036 137.161 193.816 137.161C178.596 137.161 166.258 143.646 166.258 151.645C166.258 159.644 178.596 166.129 193.816 166.129Z" fill="url(#paint13_linear_16394_20929)"/>
<path fill-rule="evenodd" clip-rule="evenodd" d="M206.162 146.622C205.583 146.324 204.656 146.384 204.076 146.681L200.947 148.288L197.934 147.633L199.904 146.622C200.484 146.324 200.599 145.848 200.02 145.55C199.441 145.253 198.513 145.253 197.934 145.55L195.095 147.009L182.694 144.33C182.115 144.211 181.535 144.271 181.072 144.509C180.666 144.717 180.55 145.074 180.724 145.342L186.055 151.591L183.274 153.02C182.694 153.317 182.578 153.793 183.158 154.091C183.737 154.389 184.665 154.389 185.244 154.091L187.272 153.049L188.547 154.597L185.476 156.174C184.896 156.472 184.78 156.948 185.36 157.245C185.939 157.543 186.866 157.543 187.446 157.245L189.822 156.025L194.283 161.173C194.573 161.56 195.442 161.709 196.196 161.56C196.369 161.531 196.485 161.471 196.601 161.412C197.007 161.203 197.181 160.876 196.949 160.578L192.139 154.954L201.527 150.133L212.652 152.573C213.232 152.692 213.811 152.633 214.275 152.395C214.39 152.335 214.506 152.276 214.622 152.157C214.912 151.77 214.622 151.323 213.869 151.175L203.786 148.973L206.162 147.752C206.742 147.395 206.8 146.889 206.162 146.622ZM184.954 146.443L192.776 148.139L188.315 150.431L184.954 146.443ZM189.648 151.889L190.923 153.436L198.687 149.449L195.674 148.794L189.648 151.889Z" fill="white"/>
<path d="M162.5 137.635L226.384 138.102V145.906C226.384 150.069 223.258 154.224 217.024 157.398C204.547 163.73 184.328 163.73 171.851 157.398C165.617 154.232 162.5 150.069 162.5 145.906V137.635Z" fill="url(#paint14_linear_16394_20929)"/>
<path d="M217.026 149.619C204.55 155.924 184.331 155.924 171.854 149.619C159.377 143.315 159.386 133.07 171.854 126.766C184.322 120.461 204.55 120.461 217.026 126.766C229.503 133.07 229.503 143.299 217.026 149.619Z" fill="url(#paint15_linear_16394_20929)"/>
<path d="M193.816 152.119C209.036 152.119 221.374 145.635 221.374 137.635C221.374 129.636 209.036 123.152 193.816 123.152C178.596 123.152 166.258 129.636 166.258 137.635C166.258 145.635 178.596 152.119 193.816 152.119Z" fill="url(#paint16_linear_16394_20929)"/>
<path fill-rule="evenodd" clip-rule="evenodd" d="M206.162 132.613C205.583 132.315 204.656 132.375 204.076 132.672L200.947 134.279L197.934 133.625L199.904 132.613C200.484 132.315 200.599 131.839 200.02 131.542C199.441 131.244 198.513 131.244 197.934 131.542L195.095 133L182.694 130.321C182.115 130.202 181.535 130.262 181.072 130.5C180.666 130.708 180.55 131.065 180.724 131.333L186.055 137.582L183.274 139.011C182.694 139.308 182.578 139.785 183.158 140.082C183.737 140.38 184.665 140.38 185.244 140.082L187.272 139.041L188.547 140.588L185.476 142.165C184.896 142.463 184.78 142.939 185.36 143.237C185.939 143.534 186.866 143.534 187.446 143.237L189.822 142.016L194.283 147.165C194.573 147.552 195.442 147.7 196.196 147.552C196.369 147.522 196.485 147.462 196.601 147.403C197.007 147.194 197.181 146.867 196.949 146.569L192.139 140.945L201.527 136.124L212.652 138.565C213.232 138.684 213.811 138.624 214.275 138.386C214.39 138.326 214.506 138.267 214.622 138.148C214.912 137.761 214.622 137.315 213.869 137.166L203.786 134.964L206.162 133.744C206.742 133.387 206.8 132.881 206.162 132.613ZM184.954 132.434L192.776 134.131L188.315 136.422L184.954 132.434ZM189.648 137.88L190.923 139.428L198.687 135.44L195.674 134.785L189.648 137.88Z" fill="white"/>
<path d="M162.5 123.626L226.384 124.093V131.897C226.384 136.06 223.258 140.215 217.024 143.388C204.547 149.72 184.328 149.72 171.851 143.388C165.617 140.223 162.5 136.06 162.5 131.897V123.626Z" fill="url(#paint17_linear_16394_20929)"/>
<path d="M217.026 135.61C204.55 141.914 184.331 141.914 171.854 135.61C159.377 129.305 159.386 119.061 171.854 112.756C184.322 106.452 204.55 106.452 217.026 112.756C229.503 119.061 229.503 129.29 217.026 135.61Z" fill="url(#paint18_linear_16394_20929)"/>
<path d="M193.816 138.11C209.036 138.11 221.374 131.625 221.374 123.626C221.374 115.627 209.036 109.142 193.816 109.142C178.596 109.142 166.258 115.627 166.258 123.626C166.258 131.625 178.596 138.11 193.816 138.11Z" fill="url(#paint19_linear_16394_20929)"/>
<path fill-rule="evenodd" clip-rule="evenodd" d="M206.162 118.603C205.583 118.306 204.656 118.365 204.076 118.663L200.947 120.27L197.934 119.615L199.904 118.603C200.484 118.306 200.599 117.83 200.02 117.532C199.441 117.234 198.513 117.234 197.934 117.532L195.095 118.99L182.694 116.312C182.115 116.193 181.535 116.252 181.072 116.491C180.666 116.699 180.55 117.056 180.724 117.324L186.055 123.573L183.274 125.001C182.694 125.299 182.578 125.775 183.158 126.073C183.737 126.37 184.665 126.37 185.244 126.073L187.272 125.031L188.547 126.579L185.476 128.156C184.896 128.453 184.78 128.929 185.36 129.227C185.939 129.525 186.866 129.525 187.446 129.227L189.822 128.007L194.283 133.155C194.573 133.542 195.442 133.691 196.196 133.542C196.369 133.512 196.485 133.453 196.601 133.393C197.007 133.185 197.181 132.858 196.949 132.56L192.139 126.936L201.527 122.115L212.652 124.555C213.232 124.674 213.811 124.615 214.275 124.376C214.39 124.317 214.506 124.257 214.622 124.138C214.912 123.752 214.622 123.305 213.869 123.156L203.786 120.954L206.162 119.734C206.742 119.377 206.8 118.871 206.162 118.603ZM184.954 118.425L192.776 120.121L188.315 122.412L184.954 118.425ZM189.648 123.871L190.923 125.418L198.687 121.43L195.674 120.776L189.648 123.871Z" fill="white"/>
<path d="M162.5 109.616L226.384 110.083V117.887C226.384 122.05 223.258 126.205 217.024 129.379C204.547 135.71 184.328 135.71 171.851 129.379C165.617 126.213 162.5 122.05 162.5 117.887V109.616Z" fill="url(#paint20_linear_16394_20929)"/>
<path d="M217.026 121.601C204.55 127.905 184.331 127.905 171.854 121.601C159.377 115.296 159.386 105.052 171.854 98.7471C184.322 92.4427 204.55 92.4427 217.026 98.7471C229.503 105.052 229.503 115.28 217.026 121.601Z" fill="url(#paint21_linear_16394_20929)"/>
<path d="M193.816 124.1C209.036 124.1 221.374 117.616 221.374 109.616C221.374 101.617 209.036 95.1326 193.816 95.1326C178.596 95.1326 166.258 101.617 166.258 109.616C166.258 117.616 178.596 124.1 193.816 124.1Z" fill="url(#paint22_linear_16394_20929)"/>
<path fill-rule="evenodd" clip-rule="evenodd" d="M206.162 104.594C205.583 104.296 204.656 104.356 204.076 104.653L200.947 106.26L197.934 105.606L199.904 104.594C200.484 104.296 200.599 103.82 200.02 103.523C199.441 103.225 198.513 103.225 197.934 103.523L195.095 104.981L182.694 102.302C182.115 102.183 181.535 102.243 181.072 102.481C180.666 102.689 180.55 103.046 180.724 103.314L186.055 109.563L183.274 110.992C182.694 111.289 182.578 111.766 183.158 112.063C183.737 112.361 184.665 112.361 185.244 112.063L187.272 111.022L188.547 112.569L185.476 114.146C184.896 114.444 184.78 114.92 185.36 115.218C185.939 115.515 186.866 115.515 187.446 115.218L189.822 113.997L194.283 119.146C194.573 119.532 195.442 119.681 196.196 119.532C196.369 119.503 196.485 119.443 196.601 119.384C197.007 119.175 197.181 118.848 196.949 118.55L192.139 112.926L201.527 108.105L212.652 110.545C213.232 110.665 213.811 110.605 214.275 110.367C214.39 110.307 214.506 110.248 214.622 110.129C214.912 109.742 214.622 109.296 213.869 109.147L203.786 106.945L206.162 105.725C206.742 105.368 206.8 104.862 206.162 104.594ZM184.954 104.415L192.776 106.112L188.315 108.403L184.954 104.415ZM189.648 109.861L190.923 111.409L198.687 107.421L195.674 106.766L189.648 109.861Z" fill="white"/>
<path d="M162.5 95.6074L226.384 96.0744V103.878C226.384 108.041 223.258 112.196 217.024 115.37C204.547 121.701 184.328 121.701 171.851 115.37C165.617 112.204 162.5 108.041 162.5 103.878V95.6074Z" fill="url(#paint23_linear_16394_20929)"/>
<path d="M217.026 107.591C204.55 113.896 184.331 113.896 171.854 107.591C159.377 101.287 159.386 91.0422 171.854 84.7378C184.322 78.4334 204.55 78.4334 217.026 84.7378C229.503 91.0422 229.503 101.271 217.026 107.591Z" fill="url(#paint24_linear_16394_20929)"/>
<path d="M193.816 110.091C209.036 110.091 221.374 103.607 221.374 95.6074C221.374 87.6082 209.036 81.1235 193.816 81.1235C178.596 81.1235 166.258 87.6082 166.258 95.6074C166.258 103.607 178.596 110.091 193.816 110.091Z" fill="url(#paint25_linear_16394_20929)"/>
<path fill-rule="evenodd" clip-rule="evenodd" d="M206.162 90.5848C205.583 90.2872 204.656 90.3467 204.076 90.6443L200.947 92.2512L197.934 91.5966L199.904 90.5848C200.484 90.2872 200.599 89.8111 200.02 89.5135C199.441 89.2159 198.513 89.2159 197.934 89.5135L195.095 90.9716L182.694 88.2934C182.115 88.1744 181.535 88.2339 181.072 88.472C180.666 88.6803 180.55 89.0374 180.724 89.3052L186.055 95.5544L183.274 96.9828C182.694 97.2804 182.578 97.7565 183.158 98.0541C183.737 98.3517 184.665 98.3517 185.244 98.0541L187.272 97.0126L188.547 98.56L185.476 100.137C184.896 100.435 184.78 100.911 185.36 101.208C185.939 101.506 186.866 101.506 187.446 101.208L189.822 99.9884L194.283 105.137C194.573 105.523 195.442 105.672 196.196 105.523C196.369 105.494 196.485 105.434 196.601 105.375C197.007 105.166 197.181 104.839 196.949 104.541L192.139 98.9171L201.527 94.0963L212.652 96.5364C213.232 96.6555 213.811 96.596 214.275 96.3579C214.39 96.2984 214.506 96.2389 214.622 96.1198C214.912 95.733 214.622 95.2866 213.869 95.1378L203.786 92.9357L206.162 91.7156C206.742 91.3585 206.8 90.8526 206.162 90.5848ZM184.954 90.4064L192.776 92.1026L188.315 94.394L184.954 90.4064ZM189.648 95.852L190.923 97.3994L198.687 93.4118L195.674 92.7572L189.648 95.852Z" fill="white"/>
<path d="M162.5 81.5979L226.384 82.0649V89.8685C226.384 94.0315 223.258 98.1866 217.024 101.36C204.547 107.692 184.328 107.692 171.851 101.36C165.617 98.1945 162.5 94.0315 162.5 89.8685V81.5979Z" fill="url(#paint26_linear_16394_20929)"/>
<path d="M217.026 93.5818C204.55 99.8862 184.331 99.8862 171.854 93.5818C159.377 87.2774 159.386 77.0327 171.854 70.7283C184.322 64.4239 204.55 64.4239 217.026 70.7283C229.503 77.0327 229.503 87.2616 217.026 93.5818Z" fill="url(#paint27_linear_16394_20929)"/>
<path d="M193.816 96.0817C209.036 96.0817 221.374 89.5971 221.374 81.5979C221.374 73.5987 209.036 67.114 193.816 67.114C178.596 67.114 166.258 73.5987 166.258 81.5979C166.258 89.5971 178.596 96.0817 193.816 96.0817Z" fill="url(#paint28_linear_16394_20929)"/>
<defs>
<linearGradient id="paint0_linear_16394_20929" x1="17.1348" y1="55.2569" x2="59.414" y2="55.2569" gradientUnits="userSpaceOnUse">
<stop stop-color="#17D1AA"/>
<stop offset="0.15" stop-color="#1ACBAF"/>
<stop offset="0.37" stop-color="#21B8BC"/>
<stop offset="0.62" stop-color="#2E9BD3"/>
<stop offset="0.89" stop-color="#3F71F1"/>
<stop offset="1" stop-color="#475FFF"/>
</linearGradient>
<linearGradient id="paint1_linear_16394_20929" x1="56.5447" y1="90.2457" x2="128.573" y2="-7.12219" gradientUnits="userSpaceOnUse">
<stop stop-color="#244ABF"/>
<stop offset="1" stop-color="#4760FF"/>
</linearGradient>
<linearGradient id="paint2_linear_16394_20929" x1="19.3547" y1="4.01195e-06" x2="-10.6607" y2="26.4343" gradientUnits="userSpaceOnUse">
<stop stop-color="#17D1AA"/>
<stop offset="0.15" stop-color="#1ACBAF"/>
<stop offset="0.37" stop-color="#21B8BC"/>
<stop offset="0.62" stop-color="#2E9BD3"/>
<stop offset="0.89" stop-color="#3F71F1"/>
<stop offset="1" stop-color="#475FFF"/>
</linearGradient>
<linearGradient id="paint3_linear_16394_20929" x1="256.968" y1="47.8888" x2="256.968" y2="163.121" gradientUnits="userSpaceOnUse">
<stop stop-color="#1D45BA"/>
<stop offset="0.4204" stop-color="#1D47BA"/>
<stop offset="0.5718" stop-color="#1D4EB9"/>
<stop offset="0.6797" stop-color="#1C59B8"/>
<stop offset="0.767" stop-color="#1B6AB6"/>
<stop offset="0.8417" stop-color="#1A80B3"/>
<stop offset="0.9079" stop-color="#199CB0"/>
<stop offset="0.9663" stop-color="#18BBAD"/>
<stop offset="1" stop-color="#17D1AA"/>
</linearGradient>
<linearGradient id="paint4_linear_16394_20929" x1="110.633" y1="171.519" x2="110.633" y2="90.6945" gradientUnits="userSpaceOnUse">
<stop stop-color="#1D45BA"/>
<stop offset="0.4204" stop-color="#1D47BA"/>
<stop offset="0.5718" stop-color="#1D4EB9"/>
<stop offset="0.6797" stop-color="#1C59B8"/>
<stop offset="0.767" stop-color="#1B6AB6"/>
<stop offset="0.8417" stop-color="#1A80B3"/>
<stop offset="0.9079" stop-color="#199CB0"/>
<stop offset="0.9663" stop-color="#18BBAD"/>
<stop offset="1" stop-color="#17D1AA"/>
</linearGradient>
<linearGradient id="paint5_linear_16394_20929" x1="110.633" y1="171.519" x2="110.633" y2="90.6945" gradientUnits="userSpaceOnUse">
<stop stop-color="#1D45BA"/>
<stop offset="0.4204" stop-color="#1D47BA"/>
<stop offset="0.5718" stop-color="#1D4EB9"/>
<stop offset="0.6797" stop-color="#1C59B8"/>
<stop offset="0.767" stop-color="#1B6AB6"/>
<stop offset="0.8417" stop-color="#1A80B3"/>
<stop offset="0.9079" stop-color="#199CB0"/>
<stop offset="0.9663" stop-color="#18BBAD"/>
<stop offset="1" stop-color="#17D1AA"/>
</linearGradient>
<linearGradient id="paint6_linear_16394_20929" x1="14.6189" y1="144.579" x2="246.675" y2="144.579" gradientUnits="userSpaceOnUse">
<stop stop-color="#17D1AA"/>
<stop offset="0.15" stop-color="#1ACBAF"/>
<stop offset="0.37" stop-color="#21B8BC"/>
<stop offset="0.62" stop-color="#2E9BD3"/>
<stop offset="0.89" stop-color="#3F71F1"/>
<stop offset="1" stop-color="#475FFF"/>
</linearGradient>
<linearGradient id="paint7_linear_16394_20929" x1="14.6189" y1="144.579" x2="246.675" y2="144.579" gradientUnits="userSpaceOnUse">
<stop stop-color="#17D1AA"/>
<stop offset="0.15" stop-color="#1ACBAF"/>
<stop offset="0.37" stop-color="#21B8BC"/>
<stop offset="0.62" stop-color="#2E9BD3"/>
<stop offset="0.89" stop-color="#3F71F1"/>
<stop offset="1" stop-color="#475FFF"/>
</linearGradient>
<linearGradient id="paint8_linear_16394_20929" x1="180.214" y1="40.7082" x2="180.214" y2="53.5117" gradientUnits="userSpaceOnUse">
<stop stop-color="#1D45BA"/>
<stop offset="0.4204" stop-color="#1D47BA"/>
<stop offset="0.5718" stop-color="#1D4EB9"/>
<stop offset="0.6797" stop-color="#1C59B8"/>
<stop offset="0.767" stop-color="#1B6AB6"/>
<stop offset="0.8417" stop-color="#1A80B3"/>
<stop offset="0.9079" stop-color="#199CB0"/>
<stop offset="0.9663" stop-color="#18BBAD"/>
<stop offset="1" stop-color="#17D1AA"/>
</linearGradient>
<linearGradient id="paint9_linear_16394_20929" x1="121.024" y1="103.488" x2="159.304" y2="103.488" gradientUnits="userSpaceOnUse">
<stop stop-color="#17D1AA"/>
<stop offset="0.15" stop-color="#1ACBAF"/>
<stop offset="0.37" stop-color="#21B8BC"/>
<stop offset="0.62" stop-color="#2E9BD3"/>
<stop offset="0.89" stop-color="#3F71F1"/>
<stop offset="1" stop-color="#475FFF"/>
</linearGradient>
<linearGradient id="paint10_linear_16394_20929" x1="82.7452" y1="103.488" x2="121.025" y2="103.488" gradientUnits="userSpaceOnUse">
<stop stop-color="#17D1AA"/>
<stop offset="0.15" stop-color="#1ACBAF"/>
<stop offset="0.37" stop-color="#21B8BC"/>
<stop offset="0.62" stop-color="#2E9BD3"/>
<stop offset="0.89" stop-color="#3F71F1"/>
<stop offset="1" stop-color="#475FFF"/>
</linearGradient>
<linearGradient id="paint11_linear_16394_20929" x1="201.446" y1="151.645" x2="194.002" y2="178.9" gradientUnits="userSpaceOnUse">
<stop stop-color="#17D1AA"/>
<stop offset="0.15" stop-color="#1ACBAF"/>
<stop offset="0.37" stop-color="#21B8BC"/>
<stop offset="0.62" stop-color="#2E9BD3"/>
<stop offset="0.89" stop-color="#3F71F1"/>
<stop offset="1" stop-color="#475FFF"/>
</linearGradient>
<linearGradient id="paint12_linear_16394_20929" x1="162.5" y1="168.357" x2="226.384" y2="168.357" gradientUnits="userSpaceOnUse">
<stop stop-color="#17D1AA"/>
<stop offset="0.15" stop-color="#1ACBAF"/>
<stop offset="0.37" stop-color="#21B8BC"/>
<stop offset="0.62" stop-color="#2E9BD3"/>
<stop offset="0.89" stop-color="#3F71F1"/>
<stop offset="1" stop-color="#475FFF"/>
</linearGradient>
<linearGradient id="paint13_linear_16394_20929" x1="223.845" y1="183.669" x2="246.384" y2="109.671" gradientUnits="userSpaceOnUse">
<stop stop-color="#244ABF"/>
<stop offset="1" stop-color="#4760FF"/>
</linearGradient>
<linearGradient id="paint14_linear_16394_20929" x1="201.446" y1="137.635" x2="194.002" y2="164.891" gradientUnits="userSpaceOnUse">
<stop stop-color="#17D1AA"/>
<stop offset="0.15" stop-color="#1ACBAF"/>
<stop offset="0.37" stop-color="#21B8BC"/>
<stop offset="0.62" stop-color="#2E9BD3"/>
<stop offset="0.89" stop-color="#3F71F1"/>
<stop offset="1" stop-color="#475FFF"/>
</linearGradient>
<linearGradient id="paint15_linear_16394_20929" x1="162.5" y1="154.348" x2="226.384" y2="154.348" gradientUnits="userSpaceOnUse">
<stop stop-color="#17D1AA"/>
<stop offset="0.15" stop-color="#1ACBAF"/>
<stop offset="0.37" stop-color="#21B8BC"/>
<stop offset="0.62" stop-color="#2E9BD3"/>
<stop offset="0.89" stop-color="#3F71F1"/>
<stop offset="1" stop-color="#475FFF"/>
</linearGradient>
<linearGradient id="paint16_linear_16394_20929" x1="223.845" y1="169.66" x2="246.384" y2="95.6619" gradientUnits="userSpaceOnUse">
<stop stop-color="#244ABF"/>
<stop offset="1" stop-color="#4760FF"/>
</linearGradient>
<linearGradient id="paint17_linear_16394_20929" x1="201.446" y1="123.626" x2="194.002" y2="150.882" gradientUnits="userSpaceOnUse">
<stop stop-color="#17D1AA"/>
<stop offset="0.15" stop-color="#1ACBAF"/>
<stop offset="0.37" stop-color="#21B8BC"/>
<stop offset="0.62" stop-color="#2E9BD3"/>
<stop offset="0.89" stop-color="#3F71F1"/>
<stop offset="1" stop-color="#475FFF"/>
</linearGradient>
<linearGradient id="paint18_linear_16394_20929" x1="162.5" y1="140.338" x2="226.384" y2="140.338" gradientUnits="userSpaceOnUse">
<stop stop-color="#17D1AA"/>
<stop offset="0.15" stop-color="#1ACBAF"/>
<stop offset="0.37" stop-color="#21B8BC"/>
<stop offset="0.62" stop-color="#2E9BD3"/>
<stop offset="0.89" stop-color="#3F71F1"/>
<stop offset="1" stop-color="#475FFF"/>
</linearGradient>
<linearGradient id="paint19_linear_16394_20929" x1="223.845" y1="155.65" x2="246.384" y2="81.6526" gradientUnits="userSpaceOnUse">
<stop stop-color="#244ABF"/>
<stop offset="1" stop-color="#4760FF"/>
</linearGradient>
<linearGradient id="paint20_linear_16394_20929" x1="201.446" y1="109.616" x2="194.002" y2="136.872" gradientUnits="userSpaceOnUse">
<stop stop-color="#17D1AA"/>
<stop offset="0.15" stop-color="#1ACBAF"/>
<stop offset="0.37" stop-color="#21B8BC"/>
<stop offset="0.62" stop-color="#2E9BD3"/>
<stop offset="0.89" stop-color="#3F71F1"/>
<stop offset="1" stop-color="#475FFF"/>
</linearGradient>
<linearGradient id="paint21_linear_16394_20929" x1="162.5" y1="126.329" x2="226.384" y2="126.329" gradientUnits="userSpaceOnUse">
<stop stop-color="#17D1AA"/>
<stop offset="0.15" stop-color="#1ACBAF"/>
<stop offset="0.37" stop-color="#21B8BC"/>
<stop offset="0.62" stop-color="#2E9BD3"/>
<stop offset="0.89" stop-color="#3F71F1"/>
<stop offset="1" stop-color="#475FFF"/>
</linearGradient>
<linearGradient id="paint22_linear_16394_20929" x1="223.845" y1="141.641" x2="246.384" y2="67.6428" gradientUnits="userSpaceOnUse">
<stop stop-color="#244ABF"/>
<stop offset="1" stop-color="#4760FF"/>
</linearGradient>
<linearGradient id="paint23_linear_16394_20929" x1="201.446" y1="95.6074" x2="194.002" y2="122.863" gradientUnits="userSpaceOnUse">
<stop stop-color="#17D1AA"/>
<stop offset="0.15" stop-color="#1ACBAF"/>
<stop offset="0.37" stop-color="#21B8BC"/>
<stop offset="0.62" stop-color="#2E9BD3"/>
<stop offset="0.89" stop-color="#3F71F1"/>
<stop offset="1" stop-color="#475FFF"/>
</linearGradient>
<linearGradient id="paint24_linear_16394_20929" x1="162.5" y1="112.32" x2="226.384" y2="112.32" gradientUnits="userSpaceOnUse">
<stop stop-color="#17D1AA"/>
<stop offset="0.15" stop-color="#1ACBAF"/>
<stop offset="0.37" stop-color="#21B8BC"/>
<stop offset="0.62" stop-color="#2E9BD3"/>
<stop offset="0.89" stop-color="#3F71F1"/>
<stop offset="1" stop-color="#475FFF"/>
</linearGradient>
<linearGradient id="paint25_linear_16394_20929" x1="223.845" y1="127.631" x2="246.384" y2="53.6338" gradientUnits="userSpaceOnUse">
<stop stop-color="#244ABF"/>
<stop offset="1" stop-color="#4760FF"/>
</linearGradient>
<linearGradient id="paint26_linear_16394_20929" x1="201.446" y1="81.5979" x2="194.002" y2="108.854" gradientUnits="userSpaceOnUse">
<stop stop-color="#17D1AA"/>
<stop offset="0.15" stop-color="#1ACBAF"/>
<stop offset="0.37" stop-color="#21B8BC"/>
<stop offset="0.62" stop-color="#2E9BD3"/>
<stop offset="0.89" stop-color="#3F71F1"/>
<stop offset="1" stop-color="#475FFF"/>
</linearGradient>
<linearGradient id="paint27_linear_16394_20929" x1="162.5" y1="98.3103" x2="226.384" y2="98.3103" gradientUnits="userSpaceOnUse">
<stop stop-color="#17D1AA"/>
<stop offset="0.15" stop-color="#1ACBAF"/>
<stop offset="0.37" stop-color="#21B8BC"/>
<stop offset="0.62" stop-color="#2E9BD3"/>
<stop offset="0.89" stop-color="#3F71F1"/>
<stop offset="1" stop-color="#475FFF"/>
</linearGradient>
<linearGradient id="paint28_linear_16394_20929" x1="199.859" y1="67.114" x2="188.499" y2="97.4783" gradientUnits="userSpaceOnUse">
<stop stop-color="#17D1AA"/>
<stop offset="0.15" stop-color="#1ACBAF"/>
<stop offset="0.37" stop-color="#21B8BC"/>
<stop offset="0.62" stop-color="#2E9BD3"/>
<stop offset="0.89" stop-color="#3F71F1"/>
<stop offset="1" stop-color="#475FFF"/>
</linearGradient>
</defs>
</svg>
