<svg width="255" height="192" viewBox="0 0 255 192" fill="none" xmlns="http://www.w3.org/2000/svg">
<g opacity="0.2">
<path d="M87.231 189.069L254.121 94.1861" stroke="#1D45BA" stroke-width="0.5"/>
<path d="M23.8117 141.794L179.495 53.2835" stroke="#1D45BA" stroke-width="0.5"/>
<path d="M77.5491 41.9405L253.356 141.765" stroke="#1D45BA" stroke-width="0.5"/>
<path d="M1.3567 106.959L148.729 190.639" stroke="#1D45BA" stroke-width="0.5"/>
</g>
<path d="M85.1342 4.43877L90.8523 1.1617C91.6691 0.752062 92.486 0.444837 93.405 0.24002C94.9366 -0.272023 96.7745 0.035203 98.8167 1.1617L169.476 42.1251C174.785 45.1974 179.074 53.4925 179.074 60.5586L178.869 117.6C178.869 121.901 177.236 124.666 174.887 125.69L168.352 129.07L163.145 121.389L98.5104 83.9078C93.2008 80.8355 88.9122 72.5404 88.9122 65.4742L89.1164 10.4809L85.1342 4.43877Z" fill="url(#paint0_linear_10033_81444)"/>
<path fill-rule="evenodd" clip-rule="evenodd" d="M81.4504 11.7314C81.475 4.59034 85.8185 1.32295 91.1519 4.43366L161.973 45.7337C167.306 48.8444 171.61 57.1547 171.586 64.2966L171.391 121.764C171.366 128.905 167.024 132.173 161.69 129.063L90.8698 87.7619C85.5365 84.6512 81.232 76.3409 81.2558 69.1998L81.4504 11.7314Z" fill="#C7ECFF"/>
<path fill-rule="evenodd" clip-rule="evenodd" d="M126.421 40.5952C140.833 49.3533 152.516 68.1615 152.516 82.6046C152.516 97.0485 140.833 101.658 126.421 92.9007C112.009 84.1433 100.326 65.3343 100.326 50.8912C100.326 36.4473 112.009 31.8379 126.421 40.5952Z" fill="#FF1351"/>
<path fill-rule="evenodd" clip-rule="evenodd" d="M136.677 82.5619C137.112 83.3078 137.33 84.0087 137.33 84.6627C137.33 85.3166 137.112 85.7288 136.677 85.8982C136.241 86.0686 135.698 85.9536 135.045 85.5542C134.392 85.154 133.827 84.5903 133.347 83.8605L124.796 70.056L116.243 73.3924C115.765 73.5355 115.221 73.4214 114.611 73.0484C114.002 72.6754 113.459 72.1245 112.98 71.3947C112.502 70.6658 112.262 69.9743 112.262 69.3195C112.262 68.6655 112.502 68.2457 112.98 68.0583L121.466 64.6819L112.98 50.9167C112.502 50.1443 112.262 49.4307 112.262 48.7759C112.262 48.1219 112.502 47.7234 112.98 47.5803C113.459 47.4364 114.002 47.5522 114.611 47.9243C115.221 48.2973 115.765 48.8491 116.243 49.578L124.796 63.3833L133.347 60.0461C133.827 59.903 134.392 60.0316 135.045 60.431C135.698 60.8304 136.241 61.3813 136.677 62.0839C137.112 62.7864 137.33 63.4651 137.33 64.1191C137.33 64.773 137.112 65.2073 136.677 65.4211L128.125 68.7574L136.677 82.5619Z" fill="#C7ECFF"/>
<defs>
<linearGradient id="paint0_linear_10033_81444" x1="179.075" y1="-0.0667293" x2="85.0994" y2="-0.0667293" gradientUnits="userSpaceOnUse">
<stop stop-color="#17D0A9"/>
<stop offset="0.0618663" stop-color="#1AC2AD"/>
<stop offset="0.2619" stop-color="#229BB7"/>
<stop offset="0.4593" stop-color="#297CBF"/>
<stop offset="0.6509" stop-color="#2D66C5"/>
<stop offset="0.8342" stop-color="#3059C9"/>
<stop offset="1" stop-color="#3154CA"/>
</linearGradient>
</defs>
</svg>
