<svg width="128" height="168" viewBox="0 0 128 168" fill="none" xmlns="http://www.w3.org/2000/svg">
    <path
        d="M5.07507 5.72571L12.5575 1.49851C13.6264 0.97011 14.6953 0.57381 15.8978 0.30961C17.902 -0.350891 20.3071 0.0454094 22.9793 1.49851L115.44 54.3385C122.388 58.3015 128 69.0016 128 78.1166L127.733 151.696C127.733 157.245 125.595 160.811 122.522 162.132L113.97 166.492L107.156 156.584L22.5785 108.235C15.6306 104.272 10.0188 93.5723 10.0188 84.4574L10.286 13.5196L5.07507 5.72571Z"
        fill="url(#paint0_linear_13362_19)" />
    <path opacity="0.8" fill-rule="evenodd" clip-rule="evenodd"
        d="M0.254739 15.1328C0.286982 5.92125 5.97069 1.70654 12.9497 5.71914L105.622 58.9935C112.601 63.0061 118.233 73.7257 118.202 82.9383L117.947 157.068C117.915 166.279 112.232 170.494 105.253 166.482L12.5806 113.207C5.60156 109.194 -0.031003 98.4747 0.000128429 89.2631L0.254739 15.1328Z"
        fill="#52FCFF" />
    <path fill-rule="evenodd" clip-rule="evenodd"
        d="M59.1006 52.3652C77.9595 63.6626 93.2473 87.9239 93.2484 106.554C93.2484 125.186 77.9595 131.132 59.1006 119.836C40.2427 108.539 24.9539 84.277 24.9539 65.6464C24.9539 47.0147 40.2427 41.0688 59.1006 52.3652Z"
        fill="#FF1351" />
    <path fill-rule="evenodd" clip-rule="evenodd"
        d="M72.522 106.499C73.0912 107.462 73.3759 108.366 73.3759 109.209C73.3759 110.053 73.0912 110.584 72.522 110.803C71.9516 111.023 71.2411 110.874 70.3861 110.359C69.5323 109.843 68.7918 109.116 68.1647 108.174L56.9752 90.3677L45.7834 94.6714C45.1575 94.8559 44.4459 94.7087 43.6476 94.2276C42.8504 93.7465 42.1399 93.0358 41.5129 92.0944C40.8869 91.1541 40.5734 90.2622 40.5734 89.4175C40.5734 88.5739 40.8869 88.0324 41.5129 87.7907L52.6179 83.4354L41.5129 65.6791C40.8869 64.6829 40.5734 63.7624 40.5734 62.9177C40.5734 62.0741 40.8869 61.56 41.5129 61.3755C42.1399 61.1898 42.8504 61.3392 43.6476 61.8192C44.4459 62.3003 45.1575 63.0121 45.7834 63.9524L56.9752 81.7603L68.1647 77.4555C68.7918 77.271 69.5323 77.4368 70.3861 77.952C71.2411 78.4672 71.9516 79.1779 72.522 80.0841C73.0912 80.9903 73.3759 81.8657 73.3759 82.7093C73.3759 83.5529 73.0912 84.1132 72.522 84.3889L61.3313 88.6925L72.522 106.499Z"
        fill="white" />
    <defs>
        <linearGradient id="paint0_linear_13362_19" x1="5.0752" y1="166.492" x2="128" y2="166.492"
            gradientUnits="userSpaceOnUse">
            <stop stop-color="#17D1AA" />
            <stop offset="0.15" stop-color="#1ACBAF" />
            <stop offset="0.37" stop-color="#21B8BC" />
            <stop offset="0.62" stop-color="#2E9BD3" />
            <stop offset="0.89" stop-color="#3F71F1" />
            <stop offset="1" stop-color="#475FFF" />
        </linearGradient>
    </defs>
</svg>