<svg width="255" height="192" viewBox="0 0 255 192" fill="none" xmlns="http://www.w3.org/2000/svg">
<g opacity="0.2">
<path d="M87.2324 189.069L254.123 94.186" stroke="#1D45BA" stroke-width="0.5"/>
<path d="M23.8125 141.794L179.496 53.2834" stroke="#1D45BA" stroke-width="0.5"/>
<path d="M77.5508 41.9404L253.358 141.765" stroke="#1D45BA" stroke-width="0.5"/>
<path d="M1.35742 106.959L148.729 190.639" stroke="#1D45BA" stroke-width="0.5"/>
</g>
<path d="M111.099 101.702C113.466 86.0999 111.099 82.5079 111.099 82.5079L95.5684 103.347C95.5684 103.347 99.7229 110.016 98.6897 113.767C98.2503 115.515 97.6101 117.206 96.7819 118.806C96.4246 119.439 96.5989 120.24 97.1865 120.665C97.2902 120.746 97.4042 120.812 97.5254 120.863L103.041 124.153L109.71 112.483L111.175 105.903L109.639 107.12C110.325 105.374 110.814 103.557 111.099 101.702Z" fill="url(#paint0_linear_6993_206264)"/>
<path d="M156.92 4.15829L151.623 1.12017C150.872 0.750229 150.089 0.449212 149.284 0.220797C147.857 -0.239857 146.14 0.00692154 144.298 1.08727L79.0824 39.1516C74.1626 42.0197 70.2048 49.6808 70.2267 56.2616L70.407 109.237C70.407 113.185 71.8721 115.818 74.0806 116.711L80.1429 119.892L84.9043 112.714L144.555 77.8959C149.475 75.0277 153.433 67.3666 153.411 60.7859L153.236 9.71356L156.92 4.15829Z" fill="url(#paint1_linear_6993_206264)"/>
<path d="M159.846 11.255C159.846 4.67421 155.822 1.65803 150.913 4.52615L85.6977 42.5959C80.7778 45.4641 76.82 53.1252 76.8419 59.7059L77.0223 112.676C77.0223 119.256 81.0456 122.273 85.9546 119.405L106.099 107.647C106.644 110.969 106.254 114.378 104.973 117.491C104.158 119.317 103.333 120.918 102.589 122.256C102.274 122.842 102.391 123.567 102.876 124.021C103.36 124.476 104.089 124.546 104.65 124.192C109.351 121.121 115.9 115.193 117.382 105.442C117.644 103.715 117.846 102.152 117.999 100.699L151.17 81.3348C156.09 78.4666 160.048 70.8055 160.026 64.2247L159.846 11.255Z" fill="#E1F2FF"/>
<path fill-rule="evenodd" clip-rule="evenodd" d="M109.06 69.5444C109.282 69.6457 109.394 69.8651 109.394 70.2043C109.394 70.5403 109.282 70.8948 109.06 71.2662C108.837 71.636 108.558 71.9322 108.223 72.1501C107.891 72.3695 107.6 72.4462 107.355 72.3818L102.976 70.8258L98.5956 78.1118C98.3506 78.497 98.0723 78.7916 97.7592 78.9957C97.4476 79.1998 97.1708 79.2704 96.9257 79.2059C96.6792 79.1415 96.5566 78.9405 96.5566 78.6029C96.5566 78.2653 96.6792 77.8924 96.9257 77.4842L101.271 70.2196L96.9257 68.6421C96.6792 68.5546 96.5566 68.3429 96.5566 68.0053C96.5566 67.6677 96.6792 67.307 96.9257 66.9219C97.1708 66.5367 97.4476 66.2405 97.7592 66.0364C98.0723 65.8323 98.3506 65.7633 98.5956 65.8277L102.976 67.3838L107.355 60.0962C107.6 59.711 107.891 59.4103 108.223 59.1908C108.558 58.9714 108.837 58.9023 109.06 58.9821C109.282 59.0604 109.394 59.2691 109.394 59.6067C109.394 59.9443 109.282 60.3095 109.06 60.7024L104.679 67.9884L109.06 69.5444Z" fill="#FF1351"/>
<path fill-rule="evenodd" clip-rule="evenodd" d="M147.491 45.2365C147.714 45.3378 147.827 45.5572 147.827 45.8948C147.827 46.2324 147.714 46.5869 147.491 46.9583C147.271 47.3281 146.991 47.6227 146.657 47.8422C146.322 48.0601 146.032 48.1383 145.787 48.0724L141.408 46.5163L137.029 53.8039C136.784 54.1891 136.504 54.4837 136.192 54.6878C135.881 54.8919 135.602 54.9609 135.357 54.8965C135.111 54.832 134.988 54.631 134.988 54.2934C134.988 53.9558 135.111 53.5829 135.357 53.1763L139.703 45.9117L135.357 44.3342C135.111 44.2467 134.988 44.0334 134.988 43.6974C134.988 43.3598 135.111 42.9976 135.357 42.6124C135.602 42.2273 135.881 41.9326 136.192 41.7285C136.504 41.5244 136.784 41.4538 137.029 41.5183L141.408 43.0743L145.787 35.7883C146.032 35.4031 146.322 35.1008 146.657 34.8814C146.991 34.6635 147.271 34.5929 147.491 34.6727C147.714 34.7509 147.827 34.9596 147.827 35.2972C147.827 35.6348 147.714 36.0001 147.491 36.3944L143.112 43.6805L147.491 45.2365Z" fill="#FF1351"/>
<path fill-rule="evenodd" clip-rule="evenodd" d="M119.052 78.8529C119.052 81.5286 121.195 82.361 123.837 80.7124C126.48 79.0639 128.623 75.5586 128.623 72.883C128.623 70.2074 126.48 69.3749 123.837 71.0235C121.195 72.672 119.052 76.1779 119.052 78.8529Z" fill="#FF1351"/>
<defs>
<linearGradient id="paint0_linear_6993_206264" x1="95.5691" y1="124.151" x2="112.15" y2="124.151" gradientUnits="userSpaceOnUse">
<stop stop-color="#3154CA"/>
<stop offset="1" stop-color="#17D1AA"/>
</linearGradient>
<linearGradient id="paint1_linear_6993_206264" x1="70.2263" y1="119.891" x2="156.92" y2="119.891" gradientUnits="userSpaceOnUse">
<stop stop-color="#3154CA"/>
<stop offset="1" stop-color="#17D1AA"/>
</linearGradient>
</defs>
</svg>
