<svg width="255" height="192" viewBox="0 0 255 192" fill="none" xmlns="http://www.w3.org/2000/svg">
<g opacity="0.2">
<path d="M87.2344 189.069L254.125 94.186" stroke="#1D45BA" stroke-width="0.5"/>
<path d="M23.8145 141.794L179.497 53.2834" stroke="#1D45BA" stroke-width="0.5"/>
<path d="M77.5527 41.9404L253.36 141.765" stroke="#1D45BA" stroke-width="0.5"/>
<path d="M1.35938 106.959L148.731 190.639" stroke="#1D45BA" stroke-width="0.5"/>
</g>
<path d="M111.099 101.702C113.466 86.0998 111.099 82.5078 111.099 82.5078L95.5684 103.347C95.5684 103.347 99.7229 110.015 98.6897 113.766C98.2503 115.515 97.6101 117.206 96.7819 118.806C96.4246 119.439 96.5989 120.24 97.1865 120.665C97.2902 120.746 97.4042 120.812 97.5254 120.863L103.041 124.153L109.71 112.483L111.175 105.902L109.639 107.12C110.325 105.374 110.814 103.557 111.099 101.702Z" fill="url(#paint0_linear_6993_206254)"/>
<path d="M156.92 4.15829L151.623 1.12017C150.872 0.750229 150.089 0.449212 149.284 0.220797C147.857 -0.239857 146.14 0.00692154 144.298 1.08727L79.0824 39.1516C74.1626 42.0197 70.2048 49.6808 70.2267 56.2616L70.407 109.237C70.407 113.185 71.8721 115.818 74.0806 116.711L80.1429 119.892L84.9043 112.714L144.555 77.8959C149.475 75.0277 153.433 67.3666 153.411 60.7859L153.236 9.71356L156.92 4.15829Z" fill="url(#paint1_linear_6993_206254)"/>
<path d="M159.846 11.255C159.846 4.67421 155.822 1.65803 150.913 4.52615L85.6977 42.5959C80.7778 45.4641 76.82 53.1252 76.8419 59.7059L77.0223 112.676C77.0223 119.256 81.0456 122.273 85.9546 119.405L106.099 107.647C106.644 110.969 106.254 114.378 104.973 117.491C104.158 119.317 103.333 120.918 102.589 122.256C102.274 122.842 102.391 123.567 102.876 124.021C103.36 124.476 104.089 124.546 104.65 124.192C109.351 121.121 115.9 115.193 117.382 105.442C117.644 103.715 117.846 102.152 117.999 100.699L151.17 81.3348C156.09 78.4666 160.048 70.8055 160.026 64.2247L159.846 11.255Z" fill="#E1F2FF"/>
<path d="M120.862 39.1784C108.073 46.9126 97.7051 63.5238 97.7051 76.2803C97.7051 89.0364 108.073 93.1071 120.862 85.3729C133.652 77.6386 144.019 61.0275 144.019 48.2709C144.019 35.5149 133.652 31.4436 120.862 39.1784Z" fill="url(#paint2_linear_6993_206254)"/>
<path d="M118.765 74.1362L112.713 69.5324C112 68.989 111.9 67.7834 112.398 66.8035C112.92 65.774 113.974 65.292 114.761 65.8915L119.344 69.3777L128.874 47.8599C129.342 46.8066 130.357 46.2355 131.186 46.734C131.961 47.1987 132.134 48.3871 131.683 49.4059L121.193 73.0881C120.969 73.5967 120.608 74.0098 120.199 74.2184C120.171 74.2334 120.171 74.2334 120.159 74.239C119.683 74.472 119.166 74.4414 118.765 74.1362Z" fill="#E1F2FF"/>
<defs>
<linearGradient id="paint0_linear_6993_206254" x1="95.5691" y1="124.151" x2="112.15" y2="124.151" gradientUnits="userSpaceOnUse">
<stop stop-color="#3154CA"/>
<stop offset="1" stop-color="#17D1AA"/>
</linearGradient>
<linearGradient id="paint1_linear_6993_206254" x1="70.2263" y1="119.891" x2="156.92" y2="119.891" gradientUnits="userSpaceOnUse">
<stop stop-color="#3154CA"/>
<stop offset="1" stop-color="#17D1AA"/>
</linearGradient>
<linearGradient id="paint2_linear_6993_206254" x1="140.36" y1="115.275" x2="171.691" y2="42.3571" gradientUnits="userSpaceOnUse">
<stop stop-color="#17D1AA"/>
<stop offset="1" stop-color="#3154CB"/>
</linearGradient>
</defs>
</svg>
