<svg width="128" height="168" viewBox="0 0 128 168" fill="none" xmlns="http://www.w3.org/2000/svg">
<path d="M116.023 1.51257L123.574 5.61495L118.322 13.1162L118.571 82.0792C118.602 90.9652 112.961 101.31 105.948 105.183L59.1265 131.072C58.9071 132.979 58.622 135.06 58.2587 137.328C57.8533 139.833 57.1555 142.287 56.1782 144.644L58.3678 143L56.2795 151.886L46.7733 167.644L38.9111 163.201C38.7384 163.133 38.576 163.043 38.428 162.935C37.5905 162.36 37.342 161.278 37.8514 160.424C39.0319 158.264 39.9444 155.98 40.5708 153.619C41.481 150.489 39.5668 145.854 37.9716 142.77L20.9217 152.197L14.1348 161.891L5.4935 157.596C2.34552 156.389 0.257265 152.834 0.257265 147.503L0.000128529 75.9701C-0.0310395 67.084 5.61038 56.7392 12.6232 52.8664L105.582 1.46814C108.208 0.00934612 110.654 -0.32388 112.688 0.298142C113.836 0.606571 114.952 1.01303 116.023 1.51257Z" fill="url(#paint0_linear_1736_20356)"/>
<path opacity="0.8" d="M127.743 15.1975C127.743 6.31151 122.008 2.23875 115.011 6.11158L22.0519 57.5172C15.0391 61.3901 9.39767 71.7349 9.42884 80.6209L9.68598 152.146C9.68598 161.032 15.4209 165.105 22.4181 161.232L51.1317 145.356C51.9082 149.842 51.3523 154.445 49.5265 158.648C48.3655 161.114 47.1889 163.276 46.1292 165.083C45.6796 165.873 45.8473 166.852 46.5374 167.466C47.2275 168.08 48.2665 168.175 49.0668 167.697C55.7679 163.55 65.1028 155.545 67.2144 142.379C67.5884 140.046 67.8767 137.936 68.0949 135.973L115.377 109.826C122.39 105.953 128.031 95.6087 128 86.7227L127.743 15.1975Z" fill="#52FCFF"/>
<path d="M72.1773 52.9026C53.9472 63.3462 39.1692 85.7762 39.1692 103.001C39.1692 120.226 53.9472 125.723 72.1773 115.279C90.4074 104.835 105.185 82.4054 105.185 65.1803C105.185 47.9558 90.4074 42.4583 72.1773 52.9026Z" fill="url(#paint1_linear_1736_20356)"/>
<path d="M69.1896 100.106L60.563 93.8895C59.5454 93.1557 59.4036 91.5279 60.1128 90.2047C60.8575 88.8145 62.3594 88.1637 63.4814 88.9731L70.0148 93.6807L83.599 64.6252C84.2659 63.2028 85.7123 62.4317 86.8933 63.1048C87.998 63.7323 88.2452 65.3369 87.6019 66.7127L72.6502 98.6907C72.3298 99.3776 71.8157 99.9354 71.2327 100.217C71.1925 100.237 71.1925 100.237 71.1752 100.245C70.4979 100.559 69.761 100.518 69.1896 100.106Z" fill="white"/>
<defs>
<linearGradient id="paint0_linear_1736_20356" x1="0.000128529" y1="167.645" x2="123.574" y2="167.645" gradientUnits="userSpaceOnUse">
<stop stop-color="#17D1AA"/>
<stop offset="0.15" stop-color="#1ACBAF"/>
<stop offset="0.37" stop-color="#21B8BC"/>
<stop offset="0.62" stop-color="#2E9BD3"/>
<stop offset="0.89" stop-color="#3F71F1"/>
<stop offset="1" stop-color="#475FFF"/>
</linearGradient>
<linearGradient id="paint1_linear_1736_20356" x1="109.445" y1="129.583" x2="109.445" y2="47.2271" gradientUnits="userSpaceOnUse">
<stop stop-color="#1D45BA"/>
<stop offset="0.4204" stop-color="#1D47BA"/>
<stop offset="0.5718" stop-color="#1D4EB9"/>
<stop offset="0.6797" stop-color="#1C59B8"/>
<stop offset="0.767" stop-color="#1B6AB6"/>
<stop offset="0.8417" stop-color="#1A80B3"/>
<stop offset="0.9079" stop-color="#199CB0"/>
<stop offset="0.9663" stop-color="#18BBAD"/>
<stop offset="1" stop-color="#17D1AA"/>
</linearGradient>
</defs>
</svg>
