<svg width="8" height="14" viewBox="0 0 8 14" fill="none" xmlns="http://www.w3.org/2000/svg">
<path d="M3.55876 13.7626C3.61405 13.8372 3.68195 13.897 3.75798 13.9379C3.83401 13.9788 3.91644 14 3.99981 14C4.08319 14 4.16561 13.9788 4.24164 13.9379C4.31767 13.897 4.38558 13.8372 4.44087 13.7626L7.84944 9.17525C8.18835 8.72041 7.91793 8 7.40838 8H0.591239C0.082285 8 -0.188134 8.72041 0.150185 9.17596L3.55876 13.7626Z" fill="black"/>
<path d="M3.55876 0.237442C3.61405 0.162791 3.68195 0.103026 3.75798 0.0620944C3.83401 0.0211634 3.91644 0 3.99981 0C4.08319 0 4.16561 0.0211634 4.24164 0.0620944C4.31767 0.103026 4.38558 0.162791 4.44087 0.237442L7.84944 4.82475C8.18835 5.27959 7.91793 6 7.40838 6H0.591239C0.082285 6 -0.188134 5.27959 0.150185 4.82404L3.55876 0.237442Z" fill="black"/>
</svg>
