<?xml version="1.0" encoding="UTF-8"?>
<svg width="32px" height="32px" viewBox="0 0 30 30" version="1.1" xmlns="http://www.w3.org/2000/svg" xmlns:xlink="http://www.w3.org/1999/xlink">
    <title>icon/asset-no image</title>
    <g id="icon/asset-no-image" stroke="none" stroke-width="1" fill="none" fill-rule="evenodd">
        <rect id="path-1-copy-2" fill="#F0F3F5" x="0" y="0" width="30" height="30" rx="16"></rect>
        <path d="M22.9507031,9.23660156 C21.0842578,8.11675781 18.6157812,7.5 16,7.5 C13.3842187,7.5 10.9157422,8.11675781 9.04933594,9.23660156 C7.08292969,10.4164062 6,12.0192969 6,13.75 L6,18.125 C6,19.8557031 7.08292969,21.4585938 9.04933594,22.6383984 C10.9157422,23.7582422 13.3842187,24.375 16,24.375 C18.6157812,24.375 21.0842578,23.7582422 22.9507031,22.6383984 C24.9170703,21.4585938 26,19.8557031 26,18.125 L26,13.75 C26,12.0192969 24.9170703,10.4164062 22.9507031,9.23660156 Z M9.69242188,10.3084375 C11.3674219,9.30347656 13.6074609,8.75 16,8.75 C18.3925391,8.75 20.6326172,9.30347656 22.3075781,10.3084375 C23.8826172,11.2534766 24.75,12.4757031 24.75,13.75 C24.75,15.0242969 23.8826172,16.2465234 22.3075781,17.1915625 C20.6326172,18.1965234 18.3925391,18.75 16,18.75 C13.6074609,18.75 11.3674219,18.1965234 9.69242188,17.1915625 C8.11742188,16.2465234 7.25,15.0242969 7.25,13.75 C7.25,12.4757031 8.11742188,11.2534766 9.69242188,10.3084375 Z M21,19.1758984 L21,22.2142578 C20.2320703,22.5259375 19.39,22.7616406 18.5,22.9151172 L18.5,19.8061719 C19.3774219,19.6673828 20.2175391,19.4557422 21,19.1758984 Z M13.5,19.8061328 L13.5,22.9150781 C12.61,22.7616016 11.7679688,22.5258984 11,22.2142188 L11,19.1758594 C11.7824609,19.4557422 12.6225781,19.6673828 13.5,19.8061328 Z M7.25,18.125 L7.25,16.8060156 C7.7240625,17.3391016 8.32679688,17.8298828 9.04933594,18.2633984 C9.27433594,18.3983984 9.50832031,18.5258984 9.75003906,18.6460937 L9.75003906,21.6002344 C9.73089844,21.5889453 9.71144531,21.5779297 9.69246094,21.5665234 C8.11742188,20.6215234 7.25,19.3992969 7.25,18.125 L7.25,18.125 Z M14.75,23.0734766 L14.75,19.9522656 C15.1616016,19.98375 15.5788672,19.9999609 16,19.9999609 C16.4211328,19.9999609 16.8383984,19.98375 17.25,19.9522656 L17.25,23.0734766 C16.8395313,23.1074219 16.4222266,23.125 16,23.125 C15.5777734,23.125 15.1604687,23.1073828 14.75,23.0734766 Z M24.75,18.125 C24.75,19.3992969 23.8826172,20.6215234 22.3075781,21.5665625 C22.2885938,21.5779687 22.2691406,21.5889844 22.25,21.6002734 L22.25,18.6460937 C22.4917188,18.5258984 22.7256641,18.3983984 22.9507031,18.2633984 C23.6732031,17.8298828 24.2759375,17.3391016 24.7500391,16.8060156 L24.7500391,18.125 L24.75,18.125 Z" id="Shape" fill="#C4CAD7" fill-rule="nonzero"></path>
    </g>
</svg>