<?xml version="1.0" encoding="UTF-8"?>
<svg width="24px" height="24px" viewBox="0 0 24 24" version="1.1" xmlns="http://www.w3.org/2000/svg" xmlns:xlink="http://www.w3.org/1999/xlink">
    <title>icon/assets-grey</title>
    <g id="icon/assets-grey" stroke="none" stroke-width="1" fill="none" fill-rule="evenodd">
        <polygon id="icon-" points="0 24 24 24 24 0 0 0"></polygon>
        <g id="assets" transform="translate(2.000000, 5.000000)" fill="currentcolor">
            <path d="M7.00538988,0 C10.8680571,0 14.0107798,3.14272269 14.0107798,7.00538988 C14.0107798,10.8690273 10.8680571,14.0107798 7.00538988,14.0107798 C3.14272269,14.0107798 0,10.8690273 0,7.00538988 C0,3.14272269 3.14272269,0 7.00538988,0 Z M12.9946101,0 C13.5554294,0 14.1143082,0.0669490169 14.6586328,0.198906499 L14.6586328,0.198906499 L14.9049035,0.263687798 C17.9173908,1.11397853 20,3.84995147 20,7.00538988 C20,10.2063291 17.8362854,12.9968418 14.7391657,13.7914975 C14.1715544,13.9370388 13.5835674,14.0107798 12.9946101,14.0107798 C12.7588331,14.0107798 12.5249967,13.9981662 12.2950414,13.9758498 C13.057678,13.3965953 13.7271682,12.7028482 14.2647009,11.9091628 C16.4982753,11.3328191 18.0594488,9.31755665 18.0594488,7.00538988 C18.0594488,4.68740146 16.5031267,2.68669316 14.2695523,2.10840889 C13.7310493,1.31084234 13.0596186,0.61612501 12.2950414,0.0359001975 C12.5249967,0.0126135829 12.7588331,0 12.9946101,0 Z M7.00538988,1.94055121 C4.21293668,1.94055121 1.94055121,4.21293668 1.94055121,7.00538988 C1.94055121,9.79881335 4.21293668,12.0702285 7.00538988,12.0702285 C9.79784308,12.0702285 12.0702285,9.79881335 12.0702285,7.00538988 C12.0702285,4.21293668 9.79784308,1.94055121 7.00538988,1.94055121 Z" id="Combined-Shape"></path>
        </g>
    </g>
</svg>