<?xml version="1.0" encoding="UTF-8"?>
<svg width="24px" height="24px" viewBox="0 0 24 24" version="1.1" xmlns="http://www.w3.org/2000/svg" xmlns:xlink="http://www.w3.org/1999/xlink">
    <title>icon/assets-active</title>
    <defs>
        <filter color-interpolation-filters="auto" id="filter-1">
            <feColorMatrix in="SourceGraphic" type="matrix" values="0 0 0 0 1.000000 0 0 0 0 1.000000 0 0 0 0 1.000000 0 0 0 1.000000 0"></feColorMatrix>
        </filter>
    </defs>
    <g id="icon/assets-active" stroke="none" stroke-width="1" fill="none" fill-rule="evenodd">
        <g filter="url(#filter-1)" id="icon/assets">
            <g>
                <polygon id="icon-" points="0 24 24 24 24 0 0 0"></polygon>
                <g id="assets" transform="translate(2.000000, 5.000000)" fill="#FFFFFF">
                    <path d="M7.00538988,1.94055121 C4.21293668,1.94055121 1.94055121,4.21293668 1.94055121,7.00538988 C1.94055121,9.79881335 4.21293668,12.0702285 7.00538988,12.0702285 C9.79784308,12.0702285 12.0702285,9.79881335 12.0702285,7.00538988 C12.0702285,4.21293668 9.79784308,1.94055121 7.00538988,1.94055121 M7.00538988,14.0107798 C3.14272269,14.0107798 0,10.8690273 0,7.00538988 C0,3.14272269 3.14272269,0 7.00538988,0 C10.8680571,0 14.0107798,3.14272269 14.0107798,7.00538988 C14.0107798,10.8690273 10.8680571,14.0107798 7.00538988,14.0107798" id="Fill-1"></path>
                    <path d="M14.6586328,0.198906499 L14.6586328,0.198906499 C14.1143082,0.0669490169 13.5554294,0 12.9946101,0 C12.7588331,0 12.5249967,0.0126135829 12.2950414,0.0359001975 C13.0596186,0.61612501 13.7310493,1.31084234 14.2695523,2.10840889 C16.5031267,2.68669316 18.0594488,4.68740146 18.0594488,7.00538988 C18.0594488,9.31755665 16.4982753,11.3328191 14.2647009,11.9091628 C13.7271682,12.7028482 13.057678,13.3965953 12.2950414,13.9758498 C12.5249967,13.9981662 12.7588331,14.0107798 12.9946101,14.0107798 C13.5835674,14.0107798 14.1715544,13.9370388 14.7391657,13.7914975 C17.8362854,12.9968418 20,10.2063291 20,7.00538988 C20,3.76466935 17.803296,0.966394504 14.6586328,0.198906499" id="Fill-4"></path>
                </g>
            </g>
        </g>
    </g>
</svg>