<?xml version="1.0" encoding="UTF-8"?>
<svg width="24px" height="24px" viewBox="0 0 24 24" version="1.1" xmlns="http://www.w3.org/2000/svg" xmlns:xlink="http://www.w3.org/1999/xlink">
    <title>icon/assets-active</title>
    <g id="icon/assets-active" stroke="none" stroke-width="1" fill="none" fill-rule="evenodd">
        <g  id="icon/assets">
            <polygon  id="icon-" points="0 24 24 24 24 0 0 0"></polygon>
            <path stroke="currentcolor" d="M9.00538988,5 C12.8680571,5 16.0107798,8.14272269 16.0107798,12.0053899 C16.0107798,15.8690273 12.8680571,19.0107798 9.00538988,19.0107798 C5.14272269,19.0107798 2,15.8690273 2,12.0053899 C2,8.14272269 5.14272269,5 9.00538988,5 Z M14.9946101,5 C15.5554294,5 16.1143082,5.06694902 16.6586328,5.1989065 L16.6586328,5.1989065 L16.9049035,5.2636878 C19.9173908,6.11397853 22,8.84995147 22,12.0053899 C22,15.2063291 19.8362854,17.9968418 16.7391657,18.7914975 C16.1715544,18.9370388 15.5835674,19.0107798 14.9946101,19.0107798 C14.7588331,19.0107798 14.5249967,18.9981662 14.2950414,18.9758498 C15.057678,18.3965953 15.7271682,17.7028482 16.2647009,16.9091628 C18.4982753,16.3328191 20.0594488,14.3175567 20.0594488,12.0053899 C20.0594488,9.68740146 18.5031267,7.68669316 16.2695523,7.10840889 C15.7310493,6.31084234 15.0596186,5.61612501 14.2950414,5.0359002 C14.5249967,5.01261358 14.7588331,5 14.9946101,5 Z M9.00538988,6.94055121 C6.21293668,6.94055121 3.94055121,9.21293668 3.94055121,12.0053899 C3.94055121,14.7988134 6.21293668,17.0702285 9.00538988,17.0702285 C11.7978431,17.0702285 14.0702285,14.7988134 14.0702285,12.0053899 C14.0702285,9.21293668 11.7978431,6.94055121 9.00538988,6.94055121 Z" id="Combined-Shape" fill="#FFFFFF"></path>
        </g>
    </g>
</svg>

