<svg width="32" height="32" viewBox="0 0 32 32" fill="none" xmlns="http://www.w3.org/2000/svg">
<rect width="32" height="32" rx="16" fill="#F0F3F5"/>
<path d="M16 23.619C19.0293 23.619 22.0952 22.5722 22.0952 20.5714V11.4286C22.0952 9.42781 19.0293 8.38095 16 8.38095C12.9707 8.38095 9.90475 9.42781 9.90475 11.4286V20.5714C9.90475 22.5722 12.9707 23.619 16 23.619ZM16 22.0952C13.1642 22.0952 11.4286 21.1086 11.4286 20.5714V19.6053C12.6027 20.2438 14.3063 20.5714 16 20.5714C17.6937 20.5714 19.3973 20.2438 20.5714 19.6053V20.5714C20.5714 21.1086 18.8358 22.0952 16 22.0952ZM16 9.90476C18.8358 9.90476 20.5714 10.8914 20.5714 11.4286C20.5714 11.9657 18.8358 12.9524 16 12.9524C13.1642 12.9524 11.4286 11.9657 11.4286 11.4286C11.4286 10.8914 13.1642 9.90476 16 9.90476ZM11.4286 13.5101C12.6027 14.1486 14.3063 14.4762 16 14.4762C17.6937 14.4762 19.3973 14.1486 20.5714 13.5101V14.4762C20.5714 15.0133 18.8358 16 16 16C13.1642 16 11.4286 15.0133 11.4286 14.4762V13.5101ZM11.4286 16.5577C12.6027 17.1962 14.3063 17.5238 16 17.5238C17.6937 17.5238 19.3973 17.1962 20.5714 16.5577V17.5238C20.5714 18.061 18.8358 19.0476 16 19.0476C13.1642 19.0476 11.4286 18.061 11.4286 17.5238V16.5577Z" fill="#A7AFC0"/>
</svg>
