<svg width="20" height="20" viewBox="0 0 20 20" fill="none" xmlns="http://www.w3.org/2000/svg">
<path fillRule="evenodd" clipRule="evenodd" d="M1 0C0.447715 0 0 0.447715 0 1V8C0 8.55228 0.447715 9 1 9H8C8.55228 9 9 8.55228 9 8V1C9 0.447715 8.55228 0 8 0H1ZM2 7V2H7V7H2Z" fill="black"/>
<path fillRule="evenodd" clipRule="evenodd" d="M12 0C11.4477 0 11 0.447715 11 1V8C11 8.55228 11.4477 9 12 9H19C19.5523 9 20 8.55228 20 8V1C20 0.447715 19.5523 0 19 0H12ZM13 7V2H18V7H13Z" fill="black"/>
<path fillRule="evenodd" clipRule="evenodd" d="M11 12C11 11.4477 11.4477 11 12 11H19C19.5523 11 20 11.4477 20 12V19C20 19.5523 19.5523 20 19 20H12C11.4477 20 11 19.5523 11 19V12ZM13 13V18H18V13H13Z" fill="black"/>
<path fillRule="evenodd" clipRule="evenodd" d="M1 11C0.447715 11 0 11.4477 0 12V19C0 19.5523 0.447715 20 1 20H8C8.55228 20 9 19.5523 9 19V12C9 11.4477 8.55228 11 8 11H1ZM2 18V13H7V18H2Z" fill="black"/>
</svg>
