<svg width="20" height="20" viewBox="0 0 20 20" fill="none" xmlns="http://www.w3.org/2000/svg">
<path fillRule="evenodd" clipRule="evenodd" d="M0 1C0 0.447715 0.447715 0 1 0H5C5.55228 0 6 0.447715 6 1V5C6 5.55228 5.55228 6 5 6H1C0.447715 6 0 5.55228 0 5V1ZM2 2V4H4V2H2Z" fill="black"/>
<path fillRule="evenodd" clipRule="evenodd" d="M0 8C0 7.44772 0.447715 7 1 7H5C5.55228 7 6 7.44772 6 8V12C6 12.5523 5.55228 13 5 13H1C0.447715 13 0 12.5523 0 12V8ZM2 9V11H4V9H2Z" fill="black"/>
<path fillRule="evenodd" clipRule="evenodd" d="M7 1C7 0.447715 7.44772 0 8 0H12C12.5523 0 13 0.447715 13 1V5C13 5.55228 12.5523 6 12 6H8C7.44772 6 7 5.55228 7 5V1ZM9 2V4H11V2H9Z" fill="black"/>
<path fillRule="evenodd" clipRule="evenodd" d="M7 8C7 7.44772 7.44772 7 8 7H12C12.5523 7 13 7.44772 13 8V12C13 12.5523 12.5523 13 12 13H8C7.44772 13 7 12.5523 7 12V8ZM9 9V11H11V9H9Z" fill="black"/>
<path fillRule="evenodd" clipRule="evenodd" d="M14 1C14 0.447715 14.4477 0 15 0H19C19.5523 0 20 0.447715 20 1V5C20 5.55228 19.5523 6 19 6H15C14.4477 6 14 5.55228 14 5V1ZM16 2V4H18V2H16Z" fill="black"/>
<path fillRule="evenodd" clipRule="evenodd" d="M14 8C14 7.44772 14.4477 7 15 7H19C19.5523 7 20 7.44772 20 8V12C20 12.5523 19.5523 13 19 13H15C14.4477 13 14 12.5523 14 12V8ZM16 9V11H18V9H16Z" fill="black"/>
<path fillRule="evenodd" clipRule="evenodd" d="M1 14C0.447715 14 0 14.4477 0 15V19C0 19.5523 0.447715 20 1 20H5C5.55228 20 6 19.5523 6 19V15C6 14.4477 5.55228 14 5 14H1ZM2 18V16H4V18H2Z" fill="black"/>
<path fillRule="evenodd" clipRule="evenodd" d="M8 14C7.44772 14 7 14.4477 7 15V19C7 19.5523 7.44772 20 8 20H12C12.5523 20 13 19.5523 13 19V15C13 14.4477 12.5523 14 12 14H8ZM9 18V16H11V18H9Z" fill="black"/>
<path fillRule="evenodd" clipRule="evenodd" d="M14 15C14 14.4477 14.4477 14 15 14H19C19.5523 14 20 14.4477 20 15V19C20 19.5523 19.5523 20 19 20H15C14.4477 20 14 19.5523 14 19V15ZM16 16V18H18V16H16Z" fill="black"/>
</svg>
