<?xml version="1.0" encoding="UTF-8"?>
<svg width="16px" height="16px" viewBox="0 0 16 16" version="1.1" xmlns="http://www.w3.org/2000/svg" xmlns:xlink="http://www.w3.org/1999/xlink">
    <title>Icon/info</title>
    <g id="Icon/info" stroke="none" stroke-width="1" fill="none" fill-rule="evenodd">
        <g id="info" transform="translate(2.000000, 2.000000)" fill="#8A92A3" fill-rule="nonzero">
            <path d="M6,0 C9.3137085,0 12,2.6862915 12,6 C12,9.3137085 9.3137085,12 6,12 C2.6862915,12 0,9.3137085 0,6 C0,2.6862915 2.6862915,0 6,0 Z M6,1.09090909 C3.28878396,1.09090909 1.09090909,3.28878396 1.09090909,6 C1.09090909,8.71121604 3.28878396,10.9090909 6,10.9090909 C8.71121604,10.9090909 10.9090909,8.71121604 10.9090909,6 C10.9090909,3.28878396 8.71121604,1.09090909 6,1.09090909 Z M6.02046957,4.98964424 C6.33600352,4.98964424 6.59189815,5.23887087 6.59189815,5.54637501 L6.59189815,8.68483655 C6.59189815,8.99220533 6.33595295,9.24156732 6.02046957,9.24156732 C5.7049862,9.24156732 5.449041,8.99220533 5.449041,8.68483655 L5.449041,5.54637501 C5.449041,5.23900624 5.7049862,4.98964424 6.02046957,4.98964424 Z M5.99258902,2.99417523 C6.3336461,2.99417523 6.61012748,3.27065662 6.61012748,3.6117137 C6.61012748,3.95277077 6.3336461,4.22925216 5.99258902,4.22925216 C5.65153195,4.22925216 5.37505056,3.95277077 5.37505056,3.6117137 C5.37505056,3.27065662 5.65153195,2.99417523 5.99258902,2.99417523 Z" id="Combined-Shape"></path>
        </g>
    </g>
</svg>