<svg width="280" height="320" viewBox="0 0 280 320" fill="none" xmlns="http://www.w3.org/2000/svg">
<g opacity="0.2">
<path d="M97.6914 314.428L272 219.352" stroke="#1D45BA" stroke-width="0.5"/>
<path d="M31.4531 267.056L194.056 178.366" stroke="#1D45BA" stroke-width="0.5"/>
<path d="M87.5801 167L271.202 267.027" stroke="#1D45BA" stroke-width="0.5"/>
<path d="M8 232.15L161.923 316" stroke="#1D45BA" stroke-width="0.5"/>
</g>
<path d="M129.641 278.12L39.0938 225.841V121.283L129.641 173.562V278.12Z" fill="url(#paint0_linear_581_62105)"/>
<path d="M220.188 121.283L129.641 173.562V278.12L220.188 225.841V121.283Z" fill="url(#paint1_linear_581_62105)"/>
<path d="M129.641 69.0132L220.188 121.283L129.641 173.562L39.0938 121.283L129.641 69.0132Z" fill="url(#paint2_linear_581_62105)"/>
<path d="M41.0938 121.284L129.641 70.1678L218.188 121.284L129.641 172.408L41.0938 121.284Z" stroke="url(#paint3_linear_581_62105)" stroke-width="2"/>
<path d="M112.509 235.105C116.563 231.067 118.958 224.584 118.958 216.073C118.958 194.792 104.015 168.918 85.5998 158.286C74.5829 151.922 64.8149 152.452 58.7419 158.448L54.4652 162.571C50.2825 166.591 47.8105 173.152 47.8105 181.816C47.8105 203.097 62.7449 228.972 81.1691 239.612C91.955 245.839 101.543 245.454 107.685 239.8L107.796 239.689L108.078 239.424L112.201 235.43L112.5 235.139L112.509 235.105Z" fill="url(#paint4_linear_581_62105)"/>
<path d="M104.782 241.94C117.812 234.418 117.811 210.022 104.78 187.452C91.749 164.881 70.6224 152.683 57.5923 160.206C44.5623 167.729 44.5631 192.124 57.5941 214.694C70.6251 237.265 91.7518 249.463 104.782 241.94Z" fill="#163FA5"/>
<path opacity="0.7" d="M99.1459 232.177C109.063 226.452 109.062 207.885 99.1438 190.706C89.2258 173.528 73.1466 164.243 63.2299 169.969C53.3131 175.694 53.3141 194.261 63.2321 211.44C73.15 228.618 89.2292 237.903 99.1459 232.177Z" fill="#52FCFF"/>
<path fill-rule="evenodd" clip-rule="evenodd" d="M87.3165 205.194L92.3966 222.515C92.5688 223.112 92.9993 223.795 93.9464 223.539C94.6353 223.368 94.2909 222.259 94.0325 221.576L83.0113 182.412C82.753 181.388 82.3225 180.364 81.4614 179.852C80.6865 179.34 79.8255 179.852 79.4811 180.534L68.0293 207.924V208.095C68.0293 208.607 68.1154 208.777 68.632 209.033C68.9764 209.204 69.2347 209.204 69.407 208.948C70.9568 205.364 72.8511 200.842 74.3149 197.258L87.3165 205.194ZM80.256 183.009C80.6865 181.814 81.117 182.326 81.6336 184.118L86.886 203.316L75.0037 196.064L80.256 183.009Z" fill="#1D45BA"/>
<path d="M93.688 209.289L68.5458 194.101C68.2874 193.931 68.1152 193.589 68.1152 193.248V192.48C68.1152 192.139 68.2874 192.053 68.5458 192.139L93.688 207.327C93.9463 207.497 94.1185 207.839 94.1185 208.18V208.948C94.2046 209.289 93.9463 209.46 93.688 209.289Z" fill="#1D45BA"/>
<path d="M91.4487 201.183L70.87 188.726C70.6117 188.555 70.4395 188.214 70.4395 187.872V187.019C70.4395 186.678 70.6117 186.593 70.87 186.678L91.4487 199.135C91.707 199.306 91.8792 199.647 91.8792 199.989V200.757C91.8792 201.183 91.707 201.354 91.4487 201.183Z" fill="#1D45BA"/>
<path d="M81.1855 171.758C83.765 173.272 86.1888 175.037 88.4218 177.027C90.6427 179.036 92.6913 181.227 94.5461 183.578C98.2732 188.293 101.288 193.53 103.493 199.12C103.792 199.804 104.023 200.523 104.271 201.233C104.519 201.943 104.776 202.644 104.981 203.371C105.375 204.817 105.837 206.262 106.068 207.751C106.196 208.486 106.393 209.213 106.47 209.966L106.752 212.207C106.855 212.96 106.837 213.712 106.889 214.465C106.927 215.22 106.927 215.977 106.889 216.732C106.862 219.777 106.268 222.791 105.135 225.619C104.069 228.55 102.006 231.013 99.3072 232.577C96.6082 234.141 93.4453 234.705 90.372 234.172C87.3638 233.737 84.463 232.745 81.8185 231.247C81.1503 230.895 80.5021 230.507 79.8769 230.084C79.2525 229.665 78.5853 229.305 77.9951 228.843L76.1903 227.475C75.5745 227.039 75.0442 226.5 74.4796 226.012C73.3164 225.054 72.2899 223.951 71.2293 222.89C70.7075 222.343 70.2285 221.761 69.7324 221.18C69.2363 220.598 68.7317 220.059 68.2869 219.469C64.5498 214.761 61.5239 209.531 59.3058 203.944C58.2133 201.17 57.3549 198.309 56.7397 195.391C56.1277 192.462 55.8124 189.479 55.7988 186.487C55.8734 189.448 56.2459 192.393 56.9108 195.28C57.5983 198.179 58.5312 201.015 59.6992 203.756C61.9808 209.253 65.0557 214.385 68.8258 218.99C69.2791 219.58 69.7838 220.127 70.2713 220.701C70.7589 221.274 71.2464 221.813 71.7682 222.343C72.8374 223.378 73.8467 224.464 74.9928 225.405C75.5574 225.884 76.0877 226.406 76.7035 226.842L78.4827 228.168C79.0728 228.621 79.7229 228.972 80.3388 229.382C80.9518 229.791 81.5856 230.168 82.2376 230.511C84.8075 231.953 87.6244 232.902 90.5431 233.308C93.4345 233.794 96.4047 233.258 98.944 231.792C101.483 230.327 103.433 228.023 104.46 225.277C105.551 222.555 106.131 219.655 106.17 216.723C106.209 215.985 106.209 215.246 106.17 214.508C106.127 213.772 106.17 213.037 106.051 212.301L105.785 210.094C105.717 209.359 105.52 208.64 105.392 207.905C105.152 206.442 104.716 205.022 104.348 203.628C104.16 202.918 103.895 202.216 103.673 201.507C103.45 200.797 103.228 200.095 102.937 199.411C100.82 193.843 97.8979 188.615 94.2638 183.895C92.4733 181.513 90.4847 179.287 88.3191 177.24C86.128 175.182 83.7384 173.345 81.1855 171.758Z" fill="#D9F8FF"/>
<path d="M199.444 215.646C212.475 193.076 212.476 168.68 199.446 161.158C186.416 153.635 165.289 165.833 152.258 188.403C139.227 210.974 139.226 235.369 152.256 242.892C165.286 250.415 186.413 238.217 199.444 215.646Z" stroke="white" stroke-width="0.75" stroke-miterlimit="10"/>
<path opacity="0.7" d="M195.844 213.568C206.886 194.442 206.887 173.77 195.845 167.395C184.803 161.02 166.9 171.356 155.858 190.482C144.816 209.608 144.815 230.28 155.857 236.655C166.899 243.03 184.802 232.694 195.844 213.568Z" fill="#52FCFF"/>
<path d="M170.518 144.386L164.453 148.826V79.226L170.518 74.7782V144.386Z" fill="url(#paint5_linear_581_62105)"/>
<path opacity="0.7" d="M164.454 148.826L85.1543 103.048V33.4393L164.454 79.2261V148.826Z" fill="#52FCFF"/>
<path d="M161.7 143.822L87.918 101.226V98.3857L161.7 140.991V143.822Z" fill="white"/>
<path d="M132.054 123.875L87.918 98.3857V101.226L132.054 126.715V123.875Z" fill="url(#paint6_linear_581_62105)"/>
<path d="M134.003 126.313C134.003 127.553 133.148 128.024 132.053 127.433C131.486 127.065 131.014 126.568 130.677 125.982C130.339 125.396 130.146 124.739 130.111 124.063C130.111 122.823 130.967 122.353 132.053 122.943C132.622 123.31 133.095 123.807 133.434 124.393C133.773 124.979 133.968 125.637 134.003 126.313Z" fill="url(#paint7_linear_581_62105)"/>
<path d="M85.1543 33.4393L91.2187 29L170.518 74.7782L164.454 79.226L85.1543 33.4393Z" fill="url(#paint8_linear_581_62105)"/>
<path d="M138.429 113.152C145.952 108.809 145.953 94.7243 138.43 81.6943C130.907 68.6643 118.709 61.6226 111.186 65.9662C103.662 70.3099 103.662 84.3941 111.185 97.4241C118.708 110.454 130.905 117.496 138.429 113.152Z" fill="url(#paint9_linear_581_62105)"/>
<path d="M136.844 97.2054L117.342 72.9392V98.9418L136.844 97.2054Z" fill="white"/>
<path d="M160.465 219.034C160.341 219.105 160.229 219.119 160.13 219.076C160.043 219.012 160 218.908 160 218.765L160 204.832C160 204.675 160.043 204.521 160.13 204.371C160.217 204.206 160.328 204.085 160.465 204.006L162.566 202.793C162.851 202.628 163.061 202.643 163.198 202.836L167.585 208.31L167.585 200.453C167.585 200.296 167.629 200.142 167.716 199.991C167.802 199.827 167.914 199.705 168.05 199.626L170.411 198.263C170.548 198.185 170.659 198.177 170.746 198.242C170.833 198.292 170.876 198.396 170.876 198.553L170.876 212.464C170.876 212.622 170.833 212.783 170.746 212.947C170.659 213.098 170.548 213.212 170.411 213.291L168.311 214.504C168.025 214.668 167.815 214.654 167.678 214.461L163.309 209.298L163.309 216.855C163.309 217.012 163.26 217.169 163.161 217.327C163.074 217.477 162.962 217.592 162.826 217.67L160.465 219.034Z" fill="#1737A3"/>
<path d="M173.864 211.298C173.74 211.369 173.628 211.383 173.529 211.34C173.443 211.276 173.399 211.172 173.399 211.029L173.399 197.096C173.399 196.939 173.443 196.785 173.529 196.635C173.616 196.47 173.728 196.349 173.864 196.27L182.509 191.279C182.646 191.2 182.757 191.193 182.844 191.257C182.943 191.3 182.993 191.4 182.993 191.558L182.993 193.833C182.993 193.991 182.943 194.148 182.844 194.306C182.757 194.456 182.646 194.57 182.509 194.649L176.82 197.934L176.82 200.918L182.137 197.848C182.274 197.769 182.385 197.762 182.472 197.826C182.571 197.869 182.621 197.969 182.621 198.127L182.621 200.403C182.621 200.56 182.571 200.717 182.472 200.875C182.385 201.025 182.274 201.14 182.137 201.218L176.82 204.288L176.82 209.054C176.82 209.197 176.777 209.351 176.69 209.516C176.603 209.666 176.492 209.78 176.355 209.859L173.864 211.298Z" fill="#1737A3"/>
<path d="M188.293 202.967C188.157 203.046 188.039 203.064 187.94 203.021C187.853 202.971 187.81 202.867 187.81 202.709L187.81 191.718L184.537 193.607C184.401 193.686 184.283 193.703 184.184 193.661C184.097 193.61 184.054 193.507 184.054 193.349L184.054 190.945C184.054 190.787 184.097 190.634 184.184 190.483C184.283 190.312 184.401 190.186 184.537 190.108L194.633 184.279C194.769 184.2 194.881 184.193 194.967 184.258C195.067 184.3 195.116 184.401 195.116 184.558L195.116 186.963C195.116 187.12 195.067 187.277 194.967 187.435C194.881 187.585 194.769 187.7 194.633 187.778L191.361 189.667L191.361 200.659C191.361 200.817 191.311 200.974 191.212 201.131C191.125 201.282 191.014 201.396 190.877 201.475L188.293 202.967Z" fill="#1737A3"/>
<defs>
<linearGradient id="paint0_linear_581_62105" x1="135.484" y1="297.496" x2="135.484" y2="120.456" gradientUnits="userSpaceOnUse">
<stop stopColor="#1D45BA"/>
<stop offset="0.4204" stopColor="#1D47BA"/>
<stop offset="0.5718" stopColor="#1D4EB9"/>
<stop offset="0.6797" stopColor="#1C59B8"/>
<stop offset="0.767" stopColor="#1B6AB6"/>
<stop offset="0.8417" stopColor="#1A80B3"/>
<stop offset="0.9079" stopColor="#199CB0"/>
<stop offset="0.9663" stopColor="#18BBAD"/>
<stop offset="1" stopColor="#17D1AA"/>
</linearGradient>
<linearGradient id="paint1_linear_581_62105" x1="226.031" y1="297.496" x2="226.031" y2="120.456" gradientUnits="userSpaceOnUse">
<stop stopColor="#1D45BA"/>
<stop offset="0.4204" stopColor="#1D47BA"/>
<stop offset="0.5718" stopColor="#1D4EB9"/>
<stop offset="0.6797" stopColor="#1C59B8"/>
<stop offset="0.767" stopColor="#1B6AB6"/>
<stop offset="0.8417" stopColor="#1A80B3"/>
<stop offset="0.9079" stopColor="#199CB0"/>
<stop offset="0.9663" stopColor="#18BBAD"/>
<stop offset="1" stopColor="#17D1AA"/>
</linearGradient>
<linearGradient id="paint2_linear_581_62105" x1="39.0941" y1="173.545" x2="220.188" y2="173.545" gradientUnits="userSpaceOnUse">
<stop stopColor="#17D1AA"/>
<stop offset="0.07" stopColor="#1AC2AE"/>
<stop offset="0.27" stopColor="#229BB8"/>
<stop offset="0.46" stopColor="#297CC0"/>
<stop offset="0.65" stopColor="#2D66C6"/>
<stop offset="0.83" stopColor="#3059CA"/>
<stop offset="1" stopColor="#3154CB"/>
</linearGradient>
<linearGradient id="paint3_linear_581_62105" x1="129.641" y1="69.0132" x2="129.641" y2="173.562" gradientUnits="userSpaceOnUse">
<stop stopColor="#93F5E1"/>
<stop offset="1" stopColor="#C6F7ED"/>
</linearGradient>
<linearGradient id="paint4_linear_581_62105" x1="123.55" y1="255.334" x2="123.55" y2="153.251" gradientUnits="userSpaceOnUse">
<stop stopColor="#1D45BA"/>
<stop offset="0.4204" stopColor="#1D47BA"/>
<stop offset="0.5718" stopColor="#1D4EB9"/>
<stop offset="0.6797" stopColor="#1C59B8"/>
<stop offset="0.767" stopColor="#1B6AB6"/>
<stop offset="0.8417" stopColor="#1A80B3"/>
<stop offset="0.9079" stopColor="#199CB0"/>
<stop offset="0.9663" stopColor="#18BBAD"/>
<stop offset="1" stopColor="#17D1AA"/>
</linearGradient>
<linearGradient id="paint5_linear_581_62105" x1="170.909" y1="157.973" x2="170.909" y2="74.3876" gradientUnits="userSpaceOnUse">
<stop stopColor="#1D45BA"/>
<stop offset="0.4204" stopColor="#1D47BA"/>
<stop offset="0.5718" stopColor="#1D4EB9"/>
<stop offset="0.6797" stopColor="#1C59B8"/>
<stop offset="0.767" stopColor="#1B6AB6"/>
<stop offset="0.8417" stopColor="#1A80B3"/>
<stop offset="0.9079" stopColor="#199CB0"/>
<stop offset="0.9663" stopColor="#18BBAD"/>
<stop offset="1" stopColor="#17D1AA"/>
</linearGradient>
<linearGradient id="paint6_linear_581_62105" x1="134.033" y1="143.868" x2="159.873" y2="74.4003" gradientUnits="userSpaceOnUse">
<stop stopColor="#244ABF"/>
<stop offset="1" stopColor="#4760FF"/>
</linearGradient>
<linearGradient id="paint7_linear_581_62105" x1="134.178" y1="130.712" x2="140.857" y2="121.734" gradientUnits="userSpaceOnUse">
<stop stopColor="#244ABF"/>
<stop offset="1" stopColor="#4760FF"/>
</linearGradient>
<linearGradient id="paint8_linear_581_62105" x1="85.1545" y1="79.2175" x2="170.518" y2="79.2175" gradientUnits="userSpaceOnUse">
<stop stopColor="#17D1AA"/>
<stop offset="0.07" stopColor="#1AC2AE"/>
<stop offset="0.27" stopColor="#229BB8"/>
<stop offset="0.46" stopColor="#297CC0"/>
<stop offset="0.65" stopColor="#2D66C6"/>
<stop offset="0.83" stopColor="#3059CA"/>
<stop offset="1" stopColor="#3154CB"/>
</linearGradient>
<linearGradient id="paint9_linear_581_62105" x1="145.799" y1="144.561" x2="212.421" y2="55.5353" gradientUnits="userSpaceOnUse">
<stop stopColor="#244ABF"/>
<stop offset="1" stopColor="#4760FF"/>
</linearGradient>
</defs>
</svg>
