<svg width="228" height="260" viewBox="0 0 228 260" fill="none" xmlns="http://www.w3.org/2000/svg">
<g opacity="0.2">
<path d="M79.5488 255.473L221.486 178.224" stroke="#1D45BA" stroke-width="0.5"/>
<path d="M25.6113 216.984L158.017 144.923" stroke="#1D45BA" stroke-width="0.5"/>
<path d="M71.3145 135.688L220.835 216.96" stroke="#1D45BA" stroke-width="0.5"/>
<path d="M6.51367 188.622L131.851 256.75" stroke="#1D45BA" stroke-width="0.5"/>
</g>
<path d="M105.565 225.973L31.834 183.496V98.543L105.565 141.02V225.973Z" fill="url(#paint0_linear_1043_78601)"/>
<path d="M179.296 98.543L105.564 141.02V225.973L179.296 183.496V98.543Z" fill="url(#paint1_linear_1043_78601)"/>
<path d="M105.565 56.0732L179.296 98.5429L105.565 141.019L31.834 98.5429L105.565 56.0732Z" fill="url(#paint2_linear_1043_78601)"/>
<path d="M33.8374 98.5429L105.565 57.2273L177.293 98.5429L105.565 139.865L33.8374 98.5429Z" stroke="url(#paint3_linear_1043_78601)" stroke-width="2"/>
<path d="M91.6147 191.022C94.9161 187.742 96.8663 182.474 96.8663 175.559C96.8663 158.268 84.6985 137.246 69.7029 128.607C60.732 123.437 52.778 123.867 47.8329 128.739L44.3504 132.089C40.9445 135.355 38.9316 140.686 38.9316 147.726C38.9316 165.017 51.0925 186.039 66.095 194.685C74.8779 199.744 82.6856 199.431 87.6865 194.838L87.777 194.747L88.0068 194.532L91.364 191.286L91.6077 191.05L91.6147 191.022Z" fill="url(#paint4_linear_1043_78601)"/>
<path d="M85.3224 196.576C95.9326 190.464 95.9319 170.642 85.321 152.304C74.71 133.966 57.5068 124.054 46.8967 130.167C36.2865 136.279 36.2871 156.1 46.8981 174.439C57.5091 192.777 74.7122 202.688 85.3224 196.576Z" fill="#163FA5"/>
<path opacity="0.7" d="M80.7333 188.644C88.8084 183.992 88.8076 168.906 80.7316 154.949C72.6555 140.991 59.5625 133.448 51.4874 138.1C43.4124 142.751 43.4131 157.837 51.4892 171.795C59.5652 185.752 72.6583 193.296 80.7333 188.644Z" fill="#52FCFF"/>
<path fillRule="evenodd" clipRule="evenodd" d="M71.1018 166.72L75.2384 180.794C75.3786 181.279 75.7292 181.834 76.5004 181.626C77.0613 181.487 76.7809 180.586 76.5706 180.031L67.5961 148.21C67.3858 147.378 67.0352 146.546 66.3341 146.13C65.7031 145.714 65.0019 146.13 64.7215 146.685L55.3965 168.939V169.077C55.3965 169.493 55.4666 169.632 55.8873 169.84C56.1677 169.979 56.3781 169.979 56.5183 169.771C57.7803 166.859 59.3228 163.184 60.5147 160.273L71.1018 166.72ZM65.3525 148.695C65.7031 147.724 66.0536 148.14 66.4743 149.596L70.7512 165.195L61.0756 159.302L65.3525 148.695Z" fill="#1D45BA"/>
<path d="M76.2903 170.048L55.8174 157.707C55.607 157.569 55.4668 157.291 55.4668 157.014V156.39C55.4668 156.113 55.607 156.044 55.8174 156.113L76.2903 168.453C76.5007 168.592 76.6409 168.869 76.6409 169.146V169.77C76.711 170.048 76.5007 170.186 76.2903 170.048Z" fill="#1D45BA"/>
<path d="M74.4669 163.462L57.7099 153.34C57.4996 153.202 57.3594 152.924 57.3594 152.647V151.954C57.3594 151.676 57.4996 151.607 57.7099 151.676L74.4669 161.798C74.6772 161.937 74.8175 162.214 74.8175 162.491V163.115C74.8175 163.462 74.6772 163.601 74.4669 163.462Z" fill="#1D45BA"/>
<path d="M66.1095 139.553C68.2099 140.783 70.1836 142.217 72.0019 143.834C73.8103 145.466 75.4785 147.247 76.9888 149.157C80.0238 152.988 82.4784 157.242 84.2742 161.785C84.518 162.341 84.706 162.925 84.908 163.501C85.11 164.078 85.3189 164.648 85.4861 165.239C85.8065 166.413 86.1826 167.588 86.3707 168.797C86.4751 169.395 86.6353 169.985 86.698 170.597L86.9279 172.418C87.0114 173.029 86.9975 173.641 87.0393 174.253C87.0707 174.866 87.0707 175.481 87.0393 176.094C87.0178 178.569 86.5336 181.018 85.6115 183.315C84.7434 185.697 83.0634 187.698 80.8657 188.968C78.668 190.239 76.0925 190.698 73.5899 190.265C71.1404 189.911 68.7783 189.105 66.625 187.888C66.0808 187.602 65.553 187.287 65.0439 186.943C64.5355 186.602 63.9922 186.31 63.5116 185.935L62.042 184.823C61.5405 184.469 61.1087 184.031 60.649 183.635C59.7018 182.856 58.866 181.96 58.0023 181.098C57.5775 180.653 57.1874 180.181 56.7834 179.708C56.3795 179.236 55.9685 178.798 55.6064 178.318C52.5633 174.493 50.0993 170.243 48.2931 165.704C47.4036 163.45 46.7046 161.125 46.2037 158.755C45.7053 156.375 45.4486 153.951 45.4375 151.52C45.4982 153.926 45.8016 156.319 46.3429 158.664C46.9028 161.02 47.6624 163.324 48.6135 165.552C50.4714 170.017 52.9752 174.188 56.0452 177.929C56.4143 178.409 56.8252 178.853 57.2222 179.319C57.6192 179.785 58.0162 180.222 58.4411 180.653C59.3117 181.494 60.1336 182.377 61.0669 183.141C61.5266 183.53 61.9584 183.954 62.4599 184.309L63.9086 185.386C64.3892 185.754 64.9185 186.039 65.42 186.373C65.9192 186.705 66.4353 187.011 66.9662 187.29C69.0589 188.462 71.3526 189.233 73.7292 189.563C76.0837 189.957 78.5023 189.522 80.57 188.331C82.6377 187.14 84.2256 185.268 85.0612 183.037C85.95 180.826 86.4222 178.47 86.4542 176.087C86.4855 175.488 86.4855 174.887 86.4542 174.287C86.4194 173.69 86.4542 173.092 86.3567 172.494L86.1408 170.701C86.0851 170.104 85.9249 169.52 85.8204 168.922C85.6254 167.734 85.2702 166.58 84.9707 165.447C84.8175 164.87 84.6016 164.301 84.4205 163.724C84.2394 163.147 84.0583 162.577 83.8215 162.021C82.0976 157.497 79.7182 153.25 76.759 149.414C75.301 147.479 73.6817 145.67 71.9183 144.007C70.1341 142.335 68.1883 140.843 66.1095 139.553Z" fill="#D9F8FF"/>
<path d="M162.405 175.212C173.016 156.874 173.017 137.052 162.406 130.94C151.796 124.828 134.593 134.739 123.982 153.077C113.371 171.416 113.37 191.237 123.981 197.35C134.591 203.462 151.794 193.551 162.405 175.212Z" stroke="white" stroke-width="0.75" stroke-miterlimit="10"/>
<path opacity="0.7" d="M159.474 173.524C168.465 157.984 168.465 141.188 159.474 136.008C150.483 130.829 135.905 139.227 126.914 154.767C117.922 170.307 117.922 187.103 126.913 192.283C135.904 197.462 150.482 189.064 159.474 173.524Z" fill="#52FCFF"/>
<path d="M138.85 117.313L133.912 120.92V64.3707L138.85 60.7568V117.313Z" fill="url(#paint5_linear_1043_78601)"/>
<path opacity="0.7" d="M133.912 120.921L69.3398 83.7266V27.1699L133.912 64.3717V120.921Z" fill="#52FCFF"/>
<path d="M131.67 116.855L71.5898 82.2458V79.9385L131.67 114.555V116.855Z" fill="white"/>
<path d="M107.529 100.649L71.5898 79.9385V82.2458L107.529 102.956V100.649Z" fill="url(#paint6_linear_1043_78601)"/>
<path d="M109.118 102.629C109.118 103.637 108.422 104.019 107.53 103.54C107.069 103.24 106.685 102.836 106.41 102.36C106.135 101.884 105.977 101.35 105.949 100.801C105.949 99.7938 106.646 99.4115 107.53 99.8911C107.993 100.19 108.379 100.593 108.655 101.069C108.931 101.545 109.09 102.08 109.118 102.629Z" fill="url(#paint7_linear_1043_78601)"/>
<path d="M69.3398 27.1694L74.278 23.5625L138.85 60.7573L133.912 64.3711L69.3398 27.1694Z" fill="url(#paint8_linear_1043_78601)"/>
<path d="M112.722 91.9358C118.848 88.4066 118.848 76.9632 112.723 66.3763C106.597 55.7894 96.6645 50.068 90.5383 53.5972C84.412 57.1265 84.4117 68.5699 90.5375 79.1568C96.6632 89.7437 106.595 95.4651 112.722 91.9358Z" fill="url(#paint9_linear_1043_78601)"/>
<path d="M111.429 78.979L95.5488 59.2627V80.3898L111.429 78.979Z" fill="white"/>
<path d="M130.664 177.965C130.563 178.023 130.472 178.034 130.391 177.999C130.32 177.947 130.285 177.863 130.285 177.747L130.285 166.426C130.285 166.298 130.32 166.173 130.391 166.051C130.462 165.917 130.553 165.819 130.664 165.755L132.374 164.769C132.606 164.635 132.778 164.647 132.889 164.804L136.462 169.252L136.462 162.868C136.462 162.74 136.497 162.615 136.568 162.493C136.639 162.359 136.729 162.26 136.84 162.196L138.763 161.089C138.874 161.025 138.965 161.019 139.036 161.071C139.106 161.112 139.142 161.196 139.142 161.324L139.142 172.627C139.142 172.755 139.106 172.886 139.036 173.02C138.965 173.142 138.874 173.235 138.763 173.299L137.052 174.284C136.82 174.418 136.649 174.406 136.538 174.249L132.98 170.054L132.98 176.194C132.98 176.322 132.94 176.45 132.859 176.578C132.788 176.7 132.697 176.793 132.586 176.857L130.664 177.965Z" fill="#1737A3"/>
<path d="M141.574 171.679C141.473 171.737 141.383 171.749 141.302 171.714C141.231 171.662 141.196 171.577 141.196 171.461L141.196 160.141C141.196 160.013 141.231 159.888 141.302 159.766C141.373 159.632 141.463 159.533 141.574 159.469L148.614 155.414C148.725 155.35 148.816 155.344 148.887 155.396C148.967 155.431 149.008 155.513 149.008 155.64L149.008 157.489C149.008 157.617 148.967 157.745 148.887 157.873C148.816 157.995 148.725 158.088 148.614 158.152L143.982 160.821L143.982 163.245L148.311 160.751C148.422 160.687 148.513 160.681 148.584 160.734C148.665 160.769 148.705 160.85 148.705 160.978L148.705 162.827C148.705 162.955 148.665 163.083 148.584 163.211C148.513 163.333 148.422 163.426 148.311 163.49L143.982 165.984L143.982 169.856C143.982 169.973 143.946 170.098 143.876 170.231C143.805 170.353 143.714 170.446 143.603 170.51L141.574 171.679Z" fill="#1737A3"/>
<path d="M153.324 164.91C153.213 164.974 153.117 164.989 153.036 164.954C152.965 164.913 152.93 164.829 152.93 164.701L152.93 155.77L150.266 157.305C150.155 157.369 150.059 157.384 149.978 157.349C149.907 157.308 149.872 157.224 149.872 157.096L149.872 155.142C149.872 155.015 149.907 154.89 149.978 154.767C150.059 154.628 150.155 154.526 150.266 154.462L158.486 149.727C158.597 149.663 158.688 149.657 158.759 149.709C158.839 149.744 158.88 149.825 158.88 149.953L158.88 151.907C158.88 152.035 158.839 152.163 158.759 152.291C158.688 152.413 158.597 152.506 158.486 152.57L155.822 154.105L155.822 163.035C155.822 163.163 155.781 163.291 155.701 163.419C155.63 163.541 155.539 163.634 155.428 163.698L153.324 164.91Z" fill="#1737A3"/>
<defs>
<linearGradient id="paint0_linear_1043_78601" x1="110.323" y1="241.715" x2="110.323" y2="97.8707" gradientUnits="userSpaceOnUse">
<stop stopColor="#1D45BA"/>
<stop offset="0.4204" stopColor="#1D47BA"/>
<stop offset="0.5718" stopColor="#1D4EB9"/>
<stop offset="0.6797" stopColor="#1C59B8"/>
<stop offset="0.767" stopColor="#1B6AB6"/>
<stop offset="0.8417" stopColor="#1A80B3"/>
<stop offset="0.9079" stopColor="#199CB0"/>
<stop offset="0.9663" stopColor="#18BBAD"/>
<stop offset="1" stopColor="#17D1AA"/>
</linearGradient>
<linearGradient id="paint1_linear_1043_78601" x1="184.054" y1="241.715" x2="184.054" y2="97.8707" gradientUnits="userSpaceOnUse">
<stop stopColor="#1D45BA"/>
<stop offset="0.4204" stopColor="#1D47BA"/>
<stop offset="0.5718" stopColor="#1D4EB9"/>
<stop offset="0.6797" stopColor="#1C59B8"/>
<stop offset="0.767" stopColor="#1B6AB6"/>
<stop offset="0.8417" stopColor="#1A80B3"/>
<stop offset="0.9079" stopColor="#199CB0"/>
<stop offset="0.9663" stopColor="#18BBAD"/>
<stop offset="1" stopColor="#17D1AA"/>
</linearGradient>
<linearGradient id="paint2_linear_1043_78601" x1="31.8343" y1="141.005" x2="179.296" y2="141.005" gradientUnits="userSpaceOnUse">
<stop stopColor="#17D1AA"/>
<stop offset="0.07" stopColor="#1AC2AE"/>
<stop offset="0.27" stopColor="#229BB8"/>
<stop offset="0.46" stopColor="#297CC0"/>
<stop offset="0.65" stopColor="#2D66C6"/>
<stop offset="0.83" stopColor="#3059CA"/>
<stop offset="1" stopColor="#3154CB"/>
</linearGradient>
<linearGradient id="paint3_linear_1043_78601" x1="105.565" y1="56.0732" x2="105.565" y2="141.019" gradientUnits="userSpaceOnUse">
<stop stopColor="#93F5E1"/>
<stop offset="1" stopColor="#C6F7ED"/>
</linearGradient>
<linearGradient id="paint4_linear_1043_78601" x1="100.605" y1="207.459" x2="100.605" y2="124.517" gradientUnits="userSpaceOnUse">
<stop stopColor="#1D45BA"/>
<stop offset="0.4204" stopColor="#1D47BA"/>
<stop offset="0.5718" stopColor="#1D4EB9"/>
<stop offset="0.6797" stopColor="#1C59B8"/>
<stop offset="0.767" stopColor="#1B6AB6"/>
<stop offset="0.8417" stopColor="#1A80B3"/>
<stop offset="0.9079" stopColor="#199CB0"/>
<stop offset="0.9663" stopColor="#18BBAD"/>
<stop offset="1" stopColor="#17D1AA"/>
</linearGradient>
<linearGradient id="paint5_linear_1043_78601" x1="139.169" y1="128.353" x2="139.169" y2="60.4394" gradientUnits="userSpaceOnUse">
<stop stopColor="#1D45BA"/>
<stop offset="0.4204" stopColor="#1D47BA"/>
<stop offset="0.5718" stopColor="#1D4EB9"/>
<stop offset="0.6797" stopColor="#1C59B8"/>
<stop offset="0.767" stopColor="#1B6AB6"/>
<stop offset="0.8417" stopColor="#1A80B3"/>
<stop offset="0.9079" stopColor="#199CB0"/>
<stop offset="0.9663" stopColor="#18BBAD"/>
<stop offset="1" stopColor="#17D1AA"/>
</linearGradient>
<linearGradient id="paint6_linear_1043_78601" x1="109.14" y1="116.893" x2="130.101" y2="60.4202" gradientUnits="userSpaceOnUse">
<stop stopColor="#244ABF"/>
<stop offset="1" stopColor="#4760FF"/>
</linearGradient>
<linearGradient id="paint7_linear_1043_78601" x1="109.26" y1="106.203" x2="114.684" y2="98.8975" gradientUnits="userSpaceOnUse">
<stop stopColor="#244ABF"/>
<stop offset="1" stopColor="#4760FF"/>
</linearGradient>
<linearGradient id="paint8_linear_1043_78601" x1="69.34" y1="64.3642" x2="138.85" y2="64.3642" gradientUnits="userSpaceOnUse">
<stop stopColor="#17D1AA"/>
<stop offset="0.07" stopColor="#1AC2AE"/>
<stop offset="0.27" stopColor="#229BB8"/>
<stop offset="0.46" stopColor="#297CC0"/>
<stop offset="0.65" stopColor="#2D66C6"/>
<stop offset="0.83" stopColor="#3059CA"/>
<stop offset="1" stopColor="#3154CB"/>
</linearGradient>
<linearGradient id="paint9_linear_1043_78601" x1="118.723" y1="117.455" x2="172.82" y2="45.0082" gradientUnits="userSpaceOnUse">
<stop stopColor="#244ABF"/>
<stop offset="1" stopColor="#4760FF"/>
</linearGradient>
</defs>
</svg>
