<svg width="244" height="260" viewBox="0 0 244 260" fill="none" xmlns="http://www.w3.org/2000/svg">
<g clip-path="url(#clip0_1043_78389)">
<g opacity="0.2">
<path d="M85.918 260.129L260.685 164.796" stroke="#1D45BA" stroke-width="0.5"/>
<path d="M19.5059 212.629L182.537 123.699" stroke="#1D45BA" stroke-width="0.5"/>
<path d="M75.7793 112.303L259.884 212.6" stroke="#1D45BA" stroke-width="0.5"/>
<path d="M-4.00977 177.629L150.318 261.705" stroke="#1D45BA" stroke-width="0.5"/>
</g>
<path d="M116.556 228.183L45.8002 187.504C42.6419 185.679 42.5617 176.093 43.7949 172.865L110.199 138.372C113.849 136.266 119.423 136.035 122.592 137.86L194.951 174.72C197.608 178.911 196.114 188.858 192.455 190.973L128.948 227.642C125.329 229.778 119.724 230.008 116.556 228.183Z" fill="url(#paint0_linear_1043_78389)"/>
<path d="M116.557 217.656L45.8017 176.926C42.6434 175.101 43.0444 171.913 46.694 169.777L110.201 133.108C113.85 131.003 119.425 130.762 122.593 132.597L193.349 173.326C196.517 175.151 196.116 178.34 192.456 180.476L128.95 217.144C125.33 219.25 119.726 219.481 116.557 217.656Z" fill="url(#paint1_linear_1043_78389)"/>
<path d="M116.457 212.933L53.9833 176.986C50.825 175.161 51.2261 171.973 54.8756 169.837L110.291 137.831C113.941 135.725 119.515 135.494 122.683 137.319L185.157 173.266C188.326 175.091 187.925 178.28 184.265 180.415L128.84 212.421C125.2 214.577 119.625 214.758 116.457 212.933Z" fill="url(#paint2_linear_1043_78389)"/>
<path d="M118.962 198.664C145.797 198.664 167.55 188.07 167.55 175.001C167.55 161.932 145.797 151.337 118.962 151.337C92.1283 151.337 70.375 161.932 70.375 175.001C70.375 188.07 92.1283 198.664 118.962 198.664Z" fill="url(#paint3_linear_1043_78389)"/>
<path d="M148.972 187.614C133 195.395 107.102 195.395 91.1201 187.614C75.1382 179.833 75.1984 167.209 91.1201 159.428C107.042 151.648 133 151.648 148.972 159.428C164.944 167.209 164.954 179.833 148.972 187.614Z" fill="#0CDDB3"/>
<path d="M84.9141 157.744L156.221 158.336V168.222C156.221 173.497 152.732 178.761 145.774 182.782C131.847 190.803 109.278 190.803 95.3514 182.782C88.3932 178.771 84.9141 173.497 84.9141 168.222V157.744Z" fill="url(#paint4_linear_1043_78389)"/>
<path d="M120.568 179.282C140.258 179.282 156.221 170.066 156.221 158.697C156.221 147.328 140.258 138.111 120.568 138.111C100.877 138.111 84.9141 147.328 84.9141 158.697C84.9141 170.066 100.877 179.282 120.568 179.282Z" fill="#0CDDB3"/>
<path fill-rule="evenodd" clip-rule="evenodd" d="M98.8441 145.548C93.2988 148.749 90.0213 153.083 90.0213 157.744C90.0213 162.405 93.2988 166.739 98.8441 169.94C104.374 173.132 112.052 175.126 120.566 175.126C129.08 175.126 136.759 173.132 142.289 169.94C147.834 166.739 151.111 162.405 151.111 157.744C151.111 153.083 147.834 148.749 142.289 145.548C136.759 142.356 129.08 140.362 120.566 140.362C112.052 140.362 104.374 142.356 98.8441 145.548ZM98.2476 144.515C103.989 141.2 111.881 139.169 120.566 139.169C129.251 139.169 137.144 141.2 142.885 144.515C148.611 147.82 152.305 152.476 152.305 157.744C152.305 163.012 148.611 167.668 142.885 170.973C137.144 174.288 129.251 176.319 120.566 176.319C111.881 176.319 103.989 174.288 98.2476 170.973C92.5219 167.668 88.8281 163.012 88.8281 157.744C88.8281 152.476 92.5219 147.82 98.2476 144.515Z" fill="#0CDDB3"/>
<path d="M116.818 146.575L112.296 143.978L108.185 146.394L112.316 148.78L108.185 151.157L104.064 148.78L99.9336 151.157L104.064 153.543L99.9336 155.92L120.568 167.832L124.689 165.455L128.819 167.832L132.94 165.455L128.819 163.069L132.94 160.693L137.061 163.069L141.192 160.693L136.69 158.086C136.993 157.757 137.226 157.37 137.374 156.948C137.521 156.526 137.58 156.079 137.547 155.633C137.515 155.187 137.39 154.753 137.182 154.357C136.975 153.961 136.687 153.613 136.339 153.333C134.358 151.722 131.874 150.86 129.321 150.896C129.19 149.212 127.606 147.678 125.1 146.815C122.422 145.929 119.543 145.845 116.818 146.575ZM108.185 155.88L118.502 149.934C119.14 149.607 119.846 149.437 120.563 149.437C121.279 149.437 121.985 149.607 122.623 149.934C122.872 150.017 123.088 150.177 123.242 150.39C123.395 150.603 123.478 150.859 123.478 151.122C123.478 151.384 123.395 151.64 123.242 151.854C123.088 152.067 122.872 152.226 122.623 152.31L112.296 158.266L108.185 155.88ZM130.875 157.073L120.568 163.029L116.437 160.652L126.754 154.696C127.392 154.37 128.098 154.2 128.814 154.2C129.531 154.2 130.237 154.37 130.875 154.696C131.124 154.78 131.34 154.94 131.493 155.153C131.647 155.366 131.729 155.622 131.729 155.885C131.729 156.147 131.647 156.403 131.493 156.616C131.34 156.83 131.124 156.989 130.875 157.073Z" fill="white"/>
<path d="M84.9141 146.043L156.221 146.635V156.531C156.221 161.795 152.732 167.07 145.774 171.08C131.847 179.102 109.278 179.102 95.3514 171.08C88.3932 167.07 84.9141 161.795 84.9141 156.531V146.043Z" fill="url(#paint5_linear_1043_78389)"/>
<path d="M120.568 167.591C140.258 167.591 156.221 158.374 156.221 147.005C156.221 135.636 140.258 126.42 120.568 126.42C100.877 126.42 84.9141 135.636 84.9141 147.005C84.9141 158.374 100.877 167.591 120.568 167.591Z" fill="#0CDDB3"/>
<path fill-rule="evenodd" clip-rule="evenodd" d="M98.8441 133.847C93.2988 137.048 90.0213 141.382 90.0213 146.043C90.0213 150.704 93.2988 155.037 98.8441 158.239C104.374 161.431 112.052 163.425 120.566 163.425C129.08 163.425 136.759 161.431 142.289 158.239C147.834 155.037 151.111 150.704 151.111 146.043C151.111 141.382 147.834 137.048 142.289 133.847C136.759 130.655 129.08 128.661 120.566 128.661C112.052 128.661 104.374 130.655 98.8441 133.847ZM98.2476 132.813C103.989 129.499 111.881 127.468 120.566 127.468C129.251 127.468 137.144 129.499 142.885 132.813C148.611 136.119 152.305 140.775 152.305 146.043C152.305 151.311 148.611 155.967 142.885 159.272C137.144 162.587 129.251 164.618 120.566 164.618C111.881 164.618 103.989 162.587 98.2476 159.272C92.5219 155.967 88.8281 151.311 88.8281 146.043C88.8281 140.775 92.5219 136.119 98.2476 132.813Z" fill="#0CDDB3"/>
<path d="M116.818 134.882L112.316 132.275L108.185 134.662L112.316 137.038L108.185 139.425L104.064 137.038L99.9336 139.425L104.064 141.801L99.9336 144.187L120.568 156.1L124.689 153.713L128.819 156.1L132.94 153.713L128.819 151.337L132.94 148.95L137.061 151.337L141.192 148.95L136.69 146.393C136.993 146.065 137.226 145.678 137.374 145.256C137.521 144.834 137.58 144.386 137.547 143.941C137.515 143.495 137.39 143.061 137.182 142.665C136.975 142.269 136.687 141.921 136.339 141.641C134.363 140.021 131.875 139.158 129.321 139.204C129.19 137.52 127.606 135.985 125.1 135.123C122.423 134.231 119.542 134.148 116.818 134.882ZM108.185 144.187L118.502 138.231C119.14 137.905 119.846 137.735 120.563 137.735C121.279 137.735 121.985 137.905 122.623 138.231C122.871 138.318 123.086 138.479 123.238 138.693C123.39 138.906 123.471 139.162 123.471 139.425C123.471 139.687 123.39 139.943 123.238 140.157C123.086 140.37 122.871 140.532 122.623 140.618L112.296 146.564L108.185 144.187ZM130.875 145.391L120.568 151.347L116.437 148.96L126.754 143.004C127.393 142.683 128.099 142.516 128.814 142.516C129.53 142.516 130.235 142.683 130.875 143.004C131.122 143.09 131.337 143.252 131.489 143.466C131.641 143.679 131.723 143.935 131.723 144.197C131.723 144.46 131.641 144.716 131.489 144.929C131.337 145.143 131.122 145.304 130.875 145.391Z" fill="white"/>
<path d="M84.9141 134.361L156.221 134.953V144.84C156.221 150.114 152.732 155.378 145.774 159.399C131.847 167.42 109.278 167.42 95.3514 159.399C88.3932 155.388 84.9141 150.114 84.9141 144.84V134.361Z" fill="url(#paint6_linear_1043_78389)"/>
<path d="M120.568 155.89C140.258 155.89 156.221 146.673 156.221 135.304C156.221 123.935 140.258 114.719 120.568 114.719C100.877 114.719 84.9141 123.935 84.9141 135.304C84.9141 146.673 100.877 155.89 120.568 155.89Z" fill="#0CDDB3"/>
<path fill-rule="evenodd" clip-rule="evenodd" d="M120.568 116.97C112.676 116.97 104.817 118.709 98.8483 122.154C92.8764 125.6 90.0279 130.037 90.0291 134.351C90.0302 138.666 92.8814 143.102 98.8485 146.549C104.812 149.994 112.671 151.733 120.564 151.733C128.457 151.733 136.319 149.994 142.287 146.549C148.26 143.097 151.111 138.66 151.111 134.348C151.111 130.035 148.26 125.601 142.287 122.154C136.319 118.709 128.459 116.97 120.568 116.97ZM120.568 115.776C128.613 115.776 136.691 117.546 142.884 121.12C149.073 124.693 152.304 129.458 152.304 134.348C152.304 139.237 149.074 144.005 142.884 147.582L142.884 147.582C136.691 151.156 128.611 152.926 120.564 152.926C112.518 152.926 104.44 151.156 98.2518 147.582C92.0671 144.01 88.8373 139.242 88.8359 134.352C88.8346 129.461 92.0621 124.693 98.252 121.12C104.445 117.546 112.523 115.776 120.568 115.776Z" fill="#0CDDB3"/>
<path d="M116.818 123.181L112.296 120.584L108.165 122.96L112.296 125.337L108.165 127.713L104.064 125.337L99.9336 127.713L104.064 130.1L99.9336 132.476L120.568 144.388L124.689 142.012L128.819 144.388L132.94 142.012L128.819 139.625L132.94 137.249L137.061 139.625L141.192 137.249L136.69 134.642C136.993 134.314 137.226 133.927 137.374 133.505C137.521 133.083 137.58 132.635 137.547 132.189C137.515 131.743 137.39 131.309 137.182 130.913C136.975 130.518 136.687 130.169 136.339 129.889C134.358 128.278 131.874 127.416 129.321 127.452C129.19 125.768 127.606 124.234 125.1 123.371C122.417 122.501 119.538 122.435 116.818 123.181ZM108.185 132.486L118.502 126.54C119.14 126.214 119.846 126.043 120.563 126.043C121.279 126.043 121.985 126.214 122.623 126.54C122.872 126.624 123.088 126.783 123.242 126.996C123.395 127.21 123.478 127.466 123.478 127.728C123.478 127.991 123.395 128.247 123.242 128.46C123.088 128.673 122.872 128.833 122.623 128.916L112.296 134.872L108.185 132.486ZM130.875 133.679L120.568 139.635L116.437 137.259L126.754 131.353C127.392 131.026 128.098 130.856 128.814 130.856C129.531 130.856 130.237 131.026 130.875 131.353C131.107 131.446 131.306 131.607 131.446 131.814C131.586 132.021 131.661 132.266 131.661 132.516C131.661 132.766 131.586 133.011 131.446 133.218C131.306 133.425 131.107 133.586 130.875 133.679Z" fill="white"/>
<path d="M84.9141 122.649L156.221 123.241V133.138C156.221 138.402 152.732 143.676 145.774 147.697C131.847 155.718 109.278 155.718 95.3514 147.697C88.3932 143.686 84.9141 138.402 84.9141 133.138V122.649Z" fill="url(#paint7_linear_1043_78389)"/>
<path d="M145.774 138.172C131.847 146.193 109.278 146.193 95.3513 138.172C81.4248 130.15 81.4348 117.115 95.3513 109.093C109.268 101.072 131.847 101.072 145.774 109.093C159.7 117.115 159.7 130.13 145.774 138.172Z" fill="#0CDDB3"/>
<path fill-rule="evenodd" clip-rule="evenodd" d="M98.8441 110.454C93.2988 113.656 90.0213 117.989 90.0213 122.65C90.0213 127.311 93.2988 131.645 98.8441 134.846C104.374 138.038 112.052 140.032 120.566 140.032C129.08 140.032 136.759 138.038 142.289 134.846C147.834 131.645 151.111 127.311 151.111 122.65C151.111 117.989 147.834 113.656 142.289 110.454C136.759 107.262 129.08 105.268 120.566 105.268C112.052 105.268 104.374 107.262 98.8441 110.454ZM98.2476 109.421C103.989 106.106 111.881 104.075 120.566 104.075C129.251 104.075 137.144 106.106 142.885 109.421C148.611 112.726 152.305 117.382 152.305 122.65C152.305 127.918 148.611 132.574 142.885 135.88C137.144 139.194 129.251 141.225 120.566 141.225C111.881 141.225 103.989 139.194 98.2476 135.88C92.5219 132.574 88.8281 127.918 88.8281 122.65C88.8281 117.382 92.5219 112.726 98.2476 109.421Z" fill="#0CDDB3"/>
<path d="M116.818 111.49L112.316 108.883L108.185 111.299L112.316 113.676L108.185 116.062L104.064 113.676L99.9336 116.062L104.064 118.439L99.9336 120.825L120.568 132.737L124.689 130.351L128.819 132.737L132.94 130.351L128.819 127.974L132.94 125.588L137.061 127.974L141.192 125.588L136.69 122.991C136.993 122.663 137.226 122.276 137.374 121.854C137.521 121.432 137.58 120.984 137.547 120.538C137.515 120.092 137.39 119.658 137.182 119.262C136.975 118.867 136.687 118.518 136.339 118.238C134.361 116.623 131.874 115.76 129.321 115.801C129.19 114.117 127.606 112.583 125.1 111.72C122.422 110.832 119.541 110.752 116.818 111.49ZM108.185 120.795L118.502 114.839C119.142 114.518 119.847 114.351 120.563 114.351C121.278 114.351 121.984 114.518 122.623 114.839C122.871 114.925 123.086 115.086 123.238 115.3C123.39 115.514 123.471 115.77 123.471 116.032C123.471 116.294 123.39 116.55 123.238 116.764C123.086 116.978 122.871 117.139 122.623 117.225L112.296 123.181L108.185 120.795ZM130.875 121.988L120.568 127.944L116.437 125.558L126.754 119.602C127.393 119.281 128.099 119.113 128.814 119.113C129.53 119.113 130.235 119.281 130.875 119.602C131.122 119.688 131.337 119.849 131.489 120.063C131.641 120.277 131.723 120.533 131.723 120.795C131.723 121.057 131.641 121.313 131.489 121.527C131.337 121.741 131.122 121.902 130.875 121.988Z" fill="white"/>
<path d="M84.9141 110.958L156.221 111.55V121.436C156.221 126.71 152.732 131.975 145.774 135.995C131.847 144.017 109.278 144.017 95.3514 135.995C88.3932 131.985 84.9141 126.71 84.9141 121.436V110.958Z" fill="url(#paint8_linear_1043_78389)"/>
<path d="M145.774 126.47C131.847 134.492 109.278 134.492 95.3513 126.47C81.4248 118.449 81.4348 105.414 95.3513 97.3922C109.268 89.3706 131.847 89.3706 145.774 97.3922C159.7 105.414 159.7 118.429 145.774 126.47Z" fill="url(#paint9_linear_1043_78389)"/>
<path opacity="0.7" d="M145.803 126.691C131.917 134.712 109.408 134.712 95.5213 126.691C88.2723 122.499 84.8132 116.954 85.1341 111.47C76.4212 94.895 63.7781 79.3231 40.5371 37.5907C78.5568 -6.01669 138.364 -15.8833 196.025 30.5919C202.041 35.3948 161.133 101.001 156.19 111.47C156.511 116.954 153.052 122.499 145.803 126.691Z" fill="url(#paint10_linear_1043_78389)"/>
<path d="M120.567 128.936C137.767 128.936 151.709 120.887 151.709 110.958C151.709 101.029 137.767 92.9795 120.567 92.9795C103.368 92.9795 89.4258 101.029 89.4258 110.958C89.4258 120.887 103.368 128.936 120.567 128.936Z" fill="url(#paint11_linear_1043_78389)"/>
<path d="M136.258 69.4461C136.258 74.0084 134.914 77.4677 132.658 79.4731C130.801 80.9476 128.841 82.2879 126.793 83.4839C123.785 84.6872 123.444 81.7292 119.243 79.3027C109.839 73.8781 102.199 60.6825 102.199 49.8233C102.199 45.6922 99.4513 45.0705 101.346 42.9949C101.838 42.4635 106.239 39.4053 106.831 38.9841C109.929 36.9787 114.33 37.1492 119.213 39.9868C128.638 45.4014 136.258 58.5969 136.258 69.4461Z" fill="url(#paint12_linear_1043_78389)"/>
<path d="M127.27 83.2064C133.916 79.3687 133.918 66.9269 127.273 55.4169C120.628 43.9069 109.853 37.6873 103.207 41.5249C96.56 45.3626 96.5586 57.8043 103.203 69.3143C109.848 80.8244 120.623 87.044 127.27 83.2064Z" fill="url(#paint13_linear_1043_78389)"/>
<path fill-rule="evenodd" clip-rule="evenodd" d="M100.483 53.6449C100.483 58.0224 101.931 63.2602 104.845 68.3079C107.759 73.3557 111.571 77.2284 115.362 79.4168C119.162 81.6104 122.873 82.0795 125.66 80.4701C128.448 78.8607 129.897 75.4119 129.898 71.0238C129.898 66.6463 128.45 61.4086 125.536 56.3608C122.622 51.313 118.81 47.4403 115.019 45.2519C111.219 43.0583 107.508 42.5892 104.721 44.1986C101.933 45.808 100.484 49.2569 100.483 53.6449ZM99.7915 53.6448C99.792 49.136 101.283 45.3847 104.375 43.5994C107.467 41.8142 111.46 42.3987 115.365 44.6527C119.279 46.912 123.172 50.8811 126.135 56.0149C129.099 61.1486 130.59 66.5045 130.59 71.0239C130.589 75.5328 129.098 79.284 126.006 81.0693C122.914 82.8546 118.921 82.27 115.016 80.016C111.102 77.7567 107.209 73.7877 104.246 68.6539C101.282 63.5201 99.791 58.1642 99.7915 53.6448Z" fill="#0CDDB3"/>
<path fill-rule="evenodd" clip-rule="evenodd" d="M133.939 104.727C133.288 104.351 132.247 104.426 131.596 104.802L128.083 106.831L124.699 106.004L126.911 104.727C127.562 104.351 127.692 103.75 127.042 103.374C126.391 102.999 125.35 102.999 124.699 103.374L121.511 105.215L107.587 101.834C106.936 101.684 106.285 101.759 105.765 102.059C105.309 102.322 105.179 102.773 105.374 103.111L111.361 111.001L108.237 112.804C107.587 113.18 107.457 113.781 108.107 114.156C108.758 114.532 109.799 114.532 110.45 114.156L112.727 112.842L114.158 114.795L110.71 116.786C110.059 117.162 109.929 117.763 110.58 118.139C111.23 118.514 112.271 118.514 112.922 118.139L115.59 116.598L120.6 123.098C120.925 123.586 121.901 123.774 122.747 123.586C122.942 123.549 123.072 123.474 123.203 123.398C123.658 123.135 123.853 122.722 123.593 122.346L118.193 115.246L128.733 109.16L141.226 112.24C141.877 112.391 142.527 112.316 143.048 112.015C143.178 111.94 143.308 111.865 143.438 111.714C143.764 111.226 143.438 110.663 142.592 110.475L131.271 107.695L133.939 106.154C134.589 105.703 134.654 105.065 133.939 104.727ZM110.124 104.501L118.908 106.643L113.898 109.535L110.124 104.501ZM115.395 111.376L116.826 113.33L125.545 108.296L122.162 107.469L115.395 111.376Z" fill="white"/>
<path d="M131.596 104.802L131.466 104.727L131.596 104.802ZM133.939 104.727L133.809 104.802L133.815 104.805L133.822 104.809L133.939 104.727ZM128.083 106.831L128.011 106.928L128.125 106.956L128.213 106.906L128.083 106.831ZM124.699 106.004L124.569 105.929L124.376 106.04L124.628 106.102L124.699 106.004ZM124.699 103.374L124.829 103.449L124.699 103.374ZM121.511 105.215L121.44 105.313L121.553 105.341L121.641 105.29L121.511 105.215ZM107.587 101.834L107.658 101.736L107.655 101.735L107.587 101.834ZM105.374 103.111L105.199 103.145L105.206 103.154L105.374 103.111ZM111.361 111.001L111.49 111.076L111.579 111.024L111.529 110.958L111.361 111.001ZM110.45 114.156L110.58 114.231L110.45 114.156ZM112.727 112.842L112.896 112.8L112.79 112.655L112.597 112.767L112.727 112.842ZM114.158 114.795L114.288 114.87L114.376 114.82L114.328 114.754L114.158 114.795ZM115.59 116.598L115.758 116.555L115.649 116.414L115.46 116.523L115.59 116.598ZM120.6 123.098L120.772 123.06L120.768 123.055L120.6 123.098ZM122.747 123.586L122.689 123.485L122.681 123.487L122.747 123.586ZM123.593 122.346L123.764 122.307L123.761 122.304L123.593 122.346ZM118.193 115.246L118.063 115.171L117.974 115.222L118.024 115.289L118.193 115.246ZM128.733 109.16L128.805 109.062L128.691 109.034L128.603 109.085L128.733 109.16ZM141.226 112.24L141.154 112.338L141.158 112.339L141.226 112.24ZM143.438 111.714L143.603 111.762L143.607 111.757L143.61 111.753L143.438 111.714ZM142.592 110.475L142.52 110.572L142.526 110.574L142.592 110.475ZM131.271 107.695L131.141 107.62L130.949 107.731L131.199 107.792L131.271 107.695ZM133.939 106.154L134.069 106.23L134.08 106.222L133.939 106.154ZM118.908 106.643L119.038 106.718L119.231 106.606L118.98 106.545L118.908 106.643ZM110.124 104.501L110.196 104.404L109.774 104.301L109.956 104.543L110.124 104.501ZM113.898 109.535L113.729 109.578L113.837 109.721L114.028 109.61L113.898 109.535ZM116.826 113.33L116.657 113.371L116.763 113.516L116.956 113.405L116.826 113.33ZM115.395 111.376L115.265 111.301L115.177 111.352L115.226 111.418L115.395 111.376ZM125.545 108.296L125.675 108.371L125.868 108.259L125.617 108.198L125.545 108.296ZM122.162 107.469L122.233 107.372L122.119 107.344L122.032 107.394L122.162 107.469ZM131.726 104.877C132.325 104.531 133.248 104.478 133.809 104.802L134.068 104.652C133.328 104.224 132.169 104.321 131.466 104.727L131.726 104.877ZM128.213 106.906L131.726 104.877L131.466 104.727L127.953 106.756L128.213 106.906ZM124.628 106.102L128.011 106.928L128.154 106.733L124.771 105.906L124.628 106.102ZM126.782 104.652L124.569 105.929L124.829 106.079L127.041 104.802L126.782 104.652ZM126.912 103.449C127.473 103.773 127.38 104.306 126.782 104.652L127.041 104.802C127.744 104.396 127.912 103.727 127.171 103.299L126.912 103.449ZM124.829 103.449C125.408 103.115 126.333 103.115 126.912 103.449L127.171 103.299C126.449 102.882 125.292 102.882 124.569 103.299L124.829 103.449ZM121.641 105.29L124.829 103.449L124.569 103.299L121.381 105.14L121.641 105.29ZM107.515 101.932L121.44 105.313L121.582 105.117L107.658 101.736L107.515 101.932ZM105.895 102.134C106.364 101.863 106.937 101.798 107.518 101.932L107.655 101.735C106.935 101.569 106.206 101.654 105.635 101.984L105.895 102.134ZM105.549 103.078C105.372 102.772 105.495 102.365 105.895 102.134L105.635 101.984C105.123 102.28 104.986 102.774 105.2 103.145L105.549 103.078ZM111.529 110.958L105.543 103.069L105.206 103.154L111.192 111.043L111.529 110.958ZM108.367 112.879L111.49 111.076L111.231 110.926L108.107 112.729L108.367 112.879ZM108.237 114.081C107.676 113.758 107.769 113.225 108.367 112.879L108.107 112.729C107.405 113.135 107.237 113.804 107.977 114.231L108.237 114.081ZM110.32 114.081C109.741 114.416 108.816 114.416 108.237 114.081L107.977 114.231C108.7 114.649 109.857 114.649 110.58 114.231L110.32 114.081ZM112.597 112.767L110.32 114.081L110.58 114.231L112.857 112.917L112.597 112.767ZM114.328 114.754L112.896 112.8L112.558 112.883L113.989 114.836L114.328 114.754ZM110.84 116.861L114.288 114.87L114.028 114.72L110.58 116.711L110.84 116.861ZM110.71 118.064C110.149 117.74 110.241 117.207 110.84 116.861L110.58 116.711C109.877 117.117 109.709 117.786 110.45 118.214L110.71 118.064ZM112.792 118.064C112.213 118.398 111.289 118.398 110.71 118.064L110.45 118.214C111.172 118.631 112.33 118.631 113.052 118.214L112.792 118.064ZM115.46 116.523L112.792 118.064L113.052 118.214L115.72 116.673L115.46 116.523ZM120.768 123.055L115.758 116.555L115.422 116.642L120.432 123.141L120.768 123.055ZM122.681 123.487C121.91 123.658 121.053 123.483 120.771 123.06L120.429 123.136C120.797 123.69 121.892 123.89 122.813 123.685L122.681 123.487ZM123.073 123.323C122.939 123.4 122.837 123.457 122.689 123.486L122.805 123.687C123.047 123.64 123.206 123.547 123.333 123.473L123.073 123.323ZM123.422 122.386C123.653 122.718 123.481 123.087 123.073 123.323L123.333 123.473C123.835 123.183 124.054 122.726 123.764 122.307L123.422 122.386ZM118.024 115.289L123.425 122.389L123.761 122.304L118.361 115.203L118.024 115.289ZM128.603 109.085L118.063 115.171L118.322 115.321L128.863 109.235L128.603 109.085ZM141.298 112.143L128.805 109.062L128.661 109.257L141.154 112.338L141.298 112.143ZM142.918 111.94C142.448 112.211 141.875 112.276 141.294 112.142L141.158 112.339C141.878 112.505 142.606 112.42 143.178 112.09L142.918 111.94ZM143.274 111.667C143.157 111.802 143.044 111.867 142.918 111.94L143.178 112.09C143.312 112.013 143.459 111.928 143.603 111.762L143.274 111.667ZM142.526 110.574C143.259 110.736 143.563 111.231 143.267 111.676L143.61 111.753C143.964 111.221 143.618 110.589 142.658 110.376L142.526 110.574ZM131.199 107.792L142.521 110.572L142.664 110.377L131.343 107.597L131.199 107.792ZM133.809 106.079L131.141 107.62L131.401 107.77L134.068 106.229L133.809 106.079ZM133.822 104.809C134.43 105.096 134.409 105.662 133.797 106.086L134.08 106.222C134.769 105.745 134.878 105.034 134.055 104.645L133.822 104.809ZM118.98 106.545L110.196 104.404L110.053 104.599L118.837 106.74L118.98 106.545ZM114.028 109.61L119.038 106.718L118.778 106.568L113.768 109.46L114.028 109.61ZM109.956 104.543L113.729 109.578L114.067 109.493L110.293 104.459L109.956 104.543ZM116.995 113.289L115.564 111.335L115.226 111.418L116.657 113.371L116.995 113.289ZM125.415 108.221L116.696 113.255L116.956 113.405L125.675 108.371L125.415 108.221ZM122.09 107.567L125.474 108.393L125.617 108.198L122.233 107.372L122.09 107.567ZM115.525 111.451L122.292 107.544L122.032 107.394L115.265 111.301L115.525 111.451Z" fill="white"/>
<path d="M113.902 72.4078C113.738 72.3127 113.598 72.1777 113.483 72.0025C113.384 71.8188 113.334 71.6365 113.334 71.4556L113.334 55.4141L108.568 52.6622C108.403 52.5672 108.263 52.4321 108.148 52.257C108.049 52.0733 108 51.891 108 51.71L108 50.6514C108 50.4524 108.049 50.3271 108.148 50.2756C108.263 50.2154 108.403 50.2329 108.568 50.3279L120.422 57.1721C120.603 57.2766 120.743 57.4207 120.842 57.6044C120.941 57.7701 120.99 57.9524 120.99 58.1514L120.99 59.21C120.99 59.391 120.933 59.5115 120.818 59.5716C120.719 59.6232 120.587 59.6014 120.422 59.5063L115.681 56.7687L115.681 72.8101C115.681 72.9911 115.623 73.1116 115.508 73.1717C115.392 73.2138 115.253 73.1873 115.088 73.0922L113.902 72.4078Z" fill="white"/>
</g>
<defs>
<linearGradient id="paint0_linear_1043_78389" x1="206.19" y1="240.875" x2="206.19" y2="136.139" gradientUnits="userSpaceOnUse">
<stop stopColor="#1D45BA"/>
<stop offset="0.4204" stopColor="#1D47BA"/>
<stop offset="0.5718" stopColor="#1D4EB9"/>
<stop offset="0.6797" stopColor="#1C59B8"/>
<stop offset="0.767" stopColor="#1B6AB6"/>
<stop offset="0.8417" stopColor="#1A80B3"/>
<stop offset="0.9079" stopColor="#199CB0"/>
<stop offset="0.9663" stopColor="#18BBAD"/>
<stop offset="1" stopColor="#17D1AA"/>
</linearGradient>
<linearGradient id="paint1_linear_1043_78389" x1="114.327" y1="141.992" x2="115.367" y2="231.81" gradientUnits="userSpaceOnUse">
<stop offset="0.09" stopColor="#84E4A4"/>
<stop offset="0.97" stopColor="#3C53D7"/>
</linearGradient>
<linearGradient id="paint2_linear_1043_78389" x1="108.394" y1="140.735" x2="195.681" y2="184.461" gradientUnits="userSpaceOnUse">
<stop stopColor="#17D1AA"/>
<stop offset="0.0659437" stopColor="#1AC2AE"/>
<stop offset="0.2651" stopColor="#229BB8"/>
<stop offset="0.4616" stopColor="#297CC0"/>
<stop offset="0.6525" stopColor="#2D66C6"/>
<stop offset="0.8349" stopColor="#3059CA"/>
<stop offset="1" stopColor="#3154CB"/>
</linearGradient>
<linearGradient id="paint3_linear_1043_78389" x1="173.821" y1="204.511" x2="173.821" y2="151.087" gradientUnits="userSpaceOnUse">
<stop stopColor="#1D45BA"/>
<stop offset="0.4204" stopColor="#1D47BA"/>
<stop offset="0.5718" stopColor="#1D4EB9"/>
<stop offset="0.6797" stopColor="#1C59B8"/>
<stop offset="0.767" stopColor="#1B6AB6"/>
<stop offset="0.8417" stopColor="#1A80B3"/>
<stop offset="0.9079" stopColor="#199CB0"/>
<stop offset="0.9663" stopColor="#18BBAD"/>
<stop offset="1" stopColor="#17D1AA"/>
</linearGradient>
<linearGradient id="paint4_linear_1043_78389" x1="114.682" y1="159.592" x2="154.606" y2="186.072" gradientUnits="userSpaceOnUse">
<stop stopColor="#17D1AA"/>
<stop offset="0.0659437" stopColor="#1AC2AE"/>
<stop offset="0.2651" stopColor="#229BB8"/>
<stop offset="0.4616" stopColor="#297CC0"/>
<stop offset="0.6525" stopColor="#2D66C6"/>
<stop offset="0.8349" stopColor="#3059CA"/>
<stop offset="1" stopColor="#3154CB"/>
</linearGradient>
<linearGradient id="paint5_linear_1043_78389" x1="114.682" y1="147.891" x2="154.606" y2="174.371" gradientUnits="userSpaceOnUse">
<stop stopColor="#17D1AA"/>
<stop offset="0.0659437" stopColor="#1AC2AE"/>
<stop offset="0.2651" stopColor="#229BB8"/>
<stop offset="0.4616" stopColor="#297CC0"/>
<stop offset="0.6525" stopColor="#2D66C6"/>
<stop offset="0.8349" stopColor="#3059CA"/>
<stop offset="1" stopColor="#3154CB"/>
</linearGradient>
<linearGradient id="paint6_linear_1043_78389" x1="114.682" y1="136.209" x2="154.606" y2="162.689" gradientUnits="userSpaceOnUse">
<stop stopColor="#17D1AA"/>
<stop offset="0.0659437" stopColor="#1AC2AE"/>
<stop offset="0.2651" stopColor="#229BB8"/>
<stop offset="0.4616" stopColor="#297CC0"/>
<stop offset="0.6525" stopColor="#2D66C6"/>
<stop offset="0.8349" stopColor="#3059CA"/>
<stop offset="1" stopColor="#3154CB"/>
</linearGradient>
<linearGradient id="paint7_linear_1043_78389" x1="114.682" y1="124.498" x2="154.614" y2="150.974" gradientUnits="userSpaceOnUse">
<stop stopColor="#17D1AA"/>
<stop offset="0.0659437" stopColor="#1AC2AE"/>
<stop offset="0.2651" stopColor="#229BB8"/>
<stop offset="0.4616" stopColor="#297CC0"/>
<stop offset="0.6525" stopColor="#2D66C6"/>
<stop offset="0.8349" stopColor="#3059CA"/>
<stop offset="1" stopColor="#3154CB"/>
</linearGradient>
<linearGradient id="paint8_linear_1043_78389" x1="114.682" y1="112.806" x2="154.606" y2="139.286" gradientUnits="userSpaceOnUse">
<stop stopColor="#17D1AA"/>
<stop offset="0.0659437" stopColor="#1AC2AE"/>
<stop offset="0.2651" stopColor="#229BB8"/>
<stop offset="0.4616" stopColor="#297CC0"/>
<stop offset="0.6525" stopColor="#2D66C6"/>
<stop offset="0.8349" stopColor="#3059CA"/>
<stop offset="1" stopColor="#3154CB"/>
</linearGradient>
<linearGradient id="paint9_linear_1043_78389" x1="117.971" y1="89.511" x2="124.208" y2="143.416" gradientUnits="userSpaceOnUse">
<stop offset="0.09" stopColor="#84E4A4"/>
<stop offset="0.97" stopColor="#3C53D7"/>
</linearGradient>
<linearGradient id="paint10_linear_1043_78389" x1="118.582" y1="0.0166016" x2="118.582" y2="132.707" gradientUnits="userSpaceOnUse">
<stop stopColor="#52FCFF" stop-opacity="0"/>
<stop offset="1" stopColor="#52FCFF"/>
</linearGradient>
<linearGradient id="paint11_linear_1043_78389" x1="155.728" y1="133.378" x2="155.728" y2="92.7898" gradientUnits="userSpaceOnUse">
<stop stopColor="#1D45BA"/>
<stop offset="0.4204" stopColor="#1D47BA"/>
<stop offset="0.5718" stopColor="#1D4EB9"/>
<stop offset="0.6797" stopColor="#1C59B8"/>
<stop offset="0.767" stopColor="#1B6AB6"/>
<stop offset="0.8417" stopColor="#1A80B3"/>
<stop offset="0.9079" stopColor="#199CB0"/>
<stop offset="0.9663" stopColor="#18BBAD"/>
<stop offset="1" stopColor="#17D1AA"/>
</linearGradient>
<linearGradient id="paint12_linear_1043_78389" x1="138.554" y1="89.4586" x2="138.554" y2="37.3993" gradientUnits="userSpaceOnUse">
<stop stopColor="#1D45BA"/>
<stop offset="0.4204" stopColor="#1D47BA"/>
<stop offset="0.5718" stopColor="#1D4EB9"/>
<stop offset="0.6797" stopColor="#1C59B8"/>
<stop offset="0.767" stopColor="#1B6AB6"/>
<stop offset="0.8417" stopColor="#1A80B3"/>
<stop offset="0.9079" stopColor="#199CB0"/>
<stop offset="0.9663" stopColor="#18BBAD"/>
<stop offset="1" stopColor="#17D1AA"/>
</linearGradient>
<linearGradient id="paint13_linear_1043_78389" x1="102.652" y1="45.1526" x2="123.349" y2="37.4022" gradientUnits="userSpaceOnUse">
<stop stopColor="#17D1AA"/>
<stop offset="0.0659437" stopColor="#1AC2AE"/>
<stop offset="0.2651" stopColor="#229BB8"/>
<stop offset="0.4616" stopColor="#297CC0"/>
<stop offset="0.6525" stopColor="#2D66C6"/>
<stop offset="0.8349" stopColor="#3059CA"/>
<stop offset="1" stopColor="#3154CB"/>
</linearGradient>
<clipPath id="clip0_1043_78389">
<rect width="244" height="260" fill="white"/>
</clipPath>
</defs>
</svg>
