<svg width="24" height="24" xmlns="http://www.w3.org/2000/svg"><defs><filter color-interpolation-filters="auto" id="a"><feColorMatrix in="SourceGraphic" values="0 0 0 0 1.000000 0 0 0 0 1.000000 0 0 0 0 1.000000 0 0 0 1.000000 0"/></filter></defs><g filter="url(#a)" fill="none" fillRule="evenodd"><path d="M0 24h24V0H0z"/><g fill="currentcolor"><path d="M9.005 6.94a5.071 5.071 0 00-5.064 5.065 5.07 5.07 0 005.064 5.065 5.07 5.07 0 005.065-5.065 5.071 5.071 0 00-5.065-5.064m0 12.07A7.013 7.013 0 012 12.005 7.013 7.013 0 019.005 5a7.013 7.013 0 017.006 7.005 7.013 7.013 0 01-7.006 7.006"/><path d="M16.659 5.199a7.065 7.065 0 00-2.364-.163 8.768 8.768 0 011.975 2.072 5.045 5.045 0 013.79 4.897 5.06 5.06 0 01-3.795 4.904 8.797 8.797 0 01-1.97 2.067 7.035 7.035 0 002.444-.184A7.001 7.001 0 0022 12.004 6.987 6.987 0 0016.659 5.2"/></g></g></svg>