<svg width="24" height="24" fill="none" xmlns="http://www.w3.org/2000/svg"><path fill-rule="evenodd" clip-rule="evenodd" d="M3.005 12a9 9 0 1118 0 9 9 0 01-18 0zm9-11c-6.075 0-11 4.925-11 11s4.925 11 11 11 11-4.925 11-11-4.925-11-11-11zm.599 15.685c.214-.209.322-.459.322-.752a.963.963 0 00-.327-.736 1.095 1.095 0 00-.766-.302c-.301 0-.558.105-.771.315a1.014 1.014 0 00.006 1.488c.102.093.22.168.349.22.13.054.27.082.417.082a1.062 1.062 0 00.77-.315zm-.09-2.931c.074-.142.12-.297.139-.456.024-.212.101-.414.225-.588.123-.173.339-.392.649-.656.21-.181.397-.357.567-.527.161-.16.305-.335.43-.525.12-.186.211-.388.273-.601a2.73 2.73 0 00.096-.766c0-.426-.078-.805-.232-1.131a2.405 2.405 0 00-.635-.829 2.815 2.815 0 00-.93-.505A3.616 3.616 0 0011.984 7c-.628 0-1.188.134-1.68.402A2.73 2.73 0 009.169 8.57a1.347 1.347 0 00-.164.602.776.776 0 00.22.574c.144.146.335.218.573.218.15.001.3-.039.43-.116.132-.078.248-.231.348-.458.107-.26.282-.485.506-.655.218-.165.48-.247.79-.247.412 0 .729.122.95.362.224.244.344.565.335.896 0 .273-.06.505-.183.695a2.446 2.446 0 01-.444.519l-.616.589c-.308.291-.535.568-.676.832a1.917 1.917 0 00-.211.916.988.988 0 00.089.45c.048.107.12.2.212.274a.688.688 0 00.259.131c.075.02.153.031.232.033a.921.921 0 00.225-.034.71.71 0 00.254-.13.823.823 0 00.217-.267z" fill="currentcolor"/></svg>