<svg width="24" height="24" xmlns="http://www.w3.org/2000/svg"><g fill="none" fill-rule="evenodd"><path d="M0 24h24V0H0z"/><g stroke="currentcolor"><path d="M20.272 12.627l-1.49 6.936a1.399 1.399 0 01-1.358 1.098H9.696a1.391 1.391 0 01-1.389-1.389V11.35a3.648 3.648 0 01.351-1.552l2.782-5.819a.744.744 0 011.364.404v6.03c0 .296.24.535.536.535h5.575a1.392 1.392 0 011.357 1.68h0zM7.25 19.16c0 1.223.853 2.305 2.056 2.533.133.025.264.038.39.04h7.728a2.476 2.476 0 002.405-1.944l1.488-6.935a2.458 2.458 0 00-2.402-2.976h-5.04V4.382a1.811 1.811 0 00-3.367-.935c-.007.014-.016.027-.024.041l-2.79 5.848a4.69 4.69 0 00-.444 1.785v8.038z" fill="currentcolor"/><path stroke-width="2" stroke-linecap="round" stroke-linejoin="round" d="M3.611 19.778V12"/></g></g></svg>