<svg width="21" height="20" viewBox="0 0 21 20" fill="none" xmlns="http://www.w3.org/2000/svg">
<path d="M2.50351 15.7704V9.75002C2.50351 9.46115 2.60263 9.21812 2.80087 9.02093C2.99893 8.82374 3.24161 8.72515 3.5289 8.72515C3.8162 8.72515 4.05966 8.82374 4.2593 9.02093C4.45911 9.21812 4.55902 9.46115 4.55902 9.75002V15.7764C4.55902 16.0653 4.46095 16.3082 4.26481 16.5052C4.06867 16.7024 3.82696 16.801 3.53966 16.801C3.25254 16.801 3.00803 16.7014 2.80611 16.5023C2.60438 16.303 2.50351 16.059 2.50351 15.7704ZM9.12539 15.7764V9.75002C9.12539 9.46115 9.22345 9.21812 9.41959 9.02093C9.61573 8.82374 9.85736 8.72515 10.1445 8.72515C10.4318 8.72515 10.6753 8.82374 10.8751 9.02093C11.0748 9.21812 11.1746 9.46115 11.1746 9.75002V15.7764C11.1746 16.0653 11.0765 16.3082 10.8804 16.5052C10.6842 16.7024 10.4426 16.801 10.1555 16.801C9.86821 16.801 9.62465 16.7024 9.42484 16.5052C9.2252 16.3082 9.12539 16.0653 9.12539 15.7764ZM1.07421 20C0.77309 20 0.518776 19.8968 0.311266 19.6903C0.103755 19.4838 0 19.2308 0 18.9313C0 18.6318 0.103755 18.3769 0.311266 18.1668C0.518776 17.9567 0.77309 17.8516 1.07421 17.8516H19.2258C19.5269 17.8516 19.7812 17.9548 19.9887 18.1613C20.1962 18.3677 20.3 18.6208 20.3 18.9205C20.3 19.2201 20.1962 19.4749 19.9887 19.6851C19.7812 19.895 19.5269 20 19.2258 20H1.07421ZM15.741 15.7704V9.75002C15.741 9.46115 15.8401 9.21812 16.0383 9.02093C16.2364 8.82374 16.4791 8.72515 16.7664 8.72515C17.0536 8.72515 17.2971 8.82374 17.4967 9.02093C17.6966 9.21812 17.7965 9.46115 17.7965 9.75002V15.7764C17.7965 16.0653 17.6984 16.3082 17.5023 16.5052C17.3061 16.7024 17.0645 16.801 16.7774 16.801C16.4901 16.801 16.2456 16.7014 16.0438 16.5023C15.8419 16.303 15.741 16.059 15.741 15.7704ZM18.8904 7.66852H1.2616C0.911139 7.66852 0.613258 7.54631 0.367955 7.30188C0.122651 7.05745 0 6.76062 0 6.41139V5.6348C0 5.40297 0.0633379 5.17875 0.190014 4.96214C0.316515 4.74553 0.487107 4.58789 0.701791 4.48921L9.19782 0.244341C9.49579 0.0814469 9.81318 0 10.15 0C10.4868 0 10.8042 0.0814469 11.1022 0.244341L19.5341 4.45719C19.766 4.57301 19.9515 4.74361 20.0908 4.96896C20.2303 5.19415 20.3 5.44216 20.3 5.71301V6.25287C20.3 6.65022 20.1644 6.98545 19.8932 7.25858C19.622 7.53188 19.2877 7.66852 18.8904 7.66852ZM3.45725 5.52011H16.8427L10.15 2.18673L3.45725 5.52011Z" fill="#FDF7E2"/>
</svg>
