<svg width="20" height="20" viewBox="0 0 20 20" fill="none" xmlns="http://www.w3.org/2000/svg">
<path d="M5.70711 4.29289C5.42111 4.00689 4.99099 3.92134 4.61732 4.07612C4.24364 4.2309 4 4.59554 4 5V9C4 9.55228 4.44772 10 5 10C5.55228 10 6 9.55228 6 9V7.41421L8.29289 9.70711C8.57889 9.9931 9.00901 10.0787 9.38268 9.92388C9.75636 9.7691 10 9.40446 10 9V5C10 4.44771 9.55228 4 9 4C8.44772 4 8 4.44771 8 5V6.58578L5.70711 4.29289Z" fill="white"/>
<path fill-rule="evenodd" clip-rule="evenodd" d="M3 0C1.34315 0 0 1.34315 0 3V17C0 18.6569 1.34315 20 3 20H17C18.6569 20 20 18.6569 20 17V3C20 1.34315 18.6569 0 17 0H3ZM2 3C2 2.44772 2.44772 2 3 2H17C17.5523 2 18 2.44772 18 3V17C18 17.5523 17.5523 18 17 18H15V12C15 11.9138 14.9891 11.8301 14.9686 11.7502C15.5837 11.4091 16 10.7532 16 10C16 8.89543 15.1046 8 14 8C12.8954 8 12 8.89543 12 10C12 10.7532 12.4163 11.4091 13.0314 11.7502C13.0109 11.8301 13 11.9138 13 12V18H10V16C10 15.9138 9.98908 15.8301 9.96856 15.7502C10.5837 15.4091 11 14.7532 11 14C11 12.8954 10.1046 12 9 12C7.89543 12 7 12.8954 7 14C7 14.7532 7.41634 15.4091 8.03144 15.7502C8.01092 15.8301 8 15.9138 8 16V18H3C2.44772 18 2 17.5523 2 17V3Z" fill="white"/>
</svg>
