<svg width="24" height="24" viewBox="0 0 24 24" fill="none" xmlns="http://www.w3.org/2000/svg">
<path d="M10 3H4C3.73478 3 3.48043 3.10536 3.29289 3.29289C3.10536 3.48043 3 3.73478 3 4V10C3 10.2652 3.10536 10.5196 3.29289 10.7071C3.48043 10.8946 3.73478 11 4 11H10C10.2652 11 10.5196 10.8946 10.7071 10.7071C10.8946 10.5196 11 10.2652 11 10V4C11 3.73478 10.8946 3.48043 10.7071 3.29289C10.5196 3.10536 10.2652 3 10 3ZM9 9H5V5H9V9ZM20 13H14C13.7348 13 13.4804 13.1054 13.2929 13.2929C13.1054 13.4804 13 13.7348 13 14V20C13 20.2652 13.1054 20.5196 13.2929 20.7071C13.4804 20.8946 13.7348 21 14 21H20C20.2652 21 20.5196 20.8946 20.7071 20.7071C20.8946 20.5196 21 20.2652 21 20V14C21 13.7348 20.8946 13.4804 20.7071 13.2929C20.5196 13.1054 20.2652 13 20 13ZM19 19H15V15H19V19ZM17 3C14.794 3 13 4.794 13 7C13 9.206 14.794 11 17 11C19.206 11 21 9.206 21 7C21 4.794 19.206 3 17 3ZM17 9C15.897 9 15 8.103 15 7C15 5.897 15.897 5 17 5C18.103 5 19 5.897 19 7C19 8.103 18.103 9 17 9ZM7 13C4.794 13 3 14.794 3 17C3 19.206 4.794 21 7 21C9.206 21 11 19.206 11 17C11 14.794 9.206 13 7 13ZM7 19C5.897 19 5 18.103 5 17C5 15.897 5.897 15 7 15C8.103 15 9 15.897 9 17C9 18.103 8.103 19 7 19Z" fill="white"/>
</svg>
