<svg width="24" height="24" xmlns="http://www.w3.org/2000/svg"><g fill="none" fill-rule="evenodd"><path d="M0 24h24V0H0z"/><path d="M1 1h22v22H1z"/><path d="M8.604 12.097a3.425 3.425 0 116.85 0 3.425 3.425 0 01-6.85 0z" stroke="currentcolor" stroke-width="2"/><path d="M20.39 17.532l.654-1.134a1.342 1.342 0 00-.177-1.583l-.114-.124c-.648-.7-.977-1.626-.975-2.58v-.014c0-.104-.002-.208-.006-.31-.038-.952.328-1.875.974-2.574l.121-.13c.4-.432.472-1.074.177-1.583l-.655-1.135a1.342 1.342 0 00-1.459-.638l-.35.08c-.92.208-1.877.038-2.697-.432a1.96 1.96 0 00-.044-.025c-.838-.474-1.481-1.226-1.766-2.145l-.107-.344a1.343 1.343 0 00-1.282-.944h-1.31c-.588 0-1.108.382-1.282.944l-.107.344c-.285.919-.929 1.671-1.766 2.145l-.045.025c-.819.47-1.776.64-2.697.432l-.35-.08a1.342 1.342 0 00-1.459.638L3.013 7.5a1.342 1.342 0 00.177 1.583l.121.13c.646.7 1.013 1.622.975 2.573a7.412 7.412 0 00-.006.311v.015c.001.953-.327 1.878-.975 2.579l-.115.124a1.342 1.342 0 00-.177 1.583l.655 1.134c.294.51.886.768 1.46.638.966-.219 1.968-.016 2.81.508.12.074.24.146.365.214.852.468 1.505 1.229 1.793 2.157.172.554.684.932 1.264.932h1.338c.58 0 1.092-.378 1.264-.932.288-.928.94-1.69 1.793-2.157a7.78 7.78 0 00.365-.214c.842-.524 1.843-.727 2.81-.508a1.342 1.342 0 001.46-.638z" stroke="currentcolor" stroke-width="2"/></g></svg>