<svg width="24" height="24" xmlns="http://www.w3.org/2000/svg"><defs><filter color-interpolation-filters="auto" id="a"><feColorMatrix in="SourceGraphic" values="0 0 0 0 1.000000 0 0 0 0 1.000000 0 0 0 0 1.000000 0 0 0 1.000000 0"/></filter></defs><g fill="none" fillRule="evenodd"><path fill="none" d="M0 0h24v24H0z"/><g filter="url(#a)"><g transform="translate(3 2)"><path d="M16.298 13.29l1.646 3.316a.535.535 0 01-.382.762l-.09.008h-2.697a.521.521 0 00-.414.206l-1.68 2.205a.528.528 0 01-.853-.01l-.042-.071-1.565-3.151a.527.527 0 01.375-.754l.011-.001a.52.52 0 01.56.281l1.124 2.262.135.013 1.364-1.831a.529.529 0 01.325-.204l.098-.01h2.274l.072-.116-1.205-2.425a.527.527 0 01.089-.597l.008-.008a.52.52 0 01.847.125zm-13.742-.113c.152.16.186.4.088.597l-1.202 2.421.07.117h2.275c.133 0 .26.05.356.139l.067.074 1.364 1.83.135-.012 1.123-2.26a.52.52 0 01.56-.283l.011.002a.527.527 0 01.376.753l-1.564 3.15a.528.528 0 01-.83.156l-.066-.074L3.7 17.616a.522.522 0 00-.412-.21l-2.76-.03a.535.535 0 01-.506-.686l.033-.084L1.7 13.295a.52.52 0 01.855-.118z" stroke="#979797" stroke-width=".5" fill="#F0F3F5"/><circle stroke="currentcolor" stroke-width="2" cx="9" cy="7" r="6"/></g></g></g></svg>