<svg width="20" height="20" viewBox="0 0 20 20" fill="none" xmlns="http://www.w3.org/2000/svg">
<path d="M14.2929 0.292893C14.6834 -0.0976311 15.3166 -0.0976311 15.7071 0.292893L19.7071 4.29289C20.0976 4.68342 20.0976 5.31658 19.7071 5.70711C19.3166 6.09763 18.6834 6.09763 18.2929 5.70711L16 3.41421V13C16 13.5523 15.5523 14 15 14C14.4477 14 14 13.5523 14 13V3.41421L11.7071 5.70711C11.3166 6.09763 10.6834 6.09763 10.2929 5.70711C9.90237 5.31658 9.90237 4.68342 10.2929 4.29289L14.2929 0.292893Z" fill="white"/>
<path d="M6 7C6 6.44772 5.55228 6 5 6C4.44772 6 4 6.44772 4 7V16.5858L1.70711 14.2929C1.31658 13.9024 0.683418 13.9024 0.292893 14.2929C-0.0976311 14.6834 -0.0976311 15.3166 0.292893 15.7071L4.29289 19.7071C4.68342 20.0976 5.31658 20.0976 5.70711 19.7071L9.70711 15.7071C10.0976 15.3166 10.0976 14.6834 9.70711 14.2929C9.31658 13.9024 8.68342 13.9024 8.29289 14.2929L6 16.5858V7Z" fill="white"/>
</svg>
