<svg width="24" height="24" xmlns="http://www.w3.org/2000/svg"><g fill="none" fill-rule="evenodd"><path d="M0 0h24v24H0z"/><path d="M20.819 13.8c-.834 4.107-4.465 7.2-8.82 7.2-4.353 0-7.984-3.093-8.818-7.2zM12 3c4.97 0 9 4.03 9 9h-5.035a3.93 3.93 0 00-.45-1.8s-.106-.212-.172-.316c-.027-.042-.048-.087-.077-.127a3.905 3.905 0 00-.411-.499c-.05-.052-.104-.1-.156-.148a3.87 3.87 0 00-.376-.31c-.055-.041-.108-.083-.166-.12a3.974 3.974 0 00-.578-.314c-.032-.014-.066-.026-.1-.037a4.056 4.056 0 00-.572-.18l-.07-.015a3.934 3.934 0 00-.838-.1c-.243 0-.479.03-.71.072-.027.005-.052.012-.078.018l-.118.025a3.97 3.97 0 00-.527.164l-.028.01c-.04.014-.08.026-.118.043-.202.089-.395.194-.577.314-.058.037-.111.079-.167.12a3.86 3.86 0 00-.375.31c-.053.049-.106.096-.157.148-.15.155-.288.32-.411.499-.028.04-.05.085-.077.127-.065.104-.17.316-.17.316l-.001.002h1.608A2.615 2.615 0 0112 9.374 2.626 2.626 0 0114.626 12h-1.708a.918.918 0 00-1.836 0H6.235c0-.63.103-1.233.29-1.8l.1-.277c.07-.182.15-.36.239-.532l.015-.033c.13-.25.279-.491.444-.72.015-.022.032-.044.048-.065a5.78 5.78 0 011.165-1.174l.1-.075c.218-.157.444-.3.683-.426.029-.016.058-.027.087-.042.223-.112.453-.21.69-.293l.115-.042c.252-.082.512-.145.777-.192.057-.01.114-.018.17-.026.276-.04.556-.069.842-.069.286 0 .565.028.84.069.057.008.115.016.17.026.266.047.527.11.78.192.038.013.075.028.113.042.237.083.468.18.69.293.03.015.058.026.087.042.239.126.466.269.683.426l.101.075c.442.334.833.728 1.164 1.174l.05.065c.164.229.313.47.442.72l.016.033c.133.259.246.528.339.809h1.497C18.17 7.098 15.35 4.8 12 4.8s-6.171 2.298-6.972 5.4a12.008 12.008 0 00-.291 1.8H3a9 9 0 019-9z" fill="currentcolor"/></g></svg>