<svg width="30" height="26" viewBox="0 0 30 26" fill="none" xmlns="http://www.w3.org/2000/svg">
<path fillRule="evenodd" clipRule="evenodd" d="M18.292 4.83503C17.7611 5.20335 17.2301 5.56498 16.6991 5.92661C16.1681 6.28822 15.6372 6.64984 15.1062 7.01816C14.9602 7.11191 14.8673 7.12531 14.7212 7.01816C13.4206 6.10759 12.1067 5.19703 10.7928 4.28646L10.7926 4.28632L10.7924 4.28618L10.7922 4.28604L10.792 4.2859C9.42478 3.30818 8.05752 2.33046 6.67699 1.36613L4.72566 0H0C0.136227 0.0940443 0.256964 0.180274 0.372668 0.26291C0.471181 0.333266 0.566045 0.401018 0.663717 0.46877C1.28098 0.897362 1.89824 1.3293 2.5155 1.76124C3.13275 2.19318 3.75 2.62511 4.36726 3.0537L8.03097 5.62524C8.60128 6.0267 9.1749 6.4315 9.74852 6.8363L9.74918 6.83677L9.75 6.83735C10.3241 7.2425 10.8982 7.64765 11.469 8.04945C11.8886 8.34375 12.3102 8.63605 12.7322 8.92866L12.7324 8.92875L12.7325 8.92884L12.7329 8.9291L12.7329 8.92914L12.733 8.92918L12.733 8.92922C13.4055 9.39549 14.0792 9.86256 14.7478 10.3397C14.8673 10.4201 14.9469 10.4201 15.0664 10.3397C15.5676 9.98726 16.0732 9.64356 16.5806 9.29859C16.9601 9.04058 17.3407 8.78185 17.7212 8.51822C19.8982 7.00476 22.0752 5.49131 24.2522 3.99124C25.8319 2.89298 27.4248 1.79472 29.0044 0.709852C29.2161 0.564608 29.4224 0.419363 29.6336 0.270642L29.6338 0.270513L29.6339 0.270478L29.6341 0.270292L29.6352 0.269569L29.6366 0.268536C29.7556 0.184802 29.8761 0.0999613 30 0.0133934H25.2611C24.028 0.859386 22.7987 1.71293 21.5672 2.568L21.5669 2.56823L21.5663 2.56866C20.4779 3.3243 19.3879 4.08114 18.292 4.83503ZM3.10345 6.24V7.35621V8.41862V9.50793C3.10345 9.53483 3.10345 9.56172 3.11656 9.57517C6.586 12.0281 10.0413 14.481 13.4965 16.934C15.8001 18.5693 18.1037 20.2047 20.4115 21.84L22.7586 20.1724C16.2025 15.5328 9.67266 10.9066 3.10345 6.24ZM3.11197 14.6033C3.11709 14.5933 3.1239 14.58 3.13072 14.56C7.94467 17.8133 12.745 21.0533 17.5862 24.32L15.1451 26H15.1315C13.6008 24.9651 12.074 23.934 10.5497 22.9045L10.5316 22.8923L10.5303 22.8915C8.05493 21.2198 5.58601 19.5524 3.11709 17.88C3.11709 17.8667 3.11368 17.8567 3.11027 17.8467C3.10686 17.8367 3.10345 17.8267 3.10345 17.8133V16.6267V15.2933V14.6267C3.10345 14.62 3.10686 14.6133 3.11197 14.6033ZM25.8495 6.24C24.1586 7.40232 22.4818 8.55998 20.8076 9.71582C19.7337 10.4572 18.6609 11.1978 17.5862 11.9385C17.6241 11.9887 17.6493 12.0138 17.6745 12.0389C18.0213 12.2835 18.3712 12.5282 18.7211 12.7728L18.7217 12.7732C19.0718 13.018 19.4218 13.2627 19.7687 13.5074C19.7813 13.52 19.8192 13.52 19.8444 13.52C20.5847 13.0119 21.325 12.502 22.066 11.9917L22.0667 11.9912C23.3205 11.1277 24.5762 10.2629 25.8368 9.40303C25.8431 9.39676 25.8463 9.38734 25.8495 9.37793C25.8526 9.36852 25.8558 9.3591 25.8621 9.35283V6.24H25.8495ZM24.7507 14.3481C25.1189 14.0735 25.4887 13.7977 25.8621 13.52V17.16L25.1677 17.68C24.3741 17.0682 23.5805 16.4565 22.7586 15.8294C23.4247 15.337 24.085 14.8446 24.7507 14.3481Z" fill="white"/>
</svg>
