<svg xmlns="http://www.w3.org/2000/svg" width="24" height="24"><path d="M13.2 0h.6l.598.602L16.801 3l3 2.398 3 2.403h.597v.597c0 .602 0 .602 0 0l-3-1.199L16.2 3.602l-1.8-1.204C13.8 1.801 13.198.602 12 .602V0Zm0 0" style="stroke:none;fillRule:nonzero;fill:#6fddfe;fill-opacity:1"/><path d="M11.398 24a22.813 22.813 0 0 1-4.796-4.8h.597l1.2 1.198L9.601 21l.597.602L12 23.398l.602.602Zm0 0" style="stroke:none;fillRule:nonzero;fill:#9e84fe;fill-opacity:1"/><path d="M22.8 11.398 24 12v1.2l-.602-.598L22.2 12v-.602c.2.004.403.004.602 0Zm0 0" style="stroke:none;fillRule:nonzero;fill:#8dd7fe;fill-opacity:1"/><path d="m18 6.602-.602 1.796V9H18v2.398h-1.8V12h.6v2.398H15h1.8s0-.597 0 0H15l-.602.602v.602l-.597 1.199v.597h-.602V18l-.597.602V19.8L12 21l-.602-1.8-.597-1.2-.602-1.8-.597-1.2L9 14.398H7.2V12h.6v-.602H6V9h.602V7.8L6 7.2V6h1.8H6h2.398v.602l1.801 3v.597l.602 1.2.597 1.203V13.8l.602.597v-.597l.602-.602v-.597l1.199-2.403L14.398 9V7.8H15v-.6l.602-.598V6h1.796-1.796H18Zm0 0" style="stroke:none;fillRule:nonzero;fill:#000101;fill-opacity:1"/><path d="M18 6.602V6h-.602l-3-3-3-2.398L10.2 0H12l-.602.602 1.204.597L15 3h.602L16.8 4.2 19.199 6 21 7.8l3 1.802v.597h-.602l-3.597-2.398Zm0 0" style="stroke:none;fillRule:nonzero;fill:#85e4fe;fill-opacity:1"/><path d="M14.398 8.398V9h-.597l-3.602-2.398-2.398-2.403-2.403-1.8V1.8H6l.602.597 6.597 5.403Zm0 0" style="stroke:none;fillRule:nonzero;fill:#78bcfe;fill-opacity:1"/><path d="M15 7.2v.6h-.602l-3-3-4.199-3-.597-.6h.597L9 2.397 10.2 3l3.6 3h.598Zm0 0" style="stroke:none;fillRule:nonzero;fill:#75c7fe;fill-opacity:1"/><path d="m12 21 1.2.602 2.402 1.199.597.597h-1.8l-3.598-3-2.403-1.796L3 14.398 2.398 13.2s-.597 0 0 0H3v.602h.602l3.597 3h.602v.597Zm0 0" style="stroke:none;fillRule:nonzero;fill:#887dfe;fill-opacity:1"/><path d="M14.398 8.398 13.2 7.801 9 4.8 6.602 2.398 6 1.801v-.602l.602.602 3 2.398 4.796 3.602Zm0 0" style="stroke:none;fillRule:nonzero;fill:#77c0fe;fill-opacity:1"/><path d="M5.398 1.8v.598L9.602 6l3.597 2.398.602.602h.597l-.597 1.2A16.872 16.872 0 0 0 9 6L7.8 4.8 4.8 3v-.602Zm0 0" style="stroke:none;fillRule:nonzero;fill:#79b9fe;fill-opacity:1"/><path d="M.602 8.398v-.597h.597l3 2.398L6.602 12v.602H6l-1.2-1.204-1.198-.597L1.199 9Zm0 0" style="stroke:none;fillRule:nonzero;fill:#848ffe;fill-opacity:1"/><path d="M14.398 8.398 13.801 7.2 12 6 9 3.602 6.602 1.8 6 1.199h.602L9 3l3 2.398 1.8 1.204L15 7.8Zm0 0" style="stroke:none;fillRule:nonzero;fill:#76c4fe;fill-opacity:1"/><path d="M6.602 12.602V12l-1.204-1.2L3 9.603 1.2 7.8H.601l.597-.602L3.602 9 6 10.8V9.603v1.796h.602l.597.602v.602Zm0 0" style="stroke:none;fillRule:nonzero;fill:#8293fe;fill-opacity:1"/><path d="M6 9.602V10.8L1.8 6.6h-.6L1.8 6l3.598 3Zm0 0" style="stroke:none;fillRule:nonzero;fill:#819bfe;fill-opacity:1"/><path d="m11.398 19.2-.597.6-3-3h-.602l-3-3h-.597L6 15l.602.602 4.199 3Zm0 0" style="stroke:none;fillRule:nonzero;fill:#9d98fe;fill-opacity:1"/><path d="M1.2 6.602h.6L4.2 9 6 10.2v.6l-.602-.6-3.597-2.4-.602-.6Zm0 0" style="stroke:none;fillRule:nonzero;fill:#8297fe;fill-opacity:1"/><path d="m6 9.602-3-3L1.8 6l1.802.602L4.8 7.8 6 8.398Zm0 0" style="stroke:none;fillRule:nonzero;fill:#7f9ffe;fill-opacity:1"/><path d="M11.398 19.2 10.2 18l-1.8-1.2L6 15l1.2.602 3 1.796.6.602Zm0 0" style="stroke:none;fillRule:nonzero;fill:#9c9bfe;fill-opacity:1"/><path d="M.602 8.398h.597l1.2 1.204 1.8 1.796h.602-1.2L3 10.801h-.602v-.602L.602 9Zm0 0" style="stroke:none;fillRule:nonzero;fill:#858cfe;fill-opacity:1"/><path d="M4.8 2.398 6 3.602l2.398 1.796h-.597l-1.2-.597L6 4.199l-.602-.597L4.2 3Zm0 0" style="stroke:none;fillRule:nonzero;fill:#79b6fe;fill-opacity:1"/><path d="M14.398 6c0 .602 0 .602 0 0H13.2l-1.8-1.8A548.261 548.261 0 0 0 9 2.397h.602L12 4.2l1.2.602L13.8 6Zm0 0" style="stroke:none;fillRule:nonzero;fill:#74cbfe;fill-opacity:1"/><path d="M12 4.2 9.602 2.397H9L7.2 1.2l.6-.597.598.597L10.801 3 12 3.602Zm0 0" style="stroke:none;fillRule:nonzero;fill:#8ed2fe;fill-opacity:1"/><path d="M3.602 13.8h.597l3 3h.602-.602l-3.597-3H3Zm0 0" style="stroke:none;fillRule:nonzero;fill:#887efe;fill-opacity:1"/><path d="m6 4.2 1.8 1.198L9 6v.602h-.602V6H6h1.8L6 5.398l-.602-.597v-.602Zm0 0" style="stroke:none;fillRule:nonzero;fill:#8dc3fe;fill-opacity:1"/><path d="M5.398 4.2 6 4.8v.598a34.207 34.207 0 0 0-3-1.796h.602Zm0 0" style="stroke:none;fillRule:nonzero;fill:#8fbffe;fill-opacity:1"/><path d="m.602 9 1.796 1.2v.6l-1.796-.6L0 9.601Zm0 0" style="stroke:none;fillRule:nonzero;fill:#8689fe;fill-opacity:1"/><path d="M5.398 4.2 4.2 3.601h-.597L4.199 3h.602L6 4.2Zm0 0" style="stroke:none;fillRule:nonzero;fill:#7ab1fe;fill-opacity:1"/><path d="m6 7.2.602.6H6a24.09 24.09 0 0 0-2.398-1.198V6l1.199.602Zm0 0" style="stroke:none;fillRule:nonzero;fill:#96b4fe;fill-opacity:1"/><path d="m9 14.398 1.2 1.801-1.802-1.8Zm0 0" style="stroke:none;fillRule:nonzero;fill:#97a0fd;fill-opacity:1"/><path d="M0 9.602h.602L2.398 10.8H3l.602.597-1.801-.597-1.2-.602Zm0 0" style="stroke:none;fillRule:nonzero;fill:#9c9dfd;fill-opacity:1"/><path d="M3.602 6v.602L1.8 6l.597-.602Zm0 0" style="stroke:none;fillRule:nonzero;fill:#98b1fe;fill-opacity:1"/><path d="M4.2 11.398h.6L6 12.602h1.2v.597Zm0 0" style="stroke:none;fillRule:nonzero;fill:#97a1fd;fill-opacity:1"/><path d="m2.398 13.2-1.796-.598H0V12Zm0 0" style="stroke:none;fillRule:nonzero;fill:#9c8ffd;fill-opacity:1"/><path d="M6 6h1.8-1.198L6 6.602Zm0 0" style="stroke:none;fillRule:nonzero;fill:#080808;fill-opacity:1"/><path d="M15.602 6h1.796l-1.796.602Zm0 0" style="stroke:none;fillRule:nonzero;fill:#060606;fill-opacity:1"/><path d="m.602 12.602 1.796.597.602.602 3 2.398L7.8 18l2.4 1.8 2.402 1.802 1.796 1.199v.597c.602 0 .602 0 0 0V24l-.597-.602-6-4.796-5.403-4.204L.602 13.2Zm0 0" style="stroke:none;fillRule:nonzero;fill:#897afe;fill-opacity:1"/><path d="M13.2 24h-.598v-.602L9 21l-.602-1.2h-.597l-2.403-2.402h-.597l-3.602-3L0 13.2h.602l3 1.801L4.8 16.8l3 1.802 3 2.398 3 3Zm0 0" style="stroke:none;fillRule:nonzero;fill:#8b75fe;fill-opacity:1"/><path d="M23.398 15.602v.597L21 15.602V15l-3-2.398-.602-.602c-.597 0 0 0 0 0l-.597.602v-1.204H18l3 2.403Zm0 0" style="stroke:none;fillRule:nonzero;fill:#78bcfe;fill-opacity:1"/><path d="M18 10.2v-.598l2.398 1.199.602.597 2.398 2.403H24l-.602.597c0 .602 0 0 0 0L21.602 13.2l-2.403-2.398Zm0 0" style="stroke:none;fillRule:nonzero;fill:#75c7fe;fill-opacity:1"/><path d="M14.398 15v-.602H15l3.602 3L19.8 18 21 19.2h.602l-.602.6h-.602A948.173 948.173 0 0 0 15 15.603Zm0 0" style="stroke:none;fillRule:nonzero;fill:#7da5fe;fill-opacity:1"/><path d="M13.8 16.8v-1.198l.598.597 1.801 1.2 3.602 3V21h-1.2L16.2 18.602 14.4 16.8Zm0 0" style="stroke:none;fillRule:nonzero;fill:#819afe;fill-opacity:1"/><path d="m13.8 16.8 1.2.598 2.398 1.801L19.801 21l-.602.602h-.597L13.8 17.398Zm0 0" style="stroke:none;fillRule:nonzero;fill:#8296fe;fill-opacity:1"/><path d="m13.8 24-1.198-1.2-1.801-1.198L7.199 18a289.965 289.965 0 0 0-4.8-3.602L.601 13.2H0v-.597h.602l.597.597 3 2.403L7.2 18l2.403 2.398 1.796 1.204 2.403 1.796.597.602Zm0 0" style="stroke:none;fillRule:nonzero;fill:#8b78fe;fill-opacity:1"/><path d="M19.8 21v-.602l-4.198-3.597-1.204-.602-.597-.597.597-.602 1.204 1.2 3.597 3 1.2.6v.598Zm0 0" style="stroke:none;fillRule:nonzero;fill:#7f9ffe;fill-opacity:1"/><path d="m20.398 20.398-.597-.597-3-2.403L15 15.602 14.398 15l1.204.602 3 2.398L21 19.8Zm0 0" style="stroke:none;fillRule:nonzero;fill:#7fa1fe;fill-opacity:1"/><path d="m13.8 17.398 1.2 1.204 2.398 1.796 1.204.602.597.602-.597.597-1.801-1.8-1.2-.598-2.402-2.403Zm0 0" style="stroke:none;fillRule:nonzero;fill:#8392fe;fill-opacity:1"/><path d="M23.398 15.602 22.2 15l-1.8-1.8L18 11.397v-.597l1.2.597 2.402 2.403L23.398 15Zm0 0" style="stroke:none;fillRule:nonzero;fill:#77c0fe;fill-opacity:1"/><path d="m23.398 15-1.199-.602-1.8-1.199-1.797-1.8L18 10.8v-.602l1.2.602 1.8 1.8 2.398 1.797Zm0 0" style="stroke:none;fillRule:nonzero;fill:#76c4fe;fill-opacity:1"/><path d="M16.2 23.398 14.397 22.2 12 21l.602-1.2L15 22.2l1.2.6Zm0 0" style="stroke:none;fillRule:nonzero;fill:#9e98fe;fill-opacity:1"/><path d="m21 16.2-3-2.4-1.2-.6v-.598h.598l2.403 1.796.597.602.602.602Zm0 0" style="stroke:none;fillRule:nonzero;fill:#8dc3fe;fill-opacity:1"/><path d="m12.602 18.602.597-.602c1.016.781 2.016 1.582 3 2.398l.602.602L15 20.398a27.59 27.59 0 0 1-2.398-1.796Zm0 0" style="stroke:none;fillRule:nonzero;fill:#979efe;fill-opacity:1"/><path d="M24 13.8h-.602l-.597-.6L21 11.397l-.602-.597.602.597 1.8.602.598.602.602.597Zm0 0" style="stroke:none;fillRule:nonzero;fill:#74cbfe;fill-opacity:1"/><path d="M18.602 17.398a29.67 29.67 0 0 1-4.204-3h2.403H15l.602.602 1.796 1.2 1.801.6.602.598Zm0 0" style="stroke:none;fillRule:nonzero;fill:#95b8fd;fill-opacity:1"/><path d="M18.602 17.398H19.8l1.8 1.204v.597L19.802 18c-.403-.2-.801-.398-1.2-.602Zm0 0" style="stroke:none;fillRule:nonzero;fill:#7da9fe;fill-opacity:1"/><path d="M21 16.2v-.598L20.398 15l.602.602 1.8.597h.598l-.597.602Zm0 0" style="stroke:none;fillRule:nonzero;fill:#8dc6fe;fill-opacity:1"/><path d="m16.8 21-.6-.602h-.598v-.597a33.475 33.475 0 0 0 3 2.398Zm0 0" style="stroke:none;fillRule:nonzero;fill:#97a1fe;fill-opacity:1"/><path d="M21.602 18.602 19.8 18v-.602h.597l1.204 1.204c.597 0 .597 0 0 0Zm0 0" style="stroke:none;fillRule:nonzero;fill:#94bbfe;fill-opacity:1"/><path d="M16.8 14.398h-.6l-1.2-.597h1.2l.6-.602V12Zm0 0" style="stroke:none;fillRule:nonzero;fill:#070707;fill-opacity:1"/><path d="M5.398 17.398 7.801 19.2v.602L9 21l-1.8-1.2-.598-.6-4.801-3v-.598h.597L4.801 16.8Zm0 0" style="stroke:none;fillRule:nonzero;fill:#9e86fe;fill-opacity:1"/><path d="M2.398 18.602 1.801 18c2.398 1.2 4.8 3 6.597 5.398L7.2 22.801l-.597-.602L4.8 21l-1.2-1.2Zm0 0" style="stroke:none;fillRule:nonzero;fill:#a381fe;fill-opacity:1"/><path d="m5.398 17.398-3-1.796L1.2 15l-.597-.602H0V13.2l1.8 1.2 2.4 1.8Zm0 0" style="stroke:none;fillRule:nonzero;fill:#8b73fe;fill-opacity:1"/><path d="m2.398 18.602.602.597 1.8 1.2.598 1.203.602.597-3-2.398Zm0 0" style="stroke:none;fillRule:nonzero;fill:#9061fe;fill-opacity:1"/><path d="m6 22.2-.602-.598L4.801 21l.597.602L7.2 22.8Zm0 0" style="stroke:none;fillRule:nonzero;fill:#a47ffe;fill-opacity:1"/><path d="M0 14.398h.602l1.796 1.204h-.597L.6 15Zm0 0" style="stroke:none;fillRule:nonzero;fill:#8d6ffe;fill-opacity:1"/><path d="m.602 15 1.199.602v.597Zm0 0" style="stroke:none;fillRule:nonzero;fill:#9f84fc;fill-opacity:1"/><path d="M23.398 7.8h-.597l-1.2-1.198L18 4.199l-3-2.398L13.2 0l1.8.602.602.597 3.597 3 3 2.403h.602Zm0 0" style="stroke:none;fillRule:nonzero;fill:#6ee3fe;fill-opacity:1"/><path d="M16.2.602 18.601 1.8l1.796 1.8L21 4.2 22.2 6l-.598-.602-4.204-3.597-1.199-.602Zm0 0" style="stroke:none;fillRule:nonzero;fill:#6ce8fe;fill-opacity:1"/><path d="M16.2.602v.597L18 2.4l2.398 1.8 2.403 2.403h-.602L20.4 4.8l-4.797-3.602L15 .602Zm0 0" style="stroke:none;fillRule:nonzero;fill:#6de5fe;fill-opacity:1"/><path d="M24 9.602h-.602l-1.796-1.204L19.8 7.2v-.597l.597.597 3 1.2L24 9.601c-.602 0 0 0 0 0Zm0 0" style="stroke:none;fillRule:nonzero;fill:#84e8fe;fill-opacity:1"/><path d="M23.398 12.602 21 11.398l-.602-.597-.597-.602 2.398 1.2.602.601Zm0 0" style="stroke:none;fillRule:nonzero;fill:#8dd4fe;fill-opacity:1"/><path d="m19.8 10.2.598.6v.598-.597L18 9.6V9Zm0 0" style="stroke:none;fillRule:nonzero;fill:#8ed2fe;fill-opacity:1"/><path d="m21 4.2-.602-.598-1.796-1.204v-.597Zm0 0" style="stroke:none;fillRule:nonzero;fill:#88ebfd;fill-opacity:1"/><path d="m16.8 9 .598-.602V9Zm0 0" style="stroke:none;fillRule:nonzero;fill:#7fb9e0;fill-opacity:1"/><path d="M22.8 6.602 22.2 6Zm0 0" style="stroke:none;fillRule:nonzero;fill:#6ce8fe;fill-opacity:1"/><path d="M20.398 7.2 19.2 6l-2.398-1.8-1.2-.598-1.203-1.204L15 3l3.602 2.398L20.398 7.2s.602 0 0 0Zm0 0" style="stroke:none;fillRule:nonzero;fill:#6fdafe;fill-opacity:1"/><path d="m14.398 2.398 1.204 1.204L15 3 11.398.602V0H12Zm0 0" style="stroke:none;fillRule:nonzero;fill:#84e6fe;fill-opacity:1"/><path d="m9.602 21-1.204-1.2.602.598A127.408 127.408 0 0 1 13.2 24h-.598l-1.204-.602-1.199-1.796Zm0 0" style="stroke:none;fillRule:nonzero;fill:#8b72fe;fill-opacity:1"/><path d="M6.602 6.602h1.796L10.2 12 12 15.602l.602-1.801c1.203-2.399 2.402-4.801 3.597-7.2h1.2L16.198 9h1.2v1.8h-1.797L15 12h1.2l.6.602V13.8h-2.402L12 19.8l-1.2-2.403-1.198-3.597H7.199v-1.2L7.801 12H9l-.602-1.2H6.602V9h.597c.602 0 .602 0 0 0Zm0 0" style="stroke:none;fillRule:nonzero;fill:#fefefe;fill-opacity:1"/><path d="m13.8 10.2-3-2.4L9 6.603V6l-.602-.602h-.597.597l1.204 1.204L13.199 9Zm0 0" style="stroke:none;fillRule:nonzero;fill:#8dc5fe;fill-opacity:1"/><path d="m7.8 16.8 3 2.4v.6l.598-.6.602 1.198h-.602l-3-2.398-.597-.602Zm0 0" style="stroke:none;fillRule:nonzero;fill:#9e97fe;fill-opacity:1"/><path d="m3.602 6.602 3 1.199.597.597L6.602 9H6v-.602L4.2 7.2Zm0 0" style="stroke:none;fillRule:nonzero;fill:#7fa2fe;fill-opacity:1"/><path d="m11.398 11.398 1.204 1.204v.597H12l-.602-.597h-.597V10.8c-.602 0-.602 0 0 0Zm0 0" style="stroke:none;fillRule:nonzero;fill:#7ea5fe;fill-opacity:1"/><path d="M15.602 19.8v.598L15 19.2 13.2 18v-.602Zm0 0" style="stroke:none;fillRule:nonzero;fill:#96a1fd;fill-opacity:1"/><path d="M10.8 12.602h.598l1.204.597v.602h-1.204Zm0 0" style="stroke:none;fillRule:nonzero;fill:#7ea1fd;fill-opacity:1"/><path d="m11.398 11.398-.597-.597v.597l-.602-1.199Zm0 0" style="stroke:none;fillRule:nonzero;fill:#7da8fc;fill-opacity:1"/><path d="m7.2 12-.598-.602H7.8l.597.602Zm0 0" style="stroke:none;fillRule:nonzero;fill:#8197fd;fill-opacity:1"/><path d="M16.8 11.398V12h-.6l-.598-.602Zm0 0" style="stroke:none;fillRule:nonzero;fill:#78b9fd;fill-opacity:1"/><path d="M11.398 13.8h1.204l-.602.598Zm0 0" style="stroke:none;fillRule:nonzero;fill:#7e9dfb;fill-opacity:1"/><path d="m10.8 10.8-.6-.6v-.598Zm0 0" style="stroke:none;fillRule:nonzero;fill:#94b7f7;fill-opacity:1"/><path d="M7.8 11.398H6.603c-.204.004-.403.004-.602 0Zm0 0" style="stroke:none;fillRule:nonzero;fill:#859cfe;fill-opacity:1"/><path d="M16.8 12.602V12h.598l3 2.398V15s.602 0 0 0l-1.796-1.2Zm0 0" style="stroke:none;fillRule:nonzero;fill:#79b8fe;fill-opacity:1"/><path d="M20.398 15v-.602l-3-2.398h-.597.597L21 15Zm0 0" style="stroke:none;fillRule:nonzero;fill:#78b9fd;fill-opacity:1"/></svg>