<svg width="24" height="24" viewBox="0 0 24 24" fill="none" xmlns="http://www.w3.org/2000/svg">
<path d="M11.8572 -0.000421894C13.4255 -0.000421894 14.9785 0.30997 16.4274 0.913028C17.8764 1.51608 19.193 2.39999 20.3019 3.5143C21.4109 4.6286 22.2906 5.95149 22.8907 7.4074C23.4909 8.86331 23.7998 10.4237 23.7998 11.9996C23.7998 18.5919 18.4357 23.9985 11.8572 23.9985C10.2793 24.0137 8.71403 23.7146 7.25182 23.1184C5.78967 22.5222 4.45956 21.6408 3.3384 20.525C2.21725 19.4092 1.32727 18.0813 0.719899 16.6178C0.112525 15.1544 -0.200195 13.5846 -0.200195 11.999C-0.200195 10.4134 0.112525 8.84363 0.719899 7.38021C1.32727 5.9168 2.21725 4.58882 3.3384 3.47305C4.45956 2.35729 5.78967 1.47584 7.25182 0.87965C8.71403 0.283456 10.2793 -0.0156662 11.8572 -0.000421894ZM11.8572 23.4904C14.1193 23.4904 16.3306 22.8164 18.2114 21.5536C20.0922 20.2908 21.5581 18.4959 22.4237 16.396C23.2893 14.2961 23.5158 11.9853 23.0743 9.75608C22.633 7.52684 21.5436 5.47917 19.944 3.87204C18.3444 2.2649 16.3064 1.17049 14.0878 0.727195C11.8692 0.283899 9.56955 0.511637 7.47972 1.3816C5.3899 2.25158 3.60376 3.7247 2.34718 5.61469C1.0906 7.50467 0.420019 9.72664 0.420237 11.9996C0.417327 13.5095 0.711176 15.0051 1.28492 16.4007C1.85867 17.7962 2.70102 19.0641 3.76363 20.1318C4.82625 21.1994 6.08822 22.0456 7.47714 22.622C8.86601 23.1984 10.3545 23.4935 11.8572 23.4904ZM4.41877 9.72779H3.35565L3.49034 14.2536H4.51922L4.41877 9.72779ZM5.0425 14.2536L5.05906 15.2697C5.09329 17.4882 6.69514 19.6435 7.97791 20.4732V18.0329L6.45886 16.1682V9.27082L9.18784 12.5243L11.8528 9.27082L14.5177 12.5243L17.25 9.27082V16.1482L15.7155 18.034V20.4743C16.9973 19.6612 18.6167 17.4916 18.6499 15.2708L18.6675 14.2547L18.7857 9.72889V9.67792C18.7857 5.84758 15.6648 2.91139 11.8528 2.91139C8.04082 2.91139 4.91996 5.8432 4.91996 9.67792V9.72889L5.0425 14.2536ZM6.97993 13.4394L9.17242 15.9985L11.855 12.847L14.5365 15.9985L16.7301 13.4572V15.9818L15.1945 17.8676L15.211 19.4438C14.4018 20.207 13.4237 20.8681 12.4787 20.8681H11.2324C10.2885 20.8681 9.32697 20.2026 8.51664 19.4438L8.50007 17.8509L6.98217 15.9652L6.97993 13.4394ZM9.76299 17.9652C9.95929 17.8746 10.171 17.8226 10.3868 17.8121C10.8769 17.8121 11.1297 18.0839 11.855 18.0839C12.5803 18.0839 12.8331 17.8121 13.3056 17.8121C13.5232 17.8219 13.7369 17.8739 13.9349 17.9652L14.1203 17.4572C13.8625 17.351 13.5892 17.2877 13.3111 17.2697C12.6189 17.2697 12.3661 17.5414 11.8605 17.5414C11.3549 17.5414 11.0877 17.2697 10.3923 17.2697C10.1145 17.2895 9.84144 17.3528 9.58309 17.4572L9.76299 17.9652ZM13.3056 18.999L13.1875 18.4566C12.3089 18.643 11.4011 18.643 10.5225 18.4566L10.4022 18.999C11.3618 19.1859 12.3482 19.1859 13.3078 18.999H13.3056ZM20.2274 14.2491L20.3632 9.72335H19.3001L19.1985 14.2491H20.2274Z" fill="#00A064"/>
</svg>
