<?xml version="1.0" encoding="UTF-8"?>
<svg width="7px" height="7px" viewBox="0 0 7 7" version="1.1" xmlns="http://www.w3.org/2000/svg" xmlns:xlink="http://www.w3.org/1999/xlink">
    <!-- Generator: Sketch 52.2 (67145) - http://www.bohemiancoding.com/sketch -->
    <title>Shape Copy</title>
    <desc>Created with Sketch.</desc>
    <g id="Page-1" stroke="none" stroke-width="1" fill="none" fill-rule="evenodd">
        <g id="2-Connect/Failed" transform="translate(-677.000000, -289.000000)" fill="#DAA49A">
            <g id="failed" transform="translate(677.000000, 284.000000)">
                <path d="M6.81479587,10.8845924 C6.9350975,11.0141048 7.00123427,11.1847619 6.99962177,11.3615109 C7.00569433,11.5320226 6.93840836,11.6969639 6.81479587,11.8145834 C6.69577183,11.9397796 6.52829018,12.0072 6.35571218,11.9993894 C6.18042612,12.0025994 6.01102833,11.936134 5.88470425,11.8145834 L3.49985392,9.42999104 L1.1150036,11.8145834 C0.991984676,11.9337681 0.82721265,12.0000977 0.655919908,11.9993894 C0.486187549,12.0011311 0.322889383,11.9345298 0.202798347,11.8145834 C0.0725735973,11.7002027 -0.00142212523,11.5348184 8.60689359e-05,11.3615109 C-0.00287694599,11.1810194 0.0707816894,11.0077237 0.202798347,10.8845924 L2.58764867,8.5 L0.202798347,6.1154076 C0.0714033405,5.99184186 -0.00213270923,5.81883457 8.60689359e-05,5.63848911 C-0.00142212523,5.4651816 0.0725735973,5.29979729 0.202798347,5.18541656 C0.322889383,5.06547016 0.486187549,4.9988689 0.655919908,5.00061065 C0.82721265,4.99990231 0.991984676,5.06623192 1.1150036,5.18541656 L3.49985392,7.57000896 L5.88470425,5.18541656 C6.01102833,5.063866 6.18042612,4.99740064 6.35571218,5.00061065 C6.52829018,4.99280005 6.69577183,5.06022043 6.81479587,5.18541656 C6.93840836,5.30303612 7.00569433,5.46797742 6.99962177,5.63848911 C7.00004277,5.8150189 6.93406938,5.98525441 6.81479587,6.1154076 L4.42994555,8.5 L6.81479587,10.8845924 Z" id="Shape-Copy"></path>
            </g>
        </g>
    </g>
</svg>