<?xml version="1.0" encoding="UTF-8"?>
<svg width="12px" height="12px" viewBox="0 0 12 12" version="1.1" xmlns="http://www.w3.org/2000/svg" xmlns:xlink="http://www.w3.org/1999/xlink">
    <!-- Generator: Sketch 52.2 (67145) - http://www.bohemiancoding.com/sketch -->
    <title>cross.green.inline copy</title>
    <desc>Created with Sketch.</desc>
    <g id="cross.green.inline-copy" stroke="none" stroke-width="1" fill="none" fillRule="evenodd">
        <path d="M9.83388158,8.72916667 C9.97352366,8.88194521 10.0433437,9.06249896 10.0433437,9.27083333 C10.0433437,9.47916771 9.97352366,9.65277708 9.83388158,9.79166667 C9.6942395,9.93055625 9.51968951,10 9.31022639,10 C9.10076327,10 8.91923129,9.93055625 8.765625,9.79166667 L6.02167183,7.0625 L3.27771865,9.79166667 C3.12411236,9.93055625 2.94956238,10 2.75406347,10 C2.55856455,10 2.38401457,9.93055625 2.23040828,9.79166667 C2.07680199,9.65277708 2,9.47916771 2,9.27083333 C2,9.06249896 2.07680199,8.88194521 2.23040828,8.72916667 L4.95341525,6 L2.23040828,3.27083333 C2.07680199,3.11805479 2,2.93750104 2,2.72916667 C2,2.52083229 2.07680199,2.34722292 2.23040828,2.20833333 C2.38401457,2.06944375 2.55856455,2 2.75406347,2 C2.94956238,2 3.12411236,2.06944375 3.27771865,2.20833333 L6.02167183,4.9375 L8.765625,2.20833333 C8.91923129,2.06944375 9.10076327,2 9.31022639,2 C9.51968951,2 9.6942395,2.06944375 9.83388158,2.20833333 C9.97352366,2.34722292 10.0433437,2.52083229 10.0433437,2.72916667 C10.0433437,2.93750104 9.97352366,3.11805479 9.83388158,3.27083333 L7.08992841,6 L9.83388158,8.72916667 Z" id="ion-close-round---Ionicons-Copy" fill="#15D1AA" transform="translate(6.021672, 6.000000) scale(1, -1) translate(-6.021672, -6.000000) "></path>
    </g>
</svg>