

<?xml version="1.0" encoding="UTF-8"?>
<svg xmlns="http://www.w3.org/2000/svg" xmlns:xlink="http://www.w3.org/1999/xlink" width="18" height="18">
   <defs>
      <circle id="a" cx="8" cy="8" r="8" />
   </defs>
   <g transform="translate(1 1)" fill="none" fill-rule="evenodd">
      <mask id="b" fill="#fff">
         <use xlink:href="#a" />
      </mask>
      <circle stroke-opacity=".303" stroke="#4A4A4A" stroke-width=".5" cx="8" cy="8" r="8.25" />
      <g mask="url(#b)">
         <rect fill="none" id="canvas_background" height="20" width="20" y="-1" x="-1" />
         <g id="flag" stroke-width="1pt" stroke="null">
            <rect id="rect552" fill-rule="evenodd" height="18.15909" width="18.15909" fill="#229e45" stroke="null" />
            <g id="g3551" transform="matrix(0.026531423097082407,0,0,0.026531423097082407,2.3257821578673847,2.2874778280745223) " stroke="null">
               <path id="path554" d="m228.740244,434.508728l307.29,-199.44l-309.15,-199.98l-308.3,200.46l310.16,198.96z" fill-rule="evenodd" fill="#f8e509" stroke="null" />
               <path id="path557" d="m362.635314,234.804338c0,71.68257 -58.20428,129.79308 -130.00162,129.79308c-71.79903,0 -130.00162,-58.1105 -130.00162,-129.79308s58.20428,-129.79308 130.00162,-129.79308c71.79903,0 130.00162,58.1105 130.00162,129.79308z" fill-rule="evenodd" fill="#2b49a3" stroke="null" />
               <polygon id="polygon559" fill-rule="evenodd" points="189.89843821525574,312.5423889160156 185.8821723461151,310.224365234375 181.71020579338074,312.2883605957031 182.64424204826355,307.65228271484375 179.42186045646667,304.2546081542969 184.02969431877136,303.71478271484375 186.19351267814636,299.5566101074219 188.12381052970886,303.857666015625 192.66938853263855,304.68328857421875 189.26020884513855,307.8745422363281 " fill="#ffffef" stroke="null" />
               <polygon id="polygon560" fill-rule="evenodd" points="277.0176246166229,334.6023864746094 273.0013892650604,332.28436279296875 268.8293921947479,334.3483581542969 269.7634437084198,329.7122802734375 266.5410621166229,326.3146057128906 271.1489112377167,325.7747802734375 273.31269907951355,321.6166076660156 275.24299693107605,325.91766357421875 279.7885901927948,326.7432861328125 276.3794105052948,329.9345397949219 " fill="#ffffef" stroke="null" />
               <polygon id="polygon561" fill-rule="evenodd" points="239.46691966056824,299.36273193359375 235.9973304271698,297.3601989746094 232.39323496818542,299.1432800292969 233.2001349925995,295.1382141113281 230.41636729240417,292.2030029296875 234.39700388908386,291.7366638183594 236.26628184318542,288.1444396972656 237.93383860588074,291.860107421875 241.86067271232605,292.5733337402344 238.91555857658386,295.3302307128906 " fill="#ffffef" stroke="null" />
               <polygon id="polygon562" fill-rule="evenodd" points="327.4536292552948,286.6915283203125 324.0470130443573,284.725341796875 320.5083472728729,286.4760437011719 321.3005836009979,282.5436706542969 318.5673682689667,279.6617431640625 322.4757544994354,279.203857421875 324.31111216545105,275.6768493652344 325.9483802318573,279.3250732421875 329.8039710521698,280.0253601074219 326.9122779369354,282.7322082519531 " fill="#ffffef" stroke="null" />
               <polygon id="polygon563" fill-rule="evenodd" points="237.876526594162,260.3124084472656 233.86023020744324,257.9943542480469 229.68823313713074,260.058349609375 230.62226939201355,255.42225646972656 227.39985728263855,252.02456665039062 232.00773692131042,251.4847412109375 234.1715705394745,247.3265380859375 236.10188364982605,251.62765502929688 240.64750742912292,252.4532470703125 237.23831248283386,255.64454650878906 " fill="#ffffef" stroke="null" />
               <polygon id="polygon564" fill-rule="evenodd" points="130.60844492912292,220.04025268554688 126.5921790599823,217.7222137451172 122.42021250724792,219.78622436523438 123.35423350334167,215.150146484375 120.1318519115448,211.75245666503906 124.73970103263855,211.212646484375 126.90350413322449,207.05445861816406 128.833801984787,211.35552978515625 133.37939524650574,212.18115234375 129.97021555900574,215.37242126464844 " fill="#ffffef" stroke="null" />
               <polygon id="polygon565" fill-rule="evenodd" points="143.5084388256073,273.6123962402344 139.49217295646667,271.2943420410156 135.3202064037323,273.3583679199219 136.2542426586151,268.7222900390625 133.03186106681824,265.3245849609375 137.63969492912292,264.7847900390625 139.80351328849792,260.6265869140625 141.73381114006042,264.92767333984375 146.2793891429901,265.7532958984375 142.8702094554901,268.9445495605469 " fill="#ffffef" stroke="null" />
               <polygon id="polygon566" fill-rule="evenodd" points="277.3669898509979,200.3189239501953 273.8192298412323,198.27127075195312 270.1339576244354,200.09451293945312 270.9590308666229,195.9992218017578 268.1125648021698,192.99786376953125 272.1828773021698,192.52102661132812 274.0942542552948,188.84786987304688 275.7993628978729,192.64724731445312 279.8146827220917,193.37655639648438 276.8032081127167,196.19557189941406 " fill="#ffffef" stroke="null" />
               <polygon id="polygon567" fill-rule="evenodd" points="270.0102393627167,235.1720428466797 267.2161109447479,233.55934143066406 264.31367564201355,234.9953155517578 264.9634864330292,231.76988220214844 262.7216651439667,229.40603637695312 265.9273536205292,229.0304718017578 267.4327247142792,226.1375274658203 268.7756202220917,229.1298828125 271.9380042552948,229.70428466796875 269.56623911857605,231.92453002929688 " fill="#ffffef" stroke="null" />
               <polygon id="polygon568" fill-rule="evenodd" points="124.62884593009949,283.3196716308594 121.94746470451355,281.7720642089844 119.16214060783386,283.1500549316406 119.78572154045105,280.05487060546875 117.63436961174011,277.7864685058594 120.71069407463074,277.4260559082031 122.15531992912292,274.6499328613281 123.44404673576355,277.5214538574219 126.47882151603699,278.0726623535156 124.20274424552917,280.2032470703125 " fill="#ffffef" stroke="null" />
               <polygon id="polygon569" fill-rule="evenodd" points="328.1978003978729,295.6601867675781 326.0127418041229,294.50238037109375 323.7429664134979,295.5332946777344 324.2511146068573,293.21771240234375 322.4979712963104,291.5206604003906 325.0048987865448,291.25103759765625 326.1821143627167,289.17413330078125 327.2323157787323,291.3224182128906 329.7053687572479,291.7347717285156 327.8505713939667,293.3287353515625 " fill="#ffffef" stroke="null" />
               <polygon id="polygon570" fill-rule="evenodd" points="124.62884593009949,283.3196716308594 121.94746470451355,281.7720642089844 119.16214060783386,283.1500549316406 119.78572154045105,280.05487060546875 117.63436961174011,277.7864685058594 120.71069407463074,277.4260559082031 122.15531992912292,274.6499328613281 123.44404673576355,277.5214538574219 126.47882151603699,278.0726623535156 124.20274424552917,280.2032470703125 " fill="#ffffef" stroke="null" />
               <polygon id="polygon571" fill-rule="evenodd" points="124.62884593009949,283.3196716308594 121.94746470451355,281.7720642089844 119.16214060783386,283.1500549316406 119.78572154045105,280.05487060546875 117.63436961174011,277.7864685058594 120.71069407463074,277.4260559082031 122.15531992912292,274.6499328613281 123.44404673576355,277.5214538574219 126.47882151603699,278.0726623535156 124.20274424552917,280.2032470703125 " fill="#ffffef" stroke="null" />
               <polygon id="polygon572" fill-rule="evenodd" points="167.31584239006042,283.3096618652344 164.6344611644745,281.7620544433594 161.8491370677948,283.1400451660156 162.472718000412,280.04486083984375 160.32136607170105,277.7764587402344 163.39770579338074,277.41607666015625 164.84233164787292,274.6399230957031 166.1310431957245,277.5114440917969 169.16581797599792,278.0626525878906 166.8897407054901,280.1932678222656 " fill="#ffffef" stroke="null" />
               <polygon id="polygon573" fill-rule="evenodd" points="162.01184153556824,297.5096740722656 159.33047556877136,295.9620666503906 156.5451362133026,297.3400573730469 157.1687171459198,294.2448425292969 155.01736521720886,291.9764709472656 158.09370493888855,291.6160583496094 159.53833079338074,288.83990478515625 160.8270423412323,291.7114562988281 163.86181712150574,292.2626647949219 161.585755109787,294.39324951171875 " fill="#ffffef" stroke="null" />
               <polygon id="polygon574" fill-rule="evenodd" points="250.65000987052917,271.65966796875 247.96862864494324,270.112060546875 245.18327403068542,271.49005126953125 245.80687022209167,268.3948669433594 243.6554877758026,266.12646484375 246.73184275627136,265.76605224609375 248.1764838695526,262.98992919921875 249.4652259349823,265.8614501953125 252.50000071525574,266.41265869140625 250.22392344474792,268.5432434082031 " fill="#ffffef" stroke="null" />
               <polygon id="polygon575" fill-rule="evenodd" points="224.6398627758026,271.649658203125 221.9584662914276,270.10205078125 219.17314219474792,271.48004150390625 219.7967231273651,268.3848571777344 217.64537119865417,266.116455078125 220.7216956615448,265.7560729980469 222.166321516037,262.97991943359375 223.4550483226776,265.8514709472656 226.48982310295105,266.40264892578125 224.21374583244324,268.53326416015625 " fill="#ffffef" stroke="null" />
               <polygon id="polygon576" fill-rule="evenodd" points="154.089905500412,262.5820617675781 152.4096839427948,261.6123046875 150.66433787345886,262.4757995605469 151.05508494377136,260.5362548828125 149.7070014476776,259.1148376464844 151.6347053050995,258.8890075683594 152.5399329662323,257.1494140625 153.347473859787,258.94879150390625 155.24914622306824,259.294189453125 153.8228919506073,260.6292724609375 " fill="#ffffef" stroke="null" />
               <polygon id="polygon577" fill-rule="evenodd" points="324.89204478263855,306.8896484375 322.2106788158417,305.3420715332031 319.4253394603729,306.7200622558594 320.0489356517792,303.6248474121094 317.8975684642792,301.3564453125 320.9738929271698,300.9960632324219 322.41853404045105,298.21990966796875 323.7072608470917,301.0914611816406 326.74202036857605,301.6426696777344 324.4659583568573,303.77325439453125 " fill="#ffffef" stroke="null" />
               <polygon id="polygon578" fill-rule="evenodd" points="303.2328040599823,309.7274169921875 301.01167368888855,308.44219970703125 298.70442271232605,309.5865478515625 299.2209632396698,307.0161437988281 297.4388892650604,305.1323547363281 299.9871680736542,304.83306884765625 301.1838538646698,302.527587890625 302.2513587474823,304.9122619628906 304.7652442455292,305.3700256347656 302.87983775138855,307.1393737792969 " fill="#ffffef" stroke="null" />
               <polygon id="polygon579" fill-rule="evenodd" points="313.4506690502167,309.4803161621094 311.3819434642792,308.2852478027344 309.2330482006073,309.349365234375 309.7141273021698,306.9591979980469 308.0543372631073,305.2074890136719 310.4277503490448,304.92919921875 311.54231333732605,302.785400390625 312.53657603263855,305.0028381347656 314.8779151439667,305.4284973144531 313.12190318107605,307.07379150390625 " fill="#ffffef" stroke="null" />
               <polygon id="polygon580" fill-rule="evenodd" points="342.7918555736542,283.8762512207031 340.7993323802948,282.7262268066406 338.72956919670105,283.7502136230469 339.19294810295105,281.4501953125 337.5942847728729,279.7645568847656 339.8802955150604,279.4967346191406 340.95381236076355,277.4338073730469 341.91145396232605,279.567626953125 344.16658091545105,279.97723388671875 342.4752357006073,281.5604553222656 " fill="#ffffef" stroke="null" />
               <polygon id="polygon581" fill-rule="evenodd" points="302.9758765697479,324.177490234375 300.3737037181854,322.7571105957031 297.6706397533417,324.0218505859375 298.2758033275604,321.1810607910156 296.1880042552948,319.09912109375 299.1734473705292,318.7683410644531 300.5754249095917,316.22039794921875 301.8260657787323,318.85589599609375 304.77119517326355,319.3617858886719 302.5623633861542,321.3172607421875 " fill="#ffffef" stroke="null" />
               <polygon id="polygon582" fill-rule="evenodd" points="303.1226661205292,335.8374938964844 300.7491309642792,334.4171142578125 298.2835547924042,335.68182373046875 298.8355567455292,332.841064453125 296.9311988353729,330.7591247558594 299.6543433666229,330.4283447265625 300.9331214427948,327.8804016113281 302.0738685131073,330.5158996582031 304.7602393627167,331.02178955078125 302.7454688549042,332.9772644042969 " fill="#ffffef" stroke="null" />
               <polygon id="polygon583" fill-rule="evenodd" points="283.45185923576355,309.4762268066406 281.4593360424042,308.32623291015625 279.3895728588104,309.3502197265625 279.8529517650604,307.0501708984375 278.2542884349823,305.36456298828125 280.5402991771698,305.09674072265625 281.6138160228729,303.0338134765625 282.5714576244354,305.1676330566406 284.8265845775604,305.5772399902344 283.1352393627167,307.16046142578125 " fill="#ffffef" stroke="null" />
               <polygon id="polygon584" fill-rule="evenodd" points="265.0118567943573,309.4762268066406 263.0193336009979,308.32623291015625 260.9495704174042,309.3502197265625 261.4129493236542,307.0501708984375 259.81428599357605,305.36456298828125 262.10029673576355,305.09674072265625 263.1738135814667,303.0338134765625 264.1314551830292,305.1676330566406 266.3865821361542,305.5772399902344 264.6952369213104,307.16046142578125 " fill="#ffffef" stroke="null" />
               <polygon id="polygon585" fill-rule="evenodd" points="233.700745344162,282.09625244140625 231.70820689201355,280.94622802734375 229.6383979320526,281.97021484375 230.1018226146698,279.6701965332031 228.5031135082245,277.98455810546875 230.78913950920105,277.71673583984375 231.86265635490417,275.65380859375 232.82031321525574,277.7876281738281 235.0754554271698,278.1972351074219 233.384094953537,279.78045654296875 " fill="#ffffef" stroke="null" />
               <polygon id="polygon586" fill-rule="evenodd" points="237.189759016037,337.9007873535156 235.50206065177917,336.9267272949219 233.74890208244324,337.7940368652344 234.14138865470886,335.84588623046875 232.7872931957245,334.4181213378906 234.7236030101776,334.1912841796875 235.63288950920105,332.4439392089844 236.44401621818542,334.2513122558594 238.35415720939636,334.5982666015625 236.92155528068542,335.9393005371094 " fill="#ffffef" stroke="null" />
               <polygon id="polygon587" fill-rule="evenodd" points="189.89843821525574,247.63934326171875 185.8821723461151,245.32127380371094 181.71020579338074,247.38528442382812 182.64424204826355,242.74917602539062 179.42186045646667,239.35147094726562 184.02969431877136,238.81167602539062 186.19351267814636,234.65345764160156 188.12381052970886,238.95455932617188 192.66938853263855,239.78016662597656 189.26020884513855,242.97146606445312 " fill="#ffffef" stroke="null" />
               <path id="path726" d="m354.070244,281.498728c1.9812,-5.1813 4.537,-12.995 5.8942,-20.167c-69.048,-60.656 -146.02,-91.728 -243.28,-85.335c-3.4867,6.6859 -6.2778,13.683 -8.6308,21.256c115.24,-10.994 199.71,40.026 246.02,84.246l-0.0034,0z" stroke-opacity="0.50314" fill-rule="evenodd" fill="#fff" stroke="null" />
               <path id="path790" d="m323.030244,247.398728l2.4671,1.3471c-0.38704,0.87468 -0.49104,1.6398 -0.31543,2.292c0.18244,0.659 0.63597,1.2324 1.3589,1.722c0.76726,0.52378 1.4527,0.75315 2.0562,0.69153c0.6104,-0.0616 1.0656,-0.31153 1.3606,-0.74801c0.18584,-0.27901 0.26257,-0.57342 0.22847,-0.87981c-0.0273,-0.3064 -0.19608,-0.6727 -0.50468,-1.0955c-0.21313,-0.28585 -0.73316,-0.89008 -1.5584,-1.811c-1.0605,-1.1828 -1.6931,-2.1807 -1.8977,-2.9938c-0.28303,-1.1434 -0.11083,-2.1824 0.52003,-3.1187c0.40749,-0.60252 0.9548,-1.051 1.6436,-1.3437c0.69905,-0.29441 1.4612,-0.36117 2.283,-0.20198c0.82692,0.1609 1.6965,0.54945 2.6001,1.1657c1.48,1.0048 2.3734,2.0866 2.6786,3.2437c0.31201,1.1605 0.12105,2.2971 -0.57459,3.4097l-2.4501,-1.5114c0.30691,-0.67783 0.38193,-1.2632 0.22166,-1.7562c-0.15005,-0.49468 -0.56095,-0.96882 -1.2327,-1.4241c-0.69053,-0.469 -1.3282,-0.69495 -1.9113,-0.67612c-0.3768,0.012 -0.66665,0.17117 -0.87296,0.47757c-0.18926,0.28071 -0.23188,0.6008 -0.13129,0.96026c0.13129,0.45702 0.6803,1.2153 1.6556,2.2766c0.97185,1.0595 1.6351,1.9256 1.988,2.5966c0.36146,0.66928 0.52515,1.3659 0.49105,2.0883c-0.0239,0.72062 -0.28986,1.4549 -0.79283,2.203c-0.45694,0.67954 -1.0724,1.1845 -1.8465,1.5217c-0.77408,0.33721 -1.601,0.41937 -2.4842,0.24306c-0.87808,-0.17972 -1.8295,-0.61792 -2.8525,-1.3146c-1.4902,-1.0099 -2.404,-2.1328 -2.7382,-3.3635c-0.32906,-1.2358 -0.12787,-2.571 0.6104,-4.0002l0.00007,-0.0002z" stroke-opacity="0.50196" fill="#309e3a" stroke="null" />
               <path id="path791" d="m311.330244,239.718728l2.52,1.2444c-0.35124,0.88837 -0.42455,1.6586 -0.22336,2.3022c0.21142,0.65044 0.68371,1.2067 1.4271,1.6672c0.78942,0.49126 1.4816,0.69324 2.0818,0.60765c0.6104,-0.0873 1.0554,-0.35261 1.3299,-0.80107c0.17732,-0.28585 0.2404,-0.58369 0.19437,-0.88837c-0.0392,-0.30639 -0.22336,-0.66585 -0.55072,-1.0766c-0.22335,-0.2773 -0.76384,-0.85756 -1.6283,-1.7459c-1.1066,-1.14 -1.7783,-2.1122 -2.0153,-2.915c-0.32906,-1.1314 -0.19778,-2.1756 0.39215,-3.1375c0.38534,-0.61792 0.91389,-1.0869 1.5891,-1.407c0.68882,-0.3218 1.4476,-0.42107 2.2745,-0.29612c0.83375,0.13009 1.7169,0.4827 2.6445,1.0612c1.5209,0.94314 2.4552,1.989 2.8064,3.1324c0.35805,1.1485 0.21312,2.2902 -0.43478,3.4302l-2.5115,-1.4122c0.27963,-0.6881 0.33248,-1.2752 0.15175,-1.7613c-0.1705,-0.48954 -0.60016,-0.94657 -1.2873,-1.3745c-0.71099,-0.44162 -1.3572,-0.64017 -1.9369,-0.59738c-0.3768,0.0257 -0.65984,0.19856 -0.85421,0.51351c-0.17561,0.28756 -0.20801,0.60594 -0.0921,0.96197c0.14834,0.45189 0.72804,1.1879 1.7442,2.2098c1.0128,1.0185 1.7118,1.8572 2.0903,2.5128c0.38875,0.65387 0.57971,1.3437 0.57459,2.066c0.007,0.72234 -0.23188,1.4652 -0.70246,2.2355c-0.42966,0.69324 -1.0281,1.2256 -1.7851,1.5953c-0.76044,0.36802 -1.5857,0.4827 -2.474,0.34234c-0.88149,-0.14378 -1.8499,-0.54603 -2.9019,-1.1982c-1.5277,-0.9517 -2.4859,-2.0352 -2.8695,-3.2522c-0.38192,-1.2222 -0.23358,-2.5624 0.44672,-4.0191l0.00005,-0.00003z" stroke-opacity="0.50196" fill="#309e3a" stroke="null" />
               <path id="path792" d="m296.850244,235.838728l7.4168,-12.196l9.0076,5.5202l-1.2549,2.0643l-6.5523,-4.0173l-1.647,2.7028l6.0988,3.7383l-1.2498,2.054l-6.0988,-3.7366l-2.017,3.319l6.7859,4.1594l-1.2515,2.0557l-9.2377,-5.664l-0.0001,0.0002z" stroke-opacity="0.50196" fill="#309e3a" stroke="null" />
               <path id="path795" d="m275.760244,218.518728l1.0997,-2.1413l5.5055,2.85l-2.595,5.058c-0.80476,0.24306 -1.8158,0.30126 -3.04,0.17289c-1.2123,-0.1318 -2.3393,-0.46558 -3.381,-1.0048c-1.3231,-0.68468 -2.3342,-1.5559 -3.0332,-2.6206c-0.69565,-1.0698 -1.0281,-2.2474 -0.99232,-3.5381c0.0392,-1.2975 0.36999,-2.5538 0.99573,-3.7726c0.67688,-1.3231 1.5601,-2.3536 2.641,-3.0982c1.0759,-0.74117 2.2915,-1.1109 3.6368,-1.1109c1.0281,-0.003 2.1449,0.31153 3.3538,0.93287c1.572,0.81477 2.6274,1.7802 3.1645,2.8996c0.54901,1.1177 0.64961,2.3245 0.30349,3.6236l-2.7809,-0.83702c0.14151,-0.71548 0.058,-1.3813 -0.25405,-1.9941c-0.30179,-0.61792 -0.82181,-1.116 -1.5567,-1.4977c-1.1185,-0.57855 -2.1875,-0.68296 -3.2156,-0.31153c-1.0196,0.36973 -1.8874,1.253 -2.6036,2.6514c-0.77578,1.508 -1.0247,2.8123 -0.74509,3.9146c0.28304,1.0938 0.96333,1.9222 2.0477,2.4837c0.53366,0.27558 1.1219,0.44847 1.763,0.51693c0.65132,0.0668 1.2447,0.0496 1.7868,-0.0514l0.82693,-1.6124l-2.9275,-1.5131l0.00001,0.00016z" stroke-opacity="0.50196" fill="#309e3a" stroke="null" />
               <path id="path804" d="m183.780244,195.708728l2.0733,-14.135l4.2523,0.6299l1.1441,10.017l3.9352,-9.2688l4.2676,0.6299l-2.0716,14.137l-2.6411,-0.39026l1.6334,-11.128l-4.4279,10.715l-2.7365,-0.40567l-1.156,-11.539l-1.6317,11.126l-2.6411,-0.38856l0,0.00049z" stroke-opacity="0.50196" fill="#309e3a" stroke="null" />
               <path id="path805" d="m169.400244,194.038728l1.3299,-14.229l10.506,0.99278l-0.22165,2.4066l-7.647,-0.72062l-0.29667,3.1546l7.1133,0.66927l-0.22336,2.3981l-7.115,-0.67099l-0.35976,3.8718l7.9129,0.74459l-0.22165,2.3998l-10.777,-1.0168l-0.00001,-0.00013z" stroke-opacity="0.50196" fill="#309e3a" stroke="null" />
               <g id="g812" transform="matrix(1.397,-0.89423,0.89074,1.4025,-199.05,128.1) " stroke-opacity="0.50196" stroke="null">
                  <path id="path810" d="m144.858547,133.030961c0.49,-0.725 1.01,-1.26 1.56,-1.605c0.406,-0.253 0.847,-0.429 1.319,-0.529c0.476,-0.098 0.928,-0.103 1.356,-0.016c0.57,0.112 1.145,0.364 1.724,0.755c1.048,0.71 1.666,1.602 1.853,2.676c0.192,1.078 -0.105,2.196 -0.888,3.354c-0.777,1.148 -1.698,1.837 -2.763,2.064c-1.062,0.225 -2.116,-0.016 -3.16,-0.723c-1.059,-0.716 -1.681,-1.607 -1.87,-2.673c-0.187,-1.07 0.103,-2.171 0.869,-3.303z" fill="#309e3a" stroke="null" />
                  <path id="path811" d="m146.378547,133.980961c-0.545,0.805 -0.773,1.543 -0.683,2.212c0.091,0.666 0.424,1.193 0.997,1.58c0.572,0.387 1.181,0.499 1.824,0.336c0.649,-0.165 1.252,-0.66 1.811,-1.485c0.551,-0.815 0.783,-1.545 0.696,-2.189c-0.085,-0.642 -0.423,-1.163 -1.015,-1.564c-0.592,-0.4 -1.207,-0.519 -1.846,-0.357c-0.636,0.159 -1.231,0.648 -1.784,1.467z" fill="#f7ffff" stroke="null" />
               </g>
               <g id="g815" transform="matrix(1.383,-0.91592,0.91234,1.3884,-199.32,133.77) " stroke-opacity="0.50196" stroke="null">
                  <path id="path808" d="m150.843351,141.818852l4.814,-7.115l3.023,2.046c0.761,0.515 1.269,0.952 1.524,1.314c0.261,0.36 0.384,0.774 0.37,1.241s-0.163,0.91 -0.448,1.331c-0.361,0.534 -0.817,0.869 -1.367,1.006c-0.548,0.134 -1.165,0.035 -1.851,-0.297c0.188,0.391 0.31,0.764 0.363,1.116c0.058,0.354 0.07,0.924 0.039,1.71l-0.07,1.975l-1.718,-1.162l0.009,-2.251c0.006,-0.802 -0.012,-1.321 -0.051,-1.555c-0.038,-0.238 -0.115,-0.434 -0.232,-0.589c-0.115,-0.157 -0.337,-0.348 -0.668,-0.571l-0.29,-0.197l-2.01,2.97l-1.437,-0.972z" fill="#309e3a" stroke="null" />
                  <path id="path809" d="m155.063351,138.688852l1.063,0.719c0.689,0.467 1.139,0.729 1.35,0.787c0.211,0.057 0.413,0.048 0.606,-0.029s0.362,-0.222 0.507,-0.435c0.162,-0.24 0.228,-0.476 0.196,-0.709c-0.025,-0.234 -0.141,-0.45 -0.348,-0.646c-0.106,-0.095 -0.45,-0.34 -1.032,-0.734l-1.121,-0.758l-1.221,1.805z" fill="#fff" stroke="null" />
               </g>
               <g id="g818" transform="matrix(1.4175,-0.86112,0.85776,1.4231,-194.72,119.26) " stroke-opacity="0.50196" stroke="null">
                  <path id="path806" d="m161.988521,139.949947l2.626,1.776c0.592,0.401 1.012,0.751 1.261,1.052c0.334,0.405 0.544,0.866 0.629,1.381c0.086,0.515 0.052,1.053 -0.101,1.615c-0.152,0.558 -0.452,1.17 -0.903,1.836c-0.396,0.586 -0.811,1.041 -1.243,1.367c-0.529,0.397 -1.065,0.644 -1.613,0.741c-0.412,0.075 -0.877,0.036 -1.393,-0.115c-0.385,-0.114 -0.843,-0.351 -1.374,-0.71l-2.702,-1.828l4.813,-7.115z" fill="#309e3a" stroke="null" />
                  <path id="path807" d="m162.618521,142.119947l-3.188,4.713l1.073,0.725c0.4,0.272 0.706,0.445 0.914,0.52c0.272,0.099 0.532,0.131 0.778,0.095c0.25,-0.034 0.53,-0.177 0.841,-0.429c0.314,-0.254 0.657,-0.656 1.029,-1.206s0.609,-1.006 0.712,-1.366c0.102,-0.36 0.121,-0.681 0.058,-0.965c-0.063,-0.283 -0.209,-0.544 -0.438,-0.784c-0.17,-0.181 -0.548,-0.47 -1.134,-0.866l-0.645,-0.437z" fill="#fff" stroke="null" />
               </g>
               <g id="g824" transform="matrix(1.5511,-0.58458,0.58229,1.5572,-164.55,46.058) " stroke-opacity="0.50196" stroke="null">
                  <path id="path800" d="m186.593951,171.760757l4.813,-7.115l2.306,1.56c0.873,0.591 1.419,1.012 1.636,1.263c0.335,0.382 0.519,0.846 0.551,1.391c0.034,0.542 -0.141,1.096 -0.524,1.662c-0.295,0.437 -0.622,0.751 -0.983,0.941c-0.359,0.191 -0.72,0.288 -1.082,0.294c-0.357,0.004 -0.68,-0.052 -0.97,-0.168c-0.388,-0.164 -0.908,-0.466 -1.558,-0.906l-0.936,-0.634l-1.816,2.684l-1.437,-0.972z" fill="#309e3a" stroke="null" />
                  <path id="path801" d="m192.033951,166.820757l-1.366,2.019l0.786,0.532c0.567,0.383 0.97,0.602 1.211,0.656c0.242,0.055 0.469,0.039 0.683,-0.047c0.217,-0.084 0.397,-0.231 0.539,-0.442c0.175,-0.259 0.244,-0.523 0.206,-0.794c-0.039,-0.272 -0.16,-0.507 -0.364,-0.706c-0.15,-0.149 -0.483,-0.398 -1.001,-0.748l-0.694,-0.47z" fill="#fff" stroke="null" />
               </g>
               <g id="g827" transform="matrix(1.6028,-0.42116,0.41952,1.6091,-143.19,2.8883) " stroke-opacity="0.50196" stroke="null">
                  <path id="path798" d="m191.360477,177.808633l4.813,-7.114l3.024,2.046c0.761,0.514 1.269,0.952 1.524,1.313c0.261,0.361 0.384,0.774 0.37,1.241s-0.163,0.911 -0.448,1.331c-0.361,0.534 -0.817,0.869 -1.367,1.006c-0.548,0.134 -1.165,0.035 -1.851,-0.296c0.188,0.391 0.31,0.763 0.363,1.115c0.058,0.355 0.07,0.925 0.039,1.71l-0.07,1.976l-1.718,-1.162l0.009,-2.251c0.005,-0.803 -0.012,-1.321 -0.051,-1.556c-0.038,-0.237 -0.115,-0.433 -0.232,-0.588c-0.115,-0.158 -0.337,-0.348 -0.668,-0.572l-0.29,-0.197l-2.01,2.971l-1.437,-0.973z" fill="#309e3a" stroke="null" />
                  <path id="path799" d="m195.570477,174.678633l1.063,0.719c0.689,0.466 1.138,0.728 1.349,0.785c0.211,0.058 0.413,0.049 0.607,-0.028c0.193,-0.076 0.362,-0.222 0.506,-0.435c0.162,-0.24 0.228,-0.476 0.197,-0.709c-0.025,-0.234 -0.142,-0.449 -0.348,-0.646c-0.106,-0.095 -0.45,-0.339 -1.032,-0.733l-1.121,-0.759l-1.221,1.806z" fill="#fff" stroke="null" />
               </g>
               <g id="g830" transform="matrix(1.5864,-0.47997,0.47809,1.5926,-149.72,20.414) " stroke-opacity="0.50196" stroke="null">
                  <path id="path796" d="m201.25977,178.372416c0.491,-0.725 1.011,-1.26 1.559,-1.605c0.408,-0.253 0.847,-0.43 1.321,-0.529c0.476,-0.098 0.928,-0.103 1.355,-0.017c0.571,0.112 1.145,0.364 1.724,0.756c1.049,0.709 1.666,1.601 1.854,2.676c0.191,1.077 -0.105,2.195 -0.889,3.353c-0.777,1.149 -1.698,1.837 -2.762,2.065c-1.062,0.225 -2.116,-0.017 -3.161,-0.724c-1.058,-0.715 -1.681,-1.606 -1.87,-2.672c-0.187,-1.07 0.103,-2.171 0.869,-3.303z" fill="#309e3a" stroke="null" />
                  <path id="path797" d="m202.77977,179.332416c-0.545,0.805 -0.773,1.542 -0.683,2.212c0.092,0.665 0.424,1.192 0.997,1.58c0.573,0.387 1.18,0.499 1.824,0.335c0.649,-0.164 1.253,-0.659 1.811,-1.484c0.552,-0.816 0.784,-1.545 0.696,-2.19c-0.084,-0.641 -0.423,-1.163 -1.015,-1.563c-0.592,-0.401 -1.207,-0.52 -1.845,-0.357c-0.636,0.159 -1.231,0.648 -1.785,1.467z" fill="#fff" stroke="null" />
               </g>
               <g id="g833" transform="matrix(1.6454,-0.19485,0.19409,1.6519,-103.71,-53.916) " stroke-opacity="0.50196" stroke="null">
                  <path id="path793" d="m211.754615,195.509849l4.813,-7.115l3.024,2.046c0.76,0.515 1.268,0.952 1.524,1.314c0.26,0.36 0.384,0.774 0.37,1.241s-0.164,0.91 -0.448,1.331c-0.361,0.534 -0.817,0.869 -1.368,1.006c-0.548,0.134 -1.164,0.035 -1.85,-0.297c0.188,0.391 0.309,0.764 0.363,1.116c0.057,0.355 0.07,0.924 0.039,1.71l-0.071,1.975l-1.717,-1.162l0.008,-2.25c0.005,-0.804 -0.011,-1.322 -0.051,-1.556c-0.037,-0.237 -0.115,-0.434 -0.232,-0.589c-0.114,-0.157 -0.337,-0.348 -0.667,-0.571l-0.291,-0.197l-2.009,2.97l-1.437,-0.972z" fill="#309e3a" stroke="null" />
                  <path id="path794" d="m215.964615,192.369849l1.063,0.719c0.689,0.467 1.139,0.728 1.35,0.786c0.21,0.058 0.413,0.048 0.607,-0.028c0.193,-0.077 0.361,-0.222 0.506,-0.436c0.162,-0.239 0.227,-0.475 0.197,-0.708c-0.026,-0.234 -0.142,-0.45 -0.348,-0.646c-0.106,-0.095 -0.45,-0.34 -1.033,-0.734l-1.12,-0.758l-1.222,1.805z" fill="#fff" stroke="null" />
               </g>
               <g id="g836" transform="matrix(1.6568,0,0,1.6633,-60.955,-99.344) " stroke-opacity="0.50196" stroke="null">
                  <path id="path788" d="m239.264304,212.353489c0.49,-0.725 1.01,-1.26 1.56,-1.605c0.407,-0.253 0.847,-0.429 1.32,-0.529c0.477,-0.097 0.928,-0.103 1.355,-0.017c0.571,0.113 1.146,0.365 1.725,0.757c1.048,0.709 1.666,1.601 1.854,2.676c0.191,1.077 -0.106,2.194 -0.89,3.353c-0.777,1.148 -1.697,1.837 -2.761,2.065c-1.063,0.224 -2.116,-0.017 -3.162,-0.724c-1.057,-0.716 -1.681,-1.607 -1.87,-2.673c-0.187,-1.07 0.103,-2.171 0.869,-3.303z" fill="#309e3a" stroke="null" />
                  <path id="path789" d="m240.784304,213.303489c-0.545,0.806 -0.773,1.543 -0.684,2.212c0.093,0.666 0.425,1.192 0.997,1.58c0.573,0.387 1.181,0.499 1.825,0.336c0.649,-0.165 1.253,-0.659 1.811,-1.485c0.551,-0.815 0.783,-1.545 0.695,-2.189c-0.085,-0.642 -0.423,-1.163 -1.015,-1.564s-1.207,-0.52 -1.845,-0.357c-0.636,0.159 -1.23,0.649 -1.784,1.467z" fill="#fff" stroke="null" />
               </g>
               <path id="path872" d="m208.780244,198.638728l2.2915,-10.031l7.4083,1.7083l-0.38534,1.6946l-5.3895,-1.241l-0.51321,2.2235l5.0195,1.1571l-0.38874,1.6877l-5.0127,-1.1537l-0.62574,2.7284l5.5805,1.2855l-0.38533,1.6912l-7.5992,-1.7511l-0.00004,0.0005z" stroke-opacity="0.50196" fill="#309e3a" stroke="null" />
            </g>
         </g>
      </g>
   </g>
</svg>

