<?xml version="1.0" ?><svg id="South_x5F_Korea" style="enable-background:new 0 0 300 300;" version="1.1" viewBox="0 0 300 300" xml:space="preserve" xmlns="http://www.w3.org/2000/svg" xmlns:xlink="http://www.w3.org/1999/xlink"><g><polygon points="   273.822,128 273.924,128 273.842,80 34.076,80 34.191,128 34.089,128 34.211,180 34.111,180 34.225,228 273.89,228 273.81,181    273.911,181  " style="fill:#FFFFFF;stroke:#000000;stroke-width:8;stroke-linecap:round;stroke-linejoin:round;stroke-miterlimit:10;"/><path d="   M168.491,148.092c0,0-9.015-0.82-13.113,5.737c-4.098,6.557-9.015,9.015-9.015,9.015c-22.584,5.915-26.823-9.337-27.067-20.528   c-1.831,4.433-2.847,9.287-2.847,14.381c0,20.821,16.879,37.7,37.7,37.7c14.16,0,26.49-7.811,32.934-19.355   C191.204,147.388,168.491,148.092,168.491,148.092z" style="fill:#26BBEC;stroke:#000000;stroke-width:8;stroke-linecap:round;stroke-linejoin:round;stroke-miterlimit:10;"/><path d="   M154.149,118.997c-15.727,0-29.2,9.634-34.853,23.319c0.245,11.191,4.484,26.443,27.067,20.528c0,0,4.917-2.459,9.015-9.015   c4.098-6.557,13.113-5.737,13.113-5.737s22.713-0.704,18.592,26.95c3.031-5.431,4.766-11.684,4.766-18.345   C191.849,135.876,174.97,118.997,154.149,118.997z" style="fill:#EE5281;stroke:#000000;stroke-width:8;stroke-linecap:round;stroke-linejoin:round;stroke-miterlimit:10;"/><line style="fill:none;stroke:#000000;stroke-width:8;stroke-linecap:round;stroke-linejoin:round;stroke-miterlimit:10;" x1="92.801" x2="109.268" y1="133.437" y2="108.617"/><line style="fill:none;stroke:#000000;stroke-width:8;stroke-linecap:round;stroke-linejoin:round;stroke-miterlimit:10;" x1="79.691" x2="96.158" y1="126.304" y2="101.483"/><line style="fill:none;stroke:#000000;stroke-width:8;stroke-linecap:round;stroke-linejoin:round;stroke-miterlimit:10;" x1="212.801" x2="229.268" y1="209.437" y2="184.617"/><line style="fill:none;stroke:#000000;stroke-width:8;stroke-linecap:round;stroke-linejoin:round;stroke-miterlimit:10;" x1="199.691" x2="216.158" y1="202.304" y2="177.483"/><line style="fill:none;stroke:#000000;stroke-width:8;stroke-linecap:round;stroke-linejoin:round;stroke-miterlimit:10;" x1="92.801" x2="109.268" y1="177.483" y2="202.304"/><line style="fill:none;stroke:#000000;stroke-width:8;stroke-linecap:round;stroke-linejoin:round;stroke-miterlimit:10;" x1="79.691" x2="96.158" y1="184.617" y2="209.437"/><line style="fill:none;stroke:#000000;stroke-width:8;stroke-linecap:round;stroke-linejoin:round;stroke-miterlimit:10;" x1="212.801" x2="229.268" y1="101.483" y2="126.304"/><line style="fill:none;stroke:#000000;stroke-width:8;stroke-linecap:round;stroke-linejoin:round;stroke-miterlimit:10;" x1="199.691" x2="216.158" y1="108.617" y2="133.437"/></g><g/><g/><g/><g/><g/><g/><g/><g/><g/><g/><g/><g/><g/><g/><g/></svg>