<?xml version="1.0" encoding="UTF-8"?>
<svg width="24px" height="24px" viewBox="0 0 24 24" version="1.1" xmlns="http://www.w3.org/2000/svg" xmlns:xlink="http://www.w3.org/1999/xlink">
    <title>Icon / Visibility / closed</title>
    <g id="Icon-/-Visibility-/-closed" stroke="none" stroke-width="1" fill="none" fill-rule="evenodd">
        <g id="eye-closed">
            <rect id="shape" x="0" y="0" width="24" height="24"></rect>
            <path d="M6.57092033,6.49255316 L7.72303688,7.56835807 C6.7306311,8.08103143 5.78836206,8.76602386 4.89847738,9.5965829 C4.27472107,10.1787555 3.71583122,10.7978356 3.22647123,11.4221008 L2.88130642,11.8787172 L2.794,12 L2.94123612,12.2029716 C3.49486994,12.9530561 4.14996981,13.70481 4.89847738,14.4034171 C6.98683579,16.3525516 9.36369316,17.5 12,17.5 C13.7380182,17.5 15.3632727,17.0012879 16.8674397,16.1029362 L18.0019959,17.1602513 C16.3653062,18.2097303 14.3519966,19 12,19 C7.8245614,19 4.71652816,16.5093875 2.88813292,14.4994195 L2.57880157,14.1503135 L2.2962963,13.8148148 L2.04087628,13.4965522 L1.8128007,13.1991544 L1.52252515,12.8001166 L1.36394464,12.5707559 L1.09166113,12.1521386 L1,12 L1.13179764,11.7836419 L1.36394464,11.4292441 L1.52252515,11.1998834 L1.8128007,10.8008456 L2.04087628,10.5034478 L2.2962963,10.1851852 L2.57880157,9.84968654 L2.88813292,9.50058048 C3.80372565,8.49406283 5.04020503,7.36701703 6.57092033,6.49255316 Z M12,5 C16.1754386,5 19.2834718,7.4906125 21.1118671,9.50058048 L21.4211984,9.84968654 L21.7037037,10.1851852 L21.9591237,10.5034478 L22.1871993,10.8008456 L22.4774749,11.1998834 L22.6360554,11.4292441 L22.9083389,11.8478614 L23,12 L22.8682024,12.2163581 L22.6360554,12.5707559 L22.4774749,12.8001166 L22.1871993,13.1991544 L21.9591237,13.4965522 L21.7037037,13.8148148 L21.4211984,14.1503135 L21.1118671,14.4994195 C20.5909076,15.0721141 19.9660625,15.683829 19.2422412,16.2658351 L18.1329568,15.232616 C18.4623617,14.9754043 18.7852506,14.6986043 19.1015226,14.4034171 C19.7252789,13.8212445 20.2841688,13.2021644 20.7735288,12.5778992 L21.1186936,12.1212828 L21.205,12 L21.0587639,11.7970284 C20.5051301,11.0469439 19.8500302,10.29519 19.1015226,9.5965829 C17.0131642,7.64744838 14.6363068,6.5 12,6.5 C11.0462054,6.5 10.1263711,6.65019343 9.24187266,6.93420631 L8.0156639,5.78851434 C9.20683525,5.30535572 10.5379843,5 12,5 Z M9.67578055,9.38962812 L10.7790439,10.4212815 C10.3052036,10.7918284 10,11.3729611 10,12.0263158 C10,13.1454191 10.8954305,14.0526316 12,14.0526316 C12.7041425,14.0526316 13.3232945,13.6839563 13.6796646,13.1267367 L14.7869526,14.1597241 C14.1483898,15.0054951 13.1389667,15.5526316 12,15.5526316 C10.0625825,15.5526316 8.5,13.9694888 8.5,12.0263158 C8.5,10.9790027 8.95391349,10.0362745 9.67578055,9.38962812 Z M12,8.5 C13.9374175,8.5 15.5,10.0831428 15.5,12.0263158 C15.5,12.2607638 15.4772536,12.4899709 15.4338468,12.7117889 L13.8347914,11.2185986 C13.6113301,10.6982645 13.178554,10.2914877 12.6441796,10.107402 L11.0579218,8.62908618 C11.3575055,8.54498133 11.6734277,8.5 12,8.5 Z" id="Combined-Shape" fill="#6B7384" fill-rule="nonzero"></path>
            <line x1="19" y1="19" x2="4" y2="5" id="Path-2" stroke="#6B7384" stroke-width="1.5"></line>
        </g>
    </g>
</svg>