<?xml version="1.0" encoding="UTF-8"?>
<svg width="30px" height="30px" viewBox="0 0 30 30" version="1.1" xmlns="http://www.w3.org/2000/svg" xmlns:xlink="http://www.w3.org/1999/xlink">
    <!-- Generator: Sketch 52.6 (67491) - http://www.bohemiancoding.com/sketch -->
    <title>icon/add-memo.inline</title>
    <desc>Created with Sketch.</desc>
    <g id="icon/add-memo.inline" stroke="none" stroke-width="1" fill="none" fill-rule="evenodd">
        <rect id="bg" x="0" y="0" width="30" height="30"></rect>
        <path d="M26.9021531,17.4136844 C27.4537815,17.4136844 27.8957902,17.8757844 27.8957902,18.4399259 L27.89579,25.0988318 C27.8933864,27.3183809 26.1683227,29.1218566 24.0329611,29.1243839 L3.90598029,29.1243837 C1.7709458,29.1218566 0.0458820991,27.3183809 0.0434782609,25.0985325 L0.0434784229,5.55624367 C0.0458820991,3.33669452 1.7709458,1.53321886 3.90630738,1.53069154 L10.2751291,1.53069154 C10.8266782,1.53069154 11.2687662,1.99299915 11.2687662,2.55693307 C11.2687662,3.12107456 10.8267575,3.58317459 10.2751291,3.58317459 L3.90664806,3.58317438 C2.87389532,3.58444759 2.03198442,4.46470635 2.0307524,5.55654293 L2.03075223,25.0979279 C2.03198444,26.1903573 2.87387002,27.0705895 3.90630738,27.071608 L24.0326885,27.0716081 C25.0653984,27.0705895 25.907284,26.1903573 25.9085161,25.0982396 L25.9085161,18.4399259 C25.9085161,17.8757844 26.3505248,17.4136844 26.9021531,17.4136844 Z M27.9899465,1.08726333 L28.9579066,2.05522337 C30.4053355,3.50587458 30.4053355,5.85424102 28.9579066,7.30489215 L14.2416273,22.0218159 C14.1407712,22.122672 14.0157484,22.1954945 13.8784811,22.233517 L6.89170428,24.1691148 C6.60524742,24.2483818 6.29849044,24.1675037 6.08807837,23.9574138 C5.87798843,23.7470017 5.79711034,23.4402448 5.87669961,23.1537879 L7.81197521,16.167011 C7.84999757,16.0297438 7.92282017,15.9047209 8.02367617,15.8038649 L22.7402777,1.08726333 C24.1899623,-0.362421109 26.5402621,-0.362421109 27.9899465,1.08726333 Z M9.8210401,16.3400452 L13.7051247,20.2244521 L25.7498472,8.17972956 L21.8654403,4.29532265 L9.8210401,16.3400452 Z M9.04512539,17.8970301 L7.85579764,22.1900167 L12.148462,21.000689 L9.04512539,17.8970301 Z M27.7914567,6.1384423 C28.5954049,5.33256081 28.5954049,4.027877 27.7914567,3.22167322 L26.8231745,2.25371318 C26.0179374,1.44847609 24.7122869,1.44847609 23.9070498,2.25371318 L23.0318903,3.12855059 L26.9166194,7.01327971 L27.7914567,6.1384423 Z" id="Combined-Shape" fill="#353535" fill-rule="nonzero"></path>
    </g>
</svg>