<?xml version="1.0" encoding="UTF-8"?>
<svg width="24px" height="24px" viewBox="0 0 24 24" version="1.1" xmlns="http://www.w3.org/2000/svg" xmlns:xlink="http://www.w3.org/1999/xlink">
    <!-- Generator: Sketch 60 (88103) - https://sketch.com -->
    <title>icon/label</title>
    <desc>Created with Sketch.</desc>
    <g id="icon/label" stroke="none" stroke-width="1" fill="none" fill-rule="evenodd">
        <g id="Group-Copy" transform="translate(1.000000, 5.000000)" fill="#464749" fill-rule="nonzero">
            <path d="M15.4689345,-2.60827859e-07 C15.6273195,-0.000881990306 15.7792209,0.061276046 15.8912945,0.169376979 L15.8912945,0.169376979 L21.3588186,5.4798353 C22.2137271,6.3104108 22.2137271,7.6625733 21.3588186,8.49495048 L21.3588186,8.49495048 L15.8903683,13.8153181 C15.7792209,13.9243198 15.6273195,13.9864779 15.4680083,13.9864779 L15.4680083,13.9864779 L2.193308,13.9999997 C1.60885811,13.9999997 1.05867865,13.7774827 0.642802261,13.3748068 C0.228778326,12.9721308 0,12.4370312 0,11.8695013 L0,11.8695013 L0.000926228042,2.14672321 C0.000926228042,0.972026405 0.984580408,0.0144323085 2.19423423,0.0126306263 L2.19423423,0.0126306263 Z M15.2216316,1.16120304 L2.19423423,1.17291397 C1.64312855,1.17381481 1.19483417,1.61072275 1.19483417,2.14582237 L1.19483417,2.14582237 L1.19390795,11.8676996 C1.19390795,12.1253401 1.29764549,12.3694681 1.48752223,12.5532397 C1.67739898,12.7379121 1.92840678,12.8388063 2.193308,12.8379173 L2.193308,12.8379173 L15.2207054,12.8261945 L20.5150249,7.67518508 C20.9040407,7.29593097 20.9040407,6.6806565 20.5150249,6.30140239 L20.5150249,6.30140239 L15.2216316,1.16120304 Z M7.99946186,2.85 C8.29681056,2.85 8.5430954,3.06654997 8.58937888,3.35071241 L8.59719494,3.44773308 L8.597,6.402 L11.5490381,6.40549576 C11.8463868,6.40549576 12.0926716,6.62204573 12.1389551,6.90620817 L12.1467712,7.00322884 L12.1388711,7.09858989 C12.097317,7.3474591 11.8964972,7.5482789 11.647628,7.58983307 L11.5522669,7.59773308 L8.597,7.597 L8.59719494,10.5528051 C8.59719494,10.8501115 8.38068321,11.0959943 8.096494,11.1421977 L7.99946186,11.15 C7.70207068,11.15 7.45581983,10.9338479 7.40954357,10.6497993 L7.40172878,10.5528051 L7.401,7.597 L4.44719494,7.59773308 C4.14988847,7.59773308 3.90400575,7.38122135 3.85780226,7.09703214 L3.85,7 C3.85,6.70260882 4.06615208,6.45635797 4.35020074,6.41008171 L4.44719494,6.40226692 L7.401,6.402 L7.40172878,3.44773308 C7.40172878,3.15038438 7.61827874,2.90409955 7.90244118,2.85781607 L7.99946186,2.85 Z" id="Combined-Shape"></path>
        </g>
    </g>
</svg>