<svg width="226" height="180" viewBox="0 0 226 180" fill="none" xmlns="http://www.w3.org/2000/svg">
<g opacity="0.2">
<path d="M79.2749 175.522L219.875 99.1218" stroke="#1D45BA" stroke-width="0.5"/>
<path d="M25.8462 137.456L157.004 66.187" stroke="#1D45BA" stroke-width="0.5"/>
<path d="M71.1182 57.0535L219.23 137.433" stroke="#1D45BA" stroke-width="0.5"/>
<path d="M6.92847 109.406L131.085 176.786" stroke="#1D45BA" stroke-width="0.5"/>
</g>
<g clip-path="url(#clip0_7782_221247)">
<path d="M114.14 86.7835V12.6695C114.14 8.53813 117.037 6.84928 120.618 8.92894L167.594 36.104C171.174 38.1697 174.072 43.2084 174.072 47.3398V121.454C174.072 125.585 171.174 127.274 167.594 125.194L120.618 98.0192C117.037 95.9535 114.14 90.9149 114.14 86.7835Z" fill="url(#paint0_linear_7782_221247)"/>
<path d="M112.83 87.5371V13.4232C112.83 9.29179 115.728 7.60294 119.308 9.6826L166.284 36.8577C169.864 38.9234 172.762 43.962 172.762 48.0934V122.207C172.762 126.339 169.864 128.028 166.284 125.948L119.308 98.7729C115.728 96.7072 112.83 91.6685 112.83 87.5371Z" fill="url(#paint1_linear_7782_221247)"/>
<path d="M165.504 51.2061C165.309 51.2061 165.114 51.1502 164.933 51.0525L136.861 34.82C136.318 34.499 136.137 33.8151 136.443 33.2708C136.75 32.7264 137.446 32.545 137.99 32.852L166.061 49.0845C166.604 49.4055 166.785 50.0895 166.479 50.6338C166.27 50.9967 165.894 51.2061 165.49 51.2061H165.504Z" fill="#52FCFF"/>
<path d="M165.504 56.8447C165.309 56.8447 165.114 56.7889 164.933 56.6912L136.861 40.4587C136.318 40.1377 136.137 39.4538 136.443 38.9094C136.75 38.3651 137.446 38.1836 137.99 38.4907L166.061 54.7232C166.604 55.0442 166.785 55.7281 166.479 56.2725C166.27 56.6354 165.894 56.8447 165.49 56.8447H165.504Z" fill="#52FCFF"/>
<path d="M147.853 106.115C147.658 106.115 147.463 106.059 147.282 105.961L119.211 89.7285C118.667 89.4075 118.486 88.7235 118.793 88.1792C119.099 87.6349 119.796 87.4534 120.339 87.7605L148.41 103.993C148.954 104.314 149.135 104.998 148.828 105.542C148.619 105.905 148.243 106.115 147.839 106.115H147.853Z" fill="#52FCFF"/>
<path d="M160.851 103.518L124.741 82.6242C121.245 80.6004 118.403 75.6734 118.403 71.6118V42.2454C118.403 38.1977 121.245 36.5507 124.741 38.5745L160.851 59.4688C164.348 61.4926 167.19 66.4196 167.19 70.4812V99.8616C167.19 103.909 164.348 105.556 160.851 103.532V103.518Z" fill="url(#paint2_linear_7782_221247)"/>
<path d="M126.441 80.1956C126.301 80.1956 126.148 80.1537 126.023 80.07C125.675 79.8327 125.577 79.3721 125.814 79.0232L132.584 68.7924C132.71 68.6109 132.905 68.4853 133.128 68.4574C133.351 68.4295 133.574 68.4993 133.741 68.6668L141.723 76.2736L158.677 62.0789C158.998 61.8137 159.472 61.8556 159.75 62.1766C160.015 62.4976 159.973 62.9721 159.653 63.2513L142.183 77.8787C141.89 78.1299 141.459 78.1159 141.18 77.8508L133.365 70.4115L127.096 79.8885C126.956 80.1119 126.705 80.2235 126.469 80.2235L126.441 80.1956Z" fill="white"/>
<path d="M100.097 60.2923C100.097 61.7299 99.1496 63.1814 97.241 64.2841C93.4239 66.4894 87.2524 66.4894 83.4352 64.2841C81.5267 63.1814 80.5793 61.7299 80.5793 60.2923C80.5793 58.8546 81.5267 57.4031 83.4352 56.3004C87.2524 54.0952 93.4239 54.0952 97.241 56.3004C99.1496 57.4031 100.097 58.8407 100.097 60.2923Z" fill="url(#paint3_linear_7782_221247)"/>
<path d="M100.097 60.2922V106.435C100.097 107.887 99.1496 109.325 97.241 110.427C93.4239 112.633 87.2524 112.633 83.4352 110.427C81.5267 109.325 80.5793 107.887 80.5793 106.435V60.2922C80.5793 61.7299 81.5267 63.1814 83.4352 64.2841C87.2524 66.4893 93.4239 66.4893 97.241 64.2841C99.1496 63.1814 100.097 61.7299 100.097 60.2922Z" fill="url(#paint4_linear_7782_221247)"/>
<path d="M82.0005 74.2498C82.0005 75.6874 81.0532 77.139 79.1446 78.2416C75.3274 80.4469 69.1559 80.4469 65.3388 78.2416C63.4302 77.139 62.4829 75.6874 62.4829 74.2498C62.4829 72.8122 63.4302 71.3606 65.3388 70.258C69.1559 68.0527 75.3274 68.0527 79.1446 70.258C81.0532 71.3606 82.0005 72.7982 82.0005 74.2498Z" fill="url(#paint5_linear_7782_221247)"/>
<path d="M82.0005 74.2498V116.904C82.0005 118.355 81.0532 119.793 79.1446 120.895C75.3274 123.101 69.1559 123.101 65.3388 120.895C63.4302 119.793 62.4829 118.355 62.4829 116.904V74.2498C62.4829 75.6874 63.4302 77.1389 65.3388 78.2416C69.1559 80.4469 75.3274 80.4469 79.1446 78.2416C81.0532 77.1389 82.0005 75.6874 82.0005 74.2498Z" fill="url(#paint6_linear_7782_221247)"/>
<path d="M63.9177 98.6751C63.9177 100.113 62.9704 101.564 61.0618 102.667C57.2447 104.872 51.0732 104.872 47.256 102.667C45.3475 101.564 44.4001 100.113 44.4001 98.6751C44.4001 97.2375 45.3475 95.7859 47.256 94.6833C51.0732 92.478 57.2447 92.478 61.0618 94.6833C62.9704 95.7859 63.9177 97.2235 63.9177 98.6751Z" fill="url(#paint7_linear_7782_221247)"/>
<path d="M63.9177 98.675V127.372C63.9177 128.823 62.9704 130.261 61.0618 131.363C57.2447 133.569 51.0732 133.569 47.256 131.363C45.3475 130.261 44.4001 128.823 44.4001 127.372V98.675C44.4001 100.113 45.3475 101.564 47.256 102.667C51.0732 104.872 57.2447 104.872 61.0618 102.667C62.9704 101.564 63.9177 100.113 63.9177 98.675Z" fill="url(#paint8_linear_7782_221247)"/>
<path d="M91.3203 54.179V55.9236L72.6107 67.6758L72.4993 67.8154L58.2199 85.7088L58.0387 85.8065L39.2456 96.6793V94.9346L56.5481 84.9411L58.0387 84.0618L58.2199 83.9641L71.552 67.2571L72.4993 66.0707L72.6107 65.9311L89.8854 55.0862L91.3203 54.179Z" fill="url(#paint9_linear_7782_221247)"/>
<path d="M102.284 44.269V46.0137C102.284 46.0975 102.256 46.1673 102.214 46.251L95.8479 59.9991C95.43 60.9203 93.4379 61.2273 92.2816 60.5434L74.8815 50.4801C74.4497 50.2289 74.2546 49.9218 74.2546 49.6147V47.8701C74.2546 48.1771 74.4497 48.4842 74.8815 48.7354L92.2816 58.7987C93.4379 59.4687 95.43 59.1616 95.8479 58.2544L101.894 45.2042L102.214 44.5063C102.256 44.4226 102.27 44.3388 102.284 44.269Z" fill="url(#paint10_linear_7782_221247)"/>
<path opacity="0.7" d="M102.284 44.1574V44.283C102.284 44.3667 102.256 44.4365 102.214 44.5203L101.894 45.2181L95.8479 58.2683C95.43 59.1895 93.4379 59.4966 92.2816 58.8127L74.8815 48.7494C74.4636 48.4981 74.2546 48.1911 74.2546 47.884C74.2546 47.3536 74.8397 46.8511 75.8289 46.6837L99.6094 42.9989C100.975 42.7895 102.242 43.3757 102.298 44.1434L102.284 44.1574Z" fill="#52FCFF"/>
<path opacity="0.7" d="M91.3204 54.1789L89.8855 55.0862L72.6108 65.9311L72.4994 66.0707L64.8651 61.6182L63.4302 60.7808L82.3069 48.917L91.3204 54.1789Z" fill="#52FCFF"/>
<path opacity="0.7" d="M72.4994 66.0706L71.5521 67.257L58.22 83.964L58.0389 84.0617L49.9866 79.3721L49.0254 78.8138L63.4302 60.7808L64.8651 61.6182L72.4994 66.0706Z" fill="#52FCFF"/>
<path opacity="0.7" d="M58.0388 84.0617L56.5481 84.941L39.2456 94.9345L31.7367 90.5659L30.2322 89.6866L49.0253 78.8137L49.9866 79.372L58.0388 84.0617Z" fill="#52FCFF"/>
<path d="M39.2456 94.9345V96.6792L30.2322 91.4312V89.6865L31.7367 90.5658L39.2456 94.9345Z" fill="url(#paint11_linear_7782_221247)"/>
<path d="M155.641 119.36V128.614C155.641 129.549 155.543 130.484 155.348 131.405V122.152C155.543 121.216 155.641 120.281 155.641 119.36Z" fill="#171A42"/>
<path d="M116.856 119.374H116.814H116.801L116.814 119.36V119.374H116.856Z" fill="#2E3192"/>
<path d="M155.641 115.48C155.641 116.415 155.543 117.35 155.348 118.272L116.828 115.48L116.146 93.0365C126.302 92.9249 136.527 95.1162 144.273 99.6105C151.851 103.993 155.641 109.744 155.641 115.48Z" fill="url(#paint12_linear_7782_221247)"/>
<path d="M155.334 118.271V128.53L152.395 128.377L118.221 126.548L116.814 126.464V115.48L155.334 118.271Z" fill="url(#paint13_linear_7782_221247)"/>
<path d="M116.146 93.0225L116.132 124.594L116.814 126.464V115.48L116.146 93.0225Z" fill="#171A42"/>
<path d="M155.641 115.48V119.374C155.641 120.309 155.543 121.244 155.348 122.166V118.271C155.543 117.336 155.641 116.401 155.641 115.48Z" fill="#171A42"/>
<path d="M155.334 122.166V131.419C154.303 136.207 150.612 140.827 144.273 144.497C137.823 148.238 129.659 150.373 121.231 150.932V141.678C129.645 141.12 137.809 138.984 144.273 135.244C146.516 133.946 148.438 132.522 150.013 131.028C152.325 128.823 153.927 126.45 154.819 123.994C155.042 123.394 155.209 122.78 155.348 122.166H155.334Z" fill="url(#paint14_linear_7782_221247)"/>
<path d="M155.334 122.166C155.209 122.78 155.028 123.394 154.805 123.994C153.913 126.45 152.325 128.823 149.999 131.028C148.424 132.536 146.502 133.946 144.259 135.244C137.809 138.97 129.645 141.12 121.217 141.678L119.531 133.206L118.639 128.753L116.773 119.374H116.828L140.665 121.105L153.913 122.068L155.292 122.166H155.334Z" fill="url(#paint15_linear_7782_221247)"/>
<path d="M87.0575 133.792V143.032C82.9199 140.185 80.2033 136.891 78.9077 133.443V124.203C80.0361 127.176 82.2233 130.052 85.4693 132.62C85.9708 133.024 86.5002 133.415 87.0714 133.792H87.0575Z" fill="url(#paint16_linear_7782_221247)"/>
<path d="M116.787 119.388L116.536 119.514L98.3556 128.321L90.9164 131.922L87.0575 133.792C86.5002 133.401 85.9708 133.01 85.4554 132.62C82.2094 130.051 80.0222 127.19 78.8938 124.203L93.2986 122.375L116.522 119.43L116.773 119.402L116.787 119.388Z" fill="url(#paint17_linear_7782_221247)"/>
<path d="M78.9077 124.189V133.429C78.3087 131.838 78.0022 130.219 78.0022 128.6V119.36C78.0022 120.909 78.2808 122.459 78.8381 123.98C78.8659 124.05 78.8799 124.12 78.9077 124.189Z" fill="#D1D9E8"/>
<path opacity="0.7" d="M116.814 119.36H116.8L116.55 119.402L93.3265 122.347L78.9216 124.175C78.8938 124.106 78.8659 124.036 78.852 123.966C78.2947 122.445 78.0161 120.895 78.0161 119.346C78.0161 113.61 81.8054 107.859 89.3839 103.477C96.7953 99.1916 106.45 97.0003 116.16 96.9026L116.41 105.431L116.438 106.142L116.842 119.346L116.814 119.36Z" fill="#52FCFF"/>
<path d="M121.231 141.678C120.631 141.72 120.019 141.748 119.406 141.776C111.479 142.083 103.426 140.994 96.433 138.496C93.9254 137.602 91.5432 136.514 89.3699 135.258C88.548 134.783 87.7818 134.294 87.0574 133.792L90.9163 131.922L98.3555 128.321L116.536 119.514L116.786 119.388L118.653 128.753L119.545 133.206L121.231 141.678Z" fill="url(#paint18_linear_7782_221247)"/>
<path d="M121.231 141.678V150.932C109.877 151.685 98.0769 149.536 89.3699 144.497C88.548 144.023 87.7818 143.534 87.0574 143.032V133.792C87.7818 134.294 88.548 134.783 89.3699 135.258C91.5432 136.514 93.9254 137.602 96.433 138.496C103.426 140.994 111.479 142.097 119.406 141.776C120.019 141.762 120.618 141.72 121.231 141.678Z" fill="url(#paint19_linear_7782_221247)"/>
</g>
<defs>
<linearGradient id="paint0_linear_7782_221247" x1="177.939" y1="140.669" x2="177.939" y2="7.41534" gradientUnits="userSpaceOnUse">
<stop stop-color="#1D45BA"/>
<stop offset="0.4204" stop-color="#1D47BA"/>
<stop offset="0.5718" stop-color="#1D4EB9"/>
<stop offset="0.6797" stop-color="#1C59B8"/>
<stop offset="0.767" stop-color="#1B6AB6"/>
<stop offset="0.8417" stop-color="#1A80B3"/>
<stop offset="0.9079" stop-color="#199CB0"/>
<stop offset="0.9663" stop-color="#18BBAD"/>
<stop offset="1" stop-color="#17D1AA"/>
</linearGradient>
<linearGradient id="paint1_linear_7782_221247" x1="142.796" y1="8.79175" x2="245.268" y2="79.2471" gradientUnits="userSpaceOnUse">
<stop stop-color="#0CDDB3"/>
<stop offset="1" stop-color="#4F6FC6"/>
</linearGradient>
<linearGradient id="paint2_linear_7782_221247" x1="103.366" y1="29.9404" x2="184.348" y2="52.2898" gradientUnits="userSpaceOnUse">
<stop stop-color="#17D1AA"/>
<stop offset="0.0659437" stop-color="#1AC2AE"/>
<stop offset="0.2651" stop-color="#229BB8"/>
<stop offset="0.4616" stop-color="#297CC0"/>
<stop offset="0.6525" stop-color="#2D66C6"/>
<stop offset="0.8349" stop-color="#3059CA"/>
<stop offset="1" stop-color="#3154CB"/>
</linearGradient>
<linearGradient id="paint3_linear_7782_221247" x1="90.3381" y1="54.6465" x2="97.923" y2="72.4016" gradientUnits="userSpaceOnUse">
<stop stop-color="#0CDDB3"/>
<stop offset="1" stop-color="#4F6FC6"/>
</linearGradient>
<linearGradient id="paint4_linear_7782_221247" x1="74.5639" y1="54.2594" x2="108.738" y2="59.118" gradientUnits="userSpaceOnUse">
<stop stop-color="#17D1AA"/>
<stop offset="0.0659437" stop-color="#1AC2AE"/>
<stop offset="0.2651" stop-color="#229BB8"/>
<stop offset="0.4616" stop-color="#297CC0"/>
<stop offset="0.6525" stop-color="#2D66C6"/>
<stop offset="0.8349" stop-color="#3059CA"/>
<stop offset="1" stop-color="#3154CB"/>
</linearGradient>
<linearGradient id="paint5_linear_7782_221247" x1="72.2417" y1="68.604" x2="79.8265" y2="86.3591" gradientUnits="userSpaceOnUse">
<stop stop-color="#0CDDB3"/>
<stop offset="1" stop-color="#4F6FC6"/>
</linearGradient>
<linearGradient id="paint6_linear_7782_221247" x1="56.4675" y1="68.6234" x2="90.5405" y2="73.8176" gradientUnits="userSpaceOnUse">
<stop stop-color="#17D1AA"/>
<stop offset="0.0659437" stop-color="#1AC2AE"/>
<stop offset="0.2651" stop-color="#229BB8"/>
<stop offset="0.4616" stop-color="#297CC0"/>
<stop offset="0.6525" stop-color="#2D66C6"/>
<stop offset="0.8349" stop-color="#3059CA"/>
<stop offset="1" stop-color="#3154CB"/>
</linearGradient>
<linearGradient id="paint7_linear_7782_221247" x1="54.1589" y1="93.0293" x2="61.7438" y2="110.784" gradientUnits="userSpaceOnUse">
<stop stop-color="#0CDDB3"/>
<stop offset="1" stop-color="#4F6FC6"/>
</linearGradient>
<linearGradient id="paint8_linear_7782_221247" x1="38.3847" y1="94.6745" x2="71.7173" y2="101.821" gradientUnits="userSpaceOnUse">
<stop stop-color="#17D1AA"/>
<stop offset="0.0659437" stop-color="#1AC2AE"/>
<stop offset="0.2651" stop-color="#229BB8"/>
<stop offset="0.4616" stop-color="#297CC0"/>
<stop offset="0.6525" stop-color="#2D66C6"/>
<stop offset="0.8349" stop-color="#3059CA"/>
<stop offset="1" stop-color="#3154CB"/>
</linearGradient>
<linearGradient id="paint9_linear_7782_221247" x1="65.283" y1="54.179" x2="100.219" y2="112.149" gradientUnits="userSpaceOnUse">
<stop stop-color="#0CDDB3"/>
<stop offset="1" stop-color="#4F6FC6"/>
</linearGradient>
<linearGradient id="paint10_linear_7782_221247" x1="88.2694" y1="44.269" x2="99.6526" y2="70.2279" gradientUnits="userSpaceOnUse">
<stop stop-color="#0CDDB3"/>
<stop offset="1" stop-color="#4F6FC6"/>
</linearGradient>
<linearGradient id="paint11_linear_7782_221247" x1="34.7389" y1="89.6865" x2="40.3469" y2="99.476" gradientUnits="userSpaceOnUse">
<stop stop-color="#0CDDB3"/>
<stop offset="1" stop-color="#4F6FC6"/>
</linearGradient>
<linearGradient id="paint12_linear_7782_221247" x1="103.973" y1="90.0924" x2="156.292" y2="120.978" gradientUnits="userSpaceOnUse">
<stop stop-color="#17D1AA"/>
<stop offset="0.0659437" stop-color="#1AC2AE"/>
<stop offset="0.2651" stop-color="#229BB8"/>
<stop offset="0.4616" stop-color="#297CC0"/>
<stop offset="0.6525" stop-color="#2D66C6"/>
<stop offset="0.8349" stop-color="#3059CA"/>
<stop offset="1" stop-color="#3154CB"/>
</linearGradient>
<linearGradient id="paint13_linear_7782_221247" x1="104.942" y1="113.96" x2="135.662" y2="148.166" gradientUnits="userSpaceOnUse">
<stop stop-color="#17D1AA"/>
<stop offset="0.0659437" stop-color="#1AC2AE"/>
<stop offset="0.2651" stop-color="#229BB8"/>
<stop offset="0.4616" stop-color="#297CC0"/>
<stop offset="0.6525" stop-color="#2D66C6"/>
<stop offset="0.8349" stop-color="#3059CA"/>
<stop offset="1" stop-color="#3154CB"/>
</linearGradient>
<linearGradient id="paint14_linear_7782_221247" x1="138.289" y1="122.166" x2="162.288" y2="160.712" gradientUnits="userSpaceOnUse">
<stop stop-color="#0CDDB3"/>
<stop offset="1" stop-color="#4F6FC6"/>
</linearGradient>
<linearGradient id="paint15_linear_7782_221247" x1="136.053" y1="119.374" x2="151.033" y2="154.448" gradientUnits="userSpaceOnUse">
<stop stop-color="#0CDDB3"/>
<stop offset="1" stop-color="#4F6FC6"/>
</linearGradient>
<linearGradient id="paint16_linear_7782_221247" x1="82.9895" y1="124.203" x2="98.276" y2="133.179" gradientUnits="userSpaceOnUse">
<stop stop-color="#0CDDB3"/>
<stop offset="1" stop-color="#4F6FC6"/>
</linearGradient>
<linearGradient id="paint17_linear_7782_221247" x1="97.8402" y1="119.388" x2="104.809" y2="144.215" gradientUnits="userSpaceOnUse">
<stop stop-color="#0CDDB3"/>
<stop offset="1" stop-color="#4F6FC6"/>
</linearGradient>
<linearGradient id="paint18_linear_7782_221247" x1="76.525" y1="116.774" x2="122.42" y2="143.143" gradientUnits="userSpaceOnUse">
<stop stop-color="#17D1AA"/>
<stop offset="0.0659437" stop-color="#1AC2AE"/>
<stop offset="0.2651" stop-color="#229BB8"/>
<stop offset="0.4616" stop-color="#297CC0"/>
<stop offset="0.6525" stop-color="#2D66C6"/>
<stop offset="0.8349" stop-color="#3059CA"/>
<stop offset="1" stop-color="#3154CB"/>
</linearGradient>
<linearGradient id="paint19_linear_7782_221247" x1="76.525" y1="131.778" x2="115.752" y2="161.033" gradientUnits="userSpaceOnUse">
<stop stop-color="#17D1AA"/>
<stop offset="0.0659437" stop-color="#1AC2AE"/>
<stop offset="0.2651" stop-color="#229BB8"/>
<stop offset="0.4616" stop-color="#297CC0"/>
<stop offset="0.6525" stop-color="#2D66C6"/>
<stop offset="0.8349" stop-color="#3059CA"/>
<stop offset="1" stop-color="#3154CB"/>
</linearGradient>
<clipPath id="clip0_7782_221247">
<rect width="143.839" height="143.036" fill="white" transform="translate(30.2322 8.03564)"/>
</clipPath>
</defs>
</svg>
