<?xml version="1.0" encoding="UTF-8"?>
<svg width="20px" height="20px" viewBox="0 0 20 20" version="1.1" xmlns="http://www.w3.org/2000/svg" xmlns:xlink="http://www.w3.org/1999/xlink">
    <title>6F4550D4-7180-4A3C-BC42-8D5BD106C4F0</title>
    <g id="🚀-Design" stroke="none" stroke-width="1" fill="none" fill-rule="evenodd">
        <g id="sign-tx/create-nft" transform="translate(-414.000000, -243.000000)">
            <rect fill="#f0f3f5" x="0" y="0" width="466" height="921"></rect>
            <g id="selected-wallets-drowdown-copy-6" transform="translate(310.000000, 242.000000)" fill="#383E54" fill-rule="nonzero">
                <g id="arrow-back-copy-3" transform="translate(114.000000, 11.000000) scale(-1, 1) translate(-114.000000, -11.000000) translate(104.000000, 1.000000)">
                    <path d="M11.8593667,3.2801884 L5.78252482,9.32037882 C5.40587983,9.69544642 5.40587983,10.3045536 5.78219632,10.6792944 L11.8596952,16.7201384 C12.0426166,16.9022941 12.281776,17 12.5385442,17 C12.7953123,17 13.0344717,16.9022941 13.2177216,16.7198116 L13.2978837,16.629386 C13.5918113,16.2527488 13.5650907,15.7071374 13.2177216,15.3612229 L7.83395895,10 L13.2177216,4.63877712 C13.5940381,4.26403634 13.5940381,3.65492918 13.2177216,3.2801884 C12.8425662,2.90660387 12.2345221,2.90660387 11.8593667,3.2801884 Z" id="arrow-back"></path>
                </g>
            </g>
        </g>
    </g>
</svg>