<?xml version="1.0" encoding="UTF-8"?>
<svg width="20px" height="20px" viewBox="0 0 20 20" version="1.1" xmlns="http://www.w3.org/2000/svg" xmlns:xlink="http://www.w3.org/1999/xlink">
    <title>icon / arrow down</title>
    <g id="icon-/-arrow-down" stroke="none" stroke-width="1" fill="none" fill-rule="evenodd">
        <rect id="Rectangle" x="0" y="0" width="20" height="20"></rect>
        <g id="arrow" transform="translate(9.999979, 10.000000) rotate(-90.000000) translate(-9.999979, -10.000000) translate(6.000000, 3.000000)" fill="#6B7384" fill-rule="nonzero">
            <path d="M6.35936674,0.280188397 L0.282524821,6.32037882 C-0.094120172,6.69544642 -0.094120172,7.30455358 0.282196319,7.67929436 L6.35969524,13.7201384 C6.54261657,13.9022941 6.78177602,14 7.03854416,14 C7.2953123,14 7.53447175,13.9022941 7.71772158,13.7198116 L7.79788368,13.629386 C8.09181135,13.2527488 8.06509065,12.7071374 7.71772158,12.3612229 L2.33395895,7 L7.71772158,1.63877712 C8.09403807,1.26403634 8.09403807,0.654929178 7.71772158,0.280188397 C7.34256621,-0.0933961323 6.73452211,-0.0933961323 6.35936674,0.280188397 Z" id="arrow-back"></path>
        </g>
    </g>
</svg>