<svg width="20" height="20">
  <path d="M11.753309 9.893934v.21213202l4.7711167 4.77087657c.2178934.23968273.3255743.51965319.3255743.84701574 0 .32544052-.1062016.5909446-.3206494.80539232-.2144477.21444772-.4799517.32064935-.8053923.32064935-.3273625 0-.607333-.10768095-.8418506-.32064935l-4.7760417-4.77604167h-.21213202l-4.77087657 4.77111668C4.88286101 16.74278603 4.61482607 16.85 4.3125 16.85s-.57036101-.10721397-.81055741-.32557434C3.2659316 16.30987022 3.15 16.0463893 3.15 15.72395833c0-.32438843.11759332-.60233628.35751329-.8422578l4.73958333-4.77604167V9.8943411L3.50710768 5.1178923C3.26759332 4.878378 3.15 4.6004301 3.15 4.2760417c0-.322431.1159316-.5859119.35194259-.8004674C3.74213899 3.257214 4.01017393 3.15 4.3125 3.15s.57036101.107214.80539232.3206494L9.89393398 8.246691h.21213202l4.7708766-4.7711167c.2396827-.2178934.5196532-.3255743.8470157-.3255743.3254406 0 .5909446.1062016.8053923.3206494.2144478.2144477.3206494.4799517.3206494.8053923 0 .3261891-.1069104.6053253-.3232356.8444368L11.753309 9.893934Z" fill="currentColor" fill-rule="evenodd"/>
</svg>