<svg width="20" height="20" viewBox="0 0 20 20" fill="none" xmlns="http://www.w3.org/2000/svg">
<path d="M9.99973 17C10.9457 17 11.8097 16.897 12.5977 16.719L10.8407 14.962C10.5677 14.983 10.2907 15 9.99973 15C4.64874 15 2.57573 11.154 2.07373 9.99997C2.45068 9.15878 2.95978 8.38331 3.58173 7.70297L2.18373 6.30497C0.645735 7.97197 0.0627348 9.65097 0.0517348 9.68397C-0.0172449 9.88933 -0.0172449 10.1116 0.0517348 10.317C0.0727348 10.383 2.36673 17 9.99973 17ZM9.99973 2.99997C8.16273 2.99997 6.65373 3.39597 5.39573 3.98097L2.41378 0.999826C2.02328 0.609424 1.39024 0.609466 0.999783 0.999921C0.609291 1.39041 0.609291 2.02352 0.999783 2.41402L17.5857 19C17.9762 19.3904 18.6093 19.3904 18.9997 19C19.3902 18.6095 19.3902 17.9764 18.9997 17.586L16.3877 14.974C19.0017 13.023 19.9347 10.359 19.9487 10.317C20.0177 10.1116 20.0177 9.88933 19.9487 9.68397C19.9267 9.61697 17.6327 2.99997 9.99973 2.99997ZM14.9717 13.558L12.6917 11.278C12.8817 10.888 12.9997 10.459 12.9997 9.99997C12.9997 8.35897 11.6407 6.99997 9.99973 6.99997C9.54074 6.99997 9.11173 7.11797 8.72273 7.30897L6.91473 5.50097C7.90725 5.16038 8.95044 4.99097 9.99973 4.99997C15.3507 4.99997 17.4237 8.84597 17.9257 9.99997C17.6237 10.692 16.7597 12.342 14.9717 13.558Z" fill="#4B6DDE"/>
</svg>
