<svg width="24" height="24" viewBox="0 0 24 24" fill="none" xmlns="http://www.w3.org/2000/svg">
<path d="M3 18C3.55228 18 4 17.5523 4 17V4.6C4 4.52523 4.04745 4.36676 4.20711 4.20711C4.36676 4.04745 4.52523 4 4.6 4H14C14.5523 4 15 3.55229 15 3C15 2.44771 14.5523 2 14 2H4.6C3.87477 2 3.23324 2.35255 2.79289 2.79289C2.35255 3.23324 2 3.87477 2 4.6V17C2 17.5523 2.44772 18 3 18Z" fill="black"/>
<path d="M16.7071 11.2929C16.3166 10.9024 15.6834 10.9024 15.2929 11.2929L13 13.5858L11.7071 12.2929C11.3166 11.9024 10.6834 11.9024 10.2929 12.2929C9.90237 12.6834 9.90237 13.3166 10.2929 13.7071L12.2929 15.7071C12.6834 16.0976 13.3166 16.0976 13.7071 15.7071L16.7071 12.7071C17.0976 12.3166 17.0976 11.6834 16.7071 11.2929Z" fill="black"/>
<path fill-rule="evenodd" clip-rule="evenodd" d="M8 6.00001C6.89543 6.00001 6 6.89544 6 8.00001V20C6 21.1046 6.89543 22 8 22H19C20.1046 22 21 21.1046 21 20V8.00001C21 6.89544 20.1046 6.00001 19 6.00001H8ZM19 8.00001H8V20H19V8.00001Z" fill="black"/>
</svg>
