<?xml version="1.0" encoding="UTF-8"?>
<svg width="20px" height="20px" viewBox="0 0 20 20" version="1.1" xmlns="http://www.w3.org/2000/svg" xmlns:xlink="http://www.w3.org/1999/xlink">
    <!-- Generator: Sketch 52.6 (67491) - http://www.bohemiancoding.com/sketch -->
    <title>close</title>
    <desc>Created with Sketch.</desc>
    <g id="close" stroke="none" stroke-width="1" fill="none" fillRule="evenodd">
        <rect id="Rectangle" opacity="0" x="0" y="0" width="20" height="20"></rect>
        <path d="M11.753309,10.106066 L11.753309,9.89393398 L16.5244257,5.12305741 C16.7423191,4.88337468 16.85,4.60340422 16.85,4.27604167 C16.85,3.95060115 16.7437984,3.68509707 16.5293506,3.47064935 C16.3149029,3.25620163 16.0493989,3.15 15.7239583,3.15 C15.3965958,3.15 15.1166253,3.25768095 14.8821077,3.47064935 L10.106066,8.24669102 L9.89393398,8.24669102 L5.12305741,3.47557434 C4.88286101,3.25721397 4.61482607,3.15 4.3125,3.15 C4.01017393,3.15 3.74213899,3.25721397 3.50194259,3.47557434 C3.2659316,3.69012978 3.15,3.9536107 3.15,4.27604167 C3.15,4.6004301 3.26759332,4.87837795 3.50751329,5.11829947 L8.24709662,9.89434114 L8.24709662,10.1056589 L3.50710768,14.8821077 C3.26759332,15.121622 3.15,15.3995699 3.15,15.7239583 C3.15,16.0463893 3.2659316,16.3098702 3.50194259,16.5244257 C3.74213899,16.742786 4.01017393,16.85 4.3125,16.85 C4.61482607,16.85 4.88286101,16.742786 5.11789232,16.5293506 L9.89393398,11.753309 L10.106066,11.753309 L14.8769426,16.5244257 C15.1166253,16.7423191 15.3965958,16.85 15.7239583,16.85 C16.0493989,16.85 16.3149029,16.7437984 16.5293506,16.5293506 C16.7437984,16.3149029 16.85,16.0493989 16.85,15.7239583 C16.85,15.3977692 16.7430896,15.118633 16.5267644,14.8795215 L11.753309,10.106066 Z" id="ion-close-round---Ionicons-Copy" fill="#464749" transform="translate(10.000000, 10.000000) scale(1, -1) translate(-10.000000, -10.000000) "></path>
    </g>
</svg>