<svg width="105" height="80" viewBox="0 0 105 80" fill="none" xmlns="http://www.w3.org/2000/svg">
<g clip-path="url(#clip0_1028_7892)">
<path fillRule="evenodd" clipRule="evenodd" d="M11.0547 5.5069H93.9494V0H11.0547V5.5069Z" fill="black"/>
<path fillRule="evenodd" clipRule="evenodd" d="M11.0547 80.0001H93.9494V74.4932H11.0547V80.0001Z" fill="black"/>
<path fillRule="evenodd" clipRule="evenodd" d="M99.4746 68.9889H105.001V11.011H99.4746V68.9889Z" fill="black"/>
<path fillRule="evenodd" clipRule="evenodd" d="M93.9473 11.0111H99.4736V5.50696H93.9473V11.0111Z" fill="black"/>
<path fillRule="evenodd" clipRule="evenodd" d="M93.9473 74.4958H99.4736V68.9917H93.9473V74.4958Z" fill="black"/>
<path fillRule="evenodd" clipRule="evenodd" d="M0 68.9889H5.52632V11.011H0V68.9889Z" fill="black"/>
<path fillRule="evenodd" clipRule="evenodd" d="M5.52539 11.0111H11.0517V5.50696H5.52539V11.0111Z" fill="black"/>
<path fillRule="evenodd" clipRule="evenodd" d="M5.52539 74.4958H11.0517V68.9917H5.52539V74.4958Z" fill="black"/>
<path fillRule="evenodd" clipRule="evenodd" d="M93.9473 63.4958H99.4736V57.9917H93.9473V63.4958Z" fill="black"/>
<path fillRule="evenodd" clipRule="evenodd" d="M88.4219 57.9917H93.9482V46.9834H88.4219V57.9917Z" fill="black"/>
<path fillRule="evenodd" clipRule="evenodd" d="M60.7617 47.0301H66.288V36.0219H60.7617V47.0301Z" fill="black"/>
<path fillRule="evenodd" clipRule="evenodd" d="M66.2891 36.0218H77.3417V30.5177H66.2891V36.0218Z" fill="black"/>
<path fillRule="evenodd" clipRule="evenodd" d="M33.1698 52.4836L22.1172 52.4864V57.9905L33.1698 57.9878V52.4836Z" fill="black"/>
<path fillRule="evenodd" clipRule="evenodd" d="M82.8945 47.0301H88.4208V41.526H82.8945V47.0301Z" fill="black"/>
<path fillRule="evenodd" clipRule="evenodd" d="M33.1641 52.5013H38.6904V46.9972H33.1641V52.5013Z" fill="black"/>
<path fillRule="evenodd" clipRule="evenodd" d="M38.6934 57.9917H44.2197V52.4875H38.6934V57.9917Z" fill="black"/>
<path fillRule="evenodd" clipRule="evenodd" d="M44.2188 63.4958H49.7451V57.9917H44.2188V63.4958Z" fill="black"/>
<path fillRule="evenodd" clipRule="evenodd" d="M11.0527 68.9917H16.5791V63.4875H11.0527V68.9917Z" fill="black"/>
<path fillRule="evenodd" clipRule="evenodd" d="M5.52539 68.9917H11.0517V63.4875H5.52539V68.9917Z" fill="black"/>
<path fillRule="evenodd" clipRule="evenodd" d="M16.582 63.4958H22.1083V57.9917H16.582V63.4958Z" fill="black"/>
<path fillRule="evenodd" clipRule="evenodd" d="M55.252 52.5013H60.7783V46.9972H55.252V52.5013Z" fill="black"/>
<path fillRule="evenodd" clipRule="evenodd" d="M49.7363 57.9917H55.2626V52.4875H49.7363V57.9917Z" fill="black"/>
<path fillRule="evenodd" clipRule="evenodd" d="M77.3691 41.526H82.8955V36.0219H77.3691V41.526Z" fill="black"/>
<path d="M17.674 32C17.554 32 17.446 31.958 17.35 31.874C17.266 31.778 17.224 31.67 17.224 31.55V19.868C17.224 19.736 17.266 19.628 17.35 19.544C17.434 19.448 17.542 19.4 17.674 19.4H19.708C19.984 19.4 20.188 19.514 20.32 19.742L24.568 26.456V19.868C24.568 19.736 24.61 19.628 24.694 19.544C24.778 19.448 24.886 19.4 25.018 19.4H27.304C27.436 19.4 27.544 19.448 27.628 19.544C27.712 19.628 27.754 19.736 27.754 19.868V31.532C27.754 31.664 27.712 31.778 27.628 31.874C27.544 31.958 27.436 32 27.304 32H25.27C24.994 32 24.79 31.886 24.658 31.658L20.428 25.214V31.55C20.428 31.682 20.38 31.79 20.284 31.874C20.2 31.958 20.092 32 19.96 32H17.674ZM33.4367 32C33.3047 32 33.1907 31.958 33.0947 31.874C33.0107 31.79 32.9687 31.682 32.9687 31.55V22.334H29.8007C29.6687 22.334 29.5547 22.292 29.4587 22.208C29.3747 22.124 29.3327 22.016 29.3327 21.884V19.868C29.3327 19.736 29.3747 19.628 29.4587 19.544C29.5547 19.448 29.6687 19.4 29.8007 19.4H39.5747C39.7067 19.4 39.8147 19.448 39.8987 19.544C39.9947 19.628 40.0427 19.736 40.0427 19.868V21.884C40.0427 22.016 39.9947 22.124 39.8987 22.208C39.8147 22.292 39.7067 22.334 39.5747 22.334H36.4067V31.55C36.4067 31.682 36.3587 31.79 36.2627 31.874C36.1787 31.958 36.0707 32 35.9387 32H33.4367ZM42.0724 32C41.9524 32 41.8444 31.958 41.7484 31.874C41.6644 31.778 41.6224 31.67 41.6224 31.55V19.868C41.6224 19.736 41.6644 19.628 41.7484 19.544C41.8324 19.448 41.9404 19.4 42.0724 19.4H50.4424C50.5744 19.4 50.6824 19.448 50.7664 19.544C50.8624 19.628 50.9104 19.736 50.9104 19.868V21.776C50.9104 21.908 50.8624 22.016 50.7664 22.1C50.6824 22.184 50.5744 22.226 50.4424 22.226H44.9344V24.728H50.0824C50.2144 24.728 50.3224 24.776 50.4064 24.872C50.5024 24.956 50.5504 25.064 50.5504 25.196V27.104C50.5504 27.236 50.5024 27.344 50.4064 27.428C50.3224 27.512 50.2144 27.554 50.0824 27.554H44.9344V31.55C44.9344 31.67 44.8924 31.778 44.8084 31.874C44.7244 31.958 44.6164 32 44.4844 32H42.0724Z" fill="#A7AFC0"/>
</g>
<defs>
<clipPath id="clip0_1028_7892">
<rect width="105" height="80" fill="white"/>
</clipPath>
</defs>
</svg>
