<svg width="105" height="80" viewBox="0 0 105 80" fill="none" xmlns="http://www.w3.org/2000/svg">
<g clip-path="url(#clip0_14215_5279)">
<path fill-rule="evenodd" clip-rule="evenodd" d="M11.0554 5.5069H93.9502V0H11.0554V5.5069Z" fill="#6B7384"/>
<path fill-rule="evenodd" clip-rule="evenodd" d="M11.0554 80.0001H93.9502V74.4932H11.0554V80.0001Z" fill="#6B7384"/>
<path fill-rule="evenodd" clip-rule="evenodd" d="M99.4736 68.9891H105V11.0112H99.4736V68.9891Z" fill="#6B7384"/>
<path fill-rule="evenodd" clip-rule="evenodd" d="M93.9473 11.011H99.4736V5.50684H93.9473V11.011Z" fill="#6B7384"/>
<path fill-rule="evenodd" clip-rule="evenodd" d="M93.9473 74.4958H99.4736V68.9917H93.9473V74.4958Z" fill="#6B7384"/>
<path fill-rule="evenodd" clip-rule="evenodd" d="M0 68.9891H5.52632V11.0112H0V68.9891Z" fill="#6B7384"/>
<path fill-rule="evenodd" clip-rule="evenodd" d="M5.52637 11.011H11.0527V5.50684H5.52637V11.011Z" fill="#6B7384"/>
<path fill-rule="evenodd" clip-rule="evenodd" d="M5.52637 74.4958H11.0527V68.9917H5.52637V74.4958Z" fill="#6B7384"/>
<path fill-rule="evenodd" clip-rule="evenodd" d="M93.9473 63.4958H99.4736V57.9917H93.9473V63.4958Z" fill="#6B7384"/>
<path fill-rule="evenodd" clip-rule="evenodd" d="M88.4211 57.9917H93.9475V46.9834H88.4211V57.9917Z" fill="#6B7384"/>
<path fill-rule="evenodd" clip-rule="evenodd" d="M60.7617 47.0303H66.288V36.022H60.7617V47.0303Z" fill="#6B7384"/>
<path fill-rule="evenodd" clip-rule="evenodd" d="M66.2881 36.0217H77.3407V30.5176H66.2881V36.0217Z" fill="#6B7384"/>
<path fill-rule="evenodd" clip-rule="evenodd" d="M33.1688 52.4839L22.1162 52.4866V57.9908L33.1688 57.988V52.4839Z" fill="#6B7384"/>
<path fill-rule="evenodd" clip-rule="evenodd" d="M82.8948 47.03H88.4211V41.5259H82.8948V47.03Z" fill="#6B7384"/>
<path fill-rule="evenodd" clip-rule="evenodd" d="M33.1633 52.5012H38.6896V46.9971H33.1633V52.5012Z" fill="#6B7384"/>
<path fill-rule="evenodd" clip-rule="evenodd" d="M38.6924 57.9914H44.2187V52.4873H38.6924V57.9914Z" fill="#6B7384"/>
<path fill-rule="evenodd" clip-rule="evenodd" d="M44.2188 63.4958H49.7451V57.9917H44.2188V63.4958Z" fill="#6B7384"/>
<path fill-rule="evenodd" clip-rule="evenodd" d="M11.0527 68.9919H16.5791V63.4878H11.0527V68.9919Z" fill="#6B7384"/>
<path fill-rule="evenodd" clip-rule="evenodd" d="M5.52637 68.9919H11.0527V63.4878H5.52637V68.9919Z" fill="#6B7384"/>
<path fill-rule="evenodd" clip-rule="evenodd" d="M16.5818 63.4958H22.1081V57.9917H16.5818V63.4958Z" fill="#6B7384"/>
<path fill-rule="evenodd" clip-rule="evenodd" d="M55.2522 52.5012H60.7785V46.9971H55.2522V52.5012Z" fill="#6B7384"/>
<path fill-rule="evenodd" clip-rule="evenodd" d="M49.7368 57.9914H55.2631V52.4873H49.7368V57.9914Z" fill="#6B7384"/>
<path fill-rule="evenodd" clip-rule="evenodd" d="M77.3684 41.5261H82.8947V36.022H77.3684V41.5261Z" fill="#6B7384"/>
<path d="M17.71 32C17.578 32 17.47 31.958 17.386 31.874C17.302 31.79 17.26 31.682 17.26 31.55V19.85C17.26 19.718 17.302 19.61 17.386 19.526C17.47 19.442 17.578 19.4 17.71 19.4H19.618C19.822 19.4 19.966 19.448 20.05 19.544C20.146 19.628 20.206 19.694 20.23 19.742L24.622 26.672V19.85C24.622 19.718 24.664 19.61 24.748 19.526C24.832 19.442 24.94 19.4 25.072 19.4H27.232C27.364 19.4 27.472 19.442 27.556 19.526C27.64 19.61 27.682 19.718 27.682 19.85V31.55C27.682 31.67 27.64 31.778 27.556 31.874C27.472 31.958 27.364 32 27.232 32H25.306C25.114 32 24.97 31.952 24.874 31.856C24.79 31.76 24.736 31.694 24.712 31.658L20.32 24.998V31.55C20.32 31.682 20.278 31.79 20.194 31.874C20.11 31.958 20.002 32 19.87 32H17.71ZM30.6475 32C30.5155 32 30.4075 31.958 30.3235 31.874C30.2395 31.79 30.1975 31.682 30.1975 31.55V19.85C30.1975 19.718 30.2395 19.61 30.3235 19.526C30.4075 19.442 30.5155 19.4 30.6475 19.4H38.9095C39.0415 19.4 39.1495 19.442 39.2335 19.526C39.3295 19.61 39.3775 19.718 39.3775 19.85V21.668C39.3775 21.8 39.3295 21.908 39.2335 21.992C39.1495 22.076 39.0415 22.118 38.9095 22.118H33.3655V24.764H38.5495C38.6815 24.764 38.7895 24.812 38.8735 24.908C38.9695 24.992 39.0175 25.1 39.0175 25.232V27.032C39.0175 27.152 38.9695 27.26 38.8735 27.356C38.7895 27.44 38.6815 27.482 38.5495 27.482H33.3655V31.55C33.3655 31.682 33.3235 31.79 33.2395 31.874C33.1555 31.958 33.0475 32 32.9155 32H30.6475ZM44.5289 32C44.3969 32 44.2889 31.958 44.2049 31.874C44.1209 31.79 44.0789 31.682 44.0789 31.55V22.226H40.8749C40.7429 22.226 40.6349 22.184 40.5509 22.1C40.4669 22.004 40.4249 21.896 40.4249 21.776V19.85C40.4249 19.718 40.4669 19.61 40.5509 19.526C40.6349 19.442 40.7429 19.4 40.8749 19.4H50.5589C50.6909 19.4 50.7989 19.442 50.8829 19.526C50.9669 19.61 51.0089 19.718 51.0089 19.85V21.776C51.0089 21.896 50.9669 22.004 50.8829 22.1C50.7989 22.184 50.6909 22.226 50.5589 22.226H47.3549V31.55C47.3549 31.682 47.3129 31.79 47.2289 31.874C47.1449 31.958 47.0369 32 46.9049 32H44.5289Z" fill="#6B7384"/>
</g>
<defs>
<clipPath id="clip0_14215_5279">
<rect width="105" height="80" fill="white"/>
</clipPath>
</defs>
</svg>