<?xml version="1.0" encoding="UTF-8"?>
<svg width="24px" height="24px" viewBox="0 0 24 24" version="1.1" xmlns="http://www.w3.org/2000/svg" xmlns:xlink="http://www.w3.org/1999/xlink">
    <!-- Generator: Sketch 52.2 (67145) - http://www.bohemiancoding.com/sketch -->
    <title>edit.inline</title>
    <desc>Created with Sketch.</desc>
    <g id="edit.inline" stroke="none" stroke-width="1" fill="none" fillRule="evenodd">
        <g id="icon-/-edit" transform="translate(2.000000, 2.000000)" fill="#4A4A4A">
            <g id="edit">
                <path d="M18.7045382,1.2945501 C16.9829375,-0.431516701 14.1832059,-0.431516701 12.4616053,1.2945501 L1.01551803,12.7377337 C0.926028889,12.8272335 0.870630849,12.9423046 0.853585299,13.0658995 L0.0055691567,19.3479303 C-0.0199991692,19.5269298 0.0439216455,19.7059294 0.167501887,19.8295243 C0.274036579,19.9360716 0.423185146,20 0.572333714,20 C0.59790204,20 0.623470366,20 0.649038692,19.9957381 L4.43315092,19.4843109 C4.74849361,19.441692 4.97008577,19.1518832 4.92747189,18.8365031 C4.88485801,18.521123 4.59508365,18.2995046 4.27974097,18.3421235 L1.24563296,18.7512652 L1.83796585,14.3700389 L6.44878728,18.9814075 C6.55532197,19.0879548 6.70447054,19.1518832 6.85361911,19.1518832 C7.00276767,19.1518832 7.15191624,19.0922167 7.25845093,18.9814075 L18.7045382,7.53822386 C19.5397701,6.70289276 20,5.59480049 20,4.41425603 C20,3.23371158 19.5397701,2.12561931 18.7045382,1.2945501 Z M12.6831974,2.70097491 L14.6050832,4.62308881 L4.16042211,15.0689894 L2.23853628,13.1468755 L12.6831974,2.70097491 Z M6.85788049,17.762506 L4.97860854,15.883011 L15.4232697,5.43711044 L17.3025416,7.3166054 L6.85788049,17.762506 Z M18.1036825,6.49405999 L13.5056452,1.89547707 C14.0894553,1.41388312 14.8181526,1.14964573 15.5852024,1.14964573 C16.4587869,1.14964573 17.2769733,1.4905972 17.8948745,2.10430984 C18.5127757,2.71802248 18.8494253,3.5405679 18.8494253,4.41425603 C18.8494253,5.18565873 18.5852193,5.9101806 18.1036825,6.49405999 Z" id="Shape" fillRule="nonzero"></path>
            </g>
        </g>
    </g>
</svg>