<?xml version="1.0" encoding="UTF-8"?>
<svg width="163px" height="124px" viewBox="0 0 163 124" version="1.1" xmlns="http://www.w3.org/2000/svg" xmlns:xlink="http://www.w3.org/1999/xlink">
    <!-- Generator: Sketch 60 (88103) - https://sketch.com -->
    <title>pic</title>
    <desc>Created with Sketch.</desc>
    <defs>
        <path d="M0.174,14.191 C0.174,14.191 2.894,18.513 2.217,20.945 L2.217,20.945 C1.93,22.079 1.511,23.175 0.968,24.212 L0.968,24.212 C0.735,24.622 0.849,25.142 1.234,25.418 L1.234,25.418 C1.301,25.469 1.376,25.513 1.456,25.546 L1.456,25.546 L5.066,27.679 L9.433,20.113 L10.391,15.847 L9.386,16.637 C9.835,15.505 10.155,14.326 10.342,13.125 L10.342,13.125 C11.891,3.01 10.342,0.682 10.342,0.682 L10.342,0.682 L0.174,14.191 Z" id="path-1"></path>
        <linearGradient x1="0.00446094486%" y1="49.9986154%" x2="99.9973707%" y2="49.9986154%" id="linearGradient-3">
            <stop stopColor="#3154CA" offset="0%"></stop>
            <stop stopColor="#17D1AA" offset="100%"></stop>
        </linearGradient>
        <path d="M51.377,0.195 C50.67,0.199 49.891,0.425 49.075,0.899 L49.075,0.899 L6.382,25.575 C3.16,27.435 0.569,32.401 0.583935198,36.667 L0.583935198,36.667 L0.702,71.008 C0.702,73.569 1.661,75.275 3.107,75.855 L3.107,75.855 L7.076,77.917 L10.192,73.263 L49.243,50.692 C52.463,48.832 55.055,43.866 55.04,39.6 L55.04,39.6 L54.926,6.492 L57.338,2.89 L53.87,0.921 C53.378,0.681 52.866,0.486 52.339,0.338 L52.339,0.338 C52.05,0.245 51.742,0.197 51.419,0.195 L51.419,0.195 L51.377,0.195 Z" id="path-4"></path>
        <linearGradient x1="-0.000323322094%" y1="49.9993715%" x2="99.999646%" y2="49.9993715%" id="linearGradient-6">
            <stop stopColor="#3154CA" offset="0%"></stop>
            <stop stopColor="#17D1AA" offset="100%"></stop>
        </linearGradient>
    </defs>
    <g id="1366x768" stroke="none" stroke-width="1" fill="none" fill-rule="evenodd">
        <g id="disable-screen" transform="translate(-603.000000, -194.000000)">
            <g id="popup" transform="translate(413.000000, 90.000000)">
                <g id="pic" transform="translate(190.000000, 103.000000)">
                    <g id="Group-9" opacity="0.2" transform="translate(0.000000, 27.805000)" stroke="#1D45BA" stroke-width="0.5">
                        <line x1="55.4979" y1="95.7651" x2="162.3829" y2="34.4691" id="Stroke-1"></line>
                        <line x1="14.8808" y1="65.2241" x2="114.5878" y2="8.0441" id="Stroke-3"></line>
                        <line x1="49.2958" y1="0.7167" x2="161.8918" y2="65.2057" id="Stroke-5"></line>
                        <line x1="0.4989" y1="42.7197" x2="94.8839" y2="96.7787" id="Stroke-7"></line>
                    </g>
                    <g id="Group-12" transform="translate(62.000000, 53.805000)">
                        <mask id="mask-2" fill="white">
                            <use xlink:href="#path-1"></use>
                        </mask>
                        <g id="Clip-11"></g>
                        <path d="M0.174,14.191 C0.174,14.191 2.894,18.513 2.217,20.945 L2.217,20.945 C1.93,22.079 1.511,23.175 0.968,24.212 L0.968,24.212 C0.735,24.622 0.849,25.142 1.234,25.418 L1.234,25.418 C1.301,25.469 1.376,25.513 1.456,25.546 L1.456,25.546 L5.066,27.679 L9.433,20.113 L10.391,15.847 L9.386,16.637 C9.835,15.505 10.155,14.326 10.342,13.125 L10.342,13.125 C11.891,3.01 10.342,0.682 10.342,0.682 L10.342,0.682 L0.174,14.191 Z" id="Fill-10" fill="url(#linearGradient-3)" mask="url(#mask-2)"></path>
                    </g>
                    <g id="Group-15" transform="translate(45.000000, 0.805000)">
                        <mask id="mask-5" fill="white">
                            <use xlink:href="#path-4"></use>
                        </mask>
                        <g id="Clip-14"></g>
                        <path d="M51.377,0.195 C50.67,0.199 49.891,0.425 49.075,0.899 L49.075,0.899 L6.382,25.575 C3.16,27.435 0.569,32.401 0.583935198,36.667 L0.583935198,36.667 L0.702,71.008 C0.702,73.569 1.661,75.275 3.107,75.855 L3.107,75.855 L7.076,77.917 L10.192,73.263 L49.243,50.692 C52.463,48.832 55.055,43.866 55.04,39.6 L55.04,39.6 L54.926,6.492 L57.338,2.89 L53.87,0.921 C53.378,0.681 52.866,0.486 52.339,0.338 L52.339,0.338 C52.05,0.245 51.742,0.197 51.419,0.195 L51.419,0.195 L51.377,0.195 Z" id="Fill-13" fill="url(#linearGradient-6)" mask="url(#mask-5)"></path>
                    </g>
                    <g id="Group-24" transform="translate(49.000000, 2.805000)">
                        <path d="M55.2528,5.4907 C55.2528,1.2247 52.6178,-0.7313 49.4048,1.1287 L6.7118,25.8077 C3.4908,27.6667 0.8988,32.6337 0.913735223,36.8997 L1.0318,71.2377 C1.0318,75.5037 3.6658,77.4597 6.8798,75.5997 L20.0668,67.9777 C20.4238,70.1317 20.1678,72.3417 19.3298,74.3597 C18.7968,75.5427 18.2558,76.5807 17.7698,77.4487 C17.5638,77.8277 17.6398,78.2987 17.9568,78.5927 C18.2738,78.8877 18.7508,78.9327 19.1188,78.7037 C22.1958,76.7127 26.4828,72.8697 27.4528,66.5487 C27.6248,65.4287 27.7578,64.4157 27.8568,63.4737 L49.5728,50.9207 C52.7938,49.0617 55.3848,44.0947 55.3708565,39.8287 L55.2528,5.4907 Z" id="Fill-16" fill="#E1F2FF"></path>
                        <path d="M28.1024,49.6074 C28.1024,51.3424 29.5044,51.8814 31.2354,50.8134 C32.9654,49.7444 34.3684,47.4724 34.3684,45.7374 C34.3684,44.0034 32.9654,43.4634 31.2354,44.5324 C29.5044,45.6004 28.1024,47.8734 28.1024,49.6074" id="Fill-18" fill="#FF1351"></path>
                        <path d="M22.6249,42.5082 C22.7719,42.5742 22.8459,42.7172 22.8459,42.9382 C22.8459,43.1572 22.7719,43.3882 22.6249,43.6302 C22.4779,43.8712 22.2929,44.0642 22.0719,44.2062 C21.8519,44.3492 21.6599,44.3992 21.4979,44.3572 L18.6029,43.3432 L15.7069,48.0912 C15.5449,48.3422 15.3609,48.5342 15.1539,48.6672 C14.9479,48.8002 14.7649,48.8462 14.6029,48.8042 C14.4399,48.7622 14.3589,48.6312 14.3589,48.4112 C14.3589,48.1912 14.4399,47.9482 14.6029,47.6822 L17.4759,42.9482 L14.6029,41.9202 C14.4399,41.8632 14.3589,41.7252 14.3589,41.5052 C14.3589,41.2852 14.4399,41.0502 14.6029,40.7992 C14.7649,40.5482 14.9479,40.3552 15.1539,40.2222 C15.3609,40.0892 15.5449,40.0442 15.7069,40.0862 L18.6029,41.1002 L21.4979,36.3512 C21.6599,36.1002 21.8519,35.9042 22.0719,35.7612 C22.2929,35.6182 22.4779,35.5732 22.6249,35.6252 C22.7719,35.6762 22.8459,35.8122 22.8459,36.0322 C22.8459,36.2522 22.7719,36.4902 22.6249,36.7462 L19.7289,41.4942 L22.6249,42.5082 Z" id="Fill-20" fill="#FF1351"></path>
                        <path d="M46.0058,28.1469 C46.1528,28.2129 46.2278,28.3559 46.2278,28.5759 C46.2278,28.7959 46.1528,29.0269 46.0058,29.2689 C45.8598,29.5099 45.6748,29.7019 45.4538,29.8449 C45.2328,29.9869 45.0408,30.0379 44.8788,29.9949 L41.9838,28.9809 L39.0888,33.7299 C38.9268,33.9809 38.7418,34.1729 38.5358,34.3059 C38.3298,34.4389 38.1458,34.4839 37.9838,34.4419 C37.8208,34.3999 37.7398,34.2689 37.7398,34.0489 C37.7398,33.8289 37.8208,33.5859 37.9838,33.3209 L40.8568,28.5869 L37.9838,27.5589 C37.8208,27.5019 37.7398,27.3629 37.7398,27.1439 C37.7398,26.9239 37.8208,26.6879 37.9838,26.4369 C38.1458,26.1859 38.3298,25.9939 38.5358,25.8609 C38.7418,25.7279 38.9268,25.6819 39.0888,25.7239 L41.9838,26.7379 L44.8788,21.9899 C45.0408,21.7389 45.2328,21.5419 45.4538,21.3989 C45.6748,21.2569 45.8598,21.2109 46.0058,21.2629 C46.1528,21.3139 46.2278,21.4499 46.2278,21.6699 C46.2278,21.8899 46.1528,22.1279 46.0058,22.3849 L43.1108,27.1329 L46.0058,28.1469 Z" id="Fill-22" fill="#FF1351"></path>
                    </g>
                </g>
            </g>
        </g>
    </g>
</svg>