<svg width="280" height="280" viewBox="0 0 280 280" fill="none" xmlns="http://www.w3.org/2000/svg">
<path fillRule="evenodd" clipRule="evenodd" d="M203.366 247.927L210.518 244.776C212.118 243.867 213.103 242.09 213.021 240.23V147.942C213.021 147.942 213.062 140.833 205.514 136.618C198.377 132.609 94.9654 72.1444 94.9654 72.1444C94.9654 72.1444 88.5253 70.3259 87.992 80.0796C87.4588 89.8333 88.3202 178.402 88.3202 178.402L203.366 247.927Z" fill="#16E3BA"/>
<path fillRule="evenodd" clipRule="evenodd" d="M203.912 247.721L210.465 244.769C212.043 243.859 213.071 242.237 212.99 240.375V147.845C212.99 147.845 212.99 140.493 204.622 136.482C197.582 132.468 188.963 127.295 188.963 127.295C188.963 127.295 184.796 153.489 184.27 163.254C183.744 173.02 186.738 239.351 186.738 239.351L203.912 247.721Z" fill="url(#paint0_linear_13032_85118)"/>
<path fillRule="evenodd" clipRule="evenodd" d="M201.154 139.575L93.2289 76.8943C92.7783 76.6457 92.3278 76.48 91.9182 76.3972C63.2064 64.5074 66.0325 87.7898 66.0325 87.7898L88.3548 99.9696V175.285C88.3548 178.89 90.5666 183.157 93.2698 184.69L201.154 247.329C203.857 248.903 206.069 247.204 206.069 243.6V148.979C206.069 145.375 203.857 141.107 201.154 139.575Z" fill="url(#paint1_linear_13032_85118)"/>
<path fillRule="evenodd" clipRule="evenodd" d="M183.809 250.932L198.297 241.677C198.827 241.345 199.113 240.764 199.113 240.183V152.445C199.113 149.748 197.725 147.216 195.44 145.846L91.4954 83.1351C89.4548 81.9315 87.0062 81.724 84.8024 82.5956L71.0492 88.074C69.9882 88.489 69.5801 89.8171 70.2738 90.7717L183.809 250.932Z" fill="#52FCFF"/>
<path fillRule="evenodd" clipRule="evenodd" d="M181.824 251.938L196.31 242.689C196.84 242.357 197.126 241.776 197.126 241.195V153.515C197.126 150.819 195.738 148.289 193.453 146.92L89.527 84.2492C87.4868 83.0464 84.4673 82.6731 82.2639 83.5441L69.0436 88.6871C67.9827 89.1019 67.6155 90.9269 68.2683 91.8808L181.824 251.938Z" fill="url(#paint2_linear_13032_85118)"/>
<path fillRule="evenodd" clipRule="evenodd" d="M179.004 252.943L193.451 243.805C193.982 243.474 194.145 242.399 194.145 241.82V154.451C194.145 151.763 192.757 149.241 190.472 147.876L86.5271 85.3987C84.4866 84.1996 81.0993 83.6208 78.9363 84.4891L66.081 90.2779C65.0199 90.6914 64.6118 92.0145 65.3056 92.9655L179.004 252.943Z" fill="#52FCFF"/>
<path fillRule="evenodd" clipRule="evenodd" d="M176.512 254.953L190.47 245.963C191 245.631 191.163 244.885 191.163 244.264V155.724C191.163 153.031 189.776 150.504 187.49 149.137L83.5457 86.5331C81.5051 85.3316 78.4035 84.5858 76.2406 85.4559L63.0995 91.4635C62.0385 91.8778 61.6304 93.2036 62.3241 94.1566L176.512 254.953Z" fill="url(#paint3_linear_13032_85118)"/>
<path fillRule="evenodd" clipRule="evenodd" d="M174.954 256.964L187.529 248.772C188.06 248.441 188.182 247.613 188.182 246.993V157.834C188.182 155.145 186.794 152.621 184.508 151.256L80.5226 88.7412C78.4813 87.5414 75.8276 86.5485 73.623 87.4173L62.2732 92.0097C61.2117 92.4234 63.3347 94.5335 63.9879 95.485L174.954 256.964Z" fill="#52FCFF"/>
<path opacity="0.5" fillRule="evenodd" clipRule="evenodd" d="M179.239 159.546L198.891 147.399C198.891 147.399 200.107 148.85 200.107 151.047V239.314C200.107 239.853 199 241.205 198.555 241.495L183.666 251.093L179.239 159.546Z" fill="url(#paint4_linear_13032_85118)"/>
<path fillRule="evenodd" clipRule="evenodd" d="M95.6006 72.5666C95.176 72.2755 94.711 72.0519 94.2147 71.9152C92.5863 71.467 88.5516 70.4389 84.7542 70.125C74.781 69.3139 58.0228 71.9499 59.0446 93.1192L70.8572 91.2942L74.1271 91.9837C55.7339 81.5207 82.3586 70.9549 94.1712 77.4436L100.736 76.0864L95.6006 72.5666Z" fill="#16E3BA"/>
<path fillRule="evenodd" clipRule="evenodd" d="M174.648 264L181.701 259.986C183.301 259.075 184.285 257.296 184.203 255.433V163.019C184.203 163.019 184.244 155.9 176.699 151.679C169.563 147.665 68.7696 88.6487 68.7696 88.6487C68.7696 88.6487 59.7072 85.2964 59.1741 95.0634C58.641 104.83 59.5022 193.52 59.5022 193.52L174.648 264Z" fill="#16E3BA"/>
<path fillRule="evenodd" clipRule="evenodd" d="M174.768 264L181.733 259.999C183.312 259.092 184.284 257.318 184.203 255.462V163.359C184.203 163.359 184.243 156.264 176.793 152.057C169.747 148.056 163.025 143.932 163.025 143.932C163.025 143.932 154.076 140.591 153.55 150.325C153.023 160.059 154.076 252.492 154.076 252.492L174.768 264Z" fill="url(#paint5_linear_13032_85118)"/>
<path fillRule="evenodd" clipRule="evenodd" d="M171.407 263.407L63.9976 200.975C61.3072 199.407 59.1061 195.198 59.1061 191.609V97.3626C58.78 89.3575 59.3099 87.088 59.3099 87.088C59.3099 87.088 59.9621 90.059 62.0817 92.0809C62.7747 92.7411 65.5873 94.6392 66.6064 95.2169L171.366 156.122C174.056 157.69 176.257 161.899 176.257 165.489V259.735C176.298 263.325 174.097 264.975 171.407 263.407Z" fill="url(#paint6_linear_13032_85118)"/>
<path d="M120.632 159.69C119.975 159.789 119.317 159.863 118.66 159.937C118.003 160.012 117.345 160.086 116.688 160.185C116.5 160.185 116.406 160.185 116.218 159.888C114.622 157.711 113.025 155.633 111.335 153.456L106.264 146.629C105.961 146.239 105.669 145.848 105.381 145.462C104.867 144.772 104.364 144.097 103.822 143.463L98 140C98.2817 140.396 98.5635 140.792 98.8452 141.088C99.3048 141.694 99.7643 142.308 100.227 142.926C101.276 144.329 102.339 145.75 103.447 147.124C104.198 148.113 104.949 149.128 105.701 150.142C106.452 151.156 107.203 152.17 107.954 153.16L112.18 158.799C112.838 159.69 113.518 160.58 114.199 161.471C114.88 162.361 115.561 163.252 116.218 164.142C116.406 164.34 116.5 164.439 116.594 164.34C117.721 164.241 118.754 164.142 119.881 163.945C121.242 163.796 122.581 163.623 123.919 163.45C125.257 163.277 126.595 163.104 127.957 162.955C129.006 162.85 130.055 162.717 131.091 162.585C132.001 162.469 132.9 162.355 133.779 162.263C134.155 162.263 134.624 162.164 135 162.065L129.178 158.503C127.221 158.846 125.264 159.094 123.276 159.347C122.402 159.457 121.521 159.569 120.632 159.69Z" fill="white"/>
<path d="M126.642 183.536L123.731 183.932C120.115 179.133 116.523 174.358 112.931 169.584C109.339 164.81 105.747 160.036 102.132 155.238V150.983L102.134 150.985C110.303 161.868 118.473 172.752 126.642 183.536Z" fill="white"/>
<path d="M113.272 176.231C109.564 171.288 105.868 166.359 102.132 161.471V165.726C104.248 168.523 106.364 171.341 108.488 174.169C111.172 177.741 113.868 181.331 116.594 184.921L119.505 184.525C117.419 181.759 115.343 178.992 113.272 176.231Z" fill="white"/>
<path d="M130.962 168.298C129.178 168.545 127.393 168.768 125.609 168.991C123.825 169.213 122.041 169.436 120.256 169.683C120.35 169.782 120.35 169.881 120.35 169.881C120.82 170.475 121.266 171.093 121.712 171.712C122.158 172.33 122.604 172.949 123.074 173.542L123.167 173.641C124.482 173.493 125.773 173.32 127.065 173.146C128.356 172.973 129.647 172.8 130.962 172.652V168.298Z" fill="white"/>
<path d="M130.962 178.885C130.352 178.984 129.765 179.058 129.178 179.133C128.591 179.207 128.004 179.281 127.393 179.38C127.862 180.022 128.332 180.64 128.801 181.258C129.27 181.876 129.741 182.497 130.211 183.14L130.962 183.041V178.885Z" fill="white"/>
<path d="M104.949 187.394L104.386 187.098L101.475 190.066L98.6574 183.634L98.0939 183.338L101.287 190.462V194.815L101.756 195.112V190.759L104.949 187.394Z" fill="white"/>
<path fillRule="evenodd" clipRule="evenodd" d="M106.734 196.695C107.579 198.18 108.612 199.268 109.927 200.059C111.147 200.851 112.274 200.95 113.12 200.554C113.965 200.158 114.434 199.169 114.434 197.784C114.434 196.399 113.965 194.914 113.12 193.529C112.274 192.144 111.147 191.056 109.927 190.264C108.612 189.472 107.579 189.373 106.734 189.769C105.889 190.165 105.513 191.056 105.513 192.441C105.513 193.826 105.889 195.31 106.734 196.695ZM112.744 200.059C111.993 200.356 111.054 200.257 109.927 199.565C108.706 198.872 107.767 197.882 107.016 196.596C106.264 195.31 105.889 194.024 105.889 192.836C105.889 191.55 106.264 190.759 107.016 190.363C107.767 189.967 108.706 190.165 109.927 190.857C111.054 191.451 111.993 192.441 112.744 193.727C113.495 195.013 113.871 196.299 113.871 197.586C113.871 198.872 113.495 199.663 112.744 200.059Z" fill="white"/>
<path fillRule="evenodd" clipRule="evenodd" d="M122.228 207.381L121.665 207.084L118.941 201.445L116.688 200.059V204.116L116.218 203.819V194.222L119.223 196.003C120.162 196.596 120.913 197.289 121.383 198.081C121.853 198.872 122.134 199.664 122.134 200.554C122.134 201.445 121.853 201.939 121.383 202.137C120.913 202.335 120.256 202.236 119.505 201.741L122.228 207.381ZM116.688 195.013V199.664L119.035 201.049C120.726 202.038 121.665 201.84 121.665 200.257C121.665 199.466 121.477 198.773 121.007 198.179C120.632 197.586 119.974 196.992 119.317 196.596L116.688 195.013Z" fill="white"/>
<path fillRule="evenodd" clipRule="evenodd" d="M124.764 207.579C125.609 209.063 126.642 210.152 127.957 210.943C129.272 211.636 130.305 211.834 131.15 211.438C131.995 211.042 132.464 210.053 132.464 208.668C132.464 207.282 131.995 205.798 131.15 204.413C130.305 203.028 129.178 201.939 127.957 201.148C126.642 200.356 125.609 200.257 124.764 200.653C123.919 201.049 123.543 201.939 123.543 203.325C123.543 204.71 123.919 206.194 124.764 207.579ZM130.774 210.943C130.023 211.24 129.084 211.141 127.957 210.449C126.83 209.756 125.891 208.767 125.046 207.48C124.295 206.194 123.919 204.908 123.919 203.72C123.919 202.434 124.295 201.643 125.046 201.247C125.797 200.851 126.736 201.049 127.957 201.742C129.084 202.335 130.023 203.325 130.774 204.611C131.526 205.897 131.901 207.183 131.901 208.47C131.901 209.756 131.526 210.548 130.774 210.943Z" fill="white"/>
<path d="M134.437 205.105V214.703L134.906 215V205.402L134.437 205.105Z" fill="white"/>
<path d="M113.119 205.007L113.307 205.106L112.556 206.986L112.368 206.887L111.711 204.413L111.053 206.095L110.866 205.996L110.114 203.226L110.302 203.325L110.959 205.798L111.617 204.116L111.805 204.215L112.462 206.689L113.119 205.007Z" fill="white"/>
<path fillRule="evenodd" clipRule="evenodd" d="M116.321 206.59L116.572 206.689V209.063L116.321 208.964V208.47C116.07 208.668 115.693 208.668 115.065 208.47C114.688 208.272 114.311 207.975 114.06 207.678C113.808 207.381 113.683 206.985 113.683 206.59C113.683 206.194 113.808 205.996 114.06 205.897C114.311 205.798 114.688 205.798 115.065 205.996C115.316 206.095 115.567 206.293 115.818 206.491C116.07 206.689 116.195 206.887 116.321 207.084V206.59ZM115.19 208.272C115.567 208.47 115.818 208.47 116.069 208.371C116.321 208.272 116.446 208.074 116.446 207.777C116.446 207.48 116.321 207.183 116.069 206.886C115.818 206.59 115.567 206.392 115.19 206.194C114.813 205.996 114.562 205.996 114.311 206.095C114.059 206.194 113.934 206.392 113.934 206.689C113.934 206.985 114.059 207.282 114.311 207.579C114.436 207.876 114.813 208.074 115.19 208.272Z" fill="white"/>
<path d="M116.782 209.657V206.095L116.97 206.194V209.756L116.782 209.657Z" fill="white"/>
<path d="M118.003 206.787V210.349L118.19 210.448V206.886L118.003 206.787Z" fill="white"/>
<path fillRule="evenodd" clipRule="evenodd" d="M119.586 210.967C119.311 210.649 119.173 210.332 119.173 210.014L121.853 211.045V211.933C121.853 212.229 121.853 212.328 121.947 212.526C121.947 212.625 122.135 212.823 122.322 212.922C122.51 213.12 122.698 213.12 122.886 213.12V212.922C122.698 212.922 122.604 212.922 122.416 212.823L122.135 212.526C122.041 212.427 122.041 212.229 122.041 212.032V210.547L122.886 211.042V210.844L122.041 210.35V209.459L121.853 209.36V210.152L121.571 209.954V210.009C121.299 209.658 120.924 209.465 120.549 209.273C120.136 209.061 119.724 209.061 119.448 209.167C119.173 209.273 119.036 209.484 119.036 209.908C119.036 210.332 119.173 210.755 119.448 211.073C119.724 211.391 120.136 211.708 120.549 211.92C121.099 212.132 121.512 212.238 121.787 212.026L121.65 211.814C121.375 211.92 120.962 211.92 120.549 211.708C120.136 211.497 119.861 211.285 119.586 210.967ZM121.735 210.267C121.779 210.353 121.82 210.451 121.853 210.561V210.35L121.735 210.267ZM119.586 209.272C119.724 209.167 120.136 209.272 120.411 209.378C120.824 209.484 121.099 209.696 121.237 210.013C121.512 210.224 121.65 210.542 121.65 210.859L119.173 209.801C119.173 209.484 119.311 209.378 119.586 209.272Z" fill="white"/>
<path fillRule="evenodd" clipRule="evenodd" d="M217 171.838L213.012 170.518L213.135 171.838L177.328 192.09L167.626 186.769C167.626 186.769 159.528 183.552 153.402 192.791L177.246 197.658L217 171.838Z" fill="#52FCFF"/>
<path fillRule="evenodd" clipRule="evenodd" d="M177.252 224.798L161.849 216.182C155.431 212.585 151.415 205.725 151.415 198.322C151.415 190.166 160.069 185.021 167.149 188.953L177.252 194.6V224.798Z" fill="url(#paint7_linear_13032_85118)"/>
<path fillRule="evenodd" clipRule="evenodd" d="M171.289 205.458C171.289 208.825 168.635 210.569 165.327 209.311C162.019 208.054 159.365 204.282 159.365 200.915C159.365 197.548 162.019 195.804 165.327 197.062C168.635 198.319 171.289 202.091 171.289 205.458Z" fill="url(#paint8_linear_13032_85118)"/>
<path fillRule="evenodd" clipRule="evenodd" d="M217 201.503L177.251 224.798V194.818L217 171.523V201.503Z" fill="url(#paint9_linear_13032_85118)"/>
<path fillRule="evenodd" clipRule="evenodd" d="M141.824 110.399C131.27 105.312 122.717 91.1865 122.717 78.7369C122.717 74.0683 123.93 70.3574 125.932 67.7837L124.294 68.2625L128.176 65.629C128.237 65.5691 128.313 65.5242 128.389 65.4793C128.465 65.4344 128.54 65.3896 128.601 65.3297L128.722 65.21C132.18 63.0553 136.79 62.8757 141.824 65.3297C152.379 70.4173 160.931 84.5427 160.931 96.9923C160.931 102.918 158.99 107.347 155.836 109.861L155.775 109.921C155.593 110.04 155.427 110.16 155.26 110.28C155.093 110.399 154.926 110.519 154.744 110.639L150.983 113.272L151.165 112.016C148.375 112.494 145.221 112.016 141.824 110.399ZM141.824 75.5647C136.062 72.8114 131.391 76.0435 131.391 82.8668C131.391 89.6303 136.062 97.4113 141.824 100.224C147.587 102.978 152.257 99.7455 152.257 92.9222C152.257 86.0989 147.587 78.3179 141.824 75.5647Z" fill="url(#paint10_linear_13032_85118)"/>
<path fillRule="evenodd" clipRule="evenodd" d="M118.411 81.9092C118.411 69.5195 126.963 63.5341 137.518 68.5619C148.011 73.5896 156.564 87.7749 156.625 100.224C156.625 112.614 148.072 118.599 137.518 113.572C126.963 108.484 118.411 94.3588 118.411 81.9092ZM127.085 85.9793C127.085 92.8026 131.755 100.584 137.518 103.337C143.28 106.15 147.951 102.858 147.951 96.0347C147.951 89.2114 143.28 81.4304 137.518 78.6771C131.755 75.9238 127.085 79.1559 127.085 85.9793Z" fill="url(#paint11_linear_13032_85118)"/>
<ellipse cx="14.3345" cy="22.8116" rx="14.3345" ry="22.8116" transform="matrix(0.886977 -0.461815 0.472813 0.881163 114.009 77.34)" fill="url(#paint12_linear_13032_85118)"/>
<path fillRule="evenodd" clipRule="evenodd" d="M140.794 94.8083L131.497 89.2161C130.477 91.6993 129.181 94.7789 128.116 97.2316C127.994 97.4112 127.812 97.4112 127.57 97.2915C127.206 97.1119 127.145 96.9922 127.145 96.6331V96.5134L130.469 88.5975L127.509 86.8171C127.327 86.6974 127.206 86.458 127.206 86.2186V85.6799C127.206 85.4405 127.327 85.3806 127.509 85.4405L130.93 87.4985L132.062 84.8036L129.147 83.0463C128.965 82.9266 128.843 82.6872 128.843 82.4478V81.8493C128.843 81.6098 128.965 81.55 129.147 81.6098L132.543 83.6572L135.212 77.3004C135.455 76.8215 136.062 76.4624 136.608 76.8215C137.214 77.1807 137.517 77.8989 137.699 78.6172L140.475 88.4383L143.644 90.3485C143.826 90.4682 143.947 90.7076 143.947 90.947V91.4857C143.947 91.785 143.826 91.9047 143.644 91.785L140.964 90.1698L142.11 94.223L145.221 96.0944C145.403 96.2141 145.524 96.4535 145.524 96.6929V97.2316C145.585 97.471 145.403 97.5907 145.221 97.471L142.578 95.8816L145.463 106.09C145.645 106.569 145.888 107.347 145.403 107.467C144.736 107.646 144.432 107.167 144.311 106.748L140.794 94.8083ZM139.298 89.1655L140.406 93.1983L132.064 88.1802L133.16 85.4658L139.298 89.1655ZM138.825 87.4438L133.627 84.3106L135.758 79.0361C136.062 78.1982 136.365 78.5573 136.729 79.8142L138.825 87.4438Z" fill="white"/>
<path fillRule="evenodd" clipRule="evenodd" d="M207.938 48.1064C200.752 44.6205 194.929 34.9419 194.929 26.4117C194.929 23.2128 195.755 20.6702 197.118 18.9067L196.003 19.2348L198.646 17.4303C198.687 17.3893 198.739 17.3585 198.791 17.3278C198.842 17.297 198.894 17.2663 198.935 17.2252L199.018 17.1432C201.372 15.6668 204.51 15.5438 207.938 17.2252C215.124 20.7112 220.947 30.3897 220.947 38.92C220.947 42.98 219.626 46.0148 217.478 47.7373L217.437 47.7783C217.313 47.8603 217.199 47.9424 217.086 48.0244C216.972 48.1064 216.859 48.1884 216.735 48.2704L214.174 50.0749L214.298 49.2137C212.398 49.5418 210.251 49.2137 207.938 48.1064ZM207.938 24.2381C204.015 22.3516 200.835 24.5662 200.835 29.2414C200.835 33.8756 204.015 39.207 207.938 41.1346C211.862 43.0211 215.042 40.8065 215.042 36.1312C215.042 31.456 211.862 26.1246 207.938 24.2381Z" fill="url(#paint13_linear_13032_85118)"/>
<path fillRule="evenodd" clipRule="evenodd" d="M191.997 28.5853C191.997 20.0961 197.82 15.995 205.006 19.4399C212.151 22.8848 217.974 32.6044 218.015 41.1346C218.015 49.6239 212.192 53.7249 205.006 50.28C197.82 46.7941 191.997 37.1156 191.997 28.5853ZM197.903 31.374C197.903 36.0493 201.083 41.3807 205.006 43.2672C208.929 45.1947 212.109 42.9391 212.109 38.2639C212.109 33.5886 208.929 28.2572 205.006 26.3707C201.083 24.4842 197.903 26.6988 197.903 31.374Z" fill="url(#paint14_linear_13032_85118)"/>
<ellipse cx="9.77294" cy="15.6081" rx="9.77294" ry="15.6081" transform="matrix(0.885771 -0.464123 0.470486 0.882407 189 25.4546)" fill="url(#paint15_linear_13032_85118)"/>
<path fillRule="evenodd" clipRule="evenodd" d="M207.237 37.4236L200.907 33.5919C200.212 35.2934 199.33 37.4034 198.605 39.084C198.522 39.2071 198.398 39.2071 198.233 39.1251C197.985 39.002 197.944 38.92 197.944 38.6739V38.5919L200.207 33.1681L198.192 31.9482C198.068 31.8661 197.985 31.7021 197.985 31.538V31.1689C197.985 31.0049 198.068 30.9639 198.192 31.0049L200.521 32.415L201.291 30.5685L199.307 29.3645C199.183 29.2825 199.1 29.1184 199.1 28.9544V28.5443C199.1 28.3802 199.183 28.3392 199.307 28.3802L201.619 29.7831L203.437 25.4274C203.602 25.0994 204.015 24.8533 204.386 25.0994C204.799 25.3454 205.006 25.8375 205.13 26.3297L207.02 33.059L209.177 34.3678C209.301 34.4498 209.384 34.6139 209.384 34.7779V35.147C209.384 35.3521 209.301 35.4341 209.177 35.3521L207.353 34.2454L208.133 37.0226L210.251 38.3048C210.375 38.3869 210.457 38.5509 210.457 38.7149V39.084C210.499 39.2481 210.375 39.3301 210.251 39.2481L208.452 38.159L210.416 45.1536C210.54 45.4817 210.705 46.0149 210.375 46.0969C209.92 46.2199 209.714 45.8918 209.631 45.6048L207.237 37.4236ZM206.218 33.5572L206.973 36.3204L201.293 32.8821L202.039 31.0222L206.218 33.5572ZM205.896 32.3776L202.357 30.2308L203.808 26.6168C204.015 26.0426 204.221 26.2887 204.469 27.1499L205.896 32.3776Z" fill="white"/>
<path fillRule="evenodd" clipRule="evenodd" d="M119.399 50.998C113.56 48.1716 108.829 40.3241 108.829 33.4077C108.829 30.8141 109.5 28.7524 110.608 27.3226L109.702 27.5886L111.849 26.1255C111.883 26.0923 111.925 26.0673 111.966 26.0424C112.008 26.0175 112.05 25.9925 112.084 25.9593L112.151 25.8928C114.064 24.6957 116.614 24.5959 119.399 25.9593C125.237 28.7857 129.969 36.6332 129.969 43.5496C129.969 46.8415 128.895 49.3022 127.15 50.6988L127.117 50.732C127.016 50.7985 126.924 50.865 126.831 50.9315C126.739 50.998 126.647 51.0645 126.546 51.131L124.466 52.5941L124.566 51.8958C123.023 52.1619 121.278 51.8958 119.399 50.998ZM119.399 31.6454C116.211 30.1158 113.627 31.9114 113.627 35.7021C113.627 39.4596 116.211 43.7823 119.399 45.3452C122.587 46.8748 125.17 45.0792 125.17 41.2884C125.17 37.4977 122.587 33.175 119.399 31.6454Z" fill="url(#paint16_linear_13032_85118)"/>
<path fillRule="evenodd" clipRule="evenodd" d="M106.447 35.17C106.447 28.2869 111.178 24.9617 117.017 27.7548C122.822 30.548 127.553 38.4287 127.586 45.3452C127.586 52.2283 122.855 55.5535 117.017 52.7604C111.178 49.9339 106.447 42.0865 106.447 35.17ZM111.245 37.4312C111.245 41.2219 113.829 45.5447 117.017 47.0743C120.204 48.6371 122.788 46.8083 122.788 43.0175C122.788 39.2268 120.204 34.904 117.017 33.3744C113.829 31.8448 111.245 33.6405 111.245 37.4312Z" fill="url(#paint17_linear_13032_85118)"/>
<ellipse cx="7.93696" cy="12.6611" rx="7.93696" ry="12.6611" transform="matrix(0.886168 -0.463365 0.471249 0.882 104.012 32.6317)" fill="url(#paint18_linear_13032_85118)"/>
<path fillRule="evenodd" clipRule="evenodd" d="M118.829 42.3363L113.686 39.2295C113.122 40.6091 112.405 42.3199 111.816 43.6826C111.749 43.7823 111.648 43.7823 111.514 43.7158C111.312 43.6161 111.279 43.5496 111.279 43.35V43.2835L113.118 38.8858L111.48 37.8967C111.379 37.8302 111.312 37.6972 111.312 37.5642V37.2649C111.312 37.1319 111.379 37.0987 111.48 37.1319L113.373 38.2752L113.999 36.7781L112.386 35.8018C112.285 35.7353 112.218 35.6023 112.218 35.4693V35.1368C112.218 35.0038 112.285 34.9705 112.386 35.0038L114.265 36.1412L115.742 32.6096C115.876 32.3436 116.211 32.1441 116.513 32.3436C116.849 32.5431 117.017 32.9422 117.117 33.3412L118.653 38.7974L120.406 39.8586C120.506 39.9251 120.574 40.0581 120.574 40.1911V40.4904C120.574 40.6566 120.506 40.7231 120.406 40.6566L118.923 39.7593L119.557 42.0111L121.278 43.0508C121.379 43.1173 121.446 43.2503 121.446 43.3833V43.6826C121.48 43.8156 121.379 43.8821 121.278 43.8156L119.816 42.9326L121.412 48.6039C121.513 48.8699 121.647 49.3021 121.379 49.3687C121.01 49.4684 120.842 49.2024 120.775 48.9696L118.829 42.3363ZM118.002 39.2013L118.615 41.4418L114 38.654L114.607 37.146L118.002 39.2013ZM117.74 38.2449L114.865 36.5042L116.044 33.5739C116.211 33.1084 116.379 33.3079 116.58 34.0062L117.74 38.2449Z" fill="white"/>
<defs>
<linearGradient id="paint0_linear_13032_85118" x1="180.975" y1="171.029" x2="224.892" y2="187.716" gradientUnits="userSpaceOnUse">
<stop offset="0.00313273" stopColor="white" stop-opacity="0.01"/>
<stop offset="0.6176" stop-opacity="0.12"/>
<stop offset="1" stop-opacity="0.32"/>
</linearGradient>
<linearGradient id="paint1_linear_13032_85118" x1="212.351" y1="353.822" x2="444.21" y2="33.3187" gradientUnits="userSpaceOnUse">
<stop stopColor="#244ABF"/>
<stop offset="1" stopColor="#4760FF"/>
</linearGradient>
<linearGradient id="paint2_linear_13032_85118" x1="202.917" y1="354.191" x2="429.816" y2="54.685" gradientUnits="userSpaceOnUse">
<stop stopColor="#244ABF"/>
<stop offset="1" stopColor="#4760FF"/>
</linearGradient>
<linearGradient id="paint3_linear_13032_85118" x1="196.955" y1="357.815" x2="425.567" y2="57.8326" gradientUnits="userSpaceOnUse">
<stop stopColor="#244ABF"/>
<stop offset="1" stopColor="#4760FF"/>
</linearGradient>
<linearGradient id="paint4_linear_13032_85118" x1="178.646" y1="148.794" x2="190.88" y2="255.345" gradientUnits="userSpaceOnUse">
<stop stopColor="#52FCFF" stop-opacity="0.01"/>
<stop offset="0.0864389" stopColor="#46D3F0" stop-opacity="0.1417"/>
<stop offset="0.1984" stopColor="#39A5DE" stop-opacity="0.3253"/>
<stop offset="0.3056" stopColor="#2F81D1" stop-opacity="0.5011"/>
<stop offset="0.4055" stopColor="#2767C7" stop-opacity="0.6648"/>
<stop offset="0.4951" stopColor="#2357C1" stop-opacity="0.8117"/>
<stop offset="0.5658" stopColor="#2152BF" stop-opacity="0.9276"/>
<stop offset="0.7568" stopColor="#1E48BB" stop-opacity="0.9596"/>
<stop offset="0.9984" stopColor="#1D45BA"/>
</linearGradient>
<linearGradient id="paint5_linear_13032_85118" x1="149.823" y1="187.112" x2="197.099" y2="207" gradientUnits="userSpaceOnUse">
<stop offset="0.00313273" stopColor="white" stop-opacity="0.01"/>
<stop offset="0.6176" stop-opacity="0.12"/>
<stop offset="1" stop-opacity="0.32"/>
</linearGradient>
<linearGradient id="paint6_linear_13032_85118" x1="130.485" y1="87.088" x2="25.0554" y2="185.26" gradientUnits="userSpaceOnUse">
<stop stopColor="#17D1AA"/>
<stop offset="0.15" stopColor="#1ACBAF"/>
<stop offset="0.37" stopColor="#21B8BC"/>
<stop offset="0.62" stopColor="#2E9BD3"/>
<stop offset="0.89" stopColor="#3F71F1"/>
<stop offset="1" stopColor="#475FFF"/>
</linearGradient>
<linearGradient id="paint7_linear_13032_85118" x1="151.415" y1="224.798" x2="177.252" y2="224.798" gradientUnits="userSpaceOnUse">
<stop stopColor="#17D1AA"/>
<stop offset="0.15" stopColor="#1ACBAF"/>
<stop offset="0.37" stopColor="#21B8BC"/>
<stop offset="0.62" stopColor="#2E9BD3"/>
<stop offset="0.89" stopColor="#3F71F1"/>
<stop offset="1" stopColor="#475FFF"/>
</linearGradient>
<linearGradient id="paint8_linear_13032_85118" x1="171.824" y1="217.633" x2="188.332" y2="191.639" gradientUnits="userSpaceOnUse">
<stop stopColor="#244ABF"/>
<stop offset="1" stopColor="#4760FF"/>
</linearGradient>
<linearGradient id="paint9_linear_13032_85118" x1="177.252" y1="224.798" x2="217" y2="224.798" gradientUnits="userSpaceOnUse">
<stop stopColor="#17D1AA"/>
<stop offset="0.15" stopColor="#1ACBAF"/>
<stop offset="0.37" stopColor="#21B8BC"/>
<stop offset="0.62" stopColor="#2E9BD3"/>
<stop offset="0.89" stopColor="#3F71F1"/>
<stop offset="1" stopColor="#475FFF"/>
</linearGradient>
<linearGradient id="paint10_linear_13032_85118" x1="122.717" y1="113.273" x2="160.931" y2="113.273" gradientUnits="userSpaceOnUse">
<stop stopColor="#17D1AA"/>
<stop offset="0.15" stopColor="#1ACBAF"/>
<stop offset="0.37" stopColor="#21B8BC"/>
<stop offset="0.62" stopColor="#2E9BD3"/>
<stop offset="0.89" stopColor="#3F71F1"/>
<stop offset="1" stopColor="#475FFF"/>
</linearGradient>
<linearGradient id="paint11_linear_13032_85118" x1="158.338" y1="144.763" x2="223.082" y2="56.8676" gradientUnits="userSpaceOnUse">
<stop stopColor="#244ABF"/>
<stop offset="1" stopColor="#4760FF"/>
</linearGradient>
<linearGradient id="paint12_linear_13032_85118" x1="17.4777" y1="3.61419e-06" x2="-9.56994" y2="23.8779" gradientUnits="userSpaceOnUse">
<stop stopColor="#17D1AA"/>
<stop offset="0.15" stopColor="#1ACBAF"/>
<stop offset="0.37" stopColor="#21B8BC"/>
<stop offset="0.62" stopColor="#2E9BD3"/>
<stop offset="0.89" stopColor="#3F71F1"/>
<stop offset="1" stopColor="#475FFF"/>
</linearGradient>
<linearGradient id="paint13_linear_13032_85118" x1="194.929" y1="50.0751" x2="220.947" y2="50.0751" gradientUnits="userSpaceOnUse">
<stop stopColor="#17D1AA"/>
<stop offset="0.15" stopColor="#1ACBAF"/>
<stop offset="0.37" stopColor="#21B8BC"/>
<stop offset="0.62" stopColor="#2E9BD3"/>
<stop offset="0.89" stopColor="#3F71F1"/>
<stop offset="1" stopColor="#475FFF"/>
</linearGradient>
<linearGradient id="paint14_linear_13032_85118" x1="219.181" y1="71.6516" x2="263.626" y2="11.6965" gradientUnits="userSpaceOnUse">
<stop stopColor="#244ABF"/>
<stop offset="1" stopColor="#4760FF"/>
</linearGradient>
<linearGradient id="paint15_linear_13032_85118" x1="11.9159" y1="2.47289e-06" x2="-6.58228" y2="16.2721" gradientUnits="userSpaceOnUse">
<stop stopColor="#17D1AA"/>
<stop offset="0.15" stopColor="#1ACBAF"/>
<stop offset="0.37" stopColor="#21B8BC"/>
<stop offset="0.62" stopColor="#2E9BD3"/>
<stop offset="0.89" stopColor="#3F71F1"/>
<stop offset="1" stopColor="#475FFF"/>
</linearGradient>
<linearGradient id="paint16_linear_13032_85118" x1="108.829" y1="52.5943" x2="129.969" y2="52.5943" gradientUnits="userSpaceOnUse">
<stop stopColor="#17D1AA"/>
<stop offset="0.15" stopColor="#1ACBAF"/>
<stop offset="0.37" stopColor="#21B8BC"/>
<stop offset="0.62" stopColor="#2E9BD3"/>
<stop offset="0.89" stopColor="#3F71F1"/>
<stop offset="1" stopColor="#475FFF"/>
</linearGradient>
<linearGradient id="paint17_linear_13032_85118" x1="128.534" y1="70.0887" x2="164.548" y2="21.4047" gradientUnits="userSpaceOnUse">
<stop stopColor="#244ABF"/>
<stop offset="1" stopColor="#4760FF"/>
</linearGradient>
<linearGradient id="paint18_linear_13032_85118" x1="9.67733" y1="2.00598e-06" x2="-5.33034" y2="13.2172" gradientUnits="userSpaceOnUse">
<stop stopColor="#17D1AA"/>
<stop offset="0.15" stopColor="#1ACBAF"/>
<stop offset="0.37" stopColor="#21B8BC"/>
<stop offset="0.62" stopColor="#2E9BD3"/>
<stop offset="0.89" stopColor="#3F71F1"/>
<stop offset="1" stopColor="#475FFF"/>
</linearGradient>
</defs>
</svg>
