<?xml version="1.0" encoding="UTF-8"?>
<svg width="20px" height="20px" viewBox="0 0 20 20" version="1.1" xmlns="http://www.w3.org/2000/svg" xmlns:xlink="http://www.w3.org/1999/xlink">
    <!-- Generator: Sketch 52.6 (67491) - http://www.bohemiancoding.com/sketch -->
    <title>icon/arrow</title>
    <desc>Created with Sketch.</desc>
    <g id="icon/arrow" stroke="none" stroke-width="1" fill="none" fillRule="evenodd">
        <rect id="Rectangle" fill="#FFFFFF" fillRule="nonzero" opacity="0" x="0" y="0" width="20" height="20"></rect>
        <path d="M13.1433462,3.78359204 L13.1433462,3.78359204 C12.8541624,3.4991008 12.3902596,3.4991008 12.1010757,3.78359204 L6.22312411,9.5661613 L12.1102104,15.357717 C12.3964731,15.6393345 12.8550855,15.6412938 13.1437441,15.3621325 L13.1437441,15.3621325 C13.4285219,15.0867243 13.4361174,14.6326038 13.1607091,14.347826 C13.1596537,14.3467346 13.1585948,14.3456466 13.1575324,14.344562 L8.41026914,9.49776025 L13.1449572,4.81058192 C13.4281136,4.53026682 13.430417,4.07348291 13.1501019,3.79032651 C13.1478649,3.78806682 13.1456129,3.78582195 13.1433462,3.78359204 Z" id="Combined-Shape" fill="#ADAEB6" fillRule="nonzero" transform="translate(10.005723, 9.570224) rotate(-90.000000) translate(-10.005723, -9.570224) "></path>
    </g>
</svg>