<svg width="24" height="24" viewBox="0 0 24 24" fill="none" xmlns="http://www.w3.org/2000/svg">
<path fill-rule="evenodd" clip-rule="evenodd" d="M9.7759 2.5708C10.4573 2.19547 11.2228 1.99908 12.0007 2L12.001 2L12.0013 2C12.7725 2.00065 13.5312 2.1952 14.2076 2.56576C14.6879 2.8289 15.1158 3.1748 15.4723 3.58584C16.0186 3.54478 16.5698 3.60152 17.0993 3.75523C17.8438 3.97132 18.5216 4.37205 19.0698 4.92021C19.6179 5.46837 20.0187 6.14618 20.2348 6.89067C20.3883 7.41956 20.4451 7.96992 20.4043 8.51554C20.8183 8.87261 21.1668 9.30183 21.4317 9.78414C21.8048 10.4632 22.0002 11.2255 22 12.0003V12.0007C21.9995 12.7722 21.8049 13.5311 21.4342 14.2076C21.1711 14.6879 20.8252 15.1158 20.4142 15.4723C20.4552 16.0187 20.3985 16.5698 20.2448 17.0993C20.0287 17.8438 19.6279 18.5216 19.0798 19.0698C18.5316 19.618 17.8538 20.0187 17.1093 20.2348C16.5804 20.3883 16.0301 20.4451 15.4845 20.4043C15.1274 20.8183 14.6982 21.1668 14.2159 21.4317C13.5368 21.8048 12.7745 22.0002 11.9997 22L11.9919 22L11.9919 22C11.2237 21.9938 10.4692 21.7952 9.79732 21.4225C9.32288 21.1593 8.90034 20.8151 8.54795 20.4071C8.00025 20.4508 7.44729 20.396 6.91562 20.2437C6.16693 20.0291 5.48497 19.628 4.93366 19.0779L4.9283 19.0725L4.92832 19.0725C4.38667 18.5238 3.99164 17.8477 3.77952 17.1064C3.62963 16.5826 3.57449 16.0381 3.61481 15.4983C3.19672 15.1417 2.84449 14.7118 2.57639 14.2279C2.19867 13.5463 2.00033 12.7798 2 12.0004L2.00001 11.9968C2.0025 11.2196 2.20186 10.4557 2.57948 9.77647C2.84696 9.29534 3.19769 8.86776 3.61364 8.51273C3.57232 7.97417 3.62604 7.43073 3.77414 6.90762C3.98401 6.16641 4.37666 5.48977 4.91607 4.93979L4.92064 4.93512L4.92066 4.93514C5.7425 4.10808 6.84774 3.62397 8.01288 3.58069L8.03455 3.58012C8.1935 3.57767 8.35232 3.58345 8.51036 3.59742C8.86657 3.184 9.29473 2.83584 9.7759 2.5708ZM11.9987 4C11.5589 3.99942 11.1261 4.11043 10.7408 4.32263C10.3556 4.53483 10.0305 4.84129 9.79591 5.21334C9.56713 5.57619 9.13243 5.75272 8.71545 5.65211C8.5062 5.60162 8.2915 5.57731 8.07628 5.57974C7.42279 5.60674 6.80337 5.87906 6.34164 6.34256C6.03794 6.65299 5.81682 7.03457 5.6985 7.45247C5.57988 7.87142 5.56838 8.31345 5.66504 8.73799C5.75949 9.1528 5.58116 9.58195 5.22055 9.80766C4.8482 10.0407 4.54096 10.3643 4.32753 10.7482C4.11438 11.1317 4.00171 11.5628 4 12.0014C4.0005 12.4413 4.11259 12.8738 4.32579 13.2586C4.53928 13.6439 4.84717 13.9686 5.22056 14.2024C5.58043 14.4276 5.75884 14.8555 5.66556 15.2697C5.56981 15.6949 5.58246 16.1373 5.70235 16.5562C5.82189 16.974 6.04421 17.3551 6.34898 17.6648C6.66012 17.9743 7.0446 18.2001 7.46658 18.3211C7.88975 18.4423 8.33678 18.4542 8.76578 18.3555C9.17885 18.2604 9.60695 18.4361 9.83417 18.7939C10.067 19.1605 10.3879 19.463 10.7676 19.6736C11.1462 19.8837 11.5713 19.9959 12.0042 20C12.4408 19.9995 12.8702 19.889 13.2529 19.6788C13.6367 19.4679 13.9611 19.1636 14.1959 18.7939C14.422 18.4379 14.8471 18.262 15.2586 18.3542C15.6862 18.45 16.131 18.4362 16.5518 18.314C16.9726 18.1919 17.3557 17.9654 17.6656 17.6556C17.9754 17.3457 18.2019 16.9626 18.324 16.5418C18.4462 16.121 18.46 15.6762 18.3642 15.2486C18.2722 14.8383 18.4469 14.4142 18.8011 14.1876C19.1684 13.9527 19.4707 13.6291 19.6802 13.2467C19.8897 12.8643 19.9997 12.4353 20 11.9993C20.0001 11.5615 19.8896 11.1308 19.6788 10.7471C19.4679 10.3633 19.1636 10.0389 18.7939 9.80415C18.4379 9.57805 18.262 9.1529 18.3542 8.74136C18.45 8.3138 18.4362 7.86896 18.314 7.44816C18.1919 7.02736 17.9654 6.64426 17.6556 6.33443C17.3457 6.0246 16.9626 5.79809 16.5418 5.67596C16.121 5.55382 15.6762 5.54001 15.2486 5.63581C14.8383 5.72775 14.4142 5.55314 14.1876 5.19889C13.9527 4.83159 13.6291 4.52928 13.2467 4.31978C12.8643 4.11028 12.4353 4.00031 11.9993 4L11.9987 4ZM15.7071 9.29289C16.0976 9.68342 16.0976 10.3166 15.7071 10.7071L11.7071 14.7071C11.3166 15.0976 10.6834 15.0976 10.2929 14.7071L8.29289 12.7071C7.90237 12.3166 7.90237 11.6834 8.29289 11.2929C8.68342 10.9024 9.31658 10.9024 9.70711 11.2929L11 12.5858L14.2929 9.29289C14.6834 8.90237 15.3166 8.90237 15.7071 9.29289Z" fill="black"/>
</svg>