<?xml version="1.0" encoding="UTF-8"?>
<svg width="24px" height="24px" viewBox="0 0 24 24" version="1.1" xmlns="http://www.w3.org/2000/svg" xmlns:xlink="http://www.w3.org/1999/xlink">
    <!-- Generator: Sketch 52.6 (67491) - http://www.bohemiancoding.com/sketch -->
    <title>icon/generate-url.inline</title>
    <desc>Created with Sketch.</desc>
    <g id="icon/generate-url.inline" stroke="none" stroke-width="1" fill="none" fillRule="evenodd">
        <rect id="Rectangle" x="0" y="0" width="24" height="24"></rect>
        <g id="Group-9-Copy-7" transform="translate(0.000000, 7.000000)" fill="#464749">
            <path d="M12.7604927,6.37035175 L11.5467262,6.36994511 C11.1086152,8.284137 9.56601723,9.70248116 7.73568531,9.70248116 L4.61002134,9.70248116 C2.44013767,9.70248116 0.674552984,7.7088024 0.674552984,5.25880293 C0.674552984,2.80880346 2.44013767,0.815294964 4.61002134,0.815294964 L7.73568531,0.815294964 C9.56588646,0.815294964 11.1085694,2.23351245 11.5467142,4.14766075 L12.759753,4.14725435 C13.1969078,2.23198381 14.7397411,0.813858753 16.5712996,0.815294964 L19.6954556,0.813592274 C21.8653392,0.813592274 23.6310747,2.80710077 23.6310747,5.25727051 C23.6310747,7.70948347 21.8672997,9.70248116 19.6971144,9.70248116 L19.6939475,9.70248116 L16.5712996,9.70248116 C14.7410973,9.70248116 13.1986954,8.28433787 12.7604927,6.37035175 Z M14.5017771,6.37093512 C14.8702163,7.24219236 15.6575604,7.84514031 16.5673788,7.84501753 C16.5681328,7.84501753 16.5690376,7.84501753 16.5697916,7.84501753 L19.6954556,7.84501753 C20.9582678,7.84654995 21.9874885,6.68463485 21.9859805,5.25880293 C21.9859805,3.83126832 20.9582678,2.67105591 19.6954556,2.67241806 L16.5712996,2.67105591 C15.6595208,2.67105591 14.8707463,3.27459567 14.5018482,4.14667071 L14.6939559,4.14660635 C15.2365399,4.14830904 15.6773329,4.64634563 15.6788409,5.25880293 C15.6773329,5.87126023 15.2365399,6.36929682 14.6939559,6.3709995 L14.5017771,6.37093512 Z M9.80373544,6.36936117 L9.61164166,6.36929682 C9.06754962,6.36929682 8.62796307,5.87296292 8.62796307,5.25880293 C8.62796307,4.64464294 9.06754962,4.14830904 9.61164166,4.14830904 L9.80435407,4.14824448 C9.43576432,3.27660456 8.64693426,2.6721617 7.73568531,2.67105591 L4.61002134,2.67105591 C3.34735986,2.67258833 2.31964722,3.83280074 2.3179884,5.25880293 C2.31949642,6.68463485 3.34735986,7.84501753 4.61002134,7.84654995 L7.73417729,7.84501753 C8.64603128,7.84501753 9.43481159,7.24143367 9.80373544,6.36936117 Z" id="Fill-8"></path>
        </g>
    </g>
</svg>