<?xml version="1.0" encoding="UTF-8"?>
<svg width="20px" height="20px" viewBox="0 0 20 20" version="1.1" xmlns="http://www.w3.org/2000/svg" xmlns:xlink="http://www.w3.org/1999/xlink">
    <!-- Generator: Sketch 52.6 (67491) - http://www.bohemiancoding.com/sketch -->
    <title>icon/info</title>
    <desc>Created with Sketch.</desc>
    <g id="icon/info" stroke="none" stroke-width="1" fill="none" fillRule="evenodd">
        <rect id="Rectangle" fill="#D8D8D8" opacity="0" x="0" y="0" width="20" height="20"></rect>
        <g id="information-(1)-copy" transform="translate(2.000000, 2.000000)" fill="#9B9B9B">
            <path d="M8,0 C3.5888,0 0,3.58884848 0,8.00004848 C0,12.4112485 3.5888,16 8,16 C12.4112,16 16,12.4112485 16,8.00004848 C16,3.58884848 12.4112,0 8,0 Z M8,14.5454545 C4.39078788,14.5454545 1.45454545,11.6092121 1.45454545,8.00004848 C1.45454545,4.39088485 4.39078788,1.45454545 8,1.45454545 C11.6092121,1.45454545 14.5454545,4.39088485 14.5454545,8.00004848 C14.5454545,11.6092121 11.6091636,14.5454545 8,14.5454545 Z" id="Shape" fillRule="nonzero"></path>
            <path d="M7.99990303,3.39393939 C7.46530909,3.39393939 7.0304,3.82913939 7.0304,4.36407273 C7.0304,4.89852121 7.46530909,5.33333333 7.99990303,5.33333333 C8.53449697,5.33333333 8.96940606,4.89852121 8.96940606,4.36407273 C8.96940606,3.82913939 8.53449697,3.39393939 7.99990303,3.39393939 Z" id="Path"></path>
            <path d="M8,6.78787879 C7.59835152,6.78787879 7.27272727,7.11350303 7.27272727,7.51515152 L7.27272727,11.8787879 C7.27272727,12.2804364 7.59835152,12.6060606 8,12.6060606 C8.40164848,12.6060606 8.72727273,12.2804364 8.72727273,11.8787879 L8.72727273,7.51515152 C8.72727273,7.11350303 8.40164848,6.78787879 8,6.78787879 Z" id="Path"></path>
        </g>
    </g>
</svg>