<svg width="20" height="20" viewBox="0 0 20 20" fill="none" xmlns="http://www.w3.org/2000/svg">
<path d="M10 5C9.44771 5 9 5.44771 9 6C9 6.55229 9.44771 7 10 7H10.01C10.5623 7 11.01 6.55229 11.01 6C11.01 5.44771 10.5623 5 10.01 5H10Z" fill="#4B6DDE"/>
<path d="M10 8C9.44771 8 9 8.44771 9 9V14C9 14.5523 9.44771 15 10 15C10.5523 15 11 14.5523 11 14V9C11 8.44772 10.5523 8 10 8Z" fill="#4B6DDE"/>
<path fill-rule="evenodd" clip-rule="evenodd" d="M0 10C0 4.47715 4.47715 0 10 0C15.5228 0 20 4.47715 20 10C20 15.5228 15.5228 20 10 20C4.47715 20 0 15.5228 0 10ZM10 2C5.58172 2 2 5.58172 2 10C2 14.4183 5.58172 18 10 18C14.4183 18 18 14.4183 18 10C18 5.58172 14.4183 2 10 2Z" fill="#4B6DDE"/>
</svg>
