<svg width="600" height="210" viewBox="0 0 600 210" fill="none" xmlns="http://www.w3.org/2000/svg">
<rect width="600" height="210" rx="8" fill="#F0F3F5"/>
<path d="M0 8C0 3.58172 3.58172 0 8 0H53.9326V210H8C3.58172 210 0 206.418 0 202V8Z" fill="#3154CB"/>
<path fill-rule="evenodd" clip-rule="evenodd" d="M13.5995 17.8721V19.0312C13.5995 19.3943 13.5995 19.7714 13.5995 20.1345V21.2657C13.5995 21.2936 13.5995 21.3215 13.6142 21.3355C20.1114 25.581 26.5643 29.8265 33.0468 34.072L35.6839 32.3403C28.3175 27.5222 20.9806 22.7181 13.5995 17.8721Z" fill="white"/>
<path fill-rule="evenodd" clip-rule="evenodd" d="M30.6652 16.414C29.472 17.179 28.2788 17.9162 27.0856 18.6811C26.9215 18.7785 26.8171 18.7924 26.653 18.6811C25.1914 17.7354 23.7148 16.7896 22.2382 15.8438C20.7019 14.8285 19.1657 13.8131 17.6145 12.8117C16.8837 12.3388 16.1529 11.866 15.422 11.3931H10.1123C10.3957 11.5739 10.6194 11.7269 10.8581 11.8799C12.2451 12.77 13.6322 13.6741 15.0193 14.5642C16.3915 15.4544 17.7637 16.3445 19.1359 17.2346C20.4186 18.0692 21.7162 18.9176 22.9989 19.7521C24.2219 20.5449 25.4598 21.3238 26.6829 22.1304C26.8171 22.2139 26.9066 22.2139 27.0408 22.1304C28.0252 21.4907 29.0245 20.8787 30.0238 20.2389C32.4699 18.6672 34.9159 17.0956 37.362 15.5378C39.1369 14.3973 40.9267 13.2568 42.7015 12.1302C43.0744 11.8938 43.4324 11.6573 43.8202 11.407H38.4955C35.8854 13.0621 33.2902 14.745 30.6652 16.414Z" fill="white"/>
<path fill-rule="evenodd" clip-rule="evenodd" d="M13.6301 26.5132C13.6148 26.5547 13.5995 26.5686 13.5995 26.5824C13.5995 26.8178 13.5995 27.0393 13.5995 27.2747V28.6593C13.5995 29.0747 13.5995 29.4901 13.5995 29.8916C13.5995 29.9193 13.6148 29.9332 13.6148 29.9609C18.1044 32.7716 22.5939 35.5685 27.1142 38.3931H27.1295L29.8722 36.6485C24.4327 33.2562 19.0391 29.8916 13.6301 26.5132Z" fill="white"/>
<path fill-rule="evenodd" clip-rule="evenodd" d="M39.1564 17.8721C36.0379 19.8533 32.9619 21.8215 29.8718 23.7897C29.9144 23.8418 29.9427 23.8679 29.9711 23.894C30.7507 24.4023 31.5445 24.9107 32.3241 25.419C32.3383 25.432 32.3808 25.432 32.4091 25.432C34.6488 24.0113 36.8884 22.5775 39.1422 21.1567C39.1564 21.1437 39.1564 21.1176 39.1705 21.1046V17.8721H39.1564Z" fill="white"/>
<path fill-rule="evenodd" clip-rule="evenodd" d="M39.17 25.4336C37.9917 26.2436 36.8453 27.0377 35.683 27.8318C36.6065 28.483 37.4981 29.1183 38.3898 29.7536L39.17 29.2136V25.4336Z" fill="white"/>
<rect x="82.2463" y="21.6001" width="486.742" height="34.8" rx="4" fill="white"/>
<rect x="82.2463" y="70.7998" width="486.742" height="34.8" rx="4" fill="white"/>
<rect x="82.2463" y="120" width="486.742" height="34.8" rx="4" fill="white"/>
<rect x="222.472" y="165.6" width="191.461" height="26.4" rx="4" fill="#4B6DDE"/>
</svg>
