<?xml version="1.0" encoding="UTF-8"?>
<svg width="66px" height="50px" viewBox="0 0 66 50" version="1.1" xmlns="http://www.w3.org/2000/svg" xmlns:xlink="http://www.w3.org/1999/xlink">
    <title>icon/nft-no image</title>
    <g id="✅-Assets" stroke="none" stroke-width="1" fill="none" fillRule="evenodd">
        <g id="Icons" transform="translate(-329.000000, -942.000000)" fill="#A7AFC0">
            <g id="Group-24" transform="translate(329.000000, 942.000000)">
                <polygon id="Fill-1" points="6.94910526 3.44181086 59.0543684 3.44181086 59.0543684 0 6.94910526 0"></polygon>
                <polygon id="Fill-2" points="6.94910526 50 59.0543684 50 59.0543684 46.5581891 6.94910526 46.5581891"></polygon>
                <polygon id="Fill-3" points="62.5263158 43.1180983 66 43.1180983 66 6.88190168 62.5263158 6.88190168"></polygon>
                <polygon id="Fill-4" points="59.0526316 6.88190168 62.5263158 6.88190168 62.5263158 3.44181086 59.0526316 3.44181086"></polygon>
                <polygon id="Fill-5" points="59.0526316 46.5599092 62.5263158 46.5599092 62.5263158 43.1198184 59.0526316 43.1198184"></polygon>
                <polygon id="Fill-6" points="0 43.1180983 3.47368421 43.1180983 3.47368421 6.88190168 0 6.88190168"></polygon>
                <polygon id="Fill-7" points="3.47368421 6.88190168 6.94736842 6.88190168 6.94736842 3.44181086 3.47368421 3.44181086"></polygon>
                <polygon id="Fill-8" points="3.47368421 46.5599092 6.94736842 46.5599092 6.94736842 43.1198184 3.47368421 43.1198184"></polygon>
                <polygon id="Fill-9" points="59.0526316 39.6848877 62.5263158 39.6848877 62.5263158 36.2447969 59.0526316 36.2447969"></polygon>
                <polygon id="Fill-10" points="55.5789474 36.2447969 59.0526316 36.2447969 59.0526316 29.3646152 55.5789474 29.3646152"></polygon>
                <polygon id="Fill-11" points="38.1931579 29.393856 41.6668421 29.393856 41.6668421 22.5136744 38.1931579 22.5136744"></polygon>
                <polygon id="Fill-12" points="41.6668421 22.5136744 48.6142105 22.5136744 48.6142105 19.0735835 41.6668421 19.0735835"></polygon>
                <polygon id="Fill-13" points="20.8490526 32.802298 13.9016842 32.804018 13.9016842 36.2441088 20.8490526 36.2423888"></polygon>
                <polygon id="Fill-14" points="52.1052632 29.393856 55.5789474 29.393856 55.5789474 25.9537652 52.1052632 25.9537652"></polygon>
                <polygon id="Fill-15" points="20.8455789 32.8133063 24.3192632 32.8133063 24.3192632 29.3732155 20.8455789 29.3732155"></polygon>
                <polygon id="Fill-16" points="24.321 36.2447969 27.7946842 36.2447969 27.7946842 32.804706 24.321 32.804706"></polygon>
                <polygon id="Fill-17" points="27.7946842 39.6848877 31.2683684 39.6848877 31.2683684 36.2447969 27.7946842 36.2447969"></polygon>
                <polygon id="Fill-18" points="6.94736842 43.1198184 10.4210526 43.1198184 10.4210526 39.6797275 6.94736842 39.6797275"></polygon>
                <polygon id="Fill-19" points="3.47368421 43.1198184 6.94736842 43.1198184 6.94736842 39.6797275 3.47368421 39.6797275"></polygon>
                <polygon id="Fill-20" points="10.4227895 39.6848877 13.8964737 39.6848877 13.8964737 36.2447969 10.4227895 36.2447969"></polygon>
                <polygon id="Fill-21" points="34.7298947 32.8133063 38.2035789 32.8133063 38.2035789 29.3732155 34.7298947 29.3732155"></polygon>
                <polygon id="Fill-22" points="31.2631579 36.2447969 34.7368421 36.2447969 34.7368421 32.804706 31.2631579 32.804706"></polygon>
                <polygon id="Fill-23" points="48.6315789 25.9537652 52.1052632 25.9537652 52.1052632 22.5136744 48.6315789 22.5136744"></polygon>
                <path d="M12.5462857,20 C12.6292571,20 12.6990286,19.97375 12.7556,19.92125 C12.8121714,19.86875 12.8404571,19.80125 12.8404571,19.71875 L12.8404571,19.71875 L12.8404571,15.75875 L15.4993143,19.78625 C15.5822857,19.92875 15.7105143,20 15.884,20 L15.884,20 L17.1625143,20 C17.2454857,20 17.3133714,19.971875 17.3661714,19.915625 C17.4189714,19.859375 17.4453714,19.79 17.4453714,19.7075 L17.4453714,19.7075 L17.4453714,12.4175 C17.4453714,12.335 17.4189714,12.265625 17.3661714,12.209375 C17.3133714,12.153125 17.2454857,12.125 17.1625143,12.125 L17.1625143,12.125 L15.7256,12.125 C15.6426286,12.125 15.5747429,12.153125 15.5219429,12.209375 C15.4691429,12.265625 15.4427429,12.335 15.4427429,12.4175 L15.4427429,12.4175 L15.4427429,16.535 L12.7725714,12.33875 C12.6896,12.19625 12.5613714,12.125 12.3878857,12.125 L12.3878857,12.125 L11.1093714,12.125 C11.0264,12.125 10.9585143,12.153125 10.9057143,12.209375 C10.8529143,12.265625 10.8265143,12.335 10.8265143,12.4175 L10.8265143,12.4175 L10.8265143,19.71875 C10.8265143,19.79375 10.8548,19.859375 10.9113714,19.915625 C10.9679429,19.971875 11.0339429,20 11.1093714,20 L11.1093714,20 L12.5462857,20 Z M22.5933714,20 C22.6763429,20 22.7461143,19.97375 22.8026857,19.92125 C22.8592571,19.86875 22.8875429,19.80125 22.8875429,19.71875 L22.8875429,19.71875 L22.8875429,13.95875 L24.8788571,13.95875 C24.9618286,13.95875 25.0316,13.9325 25.0881714,13.88 C25.1447429,13.8275 25.1730286,13.76 25.1730286,13.6775 L25.1730286,13.6775 L25.1730286,12.4175 C25.1730286,12.335 25.1447429,12.265625 25.0881714,12.209375 C25.0316,12.153125 24.9618286,12.125 24.8788571,12.125 L24.8788571,12.125 L18.7352,12.125 C18.6522286,12.125 18.5824571,12.153125 18.5258857,12.209375 C18.4693143,12.265625 18.4410286,12.335 18.4410286,12.4175 L18.4410286,12.4175 L18.4410286,13.6775 C18.4410286,13.76 18.4693143,13.8275 18.5258857,13.88 C18.5824571,13.9325 18.6522286,13.95875 18.7352,13.95875 L18.7352,13.95875 L20.7265143,13.95875 L20.7265143,19.71875 C20.7265143,19.80125 20.7548,19.86875 20.8113714,19.92125 C20.8679429,19.97375 20.9377143,20 21.0206857,20 L21.0206857,20 L22.5933714,20 Z M27.9676571,20 C28.0506286,20 28.1185143,19.971875 28.1713143,19.915625 C28.2241143,19.859375 28.2505143,19.79375 28.2505143,19.71875 L28.2505143,19.71875 L28.2505143,17.22125 L31.4864,17.22125 C31.5693714,17.22125 31.6391429,17.195 31.6957143,17.1425 C31.7522857,17.09 31.7805714,17.0225 31.7805714,16.94 L31.7805714,16.94 L31.7805714,15.7475 C31.7805714,15.665 31.7522857,15.595625 31.6957143,15.539375 C31.6391429,15.483125 31.5693714,15.455 31.4864,15.455 L31.4864,15.455 L28.2505143,15.455 L28.2505143,13.89125 L31.7126857,13.89125 C31.7956571,13.89125 31.8654286,13.865 31.922,13.8125 C31.9785714,13.76 32.0068571,13.6925 32.0068571,13.61 L32.0068571,13.61 L32.0068571,12.4175 C32.0068571,12.335 31.9785714,12.265625 31.922,12.209375 C31.8654286,12.153125 31.7956571,12.125 31.7126857,12.125 L31.7126857,12.125 L26.4515429,12.125 C26.3685714,12.125 26.3006857,12.153125 26.2478857,12.209375 C26.1950857,12.265625 26.1686857,12.335 26.1686857,12.4175 L26.1686857,12.4175 L26.1686857,19.71875 C26.1686857,19.79375 26.1969714,19.859375 26.2535429,19.915625 C26.3101143,19.971875 26.3761143,20 26.4515429,20 L26.4515429,20 L27.9676571,20 Z" id="NTF" fillRule="nonzero"></path>
            </g>
        </g>
    </g>
</svg>