<svg width="17" height="16" viewBox="0 0 17 16" fill="none" xmlns="http://www.w3.org/2000/svg">
<path d="M13.6382 3.80482C13.8985 3.54447 13.8985 3.12236 13.6382 2.86201C13.3778 2.60166 12.9557 2.60166 12.6953 2.86201L8.50008 7.05727L4.30482 2.86201C4.04447 2.60166 3.62236 2.60166 3.36201 2.86201C3.10166 3.12236 3.10166 3.54447 3.36201 3.80482L7.55727 8.00008L3.36201 12.1953C3.10166 12.4557 3.10166 12.8778 3.36201 13.1382C3.62236 13.3985 4.04447 13.3985 4.30482 13.1382L8.50008 8.94289L12.6953 13.1382C12.9557 13.3985 13.3778 13.3985 13.6382 13.1382C13.8985 12.8778 13.8985 12.4557 13.6382 12.1953L9.44289 8.00008L13.6382 3.80482Z" fill="#E80742"/>
</svg>
