<svg width="16" height="16" viewBox="0 0 16 16" fill="none" xmlns="http://www.w3.org/2000/svg">
<path d="M13.6382 3.8047C13.8985 3.54435 13.8985 3.12224 13.6382 2.86189C13.3778 2.60154 12.9557 2.60154 12.6953 2.86189L8.50008 7.05715L4.30482 2.86189C4.04447 2.60154 3.62236 2.60154 3.36201 2.86189C3.10166 3.12224 3.10166 3.54435 3.36201 3.8047L7.55727 7.99996L3.36201 12.1952C3.10166 12.4556 3.10166 12.8777 3.36201 13.138C3.62236 13.3984 4.04447 13.3984 4.30482 13.138L8.50008 8.94277L12.6953 13.138C12.9557 13.3984 13.3778 13.3984 13.6382 13.138C13.8985 12.8777 13.8985 12.4556 13.6382 12.1952L9.44289 7.99996L13.6382 3.8047Z" fill="#E80742"/>
</svg>
