<?xml version="1.0" encoding="UTF-8"?>
<svg width="223px" height="140px" viewBox="0 0 223 140" version="1.1" xmlns="http://www.w3.org/2000/svg" xmlns:xlink="http://www.w3.org/1999/xlink">
    <title>ledger-voting</title>
    <defs>
        <linearGradient x1="52.2934336%" y1="85.1880668%" x2="47.70659%" y2="14.8119332%" id="linearGradient-1">
            <stop stop-color="#17D1AA" offset="0%"></stop>
            <stop stop-color="#1AC2AE" offset="6.59%"></stop>
            <stop stop-color="#229BB8" offset="26.51%"></stop>
            <stop stop-color="#297CC0" offset="46.16%"></stop>
            <stop stop-color="#2D66C6" offset="65.25%"></stop>
            <stop stop-color="#3059CA" offset="83.49%"></stop>
            <stop stop-color="#3154CB" offset="100%"></stop>
        </linearGradient>
        <linearGradient x1="52.7698102%" y1="0.712639112%" x2="48.0042046%" y2="89.0998525%" id="linearGradient-2">
            <stop stop-color="#17D1AA" offset="0%"></stop>
            <stop stop-color="#1CB9B0" offset="22.74%"></stop>
            <stop stop-color="#297DC0" offset="70.39%"></stop>
            <stop stop-color="#3154CB" offset="100%"></stop>
        </linearGradient>
        <linearGradient x1="21.7217783%" y1="15.6157023%" x2="-18.5145551%" y2="71.2719843%" id="linearGradient-3">
            <stop stop-color="#17D1AA" offset="0%"></stop>
            <stop stop-color="#1AC2AE" offset="6.59%"></stop>
            <stop stop-color="#229BB8" offset="26.51%"></stop>
            <stop stop-color="#297CC0" offset="46.16%"></stop>
            <stop stop-color="#2D66C6" offset="65.25%"></stop>
            <stop stop-color="#3059CA" offset="83.49%"></stop>
            <stop stop-color="#3154CB" offset="100%"></stop>
        </linearGradient>
        <linearGradient x1="43.1968783%" y1="21.1138785%" x2="66.5258084%" y2="98.7828079%" id="linearGradient-4">
            <stop stop-color="#3154CB" offset="0%"></stop>
            <stop stop-color="#3059CA" offset="16.51%"></stop>
            <stop stop-color="#2D66C6" offset="34.75%"></stop>
            <stop stop-color="#297CC0" offset="53.84%"></stop>
            <stop stop-color="#229BB8" offset="73.49%"></stop>
            <stop stop-color="#1AC2AE" offset="93.41%"></stop>
            <stop stop-color="#17D1AA" offset="100%"></stop>
        </linearGradient>
        <linearGradient x1="57.5133615%" y1="85.2542884%" x2="43.5208776%" y2="16.2559467%" id="linearGradient-5">
            <stop stop-color="#3154CB" offset="0%"></stop>
            <stop stop-color="#297DC0" offset="29.61%"></stop>
            <stop stop-color="#1CB9B0" offset="77.26%"></stop>
            <stop stop-color="#17D1AA" offset="100%"></stop>
        </linearGradient>
        <linearGradient x1="56.8714855%" y1="86.2993203%" x2="44.0206228%" y2="18.417871%" id="linearGradient-6">
            <stop stop-color="#17D1AA" offset="0%"></stop>
            <stop stop-color="#1CB9B0" offset="22.74%"></stop>
            <stop stop-color="#297DC0" offset="70.39%"></stop>
            <stop stop-color="#3154CB" offset="100%"></stop>
        </linearGradient>
        <linearGradient x1="79.2860774%" y1="43.0989184%" x2="21.5672527%" y2="57.625965%" id="linearGradient-7">
            <stop stop-color="#17D1AA" offset="0%"></stop>
            <stop stop-color="#1CB9B0" offset="22.74%"></stop>
            <stop stop-color="#297DC0" offset="70.39%"></stop>
            <stop stop-color="#3154CB" offset="100%"></stop>
        </linearGradient>
        <linearGradient x1="60.4511245%" y1="60.746931%" x2="38.1750121%" y2="36.917016%" id="linearGradient-8">
            <stop stop-color="#3154CB" offset="0%"></stop>
            <stop stop-color="#297DC0" offset="29.61%"></stop>
            <stop stop-color="#1CB9B0" offset="77.26%"></stop>
            <stop stop-color="#17D1AA" offset="100%"></stop>
        </linearGradient>
        <linearGradient x1="49.8786045%" y1="10.1422746%" x2="50.1212668%" y2="92.8448794%" id="linearGradient-9">
            <stop stop-color="#3154CB" offset="0%"></stop>
            <stop stop-color="#297DC0" offset="29.61%"></stop>
            <stop stop-color="#1CB9B0" offset="77.26%"></stop>
            <stop stop-color="#17D1AA" offset="100%"></stop>
        </linearGradient>
        <linearGradient x1="45.1234398%" y1="96.8566072%" x2="54.8773415%" y2="2.9920012%" id="linearGradient-10">
            <stop stop-color="#17D1AA" offset="0%"></stop>
            <stop stop-color="#1AC2AE" offset="6.59%"></stop>
            <stop stop-color="#229BB8" offset="26.51%"></stop>
            <stop stop-color="#297CC0" offset="46.16%"></stop>
            <stop stop-color="#2D66C6" offset="65.25%"></stop>
            <stop stop-color="#3059CA" offset="83.49%"></stop>
            <stop stop-color="#3154CB" offset="100%"></stop>
        </linearGradient>
        <linearGradient x1="45.2435271%" y1="94.7558368%" x2="55.7174832%" y2="5.28582696%" id="linearGradient-11">
            <stop stop-color="#17D1AA" offset="0%"></stop>
            <stop stop-color="#1AC2AE" offset="6.59%"></stop>
            <stop stop-color="#229BB8" offset="26.51%"></stop>
            <stop stop-color="#297CC0" offset="46.16%"></stop>
            <stop stop-color="#2D66C6" offset="65.25%"></stop>
            <stop stop-color="#3059CA" offset="83.49%"></stop>
            <stop stop-color="#3154CB" offset="100%"></stop>
        </linearGradient>
    </defs>
    <g id="Simple-level--(1366x768)" stroke="none" stroke-width="1" fill="none" fill-rule="evenodd">
        <g id="Register-to-vote-Ledger" transform="translate(-906.000000, -418.000000)">
            <g id="ledger-voting" transform="translate(906.000000, 418.000000)">
                <g id="Layer_7" transform="translate(0.000000, 15.689655)" opacity="0.2" stroke="#1D45B9" stroke-width="0.5">
                    <g id="Group">
                        <line x1="75.9767027" y1="122.475862" x2="222.752892" y2="38.1982759" id="Path"></line>
                        <line x1="20.2025946" y1="80.487931" x2="157.118568" y2="1.87068966" id="Path"></line>
                        <line x1="82.4437027" y1="0.386206897" x2="213.700297" y2="75.6543103" id="Path"></line>
                        <line x1="0.452027027" y1="49.5431034" x2="130.063243" y2="123.869828" id="Path"></line>
                    </g>
                </g>
                <g id="Ledger-voting" transform="translate(61.000000, 0.000000)">
                    <path d="M40.3903246,124 C40.0282416,124 39.7347153,123.706474 39.7347153,123.344391 L39.7347153,111.173331 C39.7347153,110.811248 40.0282416,110.517722 40.3903246,110.517722 C40.7524077,110.517722 41.045934,110.811248 41.045934,111.173331 L41.045934,123.344391 C41.045934,123.706474 40.7524077,124 40.3903246,124 Z" id="Path" fill="url(#linearGradient-1)" fill-rule="nonzero"></path>
                    <path d="M0.51413203,21.9832199 L28.6818302,65.6300513 C31.6604601,70.2652093 37.6618097,69.6093377 42.0862221,64.1647644 C46.5106345,58.720191 47.6827329,50.5490696 44.704103,45.9138132 L16.5364048,2.2671129 C15.6915866,0.952616172 13.9893626,1.1385142 12.7345918,2.68270367 L1.25657683,16.8069219 C0.00174054818,18.3510458 -0.330686169,20.668592 0.51413203,21.9832199 Z M28.8806437,63.8665933 C26.6166607,60.343447 28.1761259,53.703075 32.3636667,49.0349398 C36.5512074,44.3668046 41.7814949,43.4384945 44.0453139,46.9616408 C46.309133,50.4847871 44.7498973,57.1250935 40.5622254,61.7933271 C36.3745535,66.4615606 31.1444955,67.3897395 28.8806437,63.8665933 Z" id="Shape" fill="url(#linearGradient-2)"></path>
                    <path d="M45.5930765,105.609338 L45.5930765,112.187821 C45.5930765,112.872622 45.2315649,113.506552 44.6421807,113.855232 L38.206621,118.302427 C36.5610416,118.494783 35.3966794,117.493241 35.3966794,116.043853 L35.3966794,110.614424 L45.5930765,105.609338 Z" id="Path" fill="url(#linearGradient-3)" fill-rule="nonzero"></path>
                    <path d="M46.989721,106.053317 L46.989721,112.631767 C46.989721,113.316579 46.6282196,113.950524 46.0388253,114.299211 L39.6171317,118.098467 C39.0387228,118.440655 38.3212308,118.44637 37.7374441,118.11344 C37.1536575,117.78051 36.7932584,117.160077 36.7932584,116.488028 L36.7932584,111.05837 L46.989721,106.053317 Z" id="Path" fill="url(#linearGradient-4)" fill-rule="nonzero"></path>
                    <path d="M33.1987818,56.3470491 C33.1987818,59.635979 35.5899202,60.9551961 38.5395395,59.2935542 C41.4891587,57.6319123 43.8802315,53.6187308 43.8802315,50.329801 C43.8802315,47.0408712 41.4891259,45.7216869 38.5395395,47.3833287 C35.589953,49.0449706 33.1987818,53.0581849 33.1987818,56.3470491 Z M25.1786144,113.84071 L25.1786144,51.2578488 C25.1786144,48.9649207 26.854778,46.161863 28.922406,44.9971074 L44.0513455,36.4744154 C45.7362615,35.5205038 49.9109852,35.9353734 52.0643668,36.4641224 L50.1372359,100.165519 C50.1372359,102.45848 48.4611051,105.261505 46.3934444,106.42626 L30.3402923,118.488751 C27.0541816,117.903685 25.1786144,116.133475 25.1786144,113.840547 L25.1786144,113.84071 Z" id="Shape" fill="url(#linearGradient-5)"></path>
                    <path d="M35.389566,57.2044222 C35.389566,60.4933521 37.7807044,61.8125364 40.7303236,60.1509273 C43.6799428,58.4893182 46.0710157,54.4760712 46.0710157,51.1871414 C46.0710157,47.8982115 43.6799101,46.57906 40.7303236,48.2406691 C37.7807372,49.9022782 35.389566,53.9156891 35.389566,57.2044222 Z M28.555527,115.956001 L28.555527,52.9881986 C28.555527,50.6952704 30.2316579,47.8922455 32.2993186,46.7274571 L49.7703242,36.8853841 C51.8379521,35.7206286 53.5141158,36.6351708 53.5141158,38.9280989 L53.5141158,101.895902 C53.5141158,104.18883 51.8379521,106.991855 49.7703242,108.156643 L32.2993186,117.998716 C30.2316906,119.163439 28.555527,118.248897 28.555527,115.956001 Z" id="Shape" fill="url(#linearGradient-6)"></path>
                    <path d="M36.6670536,108.618618 L46.0265326,103.346077 C47.4049184,102.569573 48.5223718,100.700693 48.5223718,99.1722709 L48.5223718,73.5699721 C48.5223718,72.0413534 47.4049184,71.4316695 46.0264998,72.2081732 L36.6670536,77.4807146 C35.288635,78.2572183 34.1711816,80.1260983 34.1711816,81.6545204 L34.1711816,107.256819 C34.1711816,108.785405 35.2886677,109.395122 36.6670536,108.618618 Z" id="Path" fill="#2C30D1"></path>
                    <path d="M5.10792113,20.519867 L33.0532694,64.3094246 C36.0082973,68.95976 42.0129905,68.3343415 46.465168,62.9124522 C50.9173455,57.4905629 52.1310423,49.3254403 49.1761126,44.6750721 L21.2306989,0.885514555 C20.3926007,-0.433407539 18.6895243,-0.255999651 17.4267879,1.28176484 L5.87675421,15.3474044 C4.61405061,16.8851361 4.26982293,19.200945 5.10792113,20.519867 Z M35.5029537,60.0732704 C33.9172641,57.5778901 35.0421259,52.8954626 38.0153142,49.6148918 C40.9885026,46.334321 44.6843036,45.697626 46.2699931,48.1931046 C47.8556826,50.6885832 46.7308537,55.3708796 43.757567,58.6515487 C40.7842803,61.9322179 37.0886432,62.5687162 35.5029537,60.0732704 L35.5029537,60.0732704 Z" id="Shape" fill="url(#linearGradient-7)"></path>
                    <path d="M19.8906661,0.0125051551 C19.8906661,0.0125051551 15.5689549,-0.271701495 13.2413451,1.86968252 C12.0846207,2.93390039 0.845018065,17.1185986 0.845018065,17.1185986 C0.845018065,17.1185986 -0.491048214,19.1546589 0.196817108,21.2780793 C0.196817108,21.2780793 1.78732537,19.9933144 5.04737561,20.2026505 C5.04737561,20.2026505 4.04534229,17.5285839 6.25641758,14.8850686 C8.16689598,12.6008929 16.6719193,2.20122416 16.6719193,2.20122416 C16.6719193,2.20122416 18.1014099,0.361387667 19.8906661,0.0125051551 Z" id="Path" fill="url(#linearGradient-8)"></path>
                    <path d="M34.6615774,67.0792757 C35.2042253,67.3579097 37.6812157,67.3671866 37.6812157,67.3671866 C36.7747145,67.2710047 35.9048356,66.957381 35.1455154,66.4529721 C33.9230007,65.6641757 33.3449499,64.7740877 32.3975289,63.2819208 L5.04737561,20.2026505 C4.87659582,19.9338792 4.58097896,19.7702664 4.26254566,19.7682765 C3.51547756,19.7682765 2.77232706,19.8761956 2.05609242,20.0886072 C1.27555672,20.3147924 0.0548449049,20.8872705 0.196817108,21.2782104 C0.375259248,21.7102113 0.592211941,22.1252794 0.845050845,22.5183938 L25.1784505,60.2016715 L25.1784505,58.4887282 L1.36999725,22.0634337 C1.32333463,21.9920397 1.3141009,21.90248 1.34521512,21.8230672 C1.37632934,21.7436543 1.44394543,21.6842046 1.52668788,21.663512 L3.40828669,21.1930795 C4.06331607,21.0293097 4.74914741,21.3072216 5.10539704,21.8807809 L32.3877603,65.1291985 C33.1580685,66.3503037 33.8012868,66.637395 34.6615774,67.0792757 Z" id="Path" fill="url(#linearGradient-9)"></path>
                    <g id="bad40ed3-86e6-4f23-ad04-ccd4a368433c" transform="translate(12.868006, 10.054480)" fill-rule="nonzero">
                        <path d="M5.34738135,14.7178008 L9.84899178,8.68776831 L10.0939602,9.09096805 L5.88927526,14.7230784 L7.56671732,17.4829315 L7.26979185,17.8806897 L5.34738135,14.7178008 L5.34738135,14.7178008 Z M8.41891112,19.9572995 C8.04396165,19.3334343 7.88890368,18.6019092 7.97850555,17.8795752 C8.09333424,17.0690581 8.4201334,16.3032285 8.92586105,15.6595181 C9.45739632,14.9474935 9.99247189,14.5220358 10.513878,14.4462802 C11.050232,14.3475782 11.4764764,14.5820241 11.8314889,15.1661392 C12.1396756,15.6956073 12.2555411,16.3152669 12.1594902,16.9203204 C12.0439362,17.6324023 11.7491924,18.3034017 11.3029694,18.8702337 L11.0524611,19.2058073 L9.15496373,16.0838612 C8.73353662,16.6112869 8.46084349,17.241829 8.36515116,17.9101266 C8.27841613,18.4842672 8.40305261,19.0703731 8.71590215,19.5595413 C8.83882303,19.7697391 8.98573445,19.9649537 9.15368529,20.1412635 C9.33349242,20.3238217 9.53538577,20.4832199 9.75468238,20.6157608 L9.45775691,21.013519 C9.24823279,20.8938163 9.05466276,20.7481348 8.8816402,20.5799317 C8.70637824,20.3888673 8.55131297,20.1802168 8.41891112,19.9572995 L8.41891112,19.9572995 Z M11.5491179,15.5442292 C11.3808242,15.1853234 11.0202931,14.9559886 10.6238892,14.9556886 C10.1431572,15.0656632 9.71933134,15.3478562 9.43245039,15.7489759 L11.0485274,18.4080619 C11.4071853,17.9612012 11.6511006,17.4333971 11.7590113,16.870658 C11.8615299,16.4178511 11.7863525,15.9429677 11.5489868,15.5439669 L11.5491179,15.5442292 Z M14.0928822,18.9343851 C14.2733182,19.2335627 14.397139,19.5633997 14.4581549,19.9074077 C14.5001946,20.3132716 14.471131,20.7233579 14.3722701,21.119236 L14.3847267,21.139691 C14.6374313,20.7640268 14.8879396,20.4283548 15.138448,20.0929123 L16.3408027,18.4822441 L16.5733473,18.8648249 L11.7748114,25.2927467 L11.6159573,25.0314208 L12.0703929,24.2399037 C11.4990949,24.4196717 11.0024709,24.2080738 10.6350346,23.6035037 C10.2714689,23.0207194 10.1311456,22.326031 10.2399972,21.647821 C10.3712378,20.863183 10.7051584,20.1264355 11.2086928,19.5105346 C11.786678,18.7362927 12.3229336,18.3092616 12.8182137,18.1941366 C13.3147722,18.0773725 13.7378369,18.3503683 14.0928494,18.9344506 L14.0928822,18.9343851 Z M13.8265081,19.2912004 C13.5451861,18.8283402 13.2004012,18.6331981 12.7867117,18.747602 C12.3898058,18.8422719 11.9413034,19.224077 11.4412046,19.893017 C10.4881125,21.1697835 10.3126387,22.2816641 10.8877392,23.2278395 C11.1815178,23.7111547 11.5115843,23.9260635 11.86522,23.8549299 C12.2188557,23.7837962 12.6508366,23.4222277 13.1677191,22.7299698 L13.214169,22.6676869 C13.6511666,22.1357246 13.9597626,21.5102546 14.1160252,20.8397825 C14.2364931,20.3057415 14.1317941,19.7456593 13.8265409,19.2912004 L13.8265081,19.2912004 Z M17.6645763,25.0004761 L17.445865,25.2934679 L16.8607009,24.4693014 C16.7976356,24.9613143 16.6156587,25.4305569 16.3305096,25.8364435 C16.1133792,26.2083633 15.7214076,26.443702 15.2910738,26.4605181 C14.9169503,26.4504217 14.602684,26.2143695 14.320477,25.7499359 C14.2292192,25.6170655 14.1524263,25.4748206 14.0914071,25.3256255 C13.9564155,25.2558514 13.8024766,25.2316113 13.6525749,25.2565243 C13.5083204,25.2979008 13.3829288,25.3881234 13.2978575,25.511753 C13.1947618,25.647511 13.1459243,25.8168002 13.1608679,25.9866109 C13.1946575,26.2111873 13.2766861,26.4257812 13.4013127,26.6156352 L13.8539126,27.3603091 C14.115289,27.7676473 14.2637043,28.2371369 14.2839595,28.7206985 C14.2883972,29.1768575 14.1391672,29.6212334 13.8603048,29.9822548 C13.5010636,30.463472 13.1246455,30.6392737 12.7175777,30.5276234 C12.3105098,30.4159731 11.8978038,30.0177232 11.4815574,29.3328737 C11.1680707,28.8540232 10.9882819,28.3000799 10.9608069,27.728401 C10.9307776,27.2470756 11.0737794,26.7708677 11.3640066,26.385713 C11.5308142,26.1209628 11.8040666,25.9413888 12.1132698,25.8933176 C12.403111,25.8880389 12.6814816,26.0064567 12.8786937,26.218926 C12.8462499,26.0360154 12.8473607,25.8487276 12.8819717,25.6662146 C12.9064691,25.4943049 12.9721581,25.3308641 13.0734424,25.189816 C13.2821337,24.8965289 13.668608,24.7909536 13.9974255,24.9374064 C13.9271205,24.5778648 13.9339809,24.2074909 14.0175527,23.8507995 C14.1034361,23.4892254 14.2640021,23.1496138 14.4889358,22.8537816 C14.718539,22.4760296 15.1079198,22.2236478 15.5464992,22.1683093 C15.9206227,22.1784056 16.234889,22.4144578 16.5170633,22.8788914 C16.6690896,23.1089038 16.78431,23.3612208 16.8585702,23.626745 L17.6786064,24.9759891 L17.6627406,24.9972636 L17.6646419,25.0005416 L17.6645763,25.0004761 Z M11.6267749,26.7306291 C11.1734538,27.3378873 11.2077421,28.0945588 11.7464563,28.9809098 C12.4316118,30.1081645 13.0559486,30.2952864 13.6194667,29.5422753 C13.8132583,29.3036464 13.9124409,29.002038 13.8981006,28.6949658 C13.8580632,28.3172268 13.7255715,27.9551714 13.5123401,27.6408116 L13.0836699,26.935507 C12.591504,26.1695914 12.1119258,26.0807891 11.6268076,26.7306291 L11.6267749,26.7306291 Z M14.7118102,23.2206606 C14.4625603,23.5435327 14.3143012,23.9328724 14.2856641,24.339753 C14.2617213,24.7252083 14.356372,25.1087533 14.5568897,25.4388165 C14.776945,25.8009095 15.0264371,25.9779568 15.277011,25.9707779 C15.5400087,25.984054 15.7916643,25.7926161 16.0580384,25.4358007 C16.3232051,25.1037222 16.4822929,24.6995263 16.5146047,24.2757983 C16.5378322,23.882967 16.4391071,23.4925545 16.2319388,23.1579843 C16.0242745,22.8163463 15.7738318,22.6377256 15.5074905,22.6662773 C15.2457712,22.6511328 14.9782498,22.8638452 14.711843,23.2206606 L14.7118102,23.2206606 Z" id="Shape" fill="url(#linearGradient-10)"></path>
                        <path d="M15.4453715,31.5177902 C15.0704339,30.8939203 14.9153768,30.1623993 15.0049659,29.4400658 C15.1198092,28.6295627 15.4466071,27.8637474 15.9523214,27.2200415 C16.4838894,26.508017 17.0189322,26.0825593 17.5403383,26.0067708 C18.0766923,25.9081016 18.5029368,26.1425475 18.8581131,26.7266299 C19.1662998,27.256098 19.2821654,27.8757576 19.1861145,28.480811 C19.0705547,29.1929012 18.7758117,29.8639098 18.3295937,30.4307571 L18.0790853,30.766298 L16.1940118,27.6648069 C15.7726104,28.192257 15.4999308,28.8228053 15.404232,29.491105 C15.3174939,30.0652457 15.4421306,30.6513527 15.754983,31.1405198 C15.877916,31.350708 16.0248384,31.5459115 16.1927989,31.7222092 C16.3725983,31.9047719 16.5744799,32.0641805 16.7937632,32.1967392 L16.4965099,32.594563 C16.2870046,32.4748468 16.0934471,32.3291665 15.920426,32.1609757 C15.7402838,31.9635726 15.5810617,31.7480504 15.4453059,31.5178558 L15.4453715,31.5177902 Z M18.5880349,27.1252076 C18.4197411,26.7663018 18.0592101,26.536967 17.6628062,26.5366671 C17.1820668,26.6466247 16.7582354,26.9288213 16.4713673,27.3299544 L18.0874443,29.9890403 C18.4461185,29.5421857 18.6900457,29.0143802 18.797961,28.4516364 C18.9004455,27.9988284 18.8252701,27.5239578 18.5879365,27.1249454 L18.5880349,27.1252076 Z M21.204539,30.6349794 C21.3265443,30.8407353 21.4298138,31.0570383 21.5131015,31.2812791 L21.1673987,31.5987579 C21.0911604,31.380231 20.9918888,31.1704354 20.8712599,30.9729133 C20.7016618,30.6386613 20.3260417,30.463077 19.9608153,30.5473245 C19.4881842,30.6934774 19.0830876,31.0032414 18.8181865,31.421055 L16.9890364,33.8714277 L16.7441008,33.468228 L20.088528,28.9881543 L20.2961594,29.3297924 L19.7112903,30.1875261 L19.7237469,30.2079811 C19.9848212,30.0625827 20.2899593,30.0173848 20.5819723,30.0808584 C20.8485952,30.1860042 21.0692863,30.382303 21.2048012,30.6348483 L21.204539,30.6349794 Z M7.65181541,4.65318119 L5.90071564,1.77210594 L2.89963109,5.79226964 L5.24976112,9.65888964 L7.47001494,6.68471786 C7.89883676,6.09223855 7.96862128,5.3124538 7.65181541,4.65324675 L7.65181541,4.65318119 Z M5.36291929,0.88736113 L5.06923909,0.404144264 C4.73910701,-0.138995296 4.11345901,-0.14348622 3.6747908,0.444136434 L3.29965113,0.946660995 L4.20583437,2.4375822 L5.36291929,0.88736113 Z M2.59696904,1.88775543 L3.50315227,3.37867663 L2.34600178,4.92876658 L1.43985133,3.43784537 L2.59696904,1.88775543 Z M2.4847615,10.6608574 L2.77854005,11.1441726 C3.10867213,11.6873122 3.73432013,11.6918031 4.17298834,11.1041804 L4.54688235,10.6032949 L3.64073189,9.1123737 L2.4847615,10.6608574 Z M2.19580168,6.73510144 L3.10198492,8.22602265 L1.94483443,9.77611259 L1.03868397,8.28519139 L2.19580168,6.73510144 Z M0.751854887,4.35940265 L0.376715221,4.86192721 C-0.0556324285,5.46286857 -0.120873047,6.25340986 0.207109084,6.91709859 L0.50085485,7.4004138 L1.65800534,5.85032385 L0.751854887,4.35940265 Z" id="Shape" fill="url(#linearGradient-11)"></path>
                    </g>
                </g>
            </g>
        </g>
    </g>
</svg>