<svg xmlns="http://www.w3.org/2000/svg" xmlns:xlink="http://www.w3.org/1999/xlink" viewBox="0 0 373.1 268.99"><defs><style>.cls-1{opacity:0.2;}.cls-2{fill:none;stroke:#1d45b9;stroke-miterlimit:10;stroke-width:0.5px;}.cls-3{fill:url(#linear-gradient);}.cls-4{fill:url(#linear-gradient-2);}.cls-5{fill:#e0f1ff;}.cls-6{fill:url(#linear-gradient-3);}.cls-7{fill:url(#linear-gradient-4);}.cls-8{fill:url(#linear-gradient-5);}</style><linearGradient id="linear-gradient" x1="157.44" y1="126.59" x2="255.52" y2="126.59" gradientUnits="userSpaceOnUse"><stop offset="0" stopColor="#17d0a9"/><stop offset="0.43" stopColor="#2395b9"/><stop offset="0.81" stopColor="#2d66c5"/><stop offset="1" stopColor="#3154ca"/></linearGradient><linearGradient id="linear-gradient-2" x1="156.37" y1="77.3" x2="240.36" y2="156.59" gradientUnits="userSpaceOnUse"><stop offset="0" stopColor="#3154ca"/><stop offset="0.02" stopColor="#3057c9"/><stop offset="0.26" stopColor="#2782be"/><stop offset="0.38" stopColor="#2493b9"/><stop offset="0.43" stopColor="#219fb6"/><stop offset="0.54" stopColor="#1db5b0"/><stop offset="0.66" stopColor="#1ac4ac"/><stop offset="0.8" stopColor="#18cdaa"/><stop offset="1" stopColor="#17d0a9"/></linearGradient><linearGradient id="linear-gradient-3" x1="188.56" y1="4043.65" x2="173.65" y2="4056.25" gradientTransform="matrix(1, -0.63, 0, 1, 29.02, -3878.43)" gradientUnits="userSpaceOnUse"><stop offset="0" stopColor="#17d0a9"/><stop offset="0.35" stopColor="#1db4b0"/><stop offset="1" stopColor="#2783bd"/></linearGradient><linearGradient id="linear-gradient-4" x1="200.31" y1="154.1" x2="223.64" y2="154.1" gradientUnits="userSpaceOnUse"><stop offset="0" stopColor="#1d45b9"/><stop offset="1" stopColor="#2a93f2"/></linearGradient><linearGradient id="linear-gradient-5" x1="178.79" y1="135.42" x2="245.15" y2="135.42" xlink:href="#linear-gradient-4"/></defs><title>pic</title><g id="Layer_7" data-name="Layer 7"><g class="cls-1"><line class="cls-2" x1="123.06" y1="252.96" x2="366.59" y2="113.3"/><line class="cls-2" x1="30.52" y1="183.38" x2="257.69" y2="53.1"/><line class="cls-2" x1="133.79" y1="50.64" x2="351.57" y2="175.37"/><line class="cls-2" x1="-2.25" y1="132.1" x2="212.8" y2="255.27"/></g><path class="cls-3" d="M252.72,26.16c-6.51-3.12-19.37-1-20.84-.05l-66.8,36.68c-5.88,3.38-7.66,8-7.64,15.8l.22,139.72c0,5.91,3.26,8.05,7.94,10.35l81-53c5.89-3.39,9-9.29,9-17.07Z"/><path class="cls-4" d="M165.6,228.66V80.84A14.69,14.69,0,0,1,173.15,68l74.49-41.54a5.85,5.85,0,0,1,8.7,5.11v145Z"/><path class="cls-5" d="M173.63,224.41,175,95.93a17.2,17.2,0,0,1,8.83-15l55.73-31.09a6.72,6.72,0,0,1,10,5.88l-1.36,125.86Z"/><path class="cls-6" d="M222.9,52.8,200.56,66.6a1.43,1.43,0,0,1-2.19-1.22v-.77A1.42,1.42,0,0,1,199,63.4l22.34-13.8a1.43,1.43,0,0,1,2.19,1.22v.76A1.43,1.43,0,0,1,222.9,52.8Z"/><path class="cls-7" d="M215.86,135.11l-7.78,5.73a4.91,4.91,0,0,0-1.94,3.37v17.5l-3.89,2.87a5.34,5.34,0,0,0-1.74,2.35c-.33.9-.26,1.64.18,1.9l9.73,4.64c.36.22.94.08,1.55-.37a5.41,5.41,0,0,0,1.56-1.92l9.72-19a2.24,2.24,0,0,0,.18-2.17c-.33-.41-1-.34-1.74.21l-3.89,2.86v-17.5C217.8,134.55,216.93,134.32,215.86,135.11Z"/><path class="cls-8" d="M233.16,110.7c-.8-3.32-4-4-8.09-1.67-1.7-5.58-7.91-6.12-15-.86S196.77,123,195,131l-.55.39c-8.57,6.31-15.68,18.53-15.68,27.1s7.11,10.32,15.68,4l7.78-5.73v-9.72c0-3.22,2.62-7.76,5.83-10.13l7.78-5.73c3.22-2.37,5.83-1.68,5.83,1.54v9.72l11.67-8.59c6.43-4.74,11.79-13.92,11.79-20.35S239.7,105.73,233.16,110.7Z"/></g></svg>