<svg xmlns="http://www.w3.org/2000/svg" xmlns:xlink="http://www.w3.org/1999/xlink" viewBox="0 0 373.1 268.99"><defs><style>.cls-1{opacity:0.2;}.cls-2{fill:none;stroke:#1d45b9;stroke-miterlimit:10;stroke-width:0.5px;}.cls-3{fill:url(#linear-gradient);}.cls-4{fill:url(#linear-gradient-2);}.cls-5{fill:#c6ebff;}.cls-6{fill:url(#linear-gradient-3);}.cls-7{fill:#ffefe1;}.cls-8{fill:#f3994b;}</style><linearGradient id="linear-gradient" x1="157.44" y1="126.59" x2="255.52" y2="126.59" gradientUnits="userSpaceOnUse"><stop offset="0" stopColor="#17d0a9"/><stop offset="0.06" stopColor="#1ac2ad"/><stop offset="0.26" stopColor="#229bb7"/><stop offset="0.46" stopColor="#297cbf"/><stop offset="0.65" stopColor="#2d66c5"/><stop offset="0.83" stopColor="#3059c9"/><stop offset="1" stopColor="#3154ca"/></linearGradient><linearGradient id="linear-gradient-2" x1="161.21" y1="79.14" x2="257.48" y2="175.4" gradientUnits="userSpaceOnUse"><stop offset="0" stopColor="#3154ca"/><stop offset="0.02" stopColor="#3057c9"/><stop offset="0.26" stopColor="#2782be"/><stop offset="0.38" stopColor="#2493b9"/><stop offset="0.43" stopColor="#219fb6"/><stop offset="0.54" stopColor="#1db5b0"/><stop offset="0.66" stopColor="#1ac4ac"/><stop offset="0.8" stopColor="#18cdaa"/><stop offset="1" stopColor="#17d0a9"/></linearGradient><linearGradient id="linear-gradient-3" x1="186.7" y1="4292.64" x2="171.79" y2="4305.23" gradientTransform="matrix(1, -0.63, 0, 1, 30.89, -4128.58)" gradientUnits="userSpaceOnUse"><stop offset="0" stopColor="#17d0a9"/><stop offset="0.35" stopColor="#1db4b0"/><stop offset="1" stopColor="#2783bd"/></linearGradient></defs><title>pic</title><g id="Layer_7" data-name="Layer 7"><g class="cls-1"><line class="cls-2" x1="123.06" y1="252.96" x2="366.59" y2="113.3"/><line class="cls-2" x1="30.52" y1="183.38" x2="257.69" y2="53.1"/><line class="cls-2" x1="133.79" y1="50.64" x2="351.57" y2="175.37"/><line class="cls-2" x1="-2.25" y1="132.1" x2="212.8" y2="255.27"/></g><path class="cls-3" d="M252.72,26.16c-6.51-3.12-19.37-1-20.84-.05l-66.8,36.68c-5.88,3.38-7.66,8-7.64,15.8l.22,139.72c0,5.91,3.26,8.05,7.94,10.35l81-53c5.89-3.39,9-9.29,9-17.07Z"/><path class="cls-4" d="M165.6,228.66V80.84A14.69,14.69,0,0,1,173.15,68l74.49-41.54a5.85,5.85,0,0,1,8.7,5.11v145Z"/><path class="cls-5" d="M173.63,224.41,175,95.93a17.2,17.2,0,0,1,8.83-15l55.73-31.09a6.72,6.72,0,0,1,10,5.88l-1.36,125.86Z"/><path class="cls-6" d="M222.9,52.8,200.56,66.6a1.43,1.43,0,0,1-2.19-1.22v-.77A1.42,1.42,0,0,1,199,63.4l22.34-13.8a1.43,1.43,0,0,1,2.19,1.22v.76A1.43,1.43,0,0,1,222.9,52.8Z"/></g><g id="Layer_9" data-name="Layer 9"><path class="cls-7" d="M242.92,125.18l-60.72,34c-2.08,1.17-3.77.42-3.77-1.66V129.74a7.63,7.63,0,0,1,3.77-5.87l60.72-34c2.08-1.16,3.77-.42,3.77,1.66V119.3A7.66,7.66,0,0,1,242.92,125.18Z"/><path class="cls-8" d="M218.27,119,187,136.48c-.76.43-1.37.16-1.37-.6v-2.72A2.75,2.75,0,0,1,187,131l31.28-17.51c.75-.42,1.36-.15,1.36.6v2.73A2.76,2.76,0,0,1,218.27,119Z"/><path class="cls-8" d="M218.27,129.08,187,146.58c-.76.42-1.37.15-1.37-.6v-2.72a2.75,2.75,0,0,1,1.37-2.13l31.28-17.5c.75-.42,1.36-.16,1.36.6V127A2.79,2.79,0,0,1,218.27,129.08Z"/><ellipse class="cls-8" cx="232.67" cy="113.27" rx="9.17" ry="5.88" transform="translate(1.8 230.17) rotate(-52.81)"/></g></svg>