<?xml version="1.0" encoding="UTF-8"?>
<svg width="14px" height="14px" viewBox="0 0 14 14" version="1.1" xmlns="http://www.w3.org/2000/svg" xmlns:xlink="http://www.w3.org/1999/xlink">
    <title>5203A09C-BA1B-4178-9C53-6C6E668E72F9</title>
    <g id="✅-REVAMP-1.1" stroke="none" stroke-width="1" fill="none" fill-rule="evenodd">
        <g id="1.5---send/amount" transform="translate(-438.000000, -481.000000)">
            <rect id="bg" fill="#F0F3F5" x="0" y="111" width="1366" height="679"></rect>
            <g id="send/content" transform="translate(351.000000, 152.000000)">
                <rect id="bg" stroke="#F0F3F5" fill="#FFFFFF" x="0.5" y="0.5" width="755" height="597" rx="8"></rect>
                <g id="button/secondary/4/enable" transform="translate(40.000000, 314.000000)">
                    <path d="M156,0.5 C158.071068,0.5 159.946068,1.33946609 161.303301,2.69669914 C162.660534,4.05393219 163.5,5.92893219 163.5,8 L163.5,8 L163.5,36 C163.5,38.0710678 162.660534,39.9460678 161.303301,41.3033009 C159.946068,42.6605339 158.071068,43.5 156,43.5 L156,43.5 L8,43.5 C5.92893219,43.5 4.05393219,42.6605339 2.69669914,41.3033009 C1.33946609,39.9460678 0.5,38.0710678 0.5,36 L0.5,36 L0.5,8 C0.5,5.92893219 1.33946609,4.05393219 2.69669914,2.69669914 C4.05393219,1.33946609 5.92893219,0.5 8,0.5 L8,0.5 Z" id="Rectangle" stroke="#A7AFC0"></path>
                    <g id="button-inside" transform="translate(47.000000, 11.000000)">
                        <g id="icon/plus" transform="translate(0.000000, 4.000000)">
                            <rect id="Rectangle" x="0" y="0" width="14" height="14"></rect>
                            <g id="plus" transform="translate(1.750000, 1.750000)" fill="#6B7384" fill-rule="nonzero" stroke="#6B7384" stroke-width="0.5">
                                <path d="M5.25,0 C5.54915424,-1.83179141e-17 5.79571251,0.225190111 5.82940882,0.515304344 L5.83333333,0.583333333 L5.833,4.666 L9.91666667,4.66666667 C10.2388328,4.66666667 10.5,4.9278339 10.5,5.25 C10.5,5.54915424 10.2748099,5.79571251 9.98469566,5.82940882 L9.91666667,5.83333333 L5.833,5.833 L5.83333333,9.91666667 C5.83333333,10.2388328 5.5721661,10.5 5.25,10.5 C4.95084576,10.5 4.70428749,10.2748099 4.67059118,9.98469566 L4.66666667,9.91666667 L4.666,5.833 L0.583333333,5.83333333 C0.261167229,5.83333333 0,5.5721661 0,5.25 C0,4.95084576 0.225190111,4.70428749 0.515304344,4.67059118 L0.583333333,4.66666667 L4.666,4.666 L4.66666667,0.583333333 C4.66666667,0.261167229 4.9278339,1.97269844e-17 5.25,0 Z" id="Combined-Shape"></path>
                            </g>
                        </g>
                    </g>
                </g>
            </g>
        </g>
    </g>
</svg>