<?xml version="1.0" encoding="UTF-8"?>
<svg width="24px" height="24px" viewBox="0 0 24 24" version="1.1" xmlns="http://www.w3.org/2000/svg" xmlns:xlink="http://www.w3.org/1999/xlink">
    <title>5A8618A8-D7D1-4842-95F4-1BB58CCC0C7D</title>
    <g id="✅-REVAMP-1.1" stroke="none" stroke-width="1" fill="none" fill-rule="evenodd">
        <g id="1.2---send/receiver" transform="translate(-1027.000000, -325.000000)">
            <rect id="bg" fill="#F0F3F5" x="0" y="111" width="1366" height="679"></rect>
            <g id="send/content" transform="translate(351.000000, 152.000000)">
                <rect id="bg" stroke="#F0F3F5" fill="#FFFFFF" x="0.5" y="0.5" width="755" height="597" rx="8"></rect>
                <g id="Text-Field-/-Filled-/-Active-Copy-5" transform="translate(40.000000, 136.000000)">
                    <path d="M668,9.5 C670.071068,9.5 671.946068,10.3394661 673.303301,11.6966991 C674.660534,13.0539322 675.5,14.9289322 675.5,17 L675.5,17 L675.5,81 C675.5,83.0710678 674.660534,84.9460678 673.303301,86.3033009 C671.946068,87.6605339 670.071068,88.5 668,88.5 L668,88.5 L8,88.5 C5.92893219,88.5 4.05393219,87.6605339 2.69669914,86.3033009 C1.33946609,84.9460678 0.5,83.0710678 0.5,81 L0.5,81 L0.5,17 C0.5,14.9289322 1.33946609,13.0539322 2.69669914,11.6966991 C4.05393219,10.3394661 5.92893219,9.5 8,9.5 L8,9.5 Z" id="Surface" stroke="#A7AFC0"></path>
                    <g id="icon/qr-code" transform="translate(636.000000, 37.000000)">
                        <rect id="Rectangle" fill="#464749" opacity="0" x="0" y="0" width="24" height="24"></rect>
                        <path d="M10,13 C10.5522847,13 11,13.4477153 11,14 L11,21 C11,21.5522847 10.5522847,22 10,22 L3,22 C2.44771525,22 2,21.5522847 2,21 L2,14 C2,13.4477153 2.44771525,13 3,13 L10,13 Z M22,17 L22,21 C22,21.5522847 21.5522847,22 21,22 L18,22 L18,20.5 L20.5,20.5 L20.5,17 L22,17 Z M14.5,20 L14.5,20.5 L16,20.5 L16,22 L14,22 C13.4477153,22 13,21.5522847 13,21 L13,20 L14.5,20 Z M9.5,14.5 L3.5,14.5 L3.5,20.5 L9.5,20.5 L9.5,14.5 Z M17,13 L17,14.5 L14.5,14.5 L14.5,18 L13,18 L13,14 C13,13.4477153 13.4477153,13 14,13 L17,13 Z M8,16 L8,18 L6,18 L6,16 L8,16 Z M18,16 L18,18 L16,18 L16,16 L18,16 Z M21,13 C21.5522847,13 22,13.4477153 22,14 L22,15 L20.5,15 L20.5,14.5 L19,14.5 L19,13 L21,13 Z M21,2 C21.5522847,2 22,2.44771525 22,3 L22,10 C22,10.5522847 21.5522847,11 21,11 L14,11 C13.4477153,11 13,10.5522847 13,10 L13,3 C13,2.44771525 13.4477153,2 14,2 L21,2 Z M10,2 C10.5522847,2 11,2.44771525 11,3 L11,10 C11,10.5522847 10.5522847,11 10,11 L3,11 C2.44771525,11 2,10.5522847 2,10 L2,3 C2,2.44771525 2.44771525,2 3,2 L10,2 Z M20.5,3.5 L14.5,3.5 L14.5,9.5 L20.5,9.5 L20.5,3.5 Z M9.5,3.5 L3.5,3.5 L3.5,9.5 L9.5,9.5 L9.5,3.5 Z M8,6 L8,8 L6,8 L6,6 L8,6 Z M18,6 L18,8 L16,8 L16,6 L18,6 Z" id="Combined-Shape" fill="#6B7384" fill-rule="nonzero"></path>
                    </g>
                </g>
            </g>
        </g>
    </g>
</svg>