<svg width="614" height="210" viewBox="0 0 614 210" fill="none" xmlns="http://www.w3.org/2000/svg">
<rect x="40" width="534" height="210" rx="8" fill="#F0F3F5"/>
<path d="M40 8C40 3.58172 43.5817 0 48 0H88V210H48C43.5817 210 40 206.418 40 202V8Z" fill="#3154CB"/>
<path fill-rule="evenodd" clip-rule="evenodd" d="M52.1035 17.8721V19.0312C52.1035 19.3943 52.1035 19.7714 52.1035 20.1345V21.2657C52.1035 21.2936 52.1035 21.3215 52.1166 21.3355C57.8991 25.581 63.6422 29.8265 69.4116 34.072L71.7587 32.3403C65.2026 27.5222 58.6727 22.7181 52.1035 17.8721Z" fill="white"/>
<path fill-rule="evenodd" clip-rule="evenodd" d="M67.292 16.414C66.2301 17.179 65.1681 17.9162 64.1062 18.6811C63.9602 18.7785 63.8673 18.7924 63.7212 18.6811C62.4204 17.7354 61.1062 16.7896 59.792 15.8438C58.4248 14.8285 57.0575 13.8131 55.677 12.8117C55.0265 12.3388 54.3761 11.866 53.7257 11.3931H49C49.2522 11.5739 49.4513 11.7269 49.6637 11.8799C50.8982 12.77 52.1327 13.6741 53.3673 14.5642C54.5885 15.4544 55.8097 16.3445 57.031 17.2346C58.1726 18.0692 59.3274 18.9176 60.469 19.7521C61.5575 20.5449 62.6593 21.3238 63.7478 22.1304C63.8673 22.2139 63.9469 22.2139 64.0664 22.1304C64.9425 21.4907 65.8319 20.8787 66.7212 20.2389C68.8982 18.6672 71.0752 17.0956 73.2522 15.5378C74.8319 14.3973 76.4248 13.2568 78.0044 12.1302C78.3363 11.8938 78.6549 11.6573 79 11.407H74.2611C71.9381 13.0621 69.6283 14.745 67.292 16.414Z" fill="white"/>
<path fill-rule="evenodd" clip-rule="evenodd" d="M52.1308 26.5132C52.1172 26.5547 52.1035 26.5686 52.1035 26.5824C52.1035 26.8178 52.1035 27.0393 52.1035 27.2747V28.6593C52.1035 29.0747 52.1035 29.4901 52.1035 29.8916C52.1035 29.9193 52.1172 29.9332 52.1172 29.9609C56.1129 32.7716 60.1086 35.5685 64.1316 38.3931H64.1452L66.5863 36.6485C61.7451 33.2562 56.9447 29.8916 52.1308 26.5132Z" fill="white"/>
<path fill-rule="evenodd" clip-rule="evenodd" d="M74.8492 17.8721C72.0737 19.8533 69.3361 21.8215 66.5859 23.7897C66.6238 23.8418 66.649 23.8679 66.6742 23.894C67.3681 24.4023 68.0746 24.9107 68.7684 25.419C68.7811 25.432 68.8189 25.432 68.8441 25.432C70.8374 24.0113 72.8307 22.5775 74.8366 21.1567C74.8492 21.1437 74.8492 21.1176 74.8618 21.1046V17.8721H74.8492Z" fill="white"/>
<path fill-rule="evenodd" clip-rule="evenodd" d="M74.8613 25.4336C73.8126 26.2436 72.7923 27.0377 71.7578 27.8318C72.5797 28.483 73.3733 29.1183 74.1669 29.7536L74.8613 29.2136V25.4336Z" fill="white"/>
<rect x="113.199" y="21.6001" width="433.2" height="34.8" rx="4" fill="white"/>
<rect x="113.199" y="70.7998" width="433.2" height="34.8" rx="4" fill="white"/>
<rect x="113.199" y="120" width="433.2" height="34.8" rx="4" fill="white"/>
<rect x="238" y="165.6" width="170.4" height="26.4" rx="4" fill="#17D1AA"/>
</svg>
