<svg width="534" height="210" viewBox="0 0 534 210" fill="none" xmlns="http://www.w3.org/2000/svg">
<rect width="534" height="210" rx="8" fill="#F0F3F5"/>
<path d="M0 8C0 3.58172 3.58172 0 8 0H48V210H8C3.58172 210 0 206.418 0 202V8Z" fill="#3154CB"/>
<path fill-rule="evenodd" clip-rule="evenodd" d="M12.1035 17.8721V19.0312C12.1035 19.3943 12.1035 19.7714 12.1035 20.1345V21.2657C12.1035 21.2936 12.1035 21.3215 12.1166 21.3355C17.8991 25.581 23.6422 29.8265 29.4116 34.072L31.7587 32.3403C25.2026 27.5222 18.6727 22.7181 12.1035 17.8721Z" fill="white"/>
<path fill-rule="evenodd" clip-rule="evenodd" d="M27.292 16.414C26.2301 17.179 25.1681 17.9162 24.1062 18.6811C23.9602 18.7785 23.8673 18.7924 23.7212 18.6811C22.4204 17.7354 21.1062 16.7896 19.792 15.8438C18.4248 14.8285 17.0575 13.8131 15.677 12.8117C15.0265 12.3388 14.3761 11.866 13.7257 11.3931H9C9.25221 11.5739 9.45133 11.7269 9.66372 11.8799C10.8982 12.77 12.1327 13.6741 13.3673 14.5642C14.5885 15.4544 15.8097 16.3445 17.031 17.2346C18.1726 18.0692 19.3274 18.9176 20.469 19.7521C21.5575 20.5449 22.6593 21.3238 23.7478 22.1304C23.8673 22.2139 23.9469 22.2139 24.0664 22.1304C24.9425 21.4907 25.8319 20.8787 26.7212 20.2389C28.8982 18.6672 31.0752 17.0956 33.2522 15.5378C34.8319 14.3973 36.4248 13.2568 38.0044 12.1302C38.3363 11.8938 38.6549 11.6573 39 11.407H34.2611C31.9381 13.0621 29.6283 14.745 27.292 16.414Z" fill="white"/>
<path fill-rule="evenodd" clip-rule="evenodd" d="M12.1308 26.5132C12.1172 26.5547 12.1035 26.5686 12.1035 26.5824C12.1035 26.8178 12.1035 27.0393 12.1035 27.2747V28.6593C12.1035 29.0747 12.1035 29.4901 12.1035 29.8916C12.1035 29.9193 12.1172 29.9332 12.1172 29.9609C16.1129 32.7716 20.1086 35.5685 24.1316 38.3931H24.1452L26.5863 36.6485C21.7451 33.2562 16.9447 29.8916 12.1308 26.5132Z" fill="white"/>
<path fill-rule="evenodd" clip-rule="evenodd" d="M34.8492 17.8721C32.0737 19.8533 29.3361 21.8215 26.5859 23.7897C26.6238 23.8418 26.649 23.8679 26.6742 23.894C27.3681 24.4023 28.0746 24.9107 28.7684 25.419C28.7811 25.432 28.8189 25.432 28.8441 25.432C30.8374 24.0113 32.8307 22.5775 34.8366 21.1567C34.8492 21.1437 34.8492 21.1176 34.8618 21.1046V17.8721H34.8492Z" fill="white"/>
<path fill-rule="evenodd" clip-rule="evenodd" d="M34.8613 25.4336C33.8126 26.2436 32.7923 27.0377 31.7578 27.8318C32.5797 28.483 33.3733 29.1183 34.1669 29.7536L34.8613 29.2136V25.4336Z" fill="white"/>
<rect x="73.1992" y="21.6001" width="433.2" height="34.8" rx="4" fill="white"/>
<rect x="73.1992" y="70.7998" width="433.2" height="34.8" rx="4" fill="white"/>
<rect x="73.1992" y="120" width="433.2" height="34.8" rx="4" fill="white"/>
<rect x="198" y="165.6" width="170.4" height="26.4" rx="4" fill="#17D1AA"/>
</svg>
