<svg xmlns="http://www.w3.org/2000/svg" xmlns:xlink="http://www.w3.org/1999/xlink" viewBox="0 0 1440 1024"><defs><style>.cls-1{fill:#17d1aa;}.cls-2,.cls-6{fill:none;}.cls-3{clip-path:url(#clip-path);}.cls-4{clip-path:url(#clip-path-2);}.cls-28,.cls-5{opacity:0.15;}.cls-6{stroke:#1d45ba;stroke-miterlimit:10;stroke-width:0.5px;}.cls-7{fill:url(#linear-gradient);}.cls-37,.cls-8{fill:#e1f2ff;}.cls-9{fill:url(#linear-gradient-2);}.cls-10{fill:url(#linear-gradient-3);}.cls-11{fill:url(#linear-gradient-4);}.cls-12{fill:url(#linear-gradient-5);}.cls-13{fill:url(#linear-gradient-6);}.cls-14{fill:url(#linear-gradient-7);}.cls-15{fill:url(#linear-gradient-8);}.cls-16{fill:url(#linear-gradient-9);}.cls-17{fill:url(#linear-gradient-10);}.cls-18{fill:url(#linear-gradient-11);}.cls-19{fill:url(#linear-gradient-12);}.cls-20{fill:url(#linear-gradient-13);}.cls-21{fill:#cfedff;}.cls-22{fill:url(#linear-gradient-14);}.cls-23{fill:url(#linear-gradient-15);}.cls-24{fill:url(#linear-gradient-16);}.cls-25{fill:url(#linear-gradient-17);}.cls-26{fill:url(#linear-gradient-18);}.cls-27{fill:url(#linear-gradient-19);}.cls-28{fill:url(#linear-gradient-20);}.cls-29{fill:url(#linear-gradient-21);}.cls-30{fill:url(#linear-gradient-22);}.cls-31{fill:url(#linear-gradient-23);}.cls-32{fill:url(#linear-gradient-24);}.cls-33{fill:url(#linear-gradient-25);}.cls-34{fill:url(#linear-gradient-26);}.cls-35{fill:url(#linear-gradient-27);}.cls-36{fill:url(#linear-gradient-28);}.cls-37{font-size:42.4px;font-family:KozGoPr6N-Regular-83pv-RKSJ-H, Kozuka Gothic Pr6N;}</style><clipPath id="clip-path"><rect class="cls-1" x="1598.78" y="-235.52" width="363" height="52" rx="5" ry="5"/></clipPath><clipPath id="clip-path-2"><rect class="cls-2" x="1598.78" y="-153.52" width="363" height="52" rx="5" ry="5"/></clipPath><linearGradient id="linear-gradient" x1="874.6" y1="892.23" x2="963.02" y2="907.86" gradientUnits="userSpaceOnUse"><stop offset="0" stopColor="#17d1aa"/><stop offset="0.07" stopColor="#1ac2ae"/><stop offset="0.27" stopColor="#229bb8"/><stop offset="0.46" stopColor="#297cc0"/><stop offset="0.65" stopColor="#2d66c6"/><stop offset="0.83" stopColor="#3059ca"/><stop offset="1" stopColor="#3154cb"/></linearGradient><linearGradient id="linear-gradient-2" x1="885.92" y1="863.94" x2="931.74" y2="906.54" gradientUnits="userSpaceOnUse"><stop offset="0" stopColor="#3154cb"/><stop offset="0.17" stopColor="#3059ca"/><stop offset="0.35" stopColor="#2d66c6"/><stop offset="0.54" stopColor="#297cc0"/><stop offset="0.73" stopColor="#229bb8"/><stop offset="0.93" stopColor="#1ac2ae"/><stop offset="1" stopColor="#17d1aa"/></linearGradient><linearGradient id="linear-gradient-3" x1="890.88" y1="888.39" x2="941.93" y2="888.39" xlink:href="#linear-gradient-2"/><linearGradient id="linear-gradient-4" x1="907.06" y1="901.64" x2="912.01" y2="901.64" xlink:href="#linear-gradient-2"/><linearGradient id="linear-gradient-5" x1="1370.86" y1="631.59" x2="1384.02" y2="631.59" xlink:href="#linear-gradient"/><linearGradient id="linear-gradient-6" x1="1352.05" y1="624.21" x2="1390.19" y2="662.74" xlink:href="#linear-gradient"/><linearGradient id="linear-gradient-7" x1="1344.07" y1="632.1" x2="1382.21" y2="670.63" xlink:href="#linear-gradient"/><linearGradient id="linear-gradient-8" x1="1351.58" y1="631.52" x2="1377.27" y2="631.52" xlink:href="#linear-gradient"/><linearGradient id="linear-gradient-9" x1="1336.41" y1="646.88" x2="1362.25" y2="646.88" xlink:href="#linear-gradient"/><linearGradient id="linear-gradient-10" x1="1343.8" y1="632.37" x2="1381.94" y2="670.9" xlink:href="#linear-gradient"/><linearGradient id="linear-gradient-11" x1="1323.24" y1="673.66" x2="1314.23" y2="659.18" xlink:href="#linear-gradient"/><linearGradient id="linear-gradient-12" x1="1322.79" y1="662.04" x2="1355.62" y2="662.04" xlink:href="#linear-gradient"/><linearGradient id="linear-gradient-13" x1="1325.59" y1="655.25" x2="1336.34" y2="655.25" xlink:href="#linear-gradient"/><linearGradient id="linear-gradient-14" x1="919.66" y1="693.31" x2="1059.86" y2="693.31" xlink:href="#linear-gradient"/><linearGradient id="linear-gradient-15" x1="1009.54" y1="398.31" x2="1090.71" y2="398.31" gradientUnits="userSpaceOnUse"><stop offset="0" stopColor="#17d1aa"/><stop offset="0.15" stopColor="#1acbaf"/><stop offset="0.37" stopColor="#21b8bc"/><stop offset="0.62" stopColor="#2e9bd3"/><stop offset="0.89" stopColor="#3f71f1"/><stop offset="1" stopColor="#475fff"/></linearGradient><linearGradient id="linear-gradient-16" x1="1123.18" y1="744.77" x2="1236.4" y2="759.6" xlink:href="#linear-gradient"/><linearGradient id="linear-gradient-17" x1="1198.99" y1="756.4" x2="1157.88" y2="732.81" xlink:href="#linear-gradient"/><linearGradient id="linear-gradient-18" x1="1161.54" y1="742.8" x2="1202.41" y2="742.8" xlink:href="#linear-gradient"/><linearGradient id="linear-gradient-19" x1="1204.6" y1="728.16" x2="1091.65" y2="638.18" xlink:href="#linear-gradient"/><linearGradient id="linear-gradient-20" x1="1199.68" y1="749.59" x2="1077.65" y2="652.37" xlink:href="#linear-gradient"/><linearGradient id="linear-gradient-21" x1="980.57" y1="567.16" x2="933.88" y2="567.16" xlink:href="#linear-gradient"/><linearGradient id="linear-gradient-22" x1="1350.2" y1="544.75" x2="1322.49" y2="544.75" xlink:href="#linear-gradient"/><linearGradient id="linear-gradient-23" x1="786.83" y1="768.12" x2="759.13" y2="768.12" xlink:href="#linear-gradient"/><linearGradient id="linear-gradient-24" x1="1123.85" y1="586.95" x2="1154.19" y2="586.95" xlink:href="#linear-gradient-15"/><linearGradient id="linear-gradient-25" x1="1077.49" y1="507.86" x2="1236.08" y2="507.86" xlink:href="#linear-gradient-15"/><linearGradient id="linear-gradient-26" x1="1092.02" y1="531.88" x2="1237.68" y2="546.26" xlink:href="#linear-gradient"/><linearGradient id="linear-gradient-27" x1="1094.58" y1="505.93" x2="1240.24" y2="520.3" xlink:href="#linear-gradient"/><linearGradient id="linear-gradient-28" x1="1097.12" y1="480.15" x2="1242.79" y2="494.53" xlink:href="#linear-gradient"/></defs><title>trezor not connected</title><g id="Layer_2" data-name="Layer 2"><rect class="cls-1" x="1598.78" y="-235.52" width="363" height="52" rx="5" ry="5"/><g class="cls-3"><rect class="cls-1" x="1386.78" y="-808.52" width="1440" height="1024"/></g></g><g id="language"><g class="cls-5"><line class="cls-6" x1="639.52" y1="871.77" x2="1340" y2="469.1"/><line class="cls-6" x1="459.13" y1="767.62" x2="1340" y2="261.26"/><line class="cls-6" x1="911.7" y1="923.79" x2="1340" y2="676.6"/><line class="cls-6" x1="904.43" y1="338.79" x2="1338.11" y2="587.77"/><line class="cls-6" x1="669.37" y1="473.91" x2="1340" y2="858.93"/><line class="cls-6" x1="441.06" y1="605.16" x2="995.77" y2="923.62"/></g><g id="_18" data-name="18"><path id="_Path_" data-name="&lt;Path&gt;" class="cls-7" d="M952,898.79h0v-5.56l-10.32-2.67L918.8,877.34c-3.85-2.23-9.68-2.47-13-.54l-23.46,13.54-11,2.6v5.48a2.29,2.29,0,0,0,0,.37v.08h0c.11,1.41,1.18,2.87,3.17,4l30.05,17.35c3.86,2.22,9.69,2.47,13,.54l32.16-18.57A3.78,3.78,0,0,0,952,898.79Z"/><path id="_Path_2" data-name="&lt;Path&gt;" class="cls-8" d="M949.78,896.35l-32.16,18.58c-3.34,1.92-9.17,1.68-13-.54L874.54,897c-3.85-2.23-4.27-5.59-.93-7.52L905.78,871c3.34-1.93,9.17-1.69,13,.54l30.05,17.34C952.71,891.06,953.12,894.43,949.78,896.35Z"/><path id="_Path_3" data-name="&lt;Path&gt;" class="cls-9" d="M940,891.75c-4.57-1.32-12-2.77-16.64-.09L921,893l-2.83-1.25a3.61,3.61,0,0,0-1.42-2.89h0l-5.52-5-.41-.37-.11-.1h0a8.93,8.93,0,0,0-1.13-.77,17.1,17.1,0,0,0-15.51,0c-4.29,2.47-4.29,6.48,0,9a11.84,11.84,0,0,0,1.29.62h0l.17.06c.25.11.51.2.77.29l8.53,3.16h0a13.56,13.56,0,0,0,5,.82l2.16,1.63-2.32,1.34c-4.66,2.69-2.16,7,.13,9.63,1,1.21,3.84,1.48,5.5.52l12.55-7.25.55-.31,12.51-7.22C942.59,894,942.13,892.36,940,891.75Z"/><g id="_Group_" data-name="&lt;Group&gt;"><path id="_Path_4" data-name="&lt;Path&gt;" class="cls-10" d="M894.08,885.62a17.18,17.18,0,0,1,15.52,0,10,10,0,0,1,1.12.78h0l.11.1c.15.12.28.25.41.37l5.52,5h0a3.65,3.65,0,0,1,1.43,2.89L921,896l2.34-1.35c4.65-2.68,12.07-1.23,16.65.09a3.67,3.67,0,0,1,.75.3l.15-.09c1.66-1,1.2-2.57-.9-3.18-4.58-1.32-12-2.77-16.65-.08L921,893l-2.83-1.25a3.62,3.62,0,0,0-1.43-2.89h0l-5.52-5a4.89,4.89,0,0,0-.41-.37l-.11-.1h0a8.8,8.8,0,0,0-1.12-.77,17.18,17.18,0,0,0-15.52,0c-2.8,1.62-3.76,3.89-2.9,6A6.56,6.56,0,0,1,894.08,885.62Z"/><path id="_Path_5" data-name="&lt;Path&gt;" class="cls-11" d="M909.69,902.52l2.32-1.34v-3s-2.26,1.32-2.3,1.32l0,0c-2.64,1.52-3,3.55-2.37,5.51A5,5,0,0,1,909.69,902.52Z"/></g></g><g id="_15" data-name="15"><polygon id="_Path_6" data-name="&lt;Path&gt;" class="cls-12" points="1384.02 618.74 1384.02 624.74 1370.86 644.45 1370.86 638.45 1384.02 618.74"/><polygon id="_Path_7" data-name="&lt;Path&gt;" class="cls-13" points="1366.62 637.68 1366.62 643.68 1370.86 644.45 1370.86 638.45 1366.62 637.68"/><polygon id="_Path_8" data-name="&lt;Path&gt;" class="cls-14" points="1347.34 634.16 1347.34 640.16 1351.58 640.93 1351.58 634.93 1347.34 634.16"/><polygon id="_Path_9" data-name="&lt;Path&gt;" class="cls-15" points="1377.27 622.11 1371 631.28 1351.58 640.93 1351.58 634.93 1377.27 622.11"/><path id="_Compound_Path_" data-name="&lt;Compound Path&gt;" class="cls-8" d="M1384,618.74l-13.16,19.71-4.24-.77,10.65-15.58-25.69,12.83-4.24-.77L1380,618Z"/><polygon id="_Path_10" data-name="&lt;Path&gt;" class="cls-16" points="1336.41 636.69 1336.41 642.69 1362.25 657.08 1362.25 651.08 1336.41 636.69"/><polygon id="_Path_11" data-name="&lt;Path&gt;" class="cls-17" points="1365.68 648.4 1365.68 654.4 1362.25 657.08 1362.25 651.08 1365.68 648.4"/><path id="_Compound_Path_2" data-name="&lt;Compound Path&gt;" class="cls-8" d="M1362.25,651.08l-25.84-14.39,3.41-2.66,25.86,14.37Z"/><polygon id="_Path_12" data-name="&lt;Path&gt;" class="cls-18" points="1318.82 666.38 1318.82 672.38 1322.79 673.11 1322.79 667.11 1318.82 666.38"/><polygon id="_Path_13" data-name="&lt;Path&gt;" class="cls-19" points="1355.62 650.98 1355.62 656.98 1322.79 673.11 1322.79 667.11 1355.62 650.98"/><polygon id="_Path_14" data-name="&lt;Path&gt;" class="cls-20" points="1336.34 647.46 1336.34 653.46 1331.9 659.9 1325.59 663.04 1336.34 647.46"/><path id="_Compound_Path_3" data-name="&lt;Compound Path&gt;" class="cls-8" d="M1322.79,667.11l-4-.73,13.28-19.69,4.24.77L1325.59,663l25.79-12.84,4.24.78Z"/></g><g id="_14" data-name="14"><path id="_Path_15" data-name="&lt;Path&gt;" class="cls-21" d="M1059.84,696.39h0V685.8l-25.79,2.79-20.83-11.9c-6.3-3.6-16.77-3.39-23.39.47l-34.12,19.9-36,3.9,0,9.94a5.13,5.13,0,0,0,0,1v.07h0c.23,2.16,1.72,4.25,4.52,5.85l42.07,24c6.3,3.6,16.78,3.39,23.4-.48l31.69-18.48,17.91,10.23s7.6-6.9,7.54-14.35V708l7.89-4.6C1058.1,701.43,1059.81,698.89,1059.84,696.39Z"/><path id="_Path_16" data-name="&lt;Path&gt;" class="cls-22" d="M989.83,655.81l-65,37.93c-6.62,3.87-6.88,9.91-.58,13.51l42.07,24c6.3,3.6,16.78,3.39,23.4-.47l31.69-18.49,17.91,10.23s14.42-13.06,3.39-22.65l12-7c6.62-3.87,6.87-9.92.57-13.52l-42.07-24C1006.92,651.74,996.45,652,989.83,655.81Z"/><polygon id="_Path_17" data-name="&lt;Path&gt;" class="cls-8" points="1021.38 712.33 1021.38 722.86 1039.29 733.09 1039.29 722.56 1021.38 712.33"/></g><g id="_14-2" data-name="14"><path id="_Path_18" data-name="&lt;Path&gt;" class="cls-8" d="M1009.55,400.09h0V394l14.93,1.61,12.06-6.88c3.65-2.09,9.71-2,13.55.27l19.75,11.52,20.87,2.26v5.75a3.49,3.49,0,0,1,0,.56v0h0a4.63,4.63,0,0,1-2.62,3.39l-24.36,13.92c-3.64,2.08-9.71,2-13.54-.28l-18.35-10.7-10.37,5.92s-4.4-4-4.37-8.31v-6.21l-4.56-2.66C1010.56,403,1009.56,401.54,1009.55,400.09Z"/><path id="_Path_19" data-name="&lt;Path&gt;" class="cls-23" d="M1050.09,376.6l37.65,22c3.83,2.24,4,5.74.33,7.82l-24.36,13.92c-3.64,2.09-9.71,2-13.54-.27l-18.35-10.71-10.37,5.93s-8.35-7.57-2-13.12l-7-4.07c-3.84-2.23-4-5.74-.34-7.82l24.36-13.92C1040.19,374.24,1046.25,374.36,1050.09,376.6Z"/><polygon id="_Path_20" data-name="&lt;Path&gt;" class="cls-8" points="1031.82 409.32 1031.82 415.42 1021.45 421.34 1021.45 415.25 1031.82 409.32"/></g><g id="_6" data-name="6"><g id="_Group_2" data-name="&lt;Group&gt;"><path id="_Path_21" data-name="&lt;Path&gt;" class="cls-24" d="M1217,752.42h0v-4.88l-9.08-2.35-20.14-11.63c-3.39-2-8.52-2.17-11.45-.47L1155.75,745l-9.63,2.28v4.83a1.71,1.71,0,0,0,0,.32v.08h0c.1,1.23,1,2.52,2.79,3.53l26.42,15.25c3.39,2,8.52,2.17,11.46.48l28.28-16.33A3.33,3.33,0,0,0,1217,752.42Z"/><path id="_Path_22" data-name="&lt;Path&gt;" class="cls-8" d="M1215.07,750.28l-28.28,16.33c-2.94,1.7-8.07,1.48-11.46-.47l-26.42-15.26c-3.39-2-3.76-4.92-.82-6.61l28.29-16.33c2.93-1.7,8.06-1.48,11.45.47l26.42,15.26C1217.64,745.62,1218,748.58,1215.07,750.28Z"/><g id="_Group_3" data-name="&lt;Group&gt;"><path id="_Path_23" data-name="&lt;Path&gt;" class="cls-25" d="M1182,746.63l-6.3-11.23a26,26,0,0,0-8.16,2.88c-8,4.61-8,12.09,0,16.7s20.94,4.62,28.93,0,8-12.09,0-16.7c-.24-.14-.51-.26-.76-.39Z"/><path id="_Path_24" data-name="&lt;Path&gt;" class="cls-26" d="M1167.51,741.84a26,26,0,0,1,8.16-2.87l6.3,11.23,13.71-8.75c.25.13.52.25.76.39,3.21,1.86,5.1,4.17,5.73,6.57.95-3.58-1-7.37-5.73-10.13-.24-.14-.51-.26-.76-.39L1182,746.63l-6.3-11.23a26,26,0,0,0-8.16,2.88c-4.78,2.76-6.68,6.55-5.74,10.13C1162.41,746,1164.3,743.7,1167.51,741.84Z"/></g></g><g id="_Group_4" data-name="&lt;Group&gt;"><path id="_Compound_Path_4" data-name="&lt;Compound Path&gt;" class="cls-27" d="M1182.21,731.11a13.84,13.84,0,0,1-6.74-1.68l-26.42-15.25c-1.94-1.12-3.06-2.64-3.06-4.18a3.91,3.91,0,0,1,2.24-3.31l28.29-16.33c3.07-1.77,8.43-1.56,12,.48l26.42,15.25c1.94,1.12,3,2.64,3,4.18a3.9,3.9,0,0,1-2.23,3.31l-28.29,16.33A10.6,10.6,0,0,1,1182.21,731.11Zm-.47-41a9.6,9.6,0,0,0-4.72,1.08l-28.28,16.33A2.93,2.93,0,0,0,1147,710c0,1.17.93,2.37,2.55,3.3L1176,728.56c3.24,1.87,8.15,2.08,11,.47l28.28-16.33a2.93,2.93,0,0,0,1.73-2.43c0-1.16-.93-2.37-2.55-3.3L1188,691.71A12.79,12.79,0,0,0,1181.74,690.16Z"/></g><path id="_Path_25" data-name="&lt;Path&gt;" class="cls-28" d="M1214.78,738l-28.28,16.33c-2.94,1.69-8.07,1.48-11.46-.48l-26.42-15.25c-3.39-2-3.75-4.92-.82-6.61l28.29-16.33c2.93-1.7,8.06-1.49,11.45.47L1214,731.34C1217.35,733.29,1217.72,736.25,1214.78,738Z"/></g><g id="_12" data-name="12"><path id="_Compound_Path_5" data-name="&lt;Compound Path&gt;" class="cls-29" d="M980.57,560.56l-3,2.92a16.35,16.35,0,0,0-3.14-2.5c-.29-.18-.61-.34-.92-.51a5.24,5.24,0,0,0,.32-1.91c-.16-1-6.91-5.33-9-6.41s-12.17-1.5-12.17-1.5l-11.08,7.91,1.68,1c-.64.27-1.25.57-1.85.89a20.45,20.45,0,0,0-2.92,1.9l-4.67-.7v9.08h0c.11,3.15,2.1,6.27,6.06,8.73,8.69,5.39,23.5,5.62,33,.53,4.93-2.64,7.46-6.2,7.58-9.77h0Zm-28.26,12.15-6-6a10.08,10.08,0,0,1,2.39-1.73c5.14-2.75,13.14-2.63,17.84.29a7.16,7.16,0,0,1,2.91,3.08Z"/><g id="_Group_5" data-name="&lt;Group&gt;"><path id="_Compound_Path_6" data-name="&lt;Compound Path&gt;" class="cls-8" d="M973,572.18c-9.51,5.1-24.32,4.86-33-.53s-8-13.92,1.51-19,24.32-4.86,33,.53S982.49,567.08,973,572.18Zm-24.26-15.06c-5.14,2.76-5.51,7.37-.81,10.28s12.69,3,17.83.29,5.51-7.37.82-10.28S953.85,554.37,948.71,557.12Z"/></g></g><g id="_12-2" data-name="12"><path id="_Compound_Path_7" data-name="&lt;Compound Path&gt;" class="cls-30" d="M1350.2,540.83l-1.75,1.73a10.34,10.34,0,0,0-1.87-1.48c-.17-.11-.36-.21-.54-.31a3.11,3.11,0,0,0,.19-1.13c-.1-.59-4.11-3.16-5.34-3.8s-7.22-.89-7.22-.89l-6.57,4.69,1,.59c-.38.17-.74.35-1.1.53a12,12,0,0,0-1.73,1.13l-2.77-.41v5.38h0c.06,1.87,1.25,3.72,3.6,5.18,5.15,3.2,13.94,3.34,19.59.31,2.92-1.56,4.42-3.67,4.49-5.79h0ZM1333.42,548l-3.55-3.59a6.17,6.17,0,0,1,1.42-1,11.69,11.69,0,0,1,10.58.17,4.2,4.2,0,0,1,1.73,1.83Z"/><g id="_Group_6" data-name="&lt;Group&gt;"><path id="_Compound_Path_8" data-name="&lt;Compound Path&gt;" class="cls-8" d="M1345.69,547.72c-5.65,3-14.44,2.89-19.59-.31s-4.75-8.26.89-11.28,14.44-2.89,19.59.31S1351.33,544.7,1345.69,547.72Zm-14.4-8.93c-3,1.64-3.27,4.37-.48,6.1a11.72,11.72,0,0,0,10.58.17c3-1.64,3.27-4.37.48-6.1A11.72,11.72,0,0,0,1331.29,538.79Z"/></g></g><g id="_12-3" data-name="12"><path id="_Compound_Path_9" data-name="&lt;Compound Path&gt;" class="cls-31" d="M786.83,764.21l-1.75,1.73a9.56,9.56,0,0,0-1.86-1.49c-.18-.11-.36-.2-.55-.3a2.94,2.94,0,0,0,.19-1.13c-.1-.59-4.1-3.16-5.34-3.81s-7.21-.89-7.21-.89l-6.58,4.7,1,.59c-.38.16-.75.34-1.1.53a12.92,12.92,0,0,0-1.73,1.12l-2.77-.41v5.39h0c.06,1.86,1.24,3.71,3.6,5.17,5.15,3.2,13.94,3.34,19.58.32,2.93-1.57,4.43-3.68,4.5-5.79h0Zm-16.77,7.2-3.55-3.58a6,6,0,0,1,1.42-1,11.75,11.75,0,0,1,10.58.17,4.28,4.28,0,0,1,1.73,1.84Z"/><g id="_Group_7" data-name="&lt;Group&gt;"><path id="_Compound_Path_10" data-name="&lt;Compound Path&gt;" class="cls-8" d="M782.32,771.1c-5.64,3-14.43,2.88-19.58-.31s-4.76-8.26.89-11.29,14.43-2.88,19.59.31S788,768.07,782.32,771.1Zm-14.39-8.93c-3.06,1.63-3.27,4.37-.49,6.09a11.71,11.71,0,0,0,10.59.17c3.05-1.63,3.27-4.37.48-6.1A11.72,11.72,0,0,0,767.93,762.17Z"/></g></g><g id="_6-2" data-name="6"><g id="_Group_8" data-name="&lt;Group&gt;"><path id="_Path_26" data-name="&lt;Path&gt;" class="cls-32" d="M1152.26,584c4.33-28.45,0-35,0-35l-28.41,38s7.6,12.16,5.71,19a42.49,42.49,0,0,1-3.49,9.19,2.6,2.6,0,0,0,.74,3.39h0a2.72,2.72,0,0,0,.62.36l10.09,6,12.2-21.28,2.68-12-2.81,2.22A46.06,46.06,0,0,0,1152.26,584Z"/><path id="_Path_27" data-name="&lt;Path&gt;" class="cls-33" d="M1236.08,406.13l-9.69-5.54a25.39,25.39,0,0,0-4.28-1.64h0c-2.61-.84-5.75-.39-9.12,1.58l-119.3,69.41c-9,5.23-16.24,19.2-16.2,31.2l.33,96.6c0,7.2,2.68,12,6.72,13.63l11.09,5.8,8.71-13.09,109.12-63.49c9-5.23,16.24-19.2,16.2-31.2l-.32-93.13Z"/><path class="cls-8" d="M1241.43,419.07c0-12-7.36-17.5-16.34-12.27l-119.3,69.42c-9,5.23-16.24,19.2-16.2,31.2l.33,96.59c0,12,7.36,17.5,16.34,12.27l36.85-21.44a33,33,0,0,1-2.06,17.95c-1.49,3.33-3,6.25-4.36,8.69a2.67,2.67,0,0,0,3.77,3.53c8.6-5.6,20.58-16.41,23.29-34.19.48-3.15.85-6,1.13-8.65l60.68-35.31c9-5.23,16.24-19.2,16.2-31.2Z"/></g><path id="_Path_28" data-name="&lt;Path&gt;" class="cls-34" d="M1141.74,524.05c1.19,9.71-4.53,22.63-12.79,28.86s-15.91,3.39-17.11-6.33,4.53-22.63,12.79-28.86S1140.54,514.33,1141.74,524.05Z"/><path id="_Path_29" data-name="&lt;Path&gt;" class="cls-35" d="M1181.73,501.78c1.19,9.72-4.53,22.64-12.79,28.86s-15.91,3.4-17.11-6.32,4.53-22.64,12.79-28.86S1180.53,492.07,1181.73,501.78Z"/><path id="_Path_30" data-name="&lt;Path&gt;" class="cls-36" d="M1220.61,479.6c1.2,9.71-4.52,22.63-12.78,28.86s-15.92,3.39-17.11-6.33,4.53-22.64,12.78-28.86S1219.42,469.88,1220.61,479.6Z"/></g><text class="cls-37" transform="matrix(0.73, -0.46, 0.89, 0.46, 973.94, 720.74)">技術</text><path class="cls-8" d="M1047.25,409.82l6-8.37-12.89-5.89c-4.63,1.3-10.49,2.88-15.3,4.18a1.91,1.91,0,0,1-1.12-.11c-.46-.21-.58-.54-.23-.75l.11-.06,35.88-9.74a5.06,5.06,0,0,1,3,.06c.84.38,1,1,.55,1.54l-14,19.56a1.38,1.38,0,0,1-1.59.24C1047.21,410.28,1047.05,410.09,1047.25,409.82Zm13.77-19c.59-.86.13-1-1.33-.61l-17.49,4.91,11.74,5.37Z"/><path class="cls-8" d="M1058.15,403.86l-23-10.52c-.4-.19-.41-.53,0-.76h0a1.77,1.77,0,0,1,1.44-.09l23,10.53c.41.18.41.52,0,.75h0A1.77,1.77,0,0,1,1058.15,403.86Z"/><path class="cls-8" d="M1060.89,400l-18.73-8.57c-.4-.18-.41-.52,0-.75h0a1.77,1.77,0,0,1,1.44-.09l18.73,8.57c.4.18.4.52,0,.75h0A1.77,1.77,0,0,1,1060.89,400Z"/></g></svg>