<svg width="189" height="240" viewBox="0 0 189 240" fill="none" xmlns="http://www.w3.org/2000/svg">
<g opacity="0.5">
<path d="M183.579 82.3276L104.854 37.0383C103.595 36.3125 102.449 36.2902 101.584 36.815L96.8428 39.5283L99.9212 41.7504V44.2404L98.1798 44.9662L98.2697 138.057L103.46 143.037L121.268 153.198L177.681 184.921H179.995C180.085 184.921 180.231 184.642 180.355 184.273L182.692 185.613L181.95 189.142L186.77 186.383C187.826 185.792 188.5 184.396 188.5 182.408V91.6735C188.5 88.0669 186.298 83.8797 183.579 82.3276ZM181.467 179.74L105.55 136.058C104.932 135.701 104.427 134.752 104.427 133.926V44.3855L120.122 54.4126L178.995 89.3287L180.669 91.908L181.602 132.463L181.489 179.74H181.467Z" fill="url(#paint0_linear_16030_10853)"/>
<path d="M178.624 85.1754L99.8986 39.875C97.1797 38.3117 94.9775 39.9755 94.9775 43.5709V134.317C94.9775 137.924 97.1797 142.111 99.8986 143.663L178.624 188.952C181.343 190.515 183.545 188.852 183.545 185.256V94.5214C183.545 90.9147 181.343 86.7275 178.624 85.1754ZM179.051 182.554C179.051 183.38 178.546 183.76 177.928 183.403L100.595 138.906C99.9772 138.549 99.4717 137.6 99.4717 136.773V46.2842C99.4717 45.458 99.9772 45.0783 100.595 45.4356L177.928 89.9321C178.546 90.2895 179.051 91.2386 179.051 92.0648V182.554Z" fill="url(#paint1_linear_16030_10853)"/>
</g>
<g opacity="0.5">
<path d="M1.44385 91.6734V182.408C1.44385 184.396 2.11796 185.792 3.17408 186.383L7.99402 189.141L7.25249 185.613L9.58943 184.273C9.71302 184.642 9.85907 184.921 9.94896 184.921H12.2634L68.6758 153.198L86.4837 143.037L91.6744 138.057L91.7643 44.9661L90.0228 44.2403V41.7503L93.1013 39.5282L88.36 36.8037C87.4949 36.2901 86.3489 36.3124 85.0905 37.0382L6.3649 82.3275C3.64596 83.8907 1.44385 88.078 1.44385 91.6734ZM8.36478 132.463L9.29731 91.9079L10.9714 89.3286L69.8218 54.4125L85.5175 44.3854V133.926C85.5175 134.752 85.0119 135.701 84.394 136.058L8.47713 179.74L8.36478 132.463Z" fill="url(#paint2_linear_16030_10853)"/>
<path d="M6.39844 94.5206V185.256C6.39844 188.862 8.60055 190.515 11.3195 188.951L90.0451 143.662C92.7641 142.099 94.9662 137.912 94.9662 134.316V43.5813C94.9662 39.9747 92.7641 38.3221 90.0451 39.8854L11.3195 85.1747C8.60055 86.7379 6.39844 90.9252 6.39844 94.5206ZM10.8926 92.0641C10.8926 91.2378 11.3981 90.2887 12.0161 89.9314L89.3485 45.446C89.9665 45.0887 90.4721 45.4684 90.4721 46.2947V136.773C90.4721 137.599 89.9665 138.548 89.3485 138.905L12.0273 183.402C11.4094 183.759 10.9038 183.38 10.9038 182.553V92.0641H10.8926Z" fill="url(#paint3_linear_16030_10853)"/>
</g>
<path d="M94.9775 143.316L73.3608 130.922V155.722L94.9775 168.116L116.583 155.722V130.922L94.9775 143.316Z" fill="#16E3BA"/>
<path d="M94.9775 168.116L73.3608 155.722V130.922L94.9775 143.316V168.116Z" fill="#16E3BA"/>
<path d="M116.583 155.722L94.9775 168.116V143.316L116.583 130.922V155.722Z" fill="#16E3BA"/>
<path d="M94.9775 143.316L73.3608 130.922L94.9775 118.517L116.583 130.922L94.9775 143.316Z" fill="#16E3BA"/>
<path d="M94.9775 143.316L74.3046 131.458L73.3608 131.994L94.9775 144.399L116.583 131.994L115.65 131.458L94.9775 143.316Z" fill="white"/>
<path d="M123.043 159.239L101.438 146.834V171.634L123.043 184.039L144.649 171.634V146.834L123.043 159.239Z" fill="#16E3BA"/>
<path d="M123.043 184.039L101.438 171.634V146.834L123.043 159.239V184.039Z" fill="#16E3BA"/>
<path d="M144.649 171.634L123.043 184.039V159.239L144.649 146.834V171.634Z" fill="#16E3BA"/>
<path d="M123.043 159.239L101.438 146.834L123.043 134.439L144.649 146.834L123.043 159.239Z" fill="#16E3BA"/>
<path d="M123.043 159.24L102.371 147.37L101.438 147.917L123.043 160.312L144.649 147.917L143.716 147.37L123.043 159.24Z" fill="white"/>
<path d="M151.109 175.151L129.504 162.757V187.557L151.109 199.951L172.726 187.557V162.757L151.109 175.151Z" fill="#16E3BA"/>
<path d="M151.109 199.951L129.504 187.557V162.757L151.109 175.151V199.951Z" fill="#16E3BA"/>
<path opacity="0.7" d="M172.726 187.557L151.109 199.951V175.151L172.726 162.757V187.557Z" fill="#52FCFF"/>
<path opacity="0.7" d="M151.109 175.15L129.504 162.756L151.109 150.351L172.726 162.756L151.109 175.15Z" fill="#52FCFF"/>
<path d="M151.109 175.151L130.436 163.293L129.504 163.829L151.109 176.223L172.726 163.829V162.757L151.109 175.151Z" fill="white"/>
<path d="M66.9009 160.31L45.2954 147.916V172.705L66.9009 185.11L88.5175 172.705V147.916L66.9009 160.31Z" fill="#16E3BA"/>
<path d="M66.9009 185.11L45.2954 172.705V147.916L66.9009 160.31V185.11Z" fill="#16E3BA"/>
<path d="M88.5176 172.705L66.9009 185.11V160.31L88.5176 147.916V172.705Z" fill="#16E3BA"/>
<path d="M66.9009 160.31L45.2954 147.916L66.9009 135.511L88.5175 147.916L66.9009 160.31Z" fill="#16E3BA"/>
<path d="M66.9009 160.31L46.2279 148.452L45.2954 148.988L66.9009 161.382L88.5175 148.988L87.5738 148.452L66.9009 160.31Z" fill="white"/>
<path d="M94.9775 176.234L73.3608 163.828V188.628L94.9775 201.022L116.583 188.628V163.828L94.9775 176.234Z" fill="#16E3BA"/>
<path d="M94.9775 201.022L73.3608 188.628V163.828L94.9775 176.222V201.022Z" fill="#16E3BA"/>
<path d="M116.583 188.628L94.9775 201.022V176.222L116.583 163.828V188.628Z" fill="#16E3BA"/>
<path d="M94.9775 176.222L73.3608 163.828L94.9775 151.434L116.583 163.828L94.9775 176.222Z" fill="#16E3BA"/>
<path d="M94.9775 176.233L74.3046 164.363L73.3608 164.899L94.9775 177.305L116.583 164.899L115.65 164.363L94.9775 176.233Z" fill="white"/>
<path d="M123.043 192.145L101.438 179.751V204.539L123.043 216.945L144.649 204.539V179.751L123.043 192.145Z" fill="#16E3BA"/>
<path d="M123.043 216.945L101.438 204.539V179.751L123.043 192.145V216.945Z" fill="#16E3BA"/>
<path opacity="0.7" d="M144.649 204.539L123.043 216.945V192.145L144.649 179.751V204.539Z" fill="#52FCFF"/>
<path opacity="0.7" d="M123.043 192.145L101.438 179.751L123.043 167.346L144.649 179.751L123.043 192.145Z" fill="#52FCFF"/>
<path d="M123.043 192.145L102.371 180.287L101.438 180.823L123.043 193.217L144.649 180.823V179.751L123.043 192.145Z" fill="white"/>
<path d="M38.8349 177.306L17.2295 164.9V189.7L38.8349 202.105L60.4404 189.7V164.9L38.8349 177.306Z" fill="#16E3BA"/>
<path opacity="0.7" d="M38.8349 202.105L17.2295 189.7V164.9L38.8349 177.306V202.105Z" fill="#52FCFF"/>
<path d="M60.4404 189.7L38.835 202.105V177.306L60.4404 164.9V189.7Z" fill="#16E3BA"/>
<path opacity="0.7" d="M38.8349 177.306L17.2295 164.9L38.8349 152.506L60.4404 164.9L38.8349 177.306Z" fill="#52FCFF"/>
<path d="M38.8349 177.306L17.2295 164.9V165.983L38.8349 178.378L60.4404 165.983L59.5079 165.448L38.8349 177.306Z" fill="white"/>
<path d="M66.9009 193.217L45.2954 180.822V205.622L66.9009 218.016L88.5175 205.622V180.822L66.9009 193.217Z" fill="#16E3BA"/>
<path opacity="0.7" d="M66.9009 218.016L45.2954 205.622V180.822L66.9009 193.217V218.016Z" fill="#52FCFF"/>
<path d="M88.5176 205.622L66.9009 218.016V193.217L88.5176 180.822V205.622Z" fill="#16E3BA"/>
<path opacity="0.7" d="M66.9009 193.217L45.2954 180.822L66.9009 168.417L88.5175 180.822L66.9009 193.217Z" fill="#52FCFF"/>
<path d="M66.9009 193.217L45.2954 180.822V181.894L66.9009 194.3L88.5175 181.894L87.5738 181.358L66.9009 193.217Z" fill="white"/>
<path d="M94.9775 209.14L73.3608 196.734V221.534L94.9775 233.939L116.583 221.534V196.734L94.9775 209.14Z" fill="#16E3BA"/>
<path opacity="0.7" d="M94.9775 233.939L73.3608 221.534V196.734L94.9775 209.14V233.939Z" fill="#52FCFF"/>
<path opacity="0.7" d="M116.583 221.534L94.9775 233.939V209.14L116.583 196.734V221.534Z" fill="#52FCFF"/>
<path opacity="0.7" d="M94.9775 209.14L73.3608 196.734L94.9775 184.34L116.583 196.734L94.9775 209.14Z" fill="#52FCFF"/>
<path d="M94.9775 209.14L73.3608 196.734V197.817L94.9775 210.212L116.583 197.817V196.734L94.9775 209.14Z" fill="white"/>
<path d="M94.9775 110.409L73.3608 98.0039V122.804L94.9775 135.209L116.583 122.804V98.0039L94.9775 110.409Z" fill="#16E3BA"/>
<path d="M94.9775 135.209L73.3608 122.804V98.0039L94.9775 110.409V135.209Z" fill="#16E3BA"/>
<path d="M116.583 122.804L94.9775 135.209V110.409L116.583 98.0039V122.804Z" fill="#16E3BA"/>
<path d="M94.9775 110.41L73.3608 98.0046L94.9775 85.6104L116.583 98.0046L94.9775 110.41Z" fill="#16E3BA"/>
<path d="M94.9775 110.41L74.3046 98.5518L73.3608 99.0877L94.9775 111.482L116.583 99.0877L115.65 98.5518L94.9775 110.41Z" fill="white"/>
<path d="M94.9775 205.097L80.2368 196.644L94.9775 188.181L109.718 196.644L94.9775 205.097Z" fill="#08C29D"/>
<path d="M66.9008 189.186L52.1602 180.722L66.9008 172.27L81.6415 180.722L66.9008 189.186Z" fill="#08C29D"/>
<path d="M123.043 188.102L108.303 179.649L123.043 171.186L137.784 179.649L123.043 188.102Z" fill="#08C29D"/>
<path d="M151.165 171.309L136.425 162.845L151.165 154.393L165.906 162.845L151.165 171.309Z" fill="#08C29D"/>
<path d="M38.8349 173.263L24.0942 164.811L38.8349 156.347L53.5756 164.811L38.8349 173.263Z" fill="#08C29D"/>
<path d="M123.043 126.322L101.438 113.928V138.727L123.043 151.122L144.649 138.727V113.928L123.043 126.322Z" fill="#16E3BA"/>
<path d="M123.043 151.122L101.438 138.727V113.928L123.043 126.322V151.122Z" fill="#16E3BA"/>
<path d="M144.649 138.727L123.043 151.122V126.322L144.649 113.928V138.727Z" fill="#16E3BA"/>
<path d="M123.043 126.322L101.438 113.927L123.043 101.533L144.649 113.927L123.043 126.322Z" fill="#16E3BA"/>
<path d="M123.043 126.321L102.371 114.463L101.438 114.999L123.043 127.404L144.649 114.999L143.716 114.463L123.043 126.321Z" fill="white"/>
<path d="M151.109 142.244L129.504 129.839V154.639L151.109 167.044L172.726 154.639V129.839L151.109 142.244Z" fill="#16E3BA"/>
<path d="M151.109 167.044L129.504 154.639V129.839L151.109 142.244V167.044Z" fill="#16E3BA"/>
<path opacity="0.7" d="M172.726 154.639L151.109 167.044V142.244L172.726 129.839V154.639Z" fill="#52FCFF"/>
<path opacity="0.7" d="M151.109 142.244L129.504 129.839L151.109 117.444L172.726 129.839L151.109 142.244Z" fill="#52FCFF"/>
<path d="M151.109 142.244L130.436 130.386L129.504 130.922L151.109 143.316L172.726 130.922V129.839L151.109 142.244Z" fill="white"/>
<path d="M66.9009 127.404L45.2954 114.999V139.799L66.9009 152.204L88.5175 139.799V114.999L66.9009 127.404Z" fill="#16E3BA"/>
<path d="M66.9009 152.204L45.2954 139.799V114.999L66.9009 127.404V152.204Z" fill="#16E3BA"/>
<path d="M88.5176 139.799L66.9009 152.204V127.404L88.5176 114.999V139.799Z" fill="#16E3BA"/>
<path d="M66.9009 127.404L45.2954 114.999L66.9009 102.604L88.5175 114.999L66.9009 127.404Z" fill="#16E3BA"/>
<path d="M66.9009 127.405L46.2279 115.535L45.2954 116.082L66.9009 128.477L88.5175 116.082L87.5738 115.535L66.9009 127.405Z" fill="white"/>
<path d="M94.9775 143.316L73.3608 130.922V155.722L94.9775 168.116L116.583 155.722V130.922L94.9775 143.316Z" fill="#16E3BA"/>
<path d="M94.9775 168.116L73.3608 155.722V130.922L94.9775 143.316V168.116Z" fill="#16E3BA"/>
<path d="M116.583 155.722L94.9775 168.116V143.316L116.583 130.922V155.722Z" fill="#16E3BA"/>
<path d="M94.9775 143.316L73.3608 130.922L94.9775 118.517L116.583 130.922L94.9775 143.316Z" fill="#16E3BA"/>
<path d="M94.9775 143.316L74.3046 131.458L73.3608 131.994L94.9775 144.399L116.583 131.994L115.65 131.458L94.9775 143.316Z" fill="white"/>
<path d="M123.043 159.239L101.438 146.834V171.634L123.043 184.039L144.649 171.634V146.834L123.043 159.239Z" fill="#16E3BA"/>
<path d="M123.043 184.039L101.438 171.634V146.834L123.043 159.239V184.039Z" fill="#16E3BA"/>
<path opacity="0.7" d="M144.649 171.634L123.043 184.039V159.239L144.649 146.834V171.634Z" fill="#52FCFF"/>
<path opacity="0.7" d="M123.043 159.239L101.438 146.834L123.043 134.439L144.649 146.834L123.043 159.239Z" fill="#52FCFF"/>
<path d="M123.043 159.239L102.371 147.37L101.438 147.917L123.043 160.311L144.649 147.917V146.834L123.043 159.239Z" fill="white"/>
<path d="M38.8349 144.4L17.2295 131.994V156.794L38.8349 169.188L60.4404 156.794V131.994L38.8349 144.4Z" fill="#16E3BA"/>
<path opacity="0.7" d="M38.8349 169.188L17.2295 156.794V131.994L38.8349 144.4V169.188Z" fill="#52FCFF"/>
<path d="M60.4404 156.794L38.835 169.188V144.4L60.4404 131.994V156.794Z" fill="#16E3BA"/>
<path opacity="0.7" d="M38.8349 144.399L17.2295 131.994L38.8349 119.6L60.4404 131.994L38.8349 144.399Z" fill="#52FCFF"/>
<path d="M38.8349 144.4L18.162 132.53L17.2295 133.066L38.8349 145.472L60.4404 133.066L59.5079 132.53L38.8349 144.4Z" fill="white"/>
<path d="M66.9009 160.31L45.2954 147.916V172.705L66.9009 185.11L88.5175 172.705V147.916L66.9009 160.31Z" fill="#16E3BA"/>
<path opacity="0.7" d="M66.9009 185.11L45.2954 172.705V147.916L66.9009 160.31V185.11Z" fill="#52FCFF"/>
<path d="M88.5176 172.705L66.9009 185.11V160.31L88.5176 147.916V172.705Z" fill="#16E3BA"/>
<path opacity="0.7" d="M66.9009 160.31L45.2954 147.916L66.9009 135.511L88.5175 147.916L66.9009 160.31Z" fill="#52FCFF"/>
<path d="M66.9009 160.31L45.2954 147.916V148.988L66.9009 161.382L88.5175 148.988L87.5738 148.452L66.9009 160.31Z" fill="white"/>
<path d="M94.9775 176.234L73.3608 163.828V188.628L94.9775 201.022L116.583 188.628V163.828L94.9775 176.234Z" fill="#16E3BA"/>
<path opacity="0.7" d="M94.9775 201.022L73.3608 188.628V163.828L94.9775 176.234V201.022Z" fill="#52FCFF"/>
<path opacity="0.7" d="M116.583 188.628L94.9775 201.022V176.234L116.583 163.828V188.628Z" fill="#52FCFF"/>
<path opacity="0.7" d="M94.9775 176.233L73.3608 163.828L94.9775 151.434L116.583 163.828L94.9775 176.233Z" fill="#52FCFF"/>
<path d="M94.9775 176.234L73.3608 163.828V164.9L94.9775 177.305L116.583 164.9V163.828L94.9775 176.234Z" fill="white"/>
<path d="M94.9775 77.5031L73.3608 65.0977V89.8973L94.9775 102.292L116.583 89.8973V65.0977L94.9775 77.5031Z" fill="#16E3BA"/>
<path d="M94.9775 102.292L73.3608 89.8973V65.0977L94.9775 77.5031V102.292Z" fill="#16E3BA"/>
<path d="M116.583 89.8973L94.9775 102.292V77.5031L116.583 65.0977V89.8973Z" fill="#16E3BA"/>
<path opacity="0.7" d="M94.9775 77.5038L73.3608 65.0984L94.9775 52.7041L116.583 65.0984L94.9775 77.5038Z" fill="#52FCFF"/>
<path d="M94.9775 77.5031L73.3608 65.0977V66.1696L94.9775 78.575L116.583 66.1808V65.0977L94.9775 77.5031Z" fill="white"/>
<path d="M123.043 93.4148L101.438 81.0205V105.809L123.043 118.214L144.649 105.809V81.0205L123.043 93.4148Z" fill="#16E3BA"/>
<path d="M123.043 118.214L101.438 105.809V81.0205L123.043 93.4148V118.214Z" fill="#16E3BA"/>
<path opacity="0.7" d="M144.649 105.81L123.043 118.215V93.4157L144.649 81.0215V105.81Z" fill="#52FCFF"/>
<path opacity="0.7" d="M123.043 93.4149L101.438 81.0207L123.043 68.6152L144.649 81.0207L123.043 93.4149Z" fill="#52FCFF"/>
<path d="M123.043 93.4148L101.438 81.0205V82.0924L123.043 94.4867L144.649 82.0924V81.0205L123.043 93.4148Z" fill="white"/>
<path d="M151.109 109.338L129.504 96.9326V121.732L151.109 134.127L172.726 121.732V96.9326L151.109 109.338Z" fill="#16E3BA"/>
<path d="M151.109 134.127L129.504 121.732V96.9326L151.109 109.338V134.127Z" fill="#16E3BA"/>
<path opacity="0.7" d="M172.726 121.732L151.109 134.127V109.338L172.726 96.9326V121.732Z" fill="#52FCFF"/>
<path opacity="0.7" d="M151.109 109.338L129.504 96.9323L151.109 84.5381L172.726 96.9323L151.109 109.338Z" fill="#52FCFF"/>
<path d="M151.109 109.338L129.504 96.9326V98.0046L151.109 110.41L172.726 98.0046V96.9326L151.109 109.338Z" fill="white"/>
<path d="M66.9009 94.487L45.2954 82.0928V106.892L66.9009 119.287L88.5175 106.892V82.0928L66.9009 94.487Z" fill="#16E3BA"/>
<path d="M66.9009 119.287L45.2954 106.892V82.0928L66.9009 94.487V119.287Z" fill="#16E3BA"/>
<path d="M88.5176 106.892L66.9009 119.287V94.487L88.5176 82.0928V106.892Z" fill="#16E3BA"/>
<path opacity="0.7" d="M66.9009 94.4868L45.2954 82.0925L66.9009 69.6982L88.5175 82.0925L66.9009 94.4868Z" fill="#52FCFF"/>
<path d="M66.9009 94.487L45.2954 82.0928V83.1647L66.9009 95.5701L88.5175 83.1647V82.0928L66.9009 94.487Z" fill="white"/>
<path d="M38.8349 111.482L17.2295 99.0879V123.888L38.8349 136.282L60.4404 123.888V99.0879L38.8349 111.482Z" fill="#16E3BA"/>
<path opacity="0.7" d="M38.8349 136.282L17.2295 123.888V99.0879L38.8349 111.482V136.282Z" fill="#52FCFF"/>
<path d="M60.4404 123.888L38.835 136.282V111.482L60.4404 99.0879V123.888Z" fill="#16E3BA"/>
<path opacity="0.7" d="M38.8349 111.482L17.2295 99.088L38.8349 86.6826L60.4404 99.088L38.8349 111.482Z" fill="#52FCFF"/>
<path d="M38.8349 111.482L17.2295 99.0879V100.16L38.8349 112.565L60.4404 100.16V99.0879L38.8349 111.482Z" fill="white"/>
<path d="M94.9775 110.801L73.3608 98.4072V123.207L94.9775 135.601L116.583 123.207V98.4072L94.9775 110.801Z" fill="#16E3BA"/>
<path d="M94.9775 135.601L73.3608 123.207V98.4072L94.9775 110.801V135.601Z" fill="#16E3BA"/>
<path opacity="0.7" d="M116.583 123.207L94.9775 135.601V110.801L116.583 98.4072V123.207Z" fill="#52FCFF"/>
<path opacity="0.7" d="M94.9775 110.801L73.3608 98.4064L94.9775 86.001L116.583 98.4064L94.9775 110.801Z" fill="#52FCFF"/>
<path d="M94.9775 110.801L74.3046 98.9424L73.3608 99.4784L94.9775 111.884L116.583 99.4784L115.65 98.9424L94.9775 110.801Z" fill="white"/>
<path d="M123.043 126.724L101.438 114.318V139.118L123.043 151.523L144.649 139.118V114.318L123.043 126.724Z" fill="#16E3BA"/>
<path d="M123.043 151.523L101.438 139.118V114.318L123.043 126.724V151.523Z" fill="#16E3BA"/>
<path opacity="0.7" d="M144.649 139.118L123.043 151.523V126.724L144.649 114.318V139.118Z" fill="#52FCFF"/>
<path opacity="0.7" d="M123.043 126.724L101.438 114.318L123.043 101.924L144.649 114.318L123.043 126.724Z" fill="#52FCFF"/>
<path d="M123.043 126.724L102.371 114.865L101.438 115.401L123.043 127.796L144.649 115.401V114.318L123.043 126.724Z" fill="white"/>
<path d="M66.9009 127.796L45.2954 115.401V140.201L66.9009 152.595L88.5175 140.201V115.401L66.9009 127.796Z" fill="#16E3BA"/>
<path opacity="0.7" d="M66.9009 152.595L45.2954 140.201V115.401L66.9009 127.796V152.595Z" fill="#52FCFF"/>
<path d="M88.5176 140.201L66.9009 152.595V127.796L88.5176 115.401V140.201Z" fill="#16E3BA"/>
<path opacity="0.7" d="M66.9009 127.796L45.2954 115.402L66.9009 102.996L88.5175 115.402L66.9009 127.796Z" fill="#52FCFF"/>
<path d="M66.9009 127.796L45.2954 115.401V116.473L66.9009 128.879L88.5175 116.473L87.5738 115.937L66.9009 127.796Z" fill="white"/>
<path d="M94.9775 143.719L73.3608 131.313V156.113L94.9775 168.519L116.583 156.113V131.313L94.9775 143.719Z" fill="#16E3BA"/>
<path opacity="0.7" d="M94.9775 168.519L73.3608 156.113V131.313L94.9775 143.719V168.519Z" fill="#52FCFF"/>
<path opacity="0.7" d="M116.583 156.112L94.9775 168.518V143.718L116.583 131.312V156.112Z" fill="#52FCFF"/>
<path opacity="0.7" d="M94.9775 143.719L73.3608 131.313L94.9775 118.919L116.583 131.313L94.9775 143.719Z" fill="#52FCFF"/>
<path d="M94.9775 143.719L73.3608 131.313V132.397L94.9775 144.791L116.583 132.397V131.313L94.9775 143.719Z" fill="white"/>
<path d="M89.1129 132.786L10.3872 87.4963C9.12887 86.7705 7.98287 86.7482 7.11775 87.273L2.37646 89.9863L5.45493 92.2084V94.6984L3.71346 95.4242L3.80335 188.515L8.99405 193.495L26.802 203.656L83.2143 235.379H85.5288C85.6187 235.379 85.7647 235.1 85.8883 234.731L88.2253 236.071L87.4837 239.6L92.3037 236.842C93.3598 236.25 94.0339 234.865 94.0339 232.866V142.132C94.0339 138.525 91.8318 134.338 89.1129 132.786ZM87.0006 230.198L11.0838 186.516C10.4659 186.159 9.96028 185.21 9.96028 184.384V94.8435L25.656 104.871L84.5289 139.787L86.2029 142.366L87.1354 182.921L87.0231 230.198H87.0006Z" fill="url(#paint4_linear_16030_10853)"/>
<path d="M84.1467 135.633L5.42105 90.333C2.70212 88.7697 0.5 90.4335 0.5 94.0289V184.764C0.5 188.37 2.70212 192.558 5.42105 194.11L84.1467 239.399C86.8656 240.962 89.0677 239.299 89.0677 235.703V144.979C89.0677 141.373 86.8656 137.186 84.1467 135.633ZM84.5736 233.012C84.5736 233.838 84.0681 234.218 83.4501 233.861L6.11764 189.364C5.4997 189.007 4.99411 188.058 4.99411 187.232V96.7423C4.99411 95.916 5.4997 95.5363 6.11764 95.8936L83.4501 140.39C84.0681 140.747 84.5736 141.697 84.5736 142.523V233.012Z" fill="url(#paint5_linear_16030_10853)"/>
<path opacity="0.6" d="M84.5737 233.012C84.5737 233.838 84.0681 234.218 83.4501 233.86L6.11767 189.364C5.49973 189.006 4.99414 188.057 4.99414 187.231V96.7418C4.99414 95.9155 5.49973 95.5359 6.11767 95.8932L83.4501 140.39C84.0681 140.747 84.5737 141.696 84.5737 142.522V233.012Z" fill="#52FCFF"/>
<path d="M94.0112 142.132V232.867C94.0112 234.855 94.6853 236.251 95.7415 236.842L100.561 239.6L99.8199 236.072L102.157 234.732C102.28 235.101 102.426 235.38 102.516 235.38H104.831L161.243 203.657L179.051 193.496L184.242 188.516L184.332 95.4251L182.59 94.6993V92.2092L185.669 89.9872L180.927 87.2627C180.062 86.7491 178.916 86.7714 177.658 87.4972L98.9323 132.786C96.2133 134.35 94.0112 138.537 94.0112 142.132ZM100.932 182.922L101.865 142.367L103.539 139.788L162.412 104.871L178.107 94.8444V184.385C178.107 185.211 177.602 186.16 176.984 186.517L101.067 230.199L100.955 182.922H100.932Z" fill="url(#paint6_linear_16030_10853)"/>
<path d="M98.9658 144.98V235.714C98.9658 239.321 101.168 240.974 103.887 239.41L182.613 194.121C185.331 192.558 187.534 188.371 187.534 184.775V94.0403C187.534 90.4337 185.331 88.7811 182.613 90.3444L103.887 135.634C101.168 137.197 98.9658 141.384 98.9658 144.98ZM103.46 142.523C103.46 141.697 103.966 140.748 104.583 140.39L181.916 95.8939C182.534 95.5366 183.039 95.9162 183.039 96.7425V187.232C183.039 188.058 182.534 189.007 181.916 189.364L104.583 233.861C103.966 234.218 103.46 233.839 103.46 233.012V142.523Z" fill="url(#paint7_linear_16030_10853)"/>
<path opacity="0.6" d="M103.471 233.013C103.471 233.839 103.977 234.219 104.595 233.861L181.927 189.365C182.545 189.007 183.051 188.058 183.051 187.232V96.7428C183.051 95.9165 182.545 95.5368 181.927 95.8942L104.595 140.391C103.977 140.748 103.471 141.697 103.471 142.523V233.013Z" fill="#52FCFF"/>
<path d="M99.7189 132.35L178.838 87.061C180.568 86.0673 181.444 84.7943 181.433 83.5884V78.0724L178.725 80.4731L176.388 79.1332C176.647 78.8429 176.815 78.586 176.77 78.4967C176.636 78.2622 175.613 76.498 175.613 76.498L119.808 43.7481L102.067 33.4866L95.1349 31.499L13.915 77.8826L14.151 79.7473L11.9826 80.9867L8.51087 79.4458V84.8837C8.4884 85.8998 9.08387 86.8712 10.331 87.5858L89.1128 132.775C91.8317 134.338 96.5842 134.148 99.7189 132.35ZM131.841 106.032L96.0112 125.472L92.9328 125.327L33.0937 92.0522L16.5216 83.5437L94.5956 38.8574C95.3147 38.4443 96.3932 38.3996 97.0224 38.7569L172.995 82.3378L131.841 106.032Z" fill="url(#paint8_linear_16030_10853)"/>
<path d="M99.7299 126.655L178.849 81.3662C181.995 79.5685 182.332 76.8439 179.613 75.2807L100.831 30.0919C98.1121 28.5287 93.3595 28.7185 90.2249 30.5162L11.106 75.8055C7.96015 77.6032 7.62309 80.3277 10.342 81.891L89.1238 127.08C91.8428 128.643 96.5953 128.453 99.7299 126.655ZM95.3482 124.009C94.6291 124.422 93.5505 124.467 92.9214 124.11L15.5327 79.7136C14.9148 79.3563 14.9934 78.731 15.7125 78.329L94.6067 33.1626C95.3257 32.7494 96.4043 32.7048 97.0335 33.0621L174.422 77.4581C175.04 77.8154 174.961 78.4407 174.242 78.8427L95.3482 123.998V124.009Z" fill="url(#paint9_linear_16030_10853)"/>
<path opacity="0.8" d="M174.242 78.8431C174.962 78.43 175.04 77.8158 174.422 77.4585L97.0224 33.0625C96.4044 32.7052 95.3146 32.7499 94.5956 33.163L15.7014 78.3295C14.9823 78.7426 14.9037 79.3568 15.5216 79.7141L92.9103 124.11C93.5282 124.467 94.618 124.423 95.3371 124.01L174.231 78.8543L174.242 78.8431Z" fill="url(#paint10_linear_16030_10853)"/>
<path d="M53.1421 3.61399L57.8704 0.945838C58.5459 0.61232 59.2214 0.362181 59.9813 0.195421C61.2478 -0.221477 62.7677 0.0286618 64.4564 0.945838L122.885 34.2977C127.276 36.7991 130.822 43.5529 130.822 49.3061L130.653 95.7486C130.653 99.2505 129.302 101.502 127.36 102.336L121.957 105.087L117.65 98.8336L64.2031 68.3166C59.8124 65.8152 56.2662 59.0615 56.2662 53.3083L56.4351 8.53339L53.1421 3.61399Z" fill="url(#paint11_linear_16030_10853)"/>
<path opacity="0.8" fill-rule="evenodd" clip-rule="evenodd" d="M50.096 9.55147C50.1164 3.73729 53.7081 1.07702 58.1184 3.60972L116.681 37.2357C121.091 39.7684 124.65 46.5345 124.63 52.3494L124.47 99.1388C124.449 104.953 120.858 107.613 116.448 105.081L57.8851 71.4545C53.4749 68.9218 49.9155 62.1557 49.9351 56.3415L50.096 9.55147Z" fill="#52FCFF"/>
<path fill-rule="evenodd" clip-rule="evenodd" d="M87.2825 33.0522C99.2001 40.183 108.861 55.4964 108.862 67.2558C108.862 79.0158 99.2001 82.7688 87.2825 75.6387C75.3656 68.5086 65.7041 53.1945 65.7041 41.4351C65.7041 29.6751 75.3656 25.9221 87.2825 33.0522Z" fill="#FF1351"/>
<path fill-rule="evenodd" clip-rule="evenodd" d="M95.7641 67.2217C96.1238 67.8291 96.3037 68.3997 96.3037 68.9321C96.3037 69.4646 96.1238 69.8002 95.7641 69.9382C95.4036 70.0768 94.9547 69.9832 94.4144 69.6581C93.8748 69.3322 93.4068 68.8732 93.0105 68.279L85.9395 57.0396L78.8671 59.7561C78.4715 59.8725 78.0219 59.7796 77.5174 59.476C77.0136 59.1723 76.5647 58.7237 76.1684 58.1295C75.7728 57.5361 75.5747 56.9731 75.5747 56.4399C75.5747 55.9074 75.7728 55.5656 76.1684 55.4131L83.186 52.6641L76.1684 41.4566C75.7728 40.8277 75.5747 40.2467 75.5747 39.7136C75.5747 39.1811 75.7728 38.8566 76.1684 38.7402C76.5647 38.623 77.0136 38.7173 77.5174 39.0203C78.0219 39.3239 78.4715 39.7732 78.8671 40.3667L85.9395 51.6068L93.0105 48.8897C93.4068 48.7732 93.8748 48.8779 94.4144 49.203C94.9547 49.5282 95.4036 49.9768 95.7641 50.5488C96.1238 51.1208 96.3037 51.6733 96.3037 52.2058C96.3037 52.7383 96.1238 53.0919 95.7641 53.2659L88.6923 55.9823L95.7641 67.2217Z" fill="white"/>
<defs>
<linearGradient id="paint0_linear_16030_10853" x1="96.8429" y1="189.142" x2="188.5" y2="189.142" gradientUnits="userSpaceOnUse">
<stop stop-color="#17D1AA"/>
<stop offset="0.15" stop-color="#1ACBAF"/>
<stop offset="0.37" stop-color="#21B8BC"/>
<stop offset="0.62" stop-color="#2E9BD3"/>
<stop offset="0.89" stop-color="#3F71F1"/>
<stop offset="1" stop-color="#475FFF"/>
</linearGradient>
<linearGradient id="paint1_linear_16030_10853" x1="187.516" y1="280.52" x2="397.2" y2="67.2443" gradientUnits="userSpaceOnUse">
<stop stop-color="#244ABF"/>
<stop offset="1" stop-color="#4760FF"/>
</linearGradient>
<linearGradient id="paint2_linear_16030_10853" x1="1.44394" y1="189.142" x2="93.1013" y2="189.142" gradientUnits="userSpaceOnUse">
<stop stop-color="#17D1AA"/>
<stop offset="0.15" stop-color="#1ACBAF"/>
<stop offset="0.37" stop-color="#21B8BC"/>
<stop offset="0.62" stop-color="#2E9BD3"/>
<stop offset="0.89" stop-color="#3F71F1"/>
<stop offset="1" stop-color="#475FFF"/>
</linearGradient>
<linearGradient id="paint3_linear_16030_10853" x1="98.9367" y1="280.516" x2="308.61" y2="67.2405" gradientUnits="userSpaceOnUse">
<stop stop-color="#244ABF"/>
<stop offset="1" stop-color="#4760FF"/>
</linearGradient>
<linearGradient id="paint4_linear_16030_10853" x1="98.1429" y1="332.054" x2="311.125" y2="111.443" gradientUnits="userSpaceOnUse">
<stop stop-color="#244ABF"/>
<stop offset="1" stop-color="#4760FF"/>
</linearGradient>
<linearGradient id="paint5_linear_16030_10853" x1="0.500092" y1="239.988" x2="89.0677" y2="239.988" gradientUnits="userSpaceOnUse">
<stop stop-color="#17D1AA"/>
<stop offset="0.15" stop-color="#1ACBAF"/>
<stop offset="0.37" stop-color="#21B8BC"/>
<stop offset="0.62" stop-color="#2E9BD3"/>
<stop offset="0.89" stop-color="#3F71F1"/>
<stop offset="1" stop-color="#475FFF"/>
</linearGradient>
<linearGradient id="paint6_linear_16030_10853" x1="189.778" y1="332.056" x2="402.762" y2="111.445" gradientUnits="userSpaceOnUse">
<stop stop-color="#244ABF"/>
<stop offset="1" stop-color="#4760FF"/>
</linearGradient>
<linearGradient id="paint7_linear_16030_10853" x1="98.9659" y1="240.001" x2="187.534" y2="240.001" gradientUnits="userSpaceOnUse">
<stop stop-color="#17D1AA"/>
<stop offset="0.15" stop-color="#1ACBAF"/>
<stop offset="0.37" stop-color="#21B8BC"/>
<stop offset="0.62" stop-color="#2E9BD3"/>
<stop offset="0.89" stop-color="#3F71F1"/>
<stop offset="1" stop-color="#475FFF"/>
</linearGradient>
<linearGradient id="paint8_linear_16030_10853" x1="189.185" y1="195.798" x2="276.846" y2="-59.8024" gradientUnits="userSpaceOnUse">
<stop stop-color="#244ABF"/>
<stop offset="1" stop-color="#4760FF"/>
</linearGradient>
<linearGradient id="paint9_linear_16030_10853" x1="8.50555" y1="128.139" x2="181.449" y2="128.139" gradientUnits="userSpaceOnUse">
<stop stop-color="#17D1AA"/>
<stop offset="0.15" stop-color="#1ACBAF"/>
<stop offset="0.37" stop-color="#21B8BC"/>
<stop offset="0.62" stop-color="#2E9BD3"/>
<stop offset="0.89" stop-color="#3F71F1"/>
<stop offset="1" stop-color="#475FFF"/>
</linearGradient>
<linearGradient id="paint10_linear_16030_10853" x1="15.1056" y1="124.352" x2="174.838" y2="124.352" gradientUnits="userSpaceOnUse">
<stop stop-color="#17D1AA"/>
<stop offset="0.15" stop-color="#1ACBAF"/>
<stop offset="0.37" stop-color="#21B8BC"/>
<stop offset="0.62" stop-color="#2E9BD3"/>
<stop offset="0.89" stop-color="#3F71F1"/>
<stop offset="1" stop-color="#475FFF"/>
</linearGradient>
<linearGradient id="paint11_linear_16030_10853" x1="53.1422" y1="105.088" x2="130.822" y2="105.088" gradientUnits="userSpaceOnUse">
<stop stop-color="#17D1AA"/>
<stop offset="0.15" stop-color="#1ACBAF"/>
<stop offset="0.37" stop-color="#21B8BC"/>
<stop offset="0.62" stop-color="#2E9BD3"/>
<stop offset="0.89" stop-color="#3F71F1"/>
<stop offset="1" stop-color="#475FFF"/>
</linearGradient>
</defs>
</svg>
