<?xml version="1.0" encoding="UTF-8"?>
<svg width="24px" height="24px" viewBox="0 0 24 24" version="1.1" xmlns="http://www.w3.org/2000/svg" xmlns:xlink="http://www.w3.org/1999/xlink">
    <!-- Generator: Sketch 52.6 (67491) - http://www.bohemiancoding.com/sketch -->
    <title>icon/warning</title>
    <desc>Created with Sketch.</desc>
    <g id="icon/warning" stroke="none" stroke-width="1" fill="none" fillRule="evenodd">
        <g transform="translate(-0.076135, 0.000000)">
            <rect id="icon-area" fill="#FFFFFF" opacity="0" x="0" y="0" width="24" height="24"></rect>
            <g transform="translate(2.000000, 2.000000)">
                <circle id="Oval" fill="#FFFFFF" cx="10" cy="10" r="10"></circle>
                <path d="M8.71707636,15.3160767 C8.71707636,14.9514391 8.85143946,14.6415885 9.11989088,14.3865249 C9.38834229,14.1314612 9.7150452,14.0033207 10.0986257,14.0033207 C10.4365943,14.0033207 10.728676,14.1314612 10.9748709,14.3865249 C11.2213407,14.6415885 11.3447129,14.9514391 11.3447129,15.3160767 C11.3447129,15.6658 11.2213407,15.9719981 10.9748709,16.2343667 C10.728676,16.4970396 10.4363195,16.6279195 10.0986257,16.6279195 C9.71477043,16.6279195 9.38834229,16.4970396 9.11989088,16.2343667 C8.85143946,15.9719981 8.71707636,15.6658 8.71707636,15.3160767 Z M8.8462188,4.12438821 C8.8462188,3.80613338 8.96024883,3.56060016 9.18858366,3.38752792 C9.41664372,3.21445567 9.71202271,3.12791955 10.0749954,3.12791955 C10.4376933,3.12791955 10.7044961,3.21784413 10.8743047,3.39795396 C11.044388,3.57806378 11.1295671,3.81994788 11.1295671,4.12438821 C11.1295671,5.12111752 11.1111574,5.5842943 11.075712,7.8399678 C11.0394422,10.0956413 11.0218568,10.8066972 11.0218568,11.8029052 C11.0218568,12.0109046 10.9190924,12.1735508 10.7141131,12.2911044 C10.5088591,12.4083974 10.2959114,12.4675651 10.0749954,12.4675651 C9.42818411,12.4675651 9.10477846,12.2460118 9.10477846,11.8029052 C9.10477846,10.8066972 9.06163939,10.0956413 8.97563602,7.8399678 C8.88935788,5.58403365 8.8462188,5.12085687 8.8462188,4.12438821 Z" id="Fill-1" fill="#3154CB"></path>
            </g>
        </g>
    </g>
</svg>