<svg width="20" height="20" viewBox="0 0 20 20" fill="none" xmlns="http://www.w3.org/2000/svg">
    <path
        d="M1 10C0.447715 10 -0.00518145 10.4488 0.0499546 10.9984C0.213004 12.6234 0.772302 14.1893 1.6853 15.5557C2.78412 17.2002 4.3459 18.4819 6.17316 19.2388C8.00043 19.9957 10.0111 20.1937 11.9509 19.8079C13.8907 19.422 15.6725 18.4696 17.0711 17.0711C18.4696 15.6725 19.422 13.8907 19.8079 11.9509C20.1937 10.0111 19.9957 8.00043 19.2388 6.17317C18.4819 4.34591 17.2002 2.78412 15.5557 1.6853C14.1893 0.772303 12.6234 0.213005 10.9984 0.0499548C10.4488 -0.00518137 10 0.447715 10 1V1C10 1.55228 10.4494 1.99356 10.9974 2.06242C12.2262 2.21683 13.4072 2.65513 14.4446 3.34824C15.7602 4.22729 16.7855 5.47672 17.391 6.93853C17.9965 8.40034 18.155 10.0089 17.8463 11.5607C17.5376 13.1126 16.7757 14.538 15.6569 15.6569C14.538 16.7757 13.1126 17.5376 11.5607 17.8463C10.0089 18.155 8.40034 17.9965 6.93853 17.391C5.47672 16.7855 4.22729 15.7602 3.34824 14.4446C2.65513 13.4072 2.21683 12.2262 2.06242 10.9974C1.99356 10.4494 1.55228 10 1 10V10Z"
        fill="url(#paint0_linear_12921_42008)" />
    <defs>
        <linearGradient id="paint0_linear_12921_42008" x1="2.5" y1="9.5" x2="9.5" y2="1" gradientUnits="userSpaceOnUse">
            <stop offset="0.0311324" stop-color="#3154CB" />
            <stop offset="1" stop-color="#3154CB" stop-opacity="0.18" />
        </linearGradient>
    </defs>
</svg>