<?xml version="1.0" encoding="UTF-8"?>
<svg width="24px" height="24px" viewBox="0 0 24 24" version="1.1" xmlns="http://www.w3.org/2000/svg" xmlns:xlink="http://www.w3.org/1999/xlink">
    <title>2E21D996-C9C2-4FB5-90F1-8B4FAD2F9C9B</title>
    <defs>
        <rect id="path-1" x="0" y="0" width="1198" height="617" rx="8"></rect>
        <rect id="path-3" x="0" y="0" width="673" height="805" rx="8"></rect>
        <filter x="-5.2%" y="-2.7%" width="110.4%" height="108.7%" filterUnits="objectBoundingBox" id="filter-4">
            <feMorphology radius="0.5" operator="erode" in="SourceAlpha" result="shadowSpreadOuter1"></feMorphology>
            <feOffset dx="0" dy="13" in="shadowSpreadOuter1" result="shadowOffsetOuter1"></feOffset>
            <feGaussianBlur stdDeviation="10" in="shadowOffsetOuter1" result="shadowBlurOuter1"></feGaussianBlur>
            <feComposite in="shadowBlurOuter1" in2="SourceAlpha" operator="out" result="shadowBlurOuter1"></feComposite>
            <feColorMatrix values="0 0 0 0 0   0 0 0 0 0   0 0 0 0 0  0 0 0 0.15 0" type="matrix" in="shadowBlurOuter1"></feColorMatrix>
        </filter>
    </defs>
    <g id="✅-REVAMP-1.1" stroke="none" stroke-width="1" fill="none" fill-rule="evenodd">
        <g id="2.3---navigation" transform="translate(-948.000000, -572.000000)">
            <rect id="bg" fill="#F0F3F5" x="0" y="93" width="1366" height="885"></rect>
            <g id="element/stake-pools/advanced" transform="translate(128.000000, 585.000000)">
                <mask id="mask-2" fill="white">
                    <use xlink:href="#path-1"></use>
                </mask>
                <use id="Rectangle-Copy-28" fill="#FFFFFF" xlink:href="#path-1"></use>
            </g>
            <rect id="overlay" fill="#0B183A" opacity="0.8" x="0" y="0" width="1366" height="973"></rect>
            <g id="popup" transform="translate(347.000000, 100.000000)">
                <g id="bg">
                    <use fill="black" fill-opacity="1" filter="url(#filter-4)" xlink:href="#path-3"></use>
                    <rect stroke="#D9DDE0" stroke-width="1" stroke-linejoin="square" fill="#FFFFFF" fill-rule="evenodd" x="0.5" y="0.5" width="672" height="804" rx="8"></rect>
                </g>
                <g id="icon/to-star" transform="translate(601.000000, 472.000000)">
                    <rect id="Rectangle" x="0" y="0" width="24" height="24"></rect>
                    <polygon id="Star" stroke="#6B7384" stroke-width="1.5" stroke-linejoin="round" points="12 17 6.12214748 20.0901699 7.24471742 13.545085 2.48943484 8.90983006 9.06107374 7.95491503 12 2 14.9389263 7.95491503 21.5105652 8.90983006 16.7552826 13.545085 17.8778525 20.0901699"></polygon>
                </g>
                <g id="icon/stared" transform="translate(601.000000, 472.000000)">
                    <rect id="Rectangle-Copy" x="0" y="0" width="24" height="24"></rect>
                    <polygon id="Star" stroke="#6B7384" stroke-width="1.5" fill="#6B7384" stroke-linejoin="round" points="12 17 6.12214748 20.0901699 7.24471742 13.545085 2.48943484 8.90983006 9.06107374 7.95491503 12 2 14.9389263 7.95491503 21.5105652 8.90983006 16.7552826 13.545085 17.8778525 20.0901699"></polygon>
                </g>
            </g>
        </g>
    </g>
</svg>