<svg width="56" height="56" viewBox="0 0 56 56" fill="none" xmlns="http://www.w3.org/2000/svg">
<path d="M0 28C0 12.536 12.536 0 28 0C43.464 0 56 12.536 56 28C56 43.464 43.464 56 28 56C12.536 56 0 43.464 0 28Z" fill="#4B6DDE"/>
<path fillRule="evenodd" clipRule="evenodd" d="M21 20C20.7348 20 20.4804 20.1054 20.2929 20.2929C20.1054 20.4804 20 20.7348 20 21V34.5858L22.2929 32.2929C22.4804 32.1054 22.7348 32 23 32H35C35.2652 32 35.5196 31.8946 35.7071 31.7071C35.8946 31.5196 36 31.2652 36 31V21C36 20.7348 35.8946 20.4804 35.7071 20.2929C35.5196 20.1054 35.2652 20 35 20H21ZM18.8787 18.8787C19.4413 18.3161 20.2044 18 21 18H35C35.7957 18 36.5587 18.3161 37.1213 18.8787C37.6839 19.4413 38 20.2043 38 21V31C38 31.7957 37.6839 32.5587 37.1213 33.1213C36.5587 33.6839 35.7957 34 35 34H23.4142L19.7071 37.7071C19.4211 37.9931 18.991 38.0787 18.6173 37.9239C18.2436 37.7691 18 37.4045 18 37V21C18 20.2044 18.3161 19.4413 18.8787 18.8787Z" fill="white"/>
</svg>
