<?xml version="1.0" encoding="UTF-8"?>
<svg width="42px" height="40px" viewBox="0 0 42 40" version="1.1" xmlns="http://www.w3.org/2000/svg" xmlns:xlink="http://www.w3.org/1999/xlink">
    <!-- Generator: Sketch 52.6 (67491) - http://www.bohemiancoding.com/sketch -->
    <title>Fill-1</title>
    <desc>Created with Sketch.</desc>
    <g id="Page-1" stroke="none" stroke-width="1" fill="none" fill-rule="evenodd">
        <g id="support" fill="#FFFFFF" fill-rule="nonzero">
            <path d="M38.144986,20.5517073 C38.4487535,20.8765854 38.4301953,21.3887805 38.1049395,21.6921951 C37.9496372,21.8365854 37.7523349,21.9078049 37.5550326,21.9078049 C37.3381953,21.9078049 37.1223349,21.8219512 36.9631256,21.6521951 L29.9413116,14.14 C29.7938233,13.9819512 29.7166605,13.7760976 29.7244744,13.5604878 C29.7322884,13.344878 29.8231256,13.1458537 29.9823349,12.9985366 C30.138614,12.8521951 30.3339628,12.7692683 30.5605674,12.7829268 C30.7764279,12.7897561 30.9756837,12.8814634 31.1241488,13.0385366 L38.144986,20.5517073 Z M12.2134047,21.6921951 C12.0551721,21.544878 11.9633581,21.344878 11.9565209,21.1292683 C11.948707,20.9146341 12.0258698,20.7097561 12.1723814,20.5517073 L19.2010326,13.0346341 C19.5096837,12.7370732 19.9970791,12.7321951 20.310614,13.024878 C20.6251256,13.3165854 20.6563814,13.802439 20.3819163,14.1312195 L13.3552186,21.6521951 C13.1960093,21.8229268 12.9791721,21.9087805 12.7642884,21.9087805 C12.566986,21.9087805 12.3677302,21.8365854 12.2134047,21.6921951 Z M23.6930791,13.162439 L12.2368465,4.48146341 C12.0639628,4.35170732 11.9535907,4.16243902 11.9233116,3.94780488 C11.8940093,3.73512195 11.9496837,3.52243902 12.0795907,3.35170732 C12.3491721,2.99658537 12.8570791,2.92731707 13.212614,3.19560976 L24.666893,11.8765854 C24.9491721,12.0804878 25.3291256,12.0785366 25.6094512,11.8746341 L37.0666605,3.19560976 C37.4212186,2.92829268 37.9291256,2.99658537 38.1977302,3.35073171 C38.3276372,3.52243902 38.3842884,3.73414634 38.354986,3.94878049 C38.3256837,4.1595122 38.2114047,4.35365854 38.0424279,4.48146341 L26.5822884,13.1614634 C26.1505674,13.4804878 25.6436372,13.6404878 25.1376837,13.6404878 C24.6307535,13.6404878 24.1248,13.4804878 23.6930791,13.162439 Z M9.08782326,19.6726829 C8.96084651,19.442439 9.02335814,19.1507317 9.23335814,18.9907317 L11.6566605,17.1078049 C12.5386605,16.4180488 12.7447535,15.1468293 12.1264744,14.2131707 L10.5177767,11.8014634 L10.5177767,1.86780488 C10.5168,1.7995122 10.5431721,1.73414634 10.5920093,1.68731707 C10.6398698,1.6395122 10.7043349,1.61609756 10.7736837,1.61414634 L39.5036372,1.61414634 L39.5075442,1.61414634 C39.5739628,1.61414634 39.6354977,1.6395122 39.6833581,1.68829268 C39.7312186,1.73414634 39.7575907,1.7995122 39.756614,1.86878049 L39.756614,23.0512195 C39.7546605,23.1887805 39.6413581,23.3 39.5036372,23.3 L39.5016837,23.3 L11.5218698,23.3 C10.6545209,22.3029268 9.90340465,21.2043902 9.28512558,20.0326829 L9.08782326,19.6726829 Z M18.8357302,31.6034146 C19.7577767,32.1185366 20.9386605,31.8756098 21.5794047,31.0385366 L23.4645209,28.62 C23.6364279,28.3985366 23.9558233,28.3458537 24.1912186,28.5009756 L30.6631256,32.8102439 C30.9034047,32.9702439 30.974707,33.2892683 30.8272186,33.5360976 L29.202893,36.2404878 C28.878614,36.7956098 28.3580093,37.1995122 27.7397302,37.3760976 C24.5330791,38.2570732 18.9119163,37.5097561 10.3361023,28.944878 C1.76517209,20.3829268 1.01503256,14.7663415 1.89605581,11.5643902 C2.07186977,10.9458537 2.47526512,10.4258537 3.03396279,10.1009756 L5.73954419,8.4795122 C5.82647442,8.42780488 5.92219535,8.40243902 6.01693953,8.40243902 C6.19177674,8.40243902 6.36270698,8.48731707 6.46624186,8.64243902 L10.7814977,15.1068293 C10.9377767,15.3409756 10.8860093,15.6609756 10.6633116,15.8336585 L8.24196279,17.7156098 C7.40391628,18.357561 7.16070698,19.5360976 7.67642791,20.4560976 L7.86982326,20.8073171 C8.55842791,22.0697561 9.4160093,23.6404878 12.5318233,26.7526829 C15.6505674,29.8658537 17.2231256,30.7234146 18.4870326,31.4121951 L18.5475907,31.3058537 L18.4880093,31.4121951 L18.8357302,31.6034146 Z M10.7736837,0.000487804878 C9.7432186,0.00146341463 8.90419535,0.839512195 8.9032186,1.86878049 L8.9032186,9.38 L7.81317209,7.74682927 C7.17340465,6.78487805 5.89484651,6.49609756 4.90540465,7.09512195 L2.20373023,8.71658537 C1.28656744,9.25414634 0.62335814,10.1136585 0.337172093,11.1370732 C-0.658130233,14.7526829 0.0714976744,20.9770732 9.19233488,30.0882927 C15.296986,36.18 20.814614,39.2687805 25.5899163,39.2687805 L25.6338698,39.2687805 C26.4885209,39.2687805 27.3402419,39.1556098 28.1685209,38.9321951 C29.1901953,38.6463415 30.050707,37.984878 30.5908465,37.0707317 L32.2132186,34.3682927 C32.8070791,33.38 32.5199163,32.1058537 31.5588,31.4678049 L25.086893,27.1585366 C24.1501953,26.54 22.8794512,26.7468293 22.188893,27.6287805 L20.3028,30.0492683 C20.1455442,30.2580488 19.8515442,30.3214634 19.6210326,30.1936585 L19.2615907,29.9956098 C18.0894977,29.357561 16.6312186,28.5634146 13.674614,25.6121951 C13.4304279,25.3682927 13.2038233,25.1360976 12.9889395,24.9126829 L39.5016837,24.9126829 C40.5292186,24.9126829 41.3682419,24.0785366 41.3721488,23.0521951 L41.3721488,1.86878049 C41.3711721,0.839512195 40.5311721,0.00146341463 39.5016837,0.000487804878 L10.7736837,0.000487804878 Z" id="Fill-1"></path>
        </g>
    </g>
</svg>