<?xml version="1.0" encoding="UTF-8"?>
<svg width="252px" height="194px" viewBox="0 0 252 194" version="1.1" xmlns="http://www.w3.org/2000/svg" xmlns:xlink="http://www.w3.org/1999/xlink">
    <!-- Generator: Sketch 52.6 (67491) - http://www.bohemiancoding.com/sketch -->
    <title>Trunsfer-success.inline</title>
    <desc>Created with Sketch.</desc>
    <defs>
        <path d="M0.262933333,20.7933214 C0.262933333,20.7933214 4.37315556,27.4306786 3.35013333,31.1655357 C2.91644444,32.9070357 2.28328889,34.5901786 1.46275556,36.1827143 C1.11066667,36.8123571 1.28293333,37.6109286 1.86471111,38.0347857 C1.96595556,38.1131071 2.07928889,38.1806786 2.20017778,38.2313571 L7.65528889,41.5070357 L14.2543111,29.8878214 L15.7019556,23.3364643 L14.1832889,24.5496786 C14.8617778,22.81125 15.3453333,21.0006429 15.6279111,19.15625 C17.9686222,3.6225 15.6279111,0.0473571429 15.6279111,0.0473571429 L0.262933333,20.7933214 Z" id="path-1"></path>
        <linearGradient x1="0.00446094486%" y1="49.9986154%" x2="99.9973707%" y2="49.9986154%" id="linearGradient-3">
            <stop stopColor="#3154CA" offset="0%"></stop>
            <stop stopColor="#17D1AA" offset="100%"></stop>
        </linearGradient>
        <path d="M79.722931,0.3025 C78.6258621,0.308705128 77.417069,0.659294872 76.1508621,1.39460256 L9.90310345,39.6740385 C4.90344828,42.5594231 0.882931034,50.2630897 0.906206897,56.880859 L1.08931034,110.153436 C1.08931034,114.126269 2.57741379,116.772756 4.8212069,117.6725 L10.98,120.871244 L15.8151724,113.651577 L76.4115517,78.6375897 C81.4081034,75.7522051 85.4301724,68.0485385 85.4068966,61.4307692 L85.23,10.0709231 L88.9727586,4.48320513 L83.5913793,1.42873077 C82.827931,1.05642308 82.0334483,0.753923077 81.2156897,0.524333333 C80.7672414,0.380064103 80.2893103,0.305602564 79.7881034,0.3025 L79.722931,0.3025 Z" id="path-4"></path>
        <linearGradient x1="-0.000323322094%" y1="49.9993715%" x2="99.999646%" y2="49.9993715%" id="linearGradient-6">
            <stop stopColor="#3154CA" offset="0%"></stop>
            <stop stopColor="#17D1AA" offset="100%"></stop>
        </linearGradient>
        <linearGradient x1="29.1220373%" y1="122.166397%" x2="67.3884705%" y2="-18.6096688%" id="linearGradient-7">
            <stop stopColor="#17D1AA" offset="0%"></stop>
            <stop stopColor="#3154CB" offset="100%"></stop>
        </linearGradient>
    </defs>
    <g id="Trunsfer-success.inline" stroke="none" stroke-width="1" fill="none" fill-rule="evenodd">
        <g id="success-pic" transform="translate(1.000000, 1.000000)">
            <g id="Group-9" opacity="0.2" transform="translate(0.000000, 43.000000)" stroke="#1D45BA" stroke-width="0.5">
                <path d="M85.4599564,148.07763 L250.049742,52.6580835" id="Stroke-1"></path>
                <path d="M22.9146061,100.534424 L176.451152,11.5222588" id="Stroke-3"></path>
                <path d="M75.9094834,0.115687629 L249.293508,100.50578" id="Stroke-5"></path>
                <path d="M0.768244785,65.501801 L146.109564,149.655502" id="Stroke-7"></path>
            </g>
            <g id="Group-12" transform="translate(95.000000, 84.000000)">
                <mask id="mask-2" fill="white">
                    <use xlink:href="#path-1"></use>
                </mask>
                <g id="Clip-11"></g>
                <path d="M0.262933333,20.7933214 C0.262933333,20.7933214 4.37315556,27.4306786 3.35013333,31.1655357 C2.91644444,32.9070357 2.28328889,34.5901786 1.46275556,36.1827143 C1.11066667,36.8123571 1.28293333,37.6109286 1.86471111,38.0347857 C1.96595556,38.1131071 2.07928889,38.1806786 2.20017778,38.2313571 L7.65528889,41.5070357 L14.2543111,29.8878214 L15.7019556,23.3364643 L14.1832889,24.5496786 C14.8617778,22.81125 15.3453333,21.0006429 15.6279111,19.15625 C17.9686222,3.6225 15.6279111,0.0473571429 15.6279111,0.0473571429 L0.262933333,20.7933214 Z" id="Fill-10" fill="url(#linearGradient-3)" mask="url(#mask-2)"></path>
            </g>
            <g id="Group-15" transform="translate(69.000000, 0.000000)">
                <mask id="mask-5" fill="white">
                    <use xlink:href="#path-4"></use>
                </mask>
                <g id="Clip-14"></g>
                <path d="M79.722931,0.3025 C78.6258621,0.308705128 77.417069,0.659294872 76.1508621,1.39460256 L9.90310345,39.6740385 C4.90344828,42.5594231 0.882931034,50.2630897 0.906206897,56.880859 L1.08931034,110.153436 C1.08931034,114.126269 2.57741379,116.772756 4.8212069,117.6725 L10.98,120.871244 L15.8151724,113.651577 L76.4115517,78.6375897 C81.4081034,75.7522051 85.4301724,68.0485385 85.4068966,61.4307692 L85.23,10.0709231 L88.9727586,4.48320513 L83.5913793,1.42873077 C82.827931,1.05642308 82.0334483,0.753923077 81.2156897,0.524333333 C80.7672414,0.380064103 80.2893103,0.305602564 79.7881034,0.3025 L79.722931,0.3025 Z" id="Fill-13" fill="url(#linearGradient-6)" mask="url(#mask-5)"></path>
            </g>
            <g id="Group-24" transform="translate(76.000000, 3.000000)" fill="#E1F2FF">
                <path d="M83.8507352,8.54881139 C83.8507352,1.90681139 79.7978543,-1.13860633 74.8559543,1.75734304 L9.19005429,40.1816089 C4.23584952,43.0760013 0.249106667,50.8094316 0.272178095,57.4514316 L0.453673333,110.914394 C0.453673333,117.556394 4.50501619,120.601811 9.44845429,117.705862 L29.7313162,105.838697 C30.2804162,109.192394 29.8866638,112.63328 28.59774,115.775229 C27.7779352,117.617115 26.9458257,119.233242 26.1983114,120.584685 C25.8814638,121.174773 25.998359,121.908103 26.4859352,122.365849 C26.9735114,122.825153 27.7071829,122.895216 28.2732019,122.538672 C33.005921,119.438761 39.5997352,113.455356 41.0916876,103.613799 C41.35624,101.870001 41.5608067,100.292799 41.7130781,98.8261405 L75.1143543,79.2815962 C80.068559,76.3872038 84.0537638,68.6537734 84.0322305,62.0117734 L83.8507352,8.54881139 Z" id="Fill-16"></path>
            </g>
            <g id="tick" transform="translate(98.000000, 36.000000)">
                <path d="M23.3444352,4.07920093 C10.4514571,11.8588738 -0.000103296703,28.5675654 -0.000103296703,41.399014 C-0.000103296703,54.2299486 10.4514571,58.3246215 23.3444352,50.5449486 C36.2374132,42.7652757 46.6889736,26.0565841 46.6889736,13.2251355 C46.6889736,0.394200935 36.2374132,-3.70098598 23.3444352,4.07920093" id="Fill-1" fill="url(#linearGradient-7)"></path>
                <path d="M21.2310776,39.2422173 L15.1300396,34.6113719 C14.4103894,34.0647268 14.3100678,32.8521208 14.8116723,31.8664668 C15.3383603,30.8308783 16.4005422,30.3460795 17.1940408,30.9490231 L21.8147206,34.4557867 L31.4219469,12.8116203 C31.8936521,11.7520818 32.916542,11.1776862 33.7518339,11.6790835 C34.5331176,12.1465284 34.7079108,13.3418451 34.2529392,14.3666959 L23.678542,38.1878927 C23.4519483,38.6995409 23.0883758,39.1150636 22.6760698,39.3248387 C22.6476196,39.3399234 22.6476196,39.3399234 22.6353967,39.3455688 C22.1563555,39.5799141 21.635259,39.5491343 21.2310776,39.2422173 Z" id="Fill-4" fill="#E1F2FF" fill-rule="nonzero"></path>
            </g>
        </g>
    </g>
</svg>