<?xml version="1.0" encoding="UTF-8"?>
<svg width="369px" height="251px" viewBox="0 0 369 251" version="1.1" xmlns="http://www.w3.org/2000/svg" xmlns:xlink="http://www.w3.org/1999/xlink">
    <!-- Generator: Sketch 60 (88103) - https://sketch.com -->
    <title>Trunsfer-success.inline</title>
    <desc>Created with Sketch.</desc>
    <defs>
        <linearGradient x1="57.8286372%" y1="0%" x2="42.1713628%" y2="100%" id="linearGradient-1">
            <stop stopColor="#F14D78" offset="0%"></stop>
            <stop stopColor="#1A44B7" offset="100%"></stop>
        </linearGradient>
        <linearGradient x1="76.6761718%" y1="0%" x2="23.3238282%" y2="100%" id="linearGradient-2">
            <stop stopColor="#F14D78" offset="0%"></stop>
            <stop stopColor="#1A44B7" offset="100%"></stop>
        </linearGradient>
        <linearGradient x1="86.9008994%" y1="0%" x2="13.0991006%" y2="100%" id="linearGradient-3">
            <stop stopColor="#F14D78" offset="0%"></stop>
            <stop stopColor="#1A44B7" offset="100%"></stop>
        </linearGradient>
    </defs>
    <g id="Trunsfer-success.inline" stroke="none" stroke-width="1" fill="none" fill-rule="evenodd">
        <g transform="translate(59.000000, 29.000000)">
            <g id="grid" opacity="0.2" transform="translate(0.000000, 43.000000)" stroke="#1D45BA" stroke-width="0.5">
                <line x1="85.4599564" y1="148.07763" x2="250.049742" y2="52.6580835" id="Stroke-1"></line>
                <line x1="22.9146061" y1="100.534424" x2="176.451152" y2="11.5222588" id="Stroke-3"></line>
                <line x1="75.9094834" y1="0.115687629" x2="249.293508" y2="100.50578" id="Stroke-5"></line>
                <line x1="0.768244785" y1="65.501801" x2="146.109564" y2="149.655502" id="Stroke-7"></line>
            </g>
            <g id="tick" transform="translate(69.000000, 0.000000)" fill-rule="nonzero">
                <path d="M26.2629333,104.793321 C26.2629333,104.793321 30.3731556,111.430679 29.3501333,115.165536 C28.9164444,116.907036 28.2832889,118.590179 27.4627556,120.182714 C27.1106667,120.812357 27.2829333,121.610929 27.8647111,122.034786 C27.9659556,122.113107 28.0792889,122.180679 28.2001778,122.231357 L33.6552889,125.507036 L40.2543111,113.887821 L41.7019556,107.336464 L40.1832889,108.549679 C40.8617778,106.81125 41.3453333,105.000643 41.6279111,103.15625 C43.9686222,87.6225 41.6279111,84.0473571 41.6279111,84.0473571 L26.2629333,104.793321 Z" id="Fill-10" fill="url(#linearGradient-1)"></path>
                <path d="M79.722931,0.3025 C78.6258621,0.308705128 77.417069,0.659294872 76.1508621,1.39460256 L9.90310345,39.6740385 C4.90344828,42.5594231 0.882931034,50.2630897 0.906106343,56.880859 L1.08931034,110.153436 C1.08931034,114.126269 2.57741379,116.772756 4.8212069,117.6725 L10.98,120.871244 L15.8151724,113.651577 L76.4115517,78.6375897 C81.4081034,75.7522051 85.4301724,68.0485385 85.4068966,61.4307692 L85.23,10.0709231 L88.9727586,4.48320513 L83.5913793,1.42873077 C82.827931,1.05642308 82.0334483,0.753923077 81.2156897,0.524333333 C80.7672414,0.380064103 80.2893103,0.305602564 79.7881034,0.3025 L79.722931,0.3025 Z" id="Fill-13" fill="url(#linearGradient-2)"></path>
                <path d="M90.8507352,11.5488114 C90.8507352,4.90681139 86.7978543,1.86139367 81.8559543,4.75734304 L16.1900543,43.1816089 C11.2358495,46.0760013 7.24910667,53.8094316 7.27207846,60.4514316 L7.45367333,113.914394 C7.45367333,120.556394 11.5050162,123.601811 16.4484543,120.705862 L36.7313162,108.838697 C37.2804162,112.192394 36.8866638,115.63328 35.59774,118.775229 C34.7779352,120.617115 33.9458257,122.233242 33.1983114,123.584685 C32.8814638,124.174773 32.998359,124.908103 33.4859352,125.365849 C33.9735114,125.825153 34.7071829,125.895216 35.2732019,125.538672 C40.005921,122.438761 46.5997352,116.455356 48.0916876,106.613799 C48.35624,104.870001 48.5608067,103.292799 48.7130781,101.82614 L82.1143543,82.2815962 C87.068559,79.3872038 91.0537638,71.6537734 91.0323174,65.0117734 L90.8507352,11.5488114 Z" id="Fill-16" fill="#E1F2FF"></path>
                <path d="M52.3444352,40.0792009 C39.4514571,47.8588738 28.9998967,64.5675654 28.9998967,77.399014 C28.9998967,90.2299486 39.4514571,94.3246215 52.3444352,86.5449486 C65.2374132,78.7652757 75.6889736,62.0565841 75.6889736,49.2251355 C75.6889736,36.3942009 65.2374132,32.299014 52.3444352,40.0792009" id="Fill-1" fill="url(#linearGradient-3)"></path>
                <path d="M50.2310776,75.2422173 L44.1300396,70.6113719 C43.4103894,70.0647268 43.3100678,68.8521208 43.8116723,67.8664668 C44.3383603,66.8308783 45.4005422,66.3460795 46.1940408,66.9490231 L50.8147206,70.4557867 L60.4219469,48.8116203 C60.8936521,47.7520818 61.916542,47.1776862 62.7518339,47.6790835 C63.5331176,48.1465284 63.7079108,49.3418451 63.2529392,50.3666959 L52.678542,74.1878927 C52.4519483,74.6995409 52.0883758,75.1150636 51.6760698,75.3248387 C51.6476196,75.3399234 51.6476196,75.3399234 51.6353967,75.3455688 C51.1563555,75.5799141 50.635259,75.5491343 50.2310776,75.2422173 Z" id="Fill-4" fill="#E1F2FF"></path>
            </g>
        </g>
    </g>
</svg>