<svg width="20" height="20" viewBox="0 0 20 20" fill="none" xmlns="http://www.w3.org/2000/svg">
<path fillRule="evenodd" clipRule="evenodd" d="M8.06485 0.49635C8.65754 0.169888 9.32335 -0.000887344 10 3.46724e-06C10.6708 0.000479982 11.3307 0.169656 11.9191 0.491966C12.5074 0.814276 13.0052 1.27937 13.3667 1.84445C14.0245 1.69706 14.7088 1.71831 15.3562 1.90621C16.0036 2.09412 16.593 2.44258 17.0696 2.91924C17.5463 3.3959 17.8948 3.9853 18.0827 4.63268C18.2706 5.28006 18.2918 5.96443 18.1444 6.62222C18.7132 6.98342 19.1814 7.48241 19.5058 8.07291C19.8302 8.66341 20.0002 9.32627 20 10C19.9995 10.6708 19.8303 11.3307 19.508 11.9191C19.1857 12.5074 18.7206 13.0052 18.1556 13.3667C18.3029 14.0245 18.2817 14.7088 18.0938 15.3562C17.9059 16.0036 17.5574 16.593 17.0808 17.0696C16.6041 17.5463 16.0147 17.8948 15.3673 18.0827C14.7199 18.2706 14.0356 18.2918 13.3778 18.1444C13.0166 18.7132 12.5176 19.1815 11.9271 19.5058C11.3366 19.8302 10.6737 20.0002 10 20C9.33192 19.9946 8.67583 19.822 8.09163 19.4979C7.50742 19.1737 7.01371 18.7084 6.65555 18.1444C5.99556 18.2963 5.30781 18.2781 4.65678 18.0915C4.00574 17.905 3.41273 17.5561 2.93333 17.0778C2.46233 16.6006 2.11882 16.0127 1.93438 15.3682C1.74993 14.7236 1.73047 14.043 1.87778 13.3889C1.30334 13.0293 0.829662 12.5297 0.501208 11.937C0.172754 11.3442 0.00029005 10.6777 0 10C0.00216863 9.3242 0.175527 8.65996 0.503893 8.06929C0.832259 7.47862 1.30493 6.98077 1.87778 6.62222C1.72906 5.96907 1.74676 5.28903 1.92925 4.6445C2.11174 3.99996 2.45317 3.41158 2.92222 2.93334C3.63686 2.21416 4.59794 1.79319 5.61111 1.75556C5.94779 1.75036 6.28378 1.78769 6.61111 1.86667C6.97199 1.29429 7.47217 0.822812 8.06485 0.49635ZM13.7071 7.29289C14.0976 7.68342 14.0976 8.31658 13.7071 8.70711L9.70769 12.7065C9.36598 13.0482 8.83792 13.0915 8.44977 12.8352C8.39432 12.7986 8.34171 12.7559 8.29289 12.7071L6.29289 10.7071C5.90237 10.3166 5.90237 9.68342 6.29289 9.29289C6.68342 8.90237 7.31658 8.90237 7.70711 9.29289L9 10.5858L12.2929 7.29289C12.6834 6.90237 13.3166 6.90237 13.7071 7.29289Z" fill="#08C29D"/>
</svg>
