<?xml version="1.0" encoding="UTF-8"?>
<svg width="132px" height="101px" viewBox="0 0 132 101" version="1.1" xmlns="http://www.w3.org/2000/svg" xmlns:xlink="http://www.w3.org/1999/xlink">
    <title>webcam-picture-yoroi</title>
    <defs>
        <linearGradient x1="0.000104010106%" y1="50.0005995%" x2="100%" y2="50.0005995%" id="linearGradient-1">
            <stop stop-color="#17D1AA" offset="0%"></stop>
            <stop stop-color="#1ACBAF" offset="15%"></stop>
            <stop stop-color="#21B8BC" offset="37%"></stop>
            <stop stop-color="#2E9BD3" offset="62%"></stop>
            <stop stop-color="#3F71F1" offset="89%"></stop>
            <stop stop-color="#475FFF" offset="100%"></stop>
        </linearGradient>
        <linearGradient x1="35.5639144%" y1="98.2523503%" x2="51.1143554%" y2="70.9764888%" id="linearGradient-2">
            <stop stop-color="#1A44B7" offset="0%"></stop>
            <stop stop-color="#4760FF" offset="100%"></stop>
        </linearGradient>
        <linearGradient x1="35.5639144%" y1="98.2523503%" x2="51.1143554%" y2="70.9764888%" id="linearGradient-3">
            <stop stop-color="#1A44B7" offset="0%"></stop>
            <stop stop-color="#4760FF" offset="100%"></stop>
        </linearGradient>
    </defs>
    <g id="✅-REVAMP-1.1" stroke="none" stroke-width="1" fill="none" fill-rule="evenodd">
        <g id="1---send/receiver/qr-code-copy" transform="translate(-618.000000, -270.000000)">
            <g id="popup" transform="translate(493.000000, 100.000000)">
                <g id="webcam-picture-yoroi" transform="translate(125.402401, 170.156933)">
                    <g id="Group" opacity="0.2" transform="translate(0.000000, 22.195187)" stroke="#1D45BA" stroke-width="0.5">
                        <line x1="44.3538421" y1="76.6520673" x2="130.551188" y2="27.2192509" id="Shape"></line>
                        <line x1="11.5980745" y1="52.0222704" x2="92.0070048" y2="5.90965207" id="Shape"></line>
                        <line x1="39.352528" y1="0" x2="130.155464" y2="52.0071298" id="Shape"></line>
                        <line x1="0" y1="33.873501" x2="76.1163158" y2="77.4694362" id="Shape"></line>
                    </g>
                    <g id="_Group_8" transform="translate(36.358498, 0.000000)">
                        <path d="M45.7695846,2.17393053 L42.9730337,0.585617672 C42.5764068,0.392214993 42.1629842,0.234845116 41.7378183,0.115431193 C40.9845677,-0.125396028 40.0783583,0.00361855441 39.1057704,0.568415727 C33.4972335,3.57493333 30.692965,5.07819214 30.692965,5.07819214 C30.692965,4.44517915 30.692965,3.81216616 30.692965,3.17915317 C30.692965,2.91069235 30.5394284,2.66588041 30.2977512,2.5489902 L28.0497443,1.4617136 C27.7510684,1.31725524 27.4001908,1.33033719 27.1131009,1.49663496 L12.3228893,10.0639142 C12.0141842,10.2427327 11.8241239,10.5724695 11.8241239,10.9292256 C11.8241239,12.6791172 11.8241239,14.4290088 11.8241239,16.1789004 C11.8241239,16.1789004 9.44127672,17.6086664 4.6755824,20.4681984 C2.07816671,21.9676345 -0.0113099069,25.9728205 0,29.4132094 L0.0954727381,57.1083398 C0.0954727381,59.1725731 0.86892541,60.5487287 2.03487645,61.0160482 L5.23546979,62.6789028 L7.74919097,58.9260119 L39.2414132,40.7234878 C41.8388289,39.2240517 43.9283055,35.2188656 43.9167614,31.7784768 L43.8244089,5.07819214 L45.7695846,2.17393053 Z" id="_Path_27" fill="url(#linearGradient-1)" fill-rule="nonzero"></path>
                        <path d="M47.313604,5.88381653 C47.313604,2.44342766 45.1894951,0.866582763 42.5978515,2.36601891 C34.6612605,6.95382975 30.692965,9.24773517 30.692965,9.24773517 C30.692965,7.19385107 30.692965,5.13996698 30.692965,3.08608288 C30.692965,2.97562593 30.6034219,2.88608288 30.492965,2.88608288 C30.457937,2.88608288 30.4235233,2.89528243 30.3931677,2.91276091 L15.1500368,11.6896212 C14.8400646,11.8681004 14.6490231,12.1985474 14.6490231,12.556231 C14.6490231,14.5448427 14.6490231,16.5334543 14.6490231,18.522066 C14.6490231,18.522066 12.4885699,19.7709335 8.1676635,22.2686685 C5.57024781,23.7681047 3.48077119,27.7732907 3.49231526,31.2136796 L3.58755383,58.905943 C3.58755383,62.3463319 5.71166266,63.9231768 8.30330632,62.4237406 L18.9382806,56.2769125 L42.7334943,42.521091 C45.33091,41.0216549 47.4203866,37.0164688 47.4088425,33.5760799 L47.313604,5.88381653 Z" id="Shape" fill="#E1F2FF" fill-rule="nonzero"></path>
                        <path d="M25.9265893,43.0916055 C28.9641554,43.0916055 31.5818856,38.5897722 31.5818856,33.3430671 C31.5818856,28.096362 29.7766671,23.8430671 26.739101,23.8430671 C23.7015349,23.8430671 21.239101,28.096362 21.239101,33.3430671 C21.239101,38.5897722 22.8890231,43.0916055 25.9265893,43.0916055 Z" id="Oval" fill="url(#linearGradient-2)"></path>
                        <path d="M41.819062,12.8430671 C42.7659077,12.8430671 43.5818856,11.4397917 43.5818856,9.80433088 C43.5818856,8.16887004 43.0191774,6.84306707 42.0723316,6.84306707 C41.1254859,6.84306707 40.3579157,8.16887004 40.3579157,9.80433088 C40.3579157,11.4397917 40.8722162,12.8430671 41.819062,12.8430671 Z" id="Oval" fill="url(#linearGradient-3)"></path>
                    </g>
                </g>
            </g>
        </g>
    </g>
</svg>