<?xml version="1.0" encoding="utf-8"?>
<!-- Generator: Adobe Illustrator 24.0.1, SVG Export Plug-In . SVG Version: 6.00 Build 0)  -->
<svg version="1.1" xmlns="http://www.w3.org/2000/svg" xmlns:xlink="http://www.w3.org/1999/xlink" x="0px" y="0px"
	 viewBox="0 0 215.4 202.5" style="enable-background:new 0 0 215.4 202.5;" xml:space="preserve">
<style type="text/css">
	.st0{fill:url(#SVGID_1_);}
	.st1{fill:url(#SVGID_2_);}
	.st2{fill:url(#SVGID_3_);}
	.st3{fill:url(#SVGID_4_);}
	.st4{fill:url(#SVGID_5_);}
	.st5{fill:url(#SVGID_6_);}
	.st6{fill:#FFFFFF;}
	.st7{fill:url(#SVGID_7_);}
	.st8{fill:url(#SVGID_8_);}
	.st9{fill:url(#SVGID_9_);}
	.st10{fill:url(#SVGID_10_);}
	.st11{fill:url(#SVGID_11_);}
	.st12{fill:url(#SVGID_12_);}
	.st13{fill:url(#SVGID_13_);}
	.st14{fill:url(#SVGID_14_);}
	.st15{fill:url(#SVGID_15_);}
	.st16{fill:url(#SVGID_16_);}
	.st17{fill:url(#SVGID_17_);}
	.st18{fill:url(#SVGID_18_);}
	.st19{fill:url(#SVGID_19_);}
	.st20{fill:url(#SVGID_20_);}
	.st21{fill:url(#SVGID_21_);}
	.st22{fill:url(#SVGID_22_);}
	.st23{fill:url(#SVGID_23_);}
	.st24{fill:url(#SVGID_24_);}
	.st25{fill:url(#SVGID_25_);}
	.st26{fill:url(#SVGID_26_);}
	.st27{fill:url(#SVGID_27_);}
	.st28{fill:url(#SVGID_28_);}
	.st29{fill:url(#SVGID_29_);}
	.st30{fill:url(#SVGID_30_);}
	.st31{fill:url(#SVGID_31_);}
	.st32{fill:url(#SVGID_32_);}
	.st33{fill:url(#SVGID_33_);}
	.st34{fill:url(#SVGID_34_);}
	.st35{fill:url(#SVGID_35_);}
	.st36{fill:url(#SVGID_36_);}
	.st37{fill:url(#SVGID_37_);}
	.st38{fill:url(#SVGID_38_);}
	.st39{fill:url(#SVGID_39_);}
	.st40{fill:url(#SVGID_40_);}
	.st41{fill:url(#SVGID_41_);}
	.st42{fill:url(#SVGID_42_);}
	.st43{fill:url(#SVGID_43_);}
	.st44{fill:url(#SVGID_44_);}
	.st45{fill:url(#SVGID_45_);}
	.st46{fill:url(#SVGID_46_);}
	.st47{fill:url(#SVGID_47_);}
	.st48{fill:url(#SVGID_48_);}
	.st49{fill:url(#SVGID_49_);}
	.st50{fill:url(#SVGID_50_);}
	.st51{fill:url(#SVGID_51_);}
	.st52{fill:url(#SVGID_52_);}
	.st53{fill:url(#SVGID_53_);}
	.st54{fill:url(#SVGID_54_);}
	.st55{fill:url(#SVGID_55_);}
	.st56{fill:url(#Shape_3_);}
	.st57{fill:url(#Shape_4_);}
	.st58{fill:url(#SVGID_56_);}
	.st59{fill:url(#SVGID_57_);}
	.st60{fill:url(#SVGID_58_);}
	.st61{fill:url(#SVGID_59_);}
	.st62{fill:url(#SVGID_60_);}
	.st63{fill:url(#SVGID_61_);}
	.st64{fill:url(#SVGID_62_);}
	.st65{fill:url(#SVGID_63_);}
	.st66{fill:url(#SVGID_64_);}
	.st67{fill:url(#SVGID_65_);}
	.st68{fill:url(#SVGID_66_);}
	.st69{fill:url(#SVGID_67_);}
	.st70{fill:url(#SVGID_68_);}
	.st71{fill:url(#SVGID_69_);}
	.st72{fill:url(#SVGID_70_);}
	.st73{fill:url(#SVGID_71_);}
	.st74{fill:url(#SVGID_72_);}
	.st75{fill:url(#SVGID_73_);}
	.st76{fill:url(#SVGID_74_);}
	.st77{fill:none;stroke:url(#SVGID_75_);stroke-width:6;stroke-miterlimit:10;}
	.st78{fill:url(#SVGID_76_);}
	.st79{fill:url(#SVGID_77_);}
	.st80{fill:url(#SVGID_78_);}
	.st81{opacity:0.2;}
	.st82{fill:url(#SVGID_79_);}
	.st83{fill:url(#SVGID_80_);}
	.st84{fill:url(#SVGID_81_);}
	.st85{fill:url(#SVGID_82_);}
	.st86{fill:url(#SVGID_83_);}
	.st87{fill:url(#SVGID_84_);}
	.st88{fill:url(#SVGID_85_);}
	.st89{fill:url(#SVGID_86_);}
	.st90{fill:url(#SVGID_87_);}
	.st91{fill:url(#Shape_5_);}
	.st92{fill:none;}
	.st93{fill:url(#SVGID_88_);}
	.st94{fill:url(#SVGID_89_);}
	.st95{fill:url(#SVGID_90_);}
	.st96{fill:url(#SVGID_91_);}
	.st97{fill:url(#SVGID_92_);}
	.st98{fill:#2D2D2D;}
	.st99{fill:url(#SVGID_93_);}
	.st100{fill:url(#SVGID_94_);}
</style>
<g id="Layer_1">
</g>
<g id="thin">
</g>
<g id="tick">
	<g>
		<g>
			<linearGradient id="SVGID_1_" gradientUnits="userSpaceOnUse" x1="32.4882" y1="170.0839" x2="119.4966" y2="84.7733">
				<stop  offset="0.1767" style="stopColor:#1A44B7"/>
				<stop  offset="1" style="stopColor:#4760FF"/>
			</linearGradient>
			<path class="st0" d="M198.5,135.5c-1.3-1.3-3.2-1.7-4.8-1C146.1,154.1,91.5,131.6,71.9,84c-10-24.2-9.4-51.4,1.7-75.1
				c1-2.2,0.1-4.8-2.1-5.8C70.3,2.5,69,2.5,67.9,3C15.7,24.4-9.2,84,12.2,136.2s81.1,77.1,133.2,55.6c23.8-9.8,43-28.2,53.8-51.5
				C200,138.7,199.7,136.8,198.5,135.5z"/>
		</g>
	</g>
	<g>
		<linearGradient id="SVGID_2_" gradientUnits="userSpaceOnUse" x1="36.4516" y1="164.2357" x2="129.6005" y2="72.9044">
			<stop  offset="0.1767" style="stopColor:#1A44B7"/>
			<stop  offset="1" style="stopColor:#4760FF"/>
		</linearGradient>
		<path class="st1" d="M180.2,117.8l-10.7,7.4C143.4,107.1,117.2,89,91,70.9c0-0.1,0-0.2,0-0.3v-4.8c0-1.6,0-3.1,0-4.7v-4.9
			C120.8,76.7,150.5,97.2,180.2,117.8z M158.3,47.7c-4.7,3.2-9.5,6.4-14.3,9.7c-0.6,0.4-1.1,0.4-1.7,0c-5.9-4.1-11.8-8.1-17.6-12.2
			c-6.2-4.3-12.3-8.6-18.5-12.9c-2.9-2-5.8-4.1-8.8-6.1H76.2c1.1,0.8,2.1,1.4,3,2.1c5.5,3.8,11.1,7.7,16.6,11.5
			c5.5,3.8,11,7.6,16.4,11.4c5.1,3.6,10.3,7.2,15.4,10.8c4.9,3.4,9.8,6.8,14.7,10.2c0.5,0.4,0.9,0.4,1.4,0c4-2.7,7.9-5.4,11.9-8.1
			c9.8-6.7,19.6-13.4,29.3-20.1c7.1-4.9,14.2-9.7,21.3-14.6c1.5-1,2.9-2,4.5-3.1h-21.3C179.2,33.4,168.7,40.5,158.3,47.7z
			 M195.8,56.1c-13.1,9.1-26,18-39,27c0.2,0.2,0.3,0.4,0.4,0.5c3.3,2.3,6.6,4.7,9.9,7c0.1,0.1,0.2,0.1,0.4,0.1
			c9.4-6.5,18.8-13,28.3-19.6c0-0.1,0.1-0.2,0.1-0.3V56.1z M195.9,92.8c-4.4,3.1-8.7,6-13,9c3.5,2.5,6.8,4.8,10.1,7.2l2.9-2V92.8z"
			/>
	</g>
</g>
</svg>
