<?xml version="1.0" encoding="utf-8"?>
<!-- Generator: Adobe Illustrator 24.0.1, SVG Export Plug-In . SVG Version: 6.00 Build 0)  -->
<svg version="1.1" xmlns="http://www.w3.org/2000/svg" xmlns:xlink="http://www.w3.org/1999/xlink" x="0px" y="0px"
	 viewBox="0 0 737.1 217.3" style="enable-background:new 0 0 737.1 217.3;" xml:space="preserve">
<style type="text/css">
	.st0{fill:url(#SVGID_1_);}
	.st1{fill:url(#SVGID_2_);}
	.st2{fill:url(#SVGID_3_);}
	.st3{fill:url(#SVGID_4_);}
	.st4{fill:url(#SVGID_5_);}
	.st5{fill:url(#SVGID_6_);}
	.st6{fill:#FFFFFF;}
	.st7{fill:url(#SVGID_7_);}
	.st8{fill:url(#SVGID_8_);}
	.st9{fill:url(#SVGID_9_);}
	.st10{fill:url(#SVGID_10_);}
	.st11{fill:url(#SVGID_11_);}
	.st12{fill:url(#SVGID_12_);}
	.st13{fill:url(#SVGID_13_);}
	.st14{fill:url(#SVGID_14_);}
	.st15{fill:url(#SVGID_15_);}
	.st16{fill:url(#SVGID_16_);}
	.st17{fill:url(#SVGID_17_);}
	.st18{fill:url(#SVGID_18_);}
	.st19{fill:url(#SVGID_19_);}
	.st20{fill:url(#SVGID_20_);}
	.st21{fill:url(#SVGID_21_);}
	.st22{fill:url(#SVGID_22_);}
	.st23{fill:url(#SVGID_23_);}
	.st24{fill:url(#SVGID_24_);}
	.st25{fill:url(#SVGID_25_);}
	.st26{fill:url(#SVGID_26_);}
	.st27{fill:url(#SVGID_27_);}
	.st28{fill:url(#SVGID_28_);}
	.st29{fill:url(#SVGID_29_);}
	.st30{fill:url(#SVGID_30_);}
	.st31{fill:url(#SVGID_31_);}
	.st32{fill:url(#SVGID_32_);}
	.st33{fill:url(#SVGID_33_);}
	.st34{fill:url(#SVGID_34_);}
	.st35{fill:url(#SVGID_35_);}
	.st36{fill:url(#SVGID_36_);}
	.st37{fill:url(#SVGID_37_);}
	.st38{fill:url(#SVGID_38_);}
	.st39{fill:url(#SVGID_39_);}
	.st40{fill:url(#SVGID_40_);}
	.st41{fill:url(#SVGID_41_);}
	.st42{fill:url(#SVGID_42_);}
	.st43{fill:url(#SVGID_43_);}
	.st44{fill:url(#SVGID_44_);}
	.st45{fill:url(#SVGID_45_);}
	.st46{fill:url(#SVGID_46_);}
	.st47{fill:url(#SVGID_47_);}
	.st48{fill:url(#SVGID_48_);}
	.st49{fill:url(#SVGID_49_);}
	.st50{fill:url(#SVGID_50_);}
	.st51{fill:url(#SVGID_51_);}
	.st52{fill:url(#SVGID_52_);}
	.st53{fill:url(#SVGID_53_);}
	.st54{fill:url(#SVGID_54_);}
	.st55{fill:url(#SVGID_55_);}
	.st56{fill:url(#Shape_3_);}
	.st57{fill:url(#Shape_4_);}
	.st58{fill:url(#SVGID_56_);}
	.st59{fill:url(#SVGID_57_);}
	.st60{fill:url(#SVGID_58_);}
	.st61{fill:url(#SVGID_59_);}
	.st62{fill:url(#SVGID_60_);}
	.st63{fill:url(#SVGID_61_);}
	.st64{fill:url(#SVGID_62_);}
	.st65{fill:url(#SVGID_63_);}
	.st66{fill:url(#SVGID_64_);}
	.st67{fill:url(#SVGID_65_);}
	.st68{fill:url(#SVGID_66_);}
	.st69{fill:url(#SVGID_67_);}
	.st70{fill:url(#SVGID_68_);}
	.st71{fill:url(#SVGID_69_);}
	.st72{fill:url(#SVGID_70_);}
	.st73{fill:url(#SVGID_71_);}
	.st74{fill:url(#SVGID_72_);}
	.st75{fill:url(#SVGID_73_);}
	.st76{fill:url(#SVGID_74_);}
	.st77{fill:none;stroke:url(#SVGID_75_);stroke-width:6;stroke-miterlimit:10;}
	.st78{fill:url(#SVGID_76_);}
	.st79{fill:url(#SVGID_77_);}
	.st80{fill:url(#SVGID_78_);}
	.st81{opacity:0.2;}
	.st82{fill:url(#SVGID_79_);}
	.st83{fill:url(#SVGID_80_);}
	.st84{fill:url(#SVGID_81_);}
	.st85{fill:url(#SVGID_82_);}
	.st86{fill:url(#SVGID_83_);}
	.st87{fill:url(#SVGID_84_);}
	.st88{fill:url(#SVGID_85_);}
	.st89{fill:url(#SVGID_86_);}
	.st90{fill:url(#SVGID_87_);}
	.st91{fill:url(#Shape_5_);}
	.st92{fill:none;}
	.st93{fill:url(#SVGID_88_);}
	.st94{fill:url(#SVGID_89_);}
	.st95{fill:url(#SVGID_90_);}
	.st96{fill:url(#SVGID_91_);}
	.st97{fill:url(#SVGID_92_);}
	.st98{fill:#2D2D2D;}
	.st99{fill:url(#SVGID_93_);}
	.st100{fill:url(#SVGID_94_);}
</style>
<g id="Layer_1">
</g>
<g id="thin">
</g>
<g id="tick">
	<g>
		<g>
			<linearGradient id="SVGID_1_" gradientUnits="userSpaceOnUse" x1="28.7262" y1="170.2964" x2="115.7346" y2="84.9857">
				<stop  offset="0.1767" style="stop-color:#1A44B7"/>
				<stop  offset="1" style="stop-color:#4760FF"/>
			</linearGradient>
			<path class="st0" d="M194.7,135.7c-1.3-1.3-3.2-1.7-4.8-1c-47.6,19.7-102.1-2.9-121.8-50.5c-10-24.2-9.4-51.4,1.7-75.1
				c1-2.2,0.1-4.8-2.1-5.8c-1.1-0.5-2.4-0.6-3.6-0.1C11.9,24.6-13,84.2,8.5,136.4s81.1,77.1,133.2,55.6c23.8-9.8,43-28.2,53.8-51.5
				C196.2,138.9,195.9,137,194.7,135.7z"/>
		</g>
	</g>
	<g>
		<linearGradient id="SVGID_2_" gradientUnits="userSpaceOnUse" x1="32.6896" y1="164.4482" x2="125.8384" y2="73.1168">
			<stop  offset="0.1767" style="stop-color:#1A44B7"/>
			<stop  offset="1" style="stop-color:#4760FF"/>
		</linearGradient>
		<path class="st1" d="M176.5,118l-10.7,7.4c-26.2-18.1-52.3-36.2-78.6-54.3c0-0.1,0-0.2,0-0.3v-4.8c0-1.6,0-3.1,0-4.7v-4.9
			C117,76.9,146.7,97.4,176.5,118z M154.5,47.9c-4.7,3.2-9.5,6.4-14.3,9.7c-0.6,0.4-1.1,0.4-1.7,0c-5.9-4.1-11.8-8.1-17.6-12.2
			c-6.2-4.3-12.3-8.6-18.5-12.9c-2.9-2-5.8-4.1-8.8-6.1H72.5c1.1,0.8,2.1,1.4,3,2.1C81,32.4,86.5,36.2,92,40
			c5.5,3.8,11,7.6,16.4,11.4c5.1,3.6,10.3,7.2,15.4,10.8c4.9,3.4,9.8,6.8,14.7,10.2c0.5,0.4,0.9,0.4,1.4,0c4-2.7,7.9-5.4,11.9-8.1
			c9.8-6.7,19.6-13.4,29.3-20.1c7.1-4.9,14.2-9.7,21.3-14.6c1.5-1,2.9-2,4.5-3.1h-21.3C175.4,33.6,165,40.8,154.5,47.9z M192.1,56.3
			c-13.1,9.1-26,18-39,27c0.2,0.2,0.3,0.4,0.4,0.5c3.3,2.3,6.6,4.7,9.9,7c0.1,0.1,0.2,0.1,0.4,0.1c9.4-6.5,18.8-13,28.3-19.6
			c0-0.1,0.1-0.2,0.1-0.3V56.3z M192.1,93c-4.4,3.1-8.7,6-13,9c3.5,2.5,6.8,4.8,10.1,7.2l2.9-2V93z"/>
	</g>
	<g>
		<g>
			<linearGradient id="SVGID_3_" gradientUnits="userSpaceOnUse" x1="327.4637" y1="187.9631" x2="352.7274" y2="187.9631">
				<stop  offset="0" style="stop-color:#1A44B7"/>
				<stop  offset="1" style="stop-color:#4760FF"/>
			</linearGradient>
			<path class="st2" d="M327.7,181.5c0-3.1-0.1-5.5-0.2-8h4.7l0.3,4.9h0.1c1.5-2.7,4.9-5.5,9.7-5.5c4.1,0,10.4,2.4,10.4,12.5V203
				h-5.3V186c0-4.7-1.8-8.7-6.8-8.7c-3.5,0-6.2,2.5-7.2,5.5c-0.2,0.7-0.4,1.6-0.4,2.5V203h-5.3V181.5z"/>
			<linearGradient id="SVGID_4_" gradientUnits="userSpaceOnUse" x1="361.3534" y1="182.467" x2="367.9725" y2="182.467">
				<stop  offset="0" style="stop-color:#1A44B7"/>
				<stop  offset="1" style="stop-color:#4760FF"/>
			</linearGradient>
			<path class="st3" d="M368,165.3c0,1.8-1.3,3.3-3.4,3.3c-1.9,0-3.2-1.5-3.2-3.3c0-1.8,1.3-3.3,3.3-3.3
				C366.6,162,368,163.4,368,165.3z M362,203v-29.4h5.3V203H362z"/>
			<linearGradient id="SVGID_5_" gradientUnits="userSpaceOnUse" x1="374.7137" y1="194.3092" x2="402.2245" y2="194.3092">
				<stop  offset="0" style="stop-color:#1A44B7"/>
				<stop  offset="1" style="stop-color:#4760FF"/>
			</linearGradient>
			<path class="st4" d="M402,198.7c0,6.8-1.4,10.9-4.2,13.5c-2.9,2.6-7,3.5-10.7,3.5c-3.5,0-7.4-0.8-9.8-2.4l1.3-4.1
				c1.9,1.3,5,2.4,8.6,2.4c5.5,0,9.5-2.9,9.5-10.3v-3.2h-0.1c-1.6,2.7-4.8,4.9-9.4,4.9c-7.3,0-12.5-6.2-12.5-14.3
				c0-10,6.5-15.5,13.3-15.5c5.1,0,7.8,2.6,9.2,5h0.1l0.2-4.4h4.7c-0.2,2.1-0.2,4.5-0.2,8V198.7z M396.6,185.2
				c0-0.9-0.1-1.7-0.3-2.4c-1-3.2-3.5-5.7-7.5-5.7c-5.1,0-8.7,4.3-8.7,11.1c0,5.8,3,10.6,8.7,10.6c3.3,0,6.3-2.1,7.4-5.5
				c0.3-0.9,0.4-1.9,0.4-2.9V185.2z"/>
			<linearGradient id="SVGID_6_" gradientUnits="userSpaceOnUse" x1="411.3964" y1="181.4045" x2="436.4169" y2="181.4045">
				<stop  offset="0" style="stop-color:#1A44B7"/>
				<stop  offset="1" style="stop-color:#4760FF"/>
			</linearGradient>
			<path class="st5" d="M411.4,159.8h5.3v18.4h0.1c0.8-1.5,2.2-2.9,3.8-3.8c1.6-0.9,3.5-1.5,5.5-1.5c3.9,0,10.3,2.4,10.3,12.5V203
				h-5.3v-16.9c0-4.7-1.8-8.7-6.8-8.7c-3.5,0-6.1,2.4-7.2,5.3c-0.3,0.8-0.4,1.6-0.4,2.6V203h-5.3V159.8z"/>
			<linearGradient id="SVGID_7_" gradientUnits="userSpaceOnUse" x1="442.1268" y1="185.0783" x2="459.5565" y2="185.0783">
				<stop  offset="0" style="stop-color:#1A44B7"/>
				<stop  offset="1" style="stop-color:#4760FF"/>
			</linearGradient>
			<path class="st7" d="M451.9,166.5v7h7.7v4.1h-7.7v15.9c0,3.6,1,5.7,4,5.7c1.5,0,2.3-0.1,3.1-0.4l0.2,4.1c-1,0.4-2.7,0.7-4.7,0.7
				c-2.5,0-4.5-0.9-5.8-2.2c-1.5-1.6-2.1-4.3-2.1-7.7v-16h-4.6v-4.1h4.6v-5.5L451.9,166.5z"/>
			<linearGradient id="SVGID_8_" gradientUnits="userSpaceOnUse" x1="466.1776" y1="181.4045" x2="471.5214" y2="181.4045">
				<stop  offset="0" style="stop-color:#1A44B7"/>
				<stop  offset="1" style="stop-color:#4760FF"/>
			</linearGradient>
			<path class="st8" d="M466.2,159.8h5.3V203h-5.3V159.8z"/>
			<linearGradient id="SVGID_9_" gradientUnits="userSpaceOnUse" x1="477.2313" y1="194.9469" x2="504.8632" y2="194.9469">
				<stop  offset="0" style="stop-color:#1A44B7"/>
				<stop  offset="1" style="stop-color:#4760FF"/>
			</linearGradient>
			<path class="st9" d="M483.1,173.6l6.4,17.4c0.7,1.9,1.5,4.3,1.9,6h0.1c0.5-1.8,1.2-4,1.9-6.1l5.8-17.2h5.6l-8,21
				c-3.8,10.1-6.4,15.2-10.1,18.4c-2.7,2.2-5.2,3.2-6.6,3.4l-1.3-4.4c1.3-0.4,3.1-1.3,4.7-2.6c1.5-1.2,3.2-3.2,4.5-6
				c0.2-0.5,0.4-1,0.4-1.3s-0.1-0.7-0.4-1.4l-10.8-27.1H483.1z"/>
			<linearGradient id="SVGID_10_" gradientUnits="userSpaceOnUse" x1="520.4725" y1="188.2668" x2="563.1659" y2="188.2668">
				<stop  offset="0" style="stop-color:#1A44B7"/>
				<stop  offset="1" style="stop-color:#4760FF"/>
			</linearGradient>
			<path class="st10" d="M525.9,173.6l3.9,14.9c0.8,3.3,1.6,6.3,2.1,9.4h0.2c0.7-3,1.6-6.1,2.6-9.3l4.8-15h4.5l4.6,14.7
				c1.1,3.5,1.9,6.6,2.6,9.6h0.2c0.5-3,1.3-6.1,2.2-9.5l4.2-14.8h5.3l-9.5,29.4h-4.9l-4.5-14c-1-3.3-1.9-6.2-2.6-9.7h-0.1
				c-0.7,3.5-1.6,6.6-2.7,9.7l-4.7,14h-4.9l-8.9-29.4H525.9z"/>
			<linearGradient id="SVGID_11_" gradientUnits="userSpaceOnUse" x1="566.5692" y1="188.297" x2="589.9501" y2="188.297">
				<stop  offset="0" style="stop-color:#1A44B7"/>
				<stop  offset="1" style="stop-color:#4760FF"/>
			</linearGradient>
			<path class="st11" d="M589.5,195.9c0,2.6,0.1,5,0.4,7h-4.8l-0.4-3.7h-0.2c-1.6,2.3-4.8,4.4-9,4.4c-6,0-9-4.2-9-8.4
				c0-7.1,6.3-11,17.7-10.9v-0.6c0-2.4-0.7-6.8-6.7-6.7c-2.8,0-5.6,0.8-7.7,2.2l-1.2-3.6c2.4-1.5,6-2.6,9.7-2.6
				c9,0,11.2,6.1,11.2,12V195.9z M584.4,188c-5.8-0.1-12.5,0.9-12.5,6.6c0,3.5,2.3,5.1,5,5.1c3.9,0,6.4-2.4,7.2-4.9
				c0.2-0.6,0.2-1.2,0.2-1.7V188z"/>
			<linearGradient id="SVGID_12_" gradientUnits="userSpaceOnUse" x1="598.7577" y1="181.4045" x2="604.1014" y2="181.4045">
				<stop  offset="0" style="stop-color:#1A44B7"/>
				<stop  offset="1" style="stop-color:#4760FF"/>
			</linearGradient>
			<path class="st12" d="M598.8,159.8h5.3V203h-5.3V159.8z"/>
			<linearGradient id="SVGID_13_" gradientUnits="userSpaceOnUse" x1="613.6981" y1="181.4045" x2="619.0419" y2="181.4045">
				<stop  offset="0" style="stop-color:#1A44B7"/>
				<stop  offset="1" style="stop-color:#4760FF"/>
			</linearGradient>
			<path class="st13" d="M613.7,159.8h5.3V203h-5.3V159.8z"/>
			<linearGradient id="SVGID_14_" gradientUnits="userSpaceOnUse" x1="626.5116" y1="188.297" x2="652.4432" y2="188.297">
				<stop  offset="0" style="stop-color:#1A44B7"/>
				<stop  offset="1" style="stop-color:#4760FF"/>
			</linearGradient>
			<path class="st14" d="M631.6,189.2c0.1,7.2,4.7,10.2,10.1,10.2c3.8,0,6.2-0.7,8.1-1.5l1,3.8c-1.9,0.9-5.2,1.9-9.8,1.9
				c-9,0-14.5-6-14.5-14.9s5.2-15.8,13.8-15.8c9.7,0,12.1,8.4,12.1,13.8c0,1.1-0.1,1.9-0.2,2.5H631.6z M647.3,185.4
				c0.1-3.3-1.4-8.6-7.4-8.6c-5.5,0-7.8,4.9-8.2,8.6H647.3z"/>
			<linearGradient id="SVGID_15_" gradientUnits="userSpaceOnUse" x1="656.3319" y1="185.0783" x2="673.7616" y2="185.0783">
				<stop  offset="0" style="stop-color:#1A44B7"/>
				<stop  offset="1" style="stop-color:#4760FF"/>
			</linearGradient>
			<path class="st15" d="M666.1,166.5v7h7.7v4.1h-7.7v15.9c0,3.6,1,5.7,4,5.7c1.5,0,2.3-0.1,3.1-0.4l0.2,4.1c-1,0.4-2.7,0.7-4.7,0.7
				c-2.5,0-4.5-0.9-5.8-2.2c-1.5-1.6-2.1-4.3-2.1-7.7v-16h-4.6v-4.1h4.6v-5.5L666.1,166.5z"/>
		</g>
		<linearGradient id="SVGID_16_" gradientUnits="userSpaceOnUse" x1="257.6245" y1="198.8406" x2="581.4918" y2="62.4477">
			<stop  offset="0" style="stop-color:#1A44B7"/>
			<stop  offset="1" style="stop-color:#4760FF"/>
		</linearGradient>
		<rect x="273.4" y="181.4" class="st16" width="39.1" height="5.1"/>
		<linearGradient id="SVGID_17_" gradientUnits="userSpaceOnUse" x1="445.3856" y1="296.2935" x2="763.1031" y2="162.4906">
			<stop  offset="0" style="stop-color:#1A44B7"/>
			<stop  offset="1" style="stop-color:#4760FF"/>
		</linearGradient>
		<rect x="687.2" y="181.4" class="st17" width="49.9" height="5.1"/>
		<g>
			<linearGradient id="SVGID_18_" gradientUnits="userSpaceOnUse" x1="207.9553" y1="102.3796" x2="671.1724" y2="-92.6988">
				<stop  offset="0" style="stop-color:#1A44B7"/>
				<stop  offset="1" style="stop-color:#4760FF"/>
			</linearGradient>
			<polygon class="st18" points="350.7,5.8 315.7,62.3 281.4,6.4 281,5.8 271.3,5.8 311.7,71.3 311.7,125.2 319.9,125.2 319.9,71.3 
				360.5,5.8 			"/>
			<linearGradient id="SVGID_19_" gradientUnits="userSpaceOnUse" x1="226.6158" y1="146.6893" x2="689.8329" y2="-48.3892">
				<stop  offset="0" style="stop-color:#1A44B7"/>
				<stop  offset="1" style="stop-color:#4760FF"/>
			</linearGradient>
			<path class="st19" d="M460.4,21.9c-10.8-11.2-24.4-17-40.5-17c-16.7,0-30.5,5.9-41.2,17.4c-10.6,11.5-16,25.9-16,42.9
				c0,17.1,5.4,31.6,16,43.1c10.7,11.6,24.5,17.4,41.2,17.4c16,0,29.6-5.7,40.5-17c10.8-11.3,16.3-25.9,16.3-43.6
				C476.7,47.7,471.2,33.1,460.4,21.9z M468.3,65.4c0,15.3-4.7,28-14.1,37.7c-9.2,9.7-20.7,14.6-34.3,14.6c-14.1,0-26-5.1-35.1-15
				c-9.1-10.1-13.7-22.6-13.7-37.2c0-14.6,4.6-27.1,13.7-37c9.1-9.9,20.9-14.9,35.2-14.9c13.9,0,25.1,4.7,34.3,14.5
				C463.6,37.5,468.3,50.1,468.3,65.4z"/>
			<linearGradient id="SVGID_20_" gradientUnits="userSpaceOnUse" x1="244.3438" y1="188.7848" x2="707.561" y2="-6.2937">
				<stop  offset="0" style="stop-color:#1A44B7"/>
				<stop  offset="1" style="stop-color:#4760FF"/>
			</linearGradient>
			<path class="st20" d="M542.1,75.9c9-0.8,16.6-4.1,22.4-9.6c6.1-5.9,9.3-14.5,9.3-25.6c0-10.5-3.1-19-9.2-25.4
				c-6.1-6.3-15.4-9.5-27.7-9.5h-38.9v119.4h8.3V76.1h26.1l34,49.1h10.1L542.1,75.9z M565.3,40.5c0,18.4-10.1,27.4-30.9,27.4h-28.3
				V14.1h31.1c8.8,0,15.8,2.2,20.8,6.6C562.8,25,565.3,31.7,565.3,40.5z"/>
			<linearGradient id="SVGID_21_" gradientUnits="userSpaceOnUse" x1="260.5602" y1="227.291" x2="723.7774" y2="32.2125">
				<stop  offset="0" style="stop-color:#1A44B7"/>
				<stop  offset="1" style="stop-color:#4760FF"/>
			</linearGradient>
			<path class="st21" d="M685.7,21.9c-10.8-11.2-24.4-17-40.5-17c-16.7,0-30.5,5.9-41.2,17.4c-10.6,11.5-16,25.9-16,42.9
				c0,17.1,5.4,31.6,16,43.1c10.7,11.6,24.5,17.4,41.2,17.4c16,0,29.6-5.7,40.5-17C696.5,97.7,702,83,702,65.3
				C702,47.7,696.5,33.1,685.7,21.9z M693.7,65.4c0,15.3-4.7,28-14.1,37.7c-9.2,9.7-20.7,14.6-34.3,14.6c-14.1,0-26-5.1-35.1-15
				C601,92.5,596.4,80,596.4,65.4c0-14.7,4.6-27.2,13.7-37c9.1-9.9,20.9-14.9,35.2-14.9c13.9,0,25.1,4.7,34.3,14.5
				C688.9,37.5,693.7,50.1,693.7,65.4z"/>
			<g>
				<linearGradient id="SVGID_22_" gradientUnits="userSpaceOnUse" x1="273.1461" y1="257.1763" x2="736.3632" y2="62.0978">
					<stop  offset="0" style="stop-color:#1A44B7"/>
					<stop  offset="1" style="stop-color:#4760FF"/>
				</linearGradient>
				<path class="st22" d="M732.4,125.2h-8.2V5.8h8.2V125.2z"/>
			</g>
		</g>
	</g>
</g>
</svg>
