<svg xmlns="http://www.w3.org/2000/svg" xmlns:xlink="http://www.w3.org/1999/xlink" viewBox="0 0 215.39 187.22"><defs><style>.cls-1,.cls-2{fill:none;}.cls-1{clip-rule:evenodd;}.cls-3{clip-path:url(#clip-path);}.cls-4{clip-path:url(#clip-path-2);}.cls-5{clip-path:url(#clip-path-3);}.cls-6{clip-path:url(#clip-path-4);}.cls-7{clip-path:url(#clip-path-5);}.cls-8{clip-path:url(#clip-path-6);}.cls-9{clip-path:url(#clip-path-7);}.cls-10{clip-path:url(#clip-path-8);}.cls-11{clip-path:url(#clip-path-9);}.cls-12{clip-path:url(#clip-path-10);}.cls-13{clip-path:url(#clip-path-11);}.cls-14{clip-path:url(#clip-path-12);}.cls-15{clip-path:url(#clip-path-13);}.cls-16{clip-path:url(#clip-path-14);}.cls-17{clip-path:url(#clip-path-15);}.cls-18{clip-path:url(#clip-path-16);}.cls-19{clip-path:url(#clip-path-17);}.cls-20{clip-path:url(#clip-path-18);}.cls-21{clip-path:url(#clip-path-19);}.cls-22{clip-path:url(#clip-path-20);}.cls-23{clip-path:url(#clip-path-21);}.cls-24{clip-path:url(#clip-path-22);}.cls-25{fill:url(#linear-gradient);}</style><clipPath id="clip-path"><path class="cls-1" d="M-669.38-3203.9l-2.49,31.2-2.37,29.69-2.43,30.45a2.93,2.93,0,0,0,.21,1.91c147.1,126.74,293.13,253.4,439.88,380.11l67.13-41.55C-336.22-2915.91-502.31-3059.3-669.38-3203.9Z"/></clipPath><clipPath id="clip-path-2"><path class="cls-1" d="M-280.32-3235c-28.29,21.3-56.57,41.83-84.86,63.13-3.89,2.71-6.36,3.1-10.25,0-34.65-26.33-69.65-52.67-104.65-79-36.42-28.27-72.84-56.54-109.61-84.42l-52-39.51H-767.53c6.72,5,12,9.3,17.68,13.56,32.88,24.78,65.76,50,98.64,74.74l97.59,74.36c30.4,23.24,61.16,46.87,91.57,70.1,29,22.08,58.34,43.77,87.33,66.23,3.18,2.32,5.3,2.32,8.48,0,23.34-17.81,47-34.86,70.71-52.67q87-65.64,174-130.91c42.07-31.75,84.5-63.51,126.57-94.88,8.84-6.59,17.32-13.17,26.52-20.14H-94.7C-156.58-3328.3-218.1-3281.44-280.32-3235Z"/></clipPath><clipPath id="clip-path-3"><path class="cls-1" d="M-686.92-2964.69a19.59,19.59,0,0,0-.7,1.91v91.39c0,.76.35,1.15.35,1.91,102.88,77.62,205.75,154.86,309.33,232.86h.35l62.85-48.18C-439.38-2778.48-563-2871.39-686.92-2964.69Z"/></clipPath><clipPath id="clip-path-4"><path class="cls-1" d="M-48.75-3183.4c-80.4,57.31-159.69,114.26-239.35,171.2a24.17,24.17,0,0,0,2.56,3c20.09,14.71,40.56,29.42,60.66,44.12.36.38,1.46.38,2.19.38,57.73-41.1,115.47-82.58,173.57-123.69.37-.37.37-1.13.73-1.5v-93.52Z"/></clipPath><clipPath id="clip-path-5"><path class="cls-1" d="M-48.39-2964.69c-27,20.51-53.27,40.61-79.9,60.71,21.16,16.48,41.59,32.57,62,48.65L-48.39-2869Z"/></clipPath><clipPath id="clip-path-6"><polygon class="cls-2" points="570.18 -3341.97 596.01 -3341.97 444.23 -3097.16 444.23 -2893.94 422.65 -2893.94 422.65 -3097.16 271.58 -3341.97 297.41 -3341.97 432.56 -3121.6 433.62 -3121.6 570.18 -3341.97"/></clipPath><clipPath id="clip-path-7"><path class="cls-2" d="M832.7-2913.28c53.42,0,98.71-19,135.15-57.28Q1023-3028,1023-3118.32c0-60.2-18.4-109.09-55.19-147-36.44-38.31-81.38-56.92-135.15-56.92-56.25,0-102.6,19.71-138.33,58.74s-53.78,87.57-53.78,145.21,18,106.17,53.78,145.94C730.45-2933.35,776.45-2913.28,832.7-2913.28Zm-.36,21.89q-94.46,0-154.25-65.31-60-65.12-60.14-162c0-63.85,19.81-117.85,60.14-161.26q60-65.13,154.25-65.31,90.75,0,151.78,63.48t61.21,163.09c0,66.76-20.52,121.49-61.21,163.81Q922.56-2891.39,832.34-2891.39Z"/></clipPath><clipPath id="clip-path-8"><path class="cls-2" d="M1157.83-3319.71v216h113.22q123.65,0,123.47-109.81c0-35.39-9.9-62-29.72-79.54s-47.41-26.63-82.79-26.63Zm265,425.77h-26.89l-130.2-188.26H1158.19v188.26h-21.94v-448H1280.6c45.64,0,80,11.68,102.6,35s34,54.72,34,93.76c0,41.23-11.32,72.6-34,94.5-22.64,21.52-52.36,33.93-89.51,36.11l-.71,1.83Z"/></clipPath><clipPath id="clip-path-9"><path class="cls-2" d="M1696.31-2913.28c53.42,0,98.7-19,135.15-57.28q55.18-57.46,55.19-147.76c0-60.2-18.4-109.09-55.19-147-36.45-38.31-81.38-56.92-135.15-56.92-56.26,0-102.6,19.71-138.34,58.74-36.08,39-53.77,87.57-53.77,145.21s18,106.17,53.77,145.94C1594.06-2933.35,1640.05-2913.28,1696.31-2913.28Zm-.36,21.89q-94.46,0-154.25-65.31-60-65.12-60.14-162c0-63.85,19.81-117.85,60.14-161.26q60-65.13,154.25-65.31,90.75,0,151.78,63.48t61.21,163.09c0,66.76-20.52,121.49-61.21,163.81Q1786.17-2891.39,1696-2891.39Z"/></clipPath><clipPath id="clip-path-10"><rect class="cls-2" x="2003.75" y="-3341.97" width="21.58" height="448.02"/></clipPath><clipPath id="clip-path-11"><polygon class="cls-2" points="999.25 -2691.74 1006.94 -2691.74 969.86 -2587.09 962.16 -2587.09 932.07 -2679.57 931.72 -2679.57 901.98 -2587.09 894.28 -2587.09 857.19 -2691.74 865.24 -2691.74 897.78 -2598.91 927.52 -2691.74 935.92 -2691.74 966.01 -2599.26 999.25 -2691.74"/></clipPath><clipPath id="clip-path-12"><path class="cls-2" d="M1079.72-2593.69c12.24,0,22.39-4.18,30.44-12.17,8-8.35,12.24-19.13,12.24-32.68q0-19.83-11.54-33.38c-7.7-9-18.2-13.56-30.79-13.56a43.47,43.47,0,0,0-31.84,13.21c-8.75,8.69-13,20.17-13,34.07,0,12.87,4.2,23.64,12.6,32C1055.93-2597.87,1066.77-2593.69,1079.72-2593.69Zm42.68-98h7.35v104.65h-7.35v-23.29h-.35c-9.09,16-23.44,24-42.33,24-14.7,0-26.94-4.87-37.09-14.26s-15-22.25-15-37.89,4.89-28.51,14.69-38.6c9.8-10.43,22.39-15.29,37.79-15.29a45.41,45.41,0,0,1,24.49,6.6,48.34,48.34,0,0,1,17.49,18.08h.35Z"/></clipPath><clipPath id="clip-path-13"><rect class="cls-2" x="1174.53" y="-2745.97" width="7.34" height="158.54"/></clipPath><clipPath id="clip-path-14"><rect class="cls-2" x="1229.12" y="-2745.97" width="7.34" height="158.54"/></clipPath><clipPath id="clip-path-15"><path class="cls-2" d="M1325.33-2685.48A39.81,39.81,0,0,0,1297-2674c-8,7.65-12.59,17.39-13.29,29.56h80.47c-.7-12.52-4.55-22.26-11.54-29.9C1345.28-2682,1336.18-2685.48,1325.33-2685.48Zm45.84,43.46c0,2.43,0,3.82-.35,4.52H1283c.7,12.51,4.9,23.29,12.59,31.64,8.05,8.34,17.85,12.51,29.74,12.51,14.7,0,26.6-5.56,35.69-17l5.6,4.86c-10.15,12.87-23.44,19.47-40.59,19.47-14.69,0-26.59-4.86-36.38-14.6-9.45-9.73-14.35-22.6-14.35-38.24s4.55-28.16,14-38.25,21-15,34.63-15c14.35,0,25.55,4.87,33.94,14.26C1367-2669.14,1371.17-2657,1371.17-2642Z"/></clipPath><clipPath id="clip-path-16"><path class="cls-2" d="M1435.9-2586.39c-9.1,0-15.75-2.44-19.25-7.3s-5.25-12.17-5.25-21.91v-69.18h-14.69v-7h14.69v-37.2l7-.69v38.24h40.94v6.95H1418.4v66.06c0,8.69,1,15,3.5,19.12s7,6.26,13.65,6.26a36.83,36.83,0,0,0,21.34-6.61l2.1,7A47.85,47.85,0,0,1,1435.9-2586.39Z"/></clipPath><clipPath id="clip-path-17"><polygon class="cls-2" points="749.99 -638.97 752.06 -638.97 742.09 -610.85 740.02 -610.85 731.93 -635.7 731.84 -635.7 723.85 -610.85 721.78 -610.85 711.81 -638.97 713.97 -638.97 722.72 -614.02 730.71 -638.97 732.97 -638.97 741.05 -614.12 749.99 -638.97"/></clipPath><clipPath id="clip-path-18"><path class="cls-2" d="M771.61-612.62a11.16,11.16,0,0,0,8.18-3.27,12.1,12.1,0,0,0,3.3-8.79,13.36,13.36,0,0,0-3.11-9,10.4,10.4,0,0,0-8.27-3.64,11.66,11.66,0,0,0-8.56,3.55,12.37,12.37,0,0,0-3.48,9.16,11.64,11.64,0,0,0,3.39,8.59A11.4,11.4,0,0,0,771.61-612.62ZM783.09-639h2v28.12h-2v-6.26H783a12.26,12.26,0,0,1-11.38,6.45,14.11,14.11,0,0,1-10-3.83c-2.73-2.52-4-6-4-10.19A14.28,14.28,0,0,1,761.55-635a13.26,13.26,0,0,1,10.16-4.11,12.15,12.15,0,0,1,6.58,1.78,13,13,0,0,1,4.7,4.86h.1Z"/></clipPath><clipPath id="clip-path-19"><rect class="cls-2" x="797.1" y="-653.55" width="1.97" height="42.61"/></clipPath><clipPath id="clip-path-20"><rect class="cls-2" x="811.76" y="-653.55" width="1.97" height="42.61"/></clipPath><clipPath id="clip-path-21"><path class="cls-2" d="M837.62-637.29a10.71,10.71,0,0,0-7.61,3.08,11.41,11.41,0,0,0-3.58,8h21.63a12.44,12.44,0,0,0-3.1-8A9.68,9.68,0,0,0,837.62-637.29Zm12.32,11.68a3.64,3.64,0,0,1-.09,1.21H826.24a13.34,13.34,0,0,0,3.39,8.51,10.62,10.62,0,0,0,8,3.36,11.59,11.59,0,0,0,9.59-4.58l1.51,1.31a13.14,13.14,0,0,1-10.91,5.23,13.24,13.24,0,0,1-9.78-3.92,14.23,14.23,0,0,1-3.85-10.28A14.31,14.31,0,0,1,827.94-635a12.23,12.23,0,0,1,9.31-4,11.61,11.61,0,0,1,9.12,3.84C848.81-632.9,849.94-629.63,849.94-625.61Z"/></clipPath><clipPath id="clip-path-22"><path class="cls-2" d="M867.34-610.66c-2.45,0-4.24-.66-5.18-2a10.09,10.09,0,0,1-1.41-5.89V-637.1h-4V-639h4v-10l1.88-.19v10.28h11V-637h-11v17.75a10.51,10.51,0,0,0,.94,5.14c.66,1.12,1.88,1.68,3.67,1.68a9.94,9.94,0,0,0,5.74-1.77l.56,1.87A12.92,12.92,0,0,1,867.34-610.66Z"/></clipPath><linearGradient id="linear-gradient" x1="27.39" y1="132.9" x2="187.84" y2="-27.55" gradientUnits="userSpaceOnUse"><stop offset="0" stopColor="#1a44b7"/><stop offset="1" stopColor="#4760ff"/></linearGradient></defs><title>yoroi logo</title><g id="tick"><path class="cls-25" d="M166.41,146.46l-17.07,11.85L23.64,71.45c0-.17,0-.34-.05-.51V63.19q0-3.77,0-7.53V47.77ZM131.33,34.36c-7.59,5.2-15.25,10.3-22.84,15.5a2.05,2.05,0,0,1-2.76,0c-9.38-6.53-18.81-13-28.2-19.48Q62.71,20.09,47.91,9.74L33.9,0H0C1.8,1.26,3.28,2.32,4.77,3.35L31.34,21.77q13.14,9.14,26.27,18.28c8.24,5.73,16.46,11.49,24.71,17.21C90.15,62.69,98,68.06,105.83,73.5a1.72,1.72,0,0,0,2.31,0c6.32-4.33,12.71-8.59,19-12.92q23.48-16.09,46.92-32.23L208.22,5c2.36-1.61,4.71-3.25,7.17-5h-34Q156.35,17.17,131.33,34.36ZM23.77,105.54a2.54,2.54,0,0,0-.18.45v14.24c0,2.84,0,5.68,0,8.51a1.35,1.35,0,0,0,.12.5l83.9,58,.08,0,17.07-11.84ZM191.38,47.82,128.94,91a5.47,5.47,0,0,0,.66.74q7.92,5.61,15.85,11.17a.92.92,0,0,0,.57.1l45.21-31.3a1.73,1.73,0,0,0,.15-.42Zm.05,58.63c-7.09,4.89-13.93,9.62-20.85,14.41l16.22,11.5,4.63-3.21Z"/></g></svg>