<svg width="57" height="48" viewBox="0 0 57 48" fill="none" xmlns="http://www.w3.org/2000/svg">
<path fill-rule="evenodd" clip-rule="evenodd" d="M26.9594 19.4882L0.499268 0H8.81098L28.4303 14.0028L48.1476 0H56.5008L29.9085 19.4882C29.4654 19.8 28.9434 19.956 28.4303 19.956C27.9198 19.956 27.4004 19.8 26.9594 19.4882ZM37.3056 41.8013L4.93689 18.7441V12.1371L42.5263 38.7001L37.3056 41.8013ZM38.8724 28.3169L50.3581 19.8221V13.4847L34.4348 25.0808L38.8724 28.3169ZM49.0524 35.5984L50.3576 34.5197V28.3172L44.6147 32.3623L49.0524 35.5984ZM4.93689 33.0337L26.342 48.0007L31.6933 45.0342L4.93689 26.157V33.0337Z" fill="url(#paint0_linear_8132_36304)"/>
<defs>
<linearGradient id="paint0_linear_8132_36304" x1="59.0114" y1="77.0656" x2="112.398" y2="-30.4088" gradientUnits="userSpaceOnUse">
<stop stopColor="#244ABF"/>
<stop offset="1" stopColor="#4760FF"/>
</linearGradient>
</defs>
</svg>
