<svg width="51" height="48" viewBox="0 0 51 48" fill="none" xmlns="http://www.w3.org/2000/svg">
<path d="M46.4868 32.1469C46.8769 31.9762 47.3401 32.0737 47.657 32.3906C47.9496 32.7076 48.0227 33.1708 47.8277 33.5608C45.1947 39.2411 40.514 43.7268 34.7118 46.116C22.0104 51.3574 7.45617 45.2871 2.23908 32.5613C-2.978 19.8355 3.09235 5.30567 15.8181 0.0885817C16.0863 -0.0333129 16.4032 -0.033313 16.6958 0.112961C17.2321 0.35675 17.4515 0.990602 17.2077 1.52694C14.5017 7.30474 14.3554 13.9358 16.7933 19.8355C21.5716 31.4399 34.8825 36.9251 46.4868 32.1469Z" fill="url(#paint0_linear_9093_106129)"/>
<path d="M40.5871 29.8796L43.1957 28.0756C35.9551 23.0535 28.7146 18.0558 21.4497 13.0582V16.6419C27.8369 21.0545 34.2242 25.467 40.5871 29.8796Z" fill="url(#paint1_linear_9093_106129)"/>
<path d="M36.4611 11.9307C36.9292 11.6147 37.3949 11.3004 37.8567 10.986C38.999 10.1951 40.1462 9.40929 41.2894 8.62615C42.6838 7.67103 44.0722 6.71995 45.4385 5.76887H50.6312C50.4906 5.86558 50.3562 5.95913 50.2248 6.05065C49.9918 6.21288 49.768 6.36875 49.5342 6.52462C48.6688 7.12186 47.8034 7.71302 46.938 8.30417C46.0725 8.89539 45.207 9.48662 44.3415 10.0839C41.9767 11.7173 39.5876 13.3507 37.1985 14.9841C36.7109 15.3132 36.2294 15.6423 35.748 15.9714C35.2665 16.3005 34.785 16.6297 34.2974 16.9588C34.1755 17.0563 34.0779 17.0563 33.9561 16.9588L30.3724 14.4721C29.7507 14.0333 29.1229 13.5945 28.4952 13.1557C27.8674 12.7169 27.2397 12.278 26.618 11.8392C25.3016 10.9129 23.9608 9.98648 22.62 9.06011L22.6199 9.06002C21.9495 8.59685 21.273 8.12758 20.5965 7.65831C19.92 7.18899 19.2434 6.71967 18.573 6.25645C18.4505 6.16122 18.3205 6.07359 18.1829 5.98084C18.0739 5.90738 17.9601 5.8307 17.8416 5.74449H23.0099C23.4706 6.05164 23.9217 6.36847 24.3692 6.68278C24.632 6.86741 24.8936 7.05118 25.1553 7.2316C25.911 7.75574 26.6606 8.27988 27.4103 8.80402C28.1599 9.32817 28.9096 9.85233 29.6654 10.3765C30.5534 11.0042 31.4511 11.6224 32.3523 12.243C32.8861 12.6105 33.4211 12.9789 33.9561 13.3507C34.1023 13.4482 34.2242 13.4482 34.3705 13.3507C35.0691 12.8704 35.7677 12.3988 36.4611 11.9307Z" fill="url(#paint2_linear_9093_106129)"/>
<path d="M40.6547 17.4275C42.7622 15.9702 44.8696 14.5128 46.9988 13.0338H47.0232V16.6175C47.0232 16.6297 47.0171 16.6419 47.011 16.6541C47.0049 16.6662 46.9988 16.6784 46.9988 16.6906C44.6828 18.2996 42.3912 19.8843 40.0995 21.4689C40.0508 21.4689 40.0264 21.4689 40.002 21.4445C39.5998 21.1642 39.1975 20.8777 38.7953 20.5913C38.393 20.3048 37.9908 20.0184 37.5885 19.738C37.5784 19.7279 37.5683 19.7136 37.5565 19.6969C37.5398 19.6732 37.5196 19.6447 37.491 19.6161C38.5474 18.8848 39.601 18.1561 40.6547 17.4275Z" fill="url(#paint3_linear_9093_106129)"/>
<path d="M45.2159 23.2338C45.8135 22.823 46.4144 22.4098 47.0232 21.9809V25.4427L46.3162 25.9302C45.8082 25.5608 45.3002 25.2011 44.78 24.8327C44.4763 24.6176 44.1684 24.3996 43.8539 24.175C44.3073 23.8587 44.7606 23.5469 45.2159 23.2338Z" fill="url(#paint4_linear_9093_106129)"/>
<defs>
<linearGradient id="paint0_linear_9093_106129" x1="0.368896" y1="0" x2="48.318" y2="50.2091" gradientUnits="userSpaceOnUse">
<stop stopColor="#244ABF"/>
<stop offset="1" stopColor="#244ABF"/>
</linearGradient>
<linearGradient id="paint1_linear_9093_106129" x1="0.368896" y1="0" x2="48.318" y2="50.2091" gradientUnits="userSpaceOnUse">
<stop stopColor="#244ABF"/>
<stop offset="1" stopColor="#244ABF"/>
</linearGradient>
<linearGradient id="paint2_linear_9093_106129" x1="0.368896" y1="0" x2="48.318" y2="50.2091" gradientUnits="userSpaceOnUse">
<stop stopColor="#244ABF"/>
<stop offset="1" stopColor="#244ABF"/>
</linearGradient>
<linearGradient id="paint3_linear_9093_106129" x1="0.368896" y1="0" x2="48.318" y2="50.2091" gradientUnits="userSpaceOnUse">
<stop stopColor="#244ABF"/>
<stop offset="1" stopColor="#244ABF"/>
</linearGradient>
<linearGradient id="paint4_linear_9093_106129" x1="0.368896" y1="0" x2="48.318" y2="50.2091" gradientUnits="userSpaceOnUse">
<stop stopColor="#244ABF"/>
<stop offset="1" stopColor="#244ABF"/>
</linearGradient>
</defs>
</svg>
