<svg width="264" height="199" viewBox="0 0 264 199" fill="none" xmlns="http://www.w3.org/2000/svg">
<g filter="url(#filter0_d_647_62579)">
<rect x="12" y="6" width="240" height="175" rx="8" fill="#EAEDF2"/>
<path d="M12 14C12 9.58172 15.5817 6 20 6H50V181H20C15.5817 181 12 177.418 12 173V14Z" fill="#3154CB"/>
<path fill-rule="evenodd" clip-rule="evenodd" d="M21.4824 20.04V20.9416C21.4824 21.224 21.4824 21.5173 21.4824 21.7997V22.6795C21.4824 22.7012 21.4824 22.723 21.4929 22.7338C26.1189 26.0359 30.7134 29.338 35.3289 32.64L37.2066 31.2931C31.9617 27.5457 26.7378 23.8092 21.4824 20.04Z" fill="white"/>
<path fill-rule="evenodd" clip-rule="evenodd" d="M33.6336 18.9052C32.7841 19.5002 31.9345 20.0735 31.085 20.6685C30.9681 20.7442 30.8938 20.7551 30.777 20.6685C29.7363 19.9329 28.685 19.1973 27.6336 18.4617C26.5398 17.672 25.446 16.8823 24.3416 16.1034C23.8212 15.7356 23.3009 15.3678 22.7805 15H19C19.2018 15.1406 19.3611 15.2596 19.531 15.3786C20.5186 16.071 21.5062 16.7741 22.4938 17.4665C23.4708 18.1588 24.4478 18.8511 25.4248 19.5435C26.3381 20.1925 27.2619 20.8524 28.1752 21.5015C29.046 22.1181 29.9274 22.7239 30.7982 23.3513C30.8938 23.4162 30.9575 23.4162 31.0531 23.3513C31.754 22.8537 32.4655 22.3777 33.177 21.8801C34.9186 20.6577 36.6602 19.4353 38.4018 18.2237C39.6655 17.3366 40.9398 16.4496 42.2035 15.5733C42.469 15.3894 42.7239 15.2055 43 15.0108H39.2088C37.3504 16.2981 35.5027 17.6071 33.6336 18.9052Z" fill="white"/>
<path fill-rule="evenodd" clip-rule="evenodd" d="M21.5042 26.7598C21.4933 26.7921 21.4824 26.8028 21.4824 26.8136C21.4824 26.9967 21.4824 27.169 21.4824 27.3521V28.429C21.4824 28.7521 21.4824 29.0752 21.4824 29.3875C21.4824 29.409 21.4933 29.4198 21.4933 29.4413C24.6899 31.6275 27.8865 33.8028 31.1049 35.9998H31.1158L33.0686 34.6428C29.1956 32.0044 25.3554 29.3875 21.5042 26.7598Z" fill="white"/>
<path fill-rule="evenodd" clip-rule="evenodd" d="M39.679 20.04C37.4586 21.581 35.2685 23.1118 33.0684 24.6427C33.0986 24.6832 33.1188 24.7035 33.139 24.7238C33.6941 25.1191 34.2593 25.5145 34.8144 25.9099C34.8245 25.92 34.8547 25.92 34.8749 25.92C36.4695 24.815 38.0642 23.6998 39.6689 22.5948C39.679 22.5847 39.679 22.5644 39.689 22.5542V20.04H39.679Z" fill="white"/>
<path fill-rule="evenodd" clip-rule="evenodd" d="M39.6898 25.9199C38.8509 26.5499 38.0346 27.1676 37.207 27.7852C37.8646 28.2917 38.4994 28.7858 39.1343 29.2799L39.6898 28.8599V25.9199Z" fill="white"/>
<rect x="64" y="24" width="174" height="29" rx="4" fill="white"/>
<rect x="64" y="65" width="174" height="29" rx="4" fill="white"/>
<rect x="64" y="106" width="174" height="29" rx="4" fill="white"/>
<rect x="113" y="144" width="76" height="22" rx="4" fill="#17D1AA"/>
</g>
<defs>
<filter id="filter0_d_647_62579" x="0" y="0" width="264" height="199" filterUnits="userSpaceOnUse" color-interpolation-filters="sRGB">
<feFlood flood-opacity="0" result="BackgroundImageFix"/>
<feColorMatrix in="SourceAlpha" type="matrix" values="0 0 0 0 0 0 0 0 0 0 0 0 0 0 0 0 0 0 127 0" result="hardAlpha"/>
<feOffset dy="6"/>
<feGaussianBlur stdDeviation="6"/>
<feColorMatrix type="matrix" values="0 0 0 0 0.141176 0 0 0 0 0.156863 0 0 0 0 0.219608 0 0 0 0.1 0"/>
<feBlend mode="normal" in2="BackgroundImageFix" result="effect1_dropShadow_647_62579"/>
<feBlend mode="normal" in="SourceGraphic" in2="effect1_dropShadow_647_62579" result="shape"/>
</filter>
</defs>
</svg>
