<svg width="236" height="175" viewBox="0 0 236 175" fill="none" xmlns="http://www.w3.org/2000/svg">
<rect width="236" height="175" rx="8" fill="#F0F3F5"/>
<path d="M0 8C0 3.58172 3.58172 0 8 0H38V175H8C3.58172 175 0 171.418 0 167V8Z" fill="#3154CB"/>
<path fillRule="evenodd" clipRule="evenodd" d="M9.48242 14.04V14.9416C9.48242 15.224 9.48242 15.5173 9.48242 15.7997V16.6795C9.48242 16.7012 9.48242 16.723 9.49291 16.7338C14.1189 20.0359 18.7134 23.338 23.3289 26.64L25.2066 25.2931C19.9617 21.5457 14.7378 17.8092 9.48242 14.04Z" fill="white"/>
<path fillRule="evenodd" clipRule="evenodd" d="M21.6336 12.9052C20.7841 13.5002 19.9345 14.0735 19.085 14.6685C18.9681 14.7442 18.8938 14.7551 18.777 14.6685C17.7363 13.9329 16.685 13.1973 15.6336 12.4617C14.5398 11.672 13.446 10.8823 12.3416 10.1034C11.8212 9.73561 11.3009 9.3678 10.7805 9H7C7.20177 9.14063 7.36106 9.25963 7.53097 9.37862C8.51858 10.071 9.50619 10.7741 10.4938 11.4665C11.4708 12.1588 12.4478 12.8511 13.4248 13.5435C14.3381 14.1925 15.2619 14.8524 16.1752 15.5015C17.046 16.1181 17.9274 16.7239 18.7982 17.3513C18.8938 17.4162 18.9575 17.4162 19.0531 17.3513C19.754 16.8537 20.4655 16.3777 21.177 15.8801C22.9186 14.6577 24.6602 13.4353 26.4018 12.2237C27.6655 11.3366 28.9398 10.4496 30.2035 9.57334C30.469 9.38944 30.7239 9.20554 31 9.01082H27.2088C25.3504 10.2981 23.5027 11.6071 21.6336 12.9052Z" fill="white"/>
<path fillRule="evenodd" clipRule="evenodd" d="M9.50424 20.7598C9.49333 20.7921 9.48242 20.8028 9.48242 20.8136C9.48242 20.9967 9.48242 21.169 9.48242 21.3521V22.429C9.48242 22.7521 9.48242 23.0752 9.48242 23.3875C9.48242 23.409 9.49333 23.4198 9.49333 23.4413C12.6899 25.6275 15.8865 27.8028 19.1049 29.9998H19.1158L21.0686 28.6428C17.1956 26.0044 13.3554 23.3875 9.50424 20.7598Z" fill="white"/>
<path fillRule="evenodd" clipRule="evenodd" d="M27.679 14.04C25.4586 15.581 23.2685 17.1118 21.0684 18.6427C21.0986 18.6832 21.1188 18.7035 21.139 18.7238C21.6941 19.1191 22.2593 19.5145 22.8144 19.9099C22.8245 19.92 22.8547 19.92 22.8749 19.92C24.4695 18.815 26.0642 17.6998 27.6689 16.5948C27.679 16.5847 27.679 16.5644 27.689 16.5542V14.04H27.679Z" fill="white"/>
<path fillRule="evenodd" clipRule="evenodd" d="M27.6898 19.9199C26.8509 20.5499 26.0346 21.1676 25.207 21.7852C25.8646 22.2917 26.4994 22.7858 27.1343 23.2799L27.6898 22.8599V19.9199Z" fill="white"/>
<rect x="52" y="18" width="170" height="29" rx="4" fill="white"/>
<rect x="52" y="59" width="170" height="29" rx="4" fill="white"/>
<rect x="52" y="100" width="170" height="29" rx="4" fill="white"/>
<rect x="100" y="138" width="74" height="22" rx="4" fill="#17D1AA"/>
</svg>
