<svg xmlns="http://www.w3.org/2000/svg" xmlns:xlink="http://www.w3.org/1999/xlink" viewBox="0 0 215.39 319.64"><defs><style>.cls-1,.cls-2{fill:none;}.cls-1{clip-rule:evenodd;}.cls-3{clip-path:url(#clip-path);}.cls-4{clip-path:url(#clip-path-2);}.cls-5{clip-path:url(#clip-path-3);}.cls-6{clip-path:url(#clip-path-4);}.cls-7{clip-path:url(#clip-path-5);}.cls-8{clip-path:url(#clip-path-6);}.cls-9{clip-path:url(#clip-path-7);}.cls-10{clip-path:url(#clip-path-8);}.cls-11{clip-path:url(#clip-path-9);}.cls-12{clip-path:url(#clip-path-10);}.cls-13{clip-path:url(#clip-path-11);}.cls-14{clip-path:url(#clip-path-12);}.cls-15{clip-path:url(#clip-path-13);}.cls-16{clip-path:url(#clip-path-14);}.cls-17{clip-path:url(#clip-path-15);}.cls-18{clip-path:url(#clip-path-16);}.cls-19{clip-path:url(#clip-path-17);}.cls-20{clip-path:url(#clip-path-18);}.cls-21{clip-path:url(#clip-path-19);}.cls-22{clip-path:url(#clip-path-20);}.cls-23{clip-path:url(#clip-path-21);}.cls-24{clip-path:url(#clip-path-22);}.cls-25{fill:url(#linear-gradient);}.cls-26{fill:url(#linear-gradient-2);}.cls-27{fill:url(#linear-gradient-3);}.cls-28{fill:url(#linear-gradient-4);}.cls-29{fill:url(#linear-gradient-5);}.cls-30{fill:url(#linear-gradient-6);}.cls-31{fill:url(#linear-gradient-7);}.cls-32{fill:url(#linear-gradient-8);}.cls-33{fill:url(#linear-gradient-9);}.cls-34{fill:url(#linear-gradient-10);}.cls-35{fill:url(#linear-gradient-11);}.cls-36{fill:url(#linear-gradient-12);}.cls-37{fill:url(#linear-gradient-13);}.cls-38{fill:url(#linear-gradient-14);}</style><clipPath id="clip-path"><path class="cls-1" d="M-2205.17-2715.78l-2.49,31.2-2.37,29.7-2.44,30.45a2.9,2.9,0,0,0,.21,1.9c147.1,126.75,293.14,253.4,439.88,380.12l67.13-41.55C-1872-2427.79-2038.11-2571.18-2205.17-2715.78Z"/></clipPath><clipPath id="clip-path-2"><path class="cls-1" d="M-1816.12-2746.84c-28.29,21.3-56.57,41.83-84.85,63.13-3.89,2.71-6.37,3.09-10.26,0-34.65-26.34-69.65-52.67-104.65-79-36.42-28.27-72.83-56.55-109.6-84.43l-52-39.5h-125.86c6.71,5,12,9.29,17.67,13.55,32.88,24.79,65.77,50,98.65,74.75l97.58,74.36c30.4,23.24,61.16,46.86,91.57,70.1,29,22.07,58.34,43.76,87.33,66.23,3.18,2.32,5.3,2.32,8.48,0,23.34-17.82,47-34.86,70.72-52.68q87-65.64,174-130.9c42.07-31.76,84.5-63.52,126.57-94.89,8.84-6.58,17.33-13.17,26.52-20.14H-1630.5C-1692.38-2840.18-1753.89-2793.32-1816.12-2746.84Z"/></clipPath><clipPath id="clip-path-3"><path class="cls-1" d="M-2222.72-2476.56a17.76,17.76,0,0,0-.7,1.91v91.38c0,.77.35,1.15.35,1.91,102.88,77.63,205.76,154.86,309.34,232.87h.35l62.85-48.18C-1975.18-2290.35-2098.77-2383.27-2222.72-2476.56Z"/></clipPath><clipPath id="clip-path-4"><path class="cls-1" d="M-1584.55-2695.28c-80.39,57.32-159.69,114.26-239.35,171.2a25.2,25.2,0,0,0,2.56,3c20.1,14.7,40.56,29.41,60.66,44.12.36.38,1.46.38,2.19.38,57.74-41.11,115.47-82.59,173.57-123.69.37-.38.37-1.13.73-1.51v-93.52Z"/></clipPath><clipPath id="clip-path-5"><path class="cls-1" d="M-1584.19-2476.56c-27,20.5-53.27,40.6-79.9,60.7,21.16,16.49,41.59,32.57,62,48.65l17.87-13.67Z"/></clipPath><clipPath id="clip-path-6"><polygon class="cls-2" points="-965.61 -2853.84 -939.79 -2853.84 -1091.57 -2609.03 -1091.57 -2405.82 -1113.15 -2405.82 -1113.15 -2609.03 -1264.21 -2853.84 -1238.39 -2853.84 -1103.24 -2633.48 -1102.18 -2633.48 -965.61 -2853.84"/></clipPath><clipPath id="clip-path-7"><path class="cls-2" d="M-703.1-2425.16c53.42,0,98.71-19,135.15-57.28q55.19-57.45,55.19-147.76c0-60.19-18.4-109.08-55.19-147-36.44-38.3-81.37-56.91-135.15-56.91-56.25,0-102.6,19.7-138.33,58.74s-53.78,87.56-53.78,145.2,18,106.17,53.78,145.94C-805.35-2445.22-759.35-2425.16-703.1-2425.16Zm-.35,21.89c-63,0-114.28-21.89-154.26-65.3s-60.14-97.41-60.14-162c0-63.85,19.81-117.84,60.14-161.26q60-65.13,154.26-65.31,90.75,0,151.77,63.49t61.21,163.08q0,100.16-61.21,163.81Q-613.24-2403.27-703.45-2403.27Z"/></clipPath><clipPath id="clip-path-8"><path class="cls-2" d="M-378-2831.59v216h113.21q123.65,0,123.47-109.82c0-35.39-9.9-62-29.72-79.53s-47.4-26.64-82.78-26.64Zm265,425.77h-26.89l-130.2-188.26H-377.61v188.26h-21.94v-448H-255.2c45.64,0,80,11.67,102.6,35s34,54.73,34,93.77c0,41.22-11.33,72.6-34,94.49-22.64,21.52-52.36,33.93-89.51,36.12l-.71,1.82Z"/></clipPath><clipPath id="clip-path-9"><path class="cls-2" d="M160.51-2425.16c53.42,0,98.71-19,135.15-57.28q55.18-57.45,55.19-147.76c0-60.19-18.4-109.08-55.19-147-36.44-38.3-81.37-56.91-135.15-56.91-56.25,0-102.6,19.7-138.33,58.74-36.09,39-53.78,87.56-53.78,145.2s18,106.17,53.78,145.94C58.26-2445.22,104.26-2425.16,160.51-2425.16Zm-.36,21.89c-63,0-114.27-21.89-154.25-65.3s-60.14-97.41-60.14-162c0-63.85,19.81-117.84,60.14-161.26q60-65.13,154.25-65.31,90.75,0,151.78,63.49t61.21,163.08q0,100.16-61.21,163.81Q250.37-2403.27,160.15-2403.27Z"/></clipPath><clipPath id="clip-path-10"><rect class="cls-2" x="467.96" y="-2853.84" width="21.58" height="448.02"/></clipPath><clipPath id="clip-path-11"><polygon class="cls-2" points="-536.55 -2203.61 -528.86 -2203.61 -565.94 -2098.97 -573.64 -2098.97 -603.73 -2191.45 -604.08 -2191.45 -633.82 -2098.97 -641.52 -2098.97 -678.61 -2203.61 -670.56 -2203.61 -638.02 -2110.79 -608.28 -2203.61 -599.88 -2203.61 -569.79 -2111.13 -536.55 -2203.61"/></clipPath><clipPath id="clip-path-12"><path class="cls-2" d="M-456.08-2105.57c12.25,0,22.39-4.17,30.44-12.17,8.05-8.34,12.25-19.12,12.25-32.68q0-19.82-11.55-33.38c-7.7-9-18.19-13.56-30.79-13.56a43.44,43.44,0,0,0-31.84,13.22c-8.75,8.69-12.95,20.16-12.95,34.07,0,12.86,4.2,23.64,12.6,32C-479.87-2109.74-469-2105.57-456.08-2105.57Zm42.69-98H-406V-2099h-7.34v-23.3h-.35c-9.1,16-23.45,24-42.34,24-14.7,0-26.94-4.87-37.09-14.25s-15-22.25-15-37.9,4.9-28.51,14.69-38.59c9.8-10.43,22.39-15.3,37.79-15.3a45.39,45.39,0,0,1,24.49,6.61,48.36,48.36,0,0,1,17.5,18.08h.35Z"/></clipPath><clipPath id="clip-path-13"><rect class="cls-2" x="-361.26" y="-2257.85" width="7.34" height="158.54"/></clipPath><clipPath id="clip-path-14"><rect class="cls-2" x="-306.68" y="-2257.85" width="7.34" height="158.54"/></clipPath><clipPath id="clip-path-15"><path class="cls-2" d="M-210.46-2197.36a39.79,39.79,0,0,0-28.34,11.48c-8,7.65-12.6,17.38-13.3,29.55h80.47c-.7-12.52-4.55-22.25-11.54-29.9C-190.52-2193.88-199.62-2197.36-210.46-2197.36Zm45.83,43.46c0,2.44,0,3.83-.35,4.52H-252.8c.7,12.52,4.9,23.3,12.6,31.64,8,8.34,17.84,12.52,29.74,12.52,14.69,0,26.59-5.57,35.68-17l5.6,4.87c-10.14,12.86-23.44,19.47-40.58,19.47-14.7,0-26.59-4.87-36.39-14.6-9.45-9.74-14.35-22.6-14.35-38.25s4.55-28.16,14-38.24,21-14.95,34.64-14.95c14.34,0,25.54,4.87,33.94,14.25C-168.83-2181-164.63-2168.85-164.63-2153.9Z"/></clipPath><clipPath id="clip-path-16"><path class="cls-2" d="M-99.9-2098.27c-9.1,0-15.75-2.43-19.25-7.3s-5.24-12.17-5.24-21.9v-69.19h-14.7v-7h14.7v-37.2l7-.7v38.24h40.94v7H-117.4v66c0,8.7,1.05,15,3.5,19.13s7,6.25,13.65,6.25a36.8,36.8,0,0,0,21.34-6.6l2.1,6.95A47.71,47.71,0,0,1-99.9-2098.27Z"/></clipPath><clipPath id="clip-path-17"><polygon class="cls-2" points="-785.81 -150.85 -783.74 -150.85 -793.71 -122.72 -795.78 -122.72 -803.87 -147.58 -803.96 -147.58 -811.95 -122.72 -814.02 -122.72 -823.99 -150.85 -821.82 -150.85 -813.08 -125.9 -805.09 -150.85 -802.83 -150.85 -794.74 -125.99 -785.81 -150.85"/></clipPath><clipPath id="clip-path-18"><path class="cls-2" d="M-764.18-124.5a11.17,11.17,0,0,0,8.18-3.27,12.11,12.11,0,0,0,3.29-8.78,13.36,13.36,0,0,0-3.11-9,10.4,10.4,0,0,0-8.27-3.65,11.7,11.7,0,0,0-8.56,3.55,12.37,12.37,0,0,0-3.48,9.16,11.66,11.66,0,0,0,3.39,8.6A11.45,11.45,0,0,0-764.18-124.5Zm11.47-26.35h2v28.13h-2V-129h-.1a12.26,12.26,0,0,1-11.37,6.44,14.15,14.15,0,0,1-10-3.83c-2.73-2.52-4-6-4-10.18a14.26,14.26,0,0,1,3.94-10.37A13.23,13.23,0,0,1-764.09-151a12.23,12.23,0,0,1,6.58,1.77,13,13,0,0,1,4.7,4.86h.1Z"/></clipPath><clipPath id="clip-path-19"><rect class="cls-2" x="-738.7" y="-165.42" width="1.97" height="42.61"/></clipPath><clipPath id="clip-path-20"><rect class="cls-2" x="-724.03" y="-165.42" width="1.97" height="42.61"/></clipPath><clipPath id="clip-path-21"><path class="cls-2" d="M-698.18-149.17a10.67,10.67,0,0,0-7.61,3.09,11.43,11.43,0,0,0-3.58,7.94h21.63a12.46,12.46,0,0,0-3.1-8A9.71,9.71,0,0,0-698.18-149.17Zm12.32,11.68a3.72,3.72,0,0,1-.09,1.22h-23.6a13.25,13.25,0,0,0,3.38,8.5,10.62,10.62,0,0,0,8,3.36,11.64,11.64,0,0,0,9.6-4.57l1.5,1.3A13.15,13.15,0,0,1-698-122.44a13.23,13.23,0,0,1-9.78-3.93,14.19,14.19,0,0,1-3.85-10.28,14.29,14.29,0,0,1,3.76-10.27,12.23,12.23,0,0,1,9.31-4,11.63,11.63,0,0,1,9.12,3.83C-687-144.77-685.86-141.5-685.86-137.49Z"/></clipPath><clipPath id="clip-path-22"><path class="cls-2" d="M-668.46-122.54c-2.45,0-4.23-.65-5.17-2a10.09,10.09,0,0,1-1.42-5.89V-149H-679v-1.87H-675v-10l1.89-.18v10.28h11v1.86h-11v17.76a10.45,10.45,0,0,0,.94,5.14c.65,1.12,1.88,1.68,3.66,1.68a9.88,9.88,0,0,0,5.74-1.78l.56,1.87A12.81,12.81,0,0,1-668.46-122.54Z"/></clipPath><linearGradient id="linear-gradient" x1="74.03" y1="317.39" x2="87.95" y2="303.47" gradientUnits="userSpaceOnUse"><stop offset="0" stop-color="#1a44b7"/><stop offset="1" stop-color="#4760ff"/></linearGradient><linearGradient id="linear-gradient-2" x1="94.33" y1="318.54" x2="105.76" y2="307.11" xlink:href="#linear-gradient"/><linearGradient id="linear-gradient-3" x1="110.82" y1="315.04" x2="121.69" y2="304.17" xlink:href="#linear-gradient"/><linearGradient id="linear-gradient-4" x1="104.42" y1="315.04" x2="115.29" y2="304.17" xlink:href="#linear-gradient"/><linearGradient id="linear-gradient-5" x1="16.46" y1="324.05" x2="44.7" y2="295.81" xlink:href="#linear-gradient"/><linearGradient id="linear-gradient-6" x1="169" y1="324.61" x2="198.37" y2="295.25" xlink:href="#linear-gradient"/><linearGradient id="linear-gradient-7" x1="122.4" y1="317.64" x2="131.74" y2="308.29" xlink:href="#linear-gradient"/><linearGradient id="linear-gradient-8" x1="134.52" y1="315.71" x2="143.74" y2="306.49" xlink:href="#linear-gradient"/><linearGradient id="linear-gradient-9" x1="5.18" y1="273.03" x2="42.99" y2="235.22" xlink:href="#linear-gradient"/><linearGradient id="linear-gradient-10" x1="51.88" y1="282.1" x2="89.72" y2="244.27" xlink:href="#linear-gradient"/><linearGradient id="linear-gradient-11" x1="101.32" y1="285.47" x2="140.99" y2="245.79" xlink:href="#linear-gradient"/><linearGradient id="linear-gradient-12" x1="153.16" y1="282.1" x2="191" y2="244.27" xlink:href="#linear-gradient"/><linearGradient id="linear-gradient-13" x1="195.16" y1="277.57" x2="223.84" y2="248.89" xlink:href="#linear-gradient"/><linearGradient id="linear-gradient-14" x1="27.39" y1="132.9" x2="187.84" y2="-27.55" xlink:href="#linear-gradient"/></defs><title>yoroi logo</title><g id="tick"><g id="wallet-2" data-name="wallet"><polygon class="cls-25" points="88.47 306.1 85 315.75 81.86 306.1 80.04 306.1 76.94 315.76 73.56 306.1 71.4 306.1 76.15 319.52 77.88 319.52 80.97 309.89 84.1 319.52 85.82 319.52 90.58 306.1 88.47 306.1"/><path class="cls-26" d="M102.74,306.1v1.74a6.8,6.8,0,0,0-1.22-1,5.87,5.87,0,0,0-3.17-.86,6.37,6.37,0,0,0-4.85,2,6.78,6.78,0,0,0-1.88,4.92,6.29,6.29,0,0,0,1.95,4.86,6.77,6.77,0,0,0,4.74,1.83,6,6,0,0,0,4.43-1.74v1.66h2V306.1Zm-4.43,11.5a5.12,5.12,0,0,1-1.88-.33,4.06,4.06,0,0,1-1.46-1,4.31,4.31,0,0,1-1.22-2.36,5.37,5.37,0,0,1-.08-1A4.88,4.88,0,0,1,95,309.36,4.54,4.54,0,0,1,98.35,308a4.3,4.3,0,0,1,1.79.35,3.76,3.76,0,0,1,1.38,1,4.85,4.85,0,0,1,.53.75,5.47,5.47,0,0,1,.69,2.79,4.72,4.72,0,0,1-1.27,3.43A4.31,4.31,0,0,1,98.31,317.6Z"/><rect class="cls-27" x="115.26" y="299.74" width="2" height="19.74"/><rect class="cls-28" x="108.85" y="299.74" width="2" height="19.74"/><rect class="cls-29" x="3.49" y="308.79" width="54.19" height="2.29"/><rect class="cls-30" x="155.47" y="308.79" width="56.44" height="2.29"/><path class="cls-31" d="M127.19,319.64a6.26,6.26,0,0,1-6.06-4.07,7.76,7.76,0,0,1-.46-2.7,7.85,7.85,0,0,1,.44-2.68,6.38,6.38,0,0,1,1.36-2.2,5.92,5.92,0,0,1,4.48-1.93,6.83,6.83,0,0,1,1.3.12,5.11,5.11,0,0,1,1.17.35,5.29,5.29,0,0,1,1.92,1.38,6.09,6.09,0,0,1,1.72,4.59,1.57,1.57,0,0,1-.11.79l-.15.31h-10a5.07,5.07,0,0,0,1.26,2.76,4.07,4.07,0,0,0,3.07,1.28,4.49,4.49,0,0,0,3.74-1.78l.37-.47,1.52,1.32-.34.43A6.33,6.33,0,0,1,127.19,319.64Zm-4.32-8H131a4.6,4.6,0,0,0-1.15-2.55,3.65,3.65,0,0,0-2.78-1.12,4.08,4.08,0,0,0-2.93,1.19A4.22,4.22,0,0,0,122.87,311.65Z"/><path class="cls-32" d="M140.08,319.6a3.1,3.1,0,0,1-2.72-1.1,4.83,4.83,0,0,1-.73-2.9v-7.54h-1.72v-2h1.72v-4.31l2-.19v4.54h4.8v2h-4.8v7.18a4.13,4.13,0,0,0,.33,2c.06.11.26.45,1.11.45a3.73,3.73,0,0,0,2.18-.68l.64-.43.61,2-.41.22A6.13,6.13,0,0,1,140.08,319.6Z"/></g><polygon class="cls-33" points="39.78 236.38 24.03 261.81 8.6 236.66 8.43 236.38 4.06 236.38 22.23 265.83 22.23 290.07 25.9 290.07 25.9 265.83 44.16 236.38 39.78 236.38"/><path class="cls-34" d="M89.06,243.62A24.33,24.33,0,0,0,70.85,236a24.15,24.15,0,0,0-18.51,7.84c-4.78,5.15-7.21,11.64-7.21,19.3a27.7,27.7,0,0,0,7.21,19.39,24.15,24.15,0,0,0,18.51,7.84,24.45,24.45,0,0,0,18.21-7.62c4.87-5.07,7.34-11.66,7.34-19.61S93.93,248.69,89.06,243.62Zm3.58,19.57c0,6.87-2.12,12.57-6.31,16.93a20.53,20.53,0,0,1-15.44,6.54,20.69,20.69,0,0,1-15.8-6.74,24.23,24.23,0,0,1-6.16-16.73,23.81,23.81,0,0,1,6.16-16.65,20.53,20.53,0,0,1,15.8-6.7,20.23,20.23,0,0,1,15.44,6.5C90.52,250.66,92.64,256.33,92.64,263.19Z"/><path class="cls-35" d="M125.77,267.89a16.41,16.41,0,0,0,10.08-4.34c2.76-2.66,4.16-6.53,4.16-11.49,0-4.72-1.4-8.56-4.15-11.39s-6.94-4.29-12.44-4.29h-17.5v53.69h3.71V268h11.75l15.27,22.08h4.54ZM136.21,252c0,8.28-4.55,12.31-13.91,12.31H109.59V240.14h14c4,0,7.09,1,9.33,3S136.21,248,136.21,252Z"/><path class="cls-36" d="M190.34,243.62a25.67,25.67,0,0,0-36.72.22c-4.78,5.15-7.2,11.64-7.2,19.3s2.42,14.19,7.2,19.39a24.15,24.15,0,0,0,18.51,7.84,24.45,24.45,0,0,0,18.21-7.62c4.87-5.07,7.34-11.66,7.34-19.61S195.21,248.69,190.34,243.62Zm3.58,19.57c0,6.87-2.12,12.57-6.31,16.93a21.69,21.69,0,0,1-31.24-.2,24.28,24.28,0,0,1-6.16-16.73,23.72,23.72,0,0,1,6.16-16.65,20.53,20.53,0,0,1,15.8-6.7,20.23,20.23,0,0,1,15.44,6.5C191.8,250.66,193.92,256.33,193.92,263.19Z"/><path class="cls-37" d="M211.33,290.07h-3.67V236.38h3.67Z"/><path class="cls-38" d="M166.41,146.46l-17.07,11.85L23.64,71.45c0-.17,0-.34-.05-.51V63.19q0-3.77,0-7.53V47.77ZM131.33,34.36c-7.59,5.2-15.25,10.3-22.84,15.5a2.05,2.05,0,0,1-2.76,0c-9.38-6.53-18.81-13-28.2-19.48Q62.71,20.09,47.91,9.74L33.9,0H0C1.8,1.26,3.28,2.32,4.77,3.35L31.34,21.77q13.14,9.14,26.27,18.28c8.24,5.73,16.46,11.49,24.71,17.21C90.15,62.69,98,68.06,105.83,73.5a1.72,1.72,0,0,0,2.31,0c6.32-4.33,12.71-8.59,19-12.92q23.48-16.09,46.92-32.23L208.22,5c2.36-1.61,4.71-3.25,7.17-5h-34Q156.35,17.17,131.33,34.36ZM23.77,105.54a2.54,2.54,0,0,0-.18.45v14.24c0,2.84,0,5.68,0,8.51a1.35,1.35,0,0,0,.12.5l83.9,58,.08,0,17.07-11.84ZM191.38,47.82,128.94,91a5.47,5.47,0,0,0,.66.74q7.92,5.61,15.85,11.17a.92.92,0,0,0,.57.1l45.21-31.3a1.73,1.73,0,0,0,.15-.42Zm.05,58.63c-7.09,4.89-13.93,9.62-20.85,14.41l16.22,11.5,4.63-3.21Z"/></g></svg>