<?xml version="1.0" encoding="utf-8"?>
<!-- Generator: Adobe Illustrator 16.0.0, SVG Export Plug-In . SVG Version: 6.00 Build 0)  -->
<!DOCTYPE svg PUBLIC "-//W3C//DTD SVG 1.1//EN" "http://www.w3.org/Graphics/SVG/1.1/DTD/svg11.dtd">
<svg version="1.1" id="Layer_1" xmlns="http://www.w3.org/2000/svg" xmlns:xlink="http://www.w3.org/1999/xlink" x="0px" y="0px"
	 width="500px" height="436.249px" viewBox="0 0 500 436.249" enable-background="new 0 0 500 436.249" xml:space="preserve">
<path fill-rule="evenodd" clip-rule="evenodd" fill="#FFFFFF" d="M387.684,341.635l-39.621,27.507
	C250.738,301.89,153.704,234.836,56.273,167.506c-0.053-0.389-0.081-0.783-0.117-1.176v-17.983c0.029-5.825,0.018-11.653,0-17.479
	v-18.33C166.967,189.113,277.115,265.229,387.684,341.635z M306.252,81.415c-17.614,12.069-35.393,23.904-53.004,35.979
	c-2.383,1.623-4.013,1.663-6.406,0c-21.772-15.146-43.664-30.11-65.459-45.225c-22.956-15.914-45.838-31.939-68.771-47.901
	C101.777,16.725,90.936,9.191,80.099,1.652H1.396c4.175,2.932,7.617,5.379,11.081,7.779c20.552,14.26,41.124,28.496,61.668,42.762
	c20.342,14.127,40.666,28.274,60.989,42.424c19.125,13.313,38.208,26.677,57.353,39.949c18.177,12.604,36.434,25.084,54.59,37.715
	c1.996,1.388,3.356,1.354,5.343,0c14.688-10.069,29.513-19.939,44.203-30.004c36.333-24.904,72.607-49.894,108.923-74.818
	c26.395-18.111,52.815-36.179,79.216-54.283c5.46-3.744,10.919-7.557,16.636-11.523h-79.018
	C383.671,28.239,344.985,54.865,306.252,81.415z M56.58,246.655c-0.28,0.691-0.415,0.869-0.415,1.05
	c-0.004,3.678-0.005,7.356-0.009,11.034v22.011c0.005,6.589,0.009,13.175,0.037,19.761c0.002,0.356,0.126,0.756,0.295,1.147
	c64.831,44.803,129.651,89.597,194.764,134.591c0.061-0.006,0.124-0.039,0.186-0.049l39.623-27.507
	C212.619,354.484,134.652,300.607,56.58,246.655z M445.656,112.654c-48.682,33.703-96.719,66.96-144.948,100.346
	c0.726,0.811,1.061,1.357,1.544,1.701c12.239,8.679,24.48,17.357,36.788,25.945c0.298,0.208,0.812,0.267,1.327,0.224
	c34.952-24.197,69.836-48.346,104.945-72.651c0.158-0.299,0.252-0.637,0.344-0.976V112.654z M445.766,248.756
	c-16.447,11.366-32.32,22.337-48.399,33.449c12.827,9.099,25.251,17.912,37.655,26.71l10.744-7.458V248.756z"/>
</svg>
