<svg xmlns="http://www.w3.org/2000/svg" xmlns:xlink="http://www.w3.org/1999/xlink" viewBox="0 0 737.14 205.55"><defs><style>.cls-1,.cls-2{fill:none;}.cls-1{clip-rule:evenodd;}.cls-3{clip-path:url(#clip-path);}.cls-4{clip-path:url(#clip-path-2);}.cls-5{clip-path:url(#clip-path-3);}.cls-6{clip-path:url(#clip-path-4);}.cls-7{clip-path:url(#clip-path-5);}.cls-8{clip-path:url(#clip-path-6);}.cls-9{clip-path:url(#clip-path-7);}.cls-10{clip-path:url(#clip-path-8);}.cls-11{clip-path:url(#clip-path-9);}.cls-12{clip-path:url(#clip-path-10);}.cls-13{clip-path:url(#clip-path-11);}.cls-14{clip-path:url(#clip-path-12);}.cls-15{clip-path:url(#clip-path-13);}.cls-16{clip-path:url(#clip-path-14);}.cls-17{clip-path:url(#clip-path-15);}.cls-18{clip-path:url(#clip-path-16);}.cls-19{clip-path:url(#clip-path-17);}.cls-20{clip-path:url(#clip-path-18);}.cls-21{clip-path:url(#clip-path-19);}.cls-22{clip-path:url(#clip-path-20);}.cls-23{clip-path:url(#clip-path-21);}.cls-24{clip-path:url(#clip-path-22);}.cls-25{fill:url(#linear-gradient);}.cls-26{fill:url(#linear-gradient-2);}.cls-27{fill:url(#linear-gradient-3);}.cls-28{fill:url(#linear-gradient-4);}.cls-29{fill:url(#linear-gradient-5);}.cls-30{fill:url(#linear-gradient-6);}.cls-31{fill:url(#linear-gradient-7);}.cls-32{fill:url(#linear-gradient-8);}.cls-33{fill:url(#linear-gradient-9);}.cls-34{fill:url(#linear-gradient-10);}.cls-35{fill:url(#linear-gradient-11);}.cls-36{fill:url(#linear-gradient-12);}.cls-37{fill:url(#linear-gradient-13);}.cls-38{fill:url(#linear-gradient-14);}</style><clipPath id="clip-path"><path class="cls-1" d="M-959-3203.9l-2.49,31.2-2.37,29.69-2.43,30.45a2.93,2.93,0,0,0,.21,1.91C-819-2983.91-673-2857.25-526.25-2730.54l67.13-41.55C-625.89-2915.91-792-3059.3-959-3203.9Z"/></clipPath><clipPath id="clip-path-2"><path class="cls-1" d="M-570-3235c-28.29,21.3-56.57,41.83-84.86,63.13-3.89,2.71-6.36,3.1-10.25,0-34.65-26.33-69.65-52.67-104.65-79-36.42-28.27-72.84-56.54-109.61-84.42l-52-39.51H-1057.2c6.72,5,12,9.3,17.68,13.56,32.88,24.78,65.76,50,98.64,74.74l97.59,74.36c30.4,23.24,61.16,46.87,91.57,70.1,29,22.08,58.34,43.77,87.33,66.23,3.18,2.32,5.3,2.32,8.48,0,23.34-17.81,47-34.86,70.71-52.67q87-65.64,174-130.91c42.07-31.75,84.5-63.51,126.57-94.88,8.84-6.59,17.32-13.17,26.52-20.14H-384.37C-446.25-3328.3-507.77-3281.44-570-3235Z"/></clipPath><clipPath id="clip-path-3"><path class="cls-1" d="M-976.59-2964.69a19.59,19.59,0,0,0-.7,1.91v91.39c0,.76.35,1.15.35,1.91,102.88,77.62,205.75,154.86,309.33,232.86h.35l62.85-48.18C-729-2778.48-852.65-2871.39-976.59-2964.69Z"/></clipPath><clipPath id="clip-path-4"><path class="cls-1" d="M-338.42-3183.4c-80.39,57.31-159.69,114.26-239.35,171.2a24.17,24.17,0,0,0,2.56,3c20.1,14.71,40.56,29.42,60.66,44.12.36.38,1.46.38,2.19.38,57.73-41.1,115.47-82.58,173.57-123.69.37-.37.37-1.13.73-1.5v-93.52Z"/></clipPath><clipPath id="clip-path-5"><path class="cls-1" d="M-338.06-2964.69c-27,20.51-53.27,40.61-79.9,60.71,21.16,16.48,41.59,32.57,62,48.65l17.88-13.67Z"/></clipPath><clipPath id="clip-path-6"><polygon class="cls-2" points="280.51 -3341.97 306.34 -3341.97 154.56 -3097.16 154.56 -2893.94 132.98 -2893.94 132.98 -3097.16 -18.09 -3341.97 7.74 -3341.97 142.89 -3121.6 143.95 -3121.6 280.51 -3341.97"/></clipPath><clipPath id="clip-path-7"><path class="cls-2" d="M543-2913.28c53.42,0,98.71-19,135.15-57.28q55.19-57.46,55.19-147.76c0-60.2-18.4-109.09-55.19-147-36.44-38.31-81.37-56.92-135.15-56.92-56.25,0-102.6,19.71-138.33,58.74s-53.78,87.57-53.78,145.21,18,106.17,53.78,145.94C440.78-2933.35,486.78-2913.28,543-2913.28Zm-.36,21.89q-94.45,0-154.25-65.31-60-65.12-60.14-162c0-63.85,19.81-117.85,60.14-161.26q60-65.13,154.25-65.31,90.75,0,151.78,63.48t61.21,163.09c0,66.76-20.52,121.49-61.21,163.81Q632.89-2891.39,542.67-2891.39Z"/></clipPath><clipPath id="clip-path-8"><path class="cls-2" d="M868.16-3319.71v216H981.38q123.64,0,123.47-109.81c0-35.39-9.9-62-29.72-79.54s-47.4-26.63-82.78-26.63Zm265,425.77h-26.89L976.07-3082.2H868.52v188.26H846.58v-448H990.93c45.64,0,80,11.68,102.6,35s34,54.72,34,93.76c0,41.23-11.33,72.6-34,94.5-22.64,21.52-52.36,33.93-89.51,36.11l-.71,1.83Z"/></clipPath><clipPath id="clip-path-9"><path class="cls-2" d="M1406.64-2913.28c53.42,0,98.71-19,135.15-57.28Q1597-3028,1597-3118.32c0-60.2-18.4-109.09-55.19-147-36.44-38.31-81.38-56.92-135.15-56.92-56.26,0-102.6,19.71-138.34,58.74-36.08,39-53.77,87.57-53.77,145.21s18,106.17,53.77,145.94C1304.39-2933.35,1350.38-2913.28,1406.64-2913.28Zm-.36,21.89q-94.46,0-154.25-65.31-60-65.12-60.14-162c0-63.85,19.81-117.85,60.14-161.26q60-65.13,154.25-65.31,90.75,0,151.78,63.48t61.21,163.09c0,66.76-20.52,121.49-61.21,163.81Q1496.5-2891.39,1406.28-2891.39Z"/></clipPath><clipPath id="clip-path-10"><rect class="cls-2" x="1714.08" y="-3341.97" width="21.58" height="448.02"/></clipPath><clipPath id="clip-path-11"><polygon class="cls-2" points="709.58 -2691.74 717.27 -2691.74 680.18 -2587.09 672.49 -2587.09 642.4 -2679.57 642.05 -2679.57 612.31 -2587.09 604.61 -2587.09 567.52 -2691.74 575.57 -2691.74 608.11 -2598.91 637.85 -2691.74 646.25 -2691.74 676.34 -2599.26 709.58 -2691.74"/></clipPath><clipPath id="clip-path-12"><path class="cls-2" d="M790.05-2593.69c12.24,0,22.39-4.18,30.44-12.17,8-8.35,12.24-19.13,12.24-32.68q0-19.83-11.54-33.38c-7.7-9-18.2-13.56-30.79-13.56a43.47,43.47,0,0,0-31.84,13.21c-8.75,8.69-12.95,20.17-12.95,34.07,0,12.87,4.2,23.64,12.6,32C766.26-2597.87,777.1-2593.69,790.05-2593.69Zm42.68-98h7.35v104.65h-7.35v-23.29h-.35c-9.09,16-23.44,24-42.33,24-14.7,0-26.94-4.87-37.09-14.26s-15-22.25-15-37.89,4.89-28.51,14.69-38.6c9.8-10.43,22.39-15.29,37.79-15.29a45.41,45.41,0,0,1,24.49,6.6,48.26,48.26,0,0,1,17.49,18.08h.35Z"/></clipPath><clipPath id="clip-path-13"><rect class="cls-2" x="884.86" y="-2745.97" width="7.34" height="158.54"/></clipPath><clipPath id="clip-path-14"><rect class="cls-2" x="939.45" y="-2745.97" width="7.34" height="158.54"/></clipPath><clipPath id="clip-path-15"><path class="cls-2" d="M1035.67-2685.48a39.82,39.82,0,0,0-28.35,11.47c-8,7.65-12.59,17.39-13.29,29.56h80.47c-.7-12.52-4.55-22.26-11.54-29.9C1055.61-2682,1046.51-2685.48,1035.67-2685.48ZM1081.5-2642c0,2.43,0,3.82-.35,4.52H993.33c.7,12.51,4.9,23.29,12.59,31.64,8.05,8.34,17.85,12.51,29.75,12.51,14.69,0,26.59-5.56,35.68-17l5.6,4.86c-10.15,12.87-23.44,19.47-40.58,19.47-14.7,0-26.6-4.86-36.39-14.6-9.45-9.73-14.35-22.6-14.35-38.24s4.55-28.16,14-38.25,21-15,34.64-15c14.34,0,25.54,4.87,33.93,14.26C1077.3-2669.14,1081.5-2657,1081.5-2642Z"/></clipPath><clipPath id="clip-path-16"><path class="cls-2" d="M1146.23-2586.39c-9.1,0-15.75-2.44-19.25-7.3s-5.25-12.17-5.25-21.91v-69.18H1107v-7h14.69v-37.2l7-.69v38.24h40.94v6.95h-40.94v66.06c0,8.69,1,15,3.5,19.12s7,6.26,13.65,6.26a36.83,36.83,0,0,0,21.34-6.61l2.1,7A47.85,47.85,0,0,1,1146.23-2586.39Z"/></clipPath><clipPath id="clip-path-17"><polygon class="cls-2" points="460.32 -638.97 462.39 -638.97 452.42 -610.85 450.35 -610.85 442.26 -635.7 442.17 -635.7 434.18 -610.85 432.11 -610.85 422.14 -638.97 424.3 -638.97 433.05 -614.02 441.04 -638.97 443.3 -638.97 451.38 -614.12 460.32 -638.97"/></clipPath><clipPath id="clip-path-18"><path class="cls-2" d="M481.94-612.62a11.16,11.16,0,0,0,8.18-3.27,12.1,12.1,0,0,0,3.3-8.79,13.36,13.36,0,0,0-3.11-9,10.4,10.4,0,0,0-8.27-3.64,11.66,11.66,0,0,0-8.56,3.55,12.37,12.37,0,0,0-3.48,9.16,11.64,11.64,0,0,0,3.39,8.59A11.4,11.4,0,0,0,481.94-612.62ZM493.42-639h2v28.12h-2v-6.26h-.1a12.26,12.26,0,0,1-11.38,6.45,14.11,14.11,0,0,1-10-3.83c-2.73-2.52-4.05-6-4.05-10.19A14.28,14.28,0,0,1,471.88-635,13.26,13.26,0,0,1,482-639.16a12.15,12.15,0,0,1,6.58,1.78,13,13,0,0,1,4.7,4.86h.1Z"/></clipPath><clipPath id="clip-path-19"><rect class="cls-2" x="507.43" y="-653.55" width="1.97" height="42.61"/></clipPath><clipPath id="clip-path-20"><rect class="cls-2" x="522.09" y="-653.55" width="1.97" height="42.61"/></clipPath><clipPath id="clip-path-21"><path class="cls-2" d="M548-637.29a10.71,10.71,0,0,0-7.61,3.08,11.41,11.41,0,0,0-3.58,8h21.63a12.44,12.44,0,0,0-3.1-8A9.68,9.68,0,0,0,548-637.29Zm12.32,11.68a3.64,3.64,0,0,1-.09,1.21H536.57a13.34,13.34,0,0,0,3.39,8.51,10.62,10.62,0,0,0,8,3.36,11.59,11.59,0,0,0,9.59-4.58l1.51,1.31a13.14,13.14,0,0,1-10.91,5.23,13.24,13.24,0,0,1-9.78-3.92,14.23,14.23,0,0,1-3.85-10.28A14.31,14.31,0,0,1,538.27-635a12.23,12.23,0,0,1,9.31-4,11.61,11.61,0,0,1,9.12,3.84C559.14-632.9,560.27-629.63,560.27-625.61Z"/></clipPath><clipPath id="clip-path-22"><path class="cls-2" d="M577.67-610.66c-2.45,0-4.24-.66-5.18-2a10.09,10.09,0,0,1-1.41-5.89V-637.1h-4V-639h4v-10l1.88-.19v10.28h11V-637H573v17.75a10.51,10.51,0,0,0,.94,5.14c.66,1.12,1.89,1.68,3.67,1.68a9.94,9.94,0,0,0,5.74-1.77l.56,1.87A12.92,12.92,0,0,1,577.67-610.66Z"/></clipPath><linearGradient id="linear-gradient" x1="430.39" y1="200.55" x2="461.36" y2="169.57" gradientUnits="userSpaceOnUse"><stop offset="0" stopColor="#1a44b7"/><stop offset="1" stopColor="#4760ff"/></linearGradient><linearGradient id="linear-gradient-2" x1="475.55" y1="203.11" x2="500.98" y2="177.68" xlink:href="#linear-gradient"/><linearGradient id="linear-gradient-3" x1="512.25" y1="195.32" x2="536.43" y2="171.14" xlink:href="#linear-gradient"/><linearGradient id="linear-gradient-4" x1="498" y1="195.32" x2="522.19" y2="171.14" xlink:href="#linear-gradient"/><linearGradient id="linear-gradient-5" x1="302.32" y1="215.36" x2="365.14" y2="152.53" xlink:href="#linear-gradient"/><linearGradient id="linear-gradient-6" x1="641.69" y1="216.61" x2="707.01" y2="151.28" xlink:href="#linear-gradient"/><linearGradient id="linear-gradient-7" x1="538" y1="201.09" x2="558.78" y2="180.31" xlink:href="#linear-gradient"/><linearGradient id="linear-gradient-8" x1="564.97" y1="196.8" x2="585.49" y2="176.29" xlink:href="#linear-gradient"/><linearGradient id="linear-gradient-9" x1="273.76" y1="87.28" x2="357.88" y2="3.17" xlink:href="#linear-gradient"/><linearGradient id="linear-gradient-10" x1="377.65" y1="107.48" x2="461.83" y2="23.3" xlink:href="#linear-gradient"/><linearGradient id="linear-gradient-11" x1="487.64" y1="114.97" x2="575.91" y2="26.7" xlink:href="#linear-gradient"/><linearGradient id="linear-gradient-12" x1="602.99" y1="107.48" x2="687.16" y2="23.3" xlink:href="#linear-gradient"/><linearGradient id="linear-gradient-13" x1="696.41" y1="97.39" x2="760.22" y2="33.58" xlink:href="#linear-gradient"/><linearGradient id="linear-gradient-14" x1="27.39" y1="132.9" x2="187.84" y2="-27.55" xlink:href="#linear-gradient"/></defs><title>yoroi logo</title><g id="tick"><g id="wallet-2" data-name="wallet"><polygon class="cls-25" points="462.51 175.42 454.79 196.9 447.8 175.42 443.76 175.42 436.87 196.92 429.34 175.42 424.54 175.42 435.12 205.27 438.95 205.27 445.83 183.86 452.8 205.27 456.63 205.27 467.21 175.42 462.51 175.42"/><path class="cls-26" d="M494.26,175.42v3.87a14.32,14.32,0,0,0-2.71-2.13,13.08,13.08,0,0,0-7.06-1.92,14.16,14.16,0,0,0-10.77,4.38,15.13,15.13,0,0,0-4.2,11c0,4.51,1.46,8.16,4.34,10.82a15,15,0,0,0,10.54,4,13.41,13.41,0,0,0,9.86-3.85v3.67h4.47V175.42ZM484.4,201a11.47,11.47,0,0,1-4.17-.73,8.94,8.94,0,0,1-3.24-2.17,9.61,9.61,0,0,1-2.73-5.25,13,13,0,0,1-.18-2.19,10.8,10.8,0,0,1,3-8,10.06,10.06,0,0,1,7.41-3.08,9.83,9.83,0,0,1,4,.78,8.51,8.51,0,0,1,3.08,2.31,12.1,12.1,0,0,1,1.18,1.68,12.34,12.34,0,0,1,1.52,6.21,10.43,10.43,0,0,1-2.83,7.63A9.6,9.6,0,0,1,484.4,201Z"/><rect class="cls-27" x="522.11" y="161.27" width="4.46" height="43.91"/><rect class="cls-28" x="507.87" y="161.27" width="4.46" height="43.91"/><rect class="cls-29" x="273.45" y="181.4" width="120.57" height="5.08"/><rect class="cls-30" x="611.57" y="181.4" width="125.57" height="5.08"/><path class="cls-31" d="M548.67,205.55a13.92,13.92,0,0,1-13.48-9.05,17.08,17.08,0,0,1-1-6,17.39,17.39,0,0,1,1-6,14.23,14.23,0,0,1,3-4.88,13.17,13.17,0,0,1,10-4.31,15.77,15.77,0,0,1,2.89.26,13.06,13.06,0,0,1,2.62.79,12,12,0,0,1,4.26,3.06c2.54,2.45,3.83,5.89,3.83,10.23a3.69,3.69,0,0,1-.23,1.75l-.36.7H538.84a11.22,11.22,0,0,0,2.82,6.12,9,9,0,0,0,6.82,2.86,10,10,0,0,0,8.32-4l.83-1L561,199l-.75.95A14.12,14.12,0,0,1,548.67,205.55ZM539,187.76h18.18a10.28,10.28,0,0,0-2.55-5.67,8.14,8.14,0,0,0-6.19-2.49,9.1,9.1,0,0,0-6.51,2.64A9.56,9.56,0,0,0,539,187.76Z"/><path class="cls-32" d="M577.33,205.45c-3.55,0-5.25-1.32-6.05-2.43-1.08-1.51-1.61-3.62-1.61-6.46V179.78h-3.83v-4.36h3.83v-9.58l4.37-.44v10.12h10.68v4.35H574v16a9,9,0,0,0,.74,4.34c.14.25.59,1,2.46,1a8.34,8.34,0,0,0,4.86-1.51l1.43-1,1.34,4.46-.9.49A13.72,13.72,0,0,1,577.33,205.45Z"/></g><polygon class="cls-33" points="350.74 5.77 315.68 62.34 281.36 6.37 280.99 5.77 271.26 5.77 311.68 71.27 311.68 125.21 319.86 125.21 319.86 71.28 360.47 5.77 350.74 5.77"/><path class="cls-34" d="M460.37,21.86C449.56,10.61,435.92,4.91,419.85,4.91c-16.66,0-30.52,5.87-41.18,17.45s-16,25.89-16,42.94,5.39,31.57,16,43.12,24.52,17.45,41.18,17.45c16,0,29.61-5.7,40.52-17S476.7,83,476.7,65.3,471.21,33.13,460.37,21.86Zm8,43.53c0,15.3-4.73,28-14,37.68S433.55,117.62,420,117.62c-14.12,0-25.95-5.05-35.15-15C375.7,92.5,371.09,80,371.09,65.39s4.61-27.1,13.7-37S405.68,13.45,420,13.45c13.85,0,25.09,4.73,34.34,14.46S468.34,50.13,468.34,65.39Z"/><path class="cls-35" d="M542.05,75.86c9-.85,16.57-4.09,22.42-9.65,6.13-5.93,9.25-14.54,9.25-25.57,0-10.51-3.11-19-9.22-25.35s-15.45-9.52-27.69-9.52H497.88V125.21h8.26V76.09h26.13l34,49.12h10.11Zm23.22-35.31c0,18.42-10.13,27.38-30.95,27.38H506.05V14.11h31.13c8.8,0,15.78,2.24,20.76,6.64S565.27,31.7,565.27,40.55Z"/><path class="cls-36" d="M685.71,21.86C674.89,10.61,661.26,4.91,645.19,4.91c-16.67,0-30.52,5.87-41.18,17.45s-16,25.9-16,42.94,5.4,31.57,16,43.12,24.52,17.45,41.19,17.45c16,0,29.61-5.7,40.52-17S702,83,702,65.3,696.54,33.13,685.71,21.86Zm8,43.53c0,15.3-4.72,28-14,37.68-9.18,9.66-20.73,14.55-34.34,14.55-14.12,0-25.95-5.05-35.15-15C601,92.5,596.43,80,596.43,65.39c0-14.74,4.6-27.19,13.69-37S631,13.45,645.28,13.45c13.86,0,25.09,4.73,34.35,14.46S693.67,50.13,693.67,65.39Z"/><path class="cls-37" d="M732.4,125.21h-8.17V5.77h8.17Z"/><path class="cls-38" d="M166.41,146.46l-17.07,11.85L23.64,71.45c0-.17,0-.34-.05-.51V63.19q0-3.77,0-7.53V47.77ZM131.33,34.36c-7.59,5.2-15.25,10.3-22.84,15.5a2.05,2.05,0,0,1-2.76,0c-9.38-6.53-18.81-13-28.2-19.48Q62.71,20.09,47.91,9.74L33.9,0H0C1.8,1.26,3.28,2.32,4.77,3.35L31.34,21.77q13.14,9.14,26.27,18.28c8.24,5.73,16.46,11.49,24.71,17.21C90.15,62.69,98,68.06,105.83,73.5a1.72,1.72,0,0,0,2.31,0c6.32-4.33,12.71-8.59,19-12.92q23.48-16.09,46.92-32.23L208.22,5c2.36-1.61,4.71-3.25,7.17-5h-34Q156.35,17.17,131.33,34.36ZM23.77,105.54a2.54,2.54,0,0,0-.18.45v14.24c0,2.84,0,5.68,0,8.51a1.35,1.35,0,0,0,.12.5l83.9,58,.08,0,17.07-11.84ZM191.38,47.82,128.94,91a5.47,5.47,0,0,0,.66.74q7.92,5.61,15.85,11.17a.92.92,0,0,0,.57.1l45.21-31.3a1.73,1.73,0,0,0,.15-.42Zm.05,58.63c-7.09,4.89-13.93,9.62-20.85,14.41l16.22,11.5,4.63-3.21Z"/></g></svg>