<svg id="ed70b059-1a73-456f-b183-e4d156c910c7" data-name="Layer 1" xmlns="http://www.w3.org/2000/svg" xmlns:xlink="http://www.w3.org/1999/xlink" viewBox="0 0 720 307"><defs><style>.ab184cb2-2404-4ca1-bb88-d3a190bd1011,.baad2569-9728-4209-a4f9-6270afb1cbce,.f3af89a9-94e0-47cd-9cb4-a40a714745d0{fill:#2c2ecf;}.ab184cb2-2404-4ca1-bb88-d3a190bd1011{clipRule:evenodd;}.babe9287-4690-4bdb-90e4-84d1298a3aba,.bb4a79cc-a9de-44f0-a530-4f937d6f2c09,.ee1a8b35-8696-4463-8a9b-f218ebb003ca,.fd5cef0f-9376-44d5-be8e-fd17f5619d38{fill:#fff;}.ee1a8b35-8696-4463-8a9b-f218ebb003ca,.f7c1f113-de48-41d3-8ef6-b1f641363ada{stroke:#fff;stroke-miterlimit:10;}.baad2569-9728-4209-a4f9-6270afb1cbce{fillRule:evenodd;}.e4dccaaf-2876-4999-9318-0b67e74c3350{clip-path:url(#bc4eac50-610b-4df8-a51d-91c345804e9b);}.f0978946-f96c-4e67-a910-8f57a21f9ffe{clip-path:url(#e893ac26-a355-4b04-9311-d02c4302fcca);}.b674f024-472b-4347-8418-5ac07a663aae{clip-path:url(#a4a485ac-5a0c-4d69-b2e2-9ecbc2cc1e08);}.ba983f1f-da4f-4704-adaf-dc15ae057f2b{clip-path:url(#b6fa725b-7ca0-4669-bbe2-5fb523a669b1);}.b874c36b-b27e-46e1-9b69-43601bd115de{fill:url(#ba59347a-b5ad-402f-ac74-57331573b3f4);}.e98b877d-8d96-4af1-b850-462fca1d0920{fill:#0d1ca0;}.a95b1918-3b48-48f1-b11c-c1f9a16f9fb1{clip-path:url(#a86ea040-1b9e-44aa-bd0b-569233214556);}.f7c1f113-de48-41d3-8ef6-b1f641363ada{fill:none;}.fd5cef0f-9376-44d5-be8e-fd17f5619d38{font-size:19px;font-family:Roboto-Medium, Roboto;font-weight:500;letter-spacing:-0.0025em;}.ae11e24b-376d-43a3-b695-5b647a53d0c8{letter-spacing:0.02em;}.e6005010-303d-4d06-bff5-db2df2588944{letter-spacing:0.0103em;}.bfd0207c-3fbb-477f-ab3a-de306d99b433{letter-spacing:0.0136em;}.bb4a79cc-a9de-44f0-a530-4f937d6f2c09{font-size:18px;font-family:MuseoSansCyrl-700, Museo Sans Cyrl;font-weight:700;letter-spacing:0.22em;}.a8212521-35ad-4848-b115-e7de44006473{letter-spacing:0.26em;}.bd02e922-9ed7-49c0-be15-a6330c2a9bd8{fill:url(#fb71696c-25ad-4ed3-9d15-31ff71d18adb);}</style><clipPath id="bc4eac50-610b-4df8-a51d-91c345804e9b"><path class="ab184cb2-2404-4ca1-bb88-d3a190bd1011" d="M357.9753,1477.9075l8.0931-10.3368a.7007.7007,0,0,0-.5518-1.1327h-6.3649v-11.4543s-.028-2.13-1.7434-2.13q-1.8261,0-1.8261,2.13v11.4543h-5.8207a.7007.7007,0,0,0-.5629,1.118l7.662,10.3368a.7007.7007,0,0,0,1.1147.0147Z"/></clipPath><clipPath id="e893ac26-a355-4b04-9311-d02c4302fcca"><path class="ab184cb2-2404-4ca1-bb88-d3a190bd1011" d="M357.9753,731.6989l8.0931-10.3368a.7008.7008,0,0,0-.5518-1.1327h-6.3649V708.7751s-.028-2.13-1.7434-2.13q-1.8261,0-1.8261,2.13v11.4543h-5.8207a.7007.7007,0,0,0-.5629,1.118l7.662,10.3368a.7007.7007,0,0,0,1.1147.0147Z"/></clipPath><clipPath id="a4a485ac-5a0c-4d69-b2e2-9ecbc2cc1e08"><path class="ab184cb2-2404-4ca1-bb88-d3a190bd1011" d="M357.9753,56.1612l8.0931-10.3368a.7008.7008,0,0,0-.5518-1.1328h-6.3649V33.2374s-.028-2.1305-1.7434-2.1305q-1.8261,0-1.8261,2.1305V44.6916h-5.8207a.7008.7008,0,0,0-.5629,1.1181l7.662,10.3368a.7007.7007,0,0,0,1.1147.0147Z"/></clipPath><clipPath id="b6fa725b-7ca0-4669-bbe2-5fb523a669b1"><rect class="f3af89a9-94e0-47cd-9cb4-a40a714745d0" x="-1095.9919" y="-1513.2263" width="3363.5487" height="2391.8573"/></clipPath><linearGradient id="ba59347a-b5ad-402f-ac74-57331573b3f4" x1="-5315.5712" y1="-1047.5975" x2="-5322.2037" y2="-1042.6633" gradientTransform="matrix(0, -29.6032, -88.8056, 0, -92496.7601, -157296.0172)" gradientUnits="userSpaceOnUse"><stop offset="0" stopColor="#17d1aa"/><stop offset="0.5834" stopColor="#229db7"/><stop offset="1" stopColor="#3154ca"/></linearGradient><clipPath id="a86ea040-1b9e-44aa-bd0b-569233214556"><path class="ee1a8b35-8696-4463-8a9b-f218ebb003ca" d="M370.9377,170.1969a.8137.8137,0,0,1-1.1467,0,.8055.8055,0,0,1,0-1.1419l10.083-10.0408-10.083-10.0409a.8056.8056,0,0,1,0-1.142.8138.8138,0,0,1,1.1467,0l10.6761,10.6118a.8055.8055,0,0,1,0,1.1419Z"/></clipPath><linearGradient id="fb71696c-25ad-4ed3-9d15-31ff71d18adb" x1="602.6131" y1="249.2625" x2="436.9708" y2="98.1459" gradientUnits="userSpaceOnUse"><stop offset="0" stopColor="#17d1aa" stop-opacity="0"/><stop offset="0.1867" stopColor="#17d1aa" stop-opacity="0.0119"/><stop offset="0.297" stopColor="#17d1aa" stop-opacity="0.0517"/><stop offset="0.3876" stopColor="#17d1aa" stop-opacity="0.1196"/><stop offset="0.4673" stopColor="#17d1aa" stop-opacity="0.2158"/><stop offset="0.5393" stopColor="#17d1aa" stop-opacity="0.3391"/><stop offset="0.5683" stopColor="#17d1aa" stop-opacity="0.4"/><stop offset="0.854" stopColor="#297bc0" stop-opacity="0.8113"/><stop offset="1" stopColor="#3154ca"/></linearGradient></defs><path class="baad2569-9728-4209-a4f9-6270afb1cbce" d="M357.9753,1477.9075l8.0931-10.3368a.7007.7007,0,0,0-.5518-1.1327h-6.3649v-11.4543s-.028-2.13-1.7434-2.13q-1.8261,0-1.8261,2.13v11.4543h-5.8207a.7007.7007,0,0,0-.5629,1.118l7.662,10.3368a.7007.7007,0,0,0,1.1147.0147Z"/><g class="e4dccaaf-2876-4999-9318-0b67e74c3350"><rect class="f3af89a9-94e0-47cd-9cb4-a40a714745d0" x="-1095.9919" y="-91.48" width="3363.5487" height="2391.8573"/></g><path class="baad2569-9728-4209-a4f9-6270afb1cbce" d="M357.9753,731.6989l8.0931-10.3368a.7008.7008,0,0,0-.5518-1.1327h-6.3649V708.7751s-.028-2.13-1.7434-2.13q-1.8261,0-1.8261,2.13v11.4543h-5.8207a.7007.7007,0,0,0-.5629,1.118l7.662,10.3368a.7007.7007,0,0,0,1.1147.0147Z"/><g class="f0978946-f96c-4e67-a910-8f57a21f9ffe"><rect class="f3af89a9-94e0-47cd-9cb4-a40a714745d0" x="-1095.9919" y="-837.6886" width="3363.5487" height="2391.8573"/></g><path class="f3af89a9-94e0-47cd-9cb4-a40a714745d0" d="M204.4748,92.6569H138.1381V79.3429A9.3707,9.3707,0,0,1,147.4813,70h47.65a9.3706,9.3706,0,0,1,9.3432,9.3432Z"/><path class="f3af89a9-94e0-47cd-9cb4-a40a714745d0" d="M389.9373,92.6569H323.6006V79.3429A9.3706,9.3706,0,0,1,332.9438,70h47.65a9.3707,9.3707,0,0,1,9.3432,9.3432Z"/><path class="baad2569-9728-4209-a4f9-6270afb1cbce" d="M357.9753,56.1612l8.0931-10.3368a.7008.7008,0,0,0-.5518-1.1328h-6.3649V33.2374s-.028-2.1305-1.7434-2.1305q-1.8261,0-1.8261,2.1305V44.6916h-5.8207a.7008.7008,0,0,0-.5629,1.1181l7.662,10.3368a.7007.7007,0,0,0,1.1147.0147Z"/><g class="b674f024-472b-4347-8418-5ac07a663aae"><rect class="f3af89a9-94e0-47cd-9cb4-a40a714745d0" x="-1095.9919" y="-1513.2263" width="3363.5487" height="2391.8573"/><g class="ba983f1f-da4f-4704-adaf-dc15ae057f2b"><rect class="f3af89a9-94e0-47cd-9cb4-a40a714745d0" x="337.3818" y="19.4279" width="40.5146" height="48.6811"/></g></g><path id="efd3b99f-55d0-4dbe-afae-9eaa48e6c28a" data-name="Combined-Shape" class="b874c36b-b27e-46e1-9b69-43601bd115de" d="M100.2071,212.4811V106.6939a19.5873,19.5873,0,0,1,19.5873-19.5874H515.4861a19.5874,19.5874,0,0,1,19.5874,19.5874V212.4811a19.5873,19.5873,0,0,1-19.5874,19.5873H119.7944A19.5873,19.5873,0,0,1,100.2071,212.4811Zm400.526-51.1258c0-17.1316-14.6193-31.0195-32.6531-31.0195s-32.653,13.8879-32.653,31.0195,14.6193,31.0195,32.653,31.0195S500.7331,178.4869,500.7331,161.3553Z"/><rect class="e98b877d-8d96-4af1-b850-462fca1d0920" x="136.0998" y="114.4972" width="259.3796" height="90.285" rx="6"/><rect class="f3af89a9-94e0-47cd-9cb4-a40a714745d0" x="136.076" y="119.5343" width="253.8375" height="85.2511" rx="4"/><path class="babe9287-4690-4bdb-90e4-84d1298a3aba" d="M370.9377,170.1969a.8137.8137,0,0,1-1.1467,0,.8055.8055,0,0,1,0-1.1419l10.083-10.0408-10.083-10.0409a.8056.8056,0,0,1,0-1.142.8138.8138,0,0,1,1.1467,0l10.6761,10.6118a.8055.8055,0,0,1,0,1.1419Z"/><g class="a95b1918-3b48-48f1-b11c-c1f9a16f9fb1"><rect class="ee1a8b35-8696-4463-8a9b-f218ebb003ca" x="360.7699" y="138.8112" width="29.865" height="40.4059"/></g><path class="f7c1f113-de48-41d3-8ef6-b1f641363ada" d="M370.9377,170.1969a.8137.8137,0,0,1-1.1467,0,.8055.8055,0,0,1,0-1.1419l10.083-10.0408-10.083-10.0409a.8056.8056,0,0,1,0-1.142.8138.8138,0,0,1,1.1467,0l10.6761,10.6118a.8055.8055,0,0,1,0,1.1419Z"/><text class="fd5cef0f-9376-44d5-be8e-fd17f5619d38" transform="translate(186.339 153.8283)">V<tspan class="ae11e24b-376d-43a3-b695-5b647a53d0c8" x="12.2456" y="0">oting public </tspan><tspan class="e6005010-303d-4d06-bff5-db2df2588944" x="121.5742" y="0">k</tspan><tspan class="bfd0207c-3fbb-477f-ab3a-de306d99b433" x="131.6865" y="0">e</tspan><tspan class="ae11e24b-376d-43a3-b695-5b647a53d0c8" x="142.1416" y="0">y</tspan></text><text class="bb4a79cc-a9de-44f0-a530-4f937d6f2c09" transform="translate(179.0128 187.6409)">___________<tspan class="a8212521-35ad-4848-b115-e7de44006473" x="163.3491" y="0">_</tspan></text><path id="bea38036-de94-4fb1-a5f1-9fdccf54a32c" data-name="Combined-Shape" class="bd02e922-9ed7-49c0-be15-a6330c2a9bd8" d="M412.4211,121.0441a71.0946,71.0946,0,0,1,98.3451-20.9076q.1488.0966.2972.1941L747.9018,255.81a39.1747,39.1747,0,0,1,11.3568,54.0834l-35.1548,54.138a39.1747,39.1747,0,0,1-54.19,11.5205q-.0821-.0533-.1638-.1069L433.2384,220.18A71.8082,71.8082,0,0,1,412.4211,121.0441Zm96.5994,40.3112c0-21.48-18.33-38.8922-40.9405-38.8922s-40.94,17.4126-40.94,38.8922,18.33,38.8922,40.94,38.8922S509.0205,182.8349,509.0205,161.3553Z"/></svg>