<svg id="bf10929f-92e0-4905-bd95-b739b102044e" data-name="Layer 1" xmlns="http://www.w3.org/2000/svg" xmlns:xlink="http://www.w3.org/1999/xlink" viewBox="0 0 720 307"><defs><style>.a2815929-9482-4b39-8cc3-a642378d7d0f,.aaefe5c3-6749-45e2-8310-211c95fd5765,.f5974395-5916-43ae-86f0-d22e143c2863{fill:#2c2ecf;}.aaefe5c3-6749-45e2-8310-211c95fd5765{clip-rule:evenodd;}.a92c3b4a-0d84-4ea7-8db3-a13fea412a4e,.ad061b31-53c9-4e81-a0a2-83bbc8fe1c25,.b28fa385-adb5-4da4-9093-02e371986a3a{fill:#fff;}.a92c3b4a-0d84-4ea7-8db3-a13fea412a4e,.f14e81f9-bf8e-4a09-acf9-a5cbf8f4f8af{stroke:#fff;stroke-miterlimit:10;}.a2815929-9482-4b39-8cc3-a642378d7d0f{fill-rule:evenodd;}.a236db86-2d6d-47c4-a273-a8df525e6f12{clip-path:url(#b26878bd-d422-4e25-a055-bf1cbcc06555);}.bf89aa0a-288d-4010-951e-987face37145{clip-path:url(#ad9cbcf9-1366-4d2e-8b4a-87fac30fa622);}.adb17a73-8bf4-4360-ac33-74f4457989b0{fill:url(#a6f913cd-1276-4889-81a1-8795850b49ca);}.f24566b1-8d72-493a-8b2b-ce3e4282485f{fill:#0d1ca0;}.f632ecf1-dfb2-4108-a9ec-948eb59147fa{clip-path:url(#b8194841-3417-42ca-8d18-836493d62336);}.f14e81f9-bf8e-4a09-acf9-a5cbf8f4f8af{fill:none;}.b28fa385-adb5-4da4-9093-02e371986a3a{font-size:19px;font-family:Roboto-Medium, Roboto;font-weight:500;letter-spacing:0.02em;}.f5feea30-8f5c-477c-b594-470555591fc9{letter-spacing:0.0053em;}.e7394642-a618-4f89-b168-a59f1c4224d2{letter-spacing:0.02em;}.f5dbeef8-c5de-462f-8315-18ac3a2f687b{fill:url(#f3c77fa1-3eb6-4a4f-943d-bf87c553189f);}.a604bef2-cb67-452c-a81b-8381afe31310{clip-path:url(#eb9b8aca-53c9-4953-957a-791b931bc207);}</style><clipPath id="b26878bd-d422-4e25-a055-bf1cbcc06555"><path class="aaefe5c3-6749-45e2-8310-211c95fd5765" d="M357.9753,56.1612l8.0931-10.3368a.7008.7008,0,0,0-.5518-1.1328h-6.3649V33.2374s-.028-2.1305-1.7434-2.1305q-1.8261,0-1.8261,2.1305V44.6916h-5.8207a.7008.7008,0,0,0-.5629,1.1181l7.662,10.3368a.7007.7007,0,0,0,1.1147.0147Z"/></clipPath><clipPath id="ad9cbcf9-1366-4d2e-8b4a-87fac30fa622"><rect class="f5974395-5916-43ae-86f0-d22e143c2863" x="-1095.9919" y="-1513.2263" width="3363.5487" height="2391.8573"/></clipPath><linearGradient id="a6f913cd-1276-4889-81a1-8795850b49ca" x1="-5254.1004" y1="772.1342" x2="-5260.7329" y2="777.0683" gradientTransform="matrix(0, -29.6032, -88.8056, 0, 69105.6637, -155476.2855)" gradientUnits="userSpaceOnUse"><stop offset="0" stopColor="#17d1aa"/><stop offset="0.5834" stopColor="#229db7"/><stop offset="1" stopColor="#3154ca"/></linearGradient><clipPath id="b8194841-3417-42ca-8d18-836493d62336"><path class="a92c3b4a-0d84-4ea7-8db3-a13fea412a4e" d="M370.9377,170.1969a.8137.8137,0,0,1-1.1467,0,.8055.8055,0,0,1,0-1.1419l10.083-10.0408-10.083-10.0409a.8056.8056,0,0,1,0-1.142.8138.8138,0,0,1,1.1467,0l10.6761,10.6118a.8055.8055,0,0,1,0,1.1419Z"/></clipPath><linearGradient id="f3c77fa1-3eb6-4a4f-943d-bf87c553189f" x1="602.6131" y1="249.2625" x2="436.9708" y2="98.1459" gradientUnits="userSpaceOnUse"><stop offset="0" stopColor="#17d1aa" stop-opacity="0"/><stop offset="0.1867" stopColor="#17d1aa" stop-opacity="0.0119"/><stop offset="0.297" stopColor="#17d1aa" stop-opacity="0.0517"/><stop offset="0.3876" stopColor="#17d1aa" stop-opacity="0.1196"/><stop offset="0.4673" stopColor="#17d1aa" stop-opacity="0.2158"/><stop offset="0.5393" stopColor="#17d1aa" stop-opacity="0.3391"/><stop offset="0.5683" stopColor="#17d1aa" stop-opacity="0.4"/><stop offset="0.854" stopColor="#297bc0" stop-opacity="0.8113"/><stop offset="1" stopColor="#3154ca"/></linearGradient><clipPath id="eb9b8aca-53c9-4953-957a-791b931bc207"><path class="aaefe5c3-6749-45e2-8310-211c95fd5765" d="M357.9753,1875.8929l8.0931-10.3369a.7008.7008,0,0,0-.5518-1.1327h-6.3649v-11.4542s-.028-2.1306-1.7434-2.1306q-1.8261,0-1.8261,2.1306v11.4542h-5.8207a.7007.7007,0,0,0-.5629,1.118l7.662,10.3369a.701.701,0,0,0,1.1147.0147Z"/></clipPath></defs><path class="f5974395-5916-43ae-86f0-d22e143c2863" d="M204.4748,92.6569H138.1381V79.3429A9.3707,9.3707,0,0,1,147.4813,70h47.65a9.3706,9.3706,0,0,1,9.3432,9.3432Z"/><path class="f5974395-5916-43ae-86f0-d22e143c2863" d="M389.9373,92.6569H323.6006V79.3429A9.3706,9.3706,0,0,1,332.9438,70h47.65a9.3707,9.3707,0,0,1,9.3432,9.3432Z"/><path class="a2815929-9482-4b39-8cc3-a642378d7d0f" d="M357.9753,56.1612l8.0931-10.3368a.7008.7008,0,0,0-.5518-1.1328h-6.3649V33.2374s-.028-2.1305-1.7434-2.1305q-1.8261,0-1.8261,2.1305V44.6916h-5.8207a.7008.7008,0,0,0-.5629,1.1181l7.662,10.3368a.7007.7007,0,0,0,1.1147.0147Z"/><g class="a236db86-2d6d-47c4-a273-a8df525e6f12"><rect class="f5974395-5916-43ae-86f0-d22e143c2863" x="-1095.9919" y="-1513.2263" width="3363.5487" height="2391.8573"/><g class="bf89aa0a-288d-4010-951e-987face37145"><rect class="f5974395-5916-43ae-86f0-d22e143c2863" x="337.3818" y="19.4279" width="40.5146" height="48.6811"/></g></g><path id="b5eaa087-8f67-445a-9d79-8887114a67d8" data-name="Combined-Shape" class="adb17a73-8bf4-4360-ac33-74f4457989b0" d="M100.2071,212.4811V106.6939a19.5873,19.5873,0,0,1,19.5873-19.5874H515.4861a19.5874,19.5874,0,0,1,19.5874,19.5874V212.4811a19.5873,19.5873,0,0,1-19.5874,19.5873H119.7944A19.5873,19.5873,0,0,1,100.2071,212.4811Zm400.526-51.1258c0-17.1316-14.6193-31.0195-32.6531-31.0195s-32.653,13.8879-32.653,31.0195,14.6193,31.0195,32.653,31.0195S500.7331,178.4869,500.7331,161.3553Z"/><rect class="f24566b1-8d72-493a-8b2b-ce3e4282485f" x="136.0998" y="114.4972" width="259.3796" height="90.285" rx="6"/><rect class="f5974395-5916-43ae-86f0-d22e143c2863" x="136.076" y="119.5343" width="253.8375" height="85.2511" rx="4"/><path class="ad061b31-53c9-4e81-a0a2-83bbc8fe1c25" d="M370.9377,170.1969a.8137.8137,0,0,1-1.1467,0,.8055.8055,0,0,1,0-1.1419l10.083-10.0408-10.083-10.0409a.8056.8056,0,0,1,0-1.142.8138.8138,0,0,1,1.1467,0l10.6761,10.6118a.8055.8055,0,0,1,0,1.1419Z"/><g class="f632ecf1-dfb2-4108-a9ec-948eb59147fa"><rect class="a92c3b4a-0d84-4ea7-8db3-a13fea412a4e" x="360.7699" y="138.8112" width="29.865" height="40.4059"/></g><path class="f14e81f9-bf8e-4a09-acf9-a5cbf8f4f8af" d="M370.9377,170.1969a.8137.8137,0,0,1-1.1467,0,.8055.8055,0,0,1,0-1.1419l10.083-10.0408-10.083-10.0409a.8056.8056,0,0,1,0-1.142.8138.8138,0,0,1,1.1467,0l10.6761,10.6118a.8055.8055,0,0,1,0,1.1419Z"/><text class="b28fa385-adb5-4da4-9093-02e371986a3a" transform="translate(187.4753 153.8283)">New t<tspan class="f5feea30-8f5c-477c-b594-470555591fc9" x="50.7544" y="0">r</tspan><tspan class="e7394642-a618-4f89-b168-a59f1c4224d2" x="57.5356" y="0">ansaction </tspan><tspan x="2.1152" y="22.7998">network id 0 / pr</tspan></text><path id="eb2d7c23-f279-4b57-b063-44ff91f045e0" data-name="Combined-Shape" class="f5dbeef8-c5de-462f-8315-18ac3a2f687b" d="M412.4211,121.0441a71.0946,71.0946,0,0,1,98.3451-20.9076q.1488.0966.2972.1941L747.9018,255.81a39.1747,39.1747,0,0,1,11.3568,54.0834l-35.1548,54.138a39.1747,39.1747,0,0,1-54.19,11.5205q-.0821-.0533-.1638-.1069L433.2384,220.18A71.8082,71.8082,0,0,1,412.4211,121.0441Zm96.5994,40.3112c0-21.48-18.33-38.8922-40.9405-38.8922s-40.94,17.4126-40.94,38.8922,18.33,38.8922,40.94,38.8922S509.0205,182.8349,509.0205,161.3553Z"/><path class="a2815929-9482-4b39-8cc3-a642378d7d0f" d="M357.9753,1875.8929l8.0931-10.3369a.7008.7008,0,0,0-.5518-1.1327h-6.3649v-11.4542s-.028-2.1306-1.7434-2.1306q-1.8261,0-1.8261,2.1306v11.4542h-5.8207a.7007.7007,0,0,0-.5629,1.118l7.662,10.3369a.701.701,0,0,0,1.1147.0147Z"/><g class="a604bef2-cb67-452c-a81b-8381afe31310"><rect class="f5974395-5916-43ae-86f0-d22e143c2863" x="-1095.9919" y="306.5053" width="3363.5487" height="2391.8573"/></g></svg>