<svg id="f0b4cba6-ae29-42ae-979f-af687525a689" data-name="Layer 1" xmlns="http://www.w3.org/2000/svg" xmlns:xlink="http://www.w3.org/1999/xlink" viewBox="0 0 720 307"><defs><style>.e0cc4c9c-ce54-4f90-91ca-202761c78837,.e942a17e-2576-4bdc-964d-8666684731b5{fill:#2c2ecf;}.e0cc4c9c-ce54-4f90-91ca-202761c78837{fill-rule:evenodd;}.aecdfb79-a001-4633-bf34-118b1a3efce8{fill:url(#b0b0ad6a-48d4-4e54-a695-579f90a5a9be);}.a4667a86-7eab-4964-8727-78e306b985c2{fill:url(#fb94a97e-0600-46b5-b4b7-457076b9f1ec);}.b830c1f9-0cb1-48c3-abb4-990f395136bb{fill:#0d1ca0;}.b92771da-d7a3-4a01-af53-9eb858221df4,.f3d41178-9a88-4797-93a5-883f178a510c{fill:#fff;}.b92771da-d7a3-4a01-af53-9eb858221df4{font-size:19px;font-family:Roboto-Medium, Roboto;font-weight:500;}.b76e22ba-27ee-42fd-85fd-675ceb4dbbbf,.b92771da-d7a3-4a01-af53-9eb858221df4{letter-spacing:0.02em;}.fbe5aaca-0a06-4b7e-803d-b855c1bfd958{letter-spacing:0.0127em;}.e0832d9b-ac9e-4883-b9b0-c8fb7d5f72ca{letter-spacing:0.0102em;}.e2db6cc5-7273-4fb0-95f9-11917b1a8fac{letter-spacing:0.0136em;}.a24d5099-4599-4d62-b122-de68573c58b7{letter-spacing:0.0107em;}.b1848bcc-439a-4ade-89f7-db4323cbfa8b{letter-spacing:0.0054em;}</style><linearGradient id="b0b0ad6a-48d4-4e54-a695-579f90a5a9be" x1="-175.0259" y1="667.9953" x2="-181.6583" y2="672.9295" gradientTransform="matrix(0, -29.6032, -88.8056, 0, 59881.6083, -5118.0111)" gradientUnits="userSpaceOnUse"><stop offset="0" stopColor="#17d1aa"/><stop offset="0.5834" stopColor="#229db7"/><stop offset="1" stopColor="#3154ca"/></linearGradient><linearGradient id="fb94a97e-0600-46b5-b4b7-457076b9f1ec" x1="626.6776" y1="250.7402" x2="461.0353" y2="99.6236" gradientUnits="userSpaceOnUse"><stop offset="0" stopColor="#17d1aa" stop-opacity="0"/><stop offset="0.1867" stopColor="#17d1aa" stop-opacity="0.0119"/><stop offset="0.297" stopColor="#17d1aa" stop-opacity="0.0517"/><stop offset="0.3876" stopColor="#17d1aa" stop-opacity="0.1196"/><stop offset="0.4673" stopColor="#17d1aa" stop-opacity="0.2158"/><stop offset="0.5393" stopColor="#17d1aa" stop-opacity="0.3391"/><stop offset="0.5683" stopColor="#17d1aa" stop-opacity="0.4"/><stop offset="0.854" stopColor="#297bc0" stop-opacity="0.8113"/><stop offset="1" stopColor="#3154ca"/></linearGradient></defs><path class="e942a17e-2576-4bdc-964d-8666684731b5" d="M228.5393,94.1346H162.2026V80.8206a9.3707,9.3707,0,0,1,9.3432-9.3432h47.65a9.3706,9.3706,0,0,1,9.3432,9.3432Z"/><path class="e942a17e-2576-4bdc-964d-8666684731b5" d="M414.0017,94.1346H347.6651V80.8206a9.3706,9.3706,0,0,1,9.3431-9.3432h47.65a9.3706,9.3706,0,0,1,9.3431,9.3432Z"/><path class="e0cc4c9c-ce54-4f90-91ca-202761c78837" d="M382.04,57.6389l8.0931-10.3368a.7008.7008,0,0,0-.5518-1.1328h-6.3649V34.7151s-.028-2.13-1.7434-2.13q-1.8261,0-1.8261,2.13V46.1693H373.826a.7008.7008,0,0,0-.5629,1.1181l7.662,10.3368a.7007.7007,0,0,0,1.1147.0147Z"/><path id="a1fd4614-6744-44bd-961c-e2b34b9a32fc" data-name="Combined-Shape" class="aecdfb79-a001-4633-bf34-118b1a3efce8" d="M124.2716,213.9588V108.1716a19.5873,19.5873,0,0,1,19.5873-19.5874H539.5506a19.5874,19.5874,0,0,1,19.5874,19.5874V213.9588a19.5873,19.5873,0,0,1-19.5874,19.5873H143.8589A19.5873,19.5873,0,0,1,124.2716,213.9588Zm400.526-51.1258c0-17.1316-14.6193-31.0195-32.6531-31.0195s-32.653,13.8879-32.653,31.0195,14.6192,31.0195,32.653,31.0195S524.7976,179.9646,524.7976,162.833Z"/><path id="e6594714-5609-4ef6-b3f3-d068b59ed577" data-name="Combined-Shape" class="a4667a86-7eab-4964-8727-78e306b985c2" d="M436.4856,122.5218a71.0946,71.0946,0,0,1,98.3451-20.9076q.1488.0966.2972.1941L771.9663,257.2874a39.1746,39.1746,0,0,1,11.3568,54.0833l-35.1548,54.1381a39.1747,39.1747,0,0,1-54.19,11.52q-.082-.0532-.1638-.1069L457.3029,221.6579A71.8081,71.8081,0,0,1,436.4856,122.5218ZM533.085,162.833c0-21.48-18.33-38.8922-40.9405-38.8922s-40.94,17.4126-40.94,38.8922,18.33,38.8922,40.94,38.8922S533.085,184.3126,533.085,162.833Z"/><rect class="b830c1f9-0cb1-48c3-abb4-990f395136bb" x="160.1643" y="115.9748" width="259.3796" height="90.285" rx="6"/><rect class="e942a17e-2576-4bdc-964d-8666684731b5" x="160.1405" y="121.012" width="253.8375" height="85.2511" rx="4"/><path class="f3d41178-9a88-4797-93a5-883f178a510c" d="M185.6882,162.719l9.6169-9.6752a1.3134,1.3134,0,0,0,0-1.8516,1.3378,1.3378,0,0,0-1.8516,0l-9.6855,9.7266-9.6865-9.7266a1.3378,1.3378,0,0,0-1.8516,0,1.3157,1.3157,0,0,0,0,1.8516l9.6169,9.6752-9.6169,9.6753a1.3157,1.3157,0,0,0,0,1.8516,1.3378,1.3378,0,0,0,1.8516,0l9.6865-9.7266,9.6855,9.7266a1.3076,1.3076,0,0,0,2.2334-.9258,1.283,1.283,0,0,0-.3818-.9258Z"/><text class="b92771da-d7a3-4a01-af53-9eb858221df4" transform="translate(205.0202 155.3052)">Confirm <tspan class="fbe5aaca-0a06-4b7e-803d-b855c1bfd958" x="76.3589" y="0">v</tspan><tspan x="85.9976" y="0">oting </tspan><tspan class="e0832d9b-ac9e-4883-b9b0-c8fb7d5f72ca" x="136.3345" y="0">k</tspan><tspan class="e2db6cc5-7273-4fb0-95f9-11917b1a8fac" x="146.4463" y="0">e</tspan><tspan x="156.9014" y="0">y</tspan><tspan class="a24d5099-4599-4d62-b122-de68573c58b7"><tspan x="27.335" y="22.7998">r</tspan><tspan class="b76e22ba-27ee-42fd-85fd-675ceb4dbbbf" x="34.2183" y="22.7998">egist</tspan><tspan class="b1848bcc-439a-4ade-89f7-db4323cbfa8b" x="78.061" y="22.7998">r</tspan><tspan class="b76e22ba-27ee-42fd-85fd-675ceb4dbbbf" x="84.8428" y="22.7998">ation?</tspan></tspan></text><path class="f3d41178-9a88-4797-93a5-883f178a510c" d="M388.1225,171.7137a1.2985,1.2985,0,0,1-.9258-.3848l-10.6113-10.6758a1.313,1.313,0,0,1,0-1.8515,1.3365,1.3365,0,0,1,1.8506,0l9.63,9.67,14.7207-19.9707a1.3251,1.3251,0,0,1,.9737-.44h.0009a1.2926,1.2926,0,0,1,.9239.3847,1.3138,1.3138,0,0,1,0,1.8516l-15.59,20.9775A1.3234,1.3234,0,0,1,388.1225,171.7137Z"/></svg>