<svg id="fbc43de3-a127-4d0b-a2af-3bfa8e2365ca" data-name="Layer 1" xmlns="http://www.w3.org/2000/svg" xmlns:xlink="http://www.w3.org/1999/xlink" viewBox="0 0 720 307"><defs><style>.a855584b-8522-4a34-a82d-db4f70a4e2d5,.adef4dc3-caba-4322-a485-44ea0562e207,.e0430365-2c40-492e-8d4d-482bf9699d19,.e1fd84b8-6747-4976-8981-82b60e497339{fill:#fff;}.b48a7ab7-6e9f-4084-b896-60a6b3e10431,.e0430365-2c40-492e-8d4d-482bf9699d19{stroke:#fff;stroke-miterlimit:10;}.bf272908-7344-4e19-bd99-ab1eabc81416,.bf4f41c6-0508-4228-a2f4-bd4e41cda41e,.e5e78f95-ec6b-4f45-8bd9-68fe64d8a9bc{fill:#2c2ecf;}.bf272908-7344-4e19-bd99-ab1eabc81416{clip-rule:evenodd;}.e1fd84b8-6747-4976-8981-82b60e497339{font-size:18px;font-family:MuseoSansCyrl-700, Museo Sans Cyrl;font-weight:700;letter-spacing:0.22em;}.b1209286-c608-4a01-ba2f-5ef9c4a299aa{letter-spacing:0.26em;}.e344515e-6d28-41bc-892c-5f288d5deef0{fill:url(#aed632e7-700d-4f22-9e65-914e8374d72c);}.a6e8b47f-493c-4956-ac28-2435cc9f33e2{fill:#0d1ca0;}.a2c3fe17-c33e-474a-9e86-3e024dfd5c9c{clip-path:url(#e857073e-0db7-4869-ac1c-748484b92b7c);}.b48a7ab7-6e9f-4084-b896-60a6b3e10431{fill:none;}.bf66f435-c527-4495-bc8e-4d6c5598914e{clip-path:url(#ab29fd14-0f60-428b-b640-9dbd86dc7010);}.a855584b-8522-4a34-a82d-db4f70a4e2d5{font-size:19px;font-family:Roboto-Medium, Roboto;font-weight:500;letter-spacing:0.0082em;}.a6527694-62e8-403b-ad20-c1edbdd1a3ff{letter-spacing:0.0254em;}.e69ec487-0d4d-4d45-a59a-af662d49a360{letter-spacing:0.04em;}.bd751c99-2be1-49f0-8da3-afb466aee761{letter-spacing:0.0107em;}.f1aa8cf2-3c61-46d9-b29e-9792befe1216{letter-spacing:0.0478em;}.b3f9efa2-17f7-4277-9099-18a303c0711c{letter-spacing:0.04em;}.fabbff69-7a55-4627-b803-ae21a369e024{fill:url(#f30f4799-bcd2-4648-b473-01cdb3982ed0);}.bf4f41c6-0508-4228-a2f4-bd4e41cda41e{fill-rule:evenodd;}.a7a8c1aa-a7e7-4743-8868-24d72fb36a24{clip-path:url(#e79321fc-4050-4242-94f3-2e593d8257f7);}.a1d25c97-fb15-4f2e-b9bc-48ce86ba554e{clip-path:url(#a5ce685e-ba44-4ab4-a592-be1eb23e0276);}.a9bc51f5-0149-4717-961e-30c5240f1964{clip-path:url(#aa58cc61-9f70-4e0d-b0b2-3cf21041a511);}</style><linearGradient id="aed632e7-700d-4f22-9e65-914e8374d72c" x1="-5408.141" y1="-3787.9566" x2="-5414.7734" y2="-3783.0225" gradientTransform="matrix(0, -29.6032, -88.8056, 0, -335856.0913, -160036.3763)" gradientUnits="userSpaceOnUse"><stop offset="0" stopColor="#17d1aa"/><stop offset="0.5834" stopColor="#229db7"/><stop offset="1" stopColor="#3154ca"/></linearGradient><clipPath id="e857073e-0db7-4869-ac1c-748484b92b7c"><path class="e0430365-2c40-492e-8d4d-482bf9699d19" d="M370.9377,170.1969a.8137.8137,0,0,1-1.1467,0,.8055.8055,0,0,1,0-1.1419l10.083-10.0408-10.083-10.0409a.8056.8056,0,0,1,0-1.142.8138.8138,0,0,1,1.1467,0l10.6761,10.6118a.8055.8055,0,0,1,0,1.1419Z"/></clipPath><clipPath id="ab29fd14-0f60-428b-b640-9dbd86dc7010"><path class="e0430365-2c40-492e-8d4d-482bf9699d19" d="M160.9233,147.8307a.8137.8137,0,0,1,1.1467,0,.8057.8057,0,0,1,0,1.1419l-10.083,10.0408,10.083,10.0409a.8055.8055,0,0,1,0,1.1419.8139.8139,0,0,1-1.1467,0l-10.6761-10.6119a.8055.8055,0,0,1,0-1.1419Z"/></clipPath><linearGradient id="f30f4799-bcd2-4648-b473-01cdb3982ed0" x1="602.6131" y1="249.2625" x2="436.9708" y2="98.1459" gradientUnits="userSpaceOnUse"><stop offset="0" stopColor="#17d1aa" stop-opacity="0"/><stop offset="0.1867" stopColor="#17d1aa" stop-opacity="0.0119"/><stop offset="0.297" stopColor="#17d1aa" stop-opacity="0.0517"/><stop offset="0.3876" stopColor="#17d1aa" stop-opacity="0.1196"/><stop offset="0.4673" stopColor="#17d1aa" stop-opacity="0.2158"/><stop offset="0.5393" stopColor="#17d1aa" stop-opacity="0.3391"/><stop offset="0.5683" stopColor="#17d1aa" stop-opacity="0.4"/><stop offset="0.854" stopColor="#297bc0" stop-opacity="0.8113"/><stop offset="1" stopColor="#3154ca"/></linearGradient><clipPath id="e79321fc-4050-4242-94f3-2e593d8257f7"><path class="bf272908-7344-4e19-bd99-ab1eabc81416" d="M357.9753,56.1612l8.0931-10.3368a.7008.7008,0,0,0-.5518-1.1328h-6.3649V33.2374s-.028-2.1305-1.7434-2.1305q-1.8261,0-1.8261,2.1305V44.6916h-5.8207a.7008.7008,0,0,0-.5629,1.1181l7.662,10.3368a.7007.7007,0,0,0,1.1147.0147Z"/></clipPath><clipPath id="a5ce685e-ba44-4ab4-a592-be1eb23e0276"><rect class="e5e78f95-ec6b-4f45-8bd9-68fe64d8a9bc" x="-1095.9919" y="-1513.2263" width="3363.5487" height="2391.8573"/></clipPath><clipPath id="aa58cc61-9f70-4e0d-b0b2-3cf21041a511"><path class="bf272908-7344-4e19-bd99-ab1eabc81416" d="M357.9753-437.7175l8.0931-10.3369a.7007.7007,0,0,0-.12-.9837.701.701,0,0,0-.432-.149h-6.3649v-11.4542s-.028-2.1306-1.7434-2.1306q-1.8261,0-1.8261,2.1306v11.4542h-5.8207a.7007.7007,0,0,0-.7007.7008.7005.7005,0,0,0,.1378.4172l7.662,10.3369a.7007.7007,0,0,0,.98.1456A.7008.7008,0,0,0,357.9753-437.7175Z"/></clipPath></defs><text class="e1fd84b8-6747-4976-8981-82b60e497339" transform="translate(179.0128 187.64)">___________<tspan class="b1209286-c608-4a01-ba2f-5ef9c4a299aa" x="163.3491" y="0">_</tspan></text><path class="e5e78f95-ec6b-4f45-8bd9-68fe64d8a9bc" d="M204.4748,92.6569H138.1381V79.3429A9.3707,9.3707,0,0,1,147.4813,70h47.65a9.3706,9.3706,0,0,1,9.3432,9.3432Z"/><path class="e5e78f95-ec6b-4f45-8bd9-68fe64d8a9bc" d="M389.9373,92.6569H323.6006V79.3429A9.3706,9.3706,0,0,1,332.9438,70h47.65a9.3707,9.3707,0,0,1,9.3432,9.3432Z"/><path id="b0cc55a9-272f-47bc-95b8-d68158c5e42d" data-name="Combined-Shape" class="e344515e-6d28-41bc-892c-5f288d5deef0" d="M100.2071,212.4811V106.6939a19.5873,19.5873,0,0,1,19.5873-19.5874H515.4861a19.5874,19.5874,0,0,1,19.5874,19.5874V212.4811a19.5873,19.5873,0,0,1-19.5874,19.5873H119.7944A19.5873,19.5873,0,0,1,100.2071,212.4811Zm400.526-51.1258c0-17.1316-14.6193-31.0195-32.6531-31.0195s-32.653,13.8879-32.653,31.0195,14.6193,31.0195,32.653,31.0195S500.7331,178.4869,500.7331,161.3553Z"/><rect class="a6e8b47f-493c-4956-ac28-2435cc9f33e2" x="136.0998" y="114.4972" width="259.3796" height="90.285" rx="6"/><rect class="e5e78f95-ec6b-4f45-8bd9-68fe64d8a9bc" x="136.076" y="119.5343" width="253.8375" height="85.2511" rx="4"/><path class="adef4dc3-caba-4322-a485-44ea0562e207" d="M370.9377,170.1969a.8137.8137,0,0,1-1.1467,0,.8055.8055,0,0,1,0-1.1419l10.083-10.0408-10.083-10.0409a.8056.8056,0,0,1,0-1.142.8138.8138,0,0,1,1.1467,0l10.6761,10.6118a.8055.8055,0,0,1,0,1.1419Z"/><g class="a2c3fe17-c33e-474a-9e86-3e024dfd5c9c"><rect class="e0430365-2c40-492e-8d4d-482bf9699d19" x="360.7699" y="138.8112" width="29.865" height="40.4059"/></g><path class="b48a7ab7-6e9f-4084-b896-60a6b3e10431" d="M370.9377,170.1969a.8137.8137,0,0,1-1.1467,0,.8055.8055,0,0,1,0-1.1419l10.083-10.0408-10.083-10.0409a.8056.8056,0,0,1,0-1.142.8138.8138,0,0,1,1.1467,0l10.6761,10.6118a.8055.8055,0,0,1,0,1.1419Z"/><path class="adef4dc3-caba-4322-a485-44ea0562e207" d="M160.9233,147.8307a.8137.8137,0,0,1,1.1467,0,.8057.8057,0,0,1,0,1.1419l-10.083,10.0408,10.083,10.0409a.8055.8055,0,0,1,0,1.1419.8139.8139,0,0,1-1.1467,0l-10.6761-10.6119a.8055.8055,0,0,1,0-1.1419Z"/><g class="bf66f435-c527-4495-bc8e-4d6c5598914e"><rect class="e0430365-2c40-492e-8d4d-482bf9699d19" x="141.2261" y="138.8105" width="29.865" height="40.4058"/></g><path class="b48a7ab7-6e9f-4084-b896-60a6b3e10431" d="M160.9233,147.8307a.8137.8137,0,0,1,1.1467,0,.8057.8057,0,0,1,0,1.1419l-10.083,10.0408,10.083,10.0409a.8055.8055,0,0,1,0,1.1419.8139.8139,0,0,1-1.1467,0l-10.6761-10.6119a.8055.8055,0,0,1,0-1.1419Z"/><text class="a855584b-8522-4a34-a82d-db4f70a4e2d5" transform="translate(187.5006 153.8285)">T<tspan class="a6527694-62e8-403b-ad20-c1edbdd1a3ff" x="11.6885" y="0">r</tspan><tspan class="e69ec487-0d4d-4d45-a59a-af662d49a360" x="18.8501" y="0">ansaction</tspan><tspan class="bd751c99-2be1-49f0-8da3-afb466aee761" x="109.1211" y="0"> </tspan><tspan class="f1aa8cf2-3c61-46d9-b29e-9792befe1216" x="114.0562" y="0">T</tspan><tspan class="b3f9efa2-17f7-4277-9099-18a303c0711c" x="126.4961" y="0">TL</tspan></text><text class="e1fd84b8-6747-4976-8981-82b60e497339" transform="translate(179.0128 187.641)">___________<tspan class="b1209286-c608-4a01-ba2f-5ef9c4a299aa" x="163.3491" y="0">_</tspan></text><path id="bb0fe41d-64a1-45c7-a746-05083e636770" data-name="Combined-Shape" class="fabbff69-7a55-4627-b803-ae21a369e024" d="M412.4211,121.0441a71.0946,71.0946,0,0,1,98.3451-20.9076q.1488.0966.2972.1941L747.9018,255.81a39.1747,39.1747,0,0,1,11.3568,54.0834l-35.1548,54.138a39.1747,39.1747,0,0,1-54.19,11.5205q-.0821-.0533-.1638-.1069L433.2384,220.18A71.8082,71.8082,0,0,1,412.4211,121.0441Zm96.5994,40.3112c0-21.48-18.33-38.8922-40.9405-38.8922s-40.94,17.4126-40.94,38.8922,18.33,38.8922,40.94,38.8922S509.0205,182.8349,509.0205,161.3553Z"/><path class="bf4f41c6-0508-4228-a2f4-bd4e41cda41e" d="M357.9753,56.1612l8.0931-10.3368a.7008.7008,0,0,0-.5518-1.1328h-6.3649V33.2374s-.028-2.1305-1.7434-2.1305q-1.8261,0-1.8261,2.1305V44.6916h-5.8207a.7008.7008,0,0,0-.5629,1.1181l7.662,10.3368a.7007.7007,0,0,0,1.1147.0147Z"/><g class="a7a8c1aa-a7e7-4743-8868-24d72fb36a24"><rect class="e5e78f95-ec6b-4f45-8bd9-68fe64d8a9bc" x="-1095.9919" y="-1513.2263" width="3363.5487" height="2391.8573"/><g class="a1d25c97-fb15-4f2e-b9bc-48ce86ba554e"><rect class="e5e78f95-ec6b-4f45-8bd9-68fe64d8a9bc" x="337.3818" y="19.4279" width="40.5146" height="48.6811"/></g></g><path class="bf4f41c6-0508-4228-a2f4-bd4e41cda41e" d="M357.9753-437.7175l8.0931-10.3369a.7007.7007,0,0,0-.12-.9837.701.701,0,0,0-.432-.149h-6.3649v-11.4542s-.028-2.1306-1.7434-2.1306q-1.8261,0-1.8261,2.1306v11.4542h-5.8207a.7007.7007,0,0,0-.7007.7008.7005.7005,0,0,0,.1378.4172l7.662,10.3369a.7007.7007,0,0,0,.98.1456A.7008.7008,0,0,0,357.9753-437.7175Z"/><g class="a9bc51f5-0149-4717-961e-30c5240f1964"><rect class="e5e78f95-ec6b-4f45-8bd9-68fe64d8a9bc" x="-1095.9919" y="-2007.1051" width="3363.5487" height="2391.8573"/></g></svg>