<svg id="a0fe5634-9d2f-421a-8a59-40d6785059dd" data-name="Layer 1" xmlns="http://www.w3.org/2000/svg" xmlns:xlink="http://www.w3.org/1999/xlink" viewBox="0 0 720 307"><defs><style>.bed07262-d5f7-4b0d-925d-adccb776fb5a,.e8c7227c-3a80-4171-be8f-7d6111dee832,.efa80964-f513-4f5e-b4c3-caaa9b850805{fill:#2c2ecf;}.e8c7227c-3a80-4171-be8f-7d6111dee832{clip-rule:evenodd;}.b7fd3885-6c92-497a-9ac2-cf89d360cb5e,.bdaf61aa-ebcc-4d78-92cf-7b4418f602b5,.bff59d95-f38f-4588-93dc-497cfd4557eb,.e177fd31-c7bc-4346-8d91-bc62d764e303{fill:#fff;}.b7d9259f-49e8-4ecf-85d6-d791677fbaf0,.b7fd3885-6c92-497a-9ac2-cf89d360cb5e{stroke:#fff;stroke-miterlimit:10;}.bed07262-d5f7-4b0d-925d-adccb776fb5a{fill-rule:evenodd;}.efafc4f9-3fd9-4aca-a4c0-2cb34551f2fe{clip-path:url(#bafcf0e7-ef16-4e47-be22-5b9371df5db6);}.bfce1e05-7d46-4aa4-a775-f324b7a55ef0{clip-path:url(#bf05c3c3-9610-41a9-8935-2d9f61fc9093);}.ba9fe6a7-e467-4177-a1f8-ead62d48ae28{clip-path:url(#b96fa5e7-042f-4308-b7db-286b997d202c);}.ee0fe293-11d4-466a-ae0f-a08f3c5a8938{fill:url(#a255ea1a-defa-4bfa-9f7e-f6630478f004);}.bc4a068d-3b56-4921-8440-33fdce03f8bc{fill:#0d1ca0;}.b581b62e-a808-4f20-8525-9f99cbf74ffb{clip-path:url(#b1284d85-5f44-458d-9422-f63d3b55d58a);}.b7d9259f-49e8-4ecf-85d6-d791677fbaf0{fill:none;}.bdaf61aa-ebcc-4d78-92cf-7b4418f602b5{font-size:19px;font-family:Roboto-Medium, Roboto;font-weight:500;letter-spacing:0.02em;}.aed00c19-9490-4774-99be-b926c4064c23{letter-spacing:0.0107em;}.bec882bc-1e1b-495b-aafa-547b09ffe937{letter-spacing:0.0053em;}.bff59d95-f38f-4588-93dc-497cfd4557eb{font-size:18px;font-family:MuseoSansCyrl-700, Museo Sans Cyrl;font-weight:700;letter-spacing:0.22em;}.bc5f1b5e-44c3-4fc1-99a1-a2dfbb32a777{letter-spacing:0.26em;}.a615ea66-e54b-4644-9b6f-a87a87e95ad7{fill:url(#bcbb3871-e478-4714-ba5e-41d38977adeb);}.abae14fd-b27f-480f-8658-26143fc685e2{clip-path:url(#b66f24ea-5e83-4d14-ba66-b254a92b42f2);}.fbb4d4f8-98af-41a2-a11e-6e185c6e54e3{clip-path:url(#b52c8e09-fa30-487f-9dee-4500b1213cfa);}</style><clipPath id="bafcf0e7-ef16-4e47-be22-5b9371df5db6"><path class="e8c7227c-3a80-4171-be8f-7d6111dee832" d="M357.9753,525.6571l8.0931-10.3368a.7008.7008,0,0,0-.5518-1.1327h-6.3649V502.7333s-.028-2.13-1.7434-2.13q-1.8261,0-1.8261,2.13v11.4543h-5.8207a.7007.7007,0,0,0-.5629,1.118l7.662,10.3368a.7007.7007,0,0,0,1.1147.0147Z"/></clipPath><clipPath id="bf05c3c3-9610-41a9-8935-2d9f61fc9093"><path class="e8c7227c-3a80-4171-be8f-7d6111dee832" d="M357.9753,56.1612l8.0931-10.3368a.7008.7008,0,0,0-.5518-1.1328h-6.3649V33.2374s-.028-2.1305-1.7434-2.1305q-1.8261,0-1.8261,2.1305V44.6916h-5.8207a.7008.7008,0,0,0-.5629,1.1181l7.662,10.3368a.7007.7007,0,0,0,1.1147.0147Z"/></clipPath><clipPath id="b96fa5e7-042f-4308-b7db-286b997d202c"><rect class="efa80964-f513-4f5e-b4c3-caaa9b850805" x="-1095.9919" y="-1513.2263" width="3363.5487" height="2391.8573"/></clipPath><linearGradient id="a255ea1a-defa-4bfa-9f7e-f6630478f004" x1="-5329.2369" y1="-1452.1461" x2="-5335.8694" y2="-1447.212" gradientTransform="matrix(0, -29.6032, -88.8056, 0, -128422.9596, -157700.5658)" gradientUnits="userSpaceOnUse"><stop offset="0" stop-color="#17d1aa"/><stop offset="0.5834" stop-color="#229db7"/><stop offset="1" stop-color="#3154ca"/></linearGradient><clipPath id="b1284d85-5f44-458d-9422-f63d3b55d58a"><path class="b7fd3885-6c92-497a-9ac2-cf89d360cb5e" d="M370.9377,170.1969a.8137.8137,0,0,1-1.1467,0,.8055.8055,0,0,1,0-1.1419l10.083-10.0408-10.083-10.0409a.8056.8056,0,0,1,0-1.142.8138.8138,0,0,1,1.1467,0l10.6761,10.6118a.8055.8055,0,0,1,0,1.1419Z"/></clipPath><linearGradient id="bcbb3871-e478-4714-ba5e-41d38977adeb" x1="602.6131" y1="249.2625" x2="436.9708" y2="98.1459" gradientUnits="userSpaceOnUse"><stop offset="0" stop-color="#17d1aa" stop-opacity="0"/><stop offset="0.1867" stop-color="#17d1aa" stop-opacity="0.0119"/><stop offset="0.297" stop-color="#17d1aa" stop-opacity="0.0517"/><stop offset="0.3876" stop-color="#17d1aa" stop-opacity="0.1196"/><stop offset="0.4673" stop-color="#17d1aa" stop-opacity="0.2158"/><stop offset="0.5393" stop-color="#17d1aa" stop-opacity="0.3391"/><stop offset="0.5683" stop-color="#17d1aa" stop-opacity="0.4"/><stop offset="0.854" stop-color="#297bc0" stop-opacity="0.8113"/><stop offset="1" stop-color="#3154ca"/></linearGradient><clipPath id="b66f24ea-5e83-4d14-ba66-b254a92b42f2"><path class="e8c7227c-3a80-4171-be8f-7d6111dee832" d="M357.9753-426.0716l8.0931-10.3369a.7007.7007,0,0,0-.12-.9837.701.701,0,0,0-.432-.149h-6.3649v-11.4542s-.028-2.1306-1.7434-2.1306q-1.8261,0-1.8261,2.1306v11.4542h-5.8207a.7007.7007,0,0,0-.7007.7007.7006.7006,0,0,0,.1378.4173l7.662,10.3369a.7007.7007,0,0,0,.98.1456A.7008.7008,0,0,0,357.9753-426.0716Z"/></clipPath><clipPath id="b52c8e09-fa30-487f-9dee-4500b1213cfa"><path class="e8c7227c-3a80-4171-be8f-7d6111dee832" d="M357.9753,1427.6491l8.0931-10.3368a.7008.7008,0,0,0-.5518-1.1327h-6.3649v-11.4543s-.028-2.13-1.7434-2.13q-1.8261,0-1.8261,2.13V1416.18h-5.8207a.7007.7007,0,0,0-.5629,1.118l7.662,10.3368a.7007.7007,0,0,0,1.1147.0147Z"/></clipPath></defs><path class="bed07262-d5f7-4b0d-925d-adccb776fb5a" d="M357.9753,525.6571l8.0931-10.3368a.7008.7008,0,0,0-.5518-1.1327h-6.3649V502.7333s-.028-2.13-1.7434-2.13q-1.8261,0-1.8261,2.13v11.4543h-5.8207a.7007.7007,0,0,0-.5629,1.118l7.662,10.3368a.7007.7007,0,0,0,1.1147.0147Z"/><g class="efafc4f9-3fd9-4aca-a4c0-2cb34551f2fe"><rect class="efa80964-f513-4f5e-b4c3-caaa9b850805" x="-1095.9919" y="-1043.7304" width="3363.5487" height="2391.8573"/></g><path class="efa80964-f513-4f5e-b4c3-caaa9b850805" d="M204.4748,92.6569H138.1381V79.3429A9.3707,9.3707,0,0,1,147.4813,70h47.65a9.3706,9.3706,0,0,1,9.3432,9.3432Z"/><path class="efa80964-f513-4f5e-b4c3-caaa9b850805" d="M389.9373,92.6569H323.6006V79.3429A9.3706,9.3706,0,0,1,332.9438,70h47.65a9.3707,9.3707,0,0,1,9.3432,9.3432Z"/><path class="bed07262-d5f7-4b0d-925d-adccb776fb5a" d="M357.9753,56.1612l8.0931-10.3368a.7008.7008,0,0,0-.5518-1.1328h-6.3649V33.2374s-.028-2.1305-1.7434-2.1305q-1.8261,0-1.8261,2.1305V44.6916h-5.8207a.7008.7008,0,0,0-.5629,1.1181l7.662,10.3368a.7007.7007,0,0,0,1.1147.0147Z"/><g class="bfce1e05-7d46-4aa4-a775-f324b7a55ef0"><rect class="efa80964-f513-4f5e-b4c3-caaa9b850805" x="-1095.9919" y="-1513.2263" width="3363.5487" height="2391.8573"/><g class="ba9fe6a7-e467-4177-a1f8-ead62d48ae28"><rect class="efa80964-f513-4f5e-b4c3-caaa9b850805" x="337.3818" y="19.4279" width="40.5146" height="48.6811"/></g></g><path id="a5cd8770-2a8b-463f-84f1-1470a576827d" data-name="Combined-Shape" class="ee0fe293-11d4-466a-ae0f-a08f3c5a8938" d="M100.2071,212.4811V106.6939a19.5873,19.5873,0,0,1,19.5873-19.5874H515.4861a19.5874,19.5874,0,0,1,19.5874,19.5874V212.4811a19.5873,19.5873,0,0,1-19.5874,19.5873H119.7944A19.5873,19.5873,0,0,1,100.2071,212.4811Zm400.526-51.1258c0-17.1316-14.6193-31.0195-32.6531-31.0195s-32.653,13.8879-32.653,31.0195,14.6193,31.0195,32.653,31.0195S500.7331,178.4869,500.7331,161.3553Z"/><rect class="bc4a068d-3b56-4921-8440-33fdce03f8bc" x="136.0998" y="114.4972" width="259.3796" height="90.285" rx="6"/><rect class="efa80964-f513-4f5e-b4c3-caaa9b850805" x="136.076" y="119.5343" width="253.8375" height="85.2511" rx="4"/><path class="e177fd31-c7bc-4346-8d91-bc62d764e303" d="M370.9377,170.1969a.8137.8137,0,0,1-1.1467,0,.8055.8055,0,0,1,0-1.1419l10.083-10.0408-10.083-10.0409a.8056.8056,0,0,1,0-1.142.8138.8138,0,0,1,1.1467,0l10.6761,10.6118a.8055.8055,0,0,1,0,1.1419Z"/><g class="b581b62e-a808-4f20-8525-9f99cbf74ffb"><rect class="b7fd3885-6c92-497a-9ac2-cf89d360cb5e" x="360.7699" y="138.8112" width="29.865" height="40.4059"/></g><path class="b7d9259f-49e8-4ecf-85d6-d791677fbaf0" d="M370.9377,170.1969a.8137.8137,0,0,1-1.1467,0,.8055.8055,0,0,1,0-1.1419l10.083-10.0408-10.083-10.0409a.8056.8056,0,0,1,0-1.142.8138.8138,0,0,1,1.1467,0l10.6761,10.6118a.8055.8055,0,0,1,0,1.1419Z"/><text class="bdaf61aa-ebcc-4d78-92cf-7b4418f602b5" transform="translate(199.0573 153.8283)">Rewa<tspan class="aed00c19-9490-4774-99be-b926c4064c23" x="47.9717" y="0">r</tspan><tspan x="54.855" y="0">ds go </tspan><tspan class="bec882bc-1e1b-495b-aafa-547b09ffe937" x="108.7173" y="0">t</tspan><tspan x="115.1367" y="0">o</tspan></text><text class="bff59d95-f38f-4588-93dc-497cfd4557eb" transform="translate(179.0128 187.6408)">___________<tspan class="bc5f1b5e-44c3-4fc1-99a1-a2dfbb32a777" x="163.3491" y="0">_</tspan></text><path id="a0519816-52f7-4873-9f76-c317343b77ce" data-name="Combined-Shape" class="a615ea66-e54b-4644-9b6f-a87a87e95ad7" d="M412.4211,121.0441a71.0946,71.0946,0,0,1,98.3451-20.9076q.1488.0966.2972.1941L747.9018,255.81a39.1747,39.1747,0,0,1,11.3568,54.0834l-35.1548,54.138a39.1747,39.1747,0,0,1-54.19,11.5205q-.0821-.0533-.1638-.1069L433.2384,220.18A71.8082,71.8082,0,0,1,412.4211,121.0441Zm96.5994,40.3112c0-21.48-18.33-38.8922-40.9405-38.8922s-40.94,17.4126-40.94,38.8922,18.33,38.8922,40.94,38.8922S509.0205,182.8349,509.0205,161.3553Z"/><path class="bed07262-d5f7-4b0d-925d-adccb776fb5a" d="M357.9753-426.0716l8.0931-10.3369a.7007.7007,0,0,0-.12-.9837.701.701,0,0,0-.432-.149h-6.3649v-11.4542s-.028-2.1306-1.7434-2.1306q-1.8261,0-1.8261,2.1306v11.4542h-5.8207a.7007.7007,0,0,0-.7007.7007.7006.7006,0,0,0,.1378.4173l7.662,10.3369a.7007.7007,0,0,0,.98.1456A.7008.7008,0,0,0,357.9753-426.0716Z"/><g class="abae14fd-b27f-480f-8658-26143fc685e2"><rect class="efa80964-f513-4f5e-b4c3-caaa9b850805" x="-1095.9919" y="-1995.4592" width="3363.5487" height="2391.8573"/></g><path class="bed07262-d5f7-4b0d-925d-adccb776fb5a" d="M357.9753,1427.6491l8.0931-10.3368a.7008.7008,0,0,0-.5518-1.1327h-6.3649v-11.4543s-.028-2.13-1.7434-2.13q-1.8261,0-1.8261,2.13V1416.18h-5.8207a.7007.7007,0,0,0-.5629,1.118l7.662,10.3368a.7007.7007,0,0,0,1.1147.0147Z"/><g class="fbb4d4f8-98af-41a2-a11e-6e185c6e54e3"><rect class="efa80964-f513-4f5e-b4c3-caaa9b850805" x="-1095.9919" y="-141.7384" width="3363.5487" height="2391.8573"/></g></svg>