<svg id="f2ac2295-30e4-4a43-baeb-b9dd4b56112c" data-name="Layer 1" xmlns="http://www.w3.org/2000/svg" xmlns:xlink="http://www.w3.org/1999/xlink" viewBox="0 0 720 307"><defs><style>.a28be262-f6b2-4dee-8130-dab53947e2ab,.f3522d83-59a3-40c2-88a6-baa4300fc4d7,.fd838875-5d37-4c3d-bc6d-4ea861f3d054{fill:#2c2ecf;}.fd838875-5d37-4c3d-bc6d-4ea861f3d054{clipRule:evenodd;}.ab2e43c9-fc1a-4e83-a38d-acacfc014304{fill:url(#a3232ec0-df88-45ba-9d77-989d085b1063);}.b8fc26a1-1094-47cb-b3af-c5d8c26fb6e0{fill:url(#bc8bcbcb-fd39-4764-b3f0-827c83985bbc);}.a244a215-1500-484f-8192-65034186ea5b{fill:#0d1ca0;}.ed03c4bc-512d-4152-9aa3-3402c5fde26a{font-size:19px;font-family:Roboto-Medium, Roboto;font-weight:500;letter-spacing:0.08em;}.a4f2463c-6169-4532-b99f-9d5cace6a805,.ed03c4bc-512d-4152-9aa3-3402c5fde26a{fill:#fff;}.a421dbb8-8357-4b53-895e-32c83111b318{letter-spacing:0.1044em;}.ed1c0a15-4044-4f21-81d1-1cf478211150{letter-spacing:0.08em;}.f6867c0b-5744-4c50-b7bd-b9f6e6548967{letter-spacing:0.0702em;}.f2bab372-bd67-4bf2-91ed-f9da372a4eeb{letter-spacing:0.0737em;}.a28be262-f6b2-4dee-8130-dab53947e2ab{fillRule:evenodd;}.e308b6c3-abd5-4de0-a661-a232b97fa958{clip-path:url(#a1b5f6ad-7258-4106-8fa3-e3f7418d2779);}.ad2b60fe-a238-4305-8648-d3859bd43977{clip-path:url(#ae26d289-e3b9-4b63-b5ac-e28ea970f75c);}.a542c72f-9a2b-468e-94fd-662021f230a8{clip-path:url(#afb819a5-7fbe-40f2-bfc6-753c36af99bb);}</style><linearGradient id="a3232ec0-df88-45ba-9d77-989d085b1063" x1="-5604.2219" y1="-6432.5353" x2="-5610.8544" y2="-6427.6012" gradientTransform="matrix(0, -29.6032, -88.8056, 0, -570685.513, -165839.5201)" gradientUnits="userSpaceOnUse"><stop offset="0" stopColor="#17d1aa"/><stop offset="0.5834" stopColor="#229db7"/><stop offset="1" stopColor="#3154ca"/></linearGradient><linearGradient id="bc8bcbcb-fd39-4764-b3f0-827c83985bbc" x1="626.6776" y1="250.7402" x2="461.0353" y2="99.6236" gradientUnits="userSpaceOnUse"><stop offset="0" stopColor="#17d1aa" stop-opacity="0"/><stop offset="0.1867" stopColor="#17d1aa" stop-opacity="0.0119"/><stop offset="0.297" stopColor="#17d1aa" stop-opacity="0.0517"/><stop offset="0.3876" stopColor="#17d1aa" stop-opacity="0.1196"/><stop offset="0.4673" stopColor="#17d1aa" stop-opacity="0.2158"/><stop offset="0.5393" stopColor="#17d1aa" stop-opacity="0.3391"/><stop offset="0.5683" stopColor="#17d1aa" stop-opacity="0.4"/><stop offset="0.854" stopColor="#297bc0" stop-opacity="0.8113"/><stop offset="1" stopColor="#3154ca"/></linearGradient><clipPath id="a1b5f6ad-7258-4106-8fa3-e3f7418d2779"><path class="fd838875-5d37-4c3d-bc6d-4ea861f3d054" d="M382.04-384.3892l8.0931-10.3369a.7007.7007,0,0,0-.12-.9837.701.701,0,0,0-.432-.149h-6.3649V-407.313s-.028-2.1306-1.7434-2.1306q-1.8261,0-1.8261,2.1306v11.4542H373.826a.7007.7007,0,0,0-.7007.7007.7006.7006,0,0,0,.1378.4173l7.662,10.3369a.7007.7007,0,0,0,.98.1456A.7008.7008,0,0,0,382.04-384.3892Z"/></clipPath><clipPath id="ae26d289-e3b9-4b63-b5ac-e28ea970f75c"><path class="fd838875-5d37-4c3d-bc6d-4ea861f3d054" d="M382.04,57.6389l8.0931-10.3368a.7008.7008,0,0,0-.5518-1.1328h-6.3649V34.7151s-.028-2.13-1.7434-2.13q-1.8261,0-1.8261,2.13V46.1693H373.826a.7008.7008,0,0,0-.5629,1.1181l7.662,10.3368a.7007.7007,0,0,0,1.1147.0147Z"/></clipPath><clipPath id="afb819a5-7fbe-40f2-bfc6-753c36af99bb"><rect class="f3522d83-59a3-40c2-88a6-baa4300fc4d7" x="-1071.9275" y="-1511.7487" width="3363.5487" height="2391.8573"/></clipPath></defs><path class="f3522d83-59a3-40c2-88a6-baa4300fc4d7" d="M228.5393,94.1346H162.2026V80.8206a9.3707,9.3707,0,0,1,9.3432-9.3432h47.65a9.3706,9.3706,0,0,1,9.3432,9.3432Z"/><path class="f3522d83-59a3-40c2-88a6-baa4300fc4d7" d="M414.0017,94.1346H347.6651V80.8206a9.3706,9.3706,0,0,1,9.3431-9.3432h47.65a9.3706,9.3706,0,0,1,9.3431,9.3432Z"/><path id="b91bcf38-16d5-4b92-8bc5-aff964235b95" data-name="Combined-Shape" class="ab2e43c9-fc1a-4e83-a38d-acacfc014304" d="M124.2716,213.9588V108.1716a19.5873,19.5873,0,0,1,19.5873-19.5874H539.5506a19.5874,19.5874,0,0,1,19.5874,19.5874V213.9588a19.5873,19.5873,0,0,1-19.5874,19.5873H143.8589A19.5873,19.5873,0,0,1,124.2716,213.9588Zm400.526-51.1258c0-17.1316-14.6193-31.0195-32.6531-31.0195s-32.653,13.8879-32.653,31.0195,14.6192,31.0195,32.653,31.0195S524.7976,179.9646,524.7976,162.833Z"/><path id="be4c3ef1-ecdc-4501-9820-114af12120ba" data-name="Combined-Shape" class="b8fc26a1-1094-47cb-b3af-c5d8c26fb6e0" d="M436.4856,122.5218a71.0946,71.0946,0,0,1,98.3451-20.9076q.1488.0966.2972.1941L771.9663,257.2874a39.1746,39.1746,0,0,1,11.3568,54.0833l-35.1548,54.1381a39.1747,39.1747,0,0,1-54.19,11.52q-.082-.0532-.1638-.1069L457.3029,221.6579A71.8081,71.8081,0,0,1,436.4856,122.5218ZM533.085,162.833c0-21.48-18.33-38.8922-40.9405-38.8922s-40.94,17.4126-40.94,38.8922,18.33,38.8922,40.94,38.8922S533.085,184.3126,533.085,162.833Z"/><rect class="a244a215-1500-484f-8192-65034186ea5b" x="160.1643" y="115.9748" width="259.3796" height="90.285" rx="6"/><rect class="f3522d83-59a3-40c2-88a6-baa4300fc4d7" x="160.1405" y="121.012" width="253.8375" height="85.2511" rx="4"/><text class="ed03c4bc-512d-4152-9aa3-3402c5fde26a" transform="translate(212.5749 155.3019)">Confirm export<tspan x="9.0405" y="22.7998">2 public </tspan><tspan class="f6867c0b-5744-4c50-b7bd-b9f6e6548967" x="94.583" y="22.7998">k</tspan><tspan class="f2bab372-bd67-4bf2-91ed-f9da372a4eeb" x="105.835" y="22.7998">e</tspan><tspan x="117.4302" y="22.7998">ys</tspan></text><path class="a28be262-f6b2-4dee-8130-dab53947e2ab" d="M382.04-384.3892l8.0931-10.3369a.7007.7007,0,0,0-.12-.9837.701.701,0,0,0-.432-.149h-6.3649V-407.313s-.028-2.1306-1.7434-2.1306q-1.8261,0-1.8261,2.1306v11.4542H373.826a.7007.7007,0,0,0-.7007.7007.7006.7006,0,0,0,.1378.4173l7.662,10.3369a.7007.7007,0,0,0,.98.1456A.7008.7008,0,0,0,382.04-384.3892Z"/><g class="e308b6c3-abd5-4de0-a661-a232b97fa958"><rect class="f3522d83-59a3-40c2-88a6-baa4300fc4d7" x="-1071.9275" y="-1953.7768" width="3363.5487" height="2391.8573"/></g><path class="a28be262-f6b2-4dee-8130-dab53947e2ab" d="M382.04,57.6389l8.0931-10.3368a.7008.7008,0,0,0-.5518-1.1328h-6.3649V34.7151s-.028-2.13-1.7434-2.13q-1.8261,0-1.8261,2.13V46.1693H373.826a.7008.7008,0,0,0-.5629,1.1181l7.662,10.3368a.7007.7007,0,0,0,1.1147.0147Z"/><g class="ad2b60fe-a238-4305-8648-d3859bd43977"><rect class="f3522d83-59a3-40c2-88a6-baa4300fc4d7" x="-1071.9275" y="-1511.7487" width="3363.5487" height="2391.8573"/><g class="a542c72f-9a2b-468e-94fd-662021f230a8"><rect class="f3522d83-59a3-40c2-88a6-baa4300fc4d7" x="361.4463" y="20.9056" width="40.5146" height="48.6811"/></g></g><path class="a4f2463c-6169-4532-b99f-9d5cace6a805" d="M185.6882,162.719l9.6169-9.6752a1.3134,1.3134,0,0,0,0-1.8516,1.3378,1.3378,0,0,0-1.8516,0l-9.6855,9.7266-9.6865-9.7266a1.3378,1.3378,0,0,0-1.8516,0,1.3157,1.3157,0,0,0,0,1.8516l9.6169,9.6752-9.6169,9.6753a1.3157,1.3157,0,0,0,0,1.8516,1.3378,1.3378,0,0,0,1.8516,0l9.6865-9.7266,9.6855,9.7266a1.3076,1.3076,0,0,0,2.2334-.9258,1.283,1.283,0,0,0-.3818-.9258Z"/><path class="a4f2463c-6169-4532-b99f-9d5cace6a805" d="M388.1225,171.7137a1.2985,1.2985,0,0,1-.9258-.3848l-10.6113-10.6758a1.313,1.313,0,0,1,0-1.8515,1.3365,1.3365,0,0,1,1.8506,0l9.63,9.67,14.7207-19.9707a1.3251,1.3251,0,0,1,.9737-.44h.0009a1.2926,1.2926,0,0,1,.9239.3847,1.3138,1.3138,0,0,1,0,1.8516l-15.59,20.9775A1.3234,1.3234,0,0,1,388.1225,171.7137Z"/></svg>
