<svg id="b4fb67bd-48d9-47c9-abdc-dcc780c9dd0d" data-name="Layer 1" xmlns="http://www.w3.org/2000/svg" xmlns:xlink="http://www.w3.org/1999/xlink" viewBox="0 0 720 307"><defs><style>.b8f3cda8-cdf7-4c7b-9c4a-4dce292ccdfa,.f7315691-cff4-4b14-a287-417176a60c79{fill:#2c2ecf;}.f7315691-cff4-4b14-a287-417176a60c79{fill-rule:evenodd;}.b20cf0fe-3373-437a-b1bb-96d923ef72bb{fill:url(#faf5a768-c8c7-49fa-ba67-751bb92d2cff);}.a72c9176-d1b4-47f8-958c-63478f211b71{fill:#0d1ca0;}.a07f310a-cde7-4572-a0a3-22038b88997a,.ea9b9e8d-cde1-4c9c-890d-5f99f7b286f6,.f0e2a22f-c0f4-420f-b203-b67fffb9540b{fill:#fff;}.b9c62500-ef17-4d77-9621-cafc39fb7ea4{fill:none;stroke:#fff;stroke-miterlimit:10;}.f0e2a22f-c0f4-420f-b203-b67fffb9540b{font-size:19px;font-family:Roboto-Medium, Roboto;font-weight:500;letter-spacing:0.0346em;}.b6300da0-c464-499a-a0c0-2ffd0bc5cae6{letter-spacing:0.04em;}.a1d350dc-2e52-4836-b2ef-a870f28fc194{letter-spacing:0.0488em;}.bed91f97-0a50-4600-8133-d3ab74cc3360{letter-spacing:0.04em;}.a07f310a-cde7-4572-a0a3-22038b88997a{font-size:18px;font-family:MuseoSansCyrl-700, Museo Sans Cyrl;font-weight:700;letter-spacing:0.22em;}.fea0697b-78e4-4a7b-93db-5d2fbc698d8c{letter-spacing:0.26em;}.b612d495-77b7-4754-9bff-4b06dbb0bfd2{fill:url(#fd3ed323-6ae3-419a-a068-ae2ecf672a5f);}</style><linearGradient id="faf5a768-c8c7-49fa-ba67-751bb92d2cff" x1="-174.9759" y1="668.2663" x2="-181.6084" y2="673.2004" gradientTransform="matrix(0, -29.6032, -88.8056, 0, 59881.6083, -5118.0111)" gradientUnits="userSpaceOnUse"><stop offset="0" stop-color="#17d1aa"/><stop offset="0.5834" stop-color="#229db7"/><stop offset="1" stop-color="#3154ca"/></linearGradient><linearGradient id="fd3ed323-6ae3-419a-a068-ae2ecf672a5f" x1="602.6131" y1="249.2625" x2="436.9708" y2="98.1459" gradientUnits="userSpaceOnUse"><stop offset="0" stop-color="#17d1aa" stop-opacity="0"/><stop offset="0.1867" stop-color="#17d1aa" stop-opacity="0.0119"/><stop offset="0.297" stop-color="#17d1aa" stop-opacity="0.0517"/><stop offset="0.3876" stop-color="#17d1aa" stop-opacity="0.1196"/><stop offset="0.4673" stop-color="#17d1aa" stop-opacity="0.2158"/><stop offset="0.5393" stop-color="#17d1aa" stop-opacity="0.3391"/><stop offset="0.5683" stop-color="#17d1aa" stop-opacity="0.4"/><stop offset="0.854" stop-color="#297bc0" stop-opacity="0.8113"/><stop offset="1" stop-color="#3154ca"/></linearGradient></defs><path class="b8f3cda8-cdf7-4c7b-9c4a-4dce292ccdfa" d="M204.4748,92.6569H138.1381V79.3429A9.3707,9.3707,0,0,1,147.4813,70h47.65a9.3706,9.3706,0,0,1,9.3432,9.3432Z"/><path class="b8f3cda8-cdf7-4c7b-9c4a-4dce292ccdfa" d="M389.9373,92.6569H323.6006V79.3429A9.3706,9.3706,0,0,1,332.9438,70h47.65a9.3707,9.3707,0,0,1,9.3432,9.3432Z"/><path class="f7315691-cff4-4b14-a287-417176a60c79" d="M357.9753,56.1612l8.0931-10.3368a.7008.7008,0,0,0-.5518-1.1328h-6.3649V33.2374s-.028-2.1305-1.7434-2.1305q-1.8261,0-1.8261,2.1305V44.6916h-5.8207a.7008.7008,0,0,0-.5629,1.1181l7.662,10.3368a.7007.7007,0,0,0,1.1147.0147Z"/><path id="bcca3c31-89c1-4468-b21e-204731956b43" data-name="Combined-Shape" class="b20cf0fe-3373-437a-b1bb-96d923ef72bb" d="M100.2071,212.4811V106.6939a19.5873,19.5873,0,0,1,19.5873-19.5874H515.4861a19.5874,19.5874,0,0,1,19.5874,19.5874V212.4811a19.5873,19.5873,0,0,1-19.5874,19.5873H119.7944A19.5873,19.5873,0,0,1,100.2071,212.4811Zm400.526-51.1258c0-17.1316-14.6193-31.0195-32.6531-31.0195s-32.653,13.8879-32.653,31.0195,14.6193,31.0195,32.653,31.0195S500.7331,178.4869,500.7331,161.3553Z"/><rect class="a72c9176-d1b4-47f8-958c-63478f211b71" x="136.0998" y="114.4972" width="259.3796" height="90.285" rx="6"/><rect class="b8f3cda8-cdf7-4c7b-9c4a-4dce292ccdfa" x="136.076" y="119.5343" width="253.8375" height="85.2511" rx="4"/><path class="ea9b9e8d-cde1-4c9c-890d-5f99f7b286f6" d="M370.9377,170.1969a.8137.8137,0,0,1-1.1467,0,.8055.8055,0,0,1,0-1.1419l10.083-10.0408-10.083-10.0409a.8056.8056,0,0,1,0-1.142.8138.8138,0,0,1,1.1467,0l10.6761,10.6118a.8055.8055,0,0,1,0,1.1419Z"/><path class="b9c62500-ef17-4d77-9621-cafc39fb7ea4" d="M370.9377,170.1969a.8137.8137,0,0,1-1.1467,0,.8055.8055,0,0,1,0-1.1419l10.083-10.0408-10.083-10.0409a.8056.8056,0,0,1,0-1.142.8138.8138,0,0,1,1.1467,0l10.6761,10.6118a.8055.8055,0,0,1,0,1.1419Z"/><text class="f0e2a22f-c0f4-420f-b203-b67fffb9540b" transform="translate(174.2775 153.8276)">A<tspan class="b6300da0-c464-499a-a0c0-2ffd0bc5cae6" x="13.3027" y="0">uxilia</tspan><tspan class="a1d350dc-2e52-4836-b2ef-a870f28fc194" x="62.8115" y="0">r</tspan><tspan class="bed91f97-0a50-4600-8133-d3ab74cc3360" x="70.4185" y="0">y data hash</tspan></text><text class="a07f310a-cde7-4572-a0a3-22038b88997a" transform="translate(179.0128 187.6401)">___________<tspan class="fea0697b-78e4-4a7b-93db-5d2fbc698d8c" x="163.3491" y="0">_</tspan></text><path id="b10c1f70-2f96-44a6-a9dc-80869e7bc974" data-name="Combined-Shape" class="b612d495-77b7-4754-9bff-4b06dbb0bfd2" d="M412.4211,121.0441a71.0946,71.0946,0,0,1,98.3451-20.9076q.1488.0966.2972.1941L747.9018,255.81a39.1747,39.1747,0,0,1,11.3568,54.0834l-35.1548,54.138a39.1747,39.1747,0,0,1-54.19,11.5205q-.0821-.0533-.1638-.1069L433.2384,220.18A71.8082,71.8082,0,0,1,412.4211,121.0441Zm96.5994,40.3112c0-21.48-18.33-38.8922-40.9405-38.8922s-40.94,17.4126-40.94,38.8922,18.33,38.8922,40.94,38.8922S509.0205,182.8349,509.0205,161.3553Z"/></svg>