<svg id="ae088e28-5837-4685-a058-8d84e0b50dcd" data-name="Layer 1" xmlns="http://www.w3.org/2000/svg" xmlns:xlink="http://www.w3.org/1999/xlink" viewBox="0 0 720 307"><defs><style>.abebc40a-6024-4328-b527-6fb32e00643a,.e4e356f3-6016-4375-8a71-c1552734859d,.e76ee99e-0e2d-4429-97a4-6aa334614658{fill:#2c2ecf;}.e4e356f3-6016-4375-8a71-c1552734859d{clip-rule:evenodd;}.abebc40a-6024-4328-b527-6fb32e00643a{fill-rule:evenodd;}.b708b83d-86d6-4725-bd78-5ed14039d086{fill:url(#e75393dd-9816-4c3f-8e4b-ab668ad69514);}.e79be565-08e6-4baf-a7d7-b9a0456e67ae{fill:url(#b958493d-4636-46a3-9813-fdfe8a63a7ea);}.fd812888-0894-401b-9e66-ed07bbdebda4{fill:#0d1ca0;}.f4cf9320-3ef4-4b1e-bc0c-d8519d4cd5bc,.f8fe2846-e4d6-40f9-8c14-df68bc0900c3{fill:#fff;}.f8fe2846-e4d6-40f9-8c14-df68bc0900c3{font-size:20px;font-family:Roboto-Medium, Roboto;font-weight:500;}.ec0469ac-0449-444e-b440-665b7182b1b7,.f8fe2846-e4d6-40f9-8c14-df68bc0900c3{letter-spacing:0.04em;}.e593deff-66ac-4c08-83cc-8f6baa600e1e{letter-spacing:0.0327em;}.ab1d20bf-853a-4d78-a05d-4702a9ae0e3f{letter-spacing:0.04em;}.bc06fb91-59c9-415b-8d35-3a5a9c8be626{letter-spacing:0.0302em;}.fcf74644-8763-4554-9113-e7b7b3128050{letter-spacing:0.0337em;}.b4c9394c-6097-496b-9623-b201f6b6112e{clip-path:url(#e5e6a088-2766-40e8-b27e-e32c0282eff7);}.f87e0884-9c7f-451d-b27b-39f5dad7a6ad{clip-path:url(#ba86ee0e-5fda-4218-bb7f-8108f08fd0b9);}</style><linearGradient id="e75393dd-9816-4c3f-8e4b-ab668ad69514" x1="-5293.6723" y1="-398.1134" x2="-5300.3048" y2="-393.1793" gradientTransform="matrix(0, -29.6032, -88.8056, 0, -34794.8537, -156646.2621)" gradientUnits="userSpaceOnUse"><stop offset="0" stop-color="#17d1aa"/><stop offset="0.5834" stop-color="#229db7"/><stop offset="1" stop-color="#3154ca"/></linearGradient><linearGradient id="b958493d-4636-46a3-9813-fdfe8a63a7ea" x1="626.6776" y1="250.7402" x2="461.0353" y2="99.6236" gradientUnits="userSpaceOnUse"><stop offset="0" stop-color="#17d1aa" stop-opacity="0"/><stop offset="0.1867" stop-color="#17d1aa" stop-opacity="0.0119"/><stop offset="0.297" stop-color="#17d1aa" stop-opacity="0.0517"/><stop offset="0.3876" stop-color="#17d1aa" stop-opacity="0.1196"/><stop offset="0.4673" stop-color="#17d1aa" stop-opacity="0.2158"/><stop offset="0.5393" stop-color="#17d1aa" stop-opacity="0.3391"/><stop offset="0.5683" stop-color="#17d1aa" stop-opacity="0.4"/><stop offset="0.854" stop-color="#297bc0" stop-opacity="0.8113"/><stop offset="1" stop-color="#3154ca"/></linearGradient><clipPath id="e5e6a088-2766-40e8-b27e-e32c0282eff7"><path class="e4e356f3-6016-4375-8a71-c1552734859d" d="M357.9753,1381.454l8.0931-10.3369a.7008.7008,0,0,0-.5518-1.1327h-6.3649V1358.53s-.028-2.1306-1.7434-2.1306q-1.8261,0-1.8261,2.1306v11.4542h-5.8207a.7007.7007,0,0,0-.5629,1.118l7.662,10.3369a.701.701,0,0,0,1.1147.0147Z"/></clipPath><clipPath id="ba86ee0e-5fda-4218-bb7f-8108f08fd0b9"><path class="e4e356f3-6016-4375-8a71-c1552734859d" d="M357.9753,705.9162l8.0931-10.3368a.7008.7008,0,0,0-.5518-1.1327h-6.3649V682.9924s-.028-2.13-1.7434-2.13q-1.8261,0-1.8261,2.13v11.4543h-5.8207a.7007.7007,0,0,0-.5629,1.118l7.662,10.3368a.7007.7007,0,0,0,1.1147.0147Z"/></clipPath></defs><path class="e76ee99e-0e2d-4429-97a4-6aa334614658" d="M228.5393,94.1346H162.2026V80.8206a9.3707,9.3707,0,0,1,9.3432-9.3432h47.65a9.3706,9.3706,0,0,1,9.3432,9.3432Z"/><path class="e76ee99e-0e2d-4429-97a4-6aa334614658" d="M414.0017,94.1346H347.6651V80.8206a9.3706,9.3706,0,0,1,9.3431-9.3432h47.65a9.3706,9.3706,0,0,1,9.3431,9.3432Z"/><path class="abebc40a-6024-4328-b527-6fb32e00643a" d="M382.04,57.6389l8.0931-10.3368a.7008.7008,0,0,0-.5518-1.1328h-6.3649V34.7151s-.028-2.13-1.7434-2.13q-1.8261,0-1.8261,2.13V46.1693H373.826a.7008.7008,0,0,0-.5629,1.1181l7.662,10.3368a.7007.7007,0,0,0,1.1147.0147Z"/><path id="aad2b56b-5416-4430-84f2-b2b9e1067ae9" data-name="Combined-Shape" class="b708b83d-86d6-4725-bd78-5ed14039d086" d="M124.2716,213.9588V108.1716a19.5873,19.5873,0,0,1,19.5873-19.5874H539.5506a19.5874,19.5874,0,0,1,19.5874,19.5874V213.9588a19.5873,19.5873,0,0,1-19.5874,19.5873H143.8589A19.5873,19.5873,0,0,1,124.2716,213.9588Zm400.526-51.1258c0-17.1316-14.6193-31.0195-32.6531-31.0195s-32.653,13.8879-32.653,31.0195,14.6192,31.0195,32.653,31.0195S524.7976,179.9646,524.7976,162.833Z"/><path id="eb3cef8d-323d-4064-829e-8c5aba50afac" data-name="Combined-Shape" class="e79be565-08e6-4baf-a7d7-b9a0456e67ae" d="M436.4856,122.5218a71.0946,71.0946,0,0,1,98.3451-20.9076q.1488.0966.2972.1941L771.9663,257.2874a39.1746,39.1746,0,0,1,11.3568,54.0833l-35.1548,54.1381a39.1747,39.1747,0,0,1-54.19,11.52q-.082-.0532-.1638-.1069L457.3029,221.6579A71.8081,71.8081,0,0,1,436.4856,122.5218ZM533.085,162.833c0-21.48-18.33-38.8922-40.9405-38.8922s-40.94,17.4126-40.94,38.8922,18.33,38.8922,40.94,38.8922S533.085,184.3126,533.085,162.833Z"/><rect class="fd812888-0894-401b-9e66-ed07bbdebda4" x="160.1643" y="115.9748" width="259.3796" height="90.285" rx="6"/><rect class="e76ee99e-0e2d-4429-97a4-6aa334614658" x="160.1405" y="121.012" width="253.8375" height="85.2511" rx="4"/><path class="f4cf9320-3ef4-4b1e-bc0c-d8519d4cd5bc" d="M185.6882,162.719l9.6169-9.6752a1.3134,1.3134,0,0,0,0-1.8516,1.3378,1.3378,0,0,0-1.8516,0l-9.6855,9.7266-9.6865-9.7266a1.3378,1.3378,0,0,0-1.8516,0,1.3157,1.3157,0,0,0,0,1.8516l9.6169,9.6752-9.6169,9.6753a1.3157,1.3157,0,0,0,0,1.8516,1.3378,1.3378,0,0,0,1.8516,0l9.6865-9.7266,9.6855,9.7266a1.3076,1.3076,0,0,0,2.2334-.9258,1.283,1.283,0,0,0-.3818-.9258Z"/><text class="f8fe2846-e4d6-40f9-8c14-df68bc0900c3" transform="translate(206.5363 155.3058)">Register Catalyst <tspan class="e593deff-66ac-4c08-83cc-8f6baa600e1e"><tspan x="31.2373" y="24">v</tspan><tspan class="ab1d20bf-853a-4d78-a05d-4702a9ae0e3f" x="41.7832" y="24">oting </tspan><tspan class="bc06fb91-59c9-415b-8d35-3a5a9c8be626" x="97.1694" y="24">k</tspan><tspan class="fcf74644-8763-4554-9113-e7b7b3128050" x="108.2134" y="24">e</tspan><tspan class="ec0469ac-0449-444e-b440-665b7182b1b7" x="119.6191" y="24">y?</tspan></tspan></text><path class="f4cf9320-3ef4-4b1e-bc0c-d8519d4cd5bc" d="M388.1225,171.7137a1.2985,1.2985,0,0,1-.9258-.3848l-10.6113-10.6758a1.313,1.313,0,0,1,0-1.8515,1.3365,1.3365,0,0,1,1.8506,0l9.63,9.67,14.7207-19.9707a1.3251,1.3251,0,0,1,.9737-.44h.0009a1.2926,1.2926,0,0,1,.9239.3847,1.3138,1.3138,0,0,1,0,1.8516l-15.59,20.9775A1.3234,1.3234,0,0,1,388.1225,171.7137Z"/><path class="abebc40a-6024-4328-b527-6fb32e00643a" d="M357.9753,1381.454l8.0931-10.3369a.7008.7008,0,0,0-.5518-1.1327h-6.3649V1358.53s-.028-2.1306-1.7434-2.1306q-1.8261,0-1.8261,2.1306v11.4542h-5.8207a.7007.7007,0,0,0-.5629,1.118l7.662,10.3369a.701.701,0,0,0,1.1147.0147Z"/><g class="b4c9394c-6097-496b-9623-b201f6b6112e"><rect class="e76ee99e-0e2d-4429-97a4-6aa334614658" x="-1095.9919" y="-187.9336" width="3363.5487" height="2391.8573"/></g><path class="abebc40a-6024-4328-b527-6fb32e00643a" d="M357.9753,705.9162l8.0931-10.3368a.7008.7008,0,0,0-.5518-1.1327h-6.3649V682.9924s-.028-2.13-1.7434-2.13q-1.8261,0-1.8261,2.13v11.4543h-5.8207a.7007.7007,0,0,0-.5629,1.118l7.662,10.3368a.7007.7007,0,0,0,1.1147.0147Z"/><g class="f87e0884-9c7f-451d-b27b-39f5dad7a6ad"><rect class="e76ee99e-0e2d-4429-97a4-6aa334614658" x="-1095.9919" y="-863.4713" width="3363.5487" height="2391.8573"/></g></svg>