<svg id="b05d929b-df88-49cc-a722-220d21a1944e" data-name="Layer 1" xmlns="http://www.w3.org/2000/svg" xmlns:xlink="http://www.w3.org/1999/xlink" viewBox="0 0 720 307"><defs><style>.a87fdb43-188d-41e3-a18a-c46e2ea98f72,.bdae5e32-cf4e-44c5-a61d-f75ad464e520,.e9fdcba4-5e1a-4d0f-8b3a-39db9a8054c0{fill:#2c2ecf;}.bdae5e32-cf4e-44c5-a61d-f75ad464e520{clip-rule:evenodd;}.a28ace5f-71dd-4d2d-b644-13f953692fa6,.b3e3d852-ae3d-4e90-8df8-3b58f910fd1b,.be1c9dae-4bd8-4501-899b-0471f93807be,.bf67e2b6-6288-4c8f-b4a8-cc5fb404a467{fill:#fff;}.ac40f7f0-db02-4d0a-967c-a039e979b800,.be1c9dae-4bd8-4501-899b-0471f93807be{stroke:#fff;stroke-miterlimit:10;}.a87fdb43-188d-41e3-a18a-c46e2ea98f72{fill-rule:evenodd;}.ef84ab55-6c96-4743-afec-cde70239de85{clip-path:url(#fdac53d0-c9d7-46ce-82b7-a0b6edd508eb);}.bd758af4-6494-4bc0-80da-b07309df7f22{clip-path:url(#a5cbb192-8827-4943-ba95-17483268075c);}.b111a74d-a637-4f83-8fa3-b1c02d8a1cf0{clip-path:url(#bdbe6615-ade9-4c35-b6cb-39fd91754ea4);}.a16a1e80-b2c7-414c-a80d-f9b248aba18b{clip-path:url(#aee47f24-8035-4f9d-94cd-d495866f1ae6);}.b09003f9-282e-4c48-98f7-b49cef4d2389{fill:url(#f0d3b0c4-83bd-4630-b1fa-3b50d9c7fe5f);}.bec0d53f-8b16-4b33-b781-e10652e64a2f{fill:#0d1ca0;}.f8d7f724-fca6-45a0-9449-f98c6f758501{clip-path:url(#ea575b56-7d72-4035-b0a0-0469cc128417);}.ac40f7f0-db02-4d0a-967c-a039e979b800{fill:none;}.b3e3d852-ae3d-4e90-8df8-3b58f910fd1b{font-size:19px;font-family:Roboto-Medium, Roboto;font-weight:500;letter-spacing:0.02em;}.e39c9910-f4b9-4f7a-9efe-c094fb3b227a{letter-spacing:0.0102em;}.e29f58df-eb89-48d7-b3fa-190b18d1c793{letter-spacing:0.0136em;}.a532ffa9-230e-43b5-8047-2b471fd45bae{letter-spacing:0.02em;}.a28ace5f-71dd-4d2d-b644-13f953692fa6{font-size:18px;font-family:MuseoSansCyrl-700, Museo Sans Cyrl;font-weight:700;letter-spacing:0.22em;}.a5054833-b789-4087-878c-399856c28b3c{letter-spacing:0.26em;}.f4ae213e-c509-494e-a172-95ddfcc5ac37{fill:url(#b6094e1a-8286-400c-8680-8ab021f6ed15);}.a36f21cf-27fc-433a-8e63-632827140548{clip-path:url(#a2f006ca-76b4-4781-b88d-8187c2e70484);}</style><clipPath id="fdac53d0-c9d7-46ce-82b7-a0b6edd508eb"><path class="bdae5e32-cf4e-44c5-a61d-f75ad464e520" d="M357.9753,1555.1054l8.0931-10.3368a.7008.7008,0,0,0-.5518-1.1328h-6.3649v-11.4542s-.028-2.1306-1.7434-2.1306q-1.8261,0-1.8261,2.1306v11.4542h-5.8207a.7007.7007,0,0,0-.5629,1.118l7.662,10.3369a.7007.7007,0,0,0,1.1147.0147Z"/></clipPath><clipPath id="a5cbb192-8827-4943-ba95-17483268075c"><path class="bdae5e32-cf4e-44c5-a61d-f75ad464e520" d="M357.9753,802.37l8.0931-10.3369a.7008.7008,0,0,0-.5518-1.1327h-6.3649V779.446s-.028-2.1306-1.7434-2.1306q-1.8261,0-1.8261,2.1306V790.9h-5.8207a.7007.7007,0,0,0-.5629,1.118l7.662,10.3369a.701.701,0,0,0,1.1147.0147Z"/></clipPath><clipPath id="bdbe6615-ade9-4c35-b6cb-39fd91754ea4"><path class="bdae5e32-cf4e-44c5-a61d-f75ad464e520" d="M357.9753,56.1612l8.0931-10.3368a.7008.7008,0,0,0-.5518-1.1328h-6.3649V33.2374s-.028-2.1305-1.7434-2.1305q-1.8261,0-1.8261,2.1305V44.6916h-5.8207a.7008.7008,0,0,0-.5629,1.1181l7.662,10.3368a.7007.7007,0,0,0,1.1147.0147Z"/></clipPath><clipPath id="aee47f24-8035-4f9d-94cd-d495866f1ae6"><rect class="e9fdcba4-5e1a-4d0f-8b3a-39db9a8054c0" x="-1095.9919" y="-1513.2263" width="3363.5487" height="2391.8573"/></clipPath><linearGradient id="f0d3b0c4-83bd-4630-b1fa-3b50d9c7fe5f" x1="-5338.391" y1="-1723.1352" x2="-5345.0234" y2="-1718.2011" gradientTransform="matrix(0, -29.6032, -88.8056, 0, -152488.3163, -157971.5549)" gradientUnits="userSpaceOnUse"><stop offset="0" stopColor="#17d1aa"/><stop offset="0.5834" stopColor="#229db7"/><stop offset="1" stopColor="#3154ca"/></linearGradient><clipPath id="ea575b56-7d72-4035-b0a0-0469cc128417"><path class="be1c9dae-4bd8-4501-899b-0471f93807be" d="M370.9377,170.1969a.8137.8137,0,0,1-1.1467,0,.8055.8055,0,0,1,0-1.1419l10.083-10.0408-10.083-10.0409a.8056.8056,0,0,1,0-1.142.8138.8138,0,0,1,1.1467,0l10.6761,10.6118a.8055.8055,0,0,1,0,1.1419Z"/></clipPath><linearGradient id="b6094e1a-8286-400c-8680-8ab021f6ed15" x1="602.6131" y1="249.2625" x2="436.9708" y2="98.1459" gradientUnits="userSpaceOnUse"><stop offset="0" stopColor="#17d1aa" stop-opacity="0"/><stop offset="0.1867" stopColor="#17d1aa" stop-opacity="0.0119"/><stop offset="0.297" stopColor="#17d1aa" stop-opacity="0.0517"/><stop offset="0.3876" stopColor="#17d1aa" stop-opacity="0.1196"/><stop offset="0.4673" stopColor="#17d1aa" stop-opacity="0.2158"/><stop offset="0.5393" stopColor="#17d1aa" stop-opacity="0.3391"/><stop offset="0.5683" stopColor="#17d1aa" stop-opacity="0.4"/><stop offset="0.854" stopColor="#297bc0" stop-opacity="0.8113"/><stop offset="1" stopColor="#3154ca"/></linearGradient><clipPath id="a2f006ca-76b4-4781-b88d-8187c2e70484"><path class="bdae5e32-cf4e-44c5-a61d-f75ad464e520" d="M357.9753-619.3765l8.0931-10.3369a.7007.7007,0,0,0-.12-.9837.701.701,0,0,0-.432-.149h-6.3649V-642.3s-.028-2.1306-1.7434-2.1306q-1.8261,0-1.8261,2.1306v11.4542h-5.8207a.7007.7007,0,0,0-.7007.7008.7005.7005,0,0,0,.1378.4172l7.662,10.3369a.7007.7007,0,0,0,.98.1456A.7008.7008,0,0,0,357.9753-619.3765Z"/></clipPath></defs><path class="a87fdb43-188d-41e3-a18a-c46e2ea98f72" d="M357.9753,1555.1054l8.0931-10.3368a.7008.7008,0,0,0-.5518-1.1328h-6.3649v-11.4542s-.028-2.1306-1.7434-2.1306q-1.8261,0-1.8261,2.1306v11.4542h-5.8207a.7007.7007,0,0,0-.5629,1.118l7.662,10.3369a.7007.7007,0,0,0,1.1147.0147Z"/><g class="ef84ab55-6c96-4743-afec-cde70239de85"><rect class="e9fdcba4-5e1a-4d0f-8b3a-39db9a8054c0" x="-1095.9919" y="-14.2822" width="3363.5487" height="2391.8573"/></g><path class="a87fdb43-188d-41e3-a18a-c46e2ea98f72" d="M357.9753,802.37l8.0931-10.3369a.7008.7008,0,0,0-.5518-1.1327h-6.3649V779.446s-.028-2.1306-1.7434-2.1306q-1.8261,0-1.8261,2.1306V790.9h-5.8207a.7007.7007,0,0,0-.5629,1.118l7.662,10.3369a.701.701,0,0,0,1.1147.0147Z"/><g class="bd758af4-6494-4bc0-80da-b07309df7f22"><rect class="e9fdcba4-5e1a-4d0f-8b3a-39db9a8054c0" x="-1095.9919" y="-767.0178" width="3363.5487" height="2391.8573"/></g><path class="e9fdcba4-5e1a-4d0f-8b3a-39db9a8054c0" d="M204.4748,92.6569H138.1381V79.3429A9.3707,9.3707,0,0,1,147.4813,70h47.65a9.3706,9.3706,0,0,1,9.3432,9.3432Z"/><path class="e9fdcba4-5e1a-4d0f-8b3a-39db9a8054c0" d="M389.9373,92.6569H323.6006V79.3429A9.3706,9.3706,0,0,1,332.9438,70h47.65a9.3707,9.3707,0,0,1,9.3432,9.3432Z"/><path class="a87fdb43-188d-41e3-a18a-c46e2ea98f72" d="M357.9753,56.1612l8.0931-10.3368a.7008.7008,0,0,0-.5518-1.1328h-6.3649V33.2374s-.028-2.1305-1.7434-2.1305q-1.8261,0-1.8261,2.1305V44.6916h-5.8207a.7008.7008,0,0,0-.5629,1.1181l7.662,10.3368a.7007.7007,0,0,0,1.1147.0147Z"/><g class="b111a74d-a637-4f83-8fa3-b1c02d8a1cf0"><rect class="e9fdcba4-5e1a-4d0f-8b3a-39db9a8054c0" x="-1095.9919" y="-1513.2263" width="3363.5487" height="2391.8573"/><g class="a16a1e80-b2c7-414c-a80d-f9b248aba18b"><rect class="e9fdcba4-5e1a-4d0f-8b3a-39db9a8054c0" x="337.3818" y="19.4279" width="40.5146" height="48.6811"/></g></g><path id="bc5e3843-55f9-474a-8b8e-809e7b7008ef" data-name="Combined-Shape" class="b09003f9-282e-4c48-98f7-b49cef4d2389" d="M100.2071,212.4811V106.6939a19.5873,19.5873,0,0,1,19.5873-19.5874H515.4861a19.5874,19.5874,0,0,1,19.5874,19.5874V212.4811a19.5873,19.5873,0,0,1-19.5874,19.5873H119.7944A19.5873,19.5873,0,0,1,100.2071,212.4811Zm400.526-51.1258c0-17.1316-14.6193-31.0195-32.6531-31.0195s-32.653,13.8879-32.653,31.0195,14.6193,31.0195,32.653,31.0195S500.7331,178.4869,500.7331,161.3553Z"/><rect class="bec0d53f-8b16-4b33-b781-e10652e64a2f" x="136.0998" y="114.4972" width="259.3796" height="90.285" rx="6"/><rect class="e9fdcba4-5e1a-4d0f-8b3a-39db9a8054c0" x="136.076" y="119.5343" width="253.8375" height="85.2511" rx="4"/><path class="bf67e2b6-6288-4c8f-b4a8-cc5fb404a467" d="M370.9377,170.1969a.8137.8137,0,0,1-1.1467,0,.8055.8055,0,0,1,0-1.1419l10.083-10.0408-10.083-10.0409a.8056.8056,0,0,1,0-1.142.8138.8138,0,0,1,1.1467,0l10.6761,10.6118a.8055.8055,0,0,1,0,1.1419Z"/><g class="f8d7f724-fca6-45a0-9449-f98c6f758501"><rect class="be1c9dae-4bd8-4501-899b-0471f93807be" x="360.7699" y="138.8112" width="29.865" height="40.4059"/></g><path class="ac40f7f0-db02-4d0a-967c-a039e979b800" d="M370.9377,170.1969a.8137.8137,0,0,1-1.1467,0,.8055.8055,0,0,1,0-1.1419l10.083-10.0408-10.083-10.0409a.8056.8056,0,0,1,0-1.142.8138.8138,0,0,1,1.1467,0l10.6761,10.6118a.8055.8055,0,0,1,0,1.1419Z"/><text class="b3e3d852-ae3d-4e90-8df8-3b58f910fd1b" transform="translate(211.1545 153.8284)">Staking <tspan class="e39c9910-f4b9-4f7a-9efe-c094fb3b227a" x="71.9429" y="0">k</tspan><tspan class="e29f58df-eb89-48d7-b3fa-190b18d1c793" x="82.0547" y="0">e</tspan><tspan class="a532ffa9-230e-43b5-8047-2b471fd45bae" x="92.5098" y="0">y</tspan></text><text class="a28ace5f-71dd-4d2d-b644-13f953692fa6" transform="translate(179.0128 187.6411)">___________<tspan class="a5054833-b789-4087-878c-399856c28b3c" x="163.3491" y="0">_</tspan></text><path id="a9972fef-9041-4222-81f9-c726401f3e3b" data-name="Combined-Shape" class="f4ae213e-c509-494e-a172-95ddfcc5ac37" d="M412.4211,121.0441a71.0946,71.0946,0,0,1,98.3451-20.9076q.1488.0966.2972.1941L747.9018,255.81a39.1747,39.1747,0,0,1,11.3568,54.0834l-35.1548,54.138a39.1747,39.1747,0,0,1-54.19,11.5205q-.0821-.0533-.1638-.1069L433.2384,220.18A71.8082,71.8082,0,0,1,412.4211,121.0441Zm96.5994,40.3112c0-21.48-18.33-38.8922-40.9405-38.8922s-40.94,17.4126-40.94,38.8922,18.33,38.8922,40.94,38.8922S509.0205,182.8349,509.0205,161.3553Z"/><path class="a87fdb43-188d-41e3-a18a-c46e2ea98f72" d="M357.9753-619.3765l8.0931-10.3369a.7007.7007,0,0,0-.12-.9837.701.701,0,0,0-.432-.149h-6.3649V-642.3s-.028-2.1306-1.7434-2.1306q-1.8261,0-1.8261,2.1306v11.4542h-5.8207a.7007.7007,0,0,0-.7007.7008.7005.7005,0,0,0,.1378.4172l7.662,10.3369a.7007.7007,0,0,0,.98.1456A.7008.7008,0,0,0,357.9753-619.3765Z"/><g class="a36f21cf-27fc-433a-8e63-632827140548"><rect class="e9fdcba4-5e1a-4d0f-8b3a-39db9a8054c0" x="-1095.9919" y="-2188.7641" width="3363.5487" height="2391.8573"/></g></svg>