<svg id="ba80e0a5-2172-4539-a8f4-9a4ec6417f12" data-name="Layer 1" xmlns="http://www.w3.org/2000/svg" xmlns:xlink="http://www.w3.org/1999/xlink" viewBox="0 0 720 307"><defs><style>.a10c5e84-6c11-4d0f-acd2-c2f6f704f1b5,.e28ab711-8029-4e40-89f3-c19e19a3524e,.fc56d3be-0938-4963-adf4-9dc684bb34f0{fill:#2c2ecf;}.e28ab711-8029-4e40-89f3-c19e19a3524e{clipRule:evenodd;}.b1828511-c8de-4331-8251-e2654f6e593c,.b1af612a-47d7-455e-823e-98081aa05f35,.bcdb3be5-c62f-4e7c-a022-506a5e5079d3,.ea0131e0-849a-497f-8a89-61ac6a57f9f1{fill:#fff;}.ae8eb6e3-14ec-446b-ae75-3d04a222105b,.b1af612a-47d7-455e-823e-98081aa05f35{stroke:#fff;stroke-miterlimit:10;}.a10c5e84-6c11-4d0f-acd2-c2f6f704f1b5{fillRule:evenodd;}.a82194d4-d9eb-4500-a679-b372712e121e{clip-path:url(#a1997eac-2038-48d5-8010-f7e9ecb495f6);}.be3a0a0a-d2d3-4700-b387-6d9eacf9a919{clip-path:url(#bb57d92f-32c4-4352-a8c6-4ff1aa29280d);}.fe4b0a32-2357-4e95-9389-d4676584e50a{fill:url(#ee31d3a8-cb3a-4def-b747-a8083b58a2f5);}.f845cbeb-5c46-4e2d-a404-5d0aa2d32d66{fill:#0d1ca0;}.f45c9743-6ae0-43df-bfc1-a73039ba9b1a{clip-path:url(#b05925f8-37ad-4d67-89bf-e9138456d044);}.ae8eb6e3-14ec-446b-ae75-3d04a222105b{fill:none;}.fbf3b286-1bee-417e-ba59-9b27ffaa9758{clip-path:url(#e3d2918e-9305-4e02-adb4-fc7b4a12fff6);}.ea0131e0-849a-497f-8a89-61ac6a57f9f1{font-size:19px;font-family:Roboto-Medium, Roboto;font-weight:500;letter-spacing:0.02em;}.b1828511-c8de-4331-8251-e2654f6e593c{font-size:18px;font-family:MuseoSansCyrl-700, Museo Sans Cyrl;font-weight:700;letter-spacing:0.22em;}.b53bbe5a-af91-433a-bbf0-e814b82a9cac{letter-spacing:0.26em;}.e81779bc-57eb-4b95-a0c1-a6cdc8b2eeb0{fill:url(#a06123c9-19e9-498a-84ab-74d72b315112);}</style><clipPath id="a1997eac-2038-48d5-8010-f7e9ecb495f6"><path class="e28ab711-8029-4e40-89f3-c19e19a3524e" d="M357.9753,56.1612l8.0931-10.3368a.7008.7008,0,0,0-.5518-1.1328h-6.3649V33.2374s-.028-2.1305-1.7434-2.1305q-1.8261,0-1.8261,2.1305V44.6916h-5.8207a.7008.7008,0,0,0-.5629,1.1181l7.662,10.3368a.7007.7007,0,0,0,1.1147.0147Z"/></clipPath><clipPath id="bb57d92f-32c4-4352-a8c6-4ff1aa29280d"><rect class="fc56d3be-0938-4963-adf4-9dc684bb34f0" x="-1095.9919" y="-1513.2263" width="3363.5487" height="2391.8573"/></clipPath><linearGradient id="ee31d3a8-cb3a-4def-b747-a8083b58a2f5" x1="-174.9759" y1="668.2663" x2="-181.6084" y2="673.2004" gradientTransform="matrix(0, -29.6032, -88.8056, 0, 59881.6083, -5118.0111)" gradientUnits="userSpaceOnUse"><stop offset="0" stopColor="#17d1aa"/><stop offset="0.5834" stopColor="#229db7"/><stop offset="1" stopColor="#3154ca"/></linearGradient><clipPath id="b05925f8-37ad-4d67-89bf-e9138456d044"><path class="b1af612a-47d7-455e-823e-98081aa05f35" d="M370.9377,170.1969a.8137.8137,0,0,1-1.1467,0,.8055.8055,0,0,1,0-1.1419l10.083-10.0408-10.083-10.0409a.8056.8056,0,0,1,0-1.142.8138.8138,0,0,1,1.1467,0l10.6761,10.6118a.8055.8055,0,0,1,0,1.1419Z"/></clipPath><clipPath id="e3d2918e-9305-4e02-adb4-fc7b4a12fff6"><path class="b1af612a-47d7-455e-823e-98081aa05f35" d="M160.9233,147.8307a.8137.8137,0,0,1,1.1467,0,.8057.8057,0,0,1,0,1.1419l-10.083,10.0408,10.083,10.0409a.8055.8055,0,0,1,0,1.1419.8139.8139,0,0,1-1.1467,0l-10.6761-10.6119a.8055.8055,0,0,1,0-1.1419Z"/></clipPath><linearGradient id="a06123c9-19e9-498a-84ab-74d72b315112" x1="602.6131" y1="249.2625" x2="436.9708" y2="98.1459" gradientUnits="userSpaceOnUse"><stop offset="0" stopColor="#17d1aa" stop-opacity="0"/><stop offset="0.1867" stopColor="#17d1aa" stop-opacity="0.0119"/><stop offset="0.297" stopColor="#17d1aa" stop-opacity="0.0517"/><stop offset="0.3876" stopColor="#17d1aa" stop-opacity="0.1196"/><stop offset="0.4673" stopColor="#17d1aa" stop-opacity="0.2158"/><stop offset="0.5393" stopColor="#17d1aa" stop-opacity="0.3391"/><stop offset="0.5683" stopColor="#17d1aa" stop-opacity="0.4"/><stop offset="0.854" stopColor="#297bc0" stop-opacity="0.8113"/><stop offset="1" stopColor="#3154ca"/></linearGradient></defs><path class="fc56d3be-0938-4963-adf4-9dc684bb34f0" d="M204.4748,92.6569H138.1381V79.3429A9.3707,9.3707,0,0,1,147.4813,70h47.65a9.3706,9.3706,0,0,1,9.3432,9.3432Z"/><path class="fc56d3be-0938-4963-adf4-9dc684bb34f0" d="M389.9373,92.6569H323.6006V79.3429A9.3706,9.3706,0,0,1,332.9438,70h47.65a9.3707,9.3707,0,0,1,9.3432,9.3432Z"/><path class="a10c5e84-6c11-4d0f-acd2-c2f6f704f1b5" d="M357.9753,56.1612l8.0931-10.3368a.7008.7008,0,0,0-.5518-1.1328h-6.3649V33.2374s-.028-2.1305-1.7434-2.1305q-1.8261,0-1.8261,2.1305V44.6916h-5.8207a.7008.7008,0,0,0-.5629,1.1181l7.662,10.3368a.7007.7007,0,0,0,1.1147.0147Z"/><g class="a82194d4-d9eb-4500-a679-b372712e121e"><rect class="fc56d3be-0938-4963-adf4-9dc684bb34f0" x="-1095.9919" y="-1513.2263" width="3363.5487" height="2391.8573"/><g class="be3a0a0a-d2d3-4700-b387-6d9eacf9a919"><rect class="fc56d3be-0938-4963-adf4-9dc684bb34f0" x="337.3818" y="19.4279" width="40.5146" height="48.6811"/></g></g><path id="bb0e5c95-c2a0-4d40-b4b9-4bc4e7d77f25" data-name="Combined-Shape" class="fe4b0a32-2357-4e95-9389-d4676584e50a" d="M100.2071,212.4811V106.6939a19.5873,19.5873,0,0,1,19.5873-19.5874H515.4861a19.5874,19.5874,0,0,1,19.5874,19.5874V212.4811a19.5873,19.5873,0,0,1-19.5874,19.5873H119.7944A19.5873,19.5873,0,0,1,100.2071,212.4811Zm400.526-51.1258c0-17.1316-14.6193-31.0195-32.6531-31.0195s-32.653,13.8879-32.653,31.0195,14.6193,31.0195,32.653,31.0195S500.7331,178.4869,500.7331,161.3553Z"/><rect class="f845cbeb-5c46-4e2d-a404-5d0aa2d32d66" x="136.0998" y="114.4972" width="259.3796" height="90.285" rx="6"/><rect class="fc56d3be-0938-4963-adf4-9dc684bb34f0" x="136.076" y="119.5343" width="253.8375" height="85.2511" rx="4"/><path class="bcdb3be5-c62f-4e7c-a022-506a5e5079d3" d="M370.9377,170.1969a.8137.8137,0,0,1-1.1467,0,.8055.8055,0,0,1,0-1.1419l10.083-10.0408-10.083-10.0409a.8056.8056,0,0,1,0-1.142.8138.8138,0,0,1,1.1467,0l10.6761,10.6118a.8055.8055,0,0,1,0,1.1419Z"/><g class="f45c9743-6ae0-43df-bfc1-a73039ba9b1a"><rect class="b1af612a-47d7-455e-823e-98081aa05f35" x="360.7699" y="138.8112" width="29.865" height="40.4059"/></g><path class="ae8eb6e3-14ec-446b-ae75-3d04a222105b" d="M370.9377,170.1969a.8137.8137,0,0,1-1.1467,0,.8055.8055,0,0,1,0-1.1419l10.083-10.0408-10.083-10.0409a.8056.8056,0,0,1,0-1.142.8138.8138,0,0,1,1.1467,0l10.6761,10.6118a.8055.8055,0,0,1,0,1.1419Z"/><path class="bcdb3be5-c62f-4e7c-a022-506a5e5079d3" d="M160.9233,147.8307a.8137.8137,0,0,1,1.1467,0,.8057.8057,0,0,1,0,1.1419l-10.083,10.0408,10.083,10.0409a.8055.8055,0,0,1,0,1.1419.8139.8139,0,0,1-1.1467,0l-10.6761-10.6119a.8055.8055,0,0,1,0-1.1419Z"/><g class="fbf3b286-1bee-417e-ba59-9b27ffaa9758"><rect class="b1af612a-47d7-455e-823e-98081aa05f35" x="141.2261" y="138.8105" width="29.865" height="40.4058"/></g><path class="ae8eb6e3-14ec-446b-ae75-3d04a222105b" d="M160.9233,147.8307a.8137.8137,0,0,1,1.1467,0,.8057.8057,0,0,1,0,1.1419l-10.083,10.0408,10.083,10.0409a.8055.8055,0,0,1,0,1.1419.8139.8139,0,0,1-1.1467,0l-10.6761-10.6119a.8055.8055,0,0,1,0-1.1419Z"/><text class="ea0131e0-849a-497f-8a89-61ac6a57f9f1" transform="translate(233.7672 153.8284)">Nonce</text><text class="b1828511-c8de-4331-8251-e2654f6e593c" transform="translate(179.0128 187.6409)">___________<tspan class="b53bbe5a-af91-433a-bbf0-e814b82a9cac" x="163.3491" y="0">_</tspan></text><path id="b46cc4a1-bd2f-442e-8763-eae9847e0f32" data-name="Combined-Shape" class="e81779bc-57eb-4b95-a0c1-a6cdc8b2eeb0" d="M412.4211,121.0441a71.0946,71.0946,0,0,1,98.3451-20.9076q.1488.0966.2972.1941L747.9018,255.81a39.1747,39.1747,0,0,1,11.3568,54.0834l-35.1548,54.138a39.1747,39.1747,0,0,1-54.19,11.5205q-.0821-.0533-.1638-.1069L433.2384,220.18A71.8082,71.8082,0,0,1,412.4211,121.0441Zm96.5994,40.3112c0-21.48-18.33-38.8922-40.9405-38.8922s-40.94,17.4126-40.94,38.8922,18.33,38.8922,40.94,38.8922S509.0205,182.8349,509.0205,161.3553Z"/></svg>