<svg xmlns="http://www.w3.org/2000/svg" width="20" height="20">
  <path fill="#2249BE" fill-rule="evenodd" d="M15.158 14.053h-2.176v-3.466c0-.977-.364-1.466-1.092-1.466-.277 0-.51.076-.698.229-.19.152-.33.337-.424.556-.045.112-.066.286-.066.522v3.625H8.526c.019-3.91.019-6.072 0-6.483h2.176v.915c.457-.71 1.107-1.064 1.95-1.064.754 0 1.36.246 1.819.737.458.493.687 1.218.687 2.176v3.719zm-8.042-6.95c-.205.212-.474.318-.809.318H6.3c-.324 0-.585-.106-.787-.318a1.096 1.096 0 0 1-.301-.788c0-.319.103-.583.31-.79.207-.21.474-.314.803-.314.329 0 .592.104.79.313.199.208.301.472.307.791 0 .314-.102.576-.305.788zm-1.905 6.95h2.21V7.42h-2.21v6.632zM16.578 3.79A2.592 2.592 0 0 0 14.675 3h-8.98c-.742 0-1.377.263-1.904.79A2.593 2.593 0 0 0 3 5.694v8.98c0 .742.263 1.377.791 1.903a2.592 2.592 0 0 0 1.903.791h8.981a2.59 2.59 0 0 0 1.903-.79c.527-.527.79-1.162.79-1.904v-8.98c0-.742-.263-1.377-.79-1.904z"/>
</svg>
