<svg xmlns="http://www.w3.org/2000/svg" width="20" height="20">
  <path fill="#2249BE" fill-rule="evenodd" d="M16.631 6.828a5.35 5.35 0 0 1-1.606.465 2.943 2.943 0 0 0 1.23-1.633 5.452 5.452 0 0 1-1.78.717 2.723 2.723 0 0 0-2.04-.933c-1.546 0-2.8 1.323-2.8 2.953 0 .231.025.457.072.674-2.325-.124-4.387-1.3-5.767-3.087a3.06 3.06 0 0 0-.379 1.484c0 1.025.495 1.93 1.245 2.459a2.68 2.68 0 0 1-1.267-.37v.036c0 1.43.964 2.625 2.245 2.896a2.678 2.678 0 0 1-1.265.05c.356 1.173 1.39 2.028 2.614 2.051a5.437 5.437 0 0 1-4.144 1.222c1.24.839 2.71 1.33 4.29 1.33 5.148 0 7.962-4.502 7.962-8.406l-.01-.382a5.75 5.75 0 0 0 1.4-1.526"/>
</svg>
