<svg xmlns="http://www.w3.org/2000/svg" xmlns:xlink="http://www.w3.org/1999/xlink" width="45" height="40">
  <defs>
    <path id="a" d="M.095.122h22.837v19.835H.095z"/>
    <path id="c" d="M.543.479v.848c0 .011 0 .022.005.027 2.469 1.61 4.92 3.221 7.383 4.832l1.002-.657A5181.952 5181.952 0 0 1 .543.039v.44z"/>
    <path id="e" d="M.218.581c.108.068.193.126.283.185.527.337 1.054.68 1.582 1.018l1.563 1.013c.488.317.98.639 1.468.955.464.301.935.597 1.399.903.052.031.086.031.136 0 .375-.243.755-.475 1.133-.717.93-.597 1.859-1.194 2.789-1.785.674-.432 1.354-.865 2.028-1.293.141-.089.277-.179.425-.274h-2.023c-.991.628-1.978 1.266-2.975 1.9-.453.291-.907.57-1.36.86-.062.037-.101.043-.164 0-.556-.359-1.116-.718-1.677-1.076-.584-.386-1.167-.771-1.757-1.151L2.235.581H.218z"/>
    <path id="g" d="M.543.344V1.6c0 .01.006.016.006.026C2.255 2.692 3.96 3.754 5.677 4.825h.006l1.042-.661A8377.649 8377.649 0 0 1 .554.318C.549.333.543.339.543.344z"/>
    <path id="i" d="M4.252.039L.725 2.285c.016.02.027.03.038.039l.893.579c.006.006.022.006.033.006.851-.54 1.702-1.084 2.558-1.623.005-.006.005-.015.01-.02V.039h-.005z"/>
    <path id="k" d="M.933 1.818c.351.247.69.488 1.028.729l.296-.205V.909c-.447.306-.883.608-1.324.909z"/>
  </defs>
  <g fill="none" fill-rule="evenodd" stroke-width=".1">
    <path fill="#FFF" d="M9.176 32.297l1.472.32v1.588h-.616v-1.092l-.853-.186c.124 1.252.92 2.244 1.93 2.408v-5.488c-1.022.166-1.823 1.178-1.933 2.45"/>
    <path fill="#FFF" d="M8.554 32.79l-.963-.21c0 .043-.008.082-.008.124 0 2.272 1.58 4.113 3.526 4.113v-.848c-1.386-.167-2.472-1.515-2.555-3.178M7.649 31.964l.919.2c.143-1.332.93-2.43 1.986-2.817l-.817-.433c-.021.01-.04.025-.06.035l-3.066.64L4.9 28.059l.844-1.845-.336-.197-1.402 1.935-.178.247.246.275 1.948 2.176.202.225.332-.063 1.578-.302a4.547 4.547 0 0 0-.485 1.455M13.69 32.942l-.753.17v1.093h-.615v-1.586l1.373-.31c-.106-1.277-.909-2.295-1.934-2.462v5.488c1.006-.164 1.8-1.148 1.93-2.393"/>
    <path fill="#FFF" d="M14.315 32.8c-.087 1.66-1.17 3.003-2.554 3.169v.848c1.947 0 3.526-1.841 3.526-4.113 0-.041-.007-.08-.008-.12l-.964.217zM18.831 27.951l-1.4-1.935-.338.196.844 1.846-1.71 1.532-3.017-.63c-.026-.014-.05-.033-.077-.047l-.04.022-.01-.002-.002.008-.765.406c1.057.39 1.847 1.49 1.987 2.826l.92-.208a4.565 4.565 0 0 0-.484-1.45l1.542.295.333.064.201-.226 1.948-2.175.247-.275-.179-.247z"/>
    <g transform="translate(21 .878)">
      <mask id="b" fill="#fff">
        <use xlink:href="#a"/>
      </mask>
      <path fill="#FFF" d="M21.932 17.457c0 .827-.673 1.5-1.5 1.5H2.595c-.828 0-1.5-.673-1.5-1.5V5.673c0-.827.672-1.5 1.5-1.5h17.837c.827 0 1.5.673 1.5 1.5v11.784zM16.671 1.151c.311-.073.636-.006.87.178.099.08.266.25.266.507v1.337H8.082l8.589-2.022zm3.761 2.022h-1.625V1.836a1.65 1.65 0 0 0-.645-1.29 2.033 2.033 0 0 0-1.721-.369L3.784 3.158l-.059.015h-1.13a2.503 2.503 0 0 0-2.5 2.5v11.784c0 1.378 1.121 2.5 2.5 2.5h17.837c1.378 0 2.5-1.122 2.5-2.5V5.673c0-1.378-1.122-2.5-2.5-2.5z" mask="url(#b)"/>
    </g>
    <path fill="#FFF" d="M27.543 9.917v1.288c0 .01 0 .021.005.026 2.469 1.611 4.92 3.222 7.383 4.833l1.002-.657a5181.952 5181.952 0 0 1-8.39-5.49"/>
    <g transform="translate(27 9.878)">
      <mask id="d" fill="#fff">
        <use xlink:href="#c"/>
      </mask>
      <path fill="#FFF" d="M-4.766 285H405.02V-6.404H-4.766z" mask="url(#d)"/>
      <path fill="#FFF" d="M-.88 7.609h11.236v-8.993H-.88z" mask="url(#d)"/>
    </g>
    <path fill="#FFF" d="M34.026 9.364c-.453.29-.907.57-1.36.86-.062.037-.102.043-.164 0-.556-.36-1.117-.717-1.678-1.076-.583-.386-1.167-.771-1.756-1.151-.278-.18-.555-.36-.833-.538h-2.017l.283.185c.527.338 1.054.68 1.581 1.018l1.564 1.014 1.467.955c.465.3.935.596 1.4.902.051.032.085.032.136 0 .374-.243.754-.475 1.133-.717A994.925 994.925 0 0 1 38.6 7.739l.425-.274h-2.023c-.992.628-1.978 1.266-2.975 1.899"/>
    <g transform="translate(26 6.878)">
      <mask id="f" fill="#fff">
        <use xlink:href="#e"/>
      </mask>
      <path fill="#FFF" d="M-3.766 288H406.02V-3.404H-3.766z" mask="url(#f)"/>
      <path fill="#FFF" d="M-1.205 6.101h15.651V-.842H-1.205z" mask="url(#f)"/>
    </g>
    <path fill="#FFF" d="M27.555 13.196c-.006.016-.012.02-.012.026v1.256c0 .01.006.016.006.026 1.706 1.067 3.41 2.128 5.129 3.2h.005l1.042-.662-6.17-3.846"/>
    <g transform="translate(27 12.878)">
      <mask id="h" fill="#fff">
        <use xlink:href="#g"/>
      </mask>
      <path fill="#FFF" d="M-4.766 282H405.02V-9.404H-4.766z" mask="url(#h)"/>
      <path fill="#FFF" d="M-.88 6.248h9.028v-7.354H-.88z" mask="url(#h)"/>
    </g>
    <path fill="#FFF" d="M37.252 9.917c-1.185.752-2.354 1.5-3.527 2.246.016.02.027.03.037.04.297.192.598.385.894.578.006.005.022.005.033.005.851-.539 1.701-1.083 2.558-1.622.005-.006.005-.016.01-.02V9.917h-.005z"/>
    <g transform="translate(33 9.878)">
      <mask id="j" fill="#fff">
        <use xlink:href="#i"/>
      </mask>
      <path fill="#FFF" d="M-10.766 285H399.02V-6.404H-10.766z" mask="url(#j)"/>
      <path fill="#FFF" d="M-.698 4.331H5.68v-5.714H-.698z" mask="url(#j)"/>
    </g>
    <path fill="#FFF" d="M37.258 12.786c-.448.307-.883.608-1.325.91.35.247.69.488 1.029.73l.296-.206v-1.434z"/>
    <g transform="translate(35 11.878)">
      <mask id="l" fill="#fff">
        <use xlink:href="#k"/>
      </mask>
      <path fill="#FFF" d="M-12.766 283H397.02V-8.404H-12.766z" mask="url(#l)"/>
      <path fill="#FFF" d="M-.49 3.97h4.17V-.515H-.49z" mask="url(#l)"/>
    </g>
    <g fill="#FFF">
      <path d="M21.837 37.308c0 .827-.673 1.5-1.5 1.5H2.5c-.828 0-1.5-.673-1.5-1.5V25.525c0-.827.672-1.5 1.5-1.5h17.837c.827 0 1.5.673 1.5 1.5v11.783zm-5.26-16.306a1.03 1.03 0 0 1 .87.179c.098.078.265.249.265.506v1.338H7.987l8.59-2.023zm3.76 2.023h-1.625v-1.338c0-.495-.235-.966-.645-1.29a2.035 2.035 0 0 0-1.72-.368L3.688 23.01l-.059.015H2.5a2.502 2.502 0 0 0-2.5 2.5v11.783c0 1.378 1.121 2.5 2.5 2.5h17.837c1.378 0 2.5-1.122 2.5-2.5V25.525c0-1.379-1.122-2.5-2.5-2.5zM32.417 23.41l-3.515 3.515.743.742 2.247-2.247h.025v3.856c0 1.93-1.57 3.5-3.5 3.5h-3.083v1h3.083c2.481 0 4.5-2.018 4.5-4.5V25.42h.025l2.248 2.248.743-.743-3.516-3.515z"/>
    </g>
  </g>
</svg>
