<?xml version="1.0" encoding="UTF-8"?>
<svg width="70px" height="55px" viewBox="0 0 70 55" version="1.1" xmlns="http://www.w3.org/2000/svg" xmlns:xlink="http://www.w3.org/1999/xlink">
    <!-- Generator: Sketch 51.1 (57501) - http://www.bohemiancoding.com/sketch -->
    <title>daedalus-simple</title>
    <desc>Created with Sketch.</desc>
    <defs></defs>
    <g id="Symbols" stroke="none" stroke-width="1" fill="none" fill-rule="evenodd">
        <g id="left-menu/dark/daedalus-import" transform="translate(-49.000000, -393.000000)" fill="#DAA49A" fill-rule="nonzero">
            <g id="menu">
                <g id="main-menu" transform="translate(40.000000, 42.000000)">
                    <g id="daedalus-ic" transform="translate(0.000000, 334.000000)">
                        <path d="M39.4132387,67.1125799 L35.2710328,66.4356214 L35.1960849,66.2228274 L32.6116279,58.8471006 L29.4180564,54.1420199 L29.3557484,53.9793299 L27.8783973,43.1292326 L21.3081222,44.8990485 L9,31.704478 L20.0350762,17 L21.741708,18.0141505 L16.340198,29.765587 L21.859152,35.1450163 L26.5647064,33.0374138 L37.4069868,32.3717514 L42.965176,37.5648195 L42.965176,67.6930712 L41.4705678,67.4488081 C41.4704969,68.132905 41.731389,68.7499215 42.1909928,69.2073556 C42.6538162,69.6660409 43.2706397,69.9258069 43.9349943,69.9258069 C44.5987792,69.9258069 45.2135304,69.6664975 45.6762413,69.2079247 C46.1348355,68.7514968 46.3945454,68.1356459 46.395128,67.4701315 L45.0304216,67.6930264 L45.0304216,37.5646806 L50.5952967,32.3717558 L61.3003785,33.0049243 L66.1386739,35.1450373 L71.6597088,29.7655698 L66.2560253,18.0141776 L67.9626739,17.0000172 L79,31.7044783 L66.6896341,44.8990424 L60.1193818,43.1292326 L58.6420306,53.9793299 L58.5798585,54.1418197 L55.4346126,58.7597646 L52.7288532,66.4356561 L48.4540491,67.1338518 C48.4621683,67.2447193 48.4662509,67.3561303 48.4662509,67.4678875 C48.4662509,68.6845102 47.9824223,69.8272982 47.1403346,70.6714127 C46.3014187,71.5147932 45.1523252,72 43.9349943,72 C42.7152428,72 41.5703308,71.5162937 40.7278623,70.6718039 C39.8845188,69.8264299 39.3993749,68.6835003 39.3993749,67.4678875 C39.3993749,67.3489304 39.4040156,67.2304241 39.4132387,67.1125799 Z M74.1521846,30.2281878 L66.5805975,37.6077802 L60.8701073,35.0540849 L51.3572827,34.4921609 L47.0993622,38.4631073 L47.0993622,65.2560587 L51.1852837,64.5919871 L53.5818192,57.8236085 L56.6466499,53.3059154 L57.4321614,47.5287369 L50.6005113,48.9713673 L50.6005113,52.5971414 L48.5272079,52.5971414 L48.5272079,47.2894109 L57.7288706,45.349281 L58.3880151,40.5187542 L66.0294265,42.5752739 L76.3032313,31.5619285 L72.3293477,26.2651833 L74.1521846,30.2281878 Z M21.9726899,42.5752807 L29.6144055,40.5186792 L30.2756404,45.3885884 L39.2873334,47.2894367 L39.2873334,52.5971414 L37.2183928,52.5971414 L37.2183928,48.9713016 L30.5702443,47.5659727 L31.3533216,53.3062874 L34.4622268,57.9109761 L36.8151079,64.5920572 L40.9005982,65.2560587 L40.9005982,38.4631073 L36.6426756,34.4921589 L27.1277269,35.0540825 L21.421641,37.6078199 L13.8477578,30.2282271 L15.6706128,26.2651833 L11.696749,31.561902 L21.9726899,42.5752807 Z" id="daedalus-simple"></path>
                    </g>
                </g>
            </g>
        </g>
    </g>
</svg>