<?xml version="1.0" encoding="UTF-8"?>
<svg width="45px" height="40px" viewBox="0 0 45 40" version="1.1" xmlns="http://www.w3.org/2000/svg" xmlns:xlink="http://www.w3.org/1999/xlink">
    <!-- Generator: Sketch 52.2 (67145) - http://www.bohemiancoding.com/sketch -->
    <title>daedalus-migration.inline</title>
    <desc>Created with Sketch.</desc>
    <defs>
        <polygon id="path-1" points="0.0951 0.122 22.9321 0.122 22.9321 19.9574 0.0951 19.9574"></polygon>
        <path d="M0.543,0.479 L0.543,0.898 L0.543,1.327 C0.543,1.338 0.543,1.349 0.548,1.354 C3.017,2.964 5.468,4.575 7.931,6.186 L8.933,5.529 C6.134,3.701 3.347,1.878 0.543,0.039 L0.543,0.479 Z" id="path-3"></path>
        <path d="M0.218,0.581 C0.326,0.649 0.411,0.707 0.501,0.766 C1.028,1.103 1.555,1.446 2.083,1.784 C2.604,2.122 3.125,2.46 3.646,2.797 C4.134,3.114 4.626,3.436 5.114,3.752 C5.578,4.053 6.049,4.349 6.513,4.655 C6.565,4.686 6.599,4.686 6.649,4.655 C7.024,4.412 7.403,4.18 7.782,3.938 C8.712,3.341 9.641,2.744 10.571,2.153 C11.245,1.721 11.925,1.288 12.599,0.86 C12.74,0.771 12.876,0.681 13.024,0.586 L11.001,0.586 C10.009,1.214 9.023,1.852 8.026,2.486 C7.574,2.777 7.12,3.056 6.666,3.346 C6.604,3.383 6.565,3.389 6.502,3.346 C5.946,2.987 5.386,2.628 4.825,2.27 C4.241,1.884 3.658,1.499 3.068,1.119 C2.79,0.94 2.513,0.76 2.236,0.581 L0.218,0.581 Z" id="path-5"></path>
        <path d="M0.543,0.344 L0.543,0.607 L0.543,1.133 L0.543,1.6 C0.543,1.61 0.549,1.616 0.549,1.626 C2.255,2.692 3.96,3.754 5.677,4.825 L5.684,4.825 L6.725,4.164 C4.658,2.877 2.609,1.6 0.554,0.318 C0.549,0.333 0.543,0.339 0.543,0.344 Z" id="path-7"></path>
        <path d="M4.253,0.039 C3.068,0.792 1.899,1.538 0.725,2.285 C0.741,2.305 0.752,2.315 0.763,2.324 C1.059,2.517 1.36,2.711 1.656,2.903 C1.662,2.909 1.678,2.909 1.689,2.909 C2.54,2.369 3.391,1.825 4.247,1.286 C4.253,1.28 4.253,1.271 4.258,1.266 L4.258,0.039 L4.253,0.039 Z" id="path-9"></path>
        <path d="M0.933,1.818 C1.284,2.065 1.623,2.306 1.961,2.547 L2.258,2.342 L2.258,0.909 C1.81,1.215 1.374,1.517 0.933,1.818 Z" id="path-11"></path>
    </defs>
    <g id="daedalus-migration.inline" stroke="none" stroke-width="1" fill="none" fill-rule="evenodd">
        <g id="Group-54">
            <g id="Group-18" transform="translate(3.000000, 0.878000)">
                <path d="M6.1757,31.4188 L7.6477,31.7398 L7.6477,33.3268 L7.0317,33.3268 L7.0317,32.2348 L6.1787,32.0488 C6.3037,33.3008 7.0987,34.2928 8.1097,34.4568 L8.1097,28.9688 C7.0877,29.1348 6.2867,30.1468 6.1757,31.4188" id="Fill-1" fill="#FFFFFF"></path>
                <path d="M5.5542,31.9129 L4.5912,31.7029 C4.5902,31.7449 4.5832,31.7839 4.5832,31.8259 C4.5832,34.0979 6.1622,35.9389 8.1092,35.9389 L8.1092,35.0909 C6.7232,34.9239 5.6372,33.5759 5.5542,31.9129" id="Fill-3" fill="#FFFFFF"></path>
                <path d="M4.6489,31.0858 L5.5679,31.2858 C5.7099,29.9538 6.4989,28.8568 7.5539,28.4688 L6.7369,28.0358 C6.7159,28.0458 6.6979,28.0608 6.6779,28.0708 L3.6109,28.7118 L1.8999,27.1798 L2.7439,25.3348 L2.4079,25.1378 L1.0059,27.0728 L0.8279,27.3198 L1.0739,27.5948 L3.0219,29.7708 L3.2239,29.9958 L3.5559,29.9328 L5.1339,29.6308 C4.8969,30.0668 4.7329,30.5598 4.6489,31.0858" id="Fill-5" fill="#FFFFFF"></path>
                <path d="M10.6899,32.0638 L9.9379,32.2338 L9.9379,33.3268 L9.3219,33.3268 L9.3219,31.7408 L10.6949,31.4318 C10.5889,30.1538 9.7859,29.1358 8.7609,28.9688 L8.7609,34.4568 C9.7679,34.2928 10.5609,33.3088 10.6899,32.0638" id="Fill-7" fill="#FFFFFF"></path>
                <path d="M11.3154,31.9227 C11.2284,33.5817 10.1444,34.9247 8.7614,35.0907 L8.7614,35.9387 C10.7084,35.9387 12.2874,34.0977 12.2874,31.8257 C12.2874,31.7847 12.2804,31.7457 12.2794,31.7057 L11.3154,31.9227 Z" id="Fill-9" fill="#FFFFFF"></path>
                <path d="M15.8315,27.0731 L14.4305,25.1381 L14.0935,25.3341 L14.9375,27.1801 L13.2265,28.7121 L10.2105,28.0811 C10.1845,28.0681 10.1605,28.0491 10.1335,28.0351 C10.1335,28.0351 10.0955,28.0561 10.0935,28.0571 L10.0825,28.0551 L10.0815,28.0631 C10.0295,28.0911 9.6545,28.2901 9.3165,28.4691 C10.3735,28.8581 11.1635,29.9581 11.3035,31.2951 L12.2225,31.0871 C12.1385,30.5641 11.9755,30.0731 11.7395,29.6371 L13.2815,29.9321 L13.6145,29.9961 L13.8155,29.7701 L15.7635,27.5951 L16.0095,27.3201 L15.8315,27.0731 Z" id="Fill-11" fill="#FFFFFF"></path>
                <g id="Group-15" transform="translate(18.000000, 0.000000)">
                    <mask id="mask-2" fill="white">
                        <use xlink:href="#path-1"></use>
                    </mask>
                    <g id="Clip-14"></g>
                    <path d="M21.9321,17.4574 C21.9321,18.2844 21.2591,18.9574 20.4321,18.9574 L2.5951,18.9574 C1.7671,18.9574 1.0951,18.2844 1.0951,17.4574 L1.0951,5.6734 C1.0951,4.8464 1.7671,4.1734 2.5951,4.1734 L3.4521,4.1734 L18.3001,4.1734 L20.4321,4.1734 C21.2591,4.1734 21.9321,4.8464 21.9321,5.6734 L21.9321,17.4574 Z M16.6711,1.1514 C16.9821,1.0784 17.3071,1.1454 17.5411,1.3294 C17.6401,1.4084 17.8071,1.5784 17.8071,1.8364 L17.8071,3.1734 L8.0821,3.1734 L16.6711,1.1514 Z M20.4321,3.1734 L18.8071,3.1734 L18.8071,1.8364 C18.8071,1.3404 18.5721,0.8704 18.1621,0.5454 C17.6911,0.1724 17.0491,0.0334 16.4411,0.1774 L3.7841,3.1584 L3.7251,3.1734 L2.5951,3.1734 C1.2161,3.1734 0.0951,4.2954 0.0951,5.6734 L0.0951,17.4574 C0.0951,18.8354 1.2161,19.9574 2.5951,19.9574 L20.4321,19.9574 C21.8101,19.9574 22.9321,18.8354 22.9321,17.4574 L22.9321,5.6734 C22.9321,4.2954 21.8101,3.1734 20.4321,3.1734 Z" id="Fill-13" fill="#FFFFFF" mask="url(#mask-2)"></path>
                </g>
                <path d="M24.5429,9.0394 L24.5429,9.4794 L24.5429,9.8974 L24.5429,10.3274 C24.5429,10.3374 24.5429,10.3484 24.5479,10.3534 C27.0169,11.9644 29.4679,13.5754 31.9309,15.1864 L32.9329,14.5294 C30.1339,12.7014 27.3469,10.8784 24.5429,9.0394" id="Fill-16" fill="#FFFFFF"></path>
            </g>
            <g id="Group-22" transform="translate(27.000000, 9.878000)">
                <mask id="mask-4" fill="white">
                    <use xlink:href="#path-3"></use>
                </mask>
                <g id="Clip-20"></g>
                <polygon id="Fill-19" fill="#FFFFFF" mask="url(#mask-4)" points="-4.766 285 405.02 285 405.02 -6.404 -4.766 -6.404"></polygon>
                <polygon id="Fill-21" fill="#FFFFFF" mask="url(#mask-4)" points="-0.88 7.609 10.356 7.609 10.356 -1.384 -0.88 -1.384"></polygon>
            </g>
            <path d="M34.0263,9.3637 C33.5733,9.6547 33.1193,9.9337 32.6663,10.2237 C32.6043,10.2607 32.5643,10.2667 32.5023,10.2237 C31.9463,9.8647 31.3853,9.5067 30.8243,9.1477 C30.2413,8.7617 29.6573,8.3767 29.0683,7.9967 C28.7903,7.8177 28.5133,7.6377 28.2353,7.4587 L26.2183,7.4587 C26.3253,7.5277 26.4103,7.5857 26.5013,7.6437 C27.0283,7.9817 27.5553,8.3237 28.0823,8.6617 C28.6033,8.9997 29.1253,9.3377 29.6463,9.6757 C30.1333,9.9917 30.6263,10.3137 31.1133,10.6307 C31.5783,10.9307 32.0483,11.2267 32.5133,11.5327 C32.5643,11.5647 32.5983,11.5647 32.6493,11.5327 C33.0233,11.2897 33.4023,11.0577 33.7823,10.8157 C34.7123,10.2187 35.6413,9.6227 36.5703,9.0307 C37.2443,8.5987 37.9243,8.1657 38.5993,7.7387 C38.7403,7.6487 38.8763,7.5587 39.0243,7.4647 L37.0013,7.4647 C36.0093,8.0927 35.0233,8.7307 34.0263,9.3637" id="Fill-23" fill="#FFFFFF"></path>
            <g id="Group-28" transform="translate(26.000000, 6.878000)">
                <mask id="mask-6" fill="white">
                    <use xlink:href="#path-5"></use>
                </mask>
                <g id="Clip-26"></g>
                <polygon id="Fill-25" fill="#FFFFFF" mask="url(#mask-6)" points="-3.766 288 406.02 288 406.02 -3.404 -3.766 -3.404"></polygon>
                <polygon id="Fill-27" fill="#FFFFFF" mask="url(#mask-6)" points="-1.205 6.101 14.446 6.101 14.446 -0.842 -1.205 -0.842"></polygon>
            </g>
            <path d="M27.5546,13.1957 C27.5486,13.2117 27.5426,13.2167 27.5426,13.2217 L27.5426,13.4847 L27.5426,14.0097 L27.5426,14.4777 C27.5426,14.4877 27.5486,14.4937 27.5486,14.5037 C29.2546,15.5707 30.9596,16.6317 32.6776,17.7037 L32.6826,17.7037 L33.7246,17.0417 C31.6586,15.7547 29.6096,14.4777 27.5546,13.1957" id="Fill-29" fill="#FFFFFF"></path>
            <g id="Group-34" transform="translate(27.000000, 12.878000)">
                <mask id="mask-8" fill="white">
                    <use xlink:href="#path-7"></use>
                </mask>
                <g id="Clip-32"></g>
                <polygon id="Fill-31" fill="#FFFFFF" mask="url(#mask-8)" points="-4.766 282 405.02 282 405.02 -9.404 -4.766 -9.404"></polygon>
                <polygon id="Fill-33" fill="#FFFFFF" mask="url(#mask-8)" points="-0.88 6.248 8.148 6.248 8.148 -1.106 -0.88 -1.106"></polygon>
            </g>
            <path d="M37.2524,9.9174 C36.0674,10.6694 34.8984,11.4164 33.7254,12.1634 C33.7414,12.1824 33.7524,12.1924 33.7624,12.2024 C34.0594,12.3954 34.3604,12.5884 34.6564,12.7814 C34.6624,12.7864 34.6784,12.7864 34.6894,12.7864 C35.5404,12.2474 36.3904,11.7034 37.2474,11.1644 C37.2524,11.1584 37.2524,11.1484 37.2574,11.1444 L37.2574,9.9174 L37.2524,9.9174 Z" id="Fill-35" fill="#FFFFFF"></path>
            <g id="Group-40" transform="translate(33.000000, 9.878000)">
                <mask id="mask-10" fill="white">
                    <use xlink:href="#path-9"></use>
                </mask>
                <g id="Clip-38"></g>
                <polygon id="Fill-37" fill="#FFFFFF" mask="url(#mask-10)" points="-10.766 285 399.02 285 399.02 -6.404 -10.766 -6.404"></polygon>
                <polygon id="Fill-39" fill="#FFFFFF" mask="url(#mask-10)" points="-0.698 4.331 5.68 4.331 5.68 -1.383 -0.698 -1.383"></polygon>
            </g>
            <path d="M37.2578,12.7861 C36.8098,13.0931 36.3748,13.3941 35.9328,13.6961 C36.2838,13.9431 36.6228,14.1841 36.9618,14.4251 L37.2578,14.2201 L37.2578,12.7861 Z" id="Fill-41" fill="#FFFFFF"></path>
            <g id="Group-46" transform="translate(35.000000, 11.878000)">
                <mask id="mask-12" fill="white">
                    <use xlink:href="#path-11"></use>
                </mask>
                <g id="Clip-44"></g>
                <polygon id="Fill-43" fill="#FFFFFF" mask="url(#mask-12)" points="-12.766 283 397.02 283 397.02 -8.404 -12.766 -8.404"></polygon>
                <polygon id="Fill-45" fill="#FFFFFF" mask="url(#mask-12)" points="-0.49 3.97 3.68 3.97 3.68 -0.515 -0.49 -0.515"></polygon>
            </g>
            <g id="Group-53" transform="translate(0.000000, 19.878000)" fill="#FFFFFF">
                <path d="M21.8374,17.43 C21.8374,18.257 21.1644,18.93 20.3374,18.93 L2.5004,18.93 C1.6724,18.93 1.0004,18.257 1.0004,17.43 L1.0004,5.647 C1.0004,4.82 1.6724,4.147 2.5004,4.147 L3.3584,4.147 L18.2054,4.147 L20.3374,4.147 C21.1644,4.147 21.8374,4.82 21.8374,5.647 L21.8374,17.43 Z M16.5764,1.124 C16.8864,1.051 17.2134,1.118 17.4464,1.303 C17.5454,1.381 17.7124,1.552 17.7124,1.809 L17.7124,3.147 L7.9874,3.147 L16.5764,1.124 Z M20.3374,3.147 L18.7124,3.147 L18.7124,1.809 C18.7124,1.314 18.4774,0.843 18.0674,0.519 C17.5954,0.145 16.9514,0.008 16.3464,0.151 L3.6894,3.132 L3.6304,3.147 L2.5004,3.147 C1.1214,3.147 0.0004,4.268 0.0004,5.647 L0.0004,17.43 C0.0004,18.808 1.1214,19.93 2.5004,19.93 L20.3374,19.93 C21.7154,19.93 22.8374,18.808 22.8374,17.43 L22.8374,5.647 C22.8374,4.268 21.7154,3.147 20.3374,3.147 Z" id="Fill-47"></path>
                <polygon id="Fill-49" points="32.9424 5.5423 35.1904 7.7903 35.9334 7.0473 32.4174 3.5323 28.9024 7.0473 29.6444 7.7893 31.8924 5.5423"></polygon>
                <path d="M28.4174,13.8983 L25.3344,13.8983 L25.3344,12.8983 L28.4174,12.8983 C30.3474,12.8983 31.9174,11.3283 31.9174,9.3983 L31.9174,5.5063 L32.9174,5.5063 L32.9174,9.3983 C32.9174,11.8793 30.8984,13.8983 28.4174,13.8983" id="Fill-51"></path>
            </g>
        </g>
    </g>
</svg>