<?xml version="1.0" encoding="UTF-8"?>
<svg width="30px" height="30px" viewBox="0 0 30 30" version="1.1" xmlns="http://www.w3.org/2000/svg" xmlns:xlink="http://www.w3.org/1999/xlink">
    <!-- Generator: Sketch 52.2 (67145) - http://www.bohemiancoding.com/sketch -->
    <title>setting.inline</title>
    <desc>Created with Sketch.</desc>
    <g id="setting.inline" stroke="none" stroke-width="1" fill="none" fill-rule="evenodd">
        <g id="Group-7" transform="translate(0.000000, 1.000000)" fill="#FFFFFF">
            <path d="M25.598,26.3263 C24.449,26.3263 23.488,25.5423 23.197,24.4843 C23.139,24.2723 23.098,24.0553 23.098,23.8263 C23.098,23.5973 23.139,23.3793 23.197,23.1683 C23.488,22.1103 24.448,21.3263 25.598,21.3263 C26.976,21.3263 28.098,22.4473 28.098,23.8263 C28.098,25.2043 26.976,26.3263 25.598,26.3263 M25.598,20.0003 C23.745,20.0003 22.197,21.3253 21.848,23.0763 L0.75,23.0763 C0.336,23.0763 0,23.4123 0,23.8263 C0,24.2403 0.336,24.5763 0.75,24.5763 L21.848,24.5763 C22.198,26.3273 23.745,27.6523 25.598,27.6523 C27.708,27.6523 29.424,25.9353 29.424,23.8263 C29.424,21.7163 27.708,20.0003 25.598,20.0003" id="Fill-1"></path>
            <path d="M3.826,6.3263 C2.677,6.3263 1.716,5.5423 1.425,4.4843 C1.367,4.2723 1.326,4.0553 1.326,3.8263 C1.326,3.5973 1.367,3.3793 1.425,3.1683 C1.716,2.1103 2.677,1.3263 3.826,1.3263 C4.975,1.3263 5.936,2.1103 6.227,3.1683 C6.285,3.3793 6.326,3.5973 6.326,3.8263 C6.326,4.0553 6.285,4.2723 6.227,4.4843 C5.936,5.5423 4.975,6.3263 3.826,6.3263 M28.943,3.0763 L7.576,3.0763 C7.227,1.3253 5.679,0.0003 3.826,0.0003 C1.717,0.0003 0,1.7163 0,3.8263 C0,5.9363 1.717,7.6523 3.826,7.6523 C5.679,7.6523 7.227,6.3273 7.576,4.5763 L28.943,4.5763 C29.357,4.5763 29.693,4.2403 29.693,3.8263 C29.693,3.4123 29.357,3.0763 28.943,3.0763" id="Fill-3"></path>
            <path d="M14.724,16.3263 C13.575,16.3263 12.614,15.5423 12.323,14.4843 C12.265,14.2723 12.224,14.0553 12.224,13.8263 C12.224,13.5973 12.265,13.3793 12.323,13.1683 C12.614,12.1103 13.575,11.3263 14.724,11.3263 C15.873,11.3263 16.834,12.1103 17.125,13.1683 C17.183,13.3793 17.224,13.5973 17.224,13.8263 C17.224,14.0553 17.183,14.2723 17.125,14.4843 C16.834,15.5423 15.873,16.3263 14.724,16.3263 M28.943,13.0763 L18.474,13.0763 C18.125,11.3253 16.577,10.0003 14.724,10.0003 C12.871,10.0003 11.324,11.3253 10.974,13.0763 L0.75,13.0763 C0.336,13.0763 0,13.4123 0,13.8263 C0,14.2403 0.336,14.5763 0.75,14.5763 L10.974,14.5763 C11.324,16.3273 12.871,17.6523 14.724,17.6523 C16.577,17.6523 18.125,16.3273 18.474,14.5763 L28.943,14.5763 C29.357,14.5763 29.693,14.2403 29.693,13.8263 C29.693,13.4123 29.357,13.0763 28.943,13.0763" id="Fill-5"></path>
        </g>
    </g>
</svg>