<?xml version="1.0" encoding="UTF-8"?>
<svg width="30px" height="30px" viewBox="0 0 30 30" version="1.1" xmlns="http://www.w3.org/2000/svg" xmlns:xlink="http://www.w3.org/1999/xlink">
    <!-- Generator: Sketch 52.2 (67145) - http://www.bohemiancoding.com/sketch -->
    <title>setting-active.inline</title>
    <g id="setting-active.inline" stroke="none" stroke-width="0.1" fill="none" fill-rule="evenodd">
        <g id="Group-9" transform="translate(0.000000, 1.000000)">
            <g id="Group-3" transform="translate(0.000000, 20.652300)">
                <g id="Clip-2"></g>
                <path d="M25.598,7.0246 C24.287,7.0246 23.192,6.1306 22.86,4.9236 C22.794,4.6836 22.747,4.4346 22.747,4.1736 C22.747,3.9126 22.794,3.6646 22.86,3.4236 C23.191,2.2166 24.287,1.3226 25.598,1.3226 C27.17,1.3226 28.449,2.6016 28.449,4.1736 C28.449,5.7456 27.17,7.0246 25.598,7.0246 M25.598,0.3476 C23.745,0.3476 22.197,1.6726 21.848,3.4236 L0.75,3.4236 C0.336,3.4236 0,3.7596 0,4.1736 C0,4.5876 0.336,4.9236 0.75,4.9236 L21.848,4.9236 C22.198,6.6756 23.745,8.0006 25.598,8.0006 C27.708,8.0006 29.424,6.2836 29.424,4.1736 C29.424,2.0646 27.708,0.3476 25.598,0.3476" id="Fill-1" fill="#FFFFFF"></path>
            </g>
            <g id="Group-6" transform="translate(0.000000, 0.652300)">
                <g id="Clip-5"></g>
                <path d="M3.826,7.0246 C2.515,7.0246 1.42,6.1306 1.088,4.9236 C1.022,4.6836 0.975,4.4346 0.975,4.1736 C0.975,3.9126 1.022,3.6646 1.088,3.4236 C1.42,2.2166 2.515,1.3226 3.826,1.3226 C5.137,1.3226 6.233,2.2166 6.564,3.4236 C6.631,3.6646 6.677,3.9126 6.677,4.1736 C6.677,4.4346 6.63,4.6836 6.564,4.9236 C6.232,6.1306 5.137,7.0246 3.826,7.0246 M28.943,3.4236 L7.576,3.4236 C7.227,1.6726 5.679,0.3476 3.826,0.3476 C1.717,0.3476 0,2.0646 0,4.1736 C0,6.2836 1.717,8.0006 3.826,8.0006 C5.679,8.0006 7.227,6.6756 7.576,4.9236 L28.943,4.9236 C29.357,4.9236 29.693,4.5876 29.693,4.1736 C29.693,3.7596 29.357,3.4236 28.943,3.4236" id="Fill-4" fill="#FFFFFF"></path>
            </g>
            <path d="M14.724,17.6769 C13.413,17.6769 12.318,16.7829 11.986,15.5759 C11.92,15.3359 11.873,15.0869 11.873,14.8259 C11.873,14.5649 11.92,14.3169 11.986,14.0759 C12.318,12.8689 13.413,11.9749 14.724,11.9749 C16.035,11.9749 17.131,12.8689 17.462,14.0759 C17.528,14.3169 17.575,14.5649 17.575,14.8259 C17.575,15.0869 17.528,15.3359 17.462,15.5759 C17.13,16.7829 16.035,17.6769 14.724,17.6769 M28.943,14.0759 L18.474,14.0759 C18.125,12.3249 16.577,10.9999 14.724,10.9999 C12.871,10.9999 11.324,12.3249 10.974,14.0759 L0.75,14.0759 C0.336,14.0759 0,14.4119 0,14.8259 C0,15.2399 0.336,15.5759 0.75,15.5759 L10.974,15.5759 C11.324,17.3279 12.871,18.6529 14.724,18.6529 C16.577,18.6529 18.125,17.3279 18.474,15.5759 L28.943,15.5759 C29.357,15.5759 29.693,15.2399 29.693,14.8259 C29.693,14.4119 29.357,14.0759 28.943,14.0759" id="Fill-7" fill="#FFFFFF"></path>
        </g>
    </g>
</svg>
