<?xml version="1.0" encoding="UTF-8"?>
<svg width="64px" height="64px"
  viewBox="0 0 64 45"
  version="1.1"
  xmlns="http://www.w3.org/2000/svg"
  xmlns:xlink="http://www.w3.org/1999/xlink">
  <g id="with-trezor-t-logo-white"
    transform="scale(1.2, 1.2)"
    stroke="none"
    stroke-width="1"
    fill="none"
    fill-rule="evenodd">
    <g id="plus-logo-group"
      transform="translate(-3.000000, 11.000000)"
      fill="#FFFFFF">
      <path d="M11.2917855,6.29177759 L7.70816053,6.29177759 L7.70816053,2.70819541 C7.70816053,2.31708147 7.3910705,2 6.999946,2 C6.6088215,2 6.29173147,2.31713547 6.29173147,2.70819541 L6.29173147,6.29199358 L2.70821453,6.29199358 C2.31714403,6.29199358 2,6.60912905 2,7.000189 C2,7.39130294 2.31714403,7.70838441 2.70821453,7.70838441 L6.29156947,7.70838441 L6.29156947,11.2918586 C6.29156947,11.6829185 6.6086595,12 6.999784,12 C7.3908545,12 7.70799853,11.6829185 7.70799853,11.2918586 L7.70799853,7.70822241 L11.2918395,7.70822241 C11.682856,7.70822241 12,7.39108694 12,7.000027 C12,6.60891306 11.682856,6.29177759 11.2917855,6.29177759 Z" id="Path"></path>
    </g>    
    <g id="trezor-t-logo-group"
      transform="translate(23.000000, 4.000000)"
      fill-rule="nonzero"
      stroke="#FFFFFF"
      stroke-width="1.5">
      <path id="trezor-t-path-1" d="M20.25,2.29297206 C20.25,1.45234816 19.471441,0.75 18.4592078,0.75 L2.53779417,0.75 C1.52501544,0.75 0.750318884,1.44941287 0.750318884,2.29297206 L0.750216779,18.1122906 C0.74505906,18.4248296 0.832058179,18.7313507 0.99674239,18.9874707 L5.32410259,25.625623 C5.35664926,25.6704843 5.42703189,25.7605051 5.52959484,25.8801835 C5.70336037,26.0829467 5.89870603,26.2859704 6.10881886,26.4735757 C6.66122913,26.9668113 7.20181579,27.25 7.64591436,27.25 L13.2648466,27.25 C13.715546,27.25 14.2465606,26.9839582 14.7840866,26.5207553 C14.9875275,26.345444 15.1759388,26.1557712 15.3429147,25.9664444 C15.4411934,25.8550104 15.5081682,25.7715395 15.5139104,25.7658748 L19.9709705,18.9860639 C20.1414812,18.6999582 20.2378338,18.3734184 20.25,18.0660457 L20.25,2.29297206 Z"></path>
      <path id="trezor-t-path-2" d="M4.75834196,5.75 L4.75834196,14.25 L16.25,14.25 L16.25,5.75 L4.75834196,5.75 Z M16.2319687,14.3785039 C16.2314061,14.3793503 16.2308553,14.3801955 16.2303163,14.3810393 C16.2317671,14.378768 16.233352,14.3754524 16.2349723,14.3712194 Z"></path>
    </g>
  </g>
</svg>