<?xml version="1.0" encoding="UTF-8"?>
<svg width="58px" height="34px" viewBox="0 0 58 34" version="1.1" xmlns="http://www.w3.org/2000/svg" xmlns:xlink="http://www.w3.org/1999/xlink">
  <defs>
    <polygon id="path-1" points="0 32.8923913 32.8364348 32.8923913 32.8364348 0 0 0"></polygon>
  </defs>
  <g id="with-ledger-logo-white.inline" stroke="none" stroke-width="1" fill="none" fill-rule="evenodd">
    <g id="Group-9" transform="translate(25.000000, 1.000000)">
      <path d="M24.5855739,0 L12.4717043,0 L12.4717043,20.249087 L32.7207913,20.249087 L32.7207913,8.13378261 C32.7207913,3.64147826 29.0778783,0 24.5855739,0 M24.5855739,1.43478261 C28.2801391,1.43478261 31.2860087,4.44065217 31.2860087,8.13378261 L31.2860087,18.8143043 L13.906487,18.8143043 L13.906487,1.43478261 L24.5855739,1.43478261" id="Fill-1" fill="#FFFFFF"></path>
      <mask id="mask-2" fill="white">
          <use xlink:href="#path-1"></use>
      </mask>
      <g id="Clip-4"></g>
      <path d="M12.4711304,32.8923913 L20.3653043,32.8923913 L20.3653043,24.9982174 L12.4711304,24.9982174 L12.4711304,32.8923913 Z M13.905913,31.4576087 L18.9305217,31.4576087 L18.9305217,26.433 L13.905913,26.433 L13.905913,31.4576087 Z" id="Fill-3" fill="#FFFFFF" mask="url(#mask-2)"></path>
      <path d="M32.8370087,24.9986478 L24.9414,24.9986478 L24.9414,32.8928217 C29.3017043,32.8928217 32.8370087,29.3575174 32.8370087,24.9986478 M31.2415304,26.4334304 C30.6920087,28.8453 28.789487,30.7478217 26.3761826,31.2973435 L26.3761826,26.4334304 L31.2415304,26.4334304" id="Fill-5" fill="#FFFFFF" mask="url(#mask-2)"></path>
      <path d="M7.8936,24.9986478 L0.000860869565,24.9986478 C0.000860869565,29.3575174 3.53473043,32.8928217 7.8936,32.8928217 L7.8936,24.9986478 Z M6.45881739,26.4334304 L6.45881739,31.2973435 C4.04694783,30.7478217 2.14442609,28.8453 1.59490435,26.4334304 L6.45881739,26.4334304 Z" id="Fill-6" fill="#FFFFFF" mask="url(#mask-2)"></path>
      <path d="M0.00143478261,20.4212609 L7.89417391,20.4212609 L7.89417391,12.527087 L0.00143478261,12.527087 L0.00143478261,20.4212609 Z M1.43621739,18.9864783 L6.4593913,18.9864783 L6.4593913,13.9618696 L1.43621739,13.9618696 L1.43621739,18.9864783 Z" id="Fill-7" fill="#FFFFFF" mask="url(#mask-2)"></path>
      <path d="M7.8936,0.0561 C3.53473043,0.0561 0.000860869565,3.58996957 0.000860869565,7.95027391 L7.8936,7.95027391 L7.8936,0.0561 Z M6.45881739,1.65157826 L6.45881739,6.5154913 L1.59490435,6.5154913 C2.14442609,4.10362174 4.04694783,2.2011 6.45881739,1.65157826 Z" id="Fill-8" fill="#FFFFFF" mask="url(#mask-2)"></path>
    </g>
    <g id="plus-logo-group" transform="translate(0.800000, 11.600000)" fill="#FFFFFF">
      <path d="M11.1501426,5.15013311 L6.84979264,5.15013311 L6.84979264,0.849834492 C6.84979264,0.380497764 6.4692846,0 5.9999352,0 C5.5305858,0 5.15007776,0.380562564 5.15007776,0.849834492 L5.15007776,5.1503923 L0.849857436,5.1503923 C0.380572836,5.1503923 0,5.53095486 0,6.0002268 C0,6.46956353 0.380572836,6.85006129 0.849857436,6.85006129 L5.14988336,6.85006129 L5.14988336,11.1502303 C5.14988336,11.6195022 5.5303914,12 5.9997408,12 C6.4690254,12 6.84959824,11.6195022 6.84959824,11.1502303 L6.84959824,6.84986689 L11.1502074,6.84986689 C11.6194272,6.84986689 12,6.46930433 12,6.0000324 C12,5.53069567 11.6194272,5.15013311 11.1501426,5.15013311 Z" id="Path"></path>
    </g>
  </g>
</svg>