<?xml version="1.0" encoding="UTF-8"?>
<svg width="58px" height="34px" viewBox="0 0 58 34" version="1.1" xmlns="http://www.w3.org/2000/svg" xmlns:xlink="http://www.w3.org/1999/xlink">
    <!-- Generator: Sketch 52.6 (67491) - http://www.bohemiancoding.com/sketch -->
    <title>with-ledger-logo-brown.inline</title>
    <desc>Created with Sketch.</desc>
    <g id="with-ledger-logo-brown.inline" stroke="none" stroke-width="1" fill="none" fill-rule="evenodd">
        <g id="plus-logo-group" transform="translate(0.800000, 11.600000)" fill="#DAA49A">
            <path d="M11.1501426,5.15013311 L6.84979264,5.15013311 L6.84979264,0.849834492 C6.84979264,0.380497764 6.4692846,0 5.9999352,0 C5.5305858,0 5.15007776,0.380562564 5.15007776,0.849834492 L5.15007776,5.1503923 L0.849857436,5.1503923 C0.380572836,5.1503923 0,5.53095486 0,6.0002268 C0,6.46956353 0.380572836,6.85006129 0.849857436,6.85006129 L5.14988336,6.85006129 L5.14988336,11.1502303 C5.14988336,11.6195022 5.5303914,12 5.9997408,12 C6.4690254,12 6.84959824,11.6195022 6.84959824,11.1502303 L6.84959824,6.84986689 L11.1502074,6.84986689 C11.6194272,6.84986689 12,6.46930433 12,6.0000324 C12,5.53069567 11.6194272,5.15013311 11.1501426,5.15013311 Z" id="Path"></path>
        </g>
        <path d="M51.3656946,2 L37.8181818,2 L37.8181818,20.1818182 L56,20.1818182 L55.9999804,6.73053006 C56.0073834,4.17648801 53.9197339,2 51.3656946,2 Z M33.2727273,2 L30.9150427,2 C28.2655275,2 26,4.15801094 26,6.91504272 L26,9.27272727 L33.2727273,9.27272727 L33.2727273,2 Z M26,13.8181818 L33.2727273,13.8181818 L33.2727273,21.0909091 L26,21.0909091 L26,13.8181818 Z M48.7272727,32 L51.0849573,32 C53.7344725,32 56,29.8397079 56,27.0797617 L56,24.7272727 L48.7272727,24.7272727 L48.7272727,32 Z M36.9090909,24.7272727 L44.1818182,24.7272727 L44.1818182,32 L36.9090909,32 L36.9090909,24.7272727 Z M26,24.7272727 L26,27.0849573 C26,29.7344725 28.1580109,32 30.9150427,32 L33.2727273,32 L33.2727273,24.7272727 L26,24.7272727 Z" id="Shape" fill="#DAA49A" fill-rule="nonzero"></path>
    </g>
</svg>