<?xml version="1.0" encoding="UTF-8"?>
<svg width="58px" height="34px" viewBox="0 0 58 34" version="1.1" xmlns="http://www.w3.org/2000/svg" xmlns:xlink="http://www.w3.org/1999/xlink">
    <g id="+ledger-white.inline" stroke="none" stroke-width="1" fill="none" fill-rule="evenodd">
        <g id="plus-logo-group" transform="translate(0.800000, 11.600000)" fill="#FFFFFF">
            <path d="M11.1501426,5.15013311 L6.84979264,5.15013311 L6.84979264,0.849834492 C6.84979264,0.380497764 6.4692846,0 5.9999352,0 C5.5305858,0 5.15007776,0.380562564 5.15007776,0.849834492 L5.15007776,5.1503923 L0.849857436,5.1503923 C0.380572836,5.1503923 0,5.53095486 0,6.0002268 C0,6.46956353 0.380572836,6.85006129 0.849857436,6.85006129 L5.14988336,6.85006129 L5.14988336,11.1502303 C5.14988336,11.6195022 5.5303914,12 5.9997408,12 C6.4690254,12 6.84959824,11.6195022 6.84959824,11.1502303 L6.84959824,6.84986689 L11.1502074,6.84986689 C11.6194272,6.84986689 12,6.46930433 12,6.0000324 C12,5.53069567 11.6194272,5.15013311 11.1501426,5.15013311 Z" id="Path"></path>
        </g>
        <g id="ledger" transform="translate(26.000000, 2.000000)" fill="#FFFFFF" fill-rule="nonzero">
            <path d="M25.228093,0.0404737492 L11.4013754,0.0404737492 L11.4013754,18.5969866 L29.9579082,18.5969866 L29.9578882,4.86849154 C29.9654438,2.26181527 27.8347693,0.0404737492 25.228093,0.0404737492 Z M7.15513748,0.0404737492 L4.83557338,0.0404737492 C2.2288971,0.0404737492 0,2.16359269 0,4.87604713 L0,7.19561123 L7.15513748,7.19561123 L7.15513748,0.0404737492 Z M0,11.5400717 L7.15513748,11.5400717 L7.15513748,18.6952092 L0,18.6952092 L0,11.5400717 Z M22.8103063,30.0965845 L25.1298704,30.0965845 C27.7365467,30.0965845 29.9654438,27.9734656 29.9654438,25.2610112 L29.9654438,22.9490026 L22.8103063,22.9490026 L22.8103063,30.0965845 Z M11.4013754,22.9490026 L18.5565128,22.9490026 L18.5565128,30.1041401 L11.4013754,30.1041401 L11.4013754,22.9490026 Z M0,22.9490026 L0,25.2685667 C0,27.875243 2.12311894,30.1041401 4.83557338,30.1041401 L7.15513748,30.1041401 L7.15513748,22.9490026 L0,22.9490026 Z" id="Shape"></path>
        </g>
    </g>
</svg>