<?xml version="1.0" encoding="UTF-8"?>
<svg width="45px" height="40px" viewBox="0 0 45 40" version="1.1" xmlns="http://www.w3.org/2000/svg" xmlns:xlink="http://www.w3.org/1999/xlink">
    <!-- Generator: Sketch 52.2 (67145) - http://www.bohemiancoding.com/sketch -->
    <title>yoroi-migration-active.inline</title>
    <desc>Created with Sketch.</desc>
    <defs>
        <path d="M0.543,0.644 L0.543,1.063 L0.543,1.492 C0.543,1.502 0.543,1.513 0.548,1.518 C3.017,3.129 5.468,4.74 7.931,6.351 L8.932,5.694 C6.134,3.865 3.346,2.043 0.543,0.204 L0.543,0.644 Z" id="path-1"></path>
        <path d="M0.218,0.745 C0.326,0.814 0.411,0.872 0.501,0.93 C1.028,1.268 1.555,1.611 2.082,1.949 C2.604,2.286 3.125,2.624 3.646,2.962 C4.133,3.279 4.626,3.6 5.114,3.917 C5.578,4.217 6.048,4.514 6.513,4.82 C6.565,4.851 6.598,4.851 6.649,4.82 C7.023,4.577 7.403,4.344 7.782,4.102 C8.712,3.506 9.641,2.909 10.571,2.318 C11.245,1.885 11.924,1.453 12.598,1.025 C12.74,0.935 12.876,0.845 13.024,0.751 L11.001,0.751 C10.009,1.379 9.023,2.017 8.025,2.651 C7.573,2.94 7.119,3.22 6.665,3.511 C6.604,3.548 6.565,3.553 6.502,3.511 C5.946,3.152 5.386,2.793 4.825,2.434 C4.241,2.049 3.657,1.663 3.068,1.284 C2.79,1.104 2.513,0.924 2.236,0.745 L0.218,0.745 Z" id="path-3"></path>
        <path d="M0.543,0.509 L0.543,0.772 L0.543,1.296 L0.543,1.764 C0.543,1.775 0.548,1.781 0.548,1.79 C2.254,2.857 3.96,3.918 5.677,4.99 L5.683,4.99 L6.725,4.328 C4.658,3.041 2.609,1.764 0.554,0.482 C0.548,0.498 0.543,0.504 0.543,0.509 Z" id="path-5"></path>
        <path d="M4.252,0.204 C3.068,0.956 1.898,1.703 0.725,2.45 C0.741,2.469 0.752,2.479 0.763,2.489 C1.059,2.682 1.36,2.875 1.656,3.068 C1.662,3.072 1.678,3.072 1.689,3.072 C2.539,2.533 3.391,1.99 4.247,1.451 C4.252,1.445 4.252,1.435 4.257,1.431 L4.257,0.204 L4.252,0.204 Z" id="path-7"></path>
        <path d="M0.932,0.982 C1.284,1.23 1.623,1.471 1.961,1.712 L2.257,1.507 L2.257,0.072 C1.81,0.38 1.374,0.681 0.932,0.982 Z" id="path-9"></path>
        <path d="M0.589,0.479 L0.589,0.898 L0.589,1.327 C0.589,1.338 0.589,1.349 0.594,1.353 C3.063,2.964 5.514,4.575 7.977,6.186 L8.979,5.529 C6.18,3.701 3.393,1.878 0.589,0.039 L0.589,0.479 Z" id="path-11"></path>
        <path d="M0.264,0.581 C0.372,0.649 0.457,0.707 0.548,0.766 C1.075,1.103 1.602,1.446 2.128,1.784 C2.65,2.122 3.171,2.46 3.692,2.797 C4.18,3.114 4.672,3.436 5.159,3.752 C5.624,4.053 6.094,4.349 6.56,4.655 C6.61,4.686 6.644,4.686 6.695,4.655 C7.069,4.412 7.449,4.181 7.829,3.938 C8.757,3.341 9.687,2.744 10.617,2.153 C11.291,1.721 11.97,1.288 12.645,0.86 C12.787,0.771 12.923,0.681 13.069,0.586 L11.047,0.586 C10.055,1.214 9.07,1.852 8.072,2.486 C7.619,2.777 7.165,3.056 6.713,3.346 C6.65,3.383 6.61,3.389 6.548,3.346 C5.993,2.987 5.432,2.628 4.871,2.27 C4.287,1.885 3.704,1.499 3.114,1.119 C2.837,0.94 2.559,0.76 2.281,0.581 L0.264,0.581 Z" id="path-13"></path>
        <path d="M0.589,0.344 L0.589,0.607 L0.589,1.133 L0.589,1.6 C0.589,1.61 0.594,1.616 0.594,1.626 C2.3,2.692 4.006,3.754 5.723,4.825 L5.729,4.825 L6.771,4.164 C4.705,2.877 2.655,1.6 0.601,0.318 C0.594,0.333 0.589,0.339 0.589,0.344 Z" id="path-15"></path>
        <path d="M4.298,0.039 C3.114,0.792 1.945,1.538 0.771,2.285 C0.787,2.305 0.798,2.315 0.809,2.324 C1.105,2.518 1.406,2.711 1.702,2.903 C1.708,2.909 1.724,2.909 1.735,2.909 C2.586,2.369 3.437,1.825 4.293,1.286 C4.298,1.28 4.298,1.271 4.303,1.266 L4.303,0.039 L4.298,0.039 Z" id="path-17"></path>
        <path d="M0.979,1.818 C1.33,2.065 1.668,2.306 2.007,2.547 L2.303,2.342 L2.303,0.909 C1.856,1.215 1.421,1.517 0.979,1.818 Z" id="path-19"></path>
    </defs>
    <g id="yoroi-migration-active.inline" stroke="none" stroke-width="0.1" fill="none" fill-rule="evenodd">
        <g id="Group-69">
            <g id="Group-5" transform="translate(21.000000, 0.714000)" fill="#FFFFFF">
                <path d="M21.9321,17.6219 C21.9321,18.4489 21.2591,19.1219 20.4321,19.1219 L2.5951,19.1219 C1.7671,19.1219 1.0951,18.4489 1.0951,17.6219 L1.0951,5.8379 C1.0951,5.0109 1.7671,4.3379 2.5951,4.3379 L3.4521,4.3379 L18.3001,4.3379 L20.4321,4.3379 C21.2591,4.3379 21.9321,5.0109 21.9321,5.8379 L21.9321,17.6219 Z M16.6711,1.3159 C16.9811,1.2429 17.3071,1.3089 17.5411,1.4939 C17.6401,1.5729 17.8071,1.7429 17.8071,2.0009 L17.8071,3.3379 L8.0821,3.3379 L16.6711,1.3159 Z M20.4321,3.3379 L18.8071,3.3379 L18.8071,2.0009 C18.8071,1.5049 18.5711,1.0349 18.1611,0.7099 C17.6901,0.3369 17.0471,0.1979 16.4411,0.3419 L3.7841,3.3229 L3.7251,3.3379 L2.5951,3.3379 C1.2161,3.3379 0.0951,4.4599 0.0951,5.8379 L0.0951,17.6219 C0.0951,18.9999 1.2161,20.1219 2.5951,20.1219 L20.4321,20.1219 C21.8101,20.1219 22.9321,18.9999 22.9321,17.6219 L22.9321,5.8379 C22.9321,4.4599 21.8101,3.3379 20.4321,3.3379 Z" id="Fill-1"></path>
                <path d="M6.5424,9.204 L6.5424,9.644 L6.5424,10.062 L6.5424,10.492 C6.5424,10.502 6.5424,10.513 6.5484,10.518 C9.0164,12.129 11.4684,13.74 13.9304,15.351 L14.9324,14.694 C12.1344,12.866 9.3464,11.043 6.5424,9.204" id="Fill-3"></path>
            </g>
            <g id="Group-9" transform="translate(27.000000, 9.714000)">
                <mask id="mask-2" fill="white">
                    <use xlink:href="#path-1"></use>
                </mask>
                <g id="Clip-7"></g>
                <polygon id="Fill-6" fill="#FFFFFF" mask="url(#mask-2)" points="-4.766 285.165 405.02 285.165 405.02 -6.239 -4.766 -6.239"></polygon>
                <polygon id="Fill-8" fill="#FFFFFF" mask="url(#mask-2)" points="-0.88 7.774 10.356 7.774 10.356 -1.219 -0.88 -1.219"></polygon>
            </g>
            <path d="M34.0258,9.3643 C33.5728,9.6553 33.1198,9.9343 32.6658,10.2243 C32.6038,10.2613 32.5648,10.2673 32.5018,10.2243 C31.9468,9.8653 31.3858,9.5073 30.8248,9.1483 C30.2408,8.7623 29.6568,8.3773 29.0678,7.9973 C28.7908,7.8183 28.5128,7.6383 28.2348,7.4593 L26.2178,7.4593 C26.3258,7.5283 26.4108,7.5863 26.5018,7.6443 C27.0278,7.9823 27.5548,8.3243 28.0818,8.6623 C28.6038,9.0003 29.1248,9.3383 29.6458,9.6763 C30.1328,9.9923 30.6268,10.3143 31.1138,10.6313 C31.5778,10.9313 32.0478,11.2273 32.5128,11.5333 C32.5648,11.5653 32.5978,11.5653 32.6498,11.5333 C33.0228,11.2903 33.4028,11.0583 33.7818,10.8163 C34.7118,10.2193 35.6408,9.6233 36.5698,9.0313 C37.2448,8.5993 37.9238,8.1663 38.5988,7.7393 C38.7398,7.6493 38.8768,7.5593 39.0238,7.4653 L37.0008,7.4653 C36.0088,8.0933 35.0238,8.7313 34.0258,9.3643" id="Fill-10" fill="#FFFFFF"></path>
            <g id="Group-15" transform="translate(26.000000, 6.714000)">
                <mask id="mask-4" fill="white">
                    <use xlink:href="#path-3"></use>
                </mask>
                <g id="Clip-13"></g>
                <polygon id="Fill-12" fill="#FFFFFF" mask="url(#mask-4)" points="-3.766 288.165 406.02 288.165 406.02 -3.239 -3.766 -3.239"></polygon>
                <polygon id="Fill-14" fill="#FFFFFF" mask="url(#mask-4)" points="-1.205 6.266 14.447 6.266 14.447 -0.677 -1.205 -0.677"></polygon>
            </g>
            <path d="M27.5541,13.1963 C27.5481,13.2123 27.5421,13.2173 27.5421,13.2223 L27.5421,13.4853 L27.5421,14.0103 L27.5421,14.4783 C27.5421,14.4883 27.5481,14.4943 27.5481,14.5043 C29.2541,15.5713 30.9601,16.6323 32.6771,17.7043 L32.6821,17.7043 L33.7241,17.0423 C31.6581,15.7553 29.6091,14.4783 27.5541,13.1963" id="Fill-16" fill="#FFFFFF"></path>
            <g id="Group-21" transform="translate(27.000000, 12.714000)">
                <mask id="mask-6" fill="white">
                    <use xlink:href="#path-5"></use>
                </mask>
                <g id="Clip-19"></g>
                <polygon id="Fill-18" fill="#FFFFFF" mask="url(#mask-6)" points="-4.766 282.165 405.02 282.165 405.02 -9.239 -4.766 -9.239"></polygon>
                <polygon id="Fill-20" fill="#FFFFFF" mask="url(#mask-6)" points="-0.88 6.413 8.148 6.413 8.148 -0.941 -0.88 -0.941"></polygon>
            </g>
            <path d="M37.2519,9.918 C36.0669,10.67 34.8989,11.417 33.7249,12.164 C33.7409,12.183 33.7519,12.193 33.7629,12.203 C34.0589,12.396 34.3599,12.589 34.6559,12.782 C34.6619,12.787 34.6779,12.787 34.6889,12.787 C35.5399,12.248 36.3909,11.704 37.2469,11.165 C37.2519,11.159 37.2519,11.149 37.2569,11.145 L37.2569,9.918 L37.2519,9.918 Z" id="Fill-22" fill="#FFFFFF"></path>
            <g id="Group-27" transform="translate(33.000000, 9.714000)">
                <mask id="mask-8" fill="white">
                    <use xlink:href="#path-7"></use>
                </mask>
                <g id="Clip-25"></g>
                <polygon id="Fill-24" fill="#FFFFFF" mask="url(#mask-8)" points="-10.766 285.165 399.02 285.165 399.02 -6.239 -10.766 -6.239"></polygon>
                <polygon id="Fill-26" fill="#FFFFFF" mask="url(#mask-8)" points="-0.698 4.495 5.68 4.495 5.68 -1.219 -0.698 -1.219"></polygon>
            </g>
            <path d="M37.2572,12.7866 C36.8102,13.0936 36.3742,13.3946 35.9322,13.6966 C36.2832,13.9436 36.6222,14.1846 36.9612,14.4256 L37.2572,14.2206 L37.2572,12.7866 Z" id="Fill-28" fill="#FFFFFF"></path>
            <g id="Group-33" transform="translate(35.000000, 12.714000)">
                <mask id="mask-10" fill="white">
                    <use xlink:href="#path-9"></use>
                </mask>
                <g id="Clip-31"></g>
                <polygon id="Fill-30" fill="#FFFFFF" mask="url(#mask-10)" points="-12.766 282.165 397.02 282.165 397.02 -9.239 -12.766 -9.239"></polygon>
                <polygon id="Fill-32" fill="#FFFFFF" mask="url(#mask-10)" points="-0.49 3.135 3.68 3.135 3.68 -1.35 -0.49 -1.35"></polygon>
            </g>
            <g id="Group-38" transform="translate(0.000000, 19.714000)" fill="#FFFFFF">
                <path d="M21.8373,17.5946 C21.8373,18.4216 21.1643,19.0946 20.3373,19.0946 L2.5003,19.0946 C1.6723,19.0946 1.0003,18.4216 1.0003,17.5946 L1.0003,5.8116 C1.0003,4.9846 1.6723,4.3116 2.5003,4.3116 L3.3573,4.3116 L18.2053,4.3116 L20.3373,4.3116 C21.1643,4.3116 21.8373,4.9846 21.8373,5.8116 L21.8373,17.5946 Z M16.5763,1.2886 C16.8873,1.2156 17.2123,1.2826 17.4463,1.4676 C17.5453,1.5456 17.7123,1.7166 17.7123,1.9736 L17.7123,3.3116 L7.9873,3.3116 L16.5763,1.2886 Z M20.3373,3.3116 L18.7123,3.3116 L18.7123,1.9736 C18.7123,1.4786 18.4773,1.0076 18.0663,0.6836 C17.5953,0.3096 16.9533,0.1716 16.3463,0.3156 L3.6893,3.2966 L3.6303,3.3116 L2.5003,3.3116 C1.1213,3.3116 0.0003,4.4326 0.0003,5.8116 L0.0003,17.5946 C0.0003,18.9726 1.1213,20.0946 2.5003,20.0946 L20.3373,20.0946 C21.7153,20.0946 22.8373,18.9726 22.8373,17.5946 L22.8373,5.8116 C22.8373,4.4326 21.7153,3.3116 20.3373,3.3116 Z" id="Fill-34"></path>
                <path d="M6.5888,9.0394 L6.5888,9.4794 L6.5888,9.8974 L6.5888,10.3274 C6.5888,10.3374 6.5888,10.3484 6.5948,10.3534 C9.0628,11.9644 11.5138,13.5754 13.9768,15.1864 L14.9788,14.5294 C12.1798,12.7014 9.3928,10.8784 6.5888,9.0394" id="Fill-36"></path>
            </g>
            <g id="Group-42" transform="translate(6.000000, 28.714000)">
                <mask id="mask-12" fill="white">
                    <use xlink:href="#path-11"></use>
                </mask>
                <g id="Clip-40"></g>
                <polygon id="Fill-39" fill="#FFFFFF" mask="url(#mask-12)" points="-4.72 285 405.066 285 405.066 -6.403 -4.72 -6.403"></polygon>
                <polygon id="Fill-41" fill="#FFFFFF" mask="url(#mask-12)" points="-0.834 7.609 10.402 7.609 10.402 -1.384 -0.834 -1.384"></polygon>
            </g>
            <path d="M13.0722,28.1997 C12.6192,28.4907 12.1652,28.7697 11.7122,29.0597 C11.6502,29.0967 11.6102,29.1017 11.5482,29.0597 C10.9922,28.7007 10.4312,28.3427 9.8712,27.9837 C9.2872,27.5977 8.7032,27.2127 8.1142,26.8327 C7.8372,26.6537 7.5592,26.4737 7.2812,26.2947 L5.2642,26.2947 C5.3722,26.3637 5.4572,26.4217 5.5472,26.4797 C6.0742,26.8177 6.6012,27.1597 7.1282,27.4977 C7.6502,27.8357 8.1712,28.1737 8.6922,28.5117 C9.1792,28.8277 9.6722,29.1497 10.1592,29.4667 C10.6242,29.7667 11.0942,30.0627 11.5592,30.3687 C11.6102,30.4007 11.6442,30.4007 11.6952,30.3687 C12.0692,30.1257 12.4492,29.8937 12.8282,29.6517 C13.7582,29.0547 14.6872,28.4587 15.6162,27.8667 C16.2912,27.4347 16.9702,27.0017 17.6452,26.5747 C17.7862,26.4847 17.9232,26.3947 18.0702,26.2997 L16.0472,26.2997 C15.0552,26.9287 14.0702,27.5667 13.0722,28.1997" id="Fill-43" fill="#FFFFFF"></path>
            <g id="Group-48" transform="translate(5.000000, 25.714000)">
                <mask id="mask-14" fill="white">
                    <use xlink:href="#path-13"></use>
                </mask>
                <g id="Clip-46"></g>
                <polygon id="Fill-45" fill="#FFFFFF" mask="url(#mask-14)" points="-3.72 288 406.066 288 406.066 -3.403 -3.72 -3.403"></polygon>
                <polygon id="Fill-47" fill="#FFFFFF" mask="url(#mask-14)" points="-1.159 6.101 14.492 6.101 14.492 -0.842 -1.159 -0.842"></polygon>
            </g>
            <path d="M6.6005,32.0317 C6.5945,32.0477 6.5885,32.0527 6.5885,32.0577 L6.5885,32.3207 L6.5885,32.8457 L6.5885,33.3137 C6.5885,33.3237 6.5945,33.3297 6.5945,33.3397 C8.3005,34.4067 10.0055,35.4677 11.7235,36.5397 L11.7285,36.5397 L12.7705,35.8777 C10.7045,34.5907 8.6555,33.3137 6.6005,32.0317" id="Fill-49" fill="#FFFFFF"></path>
            <g id="Group-54" transform="translate(6.000000, 31.714000)">
                <mask id="mask-16" fill="white">
                    <use xlink:href="#path-15"></use>
                </mask>
                <g id="Clip-52"></g>
                <polygon id="Fill-51" fill="#FFFFFF" mask="url(#mask-16)" points="-4.72 282 405.066 282 405.066 -9.403 -4.72 -9.403"></polygon>
                <polygon id="Fill-53" fill="#FFFFFF" mask="url(#mask-16)" points="-0.834 6.248 8.194 6.248 8.194 -1.106 -0.834 -1.106"></polygon>
            </g>
            <path d="M16.2983,28.7534 C15.1133,29.5054 13.9443,30.2524 12.7713,30.9994 C12.7873,31.0184 12.7983,31.0284 12.8083,31.0384 C13.1053,31.2314 13.4063,31.4244 13.7023,31.6174 C13.7083,31.6224 13.7243,31.6224 13.7353,31.6224 C14.5863,31.0834 15.4363,30.5394 16.2933,30.0004 C16.2983,29.9944 16.2983,29.9844 16.3033,29.9804 L16.3033,28.7534 L16.2983,28.7534 Z" id="Fill-55" fill="#FFFFFF"></path>
            <g id="Group-60" transform="translate(12.000000, 28.714000)">
                <mask id="mask-18" fill="white">
                    <use xlink:href="#path-17"></use>
                </mask>
                <g id="Clip-58"></g>
                <polygon id="Fill-57" fill="#FFFFFF" mask="url(#mask-18)" points="-10.72 285 399.066 285 399.066 -6.403 -10.72 -6.403"></polygon>
                <polygon id="Fill-59" fill="#FFFFFF" mask="url(#mask-18)" points="-0.652 4.331 5.726 4.331 5.726 -1.383 -0.652 -1.383"></polygon>
            </g>
            <path d="M16.3036,31.6221 C15.8556,31.9291 15.4206,32.2301 14.9786,32.5321 C15.3296,32.7791 15.6686,33.0201 16.0076,33.2611 L16.3036,33.0561 L16.3036,31.6221 Z" id="Fill-61" fill="#FFFFFF"></path>
            <g id="Group-66" transform="translate(14.000000, 30.714000)">
                <mask id="mask-20" fill="white">
                    <use xlink:href="#path-19"></use>
                </mask>
                <g id="Clip-64"></g>
                <polygon id="Fill-63" fill="#FFFFFF" mask="url(#mask-20)" points="-12.72 283 397.066 283 397.066 -8.403 -12.72 -8.403"></polygon>
                <polygon id="Fill-65" fill="#FFFFFF" mask="url(#mask-20)" points="-0.444 3.97 3.726 3.97 3.726 -0.515 -0.444 -0.515"></polygon>
            </g>
            <path d="M32.5644,23.4107 L29.0484,26.9257 L29.7914,27.6677 L32.0394,25.4207 L32.0644,25.4207 L32.0644,29.2767 C32.0644,31.2067 30.4944,32.7767 28.5644,32.7767 L25.4814,32.7767 L25.4814,33.7767 L28.5644,33.7767 C31.0454,33.7767 33.0644,31.7587 33.0644,29.2767 L33.0644,25.4207 L33.0894,25.4207 L35.3364,27.6687 L36.0794,26.9257 L32.5644,23.4107 Z" id="Fill-67" fill="#FFFFFF"></path>
        </g>
    </g>
</svg>