<?xml version="1.0" encoding="UTF-8"?>
<svg width="108px" height="45.5px"
  viewBox="0 0 108 45.5"
  version="1.1"
  xmlns="http://www.w3.org/2000/svg"
  xmlns:xlink="http://www.w3.org/1999/xlink">
  <g id="yoroi-with-trezor-logo-white"
    stroke-width="1"
    transform="scale(1.1, 1.1)"
    fill-rule="evenodd">
    <g id="yoroi-logo-group"
      transform="translate(6.000000, 6.000000)"
      fill="#FFFFFF">
      <path id="yoroi-logo-path-1" d="M3.62068966,7.2 L3.62068966,8.48793103 C3.62068966,8.89137931 3.62068966,9.31034483 3.62068966,9.7137931 L3.62068966,10.9706897 C3.62068966,11.0017241 3.62068966,11.0327586 3.63598721,11.0482759 C10.3822088,15.7655172 17.0825378,20.4827586 23.8134618,25.2 L26.5517241,23.2758621 C18.9029468,17.9224138 11.2847646,12.5844828 3.62068966,7.2 Z"></path>
      <path id="yoroi-logo-path-2" d="M21.340708,5.57887959 C20.1017699,6.42884739 18.8628319,7.24790728 17.6238938,8.09787508 C17.4535398,8.2060528 17.3451327,8.22150676 17.1747788,8.09787508 C15.6570796,7.0470058 14.1238938,5.99613651 12.590708,4.94526722 C10.9955752,3.81712814 9.40044248,2.68898905 7.78982301,1.57630393 C7.03097345,1.05086929 6.27212389,0.525434643 5.51327434,0 L0,0 C0.294247788,0.200901481 0.526548673,0.370895042 0.774336283,0.540888603 C2.21460177,1.52994205 3.65486726,2.53444945 5.09513274,3.5235029 C6.5199115,4.51255634 7.94469027,5.50160979 9.36946903,6.49066323 C10.7013274,7.41790084 12.0486726,8.3605924 13.380531,9.28783001 C14.6504425,10.1687057 15.9358407,11.0341275 17.2057522,11.9304572 C17.3451327,12.0231809 17.4380531,12.0231809 17.5774336,11.9304572 C18.5995575,11.219575 19.6371681,10.5396008 20.6747788,9.82871861 C23.2146018,8.08242112 25.7544248,6.33612363 28.2942478,4.6052801 C30.1371681,3.33805538 31.9955752,2.07083065 33.8384956,0.819059884 C34.2256637,0.556342563 34.5973451,0.293625241 35,0.0154539601 L29.4712389,0.0154539601 C26.7610619,1.85447521 24.0663717,3.72440438 21.340708,5.57887959 Z"></path>
      <path id="yoroi-logo-path-3" d="M3.6525099,16.8 C3.63659978,16.8461538 3.62068966,16.8615385 3.62068966,16.8769231 C3.62068966,17.1384615 3.62068966,17.3846154 3.62068966,17.6461538 L3.62068966,19.1846154 C3.62068966,19.6461538 3.62068966,20.1076923 3.62068966,20.5538462 C3.62068966,20.5846154 3.63659978,20.6 3.63659978,20.6307692 C8.29826612,23.7538462 12.9599325,26.8615385 17.6534191,30 C17.6534191,30 17.6693292,30 17.6693292,30 L20.5172414,28.0615385 C14.8691473,24.2923077 9.26878369,20.5538462 3.6525099,16.8 Z"></path>
      <path id="yoroi-logo-path-4" d="M30.1576955,7.2 C26.9196804,9.40137931 23.72582,11.5882759 20.5172414,13.7751724 C20.5613961,13.8331034 20.5908326,13.862069 20.6202691,13.8910345 C21.4297729,14.4558621 22.253995,15.0206897 23.0634987,15.5855172 C23.078217,15.6 23.1223717,15.6 23.1518082,15.6 C25.4772918,14.0213793 27.8027754,12.4282759 30.1429773,10.8496552 C30.1576955,10.8351724 30.1576955,10.8062069 30.1724138,10.7917241 L30.1724138,7.2 L30.1576955,7.2 Z"></path>
      <path id="yoroi-logo-path-5" d="M30.1724138,15.6 C28.9489844,16.5 27.7586207,17.3823529 26.5517241,18.2647059 C27.5106282,18.9882353 28.4364667,19.6941176 29.3623051,20.4 L30.1724138,19.8 L30.1724138,15.6 Z"></path>
    </g>
    <g id="plus-logo-group"
      transform="translate(49.000000, 12.000000) scale(1.1, 1.1)"
      fill="#FFFFFF">
      <path id="plus-logo-path-1" d="M11.2917855,6.29177759 L7.70816053,6.29177759 L7.70816053,2.70819541 C7.70816053,2.31708147 7.3910705,2 6.999946,2 C6.6088215,2 6.29173147,2.31713547 6.29173147,2.70819541 L6.29173147,6.29199358 L2.70821453,6.29199358 C2.31714403,6.29199358 2,6.60912905 2,7.000189 C2,7.39130294 2.31714403,7.70838441 2.70821453,7.70838441 L6.29156947,7.70838441 L6.29156947,11.2918586 C6.29156947,11.6829185 6.6086595,12 6.999784,12 C7.3908545,12 7.70799853,11.6829185 7.70799853,11.2918586 L7.70799853,7.70822241 L11.2918395,7.70822241 C11.682856,7.70822241 12,7.39108694 12,7.000027 C12,6.60891306 11.682856,6.29177759 11.2917855,6.29177759 Z"></path>
    </g>        
    <g class="trezor-t-group"
      transform="translate(75.000000, 6.000000)"
      fill-rule="nonzero"
      stroke="#FFFFFF"
      fill="none"
      stroke-width="1.5">
      <path id="trezor-t-path-1" d="M20.25,2.29297206 C20.25,1.45234816 19.471441,0.75 18.4592078,0.75 L2.53779417,0.75 C1.52501544,0.75 0.750318884,1.44941287 0.750318884,2.29297206 L0.750216779,18.1122906 C0.74505906,18.4248296 0.832058179,18.7313507 0.99674239,18.9874707 L5.32410259,25.625623 C5.35664926,25.6704843 5.42703189,25.7605051 5.52959484,25.8801835 C5.70336037,26.0829467 5.89870603,26.2859704 6.10881886,26.4735757 C6.66122913,26.9668113 7.20181579,27.25 7.64591436,27.25 L13.2648466,27.25 C13.715546,27.25 14.2465606,26.9839582 14.7840866,26.5207553 C14.9875275,26.345444 15.1759388,26.1557712 15.3429147,25.9664444 C15.4411934,25.8550104 15.5081682,25.7715395 15.5139104,25.7658748 L19.9709705,18.9860639 C20.1414812,18.6999582 20.2378338,18.3734184 20.25,18.0660457 L20.25,2.29297206 Z"></path>
      <path id="trezor-t-path-2" d="M4.75834196,5.75 L4.75834196,14.25 L16.25,14.25 L16.25,5.75 L4.75834196,5.75 Z M16.2319687,14.3785039 C16.2314061,14.3793503 16.2308553,14.3801955 16.2303163,14.3810393 C16.2317671,14.378768 16.233352,14.3754524 16.2349723,14.3712194 Z"></path>
    </g>
  </g>
</svg>