<svg width="18" height="18" xmlns="http://www.w3.org/2000/svg"><path d="M13.192 2.335c.303.232.492.56.53.915l.008.134v.721h.953c1.004 0 1.837.728 1.966 1.67l.013.13.005.127v8.13c0 1.02-.821 1.856-1.854 1.922l-.13.004h-12.7c-1.049 0-1.911-.796-1.979-1.8L0 14.162v-8.13C0 5.01.82 4.175 1.853 4.11l.13-.004.756.005 9.057-2.067a1.688 1.688 0 011.396.29zm1.491 2.863h-12.7a.855.855 0 00-.86.743l-.004.09v8.13c0 .429.336.784.77.83l.094.004h12.7a.855.855 0 00.86-.743l.005-.09v-8.13c0-.459-.387-.834-.865-.834zm-6.18 2.603L10 9.28 5.664 13.6H4.167v-1.479l4.335-4.321zm1.44-1.531a.423.423 0 01.603 0l.991.97a.401.401 0 010 .589l-.732.8-1.638-1.6.776-.76zm2.19-3.175l-.082.013-4.373.997h4.933v-.72a.219.219 0 00-.065-.15l-.045-.041a.536.536 0 00-.368-.099z" fill="#8A92A3" fill-rule="nonzero"/></svg>