<svg width="24" height="24" xmlns="http://www.w3.org/2000/svg"><path d="M3.548 10.168c.129-.128.312-.133.399-.043l1.924 1.5c.17.175.04.495-.22.495H4.524l-.15.152.003.122a7.901 7.901 0 001.042 3.7 7.832 7.832 0 002.39 2.571 7.607 7.607 0 003.313 1.243 7.601 7.601 0 003.854-.528 7.725 7.725 0 003.054-2.316.595.595 0 01.847-.091.62.62 0 01.09.862 8.942 8.942 0 01-3.533 2.679 8.789 8.789 0 01-4.456.61 8.805 8.805 0 01-3.835-1.437 9.056 9.056 0 01-2.764-2.975 9.149 9.149 0 01-1.21-4.444l-.15-.148H1.804c-.265 0-.384-.324-.171-.537l1.915-1.415zm8.238-3.1c.186 0 .325.094.395.257l1.442 3.535h1.14c.232 0 .418.186.418.418 0 .233-.21.396-.442.396h-.79l.348.86h1.256c.233 0 .442.163.442.395.023.233-.186.419-.442.442H14.6l1.162 2.884c.093.21-.023.442-.232.535-.07.023-.116.023-.163.023a.407.407 0 01-.395-.256l-1.28-3.186H9.926l-1.232 3.163a.43.43 0 01-.396.256c-.046 0-.093 0-.14-.023-.209-.093-.325-.326-.232-.535l1.116-2.907h-.953a.417.417 0 01-.419-.419c0-.232.21-.395.442-.395h1.233l.349-.86h-.814a.417.417 0 01-.419-.42c0-.232.21-.395.442-.395h1.116l1.372-3.511a.472.472 0 01.396-.256zM8.189 3.74a8.789 8.789 0 014.456-.61 8.805 8.805 0 013.835 1.437 9.056 9.056 0 012.764 2.975 9.149 9.149 0 011.21 4.444l.15.148h1.216c.265 0 .385.324.171.537l-1.915 1.415c-.129.127-.312.133-.399.043l-1.924-1.501c-.17-.174-.04-.494.22-.494H19.1l.15-.152-.003-.122a7.901 7.901 0 00-1.042-3.7 7.832 7.832 0 00-2.39-2.572A7.607 7.607 0 0012.5 4.345a7.601 7.601 0 00-3.854.528 7.725 7.725 0 00-3.054 2.316.595.595 0 01-.847.091.62.62 0 01-.09-.862A8.942 8.942 0 018.19 3.739zm4.852 7.935h-2.418l-.349.86h3.116l-.349-.86zm-1.232-3.07l-.884 2.232h1.79l-.906-2.232z" fill="#17D1AA" fill-rule="nonzero"/></svg>