<?xml version="1.0" encoding="UTF-8"?>
<svg width="25px" height="25px" viewBox="0 0 25 25" version="1.1" xmlns="http://www.w3.org/2000/svg" xmlns:xlink="http://www.w3.org/1999/xlink">
    <title>7571436E-C3DB-42AA-8601-E4D45DF95ADD</title>
    <defs>
        <rect id="path-1" x="128" y="100" width="1202" height="20" rx="8"></rect>
        <filter x="-1.6%" y="-85.0%" width="103.2%" height="290.0%" filterUnits="objectBoundingBox" id="filter-2">
            <feOffset dx="0" dy="2" in="SourceAlpha" result="shadowOffsetOuter1"></feOffset>
            <feGaussianBlur stdDeviation="6" in="shadowOffsetOuter1" result="shadowBlurOuter1"></feGaussianBlur>
            <feColorMatrix values="0 0 0 0 0   0 0 0 0 0   0 0 0 0 0  0 0 0 0.06 0" type="matrix" in="shadowBlurOuter1"></feColorMatrix>
        </filter>
    </defs>
    <g id="*transactions" stroke="none" stroke-width="1" fill="none" fill-rule="evenodd">
        <g id="Transactions-(status-wording)" transform="translate(-909.000000, -118.000000)">
            <rect id="bg" fill="#F0F3F5" x="0" y="0" width="1366" height="1178"></rect>
            <g id="Rectangle-5">
                <use fill="black" fill-opacity="1" filter="url(#filter-2)" xlink:href="#path-1"></use>
                <use fill="#FFFFFF" fill-rule="evenodd" xlink:href="#path-1"></use>
            </g>
            <rect id="Rectangle-5" fill="#FFFFFF" x="128" y="108" width="1202" height="1039" rx="8"></rect>
            <g id="tabs" transform="translate(127.000000, 100.000000)">
                <path d="M8,0 L1194.99917,0 C1199.41745,-1.26386638e-13 1202.99917,3.581722 1202.99917,8 L1202.99917,62 L1202.99917,62 L0,62 L0,8 C-5.41083001e-16,3.581722 3.581722,8.11624501e-16 8,0 Z" id="Rectangle-5" fill="#F0F3F5"></path>
                <g id="tab/default-copy-2" transform="translate(729.605985, 0.000000)">
                    <path d="M4,1.36424205e-12 L233.197007,1.36424205e-12 C235.406146,1.34813936e-12 237.197007,1.790861 237.197007,4 L237.197007,62 L237.197007,62 L0,62 L0,4 C-2.705415e-16,1.790861 1.790861,1.36464786e-12 4,1.36424205e-12 Z" id="Rectangle-7-Copy-2" opacity="0"></path>
                    <g id="Group" transform="translate(53.098504, 18.000000)" fill="#6B7384">
                        <g id="icon-/-transactions" transform="translate(0.000000, 1.000000)">
                            <path d="M10.143444,10.8686525 C10.7351364,10.8686525 11.2172201,11.3761934 11.2172201,11.9998 L11.2172201,11.9998 L11.2172201,19.8686525 C11.2172201,20.4912754 10.7351364,20.9998 10.143444,20.9998 L10.143444,20.9998 L4.5737761,20.9998 C3.98208376,20.9998 3.5,20.4912754 3.5,19.8686525 L3.5,19.8686525 L3.5,11.9998 C3.5,11.3761934 3.98208376,10.8686525 4.5737761,10.8686525 L4.5737761,10.8686525 Z M19.4262239,14.8020951 C20.0179162,14.8020951 20.5,15.3106197 20.5,15.9342262 L20.5,15.9342262 L20.5,19.8686525 C20.5,20.4912754 20.0179162,20.9998 19.4262239,20.9998 L19.4262239,20.9998 L13.856556,20.9998 C13.2638936,20.9998 12.7818099,20.4912754 12.7818099,19.8686525 L12.7818099,19.8686525 L12.7818099,15.9342262 C12.7818099,15.3106197 13.2638936,14.8020951 13.856556,14.8020951 L13.856556,14.8020951 Z M9.53332192,12.6391443 L5.18292822,12.6391443 L5.18292822,19.2283246 L9.53332192,19.2283246 L9.53332192,12.6391443 Z M18.8161018,16.5735705 L14.4666781,16.5735705 L14.4666781,19.2283246 L18.8161018,19.2283246 L18.8161018,16.5735705 Z M19.4262239,2.9998 C20.0179162,2.9998 20.5,3.50734098 20.5,4.13094754 L20.5,4.13094754 L20.5,11.9998 C20.5,12.6234066 20.0179162,13.1309475 19.4262239,13.1309475 L19.4262239,13.1309475 L13.856556,13.1309475 C13.2638936,13.1309475 12.7818099,12.6234066 12.7818099,11.9998 L12.7818099,11.9998 L12.7818099,4.13094754 C12.7818099,3.50734098 13.2638936,2.9998 13.856556,2.9998 L13.856556,2.9998 Z M18.8161018,4.7702918 L14.4666781,4.7702918 L14.4666781,11.3604557 L18.8161018,11.3604557 L18.8161018,4.7702918 Z M10.143444,2.9998 C10.7351364,2.9998 11.2172201,3.50734098 11.2172201,4.13094754 L11.2172201,4.13094754 L11.2172201,8.06537377 C11.2172201,8.68898033 10.7351364,9.19652131 10.143444,9.19652131 L10.143444,9.19652131 L4.5737761,9.19652131 C3.98208376,9.19652131 3.5,8.68898033 3.5,8.06537377 L3.5,8.06537377 L3.5,4.13094754 C3.5,3.50734098 3.98208376,2.9998 4.5737761,2.9998 L4.5737761,2.9998 Z M9.53332192,4.7702918 L5.18292822,4.7702918 L5.18292822,7.42602951 L9.53332192,7.42602951 L9.53332192,4.7702918 Z" id="Combined-Shape"></path>
                        </g>
                    </g>
                </g>
            </g>
        </g>
    </g>
</svg>