<svg width="18" height="18" xmlns="http://www.w3.org/2000/svg" xmlns:xlink="http://www.w3.org/1999/xlink"><defs><circle id="a" cx="8" cy="8" r="8"/></defs><g transform="translate(1 1)" fill="none" fillRule="evenodd"><mask id="b" fill="#fff"><use xlink:href="#a"/></mask><circle stroke-opacity=".3" stroke="#4A4A4A" stroke-width=".5" cx="8" cy="8" r="8.25"/><g mask="url(#b)"><path fill="#CB2127" d="M0 0h28v16H0z"/><path fill="#F7DE28" d="M2.765 6l.468-1.526L2 3.526l1.525-.005L4.002 2l.473 1.521L6 3.526l-1.233.948L5.235 6l-1.233-.942zM7.09 6.302l.73.282L8.325 6l-.055.765.731.289-.766.188L8.18 8l-.42-.644-.759.18.503-.59zM11 3.453l-.762-.129L9.871 4l-.11-.764L9 3.101l.694-.337L9.585 2l.544.554.694-.338-.36.683zM9.383 7l.234-.76L9 5.767h.765L10 5l.235.768H11l-.617.471.234.761L10 6.535zM7.15 1.242l.71.317L8.392 1l-.095.76.703.33-.765.15L8.14 3l-.375-.673L7 2.475l.526-.566z"/></g></g></svg>