<svg width="18" height="18" xmlns="http://www.w3.org/2000/svg" xmlns:xlink="http://www.w3.org/1999/xlink"><defs><circle id="a" cx="8" cy="8" r="8"/></defs><g transform="translate(1 1)" fill="none" fill-rule="evenodd"><mask id="b" fill="#fff"><use xlink:href="#a"/></mask><circle stroke-opacity=".3" stroke="#4A4A4A" stroke-width=".5" cx="8" cy="8" r="8.25"/><g mask="url(#b)"><g transform="translate(-2 -1)" fill-rule="nonzero"><circle fill="#F0F0F0" cx="10" cy="9" r="9"/><g fill="#D80027"><path d="M9.46 9.01H19a8.74 8.74 0 0 0-.315-2.33H9.46v2.33zM9.46 4.352h8.198a9.047 9.047 0 0 0-2.11-2.33H9.46v2.33zM9.857 17.938c2.152 0 4.13-.727 5.691-1.941H4.166a9.242 9.242 0 0 0 5.691 1.94zM2.056 13.668h15.602a8.767 8.767 0 0 0 1.027-2.33H1.029c.23.831.578 1.614 1.027 2.33z"/></g><path d="M4.632 1.562h.911l-.847.615.324.997-.848-.616-.848.616.28-.86c-.746.62-1.4 1.35-1.94 2.16h.293l-.54.393c-.084.14-.165.282-.242.427l.258.793-.481-.35c-.12.254-.229.513-.327.777l.284.874h1.048l-.848.616.324.996-.848-.616-.508.37C.027 9.161 0 9.577 0 10h10V0a9.953 9.953 0 0 0-5.368 1.562zM5.02 9l-.848-.616L3.324 9l.324-.996-.847-.616h1.047l.324-.997.324.997h1.047l-.847.616L5.02 9zm-.324-3.91l.324.997-.848-.616-.848.616.324-.996-.847-.616h1.047l.324-.997.324.997h1.047l-.847.616zM8.606 9l-.847-.616L6.91 9l.324-.996-.848-.616h1.048l.324-.997.324.997H9.13l-.847.616.324.996zm-.323-3.91l.324.997-.848-.616-.848.616.324-.996-.848-.616h1.048l.324-.997.324.997H9.13l-.847.616zm0-2.913l.324.997-.848-.616-.848.616.324-.997-.848-.615h1.048L7.76.565l.324.997H9.13l-.847.615z" fill="#0052B4"/></g></g></g></svg>