<svg width="18" height="18" xmlns="http://www.w3.org/2000/svg" xmlns:xlink="http://www.w3.org/1999/xlink"><defs><circle id="a" cx="8" cy="8" r="8"/></defs><g transform="translate(1 1)" fill="none" fillRule="evenodd"><mask id="b" fill="#fff"><use xlink:href="#a"/></mask><circle stroke-opacity=".3" stroke="#4A4A4A" stroke-width=".5" cx="8" cy="8" r="8.25"/><g mask="url(#b)"><path fill="#FFF" d="M-4 .016h24v15.972H-4z"/><path fill="#010101" d="M11.397 3.652l.484-.32.889 1.327-.484.321zM12.45 5.219l.484-.321.89 1.328-.484.32zM12.126 3.166l.483-.32 1.942 2.9-.483.321zM12.856 2.685l.483-.321.89 1.328-.484.32zM13.904 4.254l.484-.32.89 1.327-.484.321zM2.174 9.77l.483-.32 1.942 2.9-.483.321zM1.45 10.254l.483-.32.89 1.327-.484.321zM2.501 11.827l.484-.32.89 1.327-.485.321zM.718 10.741l.484-.32 1.942 2.9-.484.32zM2.176 6.228l1.942-2.9.483.32-1.942 2.9zM1.447 5.742l1.942-2.9.483.32L1.93 6.064zM.72 5.263l1.941-2.9.484.32-1.942 2.901zM11.398 12.351l.89-1.328.483.321-.89 1.328zM12.448 10.777l.89-1.328.483.321-.889 1.328zM12.126 12.83l.889-1.327.484.32-.89 1.329zM13.178 11.263l.89-1.328.483.32-.889 1.329zM12.855 13.316l.889-1.328.483.321-.889 1.328zM13.904 11.746l.889-1.328.483.32-.889 1.329z"/><path d="M5.137 6.068c-.03.033-.05.067-.08.1a.7.7 0 0 1 .08-.1" fill="#B51E3A"/><path d="M9.94 5.102a3.506 3.506 0 0 0-4.85.966 1.74 1.74 0 0 0 .487 2.417c.806.532 1.889.318 2.428-.485a1.756 1.756 0 0 1 2.428-.485 1.739 1.739 0 0 1 .487 2.417 3.482 3.482 0 0 0-.98-4.83" fill="#B51E3A"/><path d="M5.09 6.068a1.74 1.74 0 0 0 .487 2.417c.806.532 1.889.318 2.428-.485a1.756 1.756 0 0 1 2.428-.485 1.739 1.739 0 0 1 .487 2.417 3.507 3.507 0 0 1-4.851.966c-1.608-1.069-2.053-3.23-.98-4.83" fill="#273775"/></g></g></svg>