<?xml version="1.0" encoding="UTF-8"?>
<svg width="18px" height="18px" viewBox="0 0 18 18" version="1.1" xmlns="http://www.w3.org/2000/svg" xmlns:xlink="http://www.w3.org/1999/xlink">
    <title>slovakian</title>
    <defs>
        <circle id="path-1" cx="8" cy="8" r="7.75757576"></circle>
        <path d="M3.10089907,0 C1.82502214,0.614564887 -7.34945214e-16,1.8343584 -7.34945214e-16,4.24729381 C-7.34945214e-16,6.66022922 0.115359906,7.75757572 0.115359906,7.75757572 L3.10089907,7.75757572 L6.08649713,7.75757572 C6.08649713,7.75757572 6.20189388,6.66022922 6.20189388,4.24729381 C6.20189388,1.8343584 4.37685709,0.614564887 3.10089907,0 Z" id="path-3"></path>
    </defs>
    <g id="✅-REWAMP-1.1-(iOS)" stroke="none" stroke-width="1" fill="none" fill-rule="evenodd">
        <g id="slovakian" transform="translate(1.000000, 1.000000)">
            <circle id="Oval" stroke-opacity="0.302790987" stroke="#4A4A4A" stroke-width="0.5" cx="8" cy="8" r="8"></circle>
            <mask id="mask-2" fill="white">
                <use xlink:href="#path-1"></use>
            </mask>
            <g id="path-1"></g>
            <g id="slovakian-flag" mask="url(#mask-2)">
                <rect id="rect8" fill="#EE1C25" fill-rule="nonzero" x="0" y="0" width="16.4848485" height="16.4848485"></rect>
                <rect id="rect10" fill="#0B4EA2" fill-rule="nonzero" x="0" y="0" width="16.4848485" height="10.3434343"></rect>
                <rect id="rect12" fill="#FFFFFF" fill-rule="nonzero" x="0" y="0" width="16.4848485" height="5.17171717"></rect>
                <path d="M5.26881409,11.9854514 C3.87810935,11.3155762 1.88883678,9.98600223 1.88883678,7.35590452 C1.88883678,4.7258068 2.01457881,3.52970007 2.01457881,3.52970007 L5.26881409,3.52970007 L8.52311376,3.52970007 C8.52311376,3.52970007 8.64889613,4.7258068 8.64889613,7.35590452 C8.64889613,9.98600223 6.65960753,11.3155762 5.26881409,11.9854514 Z" id="path3055" fill="#FFFFFF" fill-rule="nonzero"></path>
                <g id="g2826" transform="translate(5.268867, 7.757576) scale(-1, 1) rotate(-180.000000) translate(-5.268867, -7.757576) translate(2.167920, 3.878788)">
                    <g id="g3759" transform="translate(-0.000000, 0.000000)">
                        <path d="M3.10089907,0 C1.82502214,0.614564887 -7.34945214e-16,1.8343584 -7.34945214e-16,4.24729381 C-7.34945214e-16,6.66022922 0.115359906,7.75757572 0.115359906,7.75757572 L3.10089907,7.75757572 L6.08649713,7.75757572 C6.08649713,7.75757572 6.20189388,6.66022922 6.20189388,4.24729381 C6.20189388,1.8343584 4.37685709,0.614564887 3.10089907,0 Z" id="path2828" fill="#EE1C25" fill-rule="nonzero"></path>
                        <g id="g2832-Clipped">
                            <mask id="mask-4" fill="white">
                                <use xlink:href="#path-3"></use>
                            </mask>
                            <g id="path2836"></g>
                            <g id="g2832" mask="url(#mask-4)">
                                <g transform="translate(0.401020, -0.791598)">
                                    <path d="M2.97275155,5.67153159 C3.31821929,5.66594904 3.99223768,5.65241685 4.59240739,5.8532477 C4.59240739,5.8532477 4.57656699,5.63847884 4.57656699,5.38829752 C4.57656699,5.13805715 4.59240739,4.92330324 4.59240739,4.92330324 C4.04189791,5.10751922 3.36206831,5.11135403 2.97275155,5.10642047 L2.97275155,3.7736932 L2.42705013,3.7736932 L2.42705013,5.10642047 C2.03776282,5.11135403 1.35792597,5.10751997 0.807394288,4.92330324 C0.807394288,4.92330324 0.823249483,5.13805715 0.823249483,5.38829752 C0.823249483,5.63847884 0.807394288,5.8532477 0.807394288,5.8532477 C1.40757139,5.65241685 2.08158239,5.66594904 2.42705013,5.67153159 L2.42705013,6.50851262 C2.11217938,6.5113076 1.65844594,6.49627084 1.1454212,6.32459146 C1.1454212,6.32459146 1.1612764,6.53936033 1.1612764,6.78958589 C1.1612764,7.03978201 1.1454212,7.25455072 1.1454212,7.25455072 C1.65768641,7.08315166 2.11086677,7.06787159 2.42564902,7.07060026 C2.40947666,7.60058634 2.25506854,8.26863147 2.25506854,8.26863147 C2.25506854,8.26863147 2.57284482,8.24383088 2.69987879,8.24383088 C2.82704536,8.24383088 3.14472589,8.26863147 3.14472589,8.26863147 C3.14472589,8.26863147 2.99036202,7.60058634 2.97415266,7.07060026 C3.28895711,7.06787159 3.74212282,7.08315166 4.25437322,7.25455072 C4.25437322,7.25455072 4.23853268,7.03978201 4.23853268,6.78958589 C4.23853268,6.53936033 4.25437322,6.32459146 4.25437322,6.32459146 C3.74137054,6.49627084 3.28761505,6.5113076 2.97275155,6.50851262 L2.97275155,5.67153159 Z" id="path2838" fill="#FFFFFF" fill-rule="nonzero"></path>
                                    <path d="M2.64367002,0 L0,2.35649059 C0,2.35649059 0.337975264,3.44955265 0.997657528,3.44955265 C1.52188421,3.44955265 1.71320194,3.02686597 1.71320194,3.02686597 C1.71320194,3.02686597 2.05737173,3.91787292 2.69987879,3.91787292 C3.34243735,3.91787292 3.68662194,3.02686597 3.68662194,3.02686597 C3.68662194,3.02686597 3.87790282,3.44955265 4.4021443,3.44955265 C5.06182656,3.44955265 5.39978703,2.35649059 5.39978703,2.35649059 L2.64367002,0 Z" id="path2840" fill="#0B4EA2" fill-rule="evenodd"></path>
                                </g>
                            </g>
                        </g>
                    </g>
                </g>
            </g>
        </g>
    </g>
</svg>