<svg width="18" height="18" xmlns="http://www.w3.org/2000/svg"><path d="M13.99 2.82c.302.233.492.561.53.916l.007.134v.721h.954c1.003 0 1.836.728 1.966 1.67l.013.13.004.127v8.13c0 1.02-.82 1.857-1.853 1.922l-.13.004h-12.7c-1.05 0-1.912-.795-1.98-1.8l-.003-.126v-8.13c0-1.02.82-1.857 1.853-1.922l.13-.004.755.006 9.058-2.068a1.688 1.688 0 011.395.29zm1.491 2.864h-12.7a.855.855 0 00-.86.743l-.005.09v8.13c0 .429.337.784.77.83l.095.004h12.7a.855.855 0 00.86-.743l.005-.09v-8.13c0-.459-.387-.834-.865-.834zm-2.04 6.746a.415.415 0 01.075.822l-.074.007H4.964a.415.415 0 01-.075-.822l.075-.007h8.478zm0-2.486a.415.415 0 01.075.822l-.074.007H4.964a.415.415 0 01-.075-.822l.075-.007h8.478zm0-2.486a.415.415 0 01.075.822l-.074.007H4.964a.415.415 0 01-.075-.822l.075-.007h8.478zm-.51-3.877l-.082.013-4.373.997h4.932v-.72a.219.219 0 00-.064-.15l-.045-.04a.536.536 0 00-.368-.1z" fill="#8A92A3" fill-rule="nonzero"/></svg>