<?xml version="1.0" encoding="UTF-8"?>
<svg width="18px" height="18px" viewBox="0 0 24 24" version="1.1" xmlns="http://www.w3.org/2000/svg" xmlns:xlink="http://www.w3.org/1999/xlink">
    <!-- Generator: Sketch 60 (88103) - https://sketch.com -->
    <title>icon/ledger</title>
    <desc>Created with Sketch.</desc>
    <g id="icon/ledger" stroke="none" stroke-width="1" fill="none" fillRule="evenodd">
        <g id="+ledger-white.inline" transform="translate(3.000000, 3.000000)" fill="#8A92A3" fillRule="nonzero">
            <path d="M14.6485701,0.0235008866 L6.62015346,0.0235008866 L6.62015346,10.7982503 L17.3949145,10.7982503 L17.3949145,2.82686606 C17.3992899,1.31331209 16.1621241,0.0235008866 14.6485701,0.0235008866 Z M4.15459596,0.0235008866 L2.80775229,0.0235008866 C1.29419832,0.0235008866 0,1.25627963 0,2.83125317 L0,4.17809684 L4.15459596,4.17809684 L4.15459596,0.0235008866 Z M0,6.70068679 L4.15459596,6.70068679 L4.15459596,10.8552828 L0,10.8552828 L0,6.70068679 Z M13.244694,17.4754362 L14.5915377,17.4754362 C16.1050916,17.4754362 17.3992899,16.2426574 17.3992899,14.6676839 L17.3992899,13.3252273 L13.244694,13.3252273 L13.244694,17.4754362 Z M6.62015346,13.3252273 L10.7747494,13.3252273 L10.7747494,17.4798233 L6.62015346,17.4798233 L6.62015346,13.3252273 Z M0,13.3252273 L0,14.672071 C0,16.185625 1.23277874,17.4798233 2.80775229,17.4798233 L4.15459596,17.4798233 L4.15459596,13.3252273 L0,13.3252273 Z" id="Shape"></path>
        </g>
    </g>
</svg>