<svg width="24" height="24" xmlns="http://www.w3.org/2000/svg"><path d="M19.773 5.773c.385 0 .755.174.99.481.295.387.317.907.055 1.315l-5.95 9.288a1.239 1.239 0 01-1.047.56 1.26 1.26 0 01-.63-.167l-2.533-1.46-3.083 2.305a.443.443 0 01-.451.045.41.41 0 01-.24-.37v-4.155L3.595 11.72a1.163 1.163 0 01-.583-1.183c.073-.471.434-.854.915-.97l15.545-3.759c.1-.024.2-.035.3-.035zm-.48 1.516L4.806 10.792l2.893 1.667 5.955-2.212a.152.152 0 01.181.06.139.139 0 01-.03.181l-3.91 3.236 3.854 2.221 5.546-8.656z" fill="#6B7384" fill-rule="nonzero"/></svg>