<?xml version="1.0" encoding="UTF-8"?>
<svg width="24px" height="24px" viewBox="0 0 24 24" version="1.1" xmlns="http://www.w3.org/2000/svg" xmlns:xlink="http://www.w3.org/1999/xlink">
    <title>icon/dashboard active</title>
    <g id="icon/dashboard-active" stroke="none" stroke-width="1" fill="none" fillRule="evenodd">
        <rect id="Rectangle" opacity="0" x="0" y="0" width="24" height="24"></rect>
        <path d="M10.143444,10.8686525 C10.7351364,10.8686525 11.2172201,11.3761934 11.2172201,11.9998 L11.2172201,11.9998 L11.2172201,19.8686525 C11.2172201,20.4912754 10.7351364,20.9998 10.143444,20.9998 L10.143444,20.9998 L4.5737761,20.9998 C3.98208376,20.9998 3.5,20.4912754 3.5,19.8686525 L3.5,19.8686525 L3.5,11.9998 C3.5,11.3761934 3.98208376,10.8686525 4.5737761,10.8686525 L4.5737761,10.8686525 Z M19.4262239,14.8020951 C20.0179162,14.8020951 20.5,15.3106197 20.5,15.9342262 L20.5,15.9342262 L20.5,19.8686525 C20.5,20.4912754 20.0179162,20.9998 19.4262239,20.9998 L19.4262239,20.9998 L13.856556,20.9998 C13.2638936,20.9998 12.7818099,20.4912754 12.7818099,19.8686525 L12.7818099,19.8686525 L12.7818099,15.9342262 C12.7818099,15.3106197 13.2638936,14.8020951 13.856556,14.8020951 L13.856556,14.8020951 Z M9.53332192,12.6391443 L5.18292822,12.6391443 L5.18292822,19.2283246 L9.53332192,19.2283246 L9.53332192,12.6391443 Z M18.8161018,16.5735705 L14.4666781,16.5735705 L14.4666781,19.2283246 L18.8161018,19.2283246 L18.8161018,16.5735705 Z M19.4262239,2.9998 C20.0179162,2.9998 20.5,3.50734098 20.5,4.13094754 L20.5,4.13094754 L20.5,11.9998 C20.5,12.6234066 20.0179162,13.1309475 19.4262239,13.1309475 L19.4262239,13.1309475 L13.856556,13.1309475 C13.2638936,13.1309475 12.7818099,12.6234066 12.7818099,11.9998 L12.7818099,11.9998 L12.7818099,4.13094754 C12.7818099,3.50734098 13.2638936,2.9998 13.856556,2.9998 L13.856556,2.9998 Z M18.8161018,4.7702918 L14.4666781,4.7702918 L14.4666781,11.3604557 L18.8161018,11.3604557 L18.8161018,4.7702918 Z M10.143444,2.9998 C10.7351364,2.9998 11.2172201,3.50734098 11.2172201,4.13094754 L11.2172201,4.13094754 L11.2172201,8.06537377 C11.2172201,8.68898033 10.7351364,9.19652131 10.143444,9.19652131 L10.143444,9.19652131 L4.5737761,9.19652131 C3.98208376,9.19652131 3.5,8.68898033 3.5,8.06537377 L3.5,8.06537377 L3.5,4.13094754 C3.5,3.50734098 3.98208376,2.9998 4.5737761,2.9998 L4.5737761,2.9998 Z M9.53332192,4.7702918 L5.18292822,4.7702918 L5.18292822,7.42602951 L9.53332192,7.42602951 L9.53332192,4.7702918 Z" id="Combined-Shape" fill="#6B7384"></path>
    </g>
</svg>