<svg width="18" height="18" xmlns="http://www.w3.org/2000/svg"><path d="M13.72 1c.845 0 1.533.538 1.607 1.233l.006.124v9.337a1.542 1.542 0 01-.162.628l-.082.144-2.841 4.03s-.766.961-1.666 1.068l-.16.01H6.854c-.866 0-1.67-.917-1.83-1.11l-.03-.035-2.76-3.947c-.131-.19-.21-.408-.23-.633L2 11.714V2.357c0-.714.639-1.29 1.464-1.352L3.61 1h10.11zm0 1.197H3.611c-.212 0-.334.078-.365.134l-.008.026v9.377l.006.042.015.035 2.725 3.899c.063.08.204.234.385.384.194.162.363.254.45.277l.035.006h3.568c.078 0 .266-.088.484-.263.074-.06.14-.119.193-.169l.126-.124 2.81-3.985a.488.488 0 00.044-.085l.016-.057V2.357c0-.045-.094-.13-.276-.154l-.099-.006zm-1.516 1.565c.146 0 .272.183.272.402v4.72c0 .22-.124.403-.272.403h-7.07c-.146 0-.272-.183-.272-.402v-4.72a.365.365 0 01.056-.263.32.32 0 01.216-.14h7.07zm-.966 1.197H6.1V8.09h5.138V4.96z" fill="#8A92A3" fillRule="nonzero"/></svg>