<?xml version="1.0" encoding="UTF-8"?>
<svg width="24px" height="24px" viewBox="0 0 24 24" version="1.1" xmlns="http://www.w3.org/2000/svg" xmlns:xlink="http://www.w3.org/1999/xlink">
    <title>icon/voting</title>
    <g id="icon/voting" stroke="none" stroke-width="1" fill="none" fill-rule="evenodd">
<!--        <rect id="Rectangle" x="0" y="0" width="24" height="24"></rect>-->
        <path d="M11.9999772,20.2701892 C16.3385629,20.2701892 19.9593642,17.2000545 20.8101454,13.1140134 L3.18980902,13.1140134 C4.04059023,17.2000545 7.66139153,20.2701892 11.9999772,20.2701892 M12,2.35 C7.19960803,2.35 3.29180679,6.17215302 3.1537732,10.9392923 L3.15056863,11.2833595 L3.15949327,11.5760757 L3.16936387,11.8157903 L4.7790593,11.8157903 L4.79380753,11.4555094 L4.81562279,11.1212929 L4.8558693,10.6677018 L4.88395839,10.4048159 C5.28425073,6.80175569 8.34873819,4.03994908 12,4.03994908 L12.2425254,4.04401956 C15.6250719,4.15769756 18.456255,6.64001135 19.0469277,9.92836613 L19.079,10.125 L18.309,10.125 L18.2560104,9.86518062 C17.5978682,6.98685886 15.0215642,4.88530551 12,4.88530551 C8.81502329,4.88530551 6.12464943,7.22028558 5.65430721,10.3385544 L5.60885496,10.7163738 L5.57391835,11.0719703 L5.54818914,11.429292 L5.53217769,11.8157903 L9.83859635,11.8157903 L9.84594993,11.5733704 C9.85412192,11.3039702 9.90356738,11.0476742 9.9808167,10.8127817 L10.0107524,10.726319 L10.0662725,10.5875494 L10.1101459,10.497754 C10.468004,9.77520167 11.1937688,9.31451738 12,9.31451738 C12.8061529,9.31451738 13.531741,9.77512718 13.8840692,10.4867647 L13.9338026,10.6029319 L13.9962946,10.7830552 C14.007342,10.8181616 14.0185977,10.85575 14.0298999,10.895729 C14.090304,11.1093933 14.1361512,11.3422861 14.1614009,11.5910372 L14.1842148,11.8157903 L15.7762819,11.8157903 L15.7865374,11.5764948 C15.7892351,11.5135477 15.7905745,11.4644565 15.7905745,11.4151428 C15.7905745,9.32166768 14.0935539,7.6245683 12,7.6245683 L11.7998768,7.62980219 C10.3435709,7.70611793 9.07584509,8.61064024 8.51405978,9.92482596 L8.435,10.125 L7.421,10.125 L7.45410406,10.0012901 C8.02599022,8.0041407 9.86862514,6.57525459 12,6.57525459 C14.0504029,6.57525459 15.8469825,7.89980534 16.4845392,9.80524144 L16.553644,10.0322419 L16.6035541,10.2357229 L16.6448633,10.4273439 C16.6986298,10.6820272 16.751356,10.9662989 16.8009998,11.2790047 L16.880204,11.8157903 L20.8306361,11.8157903 L20.8494314,11.2833595 C20.8498132,11.2552868 20.85,11.2278592 20.85,11.200238 C20.85,6.31240392 16.8876718,2.35 12,2.35 Z" id="Fill-3" fill="#6B7384" fill-rule="nonzero"></path>
    </g>
</svg>