<?xml version="1.0" encoding="UTF-8"?>
<svg width="84px" height="84px" viewBox="0 0 84 84" version="1.1" xmlns="http://www.w3.org/2000/svg" xmlns:xlink="http://www.w3.org/1999/xlink">
    <!-- Generator: Sketch 52.6 (67491) - http://www.bohemiancoding.com/sketch -->
    <title>business_wallet.inline</title>
    <desc>Created with Sketch.</desc>
    <g id="business_wallet.inline" stroke="none" stroke-width="1" fill="none" fill-rule="evenodd">
        <g id="Group-26-Copy" transform="translate(5.000000, 18.000000)">
            <g id="Group-25-Copy-2">
                <path d="M1.12581207,45.2639431 L1.12591207,45.2636431 L1.12581207,45.2639431 Z" id="Fill-1" fill="#0F88A7"></path>
                <path d="M63.2025984,30.6362779 L12.2462144,30.6362779 C12.0929845,30.6362779 11.9478354,30.7051177 11.8508663,30.8237997 L-8.95871532e-06,45.3257105 L74.4673048,45.3257105 L63.6111874,30.8406647 C63.5147558,30.7120179 63.3633715,30.6362779 63.2025984,30.6362779" id="Fill-2" fill="#665E5D"></path>
                <path d="M62.9548702,0.00113807105 L12.5053345,0.00113807105 C12.2232962,0.00113807105 11.9946877,0.229827624 11.9946877,0.511925867 L11.9946877,30.586717 C11.9946877,30.8688152 12.2232962,31.0975048 12.5053345,31.0975048 L62.9548702,31.0975048 C63.2368905,31.0975048 63.4655169,30.8688152 63.4655169,30.586717 L63.4655169,0.511925867 C63.4655169,0.229827624 63.2368905,0.00113807105 62.9548702,0.00113807105" id="Fill-5" fill="#665E5D"></path>
                <path d="M73.9571508,48 L0.510646769,48 C0.228626413,48 1.46371804e-12,47.7713104 1.46371804e-12,47.4892122 L1.46371804e-12,45.8308724 C1.46371804e-12,45.5487563 0.228626413,45.3200846 0.510646769,45.3200846 L73.9571508,45.3200846 C74.2391712,45.3200846 74.4677976,45.5487563 74.4677976,45.8308724 L74.4677976,47.4892122 C74.4677976,47.7713104 74.2391712,48 73.9571508,48" id="Fill-7" fill="#665E5D"></path>
                <path d="M61.5216155,31.667252 L14.2259955,31.667252 C14.0603847,31.667252 13.9050585,31.7475801 13.8093256,31.8827507 L5.63324374,43.4267161 L69.8269716,43.4267161 L61.9431768,31.8897942 C61.8480352,31.7505193 61.6902543,31.667252 61.5216155,31.667252" id="Fill-9" fill="#E8D8D4"></path>
                <path d="M10.7613682,40.1532707 L15.0436162,33.8702045 C15.1387398,33.7306429 15.296682,33.6471246 15.4655359,33.6471246 L18.3701484,33.6471246 C18.7591717,33.6471246 19.0053213,34.0648594 18.8169196,34.405295 L15.3412964,40.685655 C15.2514046,40.8480855 15.0805082,40.9489347 14.8949015,40.9490602 L11.1836641,40.9517844 C10.7732475,40.9520711 10.5301796,40.4924697 10.7613682,40.1532707" id="Fill-11" fill="#F8F2F2"></path>
                <path d="M17.7598485,40.3015676 L20.9907912,34.0184297 C21.0783,33.8482567 21.2535683,33.741278 21.4448906,33.741278 L24.2707023,33.741278 C24.6315952,33.741278 24.8786228,34.1055504 24.7451559,34.4409498 L22.2460864,40.7213098 C22.1688085,40.9155346 21.981016,41.0430344 21.772045,41.0431957 L18.214342,41.0459916 C17.832002,41.0462963 17.5849565,40.6416627 17.7598485,40.3015676" id="Fill-13" fill="#F8F2F2"></path>
                <path d="M63.8493244,40.2474152 L59.5670944,33.9643489 C59.4719528,33.8247874 59.3140286,33.7412691 59.1451568,33.7412691 L56.2405621,33.7412691 C55.8515568,33.7412691 55.6054071,34.1590039 55.793791,34.4994395 L59.2694142,40.7797457 C59.359288,40.9421762 59.5301845,41.0430254 59.7157911,41.0431509 L63.4270285,41.0459288 C63.8374452,41.0462156 64.080513,40.586632 63.8493244,40.2474152" id="Fill-15" fill="#F8F2F2"></path>
                <path d="M56.8508352,40.3015676 L53.6199283,34.0184297 C53.5324196,33.8482567 53.3571513,33.741278 53.1658289,33.741278 L50.3399635,33.741278 C49.9790885,33.741278 49.732043,34.1055504 49.8655278,34.4409677 L52.3646152,40.7213098 C52.441911,40.9155346 52.6296857,41.0430344 52.8386567,41.0431957 L56.3963417,41.0459916 C56.7786817,41.0462963 57.0257272,40.6416627 56.8508352,40.3015676" id="Fill-17" fill="#F8F2F2"></path>
                <path d="M50.3151192,40.3404054 L47.7227536,34.0572137 C47.6438811,33.8660178 47.4575219,33.741278 47.2507548,33.741278 L44.3860443,33.741278 C44.0446993,33.741278 43.7994635,34.0698132 43.8964326,34.3971833 L45.7568711,40.6775612 C45.8210872,40.8942966 46.0200781,41.0430523 46.2460707,41.0432315 L49.8426903,41.0460453 C50.2065037,41.0463321 50.4539076,40.6768085 50.3151192,40.3404054" id="Fill-19" fill="#F8F2F2"></path>
                <path d="M24.115016,40.3404054 L26.7073636,34.0572137 C26.7862361,33.8660178 26.9726132,33.741278 27.1793804,33.741278 L30.0440908,33.741278 C30.3854179,33.741278 30.6306717,34.0698132 30.5336846,34.3971833 L28.6732461,40.6775612 C28.6090301,40.8942966 28.4100212,41.0430523 28.1840286,41.0432315 L24.5874449,41.0460453 C24.2236314,41.0463321 23.9762276,40.6768085 24.115016,40.3404054" id="Fill-21" fill="#F8F2F2"></path>
                <path d="M35.70783,35.4605665 L32.7427999,35.4605665 C32.4607795,35.4605665 32.2321531,35.2318769 32.2321531,34.9497787 L32.2321531,34.2520605 C32.2321531,33.9699622 32.4607795,33.7412727 32.7427999,33.7412727 L35.70783,33.7412727 C35.9898504,33.7412727 36.2184768,33.9699622 36.2184768,34.2520605 L36.2184768,34.9497787 C36.2184768,35.2318769 35.9898504,35.4605665 35.70783,35.4605665" id="Fill-23" fill="#F8F2F2"></path>
                <path d="M41.6513069,35.4605665 L38.8204783,35.4605665 C38.5384579,35.4605665 38.3098315,35.2318769 38.3098315,34.9497787 L38.3098315,34.2520605 C38.3098315,33.9699622 38.5384579,33.7412727 38.8204783,33.7412727 L41.4870041,33.7412727 C41.7239442,33.7412727 41.9297438,33.9042767 41.9840515,34.1349556 L42.1483364,34.8326738 C42.2238405,35.1533231 41.9806472,35.4605665 41.6513069,35.4605665" id="Fill-25" fill="#F8F2F2"></path>
                <path d="M35.8060605,38.1567285 L32.8410304,38.1567285 C32.5589921,38.1567285 32.3303836,37.9280389 32.3303836,37.6459407 L32.3303836,36.9482045 C32.3303836,36.6661063 32.5589921,36.4374168 32.8410304,36.4374168 L35.8060605,36.4374168 C36.0880809,36.4374168 36.3167073,36.6661063 36.3167073,36.9482045 L36.3167073,37.6459407 C36.3167073,37.9280389 36.0880809,38.1567285 35.8060605,38.1567285" id="Fill-27" fill="#F8F2F2"></path>
                <path d="M41.6513069,38.266503 L38.8204783,38.266503 C38.5384579,38.266503 38.3098315,38.0378135 38.3098315,37.7557152 L38.3098315,37.0579254 C38.3098315,36.7758271 38.5384579,36.5471376 38.8204783,36.5471376 L41.4870041,36.5471376 C41.7239442,36.5471376 41.9297438,36.7101595 41.9840515,36.9408205 L42.1483543,37.6386283 C42.2238584,37.9592597 41.9806472,38.266503 41.6513069,38.266503" id="Fill-29" fill="#F8F2F2"></path>
                <path d="M43.3663938,39.6488185 C43.3120861,39.4181395 43.1062685,39.2551355 42.8693643,39.2551355 L40.9714067,39.2551355 L39.6922455,39.2551355 L31.033916,39.2551355 C30.7969759,39.2551355 30.5911763,39.4181395 30.5368685,39.6488185 L30.3725478,40.3466084 C30.2970437,40.6672577 30.5402549,40.974501 30.8695952,40.974501 L39.6922455,40.974501 L40.5880991,40.974501 L43.033685,40.974501 C43.3630253,40.974501 43.6062365,40.6672577 43.5307146,40.3466084 L43.3663938,39.6488185 Z" id="Fill-31" fill="#F8F2F2"></path>
                <path d="M61.7425912,36.4739856 L13.1105638,36.4739856 C12.8285255,36.4739856 12.599917,36.245296 12.599917,35.9631978 L12.599917,35.9631619 C12.599917,35.6810637 12.8285255,35.4523741 13.1105638,35.4523741 L61.7425374,35.4523741 C61.8458314,35.4523741 61.9467065,35.4837204 62.0318322,35.5422549 L62.031886,35.5423086 C62.4451157,35.826468 62.2440463,36.4739856 61.7425912,36.4739856" id="Fill-33" fill="#E8D8D4"></path>
                <path d="M63.5994587,39.3466759 L11.2445834,39.3466759 C10.9625631,39.3466759 10.7339366,39.1179863 10.7339366,38.8358881 C10.7339366,38.5537898 10.9625631,38.3251003 11.2445834,38.3251003 L63.5994587,38.3251003 C63.7027706,38.3251003 63.8036278,38.3564465 63.8887535,38.414981 C64.3019832,38.6991582 64.1009317,39.3466759 63.5994587,39.3466759" id="Fill-35" fill="#E8D8D4"></path>
                <path d="M41.9208388,47.0254348 L33.5393336,47.0254348 C33.2573132,47.0254348 33.0286868,46.7967453 33.0286868,46.514647 L33.0286868,46.3961622 C33.0286868,46.114046 33.2573132,45.8853744 33.5393336,45.8853744 L41.9208388,45.8853744 C42.2028592,45.8853744 42.4314856,46.114046 42.4314856,46.3961622 L42.4314856,46.514647 C42.4314856,46.7967453 42.2028592,47.0254348 41.9208388,47.0254348" id="Fill-37" fill="#E8D8D4"></path>
                <path d="M60.6277722,2.12136982 L14.8324145,2.12136982 C14.748973,2.12136982 14.6813347,2.1890268 14.6813347,2.27249132 L14.6813347,28.5906443 C14.6813347,28.6740909 14.748973,28.7417479 14.8324145,28.7417479 L60.6277722,28.7417479 C60.7111958,28.7417479 60.778852,28.6740909 60.778852,28.5906443 L60.778852,2.27249132 C60.778852,2.1890268 60.7111958,2.12136982 60.6277722,2.12136982" id="Fill-39" fill="#E8D8D4"></path>
            </g>
            <path d="M39.9652414,10.8182069 C39.9652414,9.776 39.1211034,8.93186207 38.0788966,8.93186207 L37.5630345,8.93186207 C38.3249655,8.63117241 38.8656552,7.8902069 38.8656552,7.02068966 C38.8656552,5.8857931 37.9453793,4.96551724 36.809931,4.96551724 C35.6750345,4.96551724 34.7547586,5.8857931 34.7547586,7.02068966 C34.7547586,7.8902069 35.2948966,8.63117241 36.0568276,8.93186207 L35.5426207,8.93186207 C34.4993103,8.93186207 33.6551724,9.776 33.6551724,10.8182069 L33.6551724,12.2369643 L39.9652414,12.2369643 L39.9652414,10.8182069 Z" id="Fill-1" fill="#665E5D"></path>
            <rect id="Rectangle-Copy-17" fill="#665E5D" x="18.2068966" y="17.1034483" width="6.62068966" height="20.4137931" rx="1"></rect>
            <rect id="Rectangle-Copy-18" fill="#665E5D" x="29.7931034" y="20.9655172" width="6.62068966" height="16.5517241" rx="1"></rect>
            <rect id="Rectangle-Copy-19" fill="#665E5D" x="41.3793103" y="27.0344828" width="6.62068966" height="10.4827586" rx="1"></rect>
            <rect id="Rectangle-Copy-20" fill="#665E5D" x="52.4137931" y="24.8275862" width="6.62068966" height="12.6896552" rx="1"></rect>
            <rect id="Rectangle" fill="#F8F2F2" x="17.6551724" y="17.6551724" width="6.62068966" height="19.862069" rx="1"></rect>
            <rect id="Rectangle-Copy-14" fill="#F8F2F2" x="29.2413793" y="21.5172414" width="6.62068966" height="16" rx="1"></rect>
            <rect id="Rectangle-Copy-15" fill="#F8F2F2" x="40.8275862" y="27.5862069" width="6.62068966" height="9.93103448" rx="1"></rect>
            <rect id="Rectangle-Copy-16" fill="#F8F2F2" x="51.862069" y="25.3793103" width="6.62068966" height="12.137931" rx="1"></rect>
            <path d="M52.6548966,13.5768276 C52.6548966,12.5346207 51.8107586,11.6904828 50.7685517,11.6904828 L50.2526897,11.6904828 C51.0146207,11.3897931 51.5553103,10.6488276 51.5553103,9.77931034 C51.5553103,8.64441379 50.6350345,7.72413793 49.4995862,7.72413793 C48.3646897,7.72413793 47.4444138,8.64441379 47.4444138,9.77931034 C47.4444138,10.6488276 47.9845517,11.3897931 48.7464828,11.6904828 L48.2322759,11.6904828 C47.1889655,11.6904828 46.3448276,12.5346207 46.3448276,13.5768276 L46.3448276,14.995585 L52.6548966,14.995585 L52.6548966,13.5768276 Z" id="Fill-1-Copy" fill="#665E5D"></path>
            <path d="M28.3790345,13.5768276 C28.3790345,12.5346207 27.5348966,11.6904828 26.4926897,11.6904828 L25.9768276,11.6904828 C26.7387586,11.3897931 27.2794483,10.6488276 27.2794483,9.77931034 C27.2794483,8.64441379 26.3591724,7.72413793 25.2237241,7.72413793 C24.0888276,7.72413793 23.1685517,8.64441379 23.1685517,9.77931034 C23.1685517,10.6488276 23.7086897,11.3897931 24.4706207,11.6904828 L23.9564138,11.6904828 C22.9131034,11.6904828 22.0689655,12.5346207 22.0689655,13.5768276 L22.0689655,14.995585 L28.3790345,14.995585 L28.3790345,13.5768276 Z" id="Fill-1-Copy-2" fill="#665E5D"></path>
        </g>
    </g>
</svg>