<?xml version="1.0" encoding="UTF-8"?>
<svg width="84px" height="84px" viewBox="0 0 84 84" version="1.1" xmlns="http://www.w3.org/2000/svg" xmlns:xlink="http://www.w3.org/1999/xlink">
    <!-- Generator: Sketch 52.6 (67491) - http://www.bohemiancoding.com/sketch -->
    <title>master_key.inline</title>
    <desc>Created with Sketch.</desc>
    <g id="master_key.inline" stroke="none" stroke-width="1" fill="none" fill-rule="evenodd">
        <g id="Group-14-Copy" transform="translate(18.000000, 14.000000)">
            <path d="M23.5990075,2.39154099 C23.3747194,2.36843979 23.1545376,2.41408988 22.9082528,2.53744837 C19.5795187,4.20431286 16.1998274,5.75187719 12.6189012,6.8143163 C10.1978858,7.53266278 7.72509674,8.000306 5.23167993,8.37804185 C4.17082573,8.53893379 3.1184964,8.75373654 2.05987547,8.92944494 C1.80326484,8.97204528 1.72678113,9.0882717 1.73799554,9.3376542 C1.87924425,12.5007177 1.99352556,15.665222 2.15744322,18.8269887 C2.24281201,20.4755787 2.31077084,22.1358395 2.56399554,23.7630093 C3.17377599,27.6781585 4.1721705,31.499246 5.80738491,35.1245256 C8.01124425,40.0101654 10.968222,44.381023 14.9278926,48.0195101 C17.0288292,49.9498532 19.1832923,51.8315925 21.7206782,53.1964844 C22.2406233,53.4762683 22.7777863,53.7328069 23.330318,53.9371636 C23.407354,53.9659561 23.501728,53.9768823 23.5990075,53.9733283 C23.7507503,53.9677763 23.909601,53.9264247 24.0221053,53.858778 C25.5398446,52.9441674 27.1212443,52.1074093 28.5270796,51.0414642 C30.6758034,49.412013 32.7214364,47.644411 34.5211208,45.6131383 C36.5278274,43.3485242 38.1816525,40.8417798 39.6888017,38.2304556 C41.6207297,34.8830148 42.778095,31.2450319 43.7276456,27.5244178 C44.4008223,24.8868707 44.7326919,22.2090285 44.8551379,19.4955019 C44.9781122,16.7690799 45.1409732,14.0448192 45.3000401,11.0601777 C45.3000401,10.6771348 45.2863763,10.0376254 45.3061877,9.39898045 C45.3157451,9.08747444 45.2107091,8.96586895 44.8969938,8.91546415 C43.1006233,8.62655506 41.3082631,8.31211938 39.5132134,8.01266827 C36.0445993,7.43451389 32.694613,6.44531664 29.4730521,5.0434916 C27.6604724,4.25492899 25.8777897,3.39699074 24.0947949,2.54272659 C23.9201431,2.45901475 23.7584346,2.40798559 23.5990075,2.39153619 Z M23.5990075,0.023903259 L23.8799921,0.023903259 C24.5529046,0.374047341 25.2177245,0.741673413 25.9006027,1.07130978 C29.3353094,2.72976947 32.8216216,4.27887067 36.5386096,5.18277118 C38.996342,5.78032864 41.4993883,6.19374889 43.9850727,6.67455163 C45.0521465,6.8808295 46.1267846,7.04928576 47.1980367,7.23479177 L47.1980367,10.0442292 C47.1728943,10.19614 47.1323592,10.3473063 47.1246988,10.5000336 C46.9903901,13.2414161 46.8492134,15.9823664 46.7314981,18.7243732 C46.6066027,21.6416082 46.225481,24.5166511 45.5114089,27.3530319 C44.6508532,30.7704487 43.6453026,34.1452412 42.0223111,37.2767026 C39.3613506,42.4105962 36.0472648,47.0553784 31.5323489,50.7739753 C29.5315976,52.421917 27.5518583,54.0814093 25.2545616,55.3089907 C24.8166233,55.5429324 24.3608429,55.7467129 23.9027331,55.9392549 C23.8156593,55.9756837 23.7018823,55.9938381 23.5990075,55.9855053 C23.5497314,55.9816439 23.5028566,55.9723026 23.4628738,55.9550847 C22.8352031,55.684258 22.1977108,55.4241413 21.6041877,55.0885256 C19.7678103,54.0503163 18.0747949,52.8121448 16.4694775,51.4382477 C14.1767674,49.4755822 11.9743249,47.4339115 10.1263489,45.0335959 C6.55598868,40.3955856 3.82973482,35.3297708 2.29069537,29.6567931 C1.48700412,26.6950607 0.800956089,23.7084501 0.587498113,20.6393763 C0.41664048,18.181884 0.322170497,15.7188686 0.192784563,13.2583506 C0.129868611,12.0621791 0.064503259,10.8658635 2.40137296e-06,9.66952384 L2.40137296e-06,7.23479657 C2.26221509,6.83705729 4.52353928,6.43290635 6.78721681,6.04337976 C11.0236937,5.31432316 15.0491859,3.93022024 18.9434432,2.14045352 C20.2425376,1.54337633 21.5280161,0.917146484 22.8164724,0.298000686 C22.9626199,0.227784563 23.0890041,0.116240823 23.2244175,0.0239080617 L23.5990075,0.0239080617 Z" id="Combined-Shape" fill="#665E5D"></path>
            <path d="M22.8824141,3.97923225 C19.468023,5.72106758 16.0035153,7.36754443 12.259872,8.27151698 C9.93628027,8.83286175 7.56588576,9.20089605 5.21655129,9.6563163 C4.57757015,9.78025111 3.93885317,9.90644322 3.24567307,10.0422648 C3.2973506,11.5655273 3.33678113,13.0148034 3.39806415,14.463047 C3.46933688,16.1454724 3.57374854,17.8268892 3.63920995,19.5097228 C3.87444837,25.5499184 5.24109331,31.3223369 7.96816364,36.7149063 C10.3652134,41.4548309 13.6017588,45.5617537 17.7634569,48.9210093 C19.4203557,50.2582614 21.1174055,51.501836 23.0457074,52.420553 C23.2408669,52.5135341 23.4221465,52.5618257 23.5990075,52.5683815 L23.5990075,53.9733283 C23.501728,53.9768823 23.407354,53.9659561 23.330318,53.9371877 C22.7777863,53.7328069 22.2406233,53.4762683 21.7206782,53.1964844 C19.1832923,51.8315925 17.0288292,49.9498772 14.9278926,48.0195101 C10.968222,44.381023 8.01124425,40.0101654 5.80738491,35.1245256 C4.1721705,31.499246 3.17377599,27.6781585 2.56399554,23.7630093 C2.31077084,22.1358395 2.24281201,20.4755787 2.15744322,18.8269887 C1.99352556,15.665222 1.87924425,12.5007177 1.73799554,9.3376542 C1.72678113,9.0882717 1.80326484,8.97204528 2.05987547,8.92944494 C3.1184964,8.75373654 4.17082573,8.53893379 5.23167993,8.37804185 C7.72509674,8.000306 10.1978858,7.53266278 12.6189012,6.8143163 C16.1998274,5.75187719 19.5795187,4.20431286 22.9082528,2.53744837 C23.1545376,2.41408988 23.3747194,2.36843979 23.5990075,2.39154099 L23.5990075,3.79564734 C23.3675393,3.78774683 23.1380642,3.84890978 22.8824141,3.97923225 Z M29.4730449,5.0434916 C32.6946058,6.44529262 36.0445921,7.43451389 39.5132302,8.01266827 C41.3082799,8.31211938 43.1006161,8.62655506 44.8969866,8.91546415 C45.2107019,8.96586895 45.3157379,9.08747444 45.3061804,9.39898045 C45.2863931,10.0376254 45.3000329,10.6771348 45.3000329,11.0601777 C45.140966,14.0448192 44.978105,16.7690799 44.8551547,19.4955019 C44.7326847,22.2090285 44.4008391,24.8868707 43.7276624,27.5244178 C42.7781118,31.2450319 41.6207465,34.8830148 39.6888185,38.2304556 C38.1816453,40.8417798 36.5278443,43.3485242 34.5211136,45.6131383 C32.7214292,47.644411 30.6757962,49.412013 28.5270724,51.0414642 C27.121237,52.1074093 25.5398374,52.9441674 24.0220981,53.858778 C23.9095938,53.9264247 23.7507431,53.9677763 23.5990244,53.9733235 L23.5990244,52.5684007 C23.8251376,52.5767334 24.0442628,52.5162669 24.2764274,52.3920439 C25.9571238,51.4939307 27.5637379,50.491718 29.0119575,49.2390902 C30.7353022,47.7485345 32.4951719,46.2965928 33.9664206,44.5445276 C37.2758237,40.6029633 39.9057105,36.2633475 41.3753503,31.3050662 C42.0852439,28.9102017 42.6281461,26.4617866 43.1484515,24.0166854 C43.376918,22.9427678 43.3945441,21.8184693 43.4480947,20.7141262 C43.6045921,17.4899238 43.7515321,14.264881 43.8579849,11.0386854 C43.8951101,9.91599588 44.1189901,10.075447 42.8613434,9.83763911 C40.1739197,9.32972487 37.4650998,8.90794786 34.8095424,8.26644528 C31.0842456,7.36653105 27.6277345,5.7352789 24.2360123,3.98088439 C24.0093949,3.86362539 23.8034532,3.8027506 23.5990244,3.79566655 L23.5990244,2.39153619 C23.7584274,2.40798559 23.9201599,2.45901475 24.0947877,2.54272659 C25.8778065,3.39701475 27.6604892,4.25492899 29.4730449,5.0434916 Z" id="Combined-Shape" fill="#F8F2F2"></path>
            <path d="M24.2360244,3.9808964 C27.6277465,5.7352669 31.0842576,7.36651904 34.8095304,8.26645729 C37.4650878,8.90795986 40.1739317,9.32971286 42.8613314,9.83765111 C44.118978,10.075459 43.8951221,9.91600789 43.8579969,11.0386734 C43.7515441,14.264869 43.6045801,17.4899358 43.4480827,20.7141142 C43.3945561,21.8184813 43.376906,22.9427798 43.1484635,24.0166734 C42.6281341,26.4617986 42.0852559,28.9102137 41.3753383,31.3050542 C39.9056985,36.2633355 37.2758357,40.6029753 33.9664086,44.5445156 C32.4951599,46.2966048 30.7352902,47.7485225 29.0119455,49.2391022 C27.5637499,50.49173 25.9571358,51.4939427 24.2764395,52.3920319 C24.0442508,52.5162549 23.8251496,52.5767455 23.5990123,52.5683887 L23.5990123,3.79565455 C23.8034412,3.80273859 24.0093828,3.86363739 24.2360244,3.9808964 Z M17.7634449,48.9210021 C13.6017468,45.5617465 10.3652014,41.4548237 7.96815163,36.7148991 C5.24110532,31.3223537 3.87446038,25.5499111 3.63919794,19.5097156 C3.57376055,17.826882 3.46934889,16.1454652 3.39807616,14.4630398 C3.33676913,13.0148202 3.29736261,11.5655201 3.24566106,10.0422816 C3.93886518,9.90643602 4.57755815,9.78024391 5.21653928,9.65630909 C7.56589777,9.20088885 9.93629228,8.83285455 12.25986,8.27150978 C16.0035033,7.36753722 19.468011,5.72106038 22.8824021,3.97922504 C23.1380521,3.84890257 23.3675513,3.78773962 23.5990196,3.79566415 L23.5990196,52.5683983 C23.4221585,52.5618185 23.2408789,52.5135509 23.0456954,52.4205458 C21.1173935,51.5018528 19.4203437,50.2582782 17.7634449,48.9210021 Z" id="Combined-Shape" fill="#E8D8D4"></path>
            <path d="M27.9356569,30.77228 L25.0998169,25.86052 C26.1556969,25.30472 26.8761369,24.19788 26.8761369,22.92192 C26.8761369,21.08596 25.3890569,19.6 23.5550569,19.6 C21.7196569,19.6 20.2331369,21.08596 20.2331369,22.92192 C20.2331369,24.19788 20.9535769,25.30472 22.0094569,25.86052 L19.1744569,30.77228 C18.8597369,31.31744 19.1164969,31.76348 19.7464969,31.76348 L27.3636169,31.76348 C27.9927769,31.76348 28.2509369,31.31744 27.9356569,30.77228 L26.2698438,30.8521944" id="Fill-6" fill="#665E5D"></path>
        </g>
    </g>
</svg>