<svg id="Layer_1" data-name="Layer 1" xmlns="http://www.w3.org/2000/svg" xmlns:xlink="http://www.w3.org/1999/xlink" viewBox="0 0 240 60"><defs><style>.cls-1,.cls-4{fill:none;}.cls-2{fill:#fff;}.cls-3{clip-path:url(#clip-path);}.cls-4{stroke:#fff;stroke-miterlimit:10;stroke-width:0.8px;}</style><clipPath id="clip-path"><path class="cls-1" d="M49.16,10.87A19.13,19.13,0,1,0,68.3,30,19.13,19.13,0,0,0,49.16,10.87Zm0,30A10.89,10.89,0,1,1,60.06,30,10.89,10.89,0,0,1,49.16,40.89Z"/></clipPath></defs><path class="cls-2" d="M88.35,21.24,95.1,39.69H91.83l-2-5.39H83.21q-.48,1.34-1,2.7c-.34.9-.67,1.8-1,2.69H78l6.75-18.45Zm-1.82,3.88-2.36,6.56h4.7Z"/><path class="cls-2" d="M101.29,33.24a6,6,0,0,0,.39,1.74,4.33,4.33,0,0,0,.86,1.35,3.51,3.51,0,0,0,1.24.88,3.86,3.86,0,0,0,1.57.32,6.78,6.78,0,0,0,1.45-.16,3.68,3.68,0,0,0,1.23-.52,2.68,2.68,0,0,0,.84-.93,2.94,2.94,0,0,0,.32-1.41,1.8,1.8,0,0,0-.46-1.26,4.18,4.18,0,0,0-1.19-.9,12.5,12.5,0,0,0-1.7-.69L103.91,31c-.66-.22-1.31-.47-1.94-.75a6.85,6.85,0,0,1-1.7-1,4.73,4.73,0,0,1-1.19-1.44,4.21,4.21,0,0,1-.46-2,4.63,4.63,0,0,1,.48-2.15,4.38,4.38,0,0,1,1.34-1.57,6.42,6.42,0,0,1,2.06-1,10.36,10.36,0,0,1,2.63-.32,7.94,7.94,0,0,1,3.17.55,5.47,5.47,0,0,1,3.14,3.39,8.47,8.47,0,0,1,.41,2.1h-3.19a4.52,4.52,0,0,0-.38-1.53,3,3,0,0,0-.77-1.07,3.26,3.26,0,0,0-1.08-.63,4,4,0,0,0-1.3-.21,6.26,6.26,0,0,0-1.23.13,3.38,3.38,0,0,0-1.09.41,2.34,2.34,0,0,0-.76.74,2,2,0,0,0-.29,1.12,1.91,1.91,0,0,0,.45,1.29,4.21,4.21,0,0,0,1.2.91,11.18,11.18,0,0,0,1.69.7l2,.65c.66.23,1.31.47,1.94.75a7.46,7.46,0,0,1,1.7,1,4.81,4.81,0,0,1,1.19,1.43,4,4,0,0,1,.46,2,5.62,5.62,0,0,1-.52,2.47,4.9,4.9,0,0,1-1.46,1.76,6.58,6.58,0,0,1-2.21,1.06,10.26,10.26,0,0,1-2.8.36,7.47,7.47,0,0,1-2.64-.48,7.24,7.24,0,0,1-2.3-1.37,7.15,7.15,0,0,1-1.64-2.18,6.71,6.71,0,0,1-.66-2.89Z"/><path class="cls-2" d="M130.08,21.24v2.63h-5.83V39.69h-3.13V23.87h-5.84V21.24Z"/><path class="cls-2" d="M143.36,21.24l6.75,18.45h-3.27l-2-5.39h-6.64q-.48,1.34-1,2.7c-.34.9-.66,1.8-1,2.69H133l6.75-18.45Zm-1.82,3.88-2.36,6.56h4.7Z"/><path class="cls-2" d="M168.09,26.65a4.4,4.4,0,0,1-.63,2.28,5.39,5.39,0,0,1-1.91,1.85,3,3,0,0,1,1,.61,3.57,3.57,0,0,1,.71.89,3.89,3.89,0,0,1,.41,1.06,4.76,4.76,0,0,1,.13,1.12v2.67a3.42,3.42,0,0,0,.25,1.18,7.56,7.56,0,0,0,.67,1.38h-3.42A3.35,3.35,0,0,1,165,39a3.57,3.57,0,0,1-.19-.67c0-.22-.06-.43-.08-.62s0-.37,0-.52v-2.8a2.32,2.32,0,0,0-.14-.82,2,2,0,0,0-.44-.74,2.33,2.33,0,0,0-.81-.53,3.33,3.33,0,0,0-1.21-.2h-4.71v7.56h-3.12V21.24h7.83a6.36,6.36,0,0,1,2.54.48A5.76,5.76,0,0,1,166.55,23a5.26,5.26,0,0,1,1.54,3.69Zm-10.66,2.86h4.71a2.81,2.81,0,0,0,1.08-.21,2.9,2.9,0,0,0,.9-.56,2.66,2.66,0,0,0,.61-.89,2.78,2.78,0,0,0,.23-1.13,3,3,0,0,0-.22-1.13,2.52,2.52,0,0,0-.59-.9,2.79,2.79,0,0,0-.89-.6,2.94,2.94,0,0,0-1.12-.22h-4.71Z"/><path class="cls-2" d="M186.88,21.24v2.63H181V39.69h-3.12V23.87h-5.85V21.24Z"/><path class="cls-2" d="M204,21.24v2.63H194.1v5h9.3v2.65h-9.3V37h10.33v2.67H191V21.24Z"/><path class="cls-2" d="M222.81,26.65a4.4,4.4,0,0,1-.63,2.28,5.39,5.39,0,0,1-1.91,1.85,3,3,0,0,1,1,.61,3.57,3.57,0,0,1,.71.89,4.24,4.24,0,0,1,.41,1.06,4.76,4.76,0,0,1,.13,1.12v2.67a3.42,3.42,0,0,0,.25,1.18,8.19,8.19,0,0,0,.66,1.38h-3.41a3.35,3.35,0,0,1-.32-.66,3.57,3.57,0,0,1-.19-.67c0-.22-.06-.43-.08-.62s0-.37,0-.52v-2.8a2.32,2.32,0,0,0-.14-.82,2,2,0,0,0-.44-.74,2.33,2.33,0,0,0-.81-.53,3.33,3.33,0,0,0-1.21-.2h-4.71v7.56H209V21.24h7.83a6.36,6.36,0,0,1,2.54.48A5.76,5.76,0,0,1,221.27,23a5.26,5.26,0,0,1,1.54,3.69Zm-10.66,2.86h4.71a2.81,2.81,0,0,0,1.08-.21,3,3,0,0,0,.9-.56,2.82,2.82,0,0,0,.61-.89,2.78,2.78,0,0,0,.22-1.13,3,3,0,0,0-.21-1.13,2.52,2.52,0,0,0-.59-.9,2.79,2.79,0,0,0-.89-.6,2.94,2.94,0,0,0-1.12-.22h-4.71Z"/><g class="cls-3"><line class="cls-4" x1="29.96" y1="6.1" x2="68.35" y2="6.1"/><line class="cls-4" x1="29.96" y1="8.75" x2="68.35" y2="8.75"/><line class="cls-4" x1="29.96" y1="11.41" x2="68.35" y2="11.41"/><line class="cls-4" x1="29.96" y1="14.07" x2="68.35" y2="14.07"/><line class="cls-4" x1="29.96" y1="16.72" x2="68.35" y2="16.72"/><line class="cls-4" x1="29.96" y1="19.38" x2="68.35" y2="19.38"/><line class="cls-4" x1="29.96" y1="22.03" x2="68.35" y2="22.03"/><line class="cls-4" x1="29.96" y1="24.69" x2="68.35" y2="24.69"/><line class="cls-4" x1="29.96" y1="27.34" x2="68.35" y2="27.34"/><line class="cls-4" x1="29.96" y1="30" x2="68.35" y2="30"/><line class="cls-4" x1="29.96" y1="32.66" x2="68.35" y2="32.66"/><line class="cls-4" x1="29.96" y1="35.31" x2="68.35" y2="35.31"/><line class="cls-4" x1="29.96" y1="37.97" x2="68.35" y2="37.97"/><line class="cls-4" x1="29.96" y1="40.62" x2="68.35" y2="40.62"/><line class="cls-4" x1="29.96" y1="43.28" x2="68.35" y2="43.28"/><line class="cls-4" x1="29.96" y1="45.93" x2="68.35" y2="45.93"/><line class="cls-4" x1="29.96" y1="48.59" x2="68.35" y2="48.59"/><line class="cls-4" x1="29.96" y1="51.25" x2="68.35" y2="51.25"/><line class="cls-4" x1="29.96" y1="53.9" x2="68.35" y2="53.9"/></g><path class="cls-2" d="M30,30a19,19,0,0,1,4.12-11.85,19.13,19.13,0,1,0,0,23.7A19,19,0,0,1,30,30ZM19.13,40.89A10.89,10.89,0,1,1,30,30,10.89,10.89,0,0,1,19.13,40.89Z"/></svg>