<?xml version="1.0" encoding="UTF-8"?>
<svg width="80px" height="80px" viewBox="0 0 80 80" version="1.1" xmlns="http://www.w3.org/2000/svg" xmlns:xlink="http://www.w3.org/1999/xlink">
    <title>1A095DD5-67A2-480C-AB67-C9510BFEE689</title>
    <g id="✅-REVAMP-1.1" stroke="none" stroke-width="1" fill="none" fill-rule="evenodd">
        <g id="1.2---Permissions" transform="translate(-344.000000, -245.000000)">
            <g id="icon/dapp-connector-permission" transform="translate(344.000000, 245.000000)">
                <rect id="Rectangle-Copy-29" fill="#3154CB" opacity="0.0799999982" x="0" y="0" width="80" height="80" rx="8"></rect>
                <g id="icon/dapp-connector" transform="translate(23.684221, 24.000000)">
                    <rect id="base" fill-rule="nonzero" x="0.31577931" y="0" width="32" height="32"></rect>
                    <path d="M12.1052544,8.15243837 C13.0894069,7.66845308 14.2442046,8.39810872 14.2442046,9.49406325 L14.2442046,9.49406325 L14.2377192,9.63273637 C14.1904284,10.1367719 13.8874677,10.5868304 13.4262842,10.8106798 C11.6002773,11.697266 10.2630541,13.4304754 9.95946448,15.5060005 L9.95946448,17.3078172 C10.2630541,19.3843311 11.6002773,21.1175405 13.4262842,22.0041268 C13.9293935,22.248326 14.2442046,22.7617329 14.2442046,23.3207433 C14.2442046,24.4166978 13.0894069,25.1463535 12.1052544,24.6623682 C10.2168864,23.7350365 8.69121995,22.179323 7.8031483,20.2690732 L4.93991839,20.268988 L4.76507528,20.2636365 C3.02819265,20.1570497 1.64911264,18.4716606 1.64911264,16.4074033 L1.64911264,16.4074033 L1.65367175,16.2022849 C1.74447567,14.1646187 3.18031701,12.5458185 4.93991839,12.5458185 L4.93991839,12.5458185 L7.8034617,12.5447101 C8.69157886,10.6351176 10.2171085,9.07966099 12.1052544,8.15243837 Z M18.0538754,9.36421406 C18.140528,8.34153099 19.242581,7.68766539 20.1873674,8.15229127 C22.0755133,9.07951389 23.601043,10.6349705 24.4891601,12.5449122 L27.6916402,12.5458185 L27.8664833,12.5511701 C29.603366,12.6577568 30.982446,14.343146 30.982446,16.4074033 L30.982446,16.4074033 L30.9778869,16.6125217 C30.887083,18.6501878 29.4512416,20.268988 27.6916402,20.268988 L27.6916402,20.268988 L24.4896258,20.2689479 C23.6015762,22.1789981 22.0758433,23.7348364 20.1873674,24.6622211 C19.203215,25.1462063 18.0484172,24.4165507 18.0484172,23.3205962 L18.0484172,23.3205962 L18.0549026,23.1819231 C18.1021934,22.6778875 18.4051541,22.227829 18.8663377,22.0039797 C20.9508579,20.9918767 22.3984005,18.8764638 22.3984005,16.4079917 C22.3984005,13.9380485 20.9508579,11.8226356 18.8663377,10.8105327 C18.3632283,10.5663334 18.0484172,10.0529265 18.0484172,9.49391614 L18.0484172,9.49391614 Z M16.3157793,13.0974735 L16.5035131,13.1027113 C18.2433628,13.2000503 19.6257091,14.6419045 19.6257091,16.4074033 L19.6257091,16.4074033 L19.6204662,16.5952789 C19.5230344,18.3363581 18.0798578,19.7173331 16.3157793,19.7173331 L16.3157793,19.7173331 L16.1279037,19.7120952 C14.3868245,19.6147563 13.0058495,18.1729021 13.0058495,16.4074033 C13.0058495,14.5788509 14.487227,13.0974735 16.3157793,13.0974735 L16.3157793,13.0974735 Z" id="Combined-Shape" fill="#3154CB" transform="translate(16.315779, 16.407330) rotate(-45.000000) translate(-16.315779, -16.407330) "></path>
                </g>
            </g>
        </g>
    </g>
</svg>