<?xml version="1.0" encoding="UTF-8"?>
<svg width="24px" height="24px" viewBox="0 0 24 24" version="1.1" xmlns="http://www.w3.org/2000/svg" xmlns:xlink="http://www.w3.org/1999/xlink">
    <title>icon/dapp connector</title>
    <g id="icon/dapp-connector" stroke="none" stroke-width="1" fill="none" fill-rule="evenodd">
        <rect id="base" fill-rule="nonzero" x="0" y="0" width="24" height="24"></rect>
        <path d="M8.84210632,6.11432878 C9.58022066,5.75133981 10.446319,6.29858154 10.446319,7.12054744 L10.446319,7.12054744 L10.4393306,7.24513099 C10.3976851,7.61479719 10.1724774,7.94317532 9.83287864,8.10800982 C8.46491224,8.7722024 7.46271032,10.0699362 7.23353431,11.6242543 L7.23353431,12.9861115 C7.46271032,14.5411687 8.46491224,15.8389025 9.83287864,16.5030951 C10.2102106,16.6862445 10.446319,17.0712997 10.446319,17.4905575 C10.446319,18.3125234 9.58022066,18.8597651 8.84210632,18.4967761 C7.42591441,17.8013186 6.28171634,16.6346308 5.61564537,15.20206 L3.46810431,15.201741 L3.31195407,15.1960443 C2.02109212,15.1015699 1,13.8438211 1,12.3055525 L1,12.3055525 L1.00485316,12.1223632 C1.08533841,10.6079485 2.1568629,9.40936389 3.46810431,9.40936389 L3.46810431,9.40936389 L5.61564537,9.40878293 C6.28171634,7.97647412 7.42591441,6.80978626 8.84210632,6.11432878 Z M13.3052629,7.0049509 C13.3816738,6.24841696 14.200725,5.76851467 14.9036911,6.11421845 C16.319883,6.80967593 17.4640811,7.97636379 18.130152,9.40893452 L20.5318957,9.40936389 L20.6880459,9.4150606 C21.9789079,9.50953496 23,10.7672838 23,12.3055525 L23,12.3055525 L22.9951468,12.4887417 C22.9146616,14.0031564 21.8431371,15.201741 20.5318957,15.201741 L20.5318957,15.201741 L18.130152,15.2022116 C17.4640811,16.6345204 16.319883,17.8012083 14.9036911,18.4966658 C14.1655767,18.8596548 13.2994784,18.312413 13.2994784,17.4904471 L13.2994784,17.4904471 L13.3064668,17.3658636 C13.3481123,16.9961974 13.57332,16.6678193 13.9129188,16.5029847 C15.4763089,15.7439075 16.5619659,14.1573478 16.5619659,12.3059938 C16.5619659,10.4535364 15.4763089,8.86697672 13.9129188,8.10789949 C13.5355868,7.92475004 13.2994784,7.53969488 13.2994784,7.12043711 L13.2994784,7.12043711 Z M12,9.82310511 L12.1631434,9.82838363 C13.4575024,9.91240437 14.4824473,10.9889948 14.4824473,12.3055525 L14.4824473,12.3055525 L14.4771637,12.4688179 C14.3930634,13.7640717 13.3154985,14.7879998 12,14.7879998 L12,14.7879998 L11.8367346,14.7827213 C10.5414808,14.6987005 9.51755266,13.6221101 9.51755266,12.3055525 C9.51755266,10.9341382 10.6285858,9.82310511 12,9.82310511 L12,9.82310511 Z" id="Combined-Shape" fill="#FFFFFF" transform="translate(12.000000, 12.305497) rotate(-45.000000) translate(-12.000000, -12.305497) "></path>
    </g>
</svg>