<?xml version="1.0" encoding="UTF-8"?>
<svg width="24px" height="24px" viewBox="0 0 24 24" version="1.1" xmlns="http://www.w3.org/2000/svg" xmlns:xlink="http://www.w3.org/1999/xlink">
    <title>icon/disconnect</title>
    <g id="icon/disconnect" stroke="none" stroke-width="1" fill="none" fill-rule="evenodd">
        <g transform="translate(-4.000000, -4.000000)">
            <rect id="base" fill-rule="nonzero" x="3.90990258" y="4.40990258" width="24" height="24"></rect>
            <g id="Group-3" transform="translate(15.909903, 15.909903) rotate(-45.000000) translate(-15.909903, -15.909903) translate(3.909903, 5.409903)">
                <path d="M9.44053447,5.00506123 L9.44631896,5.12054744 L9.43933059,5.24513099 C9.39768506,5.61479719 9.17247743,5.94317532 8.83287864,6.10800982 C7.46491224,6.7722024 6.46271032,8.06993623 6.23353431,9.62425426 L6.23353431,10.9861115 C6.46271032,12.5411687 7.46491224,13.8389025 8.83287864,14.5030951 C9.21021063,14.6862445 9.44631896,15.0712997 9.44631896,15.4905575 C9.44631896,16.3125234 8.58022066,16.8597651 7.84210632,16.4967761 C6.42591441,15.8013186 5.28171634,14.6346308 4.61564537,13.20206 L2.46810431,13.201741 L2.31195407,13.1960443 C1.0727266,13.1053489 0.0821190015,11.9425798 0.00485315755,10.4887417 L-7.27595761e-12,10.3055525 L0.00485315755,10.1223632 C0.0821190015,8.66852513 1.0727266,7.50575599 2.31195407,7.4150606 L2.46810431,7.40936389 L4.61564537,7.40878293 C5.28171634,5.97647412 6.42591441,4.80978626 7.84210632,4.11432878 C8.54507236,3.768625 9.36412362,4.24852729 9.44053447,5.00506123 Z M15.9036911,4.11421845 C17.319883,4.80967593 18.4640811,5.97636379 19.130152,7.40893452 L21.5318957,7.40936389 C22.8955868,7.40936389 24,8.70575305 24,10.3055525 C24,11.8438211 22.9789079,13.1015699 21.6880459,13.1960443 L21.5318957,13.201741 L19.130152,13.2022116 C18.4640811,14.6345204 17.319883,15.8012083 15.9036911,16.4966658 C15.1655767,16.8596548 14.2994784,16.312413 14.2994784,15.4904471 C14.2994784,15.0711894 14.5355868,14.6861342 14.9129188,14.5029847 C16.4763089,13.7439075 17.5619659,12.1573478 17.5619659,10.3059938 C17.5619659,8.4535364 16.4763089,6.86697672 14.9129188,6.10789949 C14.5355868,5.92475004 14.2994784,5.53969488 14.2994784,5.12043711 C14.2994784,4.29847121 15.1655767,3.75122948 15.9036911,4.11421845 Z" id="Combined-Shape" fill="#6B7384"></path>
                <line x1="12" y1="-7.27595761e-12" x2="12" y2="21" id="Path" stroke="#6B7384" stroke-width="2" stroke-linecap="round"></line>
            </g>
        </g>
    </g>
</svg>