<svg width="247" height="102" viewBox="0 0 247 102" fill="none" xmlns="http://www.w3.org/2000/svg">
<path d="M138.933 30.312H113.482V50.3908H137.759V55.527H113.482V79.6533H108V25.1758H138.933V30.312Z" fill="#12171C"/>
<path d="M144.34 31.4015C143.986 31.056 143.706 30.6442 143.514 30.1898C143.323 29.7355 143.224 29.2478 143.224 28.7552C143.224 28.2626 143.323 27.7749 143.514 27.3205C143.706 26.8662 143.986 26.4543 144.34 26.1088C144.687 25.7577 145.102 25.4788 145.559 25.2884C146.016 25.098 146.507 25 147.003 25C147.498 25 147.989 25.098 148.446 25.2884C148.903 25.4788 149.318 25.7577 149.665 26.1088C150.019 26.4543 150.299 26.8662 150.491 27.3205C150.683 27.7749 150.781 28.2626 150.781 28.7552C150.781 29.2478 150.683 29.7355 150.491 30.1898C150.299 30.6442 150.019 31.056 149.665 31.4015C149.318 31.7527 148.903 32.0316 148.446 32.2219C147.989 32.4123 147.498 32.5104 147.003 32.5104C146.507 32.5104 146.016 32.4123 145.559 32.2219C145.102 32.0316 144.687 31.7527 144.34 31.4015ZM144.419 79.654V40.7409H149.587V79.6535L144.419 79.654Z" fill="#12171C"/>
<path d="M192.658 45.7217C194.593 47.6019 196.12 49.8565 197.144 52.3463C198.167 54.8361 198.666 57.5082 198.61 60.1973C198.666 62.8863 198.167 65.5583 197.144 68.0481C196.12 70.5379 194.593 72.7925 192.658 74.6727C190.823 76.5846 188.609 78.0975 186.156 79.1157C183.703 80.1338 181.064 80.6351 178.406 80.5879C175.237 80.7144 172.092 79.9851 169.307 78.4776C166.521 76.9701 164.199 74.7407 162.586 72.0263V79.6536H157.418V25.1758H162.586V48.3669C164.199 45.6529 166.521 43.4239 169.307 41.9166C172.092 40.4093 175.237 39.6802 178.406 39.8066C181.064 39.7594 183.703 40.2607 186.156 41.2788C188.609 42.2969 190.823 43.8098 192.658 45.7217ZM178.013 75.6067C180.048 75.6484 182.071 75.2764 183.956 74.5135C185.842 73.7506 187.55 72.6128 188.977 71.1701C190.424 69.7321 191.565 68.0197 192.332 66.1345C193.099 64.2494 193.476 62.2302 193.442 60.1971C193.483 58.1745 193.108 56.1648 192.341 54.2912C191.573 52.4176 190.429 50.7195 188.977 49.301C187.565 47.8334 185.861 46.6741 183.973 45.897C182.086 45.1199 180.056 44.7419 178.013 44.7872C175.971 44.742 173.941 45.12 172.054 45.8972C170.166 46.6743 168.462 47.8335 167.05 49.301C165.599 50.7194 164.454 52.4174 163.686 54.2911C162.919 56.1647 162.544 58.1745 162.586 60.1971C162.551 62.2302 162.929 64.2495 163.696 66.1346C164.463 68.0198 165.603 69.7323 167.05 71.1701C168.477 72.6127 170.186 73.7504 172.071 74.5134C173.956 75.2763 175.978 75.6485 178.013 75.6069V75.6067Z" fill="#12171C"/>
<path d="M222.34 80.5878C219.63 80.6406 216.937 80.151 214.421 79.1483C211.905 78.1455 209.618 76.65 207.696 74.7509C205.754 72.8595 204.223 70.5917 203.2 68.0882C202.176 65.5847 201.681 62.8988 201.745 60.1972C201.674 57.5063 202.166 54.83 203.19 52.3381C204.215 49.8462 205.749 47.5931 207.696 45.7217C209.603 43.7971 211.886 42.2797 214.404 41.2626C216.922 40.2455 219.623 39.7501 222.34 39.8066C225.046 39.7503 227.735 40.2462 230.24 41.2636C232.746 42.281 235.014 43.7983 236.906 45.7217C238.864 47.5886 240.412 49.8391 241.45 52.3307C242.488 54.8224 242.994 57.501 242.937 60.1972C242.987 62.904 242.477 65.5922 241.44 68.0955C240.403 70.5988 238.86 72.8639 236.906 74.7509C234.999 76.6489 232.726 78.1444 230.223 79.1474C227.72 80.1504 225.039 80.6404 222.34 80.5878ZM222.34 75.607C224.376 75.6485 226.398 75.2764 228.283 74.5135C230.169 73.7506 231.877 72.6129 233.304 71.1704C234.751 69.7324 235.891 68.0198 236.658 66.1347C237.425 64.2495 237.802 62.2304 237.767 60.1974C237.809 58.1749 237.435 56.1653 236.667 54.2916C235.9 52.418 234.756 50.7199 233.304 49.3013C231.892 47.8339 230.188 46.6747 228.3 45.8976C226.413 45.1205 224.383 44.7424 222.34 44.7875C220.298 44.7424 218.268 45.1205 216.38 45.8976C214.493 46.6747 212.789 47.8339 211.377 49.3013C209.925 50.7199 208.781 52.418 208.014 54.2916C207.246 56.1653 206.872 58.1749 206.914 60.1974C206.879 62.2304 207.256 64.2495 208.023 66.1347C208.789 68.0198 209.93 69.7324 211.377 71.1704C212.804 72.6129 214.512 73.7505 216.398 74.5134C218.283 75.2763 220.305 75.6484 222.34 75.6069V75.607Z" fill="#12171C"/>
<path fill-rule="evenodd" clip-rule="evenodd" d="M54.4141 91.9637H80.5927C81.4961 91.9627 82.3622 91.6036 83.0009 90.9651C83.6397 90.3266 83.999 89.461 84 88.558V15.4057C83.999 14.5028 83.6397 13.6371 83.0009 12.9986C82.3622 12.3602 81.4961 12.001 80.5927 12H35.3016H7.40724C6.5039 12.001 5.63781 12.3602 4.99905 12.9986C4.36029 13.6371 4.00102 14.5028 4 15.4057V88.558C4.00102 89.461 4.36029 90.3266 4.99905 90.9651C5.63781 91.6036 6.5039 91.9627 7.40724 91.9637H51.9212C52.294 91.9863 52.6683 91.9984 53.0438 92C53.5018 91.998 53.9586 91.9858 54.4141 91.9637ZM71.848 79.7839C67.3784 84.2854 61.4685 87.0304 55.1927 87.5683V73.8507L76.2215 73.971C75.0463 76.0811 73.5799 78.0396 71.848 79.7839ZM78.1487 69.6474L55.1927 69.516V68.1801C55.2043 68.0356 55.2106 67.8906 55.2117 67.7453C55.2121 67.5452 55.2057 67.3457 55.1927 67.1473V21.1322C59.4024 23.2629 63.2845 26.0684 66.671 29.4783C74.9738 37.8385 79.62 49.1492 79.5903 60.9291C79.5982 63.9235 79.1022 66.8674 78.1487 69.6474ZM46.6858 69.4674V69.4022H48.8541C49.7142 69.4022 50.7077 69.0326 50.8563 68.0151V67.3068C50.7593 66.2411 50.2952 65.2365 49.5357 64.4694C48.6729 63.5979 47.4993 63.1041 46.2726 63.0963C43.9284 63.1095 41.6852 64.0514 40.0349 65.7156C38.9999 66.7593 38.2511 68.0336 37.8385 69.4167L46.6858 69.4674ZM37.5657 73.7498C37.9546 77.2412 39.5111 80.5198 42.0106 83.0382C44.4116 85.4574 47.5216 87.0126 50.8563 87.5006V73.8259L37.5657 73.7498ZM50.8563 19.2201V60.0405C49.4828 59.2166 47.9014 58.768 46.2726 58.7618C42.7787 58.776 39.433 60.175 36.9697 62.6518C34.5063 65.1286 33.1266 68.481 33.1331 71.9734C33.1225 77.2664 35.2128 82.3475 38.9455 86.1019C39.4862 86.6457 40.055 87.1553 40.6484 87.6292H8.33649V16.3345L35.3016 16.3345C40.6689 16.3603 45.9317 17.3548 50.8563 19.2201ZM55.2037 16.3345C60.5706 18.7597 65.5052 22.1576 69.7359 26.4148C73.9314 30.6365 77.277 35.5444 79.6635 40.8731V16.3345H55.2037ZM79.6635 76.6823C78.3562 78.9101 76.7649 80.984 74.9128 82.8474C73.0639 84.7075 71.0034 86.3093 68.7875 87.6292H79.6635V76.6823Z" fill="#12171C"/>
</svg>
