<?xml version="1.0" encoding="UTF-8"?>
<svg width="32px" height="32px" viewBox="0 0 32 32" version="1.1" xmlns="http://www.w3.org/2000/svg" xmlns:xlink="http://www.w3.org/1999/xlink">
    <title>icon/dapp-no image</title>
    <g id="✅-REVAMP-1.1" stroke="none" stroke-width="1" fill="none" fillRule="evenodd">
        <g id="2.1-DApp-connector---off" transform="translate(-737.000000, -541.000000)">
            <g id="Group" transform="translate(351.000000, 133.000000)">
                <g transform="translate(386.000000, 408.000000)">
                    <rect id="bg" fill="#F0F3F5" x="0" y="0" width="32" height="32" rx="16"></rect>
                    <g id="icon" transform="translate(6.000000, 8.000000)">
                        <rect id="Rectangle" stroke="#C4CAD7" stroke-width="1.3" x="0" y="0" width="20" height="16" rx="2"></rect>
                        <line x1="0" y1="4" x2="20" y2="4" id="Path-2" stroke="#C4CAD7" stroke-width="1.3"></line>
                        <g id="XXX" transform="translate(3.832500, 8.000000)" fill="#C4CAD7" fillRule="nonzero">
                            <path d="M0.11,3.5 C0.08,3.5 0.0541666667,3.48916667 0.0325,3.4675 C0.0108333333,3.44583333 0,3.42 0,3.39 C0,3.37 0.005,3.35166667 0.015,3.335 L1.065,1.71 L0.12,0.165 C0.11,0.145 0.105,0.126666667 0.105,0.11 C0.105,0.08 0.115833333,0.0541666667 0.1375,0.0325 C0.159166667,0.0108333333 0.185,0 0.215,0 L1.3,0 C1.39333333,0 1.46333333,0.0416666667 1.51,0.125 L1.86,0.735 L2.24,0.125 C2.28666667,0.0416666667 2.35666667,0 2.45,0 L3.485,0 C3.515,0 3.54083333,0.0108333333 3.5625,0.0325 C3.58416667,0.0541666667 3.595,0.08 3.595,0.11 C3.595,0.13 3.59,0.148333333 3.58,0.165 L2.615,1.695 L3.68,3.335 C3.69,3.35166667 3.695,3.37 3.695,3.39 C3.695,3.42 3.68416667,3.44583333 3.6625,3.4675 C3.64083333,3.48916667 3.615,3.5 3.585,3.5 L2.46,3.5 C2.37,3.5 2.30166667,3.46166667 2.255,3.385 L1.82,2.715 L1.405,3.385 C1.35833333,3.46166667 1.29,3.5 1.2,3.5 L0.11,3.5 Z" id="Path"></path>
                            <path d="M4.555,3.5 C4.525,3.5 4.49916667,3.48916667 4.4775,3.4675 C4.45583333,3.44583333 4.445,3.42 4.445,3.39 C4.445,3.37 4.45,3.35166667 4.46,3.335 L5.51,1.71 L4.565,0.165 C4.555,0.145 4.55,0.126666667 4.55,0.11 C4.55,0.08 4.56083333,0.0541666667 4.5825,0.0325 C4.60416667,0.0108333333 4.63,0 4.66,0 L5.745,0 C5.83833333,0 5.90833333,0.0416666667 5.955,0.125 L6.305,0.735 L6.685,0.125 C6.73166667,0.0416666667 6.80166667,0 6.895,0 L7.93,0 C7.96,0 7.98583333,0.0108333333 8.0075,0.0325 C8.02916667,0.0541666667 8.04,0.08 8.04,0.11 C8.04,0.13 8.035,0.148333333 8.025,0.165 L7.06,1.695 L8.125,3.335 C8.135,3.35166667 8.14,3.37 8.14,3.39 C8.14,3.42 8.12916667,3.44583333 8.1075,3.4675 C8.08583333,3.48916667 8.06,3.5 8.03,3.5 L6.905,3.5 C6.815,3.5 6.74666667,3.46166667 6.7,3.385 L6.265,2.715 L5.85,3.385 C5.80333333,3.46166667 5.735,3.5 5.645,3.5 L4.555,3.5 Z" id="Path"></path>
                            <path d="M9,3.5 C8.97,3.5 8.94416667,3.48916667 8.9225,3.4675 C8.90083333,3.44583333 8.89,3.42 8.89,3.39 C8.89,3.37 8.895,3.35166667 8.905,3.335 L9.955,1.71 L9.01,0.165 C9,0.145 8.995,0.126666667 8.995,0.11 C8.995,0.08 9.00583333,0.0541666667 9.0275,0.0325 C9.04916667,0.0108333333 9.075,0 9.105,0 L10.19,0 C10.2833333,0 10.3533333,0.0416666667 10.4,0.125 L10.75,0.735 L11.13,0.125 C11.1766667,0.0416666667 11.2466667,0 11.34,0 L12.375,0 C12.405,0 12.4308333,0.0108333333 12.4525,0.0325 C12.4741667,0.0541666667 12.485,0.08 12.485,0.11 C12.485,0.13 12.48,0.148333333 12.47,0.165 L11.505,1.695 L12.57,3.335 C12.58,3.35166667 12.585,3.37 12.585,3.39 C12.585,3.42 12.5741667,3.44583333 12.5525,3.4675 C12.5308333,3.48916667 12.505,3.5 12.475,3.5 L11.35,3.5 C11.26,3.5 11.1916667,3.46166667 11.145,3.385 L10.71,2.715 L10.295,3.385 C10.2483333,3.46166667 10.18,3.5 10.09,3.5 L9,3.5 Z" id="Path"></path>
                        </g>
                    </g>
                </g>
            </g>
        </g>
    </g>
</svg>