<svg xmlns="http://www.w3.org/2000/svg" viewBox="0 0 1112.23 192.96"><defs><style>.cls-1{fill:#ebeff0;}.cls-2{fill:#fefefe;}.cls-3{fill:#b6b6c6;}.cls-4{fill:#e64c3c;}.cls-5{fill:#7d5516;}.cls-6{fill:#53390e;}.cls-7{fill:#6b7495;}.cls-8{fill:#dadde3;}.cls-9{fill:#f8e69e;}.cls-10{fill:#f4b6b0;}.cls-11{fill:#b7b7c6;}.cls-12{fill:#b7b7c7;}.cls-13{fill:#757b99;}.cls-14{fill:#ebedee;}.cls-15{fill:#fdfdfd;}.cls-16{fill:#fbfbfb;}.cls-17{fill:#ebeeef;}</style></defs><g id="Шар_2" data-name="Шар 2"><g id="Шар_1-2" data-name="Шар 1"><path class="cls-1" d="M170.27,84c8.18,3.47,15.44,8.58,23.06,13,2.68,1.57,3.65,5,4.69,8-1,1.87-.24,3.9-.5,5.84.3,4.32-1.86,7.41-5.33,9.47-17.59,10.43-35.07,21.05-53.13,30.64-12,6.39-24,4.87-35.71-1.65Q60,125.09,16.59,101.15c-3.05-1.69-6.1-3.4-9.08-5.21C3.74,93.66.75,90.65.08,86V78c.55-5.75,4.35-8.82,9.08-11.26,2.48-1.27,4.91-2.66,7.27-4.17,1.07-.67,2.32-1.54,3.38.13,1.15,3.47.57,7,.6,10.55a7.8,7.8,0,0,1-.48,2.24c-1,2.27-3.41,2.93-5.23,4.24-2.42,1.73-2.41,3.38.22,4.79,2.87,1.54,5.56,3.42,8.54,4.77,16.21,9.42,32.83,18.1,49.09,27.44a29.62,29.62,0,0,0,5.19,2.44C88.59,126,99.94,132,111.26,138c8.31,4.41,17,4,25.26-.88,10.59-6.29,21.43-12.17,31.92-18.63,4.61-2.54,9.25-5,13.68-7.89,3.41-2.19,3.36-3.48-.08-5.67s-7.12-3.45-9.87-6.44C171,93.71,168.87,89.07,170.27,84Z"/><path class="cls-2" d="M18.85,62a27.91,27.91,0,0,1-6.44,4.37C7.08,68.91,2.26,72.08.08,78,.08,53.11.13,28.23,0,3.34,0,.63.47,0,3.29,0,23.55.16,43.81.08,64.06.08c.33,1.57-1,2-1.92,2.43-7.41,3.35-10.78,9.22-10.91,17.17A5,5,0,0,1,50.56,22C47.79,24.73,44,25.72,40.91,28c-10,7.3-16.78,16.67-19.74,28.75C20.71,58.59,20.73,60.73,18.85,62Z"/><path class="cls-3" d="M.08,86C2.94,92.58,9,95.54,14.77,98.75Q53.14,120,91.58,141.15C99.69,145.6,107.3,151,116.67,153c8.72,1.89,16.57-.15,23.91-4.24,16.39-9.14,32.58-18.65,48.81-28.08,3.79-2.2,7.24-4.8,7.68-9.71.31-.5.61-.47.91,0,.3,12.37-3.22,17.5-15.73,22.92-6.68,5.58-14.56,9.25-22,13.58-5.74,3.34-11.45,6.75-17.22,10-13.46,7.66-26.59,7.51-40.2-.09-26-14.51-52-28.84-78-43.28-4.47-2.48-9.36-4.38-13-8.23-4.64-2.48-9.08-5.2-11.75-10Z"/><path class="cls-4" d="M50,22C49.11,11.1,54.2,4.06,64.06.08h8c11.73,5.36,15.17,10.61,14.26,21.8.78,1.47.32,2.88-.21,4.29-2.5,6.71-10.33,11.89-18,11.9-6.83,0-15.71-6.06-17.91-12.26C49.77,24.56,49.34,23.29,50,22Z"/><path d="M541,80c0-11.07,0-21.54,0-32,0-8.46,2.22-11.19,10.71-11.69,12.38-.73,15.48,2.13,15.43,13.49-.15,29.59,0,59.19-.06,88.78,0,7.85-1.45,10.71-6.14,12.21-7.58,2.43-15.2.77-18.94-4.31-.68-.92-.89-1.74-2.09-.74-8.49,7-18,7.38-27.63,3.36-10.47-4.36-17.64-12.33-21.65-22.84-8.8-23.1,6.4-49.39,30.35-52.85C527.62,72.42,533,74.16,541,80Z"/><path d="M885.32,118.34c-3.12,8.45-5.8,15.95-8.66,23.37-2.21,5.72-5.56,10.39-12.47,10.44s-10.33-4.2-12.71-10.05c-7-17.22-14.13-34.36-21.12-51.57-1.61-4-3.75-8.27,0-12.12a19.72,19.72,0,0,1,15.74-6.09c3.61.21,5.77,2.85,7,6.25,3.38,9,6.89,18,10.41,27.09,1.88-.72,1.74-2.63,2.26-4,2.48-6.51,4.6-13.17,7.26-19.61,2.15-5.21,6-9,12-9.07,6.14-.1,10.4,3.34,12.66,8.85,2.64,6.44,4.85,13.06,7.27,19.59.56,1.5,1.23,3,2.16,5.18,3-8.23,5.84-15.61,8.51-23a25.28,25.28,0,0,1,3.46-7.12c2.79-3.57,6.28-5.24,10.94-3.81a31.14,31.14,0,0,1,7.61,3.63c4.4,2.8,6,6.82,4.05,11.58q-11.57,28.62-23.54,57.07a11.35,11.35,0,0,1-11,7.27,11.48,11.48,0,0,1-11.09-7.14C892.72,137.66,890,130,887,122.42,886.61,121.35,886.14,120.3,885.32,118.34Z"/><path d="M255.62,153.16c-9.29-.16-21.71-5.68-30.6-18.16-4.47-6.28-3.69-10.23,3.13-16.8,5-4.81,9.53-5.1,15.09-.73,2.34,1.84,4.38,4.07,6.59,6.09,5.15,4.72,11,6.65,17.92,4.61,4.75-1.4,7.11-4.6,7.59-9.4s-2.66-6.9-6.33-8.45a36.45,36.45,0,0,0-7.16-2.15,107.09,107.09,0,0,1-17.59-5.42c-17.72-6.69-21.1-20.67-20-32.45A32.32,32.32,0,0,1,252,41.12c13.32-1.8,26.26-.57,37.48,8,7.4,5.68,7.73,10,1.42,18-5.65,7.14-11.17,8-17.8,2.23-4.23-3.72-8.72-5.19-14.15-4.33-4.49.7-8,2.72-8.66,7.57s2.48,7.27,6.27,9.17,8,2,12,3c4.8,1.31,9.6,2.63,14.37,4,15.68,4.63,20,18.51,18.73,30.8C299.52,141,284.34,153.32,255.62,153.16Z"/><path d="M782,153.17c-9.22-.15-21.54-5.53-30.5-17.71-4.76-6.46-4-10.65,2.85-17.26,5.18-5,9.5-5.14,15.42-.4,2.21,1.76,4.15,3.85,6.24,5.76,5.15,4.69,11,6.64,17.91,4.6,5-1.47,7.35-5,7.7-9.86.33-4.44-2.82-6.69-6.39-7.89-5.34-1.79-11-2.74-16.27-4.59-8.28-2.88-17-5.3-22.57-12.89-14.64-19.8-2.42-48.49,22.28-51.85,13.17-1.79,25.92-.38,37,8,7.41,5.63,7.73,9.94,1.5,17.94-5.65,7.23-11.19,8.21-17.77,2.37-4.54-4-9.42-5.4-15.12-4.26-4,.8-7.14,3-7.75,7.38-.58,4.22,1.87,6.83,5.29,8.75,3.86,2.16,8.26,2.38,12.42,3.44,4.34,1.1,8.74,2,13,3.43,16,5.33,23.31,17.71,20.5,34.43C824.47,141.57,809.14,153.28,782,153.17Z"/><path d="M1060.11,143.06c0,11.4.14,21.53,0,31.66-.15,8.6-2.89,11.09-11.59,11.26-1,0-2,0-3,0-7.92-.37-10.69-3.19-10.7-11.16q0-41.66,0-83.33c0-3-.09-6,0-9,.25-5.62,2.43-8.42,7.93-9.13,8.56-1.12,15.56.06,17.53,7,6-6,13.19-8,21.32-6.82,10.07,1.51,17.36,7.58,23,15.44,19.94,27.93-3.07,58.49-23.91,60.57C1073.38,150.26,1066.58,148.85,1060.11,143.06Z"/><path d="M997.55,144.14c-8.66,8.75-22.38,9.8-33.63,2.76-26.45-16.55-26.08-53.48.7-69.43,11.23-6.69,24.07-5.47,32.85,3.44a10,10,0,0,1,9-7.72,27.73,27.73,0,0,1,12.32,1,6.37,6.37,0,0,1,4.18,5.23,51.41,51.41,0,0,1,.84,7.9q.1,24.94,0,49.88a53.83,53.83,0,0,1-.81,7.9,6.54,6.54,0,0,1-2.8,4.53C1014,154,1001.09,151,997.55,144.14Z"/><path d="M628.72,80.58c4-7.56,14.81-10.44,22.3-5.9,2.87,1.73,3.88,4.63,3.89,7.68.09,20,.16,40,0,59.92,0,6-2.48,8-8.56,9a33.42,33.42,0,0,1-10.43-.44,7.44,7.44,0,0,1-6.54-6.6c-11.3,9.39-24.68,9.67-36.4,1.09-24.14-17.69-22.9-51.82,2.44-67.46C606.85,70.77,619.05,71.77,628.72,80.58Z"/><path class="cls-5" d="M170.27,84q1.47,7.47,2.93,14.93a3.88,3.88,0,0,1,.49,3.88c-1.59,2.61-4.19,2.73-6.63,2.12-4.57-1.14-6.94.91-8.35,4.9a21.19,21.19,0,0,1-1.63,3.64c-3.07,5.26-8.14,6.68-13.68,3.85-7-3.57-9.08-3.36-14.68,1.44-10.65,9.13-24.46,7.51-33-3.69-2.09-2.73-2.65-6.76-6.22-8.18s-6.23,1.66-9.35,2.54c-2.77.78-4.93.2-6.37-2.42-2.24-7.54-1.12-14.95.93-22.31A47.27,47.27,0,0,1,97.94,55.83a10.33,10.33,0,0,1,6.14-1.58c2,.5,2.73,2.22,3.59,3.84,3.54,6.69,8.88,11,16.67,10.41,7.58-.6,12.83-4.94,15.36-12.28.32-.93.57-1.93,1.66-2.33C155.49,59.61,165,69.75,170.27,84Z"/><path d="M711,121c-5.5,0-11,.12-16.48,0-3.45-.1-3.25,1.59-1.89,3.58,2.81,4.14,7.13,6,11.9,6.34a38.26,38.26,0,0,0,18.11-2.47c6.51-2.72,10.3-1,13.51,5.77s2.18,11.65-3.69,15c-8.45,4.76-17.94,4.85-27.18,4.72-21.82-.32-36.14-11.83-40.64-31.88-6.31-28.06,15.16-52.66,43.88-50.51,15.06,1.12,26.46,7.14,31.71,22.09a27.15,27.15,0,0,1,1,15.18c-1.67,7.54-7.07,12.16-14.77,12.25C721.27,121,716.11,121,711,121Z"/><path d="M362.83,142.75c-15.34,17.19-40.69,6.92-49-12.89a37.82,37.82,0,0,1-3.06-12c-.82-11.8-.47-23.62-.23-35.42.12-6.24,2.7-8.59,8.87-9.33a34.64,34.64,0,0,1,7-.08c6.91.59,9.53,3,9.82,10,.39,9.47.31,19,.4,28.44.09,9.16,4.73,14.23,13,14.2,8.08,0,13.26-5.44,13.32-14.13.07-9.16,0-18.31,0-27.47.05-7.64,2.8-10.56,10.36-11.07a38.63,38.63,0,0,1,6,0c6.56.55,9.52,3.24,9.58,9.72q.27,29.72,0,59.42c0,5.79-2.64,8.25-8.53,9.06a38.4,38.4,0,0,1-6,.3C367.06,151.37,365.25,150,362.83,142.75Z"/><path d="M426.13,81.75c16-17.31,40.81-6.43,49,13.08a41.88,41.88,0,0,1,3.26,15c.34,11,.43,21.93-.07,32.89-.24,5.17-2.82,8-7.91,8.48-1.65.17-3.31.32-5,.33-10.32,0-13-2.58-13-12.95-.06-9,.16-18-.07-26.94-.17-7-3.9-11.26-10-12.4-6.51-1.22-12.52,1.57-15.17,7A13.86,13.86,0,0,0,426,112.5c0,9,0,18,0,26.95s-3,11.88-12,12.08a37.77,37.77,0,0,1-5-.15c-6.66-.78-9-3.27-9.08-10.1q-.15-29.19,0-58.38c0-6,2.08-8.28,8.1-9.39A30.28,30.28,0,0,1,414,73C421.65,73.15,423.59,74.54,426.13,81.75Z"/><path class="cls-6" d="M104.21,55C89.43,59.41,81.28,70.25,76.06,83.94c-9.86,14.49-30.8,9.13-36.76-2.88-.37-.74-.8-1.46-1.22-2.18-2.82-4.87-4.44-5.38-9.76-3-.91.39-1.8.87-2.72,1.24-3.25,1.29-5.49.45-6.46-3.06q-.15-6-.29-12c3.2-18.93,13-32.73,31.18-40,2.23,6.67,6.2,11.81,13.16,13.9,10.3,3.09,19.31-2.46,23.13-14,9.59,3.42,16.94,9.7,22.85,17.82C107.77,44.88,107.46,50.42,104.21,55Z"/><path class="cls-3" d="M150.14,157.91c2.34,1,5.39,1.38,4.77,5.14-.9,2.15-2.79,3.22-4.68,4.29q-12.57,7.16-25,14.54c-7.6,4.51-14.75,4-22.16-.18-19.39-11-38.93-21.64-58.45-32.58-.9,1.94.42,4.45-1.7,5.92-2.37-7.86-1.42-10.27,5.17-14.27,1.53-.93,3.88-1.29,4-3.82,1.85-.8,3.19.4,4.61,1.19,17.16,9.55,34.44,18.88,51.47,28.65,7.79,4.47,15.43,4.62,23.16,0,4.72-2.82,9.47-5.57,14.32-8.16C147,157.91,148.37,156.53,150.14,157.91Z"/><path class="cls-7" d="M150.14,157.91c-5.9,2.25-11.18,5.71-16.47,9-9.22,5.81-17.88,5.83-27.41.26C88.41,156.75,70.15,147,52.05,137c-8.23-4.6-16.3-9.52-24.74-13.7C19.69,119.47,15,113.5,11.83,106,27,114.24,42.21,122.47,57.36,130.8c16.61,9.14,33,18.68,49.81,27.47,11.43,6,23.16,5,34.33-1.34,13-7.44,25.89-15,38.85-22.5a7.8,7.8,0,0,1,1.9-.49c-2.6,5.47-7.28,8.82-12.21,11.91C163.47,150,156.29,153.08,150.14,157.91Z"/><path class="cls-7" d="M42.91,155l.37-8c7.87,4.32,15.28,8.33,22.64,12.42C79,166.75,92,174.1,105.09,181.32c6.27,3.46,12.43,3.7,18.84-.22,10.19-6.23,20.64-12,31-18,1.33,6.13-.69,10-6.63,12.95-8.62,4.23-16.76,9.44-25.07,14.3-5.09,3-10.38,3.73-15.63.86-21.39-11.71-42.7-23.57-64-35.38C43.28,155.63,43.12,155.29,42.91,155Z"/><path class="cls-4" d="M104.21,55c1.32-5.21,1.3-10.85,5-15.31,11.58-10,26-7.68,31.05,5,1.17,2.93,1.9,6,1.14,9.17-1.45,8.68-7.66,14.87-16.06,16-7.48,1-15.8-4.07-19-11.71C105.77,57,105.67,55.57,104.21,55Z"/><path class="cls-8" d="M198,111l-.46,0-.45,0c.28-2-.83-4.23,1-6Q198,108,198,111Z"/><path class="cls-9" d="M74.72,107.06c2.5,3,5,1.36,7.56.06,7.44-3.85,8.37-3.56,12.36,3.71,5.26,9.59,14.09,14,24.34,12.38,3.38-.53,5.72-2.47,8.06-4.59,7.13-6.46,8.76-6.66,17.25-2.14,4.76,2.53,9.69.89,12-4.06.9-2,1.57-4,2.42-6,1.39-3.26,3.65-4.57,7.15-3.08a7.06,7.06,0,0,0,7.1-.42c1.73,6.06.31,11.38-3.78,16.07-6.52,5.44-14.45,8.59-21.55,13.11-3.63,2.31-7.38,4.45-11.14,6.54-8.08,4.51-16.58,5.07-24.78,1-10.51-5.26-20.68-11.21-31-16.93a27.72,27.72,0,0,1-3.49-2.77,4.21,4.21,0,0,1-1.54-2.54,47.48,47.48,0,0,1-2-7.11C73.51,109.11,72.75,107.59,74.72,107.06Z"/><path class="cls-10" d="M74.72,107.06c-.49,3.6,1.26,6.71,2.23,10-1.36,1.39-3.06.62-4.62.71C55.82,108.66,39,100,23,90.06c-2.47-4.38-4.7-8.82-4-14.1,0-.65.05-1.3.08-1.95,2.06,3.1,4.45,3.1,7.63,1.43,8.14-4.29,8.69-4,13,3.8,7.41,13.38,21.63,16,33.23,6.2a4.53,4.53,0,0,1,3-1.5C74.44,91.58,72.64,99.2,74.72,107.06Z"/><path class="cls-11" d="M169.14,119a53.9,53.9,0,0,0,3.78-16.07c.1-1.34.19-2.68.28-4,4.12,1.36,7.58,4,11.26,6.09,2.58,1.5,2.87,4,.24,5.47C179.58,113.43,174.77,117,169.14,119Z"/><path class="cls-12" d="M19.06,76c1.15,4.75,3.41,9.18,4,14.1-3.76-1-6.73-3.51-10.07-5.29-2.72-1.45-2.61-3.66.09-5.35C15,78.19,17.05,77.11,19.06,76Z"/><path class="cls-13" d="M72.33,117.76c1.4-1.13,3.06-.63,4.63-.71.08,1,.16,1.91.25,2.87C75.21,120.05,73.9,118.61,72.33,117.76Z"/><path class="cls-14" d="M61.77,5.48c3.76.44,6.18,2.29,6.41,6.26a6.14,6.14,0,0,1-6.56,6.46c-4-.19-6.21-2.66-6.17-6.37S57.86,5.83,61.77,5.48Z"/><path class="cls-15" d="M527.56,125.67c-7.14,0-13.5-6.25-13.47-13.27A13.59,13.59,0,0,1,527.5,99.09c7.08,0,13.25,6.34,13.2,13.56A13.48,13.48,0,0,1,527.56,125.67Z"/><path class="cls-15" d="M1073.42,98.6a13.24,13.24,0,0,1,13.32,12.66c.21,6.85-6.28,13.37-13.33,13.39-6.67,0-12.46-5.92-12.53-12.86C1060.8,104.38,1066.21,98.71,1073.42,98.6Z"/><path class="cls-15" d="M983.53,99.08a13.21,13.21,0,0,1,13.26,13.3,13.66,13.66,0,0,1-12.94,13.28c-6.92.17-13.67-6.35-13.67-13.2A13.73,13.73,0,0,1,983.53,99.08Z"/><path class="cls-15" d="M628,112.6a13.37,13.37,0,0,1-13,13.06c-7.07,0-13.49-6.43-13.37-13.4a13.56,13.56,0,0,1,13.47-13.18C622.4,99.11,628.05,105,628,112.6Z"/><path class="cls-16" d="M702.14,107.7c-2.65,0-5.31-.11-8,0-3.19.17-3.21-1.3-2.26-3.66,2.63-6.47,12.19-10.89,18.75-8.53,3.68,1.33,5.8,3.85,5.23,7.95s-3.74,4.11-6.79,4.2C706.79,107.75,704.47,107.7,702.14,107.7Z"/><path class="cls-17" d="M123.24,45c-.21,4.2-2.52,6.24-6.28,6.51a6.12,6.12,0,0,1-6.39-6.66c.34-3.85,2.51-6.07,6.5-5.95S123,41.31,123.24,45Z"/></g></g></svg>