<?xml version="1.0" encoding="UTF-8"?>
<svg width="24px" height="24px" viewBox="0 0 24 24" version="1.1" xmlns="http://www.w3.org/2000/svg" xmlns:xlink="http://www.w3.org/1999/xlink">
    <title>icon/video</title>
    <g id="icon/video" stroke="none" stroke-width="1" fill="none" fill-rule="evenodd">
        <rect id="Rectangle" x="0" y="0" width="24" height="24"></rect>
        <path d="M19,3 C21.209139,3 23,4.790861 23,7 L23,7 L23,17 C23,19.209139 21.209139,21 19,21 L19,21 L5,21 C2.790861,21 1,19.209139 1,17 L1,17 L1,7 C1,4.790861 2.790861,3 5,3 L5,3 Z M19,5 L5,5 C3.8954305,5 3,5.8954305 3,7 L3,7 L3,17 C3,18.1045695 3.8954305,19 5,19 L5,19 L19,19 C20.1045695,19 21,18.1045695 21,17 L21,17 L21,7 C21,5.8954305 20.1045695,5 19,5 L19,5 Z M9.5,8.36158984 C9.58701347,8.36158984 9.67252062,8.3842975 9.74806947,8.42746827 L15.2402873,11.5658784 C15.480046,11.7028834 15.5633443,12.0083107 15.4263394,12.2480695 C15.3820447,12.3255851 15.3178029,12.3898269 15.2402873,12.4341216 L9.74806947,15.5725317 C9.50831075,15.7095367 9.20288341,15.6262384 9.06587843,15.3864796 C9.02270766,15.3109308 9,15.2254236 9,15.1384102 L9,8.86158984 C9,8.58544746 9.22385763,8.36158984 9.5,8.36158984 Z" id="Combined-Shape" fill="#6B7384" fill-rule="nonzero"></path>
    </g>
</svg>