<svg width="20" height="20" viewBox="0 0 20 20" fill="none" xmlns="http://www.w3.org/2000/svg">
<path d="M10 17C10.946 17 11.81 16.897 12.598 16.719L10.841 14.962C10.568 14.983 10.291 15 10 15C4.64901 15 2.57601 11.154 2.07401 9.99997C2.45096 9.15878 2.96006 8.38331 3.58201 7.70297L2.18401 6.30497C0.646009 7.97197 0.0630094 9.65097 0.0520094 9.68397C-0.0169703 9.88933 -0.0169703 10.1116 0.0520094 10.317C0.0730094 10.383 2.36701 17 10 17ZM10 2.99997C8.16301 2.99997 6.65401 3.39597 5.39601 3.98097L2.41406 0.999826C2.02355 0.609424 1.39051 0.609466 1.00006 0.999921C0.609565 1.39041 0.609566 2.02352 1.00006 2.41402L17.586 19C17.9765 19.3904 18.6095 19.3904 19 19C19.3905 18.6095 19.3905 17.9764 19 17.586L16.388 14.974C19.002 13.023 19.935 10.359 19.949 10.317C20.018 10.1116 20.018 9.88933 19.949 9.68397C19.927 9.61697 17.633 2.99997 10 2.99997ZM14.972 13.558L12.692 11.278C12.882 10.888 13 10.459 13 9.99997C13 8.35897 11.641 6.99997 10 6.99997C9.54101 6.99997 9.11201 7.11797 8.72301 7.30897L6.91501 5.50097C7.90753 5.16038 8.95072 4.99097 10 4.99997C15.351 4.99997 17.424 8.84597 17.926 9.99997C17.624 10.692 16.76 12.342 14.972 13.558Z" fill="white"/>
</svg>
