<svg width="22" height="14" viewBox="0 0 22 14" fill="none" xmlns="http://www.w3.org/2000/svg">
<path fillRule="evenodd" clipRule="evenodd" d="M14.0003 7C14.0003 8.65685 12.6571 10 11.0003 10C9.34342 10 8.00027 8.65685 8.00027 7C8.00027 5.34315 9.34342 4 11.0003 4C12.6571 4 14.0003 5.34315 14.0003 7ZM12.0003 7C12.0003 7.55228 11.5526 8 11.0003 8C10.448 8 10.0003 7.55228 10.0003 7C10.0003 6.44772 10.448 6 11.0003 6C11.5526 6 12.0003 6.44772 12.0003 7Z" fill="white"/>
<path fillRule="evenodd" clipRule="evenodd" d="M1.05229 6.684C1.07329 6.617 3.36729 0 11.0003 0C18.6333 0 20.9273 6.617 20.9493 6.684L21.0543 7L20.9483 7.316C20.9273 7.383 18.6333 14 11.0003 14C3.36729 14 1.07329 7.383 1.05129 7.316L0.946289 7L1.05229 6.684ZM3.07429 7C3.57629 8.154 5.64929 12 11.0003 12C16.3483 12 18.4223 8.158 18.9263 7C18.4243 5.846 16.3513 2 11.0003 2C5.65229 2 3.57829 5.842 3.07429 7Z" fill="white"/>
</svg>
