<svg width="24" height="24" viewBox="0 0 24 24" fill="none" xmlns="http://www.w3.org/2000/svg">
<path d="M12 19C12.946 19 13.81 18.897 14.598 18.719L12.841 16.962C12.568 16.983 12.291 17 12 17C6.64899 17 4.57599 13.154 4.07399 12C4.45094 11.1588 4.96004 10.3833 5.58199 9.70297L4.18399 8.30497C2.64599 9.97197 2.06299 11.651 2.05199 11.684C1.98301 11.8893 1.98301 12.1116 2.05199 12.317C2.07299 12.383 4.36699 19 12 19ZM12 4.99997C10.163 4.99997 8.65399 5.39597 7.39599 5.98097L4.41404 2.99983C4.02354 2.60942 3.3905 2.60947 3.00004 2.99992C2.60955 3.39041 2.60955 4.02352 3.00004 4.41402L19.586 21C19.9765 21.3904 20.6095 21.3904 21 21C21.3905 20.6095 21.3905 19.9764 21 19.586L18.388 16.974C21.002 15.023 21.935 12.359 21.949 12.317C22.018 12.1116 22.018 11.8893 21.949 11.684C21.927 11.617 19.633 4.99997 12 4.99997ZM16.972 15.558L14.692 13.278C14.882 12.888 15 12.459 15 12C15 10.359 13.641 8.99997 12 8.99997C11.541 8.99997 11.112 9.11797 10.723 9.30897L8.91499 7.50097C9.90751 7.16038 10.9507 6.99097 12 6.99997C17.351 6.99997 19.424 10.846 19.926 12C19.624 12.692 18.76 14.342 16.972 15.558Z" fill="black"/>
</svg>
