<svg width="24" height="24" xmlns="http://www.w3.org/2000/svg"><g fill="none" fillRule="evenodd"><path d="M11.4 8.6c-1.6.3-2.8 1.6-2.9 3.3l2.9-3.3zM11.9 15.5c.1 0 .1.1 0 0 2 0 3.6-1.6 3.6-3.5v-.5l-3.6 4z" fill="#93979C"/><path d="M4.7 16.2l1-1.1c-.3-.2-.5-.4-.8-.7-.7-.7-1.4-1.4-2-2.2-.1-.1-.1-.1-.1-.2s.1-.1.1-.2c.6-.8 1.2-1.5 2-2.2C7.1 7.5 9.5 6.5 12 6.5c.4 0 .8 0 1.2.1l1.2-1.3c-.8-.2-1.6-.3-2.4-.3-2.9 0-5.6 1.2-8.1 3.5-.8.7-1.5 1.5-2.2 2.4-.2.2-.3.5-.5.7L1 12l.3.4c.1.2.3.4.5.7.6.9 1.4 1.7 2.1 2.4.2.2.5.5.8.7zM22.7 11.6c-.1-.2-.3-.4-.5-.7-.6-.9-1.4-1.7-2.1-2.4-.4-.3-.7-.7-1.1-.9l-1 1.1c.4.3.7.6 1.1.9.7.7 1.4 1.4 2 2.2.1.1.1.1.1.2s-.1.1-.1.2c-.6.8-1.2 1.5-2 2.2-2.2 2.1-4.6 3.1-7.1 3.1-.6 0-1.1-.1-1.7-.2l-1.1 1.3c.9.2 1.8.4 2.8.4 2.9 0 5.6-1.2 8.1-3.5.8-.7 1.5-1.5 2.1-2.4.2-.2.3-.5.5-.7l.3-.4-.3-.4z" fill="#93979C"/><path stroke="#93979C" stroke-width="1.5" stroke-linecap="round" stroke-linejoin="round" d="M4.4 20.3L19.7 2.9"/></g></svg>