<svg width="38" height="38" xmlns="http://www.w3.org/2000/svg">
  <g>
    <title>background</title>
    <rect x="-1" y="-1" width="4.375" height="4.375" id="canvas_background" fill="none" />
  </g>
  <g>
    <title>Layer 1</title>
    <g fill="none" fill-rule="evenodd" id="svg_1">
      <rect fill="#F0F3F5" width="38" height="38" rx="8" id="svg_2" />
    </g>
    <path stroke="null" d="m16.89487,12.84048l0,0.62051l-0.62051,0l0,3.72308a7.03248,7.03248 0 1 0 4.75727,0l0,-4.34359l0.93077,0a0.31026,0.31026 0 0 0 0,-0.62051l-6.6188,0a0.31026,0.31026 0 0 0 0,0.62051l1.55129,0l-0.00001,0l-0.00001,0zm0.62051,0l2.89572,0l0,0.62051l-2.89572,0l0,-0.62051zm4.13675,0.62051l0,3.29906a7.65299,7.65299 0 1 1 -5.99829,0l0,-3.29906l-0.31026,0a0.93077,0.93077 0 0 1 0,-1.86154l6.6188,0a0.93077,0.93077 0 0 1 0,1.86154l-0.31026,0l0.00001,0zm-2.72301,5.98898a0.28647,0.28647 0 0 1 -0.57191,-0.03206a0.28647,0.28647 0 0 1 0.57191,0.03206zm3.73755,2.46654a0.28564,0.28564 0 0 1 -0.25958,-0.50882a0.28585,0.28585 0 1 1 0.25854,0.50986l0.00104,-0.00104zm-0.27613,4.45632a0.28543,0.28543 0 0 1 -0.08377,-0.39403a0.28647,0.28647 0 0 1 0.47987,0.31026a0.28854,0.28854 0 0 1 -0.39713,0.08273l0.00104,0.00104l-0.00001,0zm-4.04781,1.98874a0.28647,0.28647 0 1 1 0.27406,0.30198a0.28647,0.28647 0 0 1 -0.27406,-0.30198zm-3.70343,-2.46551a0.28564,0.28564 0 0 1 0.25958,0.50882a0.28751,0.28751 0 0 1 -0.38265,-0.12617a0.2844,0.2844 0 0 1 0.12617,-0.38161l-0.0031,-0.00104zm0.27613,-4.45529a0.28337,0.28337 0 0 1 0.08377,0.39299a0.28854,0.28854 0 0 1 -0.39713,0.0817a0.28543,0.28543 0 0 1 -0.08584,-0.38782a0.28543,0.28543 0 0 1 0.3992,-0.08687zm4.13675,-0.31026a0.41368,0.41368 0 1 1 -0.38265,-0.43023a0.4085,0.4085 0 0 1 0.38575,0.43023l-0.0031,0zm2.21317,1.73537a0.40747,0.40747 0 0 1 -0.37024,-0.72393a0.40747,0.40747 0 1 1 0.37024,0.72393zm-0.3992,2.77577a0.40747,0.40747 0 0 1 -0.11893,-0.5626a0.41368,0.41368 0 0 1 0.56674,-0.1179a0.40644,0.40644 0 0 1 0.11893,0.5626a0.41368,0.41368 0 0 1 -0.56674,0.1179zm-2.64546,1.04039a0.41368,0.41368 0 1 1 0.38575,0.43023a0.41368,0.41368 0 0 1 -0.38575,-0.43023zm-2.18317,-1.73434a0.40747,0.40747 0 1 1 0.36921,0.72393a0.40747,0.40747 0 1 1 -0.37024,-0.72393l0.00104,0l-0.00001,0zm0.4023,-2.77679a0.40747,0.40747 0 0 1 0.11893,0.5626a0.41368,0.41368 0 0 1 -0.56674,0.11686a0.40644,0.40644 0 0 1 -0.11997,-0.56156a0.41368,0.41368 0 0 1 0.56777,-0.1179l0.00001,0zm4.86069,-2.41173a0.22545,0.22545 0 0 1 -0.37231,-0.2451a0.22493,0.22493 0 0 1 0.37645,0.24614l-0.00414,-0.00104zm2.28142,4.36014a0.22339,0.22339 0 0 1 -0.20684,-0.23579a0.22545,0.22545 0 0 1 0.44884,0.02275a0.22442,0.22442 0 0 1 -0.23786,0.20684l-0.00414,0.0062zm-2.65166,4.14709a0.22442,0.22442 0 0 1 0.10342,-0.30095a0.22649,0.22649 0 0 1 0.30302,0.10342a0.22339,0.22339 0 0 1 -0.10342,0.29992a0.22545,0.22545 0 0 1 -0.29888,-0.10238l-0.00414,0l0,-0.00001zm-4.93308,-0.21304a0.22639,0.22639 0 0 1 0.38058,0.2451a0.22545,0.22545 0 0 1 -0.37748,-0.2451l-0.0031,0zm-2.27728,-4.36014a0.22442,0.22442 0 0 1 0.21201,0.23683a0.22545,0.22545 0 0 1 -0.44987,-0.02379a0.22442,0.22442 0 0 1 0.23786,-0.20684l0,-0.0062l0.00001,0l-0.00001,0zm2.65166,-4.14709a0.22339,0.22339 0 0 1 -0.10342,0.30095a0.22649,0.22649 0 0 1 -0.30302,-0.10342a0.22235,0.22235 0 0 1 0.10342,-0.29992a0.22545,0.22545 0 0 1 0.30198,0.10342l0.00104,-0.00104l0,0.00001zm4.38909,1.40029a0.34749,0.34749 0 0 1 -0.58225,-0.37851a0.34956,0.34956 0 0 1 0.48193,-0.10342a0.34542,0.34542 0 0 1 0.10342,0.47779l-0.0031,0.00414zm1.52026,3.29802a0.34645,0.34645 0 0 1 -0.32783,-0.36507a0.34852,0.34852 0 0 1 0.69497,0.0393a0.34852,0.34852 0 0 1 -0.36817,0.32681l0.00104,-0.00104l-0.00001,0zm-2.10767,2.95985a0.34749,0.34749 0 0 1 0.15202,-0.46538a0.34686,0.34686 0 1 1 0.31026,0.62051a0.34956,0.34956 0 0 1 -0.46228,-0.15513zm-3.62793,-0.33818a0.34749,0.34749 0 0 1 0.58225,0.37851a0.34749,0.34749 0 0 1 -0.58225,-0.37851zm-1.52129,-3.29802a0.34645,0.34645 0 0 1 0.32783,0.36507a0.34852,0.34852 0 1 1 -0.32783,-0.3661l0,0.00104l0,-0.00001zm2.10871,-2.95881a0.34542,0.34542 0 0 1 -0.15202,0.46332a0.34686,0.34686 0 1 1 -0.31026,-0.62051a0.34956,0.34956 0 0 1 0.46745,0.15306l-0.00517,0.00414l0,-0.00001zm2.33726,2.57306a0.69291,0.69291 0 1 1 0.58329,-0.31026a0.69601,0.69601 0 0 1 -0.58329,0.31026zm0.82735,1.41374l-0.04033,0a0.69394,0.69394 0 1 1 0.0786,-1.38478a0.69322,0.69322 0 0 1 -0.03826,1.38581l0,-0.00104l0,0.00001l-0.00001,0zm-0.81701,1.41684a0.69497,0.69497 0 0 1 -0.62051,-0.38161a0.69291,0.69291 0 0 1 0.31026,-0.93077a0.70221,0.70221 0 0 1 0.31026,-0.07446a0.69394,0.69394 0 1 1 0,1.38685l-0.00001,0l0,-0.00001zm-1.64229,0a0.69601,0.69601 0 0 1 -0.68153,-0.55226a0.6867,0.6867 0 0 1 0.10342,-0.5171a0.69704,0.69704 0 0 1 1.26481,0.2389a0.6867,0.6867 0 0 1 -0.10342,0.5171a0.69911,0.69911 0 0 1 -0.58639,0.3175l0.0031,-0.00414l0.00001,0zm-0.82735,-1.41374l-0.04033,0a0.69911,0.69911 0 1 1 0.04033,0zm0.81494,-1.41684a0.69394,0.69394 0 0 1 -0.31026,-1.31342a0.70118,0.70118 0 0 1 0.31026,-0.07343a0.69394,0.69394 0 1 1 0,1.38685zm0.12307,-7.7409a0.54398,0.54398 0 0 1 -0.53675,-0.53985a0.54398,0.54398 0 0 1 0.54502,-0.54398a0.54398,0.54398 0 0 1 0.54398,0.54398a0.54398,0.54398 0 0 1 -0.54398,0.54398l-0.00828,-0.00414l0.00001,0.00001zm1.22138,2.15628a0.41368,0.41368 0 1 1 0.41368,-0.41368a0.41368,0.41368 0 0 1 -0.41368,0.41368zm0.18305,-6.71084a1.08797,1.08797 0 1 1 1.09003,-1.08797a1.08797,1.08797 0 0 1 -1.09003,1.08797zm-1.55129,-2.82437a0.62051,0.62051 0 0 1 -0.62051,-0.62051a0.62051,0.62051 0 0 1 0.62051,-0.62051a0.62051,0.62051 0 0 1 0.62051,0.62051a0.62051,0.62051 0 0 1 -0.62568,0.62051l0.00517,0l0.00001,0l-0.00001,0zm1.55129,-2.25453a0.31026,0.31026 0 0 1 -0.31026,-0.31026a0.31026,0.31026 0 0 1 0.31026,-0.31026a0.31026,0.31026 0 0 1 0.31026,0.31026a0.31026,0.31026 0 0 1 -0.31026,0.31026z" fill="#000000" fill-rule="evenodd" id="svg_7" />
  </g>
</svg>