<svg width="38" height="38" xmlns="http://www.w3.org/2000/svg"><g fill="none" fill-rule="evenodd"><rect fill="#F0F3F5" width="38" height="38" rx="8"/><path d="M24.178 19.325c-.374-.477-.939-.805-1.694-.982.962-.484 1.384-1.304 1.268-2.461a2.407 2.407 0 00-.353-1.091 2.204 2.204 0 00-.799-.744c-.335-.188-.7-.33-1.093-.43a8.747 8.747 0 00-1.355-.214V11h-1.49v2.336c-.259 0-.652.007-1.181.02V11h-1.49v2.403c-.214.006-.526.01-.94.01L13 13.403v1.564h1.074c.49 0 .778.216.861.648v2.737c.065 0 .117.004.155.01h-.155v3.833c-.051.324-.238.487-.56.487H13.3l-.3 1.745h1.936c.122 0 .3.001.532.004.232.004.406.005.522.005v2.432h1.491v-2.403c.271.006.665.01 1.18.01v2.393h1.491v-2.432c.53-.025.999-.073 1.408-.143.41-.07.802-.18 1.176-.329.374-.15.687-.335.938-.558.252-.222.46-.505.625-.849.164-.343.27-.74.314-1.192.084-.883-.06-1.564-.435-2.04zm-6.286-4.258c.21-.003.384-.007.523-.01.138-.003.326.005.561.024.236.02.434.045.595.076.162.032.34.085.533.158s.348.162.464.267c.116.105.215.238.295.4.08.162.121.348.121.558 0 .178-.029.34-.087.487a.917.917 0 01-.261.367 2.646 2.646 0 01-.358.257c-.123.073-.28.132-.47.177-.19.044-.356.079-.498.104-.142.026-.32.043-.532.053a10.56 10.56 0 01-.934.02 37.67 37.67 0 00-.334-.006v-2.927l.382-.005zm3.688 6.499c-.062.146-.14.273-.238.381a1.342 1.342 0 01-.382.286c-.158.083-.311.15-.46.2a3.745 3.745 0 01-.537.134 7.154 7.154 0 01-1.118.12 12.89 12.89 0 01-.977.009 31.688 31.688 0 00-.358-.005v-3.223c.051 0 .205-.003.46-.01a10.486 10.486 0 011.292.02c.283.018.522.047.716.085.193.038.404.097.634.176.229.08.414.177.556.291.142.115.261.26.358.439.097.178.146.381.146.61 0 .178-.031.34-.092.487z" fill="#F5B300" fill-rule="nonzero"/></g></svg>